<svg width="24px" height="24px" viewBox="0 0 24 24" version="1.1" xmlns="http://www.w3.org/2000/svg" xmlns:xlink="http://www.w3.org/1999/xlink">
    <g id="Iconly/Bulk/Calling" stroke="none" stroke-width="1" fill="none" fill-rule="evenodd">
        <g id="Calling" transform="translate(2.000217, 2.000000)" fill="#1F1646" fill-rule="nonzero">
            <path d="M12.4180911,3.48993846 C11.9420501,3.40199885 11.5048492,3.70579022 11.4142222,4.17047109 C11.3235951,4.63515197 11.628341,5.0888404 12.0914353,5.17977794 C13.4856977,5.45159127 14.5622674,6.53085008 14.8351444,7.92988928 L14.8351444,7.93088859 C14.9128248,8.33361201 15.2673658,8.62641093 15.6756854,8.62641093 C15.73046,8.62641093 15.7852346,8.62141436 15.8410051,8.61142123 C16.3040994,8.51848505 16.6088453,8.06579594 16.5182183,7.60011575 C16.1108945,5.51055078 14.5025133,3.89665914 12.4180911,3.48993846" id="Fill-1" opacity="0.400000006"></path>
            <path d="M12.3558472,0.00792976387 C12.1327652,-0.0240482749 11.9086874,0.04190643 11.730421,0.183808977 C11.547175,0.327710151 11.4326464,0.535567403 11.4077488,0.768407498 C11.354966,1.23908426 11.6945685,1.6647919 12.1646341,1.71775552 C15.406294,2.07950709 17.9259253,4.60477283 18.2904253,7.85653965 C18.3392245,8.29224043 18.7047204,8.62101464 19.1409253,8.62101464 C19.1737901,8.62101464 19.2056589,8.61901601 19.2385237,8.61501876 C19.4665852,8.59003591 19.6697491,8.47711346 19.813159,8.297237 C19.9555729,8.11736053 20.0203065,7.89351426 19.9944131,7.66467142 C19.5402819,3.60745775 16.4002039,0.458620247 12.3558472,0.00792976387" id="Fill-3" opacity="0.400000006"></path>
            <path d="M15.6046777,12.6730319 C14.9563457,12.5351266 14.4434563,12.8349207 13.9893251,13.0967409 C13.5242391,13.3665556 12.6388825,14.0810649 12.1329644,13.8971912 C9.53764465,12.8339214 7.09668964,10.5704758 6.04003796,7.97625743 C5.85380434,7.45961224 6.56786585,6.57322098 6.8357634,6.10554216 C7.09768554,5.65185374 7.39247243,5.13520855 7.25802571,4.48565464 C7.1365257,3.90105612 5.56499286,1.90942389 5.00927972,1.36479792 C4.641792,1.00504498 4.26733297,0.80718087 3.88191902,0.774203517 C2.43288209,0.713245381 0.814541861,2.6389229 0.530709883,3.09960652 C-0.181359816,4.0819319 -0.176380307,5.38903423 0.542660703,6.97394578 C2.27552962,11.2310222 8.82955855,17.65561 13.119903,19.4463802 C13.9106489,19.815127 14.6356653,20 15.2859891,20 C15.9223703,20 16.4890383,19.8231215 16.9760343,19.4723624 C17.3425261,19.2615072 19.3562393,17.5696691 19.3024606,16.0876868 C19.2715876,15.7099462 19.0734032,15.3322057 18.7168704,14.9664568 C18.1731081,14.4078405 16.1872801,12.7959475 15.6046777,12.6730319" id="Fill-6"></path>
        </g>
    </g>
</svg>