<?xml version="1.0" encoding="UTF-8"?>
<svg width="24px" height="24px" viewBox="0 0 24 24" version="1.1" xmlns="http://www.w3.org/2000/svg" xmlns:xlink="http://www.w3.org/1999/xlink">
    <title>Iconly/Light/Calling</title>
    <g id="Iconly/Light/Calling" stroke="none" stroke-width="1" fill="none" fill-rule="evenodd" stroke-linecap="round" stroke-linejoin="round">
        <path d="M2.98994569,4.87351344 C3.30627333,4.34874546 5.05018349,2.44376583 6.29289921,2.50127465 C6.66468689,2.53310989 6.99333898,2.7569835 7.2603688,3.01782708 L7.26139584,3.01782708 C7.87351036,3.6175619 9.62974498,5.88094471 9.7283406,6.35744636 C9.97174856,7.52610772 8.57805828,8.19978246 9.00427897,9.37768631 C10.0908849,12.0364422 11.9631748,13.9085597 14.6232027,14.9940387 C15.800188,15.421247 16.4739248,14.0287121 17.6426938,14.2710706 C18.1192393,14.3706841 20.3838576,16.1257301 20.9826207,16.7388152 L20.9826207,16.7388152 C21.2424612,17.0047934 21.4684095,17.3344422 21.4992207,17.7061956 C21.5454374,19.0155482 19.5221729,20.7829175 19.1277904,21.008845 C18.1972942,21.6753311 16.9833355,21.6630078 15.5033741,20.9749559 C11.3736551,19.2568799 4.77391032,12.782003 3.02383794,8.49656904 C2.3542093,7.02495944 2.30901964,5.80289703 2.98994569,4.87351344 Z" id="Stroke-1" stroke="#1F1646"></path>
        <path d="M14.5654,2.75 C18.2674,3.161 21.1904,6.081 21.6064,9.782" id="Path" stroke="#1F1646"></path>
        <path d="M14.5654,6.293 C16.3354,6.638 17.7184,8.021 18.0634,9.791" id="Path" stroke="#1F1646"></path>
    </g>
</svg>