<?xml version="1.0" encoding="UTF-8"?>
<svg width="115px" height="170px" viewBox="0 0 115 170" version="1.1" xmlns="http://www.w3.org/2000/svg" xmlns:xlink="http://www.w3.org/1999/xlink">
    <title>Group 6</title>
    <g id="Page-4" stroke="none" stroke-width="1" fill="none" fill-rule="evenodd">
        <g id="Footer_3" transform="translate(-112.000000, -110.000000)">
            <g id="Group-6" transform="translate(112.000000, 110.000000)">
                <g id="Group-2" transform="translate(0.000000, 133.664612)" fill="#1F1645">
                    <polygon id="Fill-158" points="14.5337988 4.05716652 0.372478718 4.05716652 0.372478718 0.531985155 18.6970059 0.531985155 19.9819684 4.05716652 5.44816958 23.7219042 20.4649432 23.7219042 20.4649432 27.2488678 1.29565564 27.2488678 0 23.7219042"></polygon>
                    <polygon id="Fill-159" points="34.4478656 36.3353881 29.8498029 36.3353881 34.0753868 24.5764666 29.6911876 24.5764666 20.9281356 0.532876253 25.5244161 0.532876253 34.1787541 24.2574538 42.6744769 0.532876253 47.2725395 0.532876253"></polygon>
                    <path d="M53.2641003,27.2497589 L48.8299996,27.2497589 L48.8299996,0.532876253 L53.105485,0.532876253 L53.105485,5.76718245 L53.2088523,5.76718245 C54.6007464,2.08338575 57.0566109,0 60.8544681,0 C65.3420346,0 68.17216,2.40239862 69.2949428,5.76718245 L69.3484086,5.76718245 C70.7367384,2.08338575 73.568646,0 77.3665031,0 C83.2423995,0 86.2881704,4.11152346 86.2881704,9.13553067 L86.2881704,27.2497589 L81.8505053,27.2497589 L81.8505053,10.6860402 C81.8505053,6.24837506 80.036231,3.6837967 75.8159936,3.6837967 C71.3266449,3.6837967 69.7761354,6.46223844 69.7761354,10.2600956 L69.7761354,27.2497589 L65.3420346,27.2497589 L65.3420346,10.6860402 C65.3420346,6.24837506 63.5241959,3.6837967 59.3039586,3.6837967 C54.8146098,3.6837967 53.2641003,6.46223844 53.2641003,10.2600956 L53.2641003,27.2497589 Z" id="Fill-160"></path>
                    <path d="M110.07156,13.8891789 C110.07156,7.95803455 107.187969,3.52393383 102.058812,3.52393383 C96.9278735,3.52393383 94.0407179,7.95803455 94.0407179,13.8891789 C94.0407179,19.8238877 96.9278735,24.2579884 102.058812,24.2579884 C107.187969,24.2579884 110.07156,19.8238877 110.07156,13.8891789 M89.2341385,13.8891789 C89.2341385,6.78535036 94.0407179,0.000534658449 102.058812,0.000534658449 C110.07156,0.000534658449 114.881704,6.78535036 114.881704,13.8891789 C114.881704,20.9965719 110.07156,27.7867342 102.058812,27.7867342 C94.0407179,27.7867342 89.2341385,20.9965719 89.2341385,13.8891789" id="Fill-161"></path>
                </g>
                <g id="Group-3" transform="translate(8.910974, 0.000000)" fill="#763CBD">
                    <path d="M48.5341552,56.3850799 L72.1464545,-1.62089675e-12 L96.9299607,-1.62089675e-12 C97.0223299,28.6024448 75.9817377,52.3074181 48.5341552,56.3850799" id="Fill-162"></path>
                    <path d="M48.5341552,56.3850799 L24.921856,112.77016 L0.138349804,112.77016 C0.0459806265,84.167715 21.0865727,60.4627416 48.5341552,56.3850799" id="Fill-163"></path>
                    <polygon id="Fill-164" points="97.0683105 71.6032415 65.266826 112.77016 30.7635342 112.77016 62.5650187 71.6032415"></polygon>
                    <polygon id="Fill-165" points="0 41.1670965 31.8014845 0.000178219481 66.3047763 0.000178219481 34.5032918 41.1670965"></polygon>
                </g>
            </g>
        </g>
    </g>
</svg>