<?xml version="1.0" encoding="utf-8"?>
<!-- Generator: Adobe Illustrator 26.3.1, SVG Export Plug-In . SVG Version: 6.00 Build 0)  -->
<svg version="1.1" id="Layer_1" xmlns="http://www.w3.org/2000/svg" xmlns:xlink="http://www.w3.org/1999/xlink" x="0px" y="0px"
	 viewBox="0 0 22 17" style="enable-background:new 0 0 22 17;" xml:space="preserve">
<style type="text/css">
	.asdasddsad{fill-rule:evenodd;clip-rule:evenodd;fill:#fff;}
</style>
<path class="asdasddsad" d="M8.3,15c-0.3,0-0.5-0.1-0.9-0.4L2,9.3C1.6,8.9,1.6,8.2,2,7.8c0.3-0.2,0.5-0.3,0.8-0.3c0.3,0,0.6,0.1,1,0.4
	l4.6,4.6L18.6,2.2C18.8,2,19,2,19.3,2c0.2,0,0.5,0.1,0.7,0.3c0.4,0.4,0.4,1.1,0,1.5l-11,11C8.8,15,8.5,15,8.3,15z"/>
</svg>
