<?xml version="1.0" encoding="UTF-8"?>
<svg xmlns="http://www.w3.org/2000/svg" viewBox="0 0 405.03 70.87">
  <defs>
    <style>.cls-1{fill:#d1d1d1;}.cls-2{fill:#e1e1e1;}.cls-3{fill:#dedede;}.cls-4{fill:#d0d0d0;}.cls-5{fill:#e5e5e5;}.cls-6{fill:#e7e7e7;}.cls-7{fill:#dfdfdf;}.cls-8{fill:#ddd;}.cls-9{fill:#e3e3e3;}.cls-10{fill:#e6e6e6;}.cls-11{fill:#e0e0e0;}.cls-12{fill:#e2e2e2;}.cls-13{fill:#fcfcfc;}.cls-14{fill:#fdfdfd;}</style>
  </defs>
  <title>Asset 1</title>
  <g id="Layer_2" data-name="Layer 2">
    <g id="Layer_1-2" data-name="Layer 1">
      <path class="cls-1" d="M.12,14.28q0,16.8,0,33.59v6.58c0,.06-.09.07-.13,0V14.28C0,14.21.08,14.22.12,14.28Z"></path>
      <path class="cls-2" d="M404.91,36.86a26.49,26.49,0,0,0-1.72-7.44,3.56,3.56,0,0,1-.1-.47,11,11,0,0,1,1.2,3.27,22,22,0,0,1,.74,4.64Q405,37,404.91,36.86Z"></path>
      <path class="cls-3" d="M404.2,52.79a17.38,17.38,0,0,0-.27-6.1,3.5,3.5,0,0,1,.47,1.83A10.09,10.09,0,0,1,404.2,52.79Z"></path>
      <path class="cls-2" d="M403.93,44.2c.21-1.06.65-2.07.76-3.17.05-.51.14-1,.22-1.54q.06-.09.12,0A12.2,12.2,0,0,1,403.93,44.2Z"></path>
      <path class="cls-4" d="M405,39.49h-.12V36.86H405Z"></path>
      <path class="cls-3" d="M403.37,55.57a5,5,0,0,1,.56-1.68A3.07,3.07,0,0,1,403.37,55.57Z"></path>
      <path class="cls-5" d="M395.46,64.7a2,2,0,0,1,1.12-.69A2,2,0,0,1,395.46,64.7Z"></path>
      <path class="cls-6" d="M399.07,61.8a2.92,2.92,0,0,1,.84-.84A1.16,1.16,0,0,1,399.07,61.8Z"></path>
      <path class="cls-3" d="M403.93,53.9a2,2,0,0,1,.28-1.11A1.52,1.52,0,0,1,403.93,53.9Z"></path>
      <path class="cls-7" d="M402.12,58.05a.88.88,0,0,1,.42-.69A.84.84,0,0,1,402.12,58.05Z"></path>
      <path class="cls-8" d="M402.82,56.81c0-.3,0-.61.41-.68C403.09,56.35,403,56.63,402.82,56.81Z"></path>
      <path class="cls-9" d="M399.91,23.42a.7.7,0,0,1-.43-.56A.68.68,0,0,1,399.91,23.42Z"></path>
      <path class="cls-5" d="M400.46,24.12a.67.67,0,0,1-.42-.57A.68.68,0,0,1,400.46,24.12Z"></path>
      <path class="cls-10" d="M359.65,64.57a.65.65,0,0,1,.42-.56A.7.7,0,0,1,359.65,64.57Z"></path>
      <path class="cls-11" d="M403.65,44.9a.81.81,0,0,1,.28-.7A.81.81,0,0,1,403.65,44.9Z"></path>
      <path class="cls-11" d="M402.54,57.36c0-.24,0-.45.28-.56A.8.8,0,0,1,402.54,57.36Z"></path>
      <path class="cls-11" d="M402.4,27.44a.8.8,0,0,1-.28-.56A.48.48,0,0,1,402.4,27.44Z"></path>
      <path class="cls-12" d="M402.13,26.89a.48.48,0,0,1-.28-.56A.78.78,0,0,1,402.13,26.89Z"></path>
      <polygon class="cls-13" points="154.48 0.56 154.49 0.56 154.49 0.56 154.48 0.56"></polygon>
      <polygon class="cls-13" points="142.27 4.58 142.27 4.58 142.27 4.58 142.27 4.58"></polygon>
      <polygon class="cls-13" points="167.12 15.52 167.12 15.53 167.12 15.53 167.12 15.52"></polygon>
      <polygon class="cls-13" points="331.19 14.83 331.19 14.83 331.19 14.83 331.19 14.83"></polygon>
      <polygon class="cls-13" points="276.5 4.3 276.5 4.3 276.5 4.3 276.5 4.3"></polygon>
      <polygon class="cls-13" points="176.7 67.89 176.7 67.89 176.69 67.89 176.7 67.89"></polygon>
      <polygon class="cls-13" points="402.82 56.8 402.82 56.81 402.82 56.81 402.82 56.8"></polygon>
      <polygon class="cls-13" points="402.54 57.36 402.54 57.36 402.54 57.36 402.54 57.36"></polygon>
      <polygon class="cls-13" points="58.02 62.49 58.02 62.49 58.01 62.49 58.02 62.49"></polygon>
      <polygon class="cls-13" points="269.29 68.86 269.29 68.86 269.28 68.86 269.29 68.86"></polygon>
      <polygon class="cls-13" points="402.12 26.88 402.12 26.88 402.13 26.89 402.12 26.88"></polygon>
      <polygon class="cls-13" points="45.1 3.05 45.11 3.06 45.11 3.06 45.1 3.05"></polygon>
      <path class="cls-13" d="M403.93,46.69a1.47,1.47,0,0,0-.22-.77.93.93,0,0,1-.06-1c.12-.22.15-.48.28-.7h0a16.82,16.82,0,0,0,1-4.8V36.93a8.88,8.88,0,0,0-.18-1.78,24.5,24.5,0,0,0-1.7-6.2c0-.59-.49-1-.69-1.51a2.44,2.44,0,0,0-.28-.56,1.88,1.88,0,0,1-.27-.55l-1.39-2.21c-.13-.2-.3-.37-.42-.57l-.13-.13c-.14-.19-.3-.36-.43-.56l-.13-.13c-.13-.19-.3-.36-.42-.56s-.21-.28-.31-.42-.34-.69-.8-.69a1.73,1.73,0,0,0-.56-.55l-.55-.55c-.2-.13-.37-.29-.56-.42l-1.24-1c-.26-.21-.56-.37-.84-.56l-.82-.55a3.77,3.77,0,0,0-.57-.28,1.37,1.37,0,0,0-.69-.4c-.16-.16-.44-.18-.54-.42h-.15c-.35-.09-.64-.31-1-.42l-.68-.26c-.46-.23-.94-.38-1.4-.57l-.4-.14c-.33-.11-.67-.16-1-.28h0c-.82-.24-1.67-.39-2.51-.55h0c-.75-.18-1.54-.17-2.29-.34a34.42,34.42,0,0,0-3.93-.14,33,33,0,0,0-6.56.9l-.54.13-1.4.43-1.24.4c-.22.13-.48.16-.7.28l-.27.14c-.33.14-.65.29-1,.42l-1.11.55a2.19,2.19,0,0,1-.55.28c-.8.6-1.74,1-2.5,1.66-.19.13-.36.29-.56.41a4.53,4.53,0,0,1-1,.83c-.19.13-.36.3-.56.42a3,3,0,0,0-.79.84c-.12.21-.46.39-.56.22-.2-.33-.61-.38-.78-.66a8.54,8.54,0,0,0-1.61-1.78c-.26-.16-.45-.4-.7-.56a7,7,0,0,0-1.38-1.11c-.22-.16-.49-.23-.7-.41a15.6,15.6,0,0,0-2.22-1.25c-.22-.12-.48-.15-.7-.28l-.27-.13c-.22-.12-.48-.15-.7-.28h0a27,27,0,0,0-6.09-1.32h-3.82a5.09,5.09,0,0,0-.87.14,21.47,21.47,0,0,0-5.75,1.33,1.19,1.19,0,0,1-1.52-.15c-.18-.1-.4-.12-.56-.28a16.49,16.49,0,0,0-2.78-.83h0a15.06,15.06,0,0,0-6,.14h0c-.58.26-.76-.08-.76-.55a10.44,10.44,0,0,0-.22-2.09h0c-.12-.37-.14-.76-.28-1.11h0a11.63,11.63,0,0,0-.42-1.26l-.14-.27c-.12-.21-.16-.47-.27-.69a12.76,12.76,0,0,0-5.27-5.54c-.22-.16-.5-.24-.71-.42l-.27-.13c-.33-.13-.65-.28-1-.42h0a12.63,12.63,0,0,0-3.52-.88A16.63,16.63,0,0,0,305,1l-.41.13c-.32.12-.66.17-1,.28h0c-.35.19-.75.25-1.11.42h0a5.78,5.78,0,0,0-1.11.56.27.27,0,0,1-.27.13c-.21.18-.49.25-.71.42a16.11,16.11,0,0,1-2,1.39.57.57,0,0,0-.36.55,1.06,1.06,0,0,0-.42.42A7.65,7.65,0,0,0,295.66,8c-.15.16-.17.38-.28.56s-.17.38-.28.55h0c-.22.54-.38,1.11-.56,1.67h0a15,15,0,0,0-.49,4.27c.1.54.11,1.08.21,1.62.05.27,0,.33-.28.21s-.46-.27-.69-.42a2.89,2.89,0,0,0-.56-.27l-.14-.14c-.32-.13-.65-.27-1-.42a.27.27,0,0,0-.27-.13c-.22-.12-.48-.15-.7-.29h0c-.68-.27-1.38-.49-2.08-.7h0a10.78,10.78,0,0,0-1.12-.28h0c-.21-.17-.49,0-.7-.14h0c-.26-.18-.59,0-.84-.14h0c-.57-.08-1.14-.11-1.71-.21a36.1,36.1,0,0,1-3.75-.07,31.63,31.63,0,0,0-.65-3.47,9.55,9.55,0,0,0-1.24-3c-.18-.21-.25-.49-.43-.7l-.55-.82c-.12-.21-.3-.37-.42-.58L277.08,5a7.69,7.69,0,0,1-.58-.7c-.26-.15-.44-.4-.69-.56A10.44,10.44,0,0,0,273,1.81c-.16-.15-.39-.17-.57-.28L271.09,1C270.54.8,270,.7,269.42.56h0a2.48,2.48,0,0,0-1-.14,18,18,0,0,0-3.95,0,8.19,8.19,0,0,0-1.31.25c-.14.22-.39,0-.54.13a5,5,0,0,0-.85.29l-.4.12c-.33.14-.65.29-1,.42l-.27.14c-.3.23-.68.33-1,.56a13.33,13.33,0,0,0-2.91,2.49c-.13.19-.29.36-.42.56a9.59,9.59,0,0,0-.69,1c-.25.47-.51.44-.84.12-.2-.12-.36-.29-.55-.42a23.63,23.63,0,0,0-5-3c-.34-.13-.66-.28-1-.42l-.68-.28c-.22-.11-.48-.15-.7-.28h0a6.36,6.36,0,0,0-.84-.28l-.4-.14c-.69-.21-1.39-.41-2.09-.56h0a46.23,46.23,0,0,0-5.22-.76h-5.4c-1.26.11-2.51.25-3.77.41-.57.13-1.15.19-1.72.35h0c-.25.13-.55,0-.79.21a14.38,14.38,0,0,0-1.44.35h0c-.47.14-.93.29-1.4.42l-.4.13c-.22.13-.48.16-.71.29l-.68.27c-.33.14-.65.29-1,.41l-.82.42c-.22.18-.5.24-.71.43l-1.24.68c-.21.17-.48.25-.7.41l-.55.41c-.19.14-.36.3-.56.43a41.66,41.66,0,0,0-3.33,3c-.13.2-.29.37-.42.56a16.23,16.23,0,0,0-1.8,2.62,8.18,8.18,0,0,1-.43.7l-.68,1.39c-.12.22-.15.48-.28.7l-.14.4a15.73,15.73,0,0,0-.9,3.17c0,.12-.05.23-.21.15a17.88,17.88,0,0,0-3.88-2.62,10.64,10.64,0,0,0-1.39-.7l-1.11-.55c-.33-.13-.66-.28-1-.42a3.9,3.9,0,0,1-1.11-.41c-.32-.12-.66-.15-1-.28l-.4-.13c-.74-.21-1.49-.39-2.24-.56h0c-.57-.17-1.16-.17-1.73-.34-1-.07-2-.22-3.05-.28h-2.4c-1.13.1-2.27.18-3.39.36a26.12,26.12,0,0,0-2.63.55c-.17.1-.39,0-.54.12-1,.31-2,.61-2.93,1l-.68.27c-.33.14-.65.29-1,.42l-.55.27c-.18.11-.41.13-.56.29s-.39.18-.58.29a43.53,43.53,0,0,0-4,2.61c-.47.32-.47.32-.56.13a9.87,9.87,0,0,1-.75-.7,8.15,8.15,0,0,0-2.57-2.06c-.22-.17-.49-.24-.7-.42s-.48-.15-.69-.27-.06-.21-.08-.32a27.93,27.93,0,0,0-.39-3.15,8.79,8.79,0,0,0-.51-2.08c0-.15,0-.31-.13-.41a7.29,7.29,0,0,1-.28-.7,20.31,20.31,0,0,0-1.66-2.9,1.28,1.28,0,0,1-.56-.57,3.77,3.77,0,0,0-1.25-1.23c-.2-.13-.37-.29-.56-.42A9.75,9.75,0,0,0,158.66,2c-.16-.15-.39-.17-.57-.28l-1-.41a5.28,5.28,0,0,0-.85-.28h0c-.35-.15-.74-.16-1.11-.28h0c-.21-.16-.49,0-.7-.14-.36-.16-.76,0-1.13-.12-.73,0-1.45,0-2.18,0a12.62,12.62,0,0,0-1.83.27l-1.93.54c-.33.14-.65.29-1,.42a21.08,21.08,0,0,0-2.5,1.52c-.19.13-.36.3-.56.42l-.27.27c-.31.2-.52.51-.84.7-.15.26-.4.44-.56.69a6.08,6.08,0,0,0-1.1,1.52c-.17.22-.24.49-.42.7l-.14.27a5.07,5.07,0,0,0-.42.84h0c-.12.23-.16.49-.28.71l-.14.4a6,6,0,0,0-.28.85.85.85,0,0,1-.14.53,28.22,28.22,0,0,0-.48,4,6.15,6.15,0,0,1-.07,1.42,5.48,5.48,0,0,0-.58.48.48.48,0,0,1-.73.08,19,19,0,0,0-2.58-1.53c-.22-.11-.48-.15-.69-.27s-.38-.17-.56-.27-.48-.16-.69-.29h0c-.55-.22-1.11-.38-1.67-.55h0c-.54-.18-1.11-.28-1.67-.42h0c-1.12-.25-2.27-.34-3.4-.48h-3.2a27.61,27.61,0,0,0-5.34.91l-.41.13a4.6,4.6,0,0,0-.84.28l-.41.13c-.22.13-.49.16-.71.29a1.61,1.61,0,0,1-1-.15,2.89,2.89,0,0,0-.56-.27.74.74,0,0,0-.55-.28c-.54-.22-1.11-.39-1.67-.56h0a17.36,17.36,0,0,0-2.57-.48h-2.24a16.89,16.89,0,0,0-2.13.35l-.55.13a11.63,11.63,0,0,0-1.26.42h0c-.22.13-.48.16-.7.28l-1.52.83c-.21.17-.49.24-.7.41l-.83.69c-.25.16-.44.41-.7.56l-.14.14c-.22.37-.61.6-.83,1l-.83,1.1c-.09.06-.09.28-.28.14a.26.26,0,0,0-.26-.13c-.21-.12-.38-.29-.58-.42a18.72,18.72,0,0,0-2.62-1.8c-.22-.17-.5-.24-.7-.42a.28.28,0,0,0-.28-.13,2.26,2.26,0,0,0-.56-.28h0a6.89,6.89,0,0,0-1.12-.56h0c-.23-.12-.48-.16-.7-.28h0c-.22-.12-.48-.15-.7-.28h0c-.23-.12-.48-.15-.7-.28h0a3.61,3.61,0,0,1-.84-.28l-.54-.13c-.32-.11-.66-.16-1-.28h0a32.29,32.29,0,0,0-5.88-.83H76.25a38.51,38.51,0,0,0-5.66.77c-.57.22-1.18.27-1.75.48l-1.24.41c-.36.19-.76.24-1.12.42s-.78.49-1.25.55a6.13,6.13,0,0,0-1.11.57,6.1,6.1,0,0,0-.57.29l-3.18,1.9c-.06.22-.25.31-.41.43s-.3.36-.56.14S59.16,18.38,59,18l-.28-.69a9.62,9.62,0,0,1-.83-1.67,27.7,27.7,0,0,0-1.53-2.49l-.7-1.11-1.24-1.52c-.13-.19-.3-.36-.42-.56l-.55-.55c-.16-.26-.42-.44-.56-.71l-.54-.54c-.33-.17-.53-.5-.85-.69l-.55-.55c-.2-.13-.37-.29-.56-.42a17.65,17.65,0,0,0-3.74-2.63c-.22-.17-.49-.24-.71-.42a.28.28,0,0,1-.27-.14,1.88,1.88,0,0,1-.55-.27c-.44-.16-.83-.4-1.26-.56l-1.09-.41c-.23-.12-.49-.15-.71-.28h0c-1.36-.46-2.79-.68-4.16-1.11a.33.33,0,0,1-.4,0C36.32.48,35.13.42,34,.22H32.87c.1,0,.22,0,.3-.09-.25-.22-.56-.08-.84-.12a1.48,1.48,0,0,1-.75.07H14.24c-.59.05-1.17.14-1.76.21h0a18.27,18.27,0,0,0-2,.42h0a17.23,17.23,0,0,0-1.67.56h0l-1,.43a.29.29,0,0,1-.27.13c-.21.18-.49.24-.7.42A11.87,11.87,0,0,0,4.85,3.74c-.25.16-.43.41-.69.56a.48.48,0,0,1-.28.28c-.12.2-.29.36-.42.55l-.14.14c-.12.2-.29.37-.41.56a2.44,2.44,0,0,1-.56.82c-.15.16-.17.39-.28.57l-.41.68c-.1.19-.12.41-.29.56l-.13.41C1,9.42.85,10,.68,10.55l-.13.54c-.11.22-.07.48-.19.69s.06.48-.09.7h0a9.47,9.47,0,0,0-.21,1.91V54.32a22,22,0,0,0,1,5.81h0c.13.22.17.47.28.7h0c.17.43.4.82.56,1.26l.27.4c.24.37.47.74.7,1.12a13.32,13.32,0,0,0,4,3.6,1.5,1.5,0,0,1,.56.29c.34,0,.54.28.83.39s.48.16.71.29l.4.13a20.3,20.3,0,0,0,4.23.9,6.18,6.18,0,0,1,1.14,0c5.34,0,10.68,0,16,0,.1,0,0,0,.07,0,.56-.06,1.12,0,1.68,0a39.79,39.79,0,0,0,8.1-1.31h0c.84-.26,1.68-.52,2.5-.84l.28-.13c.21-.13.47-.16.69-.28l.28-.14a17.69,17.69,0,0,0,2-1l.55-.26c.27-.2.58-.36.84-.57l1.1-.68c.19-.14.36-.3.56-.43s.42-.26.62-.41a25.46,25.46,0,0,0,4.38-4.3c.12-.11.14-.38.42-.27.43.54.64,1.24,1.24,1.66.13.19.3.36.42.56l.83,1a2.3,2.3,0,0,1,.69.7c.48.31.8.79,1.25,1.12a2,2,0,0,0,.83.68c.37.29.74.56,1.12.83a20.17,20.17,0,0,0,2.36,1.52,2.73,2.73,0,0,1,.83.43c.18.1.44,0,.55.26s.49.16.71.28l.26.14c.22.12.49.15.71.28l1.92.69c.33.11.67.16,1,.28l.53.13c.18.14.4.07.6.12a35,35,0,0,0,7.2.92c.92,0,1.83-.07,2.74-.07.33,0,.65-.1,1-.07a34.53,34.53,0,0,0,5.71-1l.41-.13c.31-.14.65-.17,1-.29a15.54,15.54,0,0,0,2.08-.83c.33-.14.65-.29,1-.41L92,67.2c.18-.11.41-.13.57-.28a.77.77,0,0,0,.54-.27c.29-.25.68-.34,1-.56A11.37,11.37,0,0,0,95.77,65c.19-.14.36-.3.56-.42s.3.15.41.28a9.64,9.64,0,0,0,3.06,2.9c.21.17.48.24.7.42.45.16.75.58,1.24.69a19.41,19.41,0,0,0,2.36.83h0a16.72,16.72,0,0,0,3.86.48,15.4,15.4,0,0,0,4.2-.76l.41-.13c.21-.14.47-.16.69-.28l.28-.14a6.89,6.89,0,0,0,1.12-.56A11.73,11.73,0,0,0,118,65.67c.12-.19.29-.36.42-.56a10.29,10.29,0,0,0,1.11-1.51c.16-.15.24-.6.55-.14a15.2,15.2,0,0,0,2.08,2.77c.22.09.36.3.56.42a10.75,10.75,0,0,0,3,2.07c.16.15.38.17.56.28h0c.22.11.48.15.7.28l.41.13c.32.11.66.16,1,.28h0a15.47,15.47,0,0,0,2.22.41,11.18,11.18,0,0,0,2.65,0,12,12,0,0,0,2.22-.4,5.61,5.61,0,0,0,1.38-.41c.21-.14.47-.16.69-.29l.28-.13a4.4,4.4,0,0,0,.84-.42,2.49,2.49,0,0,0,1.05-.62A8.13,8.13,0,0,0,142,66c.12-.21.29-.38.42-.58l.14-.13c.12-.2.29-.36.42-.56s.31,0,.42.14a14.31,14.31,0,0,0,3.87,2.91c.16.15.38.17.56.28l.56.27a2.44,2.44,0,0,1,.56.28l2.63.83c.41.11.84.16,1.25.28h0c1.11.16,2.22.35,3.34.42a28.84,28.84,0,0,0,5.09-.1,26.06,26.06,0,0,0,5-.87l.83-.27c.35-.2.76-.25,1.11-.43a15.52,15.52,0,0,0,1.67-.75,14,14,0,0,0,2.73-1.91c.17-.17.26-.13.44,0a25.11,25.11,0,0,0,3.07,1.83,2.26,2.26,0,0,1,.56.28,2.1,2.1,0,0,1,.56.28l1.65.69c.36.17.77.23,1.12.42h0a4.77,4.77,0,0,1,.83.28h0c.32.11.66.16,1,.28h0c.36.14.75.17,1.12.28.1.16.26.13.42.14a45.14,45.14,0,0,0,4.63.62h3.35A38.24,38.24,0,0,0,197,70h0c.32-.12.66-.17,1-.28l1.24-.41A8.27,8.27,0,0,0,200,69l.69-.27c.32-.16.65-.29,1-.43l.56-.27a10.64,10.64,0,0,0,1.39-.7c.59-.32,1.2-.62,1.76-1A15.28,15.28,0,0,0,208.48,64c.2-.13.37-.29.56-.42l.13-.13a1.79,1.79,0,0,0,.57-.56c.26,0,.39-.2.56-.35A20.57,20.57,0,0,0,212,60.71c.3-.35.59-.62,1-.09a19.88,19.88,0,0,0,1.59,1.59c.2.12.37.29.56.42a13.22,13.22,0,0,0,3,2.21c.38.22.75.46,1.12.7h0a3.3,3.3,0,0,1,.84.42h.28a3.53,3.53,0,0,0,1.24.69h0c.22.12.48.15.7.28h0c.83.31,1.67.57,2.51.83h0c.32.12.66.15,1,.28h0a42.8,42.8,0,0,0,6.76,1h5.11a43,43,0,0,0,6.19-.9l.54-.13c.36-.16.76-.16,1.12-.29l.41-.13a6.42,6.42,0,0,0,.84-.29l.83-.27c.21-.13.47-.16.69-.28l1.25-.55c.18-.11.41-.13.57-.28l.4-.12a6.46,6.46,0,0,1,.71-.44.27.27,0,0,0,.26-.12c.15-.17.38-.19.56-.29,1.11-.49,1.93-1.43,3-2l1,1.42a1.52,1.52,0,0,0,.43.41,1.69,1.69,0,0,0,.68.83c.27.14.45.4.71.56a3.64,3.64,0,0,0,1.81,1.11c.12.22.39.25.55.43l.28.12c.22.12.48.15.7.28l.82.27c.64.18,1.28.37,1.94.49a3.81,3.81,0,0,1,.48,0,17,17,0,0,0,4,.06h0c.25-.18.58,0,.83-.14s.49,0,.7-.14a11,11,0,0,0,1.8-.54c.75-.36,1.51-.71,2.23-1.12l2.05-1.43a10.92,10.92,0,0,0,1.75-2.14c.14-.16.22-.46.42-.48s.27.29.39.48.53.62.79.94a8,8,0,0,1,.56.71,11.35,11.35,0,0,0,3.89,2.75c.22.12.48.15.7.28l.4.13a14,14,0,0,0,1.4.42h0c.29.1.59.13.88.21s.62.08.93.13h3.11a18.18,18.18,0,0,0,3.42-.76h0c.22-.13.48-.16.7-.29a10.06,10.06,0,0,0,2.25-1.23c1.22-1,1.23-1,2.5,0a1.83,1.83,0,0,0,.24.13c.41.24.81.51,1.24.73l.85.38.69.27a18.61,18.61,0,0,0,3.3.77h2.88c.63-.1,1.26-.18,1.88-.34.15-.17.38,0,.55-.13a8.33,8.33,0,0,0,.84-.29l.41-.13a10.64,10.64,0,0,0,1.39-.7h0c.18-.11.41-.13.56-.28A5.49,5.49,0,0,0,316.63,66c.25-.22.46-.27.73,0a9.9,9.9,0,0,0,1.89,1.3,2.44,2.44,0,0,0,.56.28h0a4.31,4.31,0,0,0,.83.42h0c.36.17.76.23,1.12.42h0c.64.16,1.27.38,1.92.49a16.17,16.17,0,0,0,5.72-.21l1.38-.41c.22-.14.48-.16.71-.28a9.85,9.85,0,0,0,2.9-1.66c.25-.16.44-.41.71-.56a2.13,2.13,0,0,0,.68-.69,1.87,1.87,0,0,0,.56-.56h0c.12-.2.29-.37.42-.56l.69-.83c.37-.65.51-.12.7.14l.39.55a2.38,2.38,0,0,0,.58.56,9,9,0,0,0,2.49,2.35c.22.17.49.24.7.42l1,.55c.22.11.48.15.7.28h0c.22.11.48.15.7.28h0a5.28,5.28,0,0,0,.85.28.86.86,0,0,0,.54.14,14.87,14.87,0,0,0,6.67,0h0c.31-.12.65-.17,1-.28l1.79-.68c.21-.19.49-.26.71-.43a11.29,11.29,0,0,0,3.46-2.76c.12-.2.29-.37.42-.56s.53-.38.62-.71.25-.44.6-.16a19.38,19.38,0,0,0,4,2.67,7.8,7.8,0,0,0,1.12.56c.12.22.38.16.55.27s.48.15.7.28a8.37,8.37,0,0,0,1.52.55,11.63,11.63,0,0,0,1.26.42h0c.55.17,1.12.28,1.68.42h.28a7.42,7.42,0,0,0,1.61.39c.42.15.88,0,1.3.16h0c.68,0,1.36.19,2,.2,1.41,0,2.82,0,4.23,0a7.49,7.49,0,0,0,.82,0c1-.14,2-.26,3.06-.38.5-.14,1-.23,1.52-.35l.55-.12c.31-.14.65-.17,1-.29h0a17.23,17.23,0,0,0,1.67-.56h0c.22-.13.48-.17.7-.28h0c.22-.13.47-.16.7-.28a11.2,11.2,0,0,0,1.8-.82,2.85,2.85,0,0,1,.83-.43l1.25-.83c.37-.23.74-.47,1.12-.69.74-.84,1.9-1.2,2.49-2.21a3.94,3.94,0,0,0,.84-.84,15.72,15.72,0,0,0,2.21-2.91c.17-.21.24-.48.42-.69a1.68,1.68,0,0,1,.28-.55c.12-.23.13-.54.41-.68l.14-.56c.22-.55.39-1.11.56-1.68h0c.14-.36.17-.75.28-1.11h0A13,13,0,0,0,403.93,46.69ZM52.31,45.16a21.61,21.61,0,0,1-8.46,12.13A19.82,19.82,0,0,1,34,60.67c-6.24.52-12.49.18-18.73.24a11.51,11.51,0,0,1-1.93-.21,5.33,5.33,0,0,1-4.75-5.08,28.22,28.22,0,0,1-.16-3.18V15.87a12,12,0,0,1,.22-2.68c.66-2.93,2.62-4.54,5.78-4.72,1.25-.07,2.5-.05,3.75-.05,4.39,0,8.79,0,13.18.05a26.86,26.86,0,0,1,7.19,1c5.75,1.71,9.64,5.55,12.25,10.8A28.37,28.37,0,0,1,53.52,31,39.78,39.78,0,0,1,52.31,45.16Zm43.57-4.29A4.57,4.57,0,0,1,93,44.07a13.51,13.51,0,0,1-4.62.82c-2.87,0-5.74,0-8.6,0h0c-3.06,0-6.11,0-9.16,0-.53,0-.67.1-.59.65a10.32,10.32,0,0,0,2.39,5.57c2.64,2.94,7.34,3.42,11,1.18a29,29,0,0,0,4.91-4.06,4.45,4.45,0,0,1,4.61-1.06,3.77,3.77,0,0,1,2.66,4.55,9.86,9.86,0,0,1-3,5.05,17.93,17.93,0,0,1-9.72,4.65,25.07,25.07,0,0,1-12.19-.83A16.64,16.64,0,0,1,59.59,49.44,24.33,24.33,0,0,1,60,32.89c2.37-6.2,7-9.76,13.46-11A21.43,21.43,0,0,1,85.88,23,16.66,16.66,0,0,1,96.19,38.83,8.26,8.26,0,0,1,95.88,40.87Zm41.34,16.92a5.32,5.32,0,0,1-5.34,4,5.43,5.43,0,0,1-5.28-4.11,9.86,9.86,0,0,1-.31-2.81c0-5.17,0-10.34,0-15.51a17.83,17.83,0,0,0-.66-5.34c-.69-2.25-1.87-3.11-4.23-3.28a7.29,7.29,0,0,0-7.74,6.46,63.94,63.94,0,0,0-.31,6.49c0,4.2.15,8.41-.09,12.6a5.54,5.54,0,0,1-7.32,5.23,5.47,5.47,0,0,1-3.76-4.64,9.61,9.61,0,0,1-.16-1.79q0-13.61,0-27.21a9.54,9.54,0,0,1,.24-2.26,4.88,4.88,0,0,1,4.79-4,5.18,5.18,0,0,1,5.36,3.75c.09.3.15.62.27,1.07A18,18,0,0,1,115,24.33a15.6,15.6,0,0,1,16.64-.72,11.88,11.88,0,0,1,5.59,8.81,34.54,34.54,0,0,1,.29,5.18q0,8.7,0,17.38A9.88,9.88,0,0,1,137.22,57.79Zm29.72,1.83a9.41,9.41,0,0,1-4.45,1.8,22.81,22.81,0,0,1-8.48,0,8.21,8.21,0,0,1-6.88-7.18,37.76,37.76,0,0,1-.44-6.55c0-2.12,0-4.25,0-6.37,0-3.16,0-6.33,0-9.49,0-.62-.17-.75-.76-.76a4.52,4.52,0,0,1-4.28-2.45,4.19,4.19,0,0,1,3-6,5.34,5.34,0,0,1,1.31-.16c.6,0,.71-.22.7-.77,0-2.14,0-4.29,0-6.44a9.52,9.52,0,0,1,.34-2.6,5.44,5.44,0,0,1,5.71-3.88,5.58,5.58,0,0,1,5,5,74.2,74.2,0,0,1,.14,7.89c0,.69.2.84.85.82a13.19,13.19,0,0,1,3.32.14,4.22,4.22,0,0,1,3.3,5.33,3.54,3.54,0,0,1-2.18,2.44,10.73,10.73,0,0,1-4.55.7c-.57,0-.74.13-.73.72,0,5.37,0,10.75,0,16.13,0,.88,0,1.76.12,2.63.12,1.58.8,2.17,2.38,2.1,1,0,1.95-.33,2.94-.47a4.35,4.35,0,0,1,3.5.64A4.28,4.28,0,0,1,166.94,59.62Zm22.76,2a20,20,0,1,1,20-20A20,20,0,0,1,189.7,61.63Zm54.89-2.45a27.32,27.32,0,0,1-20.23-.59,15.49,15.49,0,0,1-9.12-10.83,6,6,0,0,1,.81-5.42,5.14,5.14,0,0,1,8.23,0,10.64,10.64,0,0,1,1.28,2.37,28.46,28.46,0,0,0,1.24,2.62A7.61,7.61,0,0,0,233,51.58a12.89,12.89,0,0,0,7.13-.89,5.91,5.91,0,0,0,3.65-4,4.71,4.71,0,0,0-1.7-5.13,12.53,12.53,0,0,0-4.25-1.95c-3.12-.93-6.34-1.47-9.43-2.5a26.75,26.75,0,0,1-7.3-3.42c-7.47-5.32-7-17.67,1.92-22.34,3.78-2,7.83-2.67,12.74-2.67a21.36,21.36,0,0,1,10.35,2.43c3.25,1.76,5.78,4.21,6.86,7.87a6.26,6.26,0,0,1-.93,6c-1.87,2.39-6.13,2.72-8-.19-.49-.76-.95-1.52-1.39-2.31-.33-.6-.68-1.2-1.05-1.78a6.61,6.61,0,0,0-5.31-3.18,13.48,13.48,0,0,0-5.95.59,6.4,6.4,0,0,0-2.56,1.73,3.43,3.43,0,0,0,.18,4.95,9.07,9.07,0,0,0,3.88,2.06c3.26.91,6.56,1.72,9.82,2.64a27.47,27.47,0,0,1,8.21,3.59,12.51,12.51,0,0,1,5.54,10C255.92,50.81,251.72,56.75,244.59,59.18Zm50.72-5.27a9.87,9.87,0,0,1-.43,3.28c-.84,2.45-2.85,3.68-5.7,3.5a4.8,4.8,0,0,1-4.48-4.12,13.56,13.56,0,0,1-.21-2.62c0-5.56.1-11.13-.08-16.69a11.38,11.38,0,0,0-.82-3.9,3.66,3.66,0,0,0-2.9-2.31,7,7,0,0,0-8.35,6.16,37.89,37.89,0,0,0-.28,4.76V54.23a9.19,9.19,0,0,1-.38,2.8c-.82,2.59-2.81,3.85-5.79,3.66a4.85,4.85,0,0,1-4.52-4.33,13.49,13.49,0,0,1-.16-2.2V15.24a10,10,0,0,1,.28-2.61,4.88,4.88,0,0,1,5.08-3.92,5,5,0,0,1,5.19,3.91,9.92,9.92,0,0,1,.3,2.61c0,3.62,0,7.24,0,11A13.59,13.59,0,0,1,277.35,23c3.9-1.2,7.77-1.25,11.45.68a11.71,11.71,0,0,1,6.3,9.52,42.66,42.66,0,0,1,.22,5.18Q295.32,46.12,295.31,53.91ZM308,9.09a5.11,5.11,0,0,1,5.34,5.3,5.12,5.12,0,0,1-5.4,5.31,5.18,5.18,0,0,1-5.45-5.3A5.38,5.38,0,0,1,308,9.09Zm5.35,45a9.64,9.64,0,0,1-.29,2.67,5.3,5.3,0,0,1-10.3-.13,10.21,10.21,0,0,1-.27-2.4V28.57a9.74,9.74,0,0,1,.3-2.53,5.06,5.06,0,0,1,5.3-3.88,5.23,5.23,0,0,1,5.06,4.14,9.54,9.54,0,0,1,.2,2.2V54.05ZM354.77,39V54.12a10,10,0,0,1-.31,2.67,5.09,5.09,0,0,1-5.55,3.9,5.24,5.24,0,0,1-4.81-4.51,11.76,11.76,0,0,1-.16-2.13q0-7.38,0-14.76a18.61,18.61,0,0,0-.55-4.93c-.65-2.4-1.86-3.35-4.36-3.44a7,7,0,0,0-7.15,5.93,38.74,38.74,0,0,0-.37,5.79c0,3.84,0,7.67,0,11.5a9.48,9.48,0,0,1-.29,2.6,5.3,5.3,0,0,1-10.28-.1,9.66,9.66,0,0,1-.29-2.33q0-13.05,0-26.11a9.52,9.52,0,0,1,.23-2.13,4.7,4.7,0,0,1,4.48-3.91,5,5,0,0,1,5.25,3.55c.09.31.16.62.27,1L332,25.7A14.87,14.87,0,0,1,348.89,24a11.38,11.38,0,0,1,5.62,8.76A44.51,44.51,0,0,1,354.77,39Zm41.43,1.93a4.26,4.26,0,0,1-2.59,2.79,14.24,14.24,0,0,1-5.37.86H372c-.29,0-.57-.08-.57.43A8.41,8.41,0,0,0,377,52.58a8.86,8.86,0,0,0,7.33-1,31.31,31.31,0,0,0,4.74-3.93,4.47,4.47,0,0,1,4.89-.75,3.68,3.68,0,0,1,2,4.3,9,9,0,0,1-2.36,4.24,16.58,16.58,0,0,1-8.9,4.76,24,24,0,0,1-11.94-.42,16.08,16.08,0,0,1-11.41-11.34,23.36,23.36,0,0,1,.4-15.22c2.24-6.07,6.69-9.58,13-10.76a19.66,19.66,0,0,1,12.36,1.24c6.24,3,9.38,8,9.48,14.92A6.88,6.88,0,0,1,396.2,40.88Z"></path>
      <path class="cls-14" d="M20.55,34.62c0-5.17,0-10.34,0-15.51,0-.57.13-.74.71-.73,3,.08,5.92-.11,8.87.19a17.81,17.81,0,0,1,4.34.89,9.58,9.58,0,0,1,5.37,5.39,18.77,18.77,0,0,1,1.45,6.86,30.35,30.35,0,0,1-1.16,11.56,15.14,15.14,0,0,1-1,2.33,9.36,9.36,0,0,1-8.39,5.22c-3.22.11-6.43,0-9.64.09-.55,0-.51-.28-.51-.65Z"></path>
      <path class="cls-14" d="M77.52,37.7c-2.29,0-4.58,0-6.87,0-.5,0-.64-.11-.52-.62a12.37,12.37,0,0,1,1.64-4.22c2.75-4.21,9.88-3.9,12.17.73a13.62,13.62,0,0,1,1.12,3.68c.08.46-.18.42-.47.42Z"></path>
      <path class="cls-14" d="M378.74,37.63c-2.2,0-4.39,0-6.59,0-.5,0-.7-.07-.57-.64a11.08,11.08,0,0,1,1.86-4.42c2.62-3.5,9.31-3.34,11.46,1.26a13.9,13.9,0,0,1,1,3.16c.1.47,0,.64-.53.64C383.13,37.61,380.93,37.63,378.74,37.63Z"></path>
      <path class="cls-14" d="M191.64,56.53a28.68,28.68,0,0,0,.8-3.89,2.49,2.49,0,0,0-2.87-2.56c-1.79.4-2.47,1.39-2.13,3.22.19,1,.42,2.06.64,3.11a5.54,5.54,0,0,1-3.9-4.85,22.67,22.67,0,0,1,.17-3.59,6.75,6.75,0,0,0-1-4.22c-.94-1.51-1.89-3-2.68-4.6A12.42,12.42,0,0,1,179.29,35a4.78,4.78,0,0,1,2.14-4.72,6.63,6.63,0,0,1,7.95,0,.75.75,0,0,0,1.05,0,6.66,6.66,0,0,1,7.9,0,4.94,4.94,0,0,1,2,5.59,18.52,18.52,0,0,1-2.3,5.23c-.5.86-1,1.72-1.54,2.55a7.21,7.21,0,0,0-1,5.16,10,10,0,0,1-.07,3.85C194.92,54.62,193.45,55.6,191.64,56.53Z"></path>
    </g>
  </g>
</svg>
