<?xml version="1.0" encoding="UTF-8"?>
<svg xmlns="http://www.w3.org/2000/svg" viewBox="0 0 167.76 85.04">
  <defs>
    <style>.cls-1{fill:#fdfdfd;}</style>
  </defs>
  <title>Asset 2</title>
  <g id="Layer_2" data-name="Layer 2">
    <g id="Layer_1-2" data-name="Layer 1">
      <path class="cls-1" d="M52.61,67.77V15.57h.85c8.69,0,17.37-.05,26.06,0a35,35,0,0,1,6.29.68c4.47.88,7.08,3.67,7.84,8.17a27,27,0,0,1,0,9.28,7.9,7.9,0,0,1-6.2,6.76,1.57,1.57,0,0,0-.83.47l1.37.28a8.14,8.14,0,0,1,6.93,7A28.9,28.9,0,0,1,94.77,59c-1,4.85-4,7.54-8.79,8.32a34.5,34.5,0,0,1-5.36.52c-9.06,0-18.12,0-27.18,0C53.19,67.81,52.94,67.79,52.61,67.77Zm10-8.49h1c4.69,0,9.38,0,14.07,0a25.49,25.49,0,0,0,2.9-.16,4.52,4.52,0,0,0,4.39-3.87,15.54,15.54,0,0,0,0-6.37,3.91,3.91,0,0,0-3.33-3.44,8.84,8.84,0,0,0-1.6-.24c-5.66,0-11.32-.07-17-.1a2.13,2.13,0,0,0-.4.1Zm0-21.85c.36,0,.64,0,.92,0H76.8a21,21,0,0,0,2.74-.15,4.25,4.25,0,0,0,3.75-2.71A12.43,12.43,0,0,0,83.64,27,3.22,3.22,0,0,0,81,24.47a18.44,18.44,0,0,0-3.23-.34c-4.83,0-9.66,0-14.49,0a5.3,5.3,0,0,0-.66.07Z"></path>
      <path class="cls-1" d="M0,15.6H10.09V53.31c-.08,3.1.56,5.19,4.89,5.94a38.37,38.37,0,0,0,13.89,0c2.94-.57,4.32-2.17,4.62-5.12.07-.77.1-1.54.1-2.31q0-21.47,0-42.92c0-.28,0-.56,0-.93h-3l8-8,8,8h-3v1.2c0,14.4,0,28.79,0,43.18A27.78,27.78,0,0,1,43,58.06c-1.14,5.35-4.54,8.54-9.94,9.38a84.19,84.19,0,0,1-18.3.59,36,36,0,0,1-5.16-.74,10.92,10.92,0,0,1-8.92-9A25.23,25.23,0,0,1,0,53.08C0,40.83,0,28.58,0,16.33,0,16.1,0,15.88,0,15.6Z"></path>
      <path class="cls-1" d="M143.34,40.65l24.42,26.62c-.41,0-.65,0-.89,0-3.6,0-7.21,0-10.81,0a1.69,1.69,0,0,1-1.39-.62Q145,56.17,135.41,45.65a1.55,1.55,0,0,0-1.78-.54V67.24H123.56V15.12h10V36.37a1.48,1.48,0,0,0,1.84-.6c5.36-6.62,10.75-13.2,16.1-19.82a2.11,2.11,0,0,1,1.86-.91c3.62.06,7.25,0,11.1,0Z"></path>
      <path class="cls-1" d="M103.56,42.59c0-7.4,0-14.8,0-22.2a1.52,1.52,0,0,1,.76-1.46c1.47-1,2.91-2,4.34-3.07a.87.87,0,0,1,1.21,0c1.52,1.12,3.08,2.17,4.59,3.3a1.49,1.49,0,0,1,.53,1q0,22.41,0,44.81a.84.84,0,0,1-.71,1c-1.5.46-3,1-4.47,1.47a2,2,0,0,1-1.14,0c-1.42-.43-2.81-1-4.24-1.37a1.09,1.09,0,0,1-.91-1.26C103.57,57.38,103.56,50,103.56,42.59Z"></path>
      <path class="cls-1" d="M116.61,5.47c-1.42,1-2.62,2-3.87,2.78a1,1,0,0,0-.42,1.34c.51,1.41.94,2.84,1.49,4.51-1.47-1.06-2.73-1.95-4-2.88a.82.82,0,0,0-1.19,0,39.15,39.15,0,0,1-3.87,2.63c.44-1.36.83-2.74,1.35-4.07a1.18,1.18,0,0,0-.57-1.67c-1.18-.78-2.31-1.65-3.67-2.64,1.71,0,3.18,0,4.64,0a1.09,1.09,0,0,0,1.3-1A29.69,29.69,0,0,1,109.35.4c.47,1.44,1,2.88,1.4,4.34a.87.87,0,0,0,1,.74C113.3,5.44,114.83,5.47,116.61,5.47Z"></path>
      <path class="cls-1" d="M74.55,84.88c-.84.26-1.22-.06-1.54-.79-1-2.19-2-4.33-3.2-6.48v7.3H68.68V75c.71-.25,1.19-.17,1.54.63.87,1.95,1.83,3.86,2.75,5.79a1.81,1.81,0,0,0,.53.71V75h1Z"></path>
      <path class="cls-1" d="M155.79,85V74.8a33.94,33.94,0,0,1,4.2.43,2.29,2.29,0,0,1,1.73,2.38c0,1.5.06,3,0,4.52A2.78,2.78,0,0,1,158.79,85Zm1.15-8.81v7.69c.64,0,1.23,0,1.82,0A1.71,1.71,0,0,0,160.59,82c0-.91,0-1.83,0-2.74.17-3.1-.66-3.37-3.53-3.21C157.07,76.06,157,76.08,156.94,76.14Z"></path>
      <path class="cls-1" d="M63.61,80c0,.68,0,1.37,0,2.05a2.81,2.81,0,0,1-2.72,2.93,2.74,2.74,0,0,1-3.19-2.6,28.14,28.14,0,0,1,0-4.77,2.77,2.77,0,0,1,3.07-2.66,2.85,2.85,0,0,1,2.85,3C63.63,78.59,63.62,79.28,63.61,80Zm-1.14,0h0V78a2.11,2.11,0,0,0,0-.26A1.73,1.73,0,0,0,60.61,76a1.7,1.7,0,0,0-1.81,1.75q-.07,2.14,0,4.29a1.83,1.83,0,0,0,3.66,0C62.52,81.41,62.47,80.69,62.47,80Z"></path>
      <path class="cls-1" d="M17.82,80c0,.74,0,1.49,0,2.23a2.76,2.76,0,0,1-2.65,2.73c-1.71.12-3-.69-3.16-2.32a26.77,26.77,0,0,1,0-5.37,2.63,2.63,0,0,1,3.07-2.33,2.77,2.77,0,0,1,2.74,2.75C17.86,78.43,17.82,79.21,17.82,80ZM13,79.89v2A.91.91,0,0,0,13,82a1.73,1.73,0,0,0,1.77,1.8,1.65,1.65,0,0,0,1.91-1.63,37.7,37.7,0,0,0,0-4.51,1.69,1.69,0,0,0-2-1.64A1.77,1.77,0,0,0,13,77.93C13,78.58,13,79.23,13,79.89Z"></path>
      <path class="cls-1" d="M31.41,75h1.12v4.63c0,.8,0,1.6,0,2.4a1.72,1.72,0,0,0,1.84,1.82A1.7,1.7,0,0,0,36.23,82c.06-2.08.06-4.17,0-6.25,0-.86.35-1,1.09-.74,0,2.48.09,5,0,7.42a2.68,2.68,0,0,1-3,2.5,2.71,2.71,0,0,1-2.84-2.72C31.33,79.84,31.41,77.44,31.41,75Z"></path>
      <path class="cls-1" d="M98.33,84.91h-1v-10a30,30,0,0,1,3.81.23,2.67,2.67,0,0,1,2.1,3,2.74,2.74,0,0,1-2.48,2.71,9.78,9.78,0,0,1-1.71,0c-.53,0-.71.18-.69.7C98.35,82.66,98.33,83.74,98.33,84.91Zm0-5.1c1.29-.08,2.62.38,3.44-.91a1.77,1.77,0,0,0-.08-2.09c-.89-1.16-2.16-.68-3.36-.77Z"></path>
      <path class="cls-1" d="M84.5,74.91V76c-.71,0-1.39,0-2.06,0s-1.45.18-1.73,1,.28,1.29.84,1.7c.8.59,1.66,1.1,2.46,1.7,1.25.94,1.57,1.75,1.2,2.83A2.76,2.76,0,0,1,82.48,85H80.23V83.87c.55,0,1.06,0,1.56,0a5.32,5.32,0,0,0,1.27-.14,1.22,1.22,0,0,0,.56-2.14,10.9,10.9,0,0,0-1.42-1.09c-.64-.47-1.32-.9-1.94-1.4a2.12,2.12,0,0,1-.8-2.36,2.38,2.38,0,0,1,1.89-1.68,4.17,4.17,0,0,1,.93-.13C83,74.9,83.7,74.91,84.5,74.91Z"></path>
      <path class="cls-1" d="M2.28,85V83.87c.53,0,1,0,1.53,0a5.66,5.66,0,0,0,1.43-.18,1.18,1.18,0,0,0,.51-2,9.08,9.08,0,0,0-1.41-1.11c-.66-.49-1.37-.93-2-1.45a2.15,2.15,0,0,1-.78-2.37,2.2,2.2,0,0,1,1.82-1.63c1-.17,2.08-.16,3.2-.23L6.63,76C6,76,5.35,76,4.74,76a3.77,3.77,0,0,0-1.17.19,1.17,1.17,0,0,0-.47,2,10.52,10.52,0,0,0,1.48,1.16,22.21,22.21,0,0,1,2,1.47,2.18,2.18,0,0,1-.89,3.86A20,20,0,0,1,2.28,85Z"></path>
      <path class="cls-1" d="M113.56,75.05c-.91,3-1.8,5.85-2.7,8.76a3.67,3.67,0,0,1-.27.81.65.65,0,0,1-.49.3.61.61,0,0,1-.49-.32c-1-3.16-2-6.34-3-9.54.83-.33,1.18-.06,1.39.71.62,2.24,1.3,4.46,2.15,6.72.09-.27.19-.55.27-.82.58-2,1.19-3.93,1.73-5.9C112.38,75,112.71,74.74,113.56,75.05Z"></path>
      <path class="cls-1" d="M151.59,75v1h-2.37v8.9h-1.15V76.07h-2.39L145.63,75Z"></path>
      <path class="cls-1" d="M43.82,76H41.4V75h5.9l.05,1H44.94v8.9H43.82Z"></path>
      <path class="cls-1" d="M119,76h-2.41V74.93c1.87,0,3.69,0,5.51,0,.2,0,.38.56.69,1h-2.69V84.9L119,85Z"></path>
      <path class="cls-1" d="M27.37,83.81V84.9H22.91V75H24v8.83Z"></path>
      <path class="cls-1" d="M139.86,83.84c.93,0,1.72,0,2.51,0s.92,0,.83,1h-4.38V75.05c.92-.28,1-.21,1,.71v8.08Z"></path>
      <path class="cls-1" d="M52.58,75v9.92h-1V75Z"></path>
      <path class="cls-1" d="M124.63,83.63V84.9h-1.26V83.63Z"></path>
      <path class="cls-1" d="M163.48,83.61h1.24v1.28h-1.24Z"></path>
    </g>
  </g>
</svg>
