<?xml version="1.0" encoding="UTF-8"?>
<svg xmlns="http://www.w3.org/2000/svg" viewBox="0 0 223.68 113.39">
  <defs>
    <style>.cls-1{fill:#fdfdfd;}</style>
  </defs>
  <title>Asset 1</title>
  <g id="Layer_2" data-name="Layer 2">
    <g id="Layer_1-2" data-name="Layer 1">
      <path class="cls-1" d="M70.14,90.36V20.75h1.14c11.58,0,23.17-.05,34.75.05a45.44,45.44,0,0,1,8.38.91c6,1.17,9.44,4.89,10.46,10.89a36,36,0,0,1,0,12.38c-.86,4.75-3.57,7.78-8.26,9a2.13,2.13,0,0,0-1.11.64l1.82.37c5.15,1,8.33,4.16,9.24,9.3a38.85,38.85,0,0,1-.17,14.3c-1.28,6.48-5.34,10.06-11.73,11.11a45.08,45.08,0,0,1-7.15.68c-12.07.07-24.15,0-36.23,0C70.92,90.42,70.59,90.39,70.14,90.36ZM83.48,79h1.27c6.25,0,12.5,0,18.75,0a38.8,38.8,0,0,0,3.88-.21c3.28-.36,5.06-1.94,5.84-5.17a20.58,20.58,0,0,0,0-8.49,5.17,5.17,0,0,0-4.43-4.58,11.32,11.32,0,0,0-2.14-.33Q95.32,60.16,84,60.12a2.19,2.19,0,0,0-.53.14Zm0-29.13c.48,0,.86.06,1.23.06,5.9,0,11.81,0,17.71,0a27.82,27.82,0,0,0,3.65-.2,5.65,5.65,0,0,0,5-3.62,16.62,16.62,0,0,0,.47-10.2A4.29,4.29,0,0,0,108,32.63a24.08,24.08,0,0,0-4.31-.46c-6.43-.05-12.87,0-19.31,0-.29,0-.58.06-.89.09Z"></path>
      <path class="cls-1" d="M.05,20.81h13.4V70.05c0,.34,0,.69,0,1C13.34,75.22,14.2,78,20,79A51.06,51.06,0,0,0,38.5,79c3.92-.76,5.75-2.89,6.15-6.83.1-1,.14-2,.14-3.08q0-28.6,0-57.22c0-.37,0-.74-.06-1.25h-4L51.46,0,62.12,10.66h-4v1.6q0,28.78,0,57.57a37,37,0,0,1-.72,7.58c-1.53,7.14-6,11.39-13.25,12.51a112.5,112.5,0,0,1-24.4.78,45.62,45.62,0,0,1-6.88-1C6.3,88.32,2.36,84.22.94,77.77a33.14,33.14,0,0,1-.89-7C0,54.44,0,38.1,0,21.77,0,21.47,0,21.18.05,20.81Z"></path>
      <path class="cls-1" d="M191.12,54.2l32.56,35.49c-.55,0-.87.07-1.19.07-4.8,0-9.61,0-14.41,0a2.3,2.3,0,0,1-1.86-.84c-8.55-9.37-17.13-18.7-25.68-28.08a2.07,2.07,0,0,0-2.37-.72V89.66H164.74V20.17h13.37V48.49a2,2,0,0,0,2.45-.8c7.15-8.82,14.33-17.6,21.47-26.42a2.79,2.79,0,0,1,2.47-1.21c4.84.07,9.67,0,14.8,0Z"></path>
      <path class="cls-1" d="M138.08,56.78c0-9.86,0-19.73,0-29.59a2.06,2.06,0,0,1,1-2c2-1.31,3.89-2.69,5.79-4.09a1.15,1.15,0,0,1,1.61,0c2,1.48,4.11,2.88,6.12,4.39a2,2,0,0,1,.71,1.39q0,29.87,0,59.75a1.13,1.13,0,0,1-.95,1.28c-2,.61-4,1.34-6,2a2.75,2.75,0,0,1-1.53,0c-1.89-.57-3.74-1.27-5.64-1.82a1.46,1.46,0,0,1-1.21-1.69C138.09,76.51,138.08,66.64,138.08,56.78Z"></path>
      <path class="cls-1" d="M155.48,7.29c-1.9,1.38-3.49,2.6-5.15,3.71a1.27,1.27,0,0,0-.57,1.78c.67,1.88,1.26,3.79,2,6-2-1.42-3.64-2.59-5.27-3.84a1.11,1.11,0,0,0-1.59,0,50.81,50.81,0,0,1-5.16,3.52c.59-1.81,1.11-3.66,1.81-5.43a1.58,1.58,0,0,0-.76-2.23c-1.58-1-3.09-2.2-4.9-3.52,2.28,0,4.24-.07,6.19,0A1.46,1.46,0,0,0,143.8,6a38.78,38.78,0,0,1,2-5.5c.62,1.93,1.29,3.84,1.86,5.79a1.17,1.17,0,0,0,1.37,1C151.06,7.25,153.1,7.29,155.48,7.29Z"></path>
      <path class="cls-1" d="M99.41,113.17c-1.13.35-1.64-.08-2.07-1-1.29-2.91-2.69-5.77-4.26-8.64v9.73H91.57V100c1-.34,1.59-.23,2.06.83,1.16,2.61,2.43,5.16,3.66,7.73a2.44,2.44,0,0,0,.71.94V100h1.41Z"></path>
      <path class="cls-1" d="M207.72,113.27V99.73a46.57,46.57,0,0,1,5.6.58,3.06,3.06,0,0,1,2.31,3.17c.05,2,.07,4,0,6a3.67,3.67,0,0,1-3.89,3.75C210.43,113.29,209.14,113.27,207.72,113.27Zm1.54-11.75v10.25c.85,0,1.64,0,2.42,0a2.3,2.3,0,0,0,2.45-2.43c.05-1.21,0-2.43,0-3.65.22-4.13-.88-4.49-4.7-4.28C209.42,101.41,209.39,101.45,209.26,101.52Z"></path>
      <path class="cls-1" d="M84.82,106.61c0,.91,0,1.83,0,2.74a3.75,3.75,0,0,1-3.63,3.91c-2.37.13-4-1.11-4.25-3.47a38.71,38.71,0,0,1,0-6.37A3.69,3.69,0,0,1,81,99.89a3.78,3.78,0,0,1,3.8,4C84.84,104.79,84.82,105.7,84.82,106.61Zm-1.52,0h0V104c0-.12,0-.23,0-.34a2.32,2.32,0,0,0-2.49-2.29,2.28,2.28,0,0,0-2.42,2.34c0,1.91,0,3.81,0,5.71a2.25,2.25,0,0,0,2.41,2.34,2.28,2.28,0,0,0,2.48-2.28C83.36,108.54,83.3,107.59,83.3,106.63Z"></path>
      <path class="cls-1" d="M23.76,106.64c0,1,0,2,0,3a3.69,3.69,0,0,1-3.54,3.65c-2.27.15-4-.93-4.21-3.1A37.24,37.24,0,0,1,16,103c.22-2.13,2-3.27,4.09-3.11a3.7,3.7,0,0,1,3.66,3.66C23.81,104.58,23.76,105.61,23.76,106.64Zm-6.43-.12v2.84a2.34,2.34,0,0,0,2.36,2.41,2.21,2.21,0,0,0,2.54-2.18,48.37,48.37,0,0,0,0-6,2.24,2.24,0,0,0-2.65-2.18,2.36,2.36,0,0,0-2.26,2.51C17.3,104.77,17.33,105.65,17.33,106.52Z"></path>
      <path class="cls-1" d="M41.88,100h1.5v6.18c0,1.07,0,2.13,0,3.2a2.31,2.31,0,0,0,2.46,2.42,2.27,2.27,0,0,0,2.46-2.41c.07-2.78.07-5.56,0-8.33,0-1.14.46-1.3,1.45-1,0,3.3.13,6.61,0,9.9-.11,2.15-1.81,3.37-4,3.32a3.61,3.61,0,0,1-3.78-3.63C41.77,106.45,41.88,103.26,41.88,100Z"></path>
      <path class="cls-1" d="M131.11,113.22h-1.38V99.84a40.64,40.64,0,0,1,5.08.31,3.55,3.55,0,0,1,2.8,4,3.65,3.65,0,0,1-3.31,3.61,12.39,12.39,0,0,1-2.28.07c-.69,0-.94.24-.92.93C131.14,110.21,131.11,111.65,131.11,113.22Zm.07-6.81c1.71-.1,3.49.51,4.58-1.21a2.36,2.36,0,0,0-.11-2.79c-1.18-1.54-2.87-.9-4.47-1Z"></path>
      <path class="cls-1" d="M112.66,99.88v1.5c-.94,0-1.84,0-2.75,0s-1.93.24-2.29,1.33.37,1.72,1.11,2.26c1.07.79,2.22,1.48,3.29,2.27,1.66,1.25,2.09,2.34,1.6,3.78a3.68,3.68,0,0,1-3.65,2.24c-1,0-2,0-3,0v-1.45c.74,0,1.42,0,2.09,0a7.24,7.24,0,0,0,1.69-.2,1.63,1.63,0,0,0,.75-2.85,15.88,15.88,0,0,0-1.9-1.45c-.86-.62-1.76-1.2-2.59-1.87A2.81,2.81,0,0,1,106,102.3a3.14,3.14,0,0,1,2.51-2.23,5.23,5.23,0,0,1,1.24-.18C110.65,99.87,111.6,99.88,112.66,99.88Z"></path>
      <path class="cls-1" d="M3,113.39v-1.57c.7,0,1.37,0,2,0A7.58,7.58,0,0,0,7,111.57a1.58,1.58,0,0,0,.68-2.72,13.61,13.61,0,0,0-1.88-1.48c-.89-.65-1.83-1.24-2.68-1.93a2.84,2.84,0,0,1-1-3.16,2.9,2.9,0,0,1,2.42-2.17c1.37-.23,2.78-.21,4.27-.31l.08,1.58c-.88,0-1.71,0-2.52,0a4.77,4.77,0,0,0-1.56.25,1.56,1.56,0,0,0-.62,2.67,14.84,14.84,0,0,0,2,1.55,30.42,30.42,0,0,1,2.67,2A2.92,2.92,0,0,1,7.58,113,29.2,29.2,0,0,1,3,113.39Z"></path>
      <path class="cls-1" d="M151.42,100.06c-1.21,3.94-2.41,7.81-3.6,11.69a4.81,4.81,0,0,1-.36,1.07.88.88,0,0,1-.66.41.83.83,0,0,1-.65-.42c-1.33-4.23-2.64-8.46-4-12.73,1.1-.44,1.57-.09,1.85,1,.82,3,1.74,6,2.88,9,.11-.37.24-.73.35-1.1.78-2.62,1.58-5.23,2.3-7.87C149.84,100.06,150.28,99.65,151.42,100.06Z"></path>
      <path class="cls-1" d="M202.12,100v1.34H199v11.86h-1.53V101.43h-3.18l-.07-1.42Z"></path>
      <path class="cls-1" d="M58.43,101.37H55.2V100h7.86l.07,1.34H59.92V113.2H58.43Z"></path>
      <path class="cls-1" d="M158.71,101.36H155.5V99.91c2.49,0,4.91,0,7.34,0,.26,0,.5.74.93,1.4h-3.6V113.2l-1.46.08Z"></path>
      <path class="cls-1" d="M36.49,111.74v1.46H30.55V100H32v11.76Z"></path>
      <path class="cls-1" d="M186.48,111.78h3.35c1.23,0,1.23,0,1.11,1.4H185.1V100.07c1.23-.38,1.37-.29,1.38.94v10.77Z"></path>
      <path class="cls-1" d="M70.11,100v13.23H68.72V100Z"></path>
      <path class="cls-1" d="M166.17,111.5v1.7h-1.68v-1.7Z"></path>
      <path class="cls-1" d="M218,111.48h1.64v1.71H218Z"></path>
    </g>
  </g>
</svg>
