<?xml version="1.0" encoding="UTF-8"?>
<svg xmlns="http://www.w3.org/2000/svg" xmlns:xlink="http://www.w3.org/1999/xlink" width="422px" height="502px" viewBox="0 0 422 502" version="1.1">
  <title>13 years of expertise</title>
  <g id="Page-4" stroke="none" stroke-width="1" fill="none" fill-rule="evenodd">
    <g id="13-years-of-expertise" transform="translate(6.070000, 6.000000)" stroke="#000" stroke-width="11.54">
      <polygon id="Path" points="290.57 145.7 302.91 183.7 342.86 183.7 310.54 207.18 322.89 245.17 290.57 221.69 258.25 245.17 270.59 207.18 238.27 183.7 278.22 183.7"></polygon>
      <polyline id="Path" points="299.52 299.7 339.66 385.78 359.37 343.52 402.13 357.08 369.89 287.95"></polyline>
      <polyline id="Path" points="282.95 299.7 242.82 385.78 223.11 343.52 180.35 357.08 212.58 287.95"></polyline>
      <path d="M304.16,88.66 L304.16,88.66 C305.93,100.86 321.63,104.73 328.87,94.75 L328.87,94.75 C338.17,81.93 358.21,92.44 352.94,107.38 L352.94,107.38 C348.84,119 360.94,129.72 371.99,124.25 L371.99,124.25 C386.19,117.22 399.04,135.84 387.43,146.62 L387.43,146.62 C378.4,155.01 384.13,170.12 396.45,170.41 L396.45,170.41 C412.29,170.78 415.02,193.24 399.73,197.39 L399.73,197.39 C387.84,200.62 385.89,216.67 396.66,222.65 L396.66,222.65 C410.51,230.34 402.49,251.49 387.02,248.06 L387.02,248.06 C374.99,245.39 365.8,258.7 372.56,269 L372.56,269 C381.25,282.25 364.32,297.25 352.21,287.02 L352.21,287.02 C342.8,279.07 328.48,286.58 329.68,298.85 L329.68,298.85 C331.22,314.62 309.25,320.03 303.29,305.36 L303.29,305.36 C298.65,293.94 282.48,293.94 277.84,305.36 L277.84,305.36 C271.88,320.04 249.91,314.62 251.45,298.86 L251.45,298.86 C252.65,286.59 238.33,279.08 228.92,287.03 L228.92,287.03 C216.82,297.25 199.88,282.25 208.57,269.01 L208.57,269.01 C215.33,258.71 206.15,245.4 194.11,248.07 L194.11,248.07 C178.64,251.5 170.62,230.34 184.47,222.66 L184.47,222.66 C195.25,216.68 193.3,200.63 181.4,197.4 L181.4,197.4 C166.11,193.25 168.84,170.79 184.68,170.42 L184.68,170.42 C197,170.13 202.73,155.01 193.7,146.63 L193.7,146.63 C182.09,135.85 194.94,117.23 209.14,124.26 L209.14,124.26 C220.18,129.73 232.29,119.01 228.19,107.39 L228.19,107.39 C222.92,92.45 242.95,81.93 252.26,94.76 L252.26,94.76 C259.5,104.74 275.19,100.87 276.97,88.67 L276.97,88.67 C279.25,72.99 301.87,72.99 304.15,88.67 L304.16,88.66 Z" id="Path"></path>
      <polyline id="Path" points="359.02 423.88 359.02 490 0 490 0 0 359.02 0 359.02 32.97"></polyline>
      <line x1="38.46" y1="78.73" x2="171.27" y2="78.73" id="Path"></line>
      <line x1="38.46" y1="113.75" x2="132.61" y2="113.75" id="Path"></line>
      <line x1="38.46" y1="440.29" x2="171.27" y2="440.29" id="Path"></line>
      <line x1="38.46" y1="405.27" x2="132.61" y2="405.27" id="Path"></line>
    </g>
  </g>
</svg>
