<?xml version="1.0" encoding="UTF-8"?>
<svg xmlns="http://www.w3.org/2000/svg" id="Layer_1" data-name="Layer 1" viewBox="0 0 200 200">
  <defs>
    <style>.cls-1{fill:#fff;}</style>
  </defs>
  <title>Artboard 5 copy 2</title>
  <path class="cls-1" d="M21.13,87.85c-.28.08-.38-.1-.45-.31a23.39,23.39,0,0,1-1.4-5.77,9.86,9.86,0,0,1,.28-2.91,15.14,15.14,0,0,1,2.57-5.62,11.29,11.29,0,0,1,7.25-4.45,29.54,29.54,0,0,1,5-.54A54.38,54.38,0,0,0,45,66.57c1.41-.33,2.8-.74,4.24-.93a1.12,1.12,0,0,1,.23.84,53.31,53.31,0,0,1-1.37,13.67A22.8,22.8,0,0,1,42.77,90a14,14,0,0,1-8,4.63,5.22,5.22,0,0,0-1.31.15,11.51,11.51,0,0,1-7.4-1.63,4.76,4.76,0,0,0-1.41-.74c-.76-.37-1.21-.08-1.69.59a20.82,20.82,0,0,0-2.77,4.31.42.42,0,0,1-.3.29,26.93,26.93,0,0,1-2.7,0,2.24,2.24,0,0,1,.2-1.29,11.5,11.5,0,0,1,1.45-2.94,36.29,36.29,0,0,1,6.25-7.24c2.25-2,4.56-4,6.84-6A17.73,17.73,0,0,1,33.55,79a1.3,1.3,0,0,0,.68-1.42c-.49-.31-.91-.06-1.33.15a22.94,22.94,0,0,0-4.85,3.69C25.94,83.26,24,85.27,22,87.26A2.44,2.44,0,0,1,21.13,87.85Z"></path>
  <path class="cls-1" d="M125.92,122.4c-.2,0-.41,0-.62,0a1.43,1.43,0,0,1-1.41-1.32c0-.24,0-.48,0-.72q0-15.78,0-31.57a2.87,2.87,0,0,1,.06-1c.27-.8.8-1.08,2-1a1.59,1.59,0,0,1,1.13,1.44,6.34,6.34,0,0,1,.06,1.23q0,5.91,0,11.8a2.26,2.26,0,0,0,.07.92c.43-.12.63-.64,1.1-.66a13.58,13.58,0,0,1,3.79-1.84,15.42,15.42,0,0,1,5.07-.31,10.41,10.41,0,0,1,4.75,2.16,11.8,11.8,0,0,1,4.43,9c.09,3.35,0,6.7,0,10,0,1.19-.21,1.49-1.16,1.82-1.51.09-2.07-.42-2.08-1.92,0-3.29,0-6.58,0-9.87a8.35,8.35,0,0,0-6.62-8.07c-.5-.1-1,0-1.5-.07a9.8,9.8,0,0,0-4,1.35,7.83,7.83,0,0,0-3.86,6.88c0,3.22,0,6.45,0,9.68C127.14,121.29,126.92,122.08,125.92,122.4Z"></path>
  <path class="cls-1" d="M73.9,122.39a1.72,1.72,0,0,1-1.57-.36,1.89,1.89,0,0,1-.5-1.37,8.37,8.37,0,0,0-4.3-7.21,7.37,7.37,0,0,0-3.81-1l-3.29,0c-1.09.19-1.23.91-1.2,1.87.06,2.08.05,4.16,0,6.23,0,.83-.15,1.63-1.18,1.83-1.52.09-2.08-.41-2.08-1.91V88.64a1.64,1.64,0,0,1,2.14-1.85,1.54,1.54,0,0,1,1.09,1.37,8.45,8.45,0,0,1,0,1.33v18.22c0,1.22,0,1.22,1.17,1.55a15.92,15.92,0,0,0,5.2-.18,8.31,8.31,0,0,0,6.16-7.34c0-.32,0-.65,0-1a1.44,1.44,0,0,1,1.36-1.4,5.2,5.2,0,0,1,1.76,0c-.23.2-.56.32-.19.73a1.56,1.56,0,0,1,.29,1.18,12,12,0,0,1-4.72,9.07c-.54.41-.56.63,0,1a12.05,12.05,0,0,1,4.73,9A1.71,1.71,0,0,1,73.9,122.39Z"></path>
  <path class="cls-1" d="M119.7,102.39H110a4.63,4.63,0,0,0-1.57.18c-1.8.14-3,1-3.36,2.35a3.26,3.26,0,0,0,2.53,4.22,2.85,2.85,0,0,0,1,.12,21.34,21.34,0,0,0,3,.09c1.33,0,2.66-.06,4,.07,3.37.31,5.36,3.87,5.36,6.45,0,2.9-2.13,6.24-5.28,6.53l-8.37,0c-1.28,0-2.56,0-3.84,0-1,0-1.64-.56-1.65-1.45a1.51,1.51,0,0,1,1.66-1.57c3.3,0,6.6,0,9.89,0h1a3.38,3.38,0,0,0,3.39-3.48,3.48,3.48,0,0,0-3.4-3.5c-2,.07-4.1,0-6.15,0a6.38,6.38,0,0,1-6.32-5.64,6.6,6.6,0,0,1,4.75-7.3,7.77,7.77,0,0,1,1.86-.17c4,0,8,0,11.94,0a3.18,3.18,0,0,1,.43.06c-.3.2-.41.36-.17.76A1.51,1.51,0,0,1,119.7,102.39Z"></path>
  <path class="cls-1" d="M52,102.28l-2.59.13c-2.93.36-5.07,1.77-5.76,4.78a10.36,10.36,0,0,0-.24,2.29c0,3.73,0,7.46,0,11.19,0,.81-.17,1.48-1.06,1.73-.2,0-.41,0-.62,0A1.45,1.45,0,0,1,40.24,121c0-.83,0-1.66,0-2.49,0-3.41,0-6.82,0-10.23a9.09,9.09,0,0,1,6.94-8.72,7.8,7.8,0,0,1,1.59-.16,40.36,40.36,0,0,1,4.26,0c-.12.21-.57.19-.22.69C53.45,101,53,101.88,52,102.28Z"></path>
  <path class="cls-1" d="M33.45,94.79c.9-.27,1.84-.39,2.74-.7a16.43,16.43,0,0,0,8-6.23A25.54,25.54,0,0,0,48.48,77a74,74,0,0,0,.71-11.33c1.47-.06,1.47-.06,1.46,1.41a66.08,66.08,0,0,1-.58,9.32A25.64,25.64,0,0,1,45.61,88a16.15,16.15,0,0,1-8.14,6.2A10.62,10.62,0,0,1,33.45,94.79Z"></path>
  <path class="cls-1" d="M36.35,122.39a1.84,1.84,0,0,0,.92-1.78c0-3.39,0-6.77,0-10.15A11.45,11.45,0,0,0,28.71,99.6l-.28-.07.37-.15a11.25,11.25,0,0,1,9.49,8.09,12.14,12.14,0,0,1,.49,3.33q0,4.89,0,9.77a2.32,2.32,0,0,1-.1.79,1.4,1.4,0,0,1-1.36,1.06C37,122.44,36.68,122.4,36.35,122.39Z"></path>
  <path class="cls-1" d="M170,122.39a1.91,1.91,0,0,0,.93-1.87q0-4.93,0-9.88a11.47,11.47,0,0,0-8.64-11,.76.76,0,0,1-.15-.08l.33-.13a11.26,11.26,0,0,1,9.49,8.14,12.23,12.23,0,0,1,.47,3.51c0,3.15,0,6.29,0,9.44a4.15,4.15,0,0,1-.07.79,1.4,1.4,0,0,1-1.38,1.16C170.67,122.44,170.34,122.4,170,122.39Z"></path>
  <path class="cls-1" d="M73.9,122.39a2,2,0,0,0,.9-2.15,11.72,11.72,0,0,0-5.19-9.08l-.27-.22c.09-.35.42-.43.64-.59a11.4,11.4,0,0,0,4.7-7.95c0-.23.08-.46.11-.7a2.18,2.18,0,0,0-.72-2.18c.31-.18.62,0,.89-.15,1,.26,1.32.68,1.3,1.62a11.51,11.51,0,0,1-4.8,9.37c-.23.17-.54.25-.71.58a11.71,11.71,0,0,1,5.51,9.68c0,1.31-.5,1.82-1.83,1.81C74.26,122.43,74.08,122.4,73.9,122.39Z"></path>
  <path class="cls-1" d="M145.22,122.39a1.91,1.91,0,0,0,.92-1.79c0-3.31.06-6.63,0-9.95a11.41,11.41,0,0,0-5.69-9.85,8.49,8.49,0,0,0-3.31-1.22s0-.06,0-.07a.69.69,0,0,1,.13-.11,10.31,10.31,0,0,1,7.5,3.73,11.34,11.34,0,0,1,2.89,7.64c0,3.26,0,6.51,0,9.77,0,1.45-.48,1.91-1.93,1.89C145.51,122.43,145.37,122.4,145.22,122.39Z"></path>
  <path class="cls-1" d="M60.43,109.26a.6.6,0,0,1-.15.09c-1.26.18-1.32.13-1.32-1.11,0-6.47,0-12.95,0-19.42a2.35,2.35,0,0,0-.86-2c1.63-.24,2.34.36,2.33,2.19C60.4,95.74,60.43,102.5,60.43,109.26Z"></path>
  <path class="cls-1" d="M42.32,122.4a2,2,0,0,0,.84-1.84c0-3.91,0-7.82,0-11.73a6.71,6.71,0,0,1,1.19-4,5.78,5.78,0,0,1,4.51-2.48.85.85,0,0,1,.52.08,6.08,6.08,0,0,0-4.69,5.94c0,4,0,7.93,0,11.89a7.09,7.09,0,0,1,0,.8,1.45,1.45,0,0,1-1.54,1.39Z"></path>
  <path class="cls-1" d="M88.93,119.27a1.64,1.64,0,0,1-1.05.08,8.44,8.44,0,0,1-6.31-4.28c-.45-.84-.44-.85.43-1.19,5.13-2,10.24-4.06,15.38-6a1.72,1.72,0,0,0,1.29-2.18,3.42,3.42,0,0,0-.43-.88,10.84,10.84,0,0,0-7.55-5.41.44.44,0,0,1-.15-.08,10.12,10.12,0,0,1,7.88,3.66,12,12,0,0,1,1.47,2.12,1.76,1.76,0,0,1-1,2.76c-4.53,1.74-9,3.55-13.56,5.33l-2.15.86c-.55.23-.55.24-.31.75a8,8,0,0,0,3.87,3.78A8.88,8.88,0,0,0,88.93,119.27Z"></path>
  <path class="cls-1" d="M125.92,122.4a2.28,2.28,0,0,0,1-2.07c0-3.22,0-6.45,0-9.67a8.32,8.32,0,0,1,6.56-8.1,7.73,7.73,0,0,1,1.59-.1,15.72,15.72,0,0,0-1.67.59,8.26,8.26,0,0,0-5,7.59c-.1,3.21,0,6.41,0,9.62,0,.27,0,.54,0,.8a1.46,1.46,0,0,1-1.4,1.36C126.58,122.44,126.25,122.41,125.92,122.4Z"></path>
  <path class="cls-1" d="M116.67,128.17q-.7,2.42-1.43,4.83c-.07.26-.18.51-.23.76s-.19.57-.63.58-.6-.2-.72-.59c-.31-1.11-.67-2.21-1-3.31-.06-.16-.05-.35-.3-.44-.4,1.27-.79,2.53-1.17,3.8-.11.33-.24.55-.67.54a.59.59,0,0,1-.67-.53c-.37-1.28-.75-2.55-1.13-3.83-.18-.59-.35-1.18-.53-1.79a.81.81,0,0,1,.26-.09c1,0,.91-.09,1.18.9s.62,2.22.94,3.38a5.17,5.17,0,0,0,.54-1.44c.23-.67.42-1.36.65-2,.13-.37.12-.84.74-.82s.56.44.67.78c.3.93.59,1.87.89,2.79.07.23.16.44.28.79.34-1.23.65-2.33,1-3.43S115.55,128,116.67,128.17Z"></path>
  <path class="cls-1" d="M128.33,101.55,127,102.92a1.9,1.9,0,0,1-.11-1c0-4.28,0-8.57,0-12.85a2.64,2.64,0,0,0-.91-2.27c1.52-.22,2.41.33,2.37,2.28-.08,3.83,0,7.65,0,11.48C128.31,100.9,128.32,101.23,128.33,101.55Z"></path>
  <path class="cls-1" d="M115.59,122.4a8.22,8.22,0,0,0,3-1.76,6.66,6.66,0,0,0-2.55-11c-.19-.06-.42,0-.57-.2a6.38,6.38,0,0,1,6.53,5.66,6.57,6.57,0,0,1-5,7.25A4.78,4.78,0,0,1,115.59,122.4Z"></path>
  <path class="cls-1" d="M118.43,130.31c0,1.15,0,2.3,0,3.45,0,.31,0,.57-.45.58s-.56-.13-.56-.56c0-1.72,0-3.44,0-5.16,0-.18-.12-.46.19-.5s.54-.11.74.14l.49.63c.77,1,1.53,2,2.3,3.05.07.09.12.21.35.17,0-1.16,0-2.33,0-3.5,0-.47.17-.54.57-.52s.41.11.4.41c0,.95,0,1.9,0,2.85s0,1.66,0,2.49c0,.45-.29.62-.69.45a1.53,1.53,0,0,1-.56-.57l-2.61-3.46Z"></path>
  <path class="cls-1" d="M21.13,87.85c1.61-1.53,3.05-3.24,4.72-4.71a69.72,69.72,0,0,1,5.35-4.66,11.16,11.16,0,0,1,1.91-1.13,1.59,1.59,0,0,1,.86-.18c.24,0,.26.2.26.39a19,19,0,0,0-4.06,3A85.08,85.08,0,0,0,23.48,87,2.29,2.29,0,0,1,21.13,87.85Z"></path>
  <path class="cls-1" d="M142.07,130.27c0,.62,0,1.25,0,1.87a2.28,2.28,0,0,1-2.41,2.22,2.24,2.24,0,0,1-2.46-2.15c-.09-1.24,0-2.49-.06-3.73,0-.43.26-.39.53-.38s.61-.09.6.4c0,1,0,2,0,2.93a5.3,5.3,0,0,0,0,.8,1.28,1.28,0,0,0,1.28,1.13,1.26,1.26,0,0,0,1.36-1.14,10.8,10.8,0,0,0,0-1.51c0-.74,0-1.48,0-2.22,0-.5.33-.38.61-.39s.53,0,.51.39c0,.59,0,1.19,0,1.78Z"></path>
  <path class="cls-1" d="M58.06,122.39a1.92,1.92,0,0,0,.91-1.88c0-2.39,0-4.78,0-7.18,0-.9,0-.9.93-.89l.53,0v8.17a1.85,1.85,0,0,1-.14,1,1.36,1.36,0,0,1-1.25.84C58.71,122.43,58.39,122.4,58.06,122.39Z"></path>
  <path class="cls-1" d="M171.16,129c-.06.1-.09.13-.09.15,0,.5-.21,1.11.08,1.47s.9.09,1.36.12.67,0,.62.49c0,.29-.14.42-.44.41s-.77,0-1.16,0-.49.15-.49.52c0,1.52-.15,1.2,1.21,1.24.32,0,.65,0,1,0s.49.08.48.45-.08.5-.45.49c-1,0-2,0-2.93,0-.3,0-.44-.11-.44-.42,0-1.81,0-3.61,0-5.42,0-.33.16-.4.44-.4h2.94c.37,0,.44.16.44.48s-.17.44-.48.44Z"></path>
  <path class="cls-1" d="M90.65,122.39c.48-.14,1-.26,1.44-.42a11,11,0,0,0,6.25-5.25c.48-.86.28-1.48-.64-2.31a6.62,6.62,0,0,1,.89,0,1.46,1.46,0,0,1,1.4,1.9,2.33,2.33,0,0,1-.21.49,10.7,10.7,0,0,1-8.07,5.6A7.45,7.45,0,0,1,90.65,122.39Z"></path>
  <path class="cls-1" d="M124.84,128.18a1.17,1.17,0,0,1,1.63.76c.29.68.68,1.32,1,2l1.1-2.08c.46-.86.46-.86,1.57-.71-.52.92-1,1.83-1.54,2.71a3.11,3.11,0,0,0-.56,2.08,4.33,4.33,0,0,1,0,.72c0,.58-.34.81-.9.63a.29.29,0,0,1-.22-.25,3.21,3.21,0,0,1,0-.62,4.26,4.26,0,0,0-.81-3C125.68,129.74,125.3,129,124.84,128.18Z"></path>
  <path class="cls-1" d="M108.54,109.26a2.74,2.74,0,0,1-2.87-.89,3.54,3.54,0,0,1,1.12-5.74,1.84,1.84,0,0,1,1.62,0,3.34,3.34,0,0,0-2.24,3.29A3.4,3.4,0,0,0,108.54,109.26Z"></path>
  <path class="cls-1" d="M19.88,97.61a11.7,11.7,0,0,1,2-3.53c.47-.6.94-1.21,1.4-1.83s.38-.52.9-.21a4.21,4.21,0,0,1,.48.38l-1.5,2a10.05,10.05,0,0,0-1.48,2.5c-.23.58-.54.86-1.17.76A3.12,3.12,0,0,0,19.88,97.61Z"></path>
  <path class="cls-1" d="M162.29,131.19c0,.89,0,1.78,0,2.67,0,.5-.3.46-.64.48s-.54-.09-.53-.5c0-1.77,0-3.55,0-5.33,0-.48.29-.42.59-.42s.59,0,.58.43C162.28,129.41,162.29,130.3,162.29,131.19Z"></path>
  <path class="cls-1" d="M27.74,122.39c.59-.17,1.19-.33,1.77-.52a10.93,10.93,0,0,0,4.14-2.5c.18-.17.32-.43.68-.45a4.53,4.53,0,0,1,0,1.22,13.63,13.63,0,0,1-4.14,2A7.3,7.3,0,0,1,27.74,122.39Z"></path>
  <path class="cls-1" d="M161.42,122.39c.53-.15,1.07-.3,1.6-.47a10.94,10.94,0,0,0,4.36-2.61c.16-.16.27-.4.62-.38a4,4,0,0,1,0,1.19,13.26,13.26,0,0,1-4.13,2A7.06,7.06,0,0,1,161.42,122.39Z"></path>
  <path class="cls-1" d="M119.7,102.39c.13-.12.27-.23.39-.36a1.52,1.52,0,0,0,.1-2.2c-.08-.11-.25-.15-.42-.25.42-.25.72-.1,1-.21,1,.27,1.39.82,1.3,1.68a1.52,1.52,0,0,1-1.65,1.36C120.17,102.42,119.94,102.4,119.7,102.39Z"></path>
  <path class="cls-1" d="M52,102.28a4.42,4.42,0,0,0,.47-.39,1.39,1.39,0,0,0,.13-1.92,4.33,4.33,0,0,0-.4-.47c.29-.17.6,0,.87-.13,1,.29,1.38.8,1.31,1.61a1.46,1.46,0,0,1-1.24,1.32A3.12,3.12,0,0,1,52,102.28Z"></path>
  <path class="cls-1" d="M97.7,114.41a1.65,1.65,0,0,0-2,1A7,7,0,0,1,94,117.43a6.7,6.7,0,0,1-5.08,1.84,8.78,8.78,0,0,1-6.52-3.33c-1.08-1.36-1-1.58.6-2.21,4.81-1.88,9.62-3.76,14.41-5.7,1.47-.59,1.94-1.74,1.19-3-1.79-3.17-4.32-5.3-8.07-5.7a13.88,13.88,0,0,0-3.64.15,11,11,0,0,0-8.23,6.39,12,12,0,0,0-1,5.72,10.94,10.94,0,0,0,5.14,9.15,12.13,12.13,0,0,0,7.85,1.7c3.59-.41,6-2.45,7.81-5.44A1.62,1.62,0,0,0,97.7,114.41Zm-15.6-5.89c.75-3,3.3-5.93,6.68-6.09A7.19,7.19,0,0,1,95,105.34a1.06,1.06,0,0,1-.57.36L82.8,110.3c-.23.09-.52.43-.73,0A2.3,2.3,0,0,1,82.1,108.52Z"></path>
  <path class="cls-1" d="M88.78,102.43c-.39.12-.8.22-1.18.36a8.06,8.06,0,0,0-5.48,7c0,.15,0,.3-.05.44-.2.73-.88.66-1.44,1a6.36,6.36,0,0,1,.3-2.94,8.1,8.1,0,0,1,7.61-5.92A.78.78,0,0,1,88.78,102.43Z"></path>
  <path class="cls-1" d="M171.14,110.44A11.36,11.36,0,0,0,165,100.35c-.79-.44-1.68-.58-2.48-1a11.19,11.19,0,0,0-2.83-.11,10.34,10.34,0,0,0-4.3,1,11.72,11.72,0,0,0-6.57,12.13,11.41,11.41,0,0,0,6.81,9.22,11.55,11.55,0,0,0,5.84.8,10.2,10.2,0,0,0,6.25-3c.26.23.11.57.34.75,0,.23,0,.47,0,.7,0,1.2.62,1.65,2,1.57.94-.34,1.14-.63,1.15-1.83C171.17,117.18,171.24,113.81,171.14,110.44Zm-8.25,8.3a5.4,5.4,0,0,1-3,.53,6.47,6.47,0,0,1-5.15-2.92,8.94,8.94,0,0,1,.64-11.75,6.5,6.5,0,0,1,4.52-2.17,7.53,7.53,0,0,1,6.74,3.74A8.61,8.61,0,0,1,162.89,118.74Z"></path>
  <path class="cls-1" d="M159.89,102.43a8.26,8.26,0,0,0-4.44,2.46,8.45,8.45,0,0,0-1.95,8.59,8.05,8.05,0,0,0,6.38,5.79,3,3,0,0,1-1.75-.06,8.45,8.45,0,0,1-6.5-7.81,8.57,8.57,0,0,1,5-8.39A6,6,0,0,1,159.89,102.43Z"></path>
  <path class="cls-1" d="M37.5,110.6a10.43,10.43,0,0,0-.74-4,11.4,11.4,0,0,0-6.87-6.87c-.36-.13-.81,0-1.09-.36a10.5,10.5,0,0,0-2.74-.11,10.44,10.44,0,0,0-4.39,1,11.73,11.73,0,0,0-6.58,11.94,11.54,11.54,0,0,0,5.48,8.71,11.18,11.18,0,0,0,7.17,1.5A10.06,10.06,0,0,0,34,119.33c.2.3.11.62.32.8,0,.15,0,.3,0,.44,0,1.44.56,1.91,2,1.82.93-.35,1.12-.64,1.13-1.84C37.49,117.23,37.46,113.92,37.5,110.6Zm-9.28,8.5a4.61,4.61,0,0,1-2,.17,6.57,6.57,0,0,1-5.15-2.92,9,9,0,0,1,.53-11.61,6.62,6.62,0,0,1,4.64-2.31A7.22,7.22,0,0,1,32.05,105,8.62,8.62,0,0,1,28.22,119.1Z"></path>
  <path class="cls-1" d="M26.22,102.43c-.51.16-1,.29-1.52.48a8.59,8.59,0,0,0-5.26,8.66,8.45,8.45,0,0,0,6.76,7.7,2.8,2.8,0,0,1-1.74-.06,8.05,8.05,0,0,1-6.29-6.5,8.31,8.31,0,0,1,2.45-8.12A7.9,7.9,0,0,1,26,102.34.84.84,0,0,1,26.22,102.43Z"></path>
  <path class="cls-1" d="M184.82,92.84a7.61,7.61,0,0,0-12.24-4.48,8.06,8.06,0,0,0,.21,12.56,7.18,7.18,0,0,0,5.61,1.47A7.81,7.81,0,0,0,185,94.51,6.27,6.27,0,0,0,184.82,92.84Zm-1.11,1.76a6.47,6.47,0,0,1-6.57,6.59,6.12,6.12,0,0,1-4.74-2.42,6.78,6.78,0,0,1,.16-8.61,6,6,0,0,1,6.24-2A6.3,6.3,0,0,1,183.55,93a5.22,5.22,0,0,1,.15.88A5.58,5.58,0,0,1,183.71,94.6Z"></path>
  <path class="cls-1" d="M165.82,128.09c-.5,0-1,0-1.51,0-.69,0-.7,0-.7.65,0,.8,0,1.6,0,2.4s0,1.77,0,2.66c0,.38.11.54.51.52.65,0,1.3,0,1.95,0a2.88,2.88,0,0,0,2.85-2.66A3,3,0,0,0,165.82,128.09Zm1.94,3.38a1.8,1.8,0,0,1-1.54,1.88l-.17,0c-1.29.15-1.33.12-1.33-1.19v-1.06c0-.57,0-1.13,0-1.69,0-.37.14-.47.47-.45s.53,0,.8,0a2.46,2.46,0,0,1,.6.12A2,2,0,0,1,167.76,131.47Z"></path>
  <path class="cls-1" d="M104.86,128a3,3,0,0,0-3.06,3.21,3,3,0,0,0,3,3.14,2.92,2.92,0,0,0,3-3.19A3,3,0,0,0,104.86,128Zm-.64,5.27c-.89-.28-1.33-1.14-1.24-2.4a1.87,1.87,0,0,1,1.49-1.85c1.31-.25,2.27.67,2.27,2.16S105.62,133.73,104.22,133.28Z"></path>
  <path class="cls-1" d="M133.22,128a3,3,0,0,0-3.06,3.21,3,3,0,0,0,3,3.14,2.93,2.93,0,0,0,3-3.19A3,3,0,0,0,133.22,128Zm1.86,3.51a1.87,1.87,0,0,1-2,1.87c-1.13,0-1.8-.88-1.8-2.21s.84-2.29,2.09-2.17S135.2,130.1,135.08,131.52Z"></path>
  <path class="cls-1" d="M158.82,131.72c0-.2.16-.2.26-.26a1.8,1.8,0,0,0,.81-2.08,1.67,1.67,0,0,0-1.65-1.25c-.68-.06-1.36,0-2,0-.26,0-.39.1-.38.37,0,1.81,0,3.62,0,5.43,0,.46.28.43.59.44s.59,0,.57-.46,0-1.07,0-1.6c0-.36.24-.5.58-.38a.78.78,0,0,1,.38.36l.81,1.27c.55.88.55.88,1.7.69Zm-1.76-.73-.05-.07a7,7,0,0,1,0-1.83c.19-.2.45-.05.66-.1.92,0,1.33.49,1.14,1.27A1.44,1.44,0,0,1,157.06,131Z"></path>
  <path class="cls-1" d="M146.32,131.66l.22-.17a1.81,1.81,0,0,0,.89-2.12,1.78,1.78,0,0,0-1.84-1.26c-.59,0-1.18,0-1.78,0-.27,0-.46,0-.45.38,0,1.81,0,3.62,0,5.43,0,.46.29.42.6.43s.57,0,.55-.47c0-.65,0-1.3,0-1.92a.74.74,0,0,1,1,.39c.24.41.5.8.76,1.2.55.89.55.89,1.69.67Zm-.81-.67a1.47,1.47,0,0,1-.36,0c-.63,0-.64,0-.65-.6,0-.15,0-.3,0-.44s0-.07,0-.09c.13-.31-.36-.89.43-.91s1.36.2,1.45.8A1,1,0,0,1,145.51,131Z"></path>
  <path class="cls-1" d="M153.1,128.12c-.62-.05-1.24,0-1.86,0-.47,0-.54.17-.53.56,0,.83,0,1.66,0,2.49s0,1.78,0,2.67c0,.35.08.55.49.52s.68,0,.63-.48a1.45,1.45,0,0,1,0-.36c0-.41-.11-.9.07-1.22s.76-.08,1.15-.19a1.1,1.1,0,0,1,.18,0A1.9,1.9,0,0,0,155,130,1.85,1.85,0,0,0,153.1,128.12Zm.74,2.09a1,1,0,0,1-.88,1c-.11,0-.23,0-.35,0h-.78v-1.9c0-.12,0-.28.14-.28a2.27,2.27,0,0,1,1.47.17A1,1,0,0,1,153.84,130.21Z"></path>
  <path class="cls-1" d="M178.19,95l.26-.1A1.74,1.74,0,0,0,179.78,93a1.71,1.71,0,0,0-1.7-1.62c-1-.14-2,0-3-.07-.48,0-.61.15-.61.61,0,1.75,0,3.5,0,5.25,0,.67,0,.63.71.67.5,0,.62-.17.6-.62s0-1,0-1.42c0-.65.06-.75.78-.64a1.13,1.13,0,0,1,.77.55c.39.56.76,1.13,1.15,1.7.13.19.23.43.52.41a3.79,3.79,0,0,0,1.24-.08A10.19,10.19,0,0,0,178.19,95Zm-.4-.95a4.37,4.37,0,0,1-.88.08c-1.27,0-1.14.26-1.16-1.17,0-.4.15-.53.52-.51.21,0,.41,0,.8,0,.11,0,.41,0,.7.06a.69.69,0,0,1,.64.71A.72.72,0,0,1,177.79,94Z"></path>
</svg>
