<?xml version="1.0" encoding="UTF-8"?>
<svg xmlns="http://www.w3.org/2000/svg" xmlns:xlink="http://www.w3.org/1999/xlink" width="211px" height="86px" viewBox="0 0 211 86" version="1.1">
  <title>arkesha-zymo</title>
  <g id="Zymo-Icons" stroke="none" stroke-width="1" fill="none" fill-rule="evenodd">
    <g id="Artboard" transform="translate(-846.000000, -892.000000)" fill="#FFFFFF" fill-rule="nonzero">
      <g id="arkesha-zymo" transform="translate(846.251562, 892.456978)">
        <path d="M7.61432564,27.4660804 C7.27046202,27.5711498 7.14628904,27.3514592 7.06032313,27.0935614 C6.1826826,24.7978708 5.5985842,22.4004999 5.32190147,19.9583912 C5.25794527,18.7502646 5.37709816,17.5394137 5.67531686,16.3669266 C6.24506195,13.8563336 7.32442896,11.4895288 8.84650364,9.41323997 C11.0083362,6.48248118 14.2243036,4.50632229 17.8156132,3.90187018 C19.8698335,3.51101708 21.9528382,3.2905764 24.0433656,3.24279823 C28.4377556,2.98393083 32.795611,2.28961759 37.0528728,1.1700647 C38.783091,0.697649575 40.536592,0.315067526 42.3063448,0.0238526123 C42.5423174,0.312094224 42.643193,0.68776886 42.5833461,1.05544349 C42.7527282,6.73721004 42.1844332,12.4169493 40.8926833,17.95252 C39.7660184,22.4967305 37.5199783,26.6867118 34.3592744,30.1405752 C31.8112611,33.1240548 28.3194759,35.1463241 24.4636433,35.8716357 C23.9165618,35.8679656 23.3711353,35.9321334 22.8398429,36.062671 C19.652743,36.4407659 16.431409,35.730524 13.6988015,34.0472481 C13.175572,33.6357639 12.5882711,33.3130711 11.9603798,33.0920714 C11.0052031,32.6335865 10.4607523,32.9870019 9.86854275,33.8275575 C8.50949853,35.4520796 7.35764086,37.2392237 6.43945825,39.1478919 C6.39249412,39.3268915 6.24816127,39.4638227 6.06693932,39.5013073 C4.95649799,39.5589522 3.84381383,39.5589522 2.7333725,39.5013073 C2.65969796,38.9536517 2.74594318,38.3963749 2.98171845,37.8966104 C3.40161018,36.6079899 4.00305351,35.3858056 4.76789896,34.2669388 C6.94388027,30.9577141 9.54510599,27.9486419 12.5048306,25.3169327 C15.2843949,22.8239214 18.1403733,20.416876 20.9485929,17.95252 C21.5931132,17.4347177 22.2659621,16.9532003 22.9640159,16.5102031 C23.6047512,16.177917 23.9447972,15.4587392 23.7950196,14.7526779 C23.20281,14.3706073 22.6679111,14.6762638 22.1521156,14.9341615 C19.9619522,16.1834467 17.9479271,17.7188598 16.1631575,19.4999063 C13.555525,21.7923305 11.1389278,24.27579 8.68412359,26.740146 C8.38555446,27.058211 8.02019104,27.3061362 7.61432564,27.4660804 L7.61432564,27.4660804 Z" id="Path"></path>
        <path d="M137.155395,70.191136 C136.897497,70.191136 136.6396,70.2388948 136.391254,70.191136 C135.47102,70.1788967 134.71247,69.4659428 134.64328,68.548232 C134.64328,68.2616789 134.64328,67.9655741 134.64328,67.6694694 L134.64328,28.6504995 C134.602354,28.2510257 134.628178,27.8475261 134.719694,27.4565286 C135.054006,26.5013519 135.674871,26.1192812 137.203154,26.1956953 C137.999212,26.4322596 138.561042,27.1431466 138.607264,27.972324 C138.680342,28.4782537 138.705925,28.9899109 138.683678,29.5006068 L138.683678,44.0861556 C138.631873,44.467465 138.664481,44.8554998 138.779196,45.222816 C139.314095,45.0795395 139.562441,44.439571 140.145098,44.4109157 C141.57232,43.4091032 143.148627,42.6386789 144.815913,42.1280433 C146.872693,41.6577519 148.992781,41.528675 151.091424,41.7459726 C153.240748,42.1317501 155.259846,43.0477309 156.965761,44.4109157 C160.335239,47.1182315 162.332408,51.1790244 162.41982,55.5005177 C162.534441,59.636433 162.41982,63.7819 162.41982,67.9178153 C162.41982,69.3887875 162.161922,69.7517547 160.987055,70.1624807 C159.076701,70.2675501 158.427181,69.6371334 158.417629,67.7840906 C158.417629,63.7150377 158.417629,59.6555365 158.417629,55.5864836 C158.357066,50.7570708 154.956809,46.6148668 150.231765,45.6144384 C149.613058,45.5492755 148.991297,45.5173903 148.36917,45.5189208 C146.623342,45.7203744 144.94016,46.2901167 143.430906,47.19048 C140.420165,48.9533812 138.594433,52.2031848 138.655023,55.691553 C138.655023,59.6841918 138.655023,63.6672788 138.655023,67.6599176 C138.655023,68.8061297 138.387573,69.78041 137.155395,70.191136 Z" id="Path"></path>
        <path d="M72.852897,70.191136 C72.1809981,70.3612058 71.4683654,70.1937372 70.9425435,69.7422029 C70.5210656,69.2823728 70.2979669,68.6748579 70.3216786,68.0515401 C70.2785547,64.3432543 68.2518614,60.9423463 65.010896,59.1397411 C63.5854093,58.2993275 61.956512,57.8664967 60.3018746,57.8884595 L56.2328217,57.8884595 C54.8860225,58.1081502 54.7236425,59.0060163 54.7522978,60.1999873 C54.8287119,62.7598609 54.8096084,65.3292863 54.7522978,67.8987118 C54.7522978,68.9207509 54.5708142,69.9141347 53.3004291,70.1624807 C51.3900756,70.2771019 50.7310037,69.656237 50.7310037,67.8031941 C50.7310037,54.7172728 50.7310037,41.6345353 50.7310037,28.5549818 L50.7310037,28.4403606 C50.5964132,27.7342729 50.8480649,27.0099467 51.3914496,26.5394071 C51.9348343,26.0688674 52.6876954,25.9233437 53.3672915,26.1574882 C54.1225415,26.3884645 54.6577961,27.0603798 54.7140907,27.8481511 C54.7792603,28.3931983 54.8016161,28.9425146 54.7809531,29.4910551 L54.7809531,52.0427779 C54.7809531,53.5519571 54.7809531,53.5519571 56.22327,53.9531314 C58.366499,54.2388265 60.5423936,54.1645749 62.6611612,53.7334407 C66.8714559,52.6298286 69.9315618,48.9959529 70.3025751,44.6592617 C70.3025751,44.2580875 70.3025751,43.8569132 70.3694375,43.455739 C70.3884165,42.5324931 71.1186516,41.7813941 72.0409968,41.7364209 C72.7612076,41.6075043 73.4985889,41.6075043 74.2187997,41.7364209 C73.9417985,41.975215 73.5310725,42.1280433 73.9895573,42.634287 C74.3021712,43.0526399 74.4298812,43.580738 74.3429727,44.0957074 C74.1763902,48.5171246 72.0385499,52.631591 68.5163946,55.3094823 C67.8477709,55.8061742 67.8286674,56.0831755 68.5163946,56.5894192 C72.0140001,59.2407553 74.1579586,63.3048333 74.371628,67.6885729 C74.6147252,68.7944504 73.9460959,69.8962168 72.852897,70.191136 L72.852897,70.191136 Z" id="Path"></path>
        <path d="M129.466222,45.4425066 L117.440547,45.4425066 C116.795285,45.4074996 116.148854,45.4850713 115.530194,45.671749 C113.304632,45.8341291 111.814556,46.8752717 111.375175,48.5372793 C111.014621,49.648179 111.152422,50.8607517 111.753055,51.8624187 C112.353689,52.8640856 113.358387,53.5568376 114.508155,53.762096 C114.892138,53.8759096 115.292527,53.9243437 115.692574,53.9053725 C116.923776,54.0295783 118.162135,54.067878 119.39866,54.0199937 C121.032012,54.0199937 122.674916,53.9435796 124.308268,54.1059596 C128.472839,54.4880303 130.937195,58.8818433 130.92767,62.0816854 C130.92767,65.67315 128.300907,69.7899617 124.403786,70.1433771 L114.059222,70.191136 C112.473628,70.191136 110.897587,70.191136 109.283338,70.191136 C108.003401,70.191136 107.258363,69.4938569 107.23926,68.3954037 C107.23776,67.8629165 107.458575,67.3539677 107.848456,66.9912872 C108.238338,66.6286066 108.7619,66.4451114 109.29289,66.4850502 C113.371494,66.4850502 117.450099,66.4850502 121.519152,66.4850502 L122.732226,66.4850502 C123.862783,66.4881378 124.946237,66.0324981 125.734789,65.222342 C126.523341,64.4121859 126.949537,63.3168149 126.915901,62.1867549 C126.93731,59.8364726 125.063032,57.906819 122.713123,57.8598042 C120.181904,57.9553219 117.641134,57.8598042 115.071709,57.8598042 C111.079406,57.8530505 107.722917,54.8617541 107.258363,50.8965658 C106.671475,46.8386076 109.191545,42.9766827 113.142252,41.8796974 C113.893571,41.7069845 114.664229,41.6331298 115.434676,41.6600067 L130.192157,41.6600067 C130.372336,41.6754023 130.551126,41.7041363 130.727056,41.7459726 C130.354537,41.9943186 130.21126,42.1853539 130.507365,42.7011494 C130.80724,43.1903988 130.86353,43.7909746 130.659791,44.3274262 C130.456051,44.8638778 130.015273,45.2756714 129.466222,45.4425066 Z" id="Path"></path>
        <path d="M45.7258776,45.3565407 L42.5260355,45.5189208 C38.9059157,45.9583021 36.2600761,47.7062755 35.4099688,51.4314648 C35.1985112,52.3716062 35.0991177,53.3334791 35.113864,54.296995 C35.113864,58.9104987 35.113864,63.5240023 35.113864,68.1279542 C35.113864,69.0831309 34.9132769,69.9618935 33.8148236,70.2579983 C33.5603034,70.2720428 33.3052024,70.2720428 33.0506822,70.2579983 C32.5669585,70.2632835 32.1017772,70.0721402 31.7615175,69.7282799 C31.4212578,69.3844196 31.2350217,68.917252 31.2453982,68.4336108 C31.2453982,67.4115716 31.2453982,66.3799808 31.2453982,65.3579416 C31.2453982,61.1360605 31.2453982,56.923731 31.2453982,52.7114016 C31.3014915,47.5736606 34.8449601,43.1325133 39.8419889,41.937008 C40.4698944,41.8028167 41.1102582,41.7355785 41.7523423,41.7364209 C43.5086962,41.6456749 45.2685641,41.6456749 47.0249179,41.7364209 C46.8720897,41.9943186 46.3085354,41.975215 46.7479167,42.5865282 C47.5598169,43.6754296 47.0535732,44.81209 45.7258776,45.3565407 Z" id="Path"></path>
        <path d="M22.8398429,36.0531193 C23.9573997,35.7188074 25.1227153,35.5755309 26.2307203,35.1839084 C30.2548987,33.7233387 33.7148664,31.0289097 36.1167996,27.4851839 C38.9085429,23.4734607 40.7239117,18.8647135 41.4180305,14.0267436 C42.066917,9.3882018 42.3638695,4.7072077 42.3063448,0.0238526123 C44.1211807,-0.0525615269 44.1116289,-0.0525615269 44.1116289,1.75272251 C44.1423131,5.60804065 43.8997273,9.46068629 43.3856946,13.2817058 C42.7536967,18.4363168 40.8643266,23.3565515 37.8838765,27.6093569 C35.4442766,31.1836999 31.9068077,33.8661407 27.8067619,35.2507708 C26.217393,35.8323456 24.5314882,36.1046841 22.8398429,36.0531193 L22.8398429,36.0531193 Z" id="Path"></path>
        <path d="M26.4313074,70.191136 C27.2103009,69.7470852 27.6555013,68.8866138 27.5679677,67.9942295 C27.5297607,63.8105553 27.5297607,59.6300651 27.5679677,55.4527589 C27.4279028,49.1362877 23.1162517,43.6785015 17.003713,42.0802845 L16.6598494,41.9847668 L17.1183342,41.8032832 C22.6879948,42.4645784 27.3142538,46.408954 28.8479046,51.8039837 C29.2426549,53.1407848 29.4452708,54.5269354 29.4496659,55.9207955 C29.4496659,59.9420895 29.4496659,63.9729354 29.4496659,68.0037812 C29.4614821,68.3262017 29.4228079,68.648487 29.3350447,68.958958 C29.1083784,69.7042208 28.4136236,70.2077229 27.6348301,70.191136 C27.2336559,70.191136 26.8324817,70.191136 26.4313074,70.191136 Z" id="Path"></path>
        <path d="M191.65778,70.191136 C192.459092,69.7119579 192.904195,68.8067904 192.79444,67.8796082 C192.756233,63.8105553 192.756233,59.7446863 192.79444,55.6820013 C192.759919,49.2265999 188.370834,43.6087279 182.115564,42.0134221 C182.051627,41.9847142 181.990813,41.9495058 181.934081,41.9083527 L182.335255,41.7555244 C187.919589,42.4317536 192.549852,46.3989357 194.074377,51.8135355 C194.468429,53.2250894 194.664521,54.6845328 194.657035,56.1500379 C194.657035,60.047159 194.657035,63.9379122 194.657035,67.8222976 C194.664181,68.1429025 194.635345,68.4632975 194.571069,68.7774744 C194.434629,69.6086675 193.713147,70.2166577 192.870854,70.2102898 C192.460128,70.191136 192.030299,70.191136 191.65778,70.191136 Z" id="Path"></path>
        <path d="M72.852897,70.191136 C73.7376888,69.6173387 74.1780677,68.5581516 73.960902,67.5261928 C73.7014801,62.9849804 71.3246899,58.8291345 67.5421143,56.3028662 L67.2078025,56.0258649 C67.3224237,55.5960354 67.7235979,55.5100695 68.0005992,55.2999306 C71.2387568,52.9961807 73.3490349,49.4281447 73.8080737,45.4807137 C73.8080737,45.1941607 73.9131432,44.9076076 73.9417985,44.6115028 C74.1829015,43.6196601 73.8426594,42.5767442 73.0630359,41.9179044 C73.4451066,41.688662 73.8271773,41.9179044 74.1519374,41.7364209 C75.3268048,42.061181 75.7852896,42.5674246 75.7566343,43.7327402 C75.7734734,48.3228998 73.5665611,52.6370573 69.8345385,55.3094823 C69.5479855,55.529173 69.1659148,55.6246907 68.9557759,56.0258649 C70.8824091,57.2244989 72.4990606,58.8607859 73.674349,60.8017486 C75.0046024,62.9639789 75.7241886,65.4462213 75.7566343,67.9846777 C75.7566343,69.5989264 75.1453212,70.229343 73.511969,70.2102395 C73.2922783,70.191136 73.0725877,70.191136 72.852897,70.191136 Z" id="Path"></path>
        <path d="M161.006158,70.191136 C161.775616,69.7296196 162.213453,68.8687885 162.133267,67.9751259 C162.133267,63.8774177 162.219233,59.7701577 162.133267,55.6724495 C162.135314,50.6231606 159.435116,45.9588501 155.055407,43.4461872 C153.815445,42.6564906 152.422049,42.1388505 150.967251,41.9274562 C150.967251,41.9274562 150.90994,41.8510421 150.967251,41.8510421 C151.016813,41.7983466 151.071174,41.7503807 151.129631,41.7077656 C154.731967,41.8643124 158.099014,43.5408935 160.394845,46.3212692 C162.716554,48.9147051 163.992962,52.2776141 163.976758,55.7584154 C163.976758,59.7892613 163.976758,63.8201071 163.976758,67.8509529 C163.976758,69.6371334 163.384548,70.2102395 161.598368,70.1720324 C161.369126,70.191136 161.187642,70.191136 161.006158,70.191136 Z" id="Path"></path>
        <path d="M56.1946147,53.9531314 C56.137304,53.9531314 56.0799934,54.0582008 56.0131311,54.0677526 C54.456193,54.2874432 54.3893306,54.2301326 54.3893306,52.6922981 C54.3893306,44.687917 54.3893306,36.6930877 54.3893306,28.6887066 C54.4791616,27.7293141 54.0807878,26.7890082 53.3290844,26.1861435 C55.3445074,25.880487 56.1946147,26.6255248 56.1946147,28.8892937 C56.1564076,37.2279866 56.1946147,45.5762314 56.1946147,53.9531314 Z" id="Path"></path>
        <path d="M33.8148236,70.191136 C34.5390884,69.6755817 34.9325252,68.8122064 34.8464145,67.9273671 C34.8464145,63.0941728 34.8464145,58.2514267 34.8464145,53.4182324 C34.795147,51.6423479 35.3176753,49.8972375 36.3364902,48.4417616 C37.6046907,46.6049531 39.6565825,45.4642283 41.8860671,45.3565407 C42.1051279,45.3238595 42.3289236,45.3606021 42.5260355,45.4616101 C39.1227317,46.2611867 36.7198482,49.3014083 36.7281127,52.7973675 C36.7281127,57.6974242 36.7281127,62.6070326 36.7281127,67.5070893 C36.7461153,67.8252271 36.7461153,68.1441283 36.7281127,68.4622661 C36.7086441,68.9449123 36.4945274,69.3990962 36.134594,69.7212365 C35.7746607,70.0433768 35.2996018,70.2060051 34.8177592,70.1720324 C34.4738956,70.191136 34.1395837,70.191136 33.8148236,70.191136 Z" id="Path"></path>
        <path d="M91.4310846,66.3131184 C91.020239,66.4864549 90.5638248,66.5200148 90.1320442,66.4086361 C86.8409418,65.9764578 83.9476036,64.0145124 82.3282503,61.1169569 C81.764696,60.085366 81.7933513,60.0758143 82.8631492,59.6459847 C89.195971,57.1529734 95.5192411,54.6313069 101.871166,52.1669509 C103.380346,51.5842931 103.78152,50.600461 103.466312,49.4733525 C103.34208,49.0909544 103.165271,48.7276916 102.940964,48.3940027 C100.991818,44.8731406 97.5606724,42.4173103 93.5993358,41.7077656 C93.5337091,41.6764077 93.4699268,41.6413274 93.4083005,41.6026961 C97.1857069,41.5572996 100.782341,43.2170145 103.198862,46.1206821 C103.895628,46.9256911 104.504052,47.8031028 105.013698,48.7378664 C105.45144,49.3227343 105.566775,50.0881205 105.320825,50.7760135 C105.074874,51.4639066 104.500405,51.9826589 103.791072,52.1573991 C98.1841842,54.3160985 92.605952,56.5416603 87.0277198,58.7481186 C86.1394055,59.101534 85.2510911,59.4453976 84.3723285,59.8083648 C83.694153,60.085366 83.6846012,60.1044696 83.980706,60.7635415 C84.979846,62.8293658 86.6690537,64.4814109 88.7565897,65.4343558 C89.6078223,65.8379908 90.5063393,66.1332178 91.4310846,66.3131184 Z" id="Path"></path>
        <path d="M137.155395,70.191136 C137.975998,69.6132035 138.424286,68.640091 138.330263,67.6408141 C138.272952,63.6577271 138.282504,59.67464 138.330263,55.6820013 C138.347239,50.8548964 141.721215,46.6900831 146.439713,45.671749 C147.086494,45.5638542 147.742597,45.5222477 148.397825,45.5475761 C147.699562,45.7525949 147.013854,45.9981741 146.344195,46.2830621 C142.586194,47.8849335 140.149395,51.5777372 140.15465,55.6628977 C140.020925,59.6268812 140.15465,63.5908647 140.15465,67.5548482 C140.15465,67.88916 140.15465,68.2139201 140.15465,68.5100249 C140.08778,69.4276083 139.344876,70.1499896 138.42578,70.191136 C137.957744,70.191136 137.585225,70.191136 137.155395,70.191136 Z" id="Path"></path>
        <path d="M125.72193,77.3072027 C125.12972,79.3003381 124.540694,81.2934736 123.954853,83.2866091 C123.859335,83.6018174 123.72561,83.9074739 123.658748,84.2417858 C123.591885,84.5760977 123.429505,84.9390648 122.885055,84.9486166 C122.340604,84.9581684 122.140017,84.7002706 121.99674,84.2226823 C121.605118,82.8472278 121.165737,81.4908768 120.735907,80.1249741 C120.678596,79.9243869 120.678596,79.6855928 120.37294,79.5805233 C119.8858,81.1565649 119.417763,82.713503 118.921071,84.2799929 C118.796898,84.6907189 118.634518,84.9581684 118.099619,84.9486166 C117.903252,84.9728921 117.705294,84.9180602 117.549402,84.7962131 C117.393509,84.674366 117.292487,84.4955126 117.268615,84.2990964 C116.819682,82.713503 116.313439,81.1470132 115.874057,79.5232127 C115.654367,78.7877266 115.444228,78.0617923 115.214985,77.3072027 C115.317388,77.2561669 115.426855,77.2207512 115.539746,77.2021332 C116.800579,77.2021332 116.666854,77.087512 117.001166,78.3101382 C117.373685,79.6855928 117.765307,81.0514955 118.15693,82.4842606 C118.472468,81.9301957 118.701184,81.3310239 118.835105,80.7076319 C119.112107,79.8766281 119.350901,79.0265208 119.637454,78.195517 C119.790282,77.746584 119.78073,77.1543744 120.544872,77.1830297 C121.309013,77.211685 121.232599,77.7274804 121.375875,78.1382064 C121.748394,79.2844185 122.10181,80.4306306 122.474329,81.5863945 C122.560295,81.8633957 122.665364,82.1308452 122.827744,82.5415712 C123.248022,81.0228402 123.630093,79.676041 124.002611,78.3005865 C124.336923,77.1543744 124.327372,77.1543744 125.72193,77.3072027 Z" id="Path"></path>
        <path d="M140.135547,44.401364 L138.454436,46.082475 C138.298021,45.7051719 138.248453,45.2921016 138.311159,44.8885041 C138.311159,39.5872732 138.311159,34.2955941 138.311159,28.9943631 C138.419462,27.9299896 137.998157,26.8802983 137.18405,26.1861435 C139.094404,25.918694 140.173754,26.5968695 140.116443,29.0516738 C140.020925,33.7797986 140.116443,38.5079235 140.116443,43.2360483 C140.09734,43.6085673 140.125995,44.0097415 140.135547,44.401364 Z" id="Path"></path>
        <path d="M124.37513,70.191136 C125.772538,69.7511 127.056947,69.0110983 128.138527,68.0228848 C130.153046,66.0161307 130.988021,63.1111146 130.346509,60.3409503 C129.704997,57.5707859 127.678024,55.3285368 124.986443,54.4116162 C124.747649,54.3256503 124.461096,54.4116162 124.279613,54.1537185 C128.378127,54.0329676 131.886015,57.0717537 132.350856,61.1456122 C132.894935,65.2910017 130.198252,69.1705864 126.123104,70.10517 C125.549049,70.2290784 124.958573,70.2581182 124.37513,70.191136 L124.37513,70.191136 Z" id="Path"></path>
        <path d="M127.899733,79.962594 C127.899733,81.3762556 127.899733,82.8281242 127.899733,84.2131305 C127.899733,84.604753 127.899733,84.9295131 127.34573,84.9390648 C126.791728,84.9486166 126.648451,84.7766848 126.658003,84.2417858 C126.658003,82.1212934 126.658003,79.9912493 126.658003,77.8707569 C126.658003,77.6510663 126.505175,77.3072027 126.887245,77.2498921 C127.269316,77.1925815 127.555869,77.1161673 127.842422,77.4218239 C128.128975,77.7274804 128.243596,77.9471711 128.444183,78.2050688 L131.309714,82.0257758 C131.395679,82.1308452 131.45299,82.2836735 131.729991,82.2263629 C131.729991,80.8031495 131.729991,79.3608327 131.729991,77.8994122 C131.729991,77.3263062 131.94013,77.2403403 132.436822,77.2594438 C132.933514,77.2785474 132.943066,77.4027203 132.943066,77.7752393 C132.943066,78.9501067 132.943066,80.1154223 132.943066,81.2902897 C132.943066,82.4651571 132.943066,83.3439197 132.943066,84.3659588 C132.943066,84.9199613 132.58965,85.1301002 132.083407,84.9199613 C131.768198,84.7862365 131.605818,84.48058 131.405231,84.2226823 L128.176734,79.9434905 L127.899733,79.962594 Z" id="Path"></path>
        <path d="M7.61432564,27.4660804 C9.61064503,25.5557269 11.4350326,23.4734416 13.4504555,21.649054 C15.5585774,19.6279909 17.7678751,17.715179 20.0698303,15.9179936 C20.8064234,15.3735676 21.5970031,14.9062614 22.4291169,14.5234355 C22.7539489,14.3494858 23.1221563,14.2731906 23.4893631,14.3037449 C23.7854679,14.3037449 23.8141232,14.5425391 23.8045714,14.7813332 C21.9808473,15.7917905 20.2980253,17.0378496 18.7994453,18.487419 C15.8990996,20.986888 13.1437136,23.6497899 10.5467182,26.4631448 C9.84995361,27.3427942 8.70384955,27.7347842 7.61432564,27.4660804 Z" id="Path"></path>
        <path d="M157.118589,79.9052834 C157.118589,80.6789766 157.166348,81.4526697 157.118589,82.2168111 C157.056477,83.7960965 155.727388,85.026893 154.147989,84.9677201 C153.386209,85.0447917 152.626504,84.803112 152.049271,84.300069 C151.472038,83.797026 151.12877,83.0774938 151.100976,82.3123288 C150.986354,80.7744942 151.100976,79.2366597 151.034113,77.6892734 C151.034113,77.1639262 151.349322,77.211685 151.683633,77.2212368 C152.017945,77.2307885 152.438223,77.1066156 152.428671,77.7179287 C152.428671,78.9310031 152.428671,80.1345258 152.428671,81.3476003 C152.4059,81.6655854 152.4059,81.9847919 152.428671,82.302777 C152.521638,83.1053222 153.206418,83.7075982 154.014265,83.6973351 C154.868858,83.7922736 155.638612,83.17647 155.733583,82.3218806 C155.767107,81.7014682 155.767107,81.0796982 155.733583,80.4592859 C155.733583,79.5041092 155.733583,78.6253466 155.733583,77.7083769 C155.733583,77.0970638 156.144309,77.2403403 156.488172,77.2212368 C156.832036,77.2021332 157.147244,77.2212368 157.118589,77.7083769 C157.118589,78.443863 157.118589,79.1793491 157.118589,79.9052834 L157.118589,79.9052834 Z" id="Path"></path>
        <path d="M53.2717738,70.1911739 C54.0672795,69.7028214 54.5070502,68.7971919 54.3988824,67.8700565 C54.3988824,64.9090086 54.3988824,61.9479607 54.3988824,58.9869128 C54.3988824,57.8789078 54.3988824,57.8789078 55.5546462,57.8884595 C55.7743369,57.8884595 55.9844758,57.8884595 56.2041664,57.8884595 L56.2041664,67.9942295 C56.247906,68.3972221 56.1887523,68.8047255 56.0322346,69.1786486 C55.7670829,69.7966972 55.1573578,70.1956531 54.4848483,70.1911739 C54.0741223,70.1911739 53.6729481,70.1911739 53.2717738,70.1911739 Z" id="Path"></path>
        <path d="M193.080993,78.3483453 C192.995027,78.4629665 192.95682,78.4916218 192.95682,78.5202771 C192.95682,79.141142 192.698923,79.8861799 193.06189,80.3351129 C193.424857,80.784046 194.169895,80.4497341 194.743001,80.4879412 C195.17283,80.4879412 195.564453,80.4879412 195.49759,81.0897026 C195.49759,81.4526697 195.33521,81.6150498 194.962691,81.605498 C194.590173,81.5959462 194.007515,81.605498 193.529926,81.605498 C193.052338,81.605498 192.918613,81.7869816 192.928165,82.2359146 C192.928165,84.1462681 192.73713,83.7259904 194.408689,83.7737492 L195.621763,83.7737492 C196.022938,83.7737492 196.242628,83.8692669 196.223525,84.3277517 C196.204421,84.7862365 196.128007,84.9390648 195.669522,84.9390648 C194.456448,84.9390648 193.252925,84.9390648 192.039851,84.9390648 C191.676883,84.9390648 191.504952,84.8053401 191.504952,84.4328212 C191.504952,82.1977076 191.504952,79.9689619 191.504952,77.746584 C191.504952,77.3454097 191.705539,77.2594438 192.049402,77.2594438 C193.262477,77.2594438 194.466,77.2594438 195.679074,77.2594438 C196.137559,77.2594438 196.213973,77.4600309 196.223525,77.8612052 C196.233077,78.2623794 196.013386,78.4056559 195.621763,78.3961042 C194.752553,78.3292418 193.883342,78.3483453 193.080993,78.3483453 Z" id="Path"></path>
        <path d="M93.551577,70.191136 C94.1437865,70.0192041 94.7455479,69.8568241 95.3282057,69.6657887 C98.6445329,68.5822746 101.41341,66.2583344 103.055586,63.1801387 C103.647795,62.1198925 103.409001,61.3557511 102.272341,60.3145766 C102.635308,60.3145766 102.998275,60.3145766 103.361242,60.3145766 C103.94029,60.3111753 104.48584,60.5857173 104.82811,61.0527926 C105.17038,61.519868 105.267822,62.1227807 105.090112,62.673895 C105.031355,62.8835753 104.947993,63.0855667 104.841766,63.2756564 C102.82853,67.0550088 99.1149657,69.6303162 94.8697209,70.191136 C94.4306658,70.2150821 93.990632,70.2150821 93.551577,70.191136 Z" id="Path"></path>
        <path d="M135.818148,77.3167544 C136.20912,77.1358992 136.660216,77.1379998 137.049487,77.3224884 C137.438758,77.506977 137.726004,77.8548015 137.833571,78.2719312 C138.186986,79.1124867 138.664574,79.8957316 139.123059,80.7744942 L140.488962,78.2050688 C141.052516,77.1352709 141.052516,77.1352709 142.399315,77.3263062 C141.759347,78.4629665 141.167137,79.5900751 140.488962,80.6694248 C139.957136,81.4184532 139.712985,82.3340201 139.801235,83.248402 C139.820286,83.5410131 139.820286,83.8345535 139.801235,84.1271646 C139.801235,84.8626507 139.380957,85.0823413 138.674126,84.9104095 C138.528183,84.8798143 138.421828,84.7537638 138.416228,84.604753 C138.392371,84.3505978 138.392371,84.0947667 138.416228,83.8406116 C138.57288,82.5262514 138.232156,81.2008364 137.461052,80.1249741 C136.849739,79.2557632 136.381702,78.3101382 135.818148,77.3167544 Z" id="Path"></path>
        <path d="M115.663919,53.9531314 C114.371222,54.3303704 112.978025,53.9022719 112.120213,52.8642299 C111.10245,51.8354559 110.659301,50.36994 110.936489,48.9495936 C111.213676,47.5292472 112.175327,46.3378847 113.505219,45.7672667 C114.122426,45.4322171 114.860526,45.4039645 115.501538,45.6908526 C113.785699,46.2928785 112.662495,47.9428265 112.731526,49.7599055 C112.65081,51.6592077 113.852239,53.3772126 115.663919,53.9531314 L115.663919,53.9531314 Z" id="Path"></path>
        <path d="M6.06693932,39.5299626 C6.62945671,37.9481002 7.45982651,36.4747592 8.52174355,35.1743567 C9.10440136,34.4293188 9.68705917,33.6747292 10.2506134,32.9201395 C10.8141677,32.1655499 10.71865,32.2706194 11.3586185,32.6526901 C11.5695229,32.7949643 11.7705683,32.951333 11.9603798,33.1207267 L10.0977852,35.5468756 C9.34045854,36.493387 8.72580943,37.545692 8.27339759,38.6703035 C7.99639634,39.3866861 7.60477387,39.7401015 6.83108071,39.6254803 C6.57841351,39.578987 6.32327666,39.5470948 6.06693932,39.5299626 L6.06693932,39.5299626 Z" id="Path"></path>
        <path d="M182.106013,81.0419437 C182.106013,82.140397 182.106013,83.2388502 182.106013,84.3373035 C182.106013,84.9677201 181.743045,84.9199613 181.322768,84.9390648 C180.90249,84.9581684 180.654144,84.8244436 180.654144,84.3277517 C180.654144,82.1308452 180.654144,79.9243869 180.654144,77.7274804 C180.654144,77.1352709 181.026663,77.2212368 181.38963,77.211685 C181.752597,77.2021332 182.125116,77.211685 182.106013,77.746584 C182.096461,78.8450372 182.106013,79.9434905 182.106013,81.0419437 Z" id="Path"></path>
        <path d="M15.7906385,70.191136 C16.5165729,69.9809971 17.2616107,69.78041 17.9779933,69.5416158 C19.8930724,68.9135119 21.6404397,67.8585593 23.0881888,66.4563949 C23.3174313,66.2367042 23.4893631,65.9214959 23.9287444,65.8928406 C23.9952702,66.393701 23.9952702,66.9011595 23.9287444,67.4020199 C22.3740661,68.5052909 20.6426822,69.3354507 18.808997,69.8568241 C17.8297505,70.1418186 16.8085168,70.25493 15.7906385,70.191136 Z" id="Path"></path>
        <path d="M181.026663,70.191136 C181.685735,70.0001006 182.354359,69.8090653 183.003879,69.5989264 C185.031028,68.9607427 186.8797,67.8548115 188.400627,66.370429 C188.591663,66.1793936 188.734939,65.8832889 189.164769,65.9023924 C189.240732,66.3897743 189.240732,66.8859826 189.164769,67.3733646 C187.61598,68.4829433 185.887166,69.3166518 184.054573,69.8377206 C183.072458,70.125614 182.04868,70.2451086 181.026663,70.191136 Z" id="Path"></path>
        <path d="M129.466222,45.4425066 C129.619051,45.2992301 129.790982,45.1559536 129.934259,45.0031253 C130.317066,44.6623099 130.546866,44.1819644 130.572013,43.6700423 C130.59716,43.1581202 130.415545,42.6575648 130.067984,42.2808716 C129.962914,42.1471469 129.762327,42.099388 129.552188,41.975215 C130.058432,41.6600067 130.440503,41.8510421 130.774815,41.7173173 C131.959234,42.0420774 132.494133,42.7202529 132.379511,43.7900509 C132.259536,44.8080782 131.357472,45.5499622 130.335433,45.4711619 C130.04888,45.4807137 129.752775,45.4520584 129.466222,45.4425066 Z" id="Path"></path>
        <path d="M45.7258776,45.3565407 C45.9284823,45.2078588 46.12298,45.0484344 46.3085354,44.8789523 C46.9833196,44.2539444 47.0544917,43.2114823 46.4709154,42.5005623 C46.3160187,42.3005366 46.1502027,42.1092104 45.9742235,41.9274562 C46.3371907,41.7077656 46.7192614,41.9274562 47.0535732,41.7650762 C48.2379924,42.1184916 48.7537878,42.7202529 48.6678219,43.7518438 C48.601101,44.5858394 47.9672649,45.2632517 47.1395392,45.385196 C46.6701672,45.4568607 46.1919599,45.4471673 45.7258776,45.3565407 Z" id="Path"></path>
        <path d="M102.243685,60.2955049 C101.220263,59.975725 100.123687,60.5010808 99.7315705,61.4990276 C99.2147126,62.4660111 98.5176414,63.3251919 97.6779405,64.030246 C95.9954308,65.632148 93.7209389,66.4595507 91.4024293,66.3131184 C88.2441201,66.1795068 85.3007629,64.6764417 83.3407376,62.1963066 C81.9939384,60.5151956 82.0990079,60.2859532 84.0857755,59.4645012 C90.0269748,57.1338699 95.9681741,54.8127904 101.89027,52.4248486 C103.705106,51.6893625 104.287764,50.2661492 103.361242,48.6041416 C101.154784,44.687917 98.0122523,42.061181 93.3796452,41.564489 C91.8815054,41.4226226 90.3709866,41.4869 88.8903145,41.7555244 C84.3857218,42.5064822 80.5600203,45.4708625 78.7081304,49.6452843 C77.7259546,51.8652911 77.3028856,54.2921984 77.4759524,56.7135921 C77.5207191,61.321341 79.9164689,65.5868564 83.8278778,68.0228848 C86.7249429,69.8383929 90.1576512,70.6038396 93.551577,70.191136 C97.983597,69.6848923 101.021059,67.1632257 103.208414,63.5048988 C103.636627,62.9856661 103.777399,62.2869503 103.583653,61.6424103 C103.389908,60.9978703 102.887216,60.4925764 102.243685,60.2955049 L102.243685,60.2955049 Z M82.9873222,52.9979546 C83.942499,49.2727653 87.0659269,45.6621973 91.249601,45.4616101 C94.2438177,45.293436 97.1196653,46.652274 98.8910149,49.0721782 C98.7154549,49.2919664 98.4689683,49.4439102 98.1937359,49.5020078 L83.7992224,55.2330682 C83.5222212,55.3476894 83.159254,55.7679672 82.9013563,55.1757576 C82.6420471,54.4668365 82.6729395,53.68423 82.9873222,52.9979546 Z" id="Shape"></path>
        <path d="M91.249601,45.4902655 C90.7529091,45.6430937 90.2944243,45.7672667 89.7786288,45.9391985 C85.9822392,47.2083305 83.3170328,50.6301844 83.0159775,54.6217551 C83.0159775,54.8032387 82.9682187,54.9847222 82.9491151,55.1662058 C82.7007692,56.0545202 81.8602137,55.9781061 81.1724864,56.3410732 C81.0030633,55.1132281 81.127461,53.8627039 81.5354536,52.6922981 C82.7259941,48.4543086 86.5431472,45.4897176 90.9439445,45.385196 C91.049423,45.4087339 91.1519436,45.4439754 91.249601,45.4902655 L91.249601,45.4902655 Z" id="Path"></path>
        <path d="M193.042786,55.3954482 C193.038445,50.132744 190.087658,45.3155846 185.401372,42.92084 C184.446196,42.3763893 183.328639,42.2140092 182.335255,41.7268691 C181.180297,41.534498 180.005586,41.4895637 178.839308,41.5931444 C177.00028,41.6007561 175.184899,42.0081576 173.518974,42.7871153 C167.849977,45.4944462 164.571333,51.5464373 165.399971,57.7738383 C165.95892,62.8114907 169.173817,67.1636301 173.82463,69.1786486 C176.106286,70.1121565 178.59021,70.441153 181.036215,70.1338254 C183.971211,69.829876 186.706194,68.5046435 188.763594,66.3895325 C189.088355,66.6856373 188.906871,67.0963633 189.183872,67.3447093 L189.183872,68.2139201 C189.231631,69.6848923 189.948014,70.2579983 191.638676,70.1242736 C192.79444,69.7039958 193.042786,69.3505804 193.042786,67.8700565 C193.080993,63.7341412 193.176511,59.5600188 193.042786,55.3954482 Z M182.85105,65.6635982 C181.69618,66.2294172 180.404074,66.4547074 179.125861,66.3131184 C176.346297,66.2653596 174.349977,64.7752838 172.754832,62.7025503 C169.355344,58.3393726 169.697903,52.1366112 173.557181,48.1743121 C174.9889,46.5723754 176.999621,45.6065422 179.144965,45.4902655 C182.559512,45.3955098 185.753518,47.1719924 187.474106,50.1228726 C189.170246,52.7404237 189.634877,55.9695224 188.745539,58.9590946 C187.856201,61.9486667 185.702126,64.3987528 182.85105,65.6635982 L182.85105,65.6635982 Z" id="Shape"></path>
        <path d="M179.144965,45.4902655 C176.194297,46.1019143 173.644279,47.9423765 172.134315,50.5501648 C170.624351,53.1579532 170.297639,56.2857565 171.236101,59.1492928 C172.256316,62.8639273 175.330295,65.6550706 179.125861,66.3131184 C178.414839,66.4989021 177.665323,66.475687 176.967162,66.246256 C172.557149,65.1600837 169.319668,61.3989334 168.901871,56.8763866 C168.484074,52.3538397 170.977726,48.0632418 175.114119,46.1875445 C176.367445,45.5869756 177.762726,45.3456117 179.144965,45.4902655 L179.144965,45.4902655 Z" id="Path"></path>
        <path d="M27.844969,55.5960354 C27.8570953,53.9059969 27.5323825,52.2304788 26.8897923,50.6673234 C25.4665521,46.7125637 22.3530307,43.5990423 18.398271,42.1758022 C17.949338,42.0134221 17.3953355,42.1758022 17.0514718,41.7268691 C15.931843,41.5346538 14.7918831,41.4896976 13.6605944,41.5931444 C11.7862563,41.5866399 9.93363247,41.9943476 8.23519052,42.7871153 C2.65143505,45.4708324 -0.61620067,51.4001338 0.0970846959,57.5541477 C0.575284868,61.9994183 3.10117105,65.9666493 6.92659839,68.2807825 C9.58266428,69.895535 12.7052365,70.5685032 15.7906385,70.191136 C18.7502069,69.8878272 21.5025115,68.5320122 23.5466737,66.370429 C23.7950196,66.7333962 23.6803984,67.1250186 23.9478479,67.3256057 C23.9478479,67.5070893 23.9478479,67.6790211 23.9478479,67.8605047 C23.9478479,69.6371334 24.6260234,70.2197913 26.4122039,70.10517 C27.558416,69.6753405 27.7972102,69.3123734 27.8067619,67.8318494 C27.844969,63.7914518 27.8067619,59.6841918 27.844969,55.5960354 Z M16.3828481,66.1029795 C15.580467,66.3543591 14.7326004,66.4261016 13.8993886,66.3131184 C11.3240304,66.1855296 8.96106924,64.8464002 7.52835974,62.7025503 C4.23038386,58.4031882 4.50867726,52.3533317 8.18743169,48.3748992 C9.63182505,46.6842036 11.6992996,45.6504663 13.9184921,45.509369 C16.6779959,45.3905881 19.338323,46.5498565 21.1300765,48.6519005 C26.5268251,54.5357892 23.8141232,64.0493495 16.3732964,66.1029795 L16.3828481,66.1029795 Z" id="Shape"></path>
        <path d="M13.9089404,45.4902655 C13.2785237,45.6908526 12.6385553,45.8436808 11.9985869,46.0920268 C7.73943182,47.8683996 5.11459213,52.191665 5.50338505,56.7900063 C5.80874172,61.4975995 9.23578247,65.4142175 13.8611815,66.3417737 C13.1549701,66.5460559 12.4019536,66.519282 11.7120339,66.2653596 C7.7127047,65.4357861 4.62617682,62.2470052 3.92734342,58.2227714 C3.03339815,54.5776612 4.19355526,50.7348696 6.95525369,48.1934156 C8.72554382,46.4303541 11.1055003,45.4147692 13.6032838,45.3565407 C13.7122253,45.3828391 13.8156888,45.4281044 13.9089404,45.4902655 L13.9089404,45.4902655 Z" id="Path"></path>
        <path d="M209.949415,33.6460739 C209.32423,30.4098189 207.049487,27.7375391 203.954593,26.603592 C200.8597,25.469645 197.396968,26.0397543 194.828967,28.1060488 C192.510421,30.0359183 191.191175,32.9124 191.24129,35.928613 C191.291406,38.9448259 192.705485,41.7758924 195.086864,43.6276708 C197.036309,45.181487 199.550944,45.8404949 202.011896,45.4425066 C206.783393,44.6893046 210.266374,40.529304 210.169105,35.6997039 C210.1853,35.0085276 210.111449,34.3181837 209.949415,33.6460739 L209.949415,33.6460739 Z M208.583512,35.8047733 C208.622546,37.9724083 207.780637,40.063166 206.250342,41.598862 C204.720047,43.1345581 202.632269,43.9838275 200.46451,43.9524309 C198.153733,43.9023676 195.992986,42.7973606 194.599724,40.9531759 C192.120708,37.8157776 192.20471,33.3637096 194.800311,30.3220588 C196.636046,28.0119883 199.670862,27.0166589 202.518139,27.7908405 C205.492726,28.4824782 207.786957,30.8514397 208.382925,33.846661 C208.4751,34.2008144 208.53898,34.5617342 208.57396,34.9260107 C208.596412,35.2184051 208.599602,35.5119599 208.583512,35.8047733 L208.583512,35.8047733 Z" id="Shape"></path>
        <path d="M186.47117,77.211685 C185.850305,77.211685 185.219889,77.211685 184.560817,77.211685 C183.710709,77.211685 183.701158,77.211685 183.701158,78.0140335 C183.701158,78.9692102 183.701158,79.9912493 183.701158,80.9846331 C183.701158,81.9780169 183.701158,83.1815396 183.701158,84.2799929 C183.701158,84.7384777 183.834882,84.9390648 184.322023,84.9199613 C185.133923,84.9199613 185.936271,84.9199613 186.73862,84.9199613 C188.584726,84.8967284 190.110745,83.4740989 190.263222,81.6341533 C190.587982,78.7877266 188.648973,77.0970638 186.47117,77.211685 Z M188.868664,81.3953591 C188.920463,82.5441804 188.095648,83.5463309 186.95831,83.7164386 C186.885362,83.7255288 186.811568,83.7255288 186.73862,83.7164386 C185.143475,83.9170257 185.095716,83.8692669 185.095716,82.2550182 L185.095716,80.9368743 C185.095716,80.249147 185.095716,79.551868 185.095716,78.854589 C185.095716,78.4056559 185.277199,78.2814829 185.678374,78.3005865 C186.079548,78.31969 186.337446,78.3005865 186.63355,78.3005865 C186.887584,78.3181993 187.138136,78.3695947 187.378588,78.4534148 C188.477041,78.8927961 188.983285,79.9052834 188.868664,81.3953591 Z" id="Shape"></path>
        <path d="M111.126829,77.1161673 C110.078673,77.0898668 109.067735,77.5053686 108.341021,78.2611516 C107.614306,79.0169347 107.238753,80.0433836 107.306122,81.0897026 C107.255893,82.1094841 107.629695,83.1046257 108.338888,83.8391474 C109.048082,84.5736692 110.029499,84.9821479 111.050415,84.9677201 C113.113751,84.836855 114.724001,83.1316644 114.73665,81.0642204 C114.749152,78.9967763 113.159766,77.2721233 111.098174,77.1161673 L111.126829,77.1161673 Z M110.324481,83.6304727 C109.226027,83.2770573 108.681577,82.2168111 108.786646,80.6694248 C108.780459,79.5598202 109.554371,78.5984141 110.639689,78.3674489 C112.244386,78.0713441 113.438357,79.1984526 113.438357,81.0514955 C113.438357,82.9045384 112.05335,84.1844752 110.324481,83.6304727 Z" id="Shape"></path>
        <path d="M146.181815,77.1161673 C145.134551,77.0871234 144.123466,77.5004172 143.396411,78.2547366 C142.669356,79.0090559 142.293548,80.0346644 142.361108,81.0801508 C142.302505,82.1013757 142.6719,83.1008652 143.380559,83.8385223 C144.089217,84.5761794 145.073096,84.9853416 146.095849,84.9677201 C148.159186,84.836855 149.769435,83.1316644 149.782085,81.0642204 C149.794587,78.9967763 148.2052,77.2721233 146.143608,77.1161673 L146.181815,77.1161673 Z M148.483791,81.4526697 C148.481837,82.0852432 148.221785,82.6896151 147.763798,83.1259648 C147.305811,83.5623145 146.68957,83.7928356 146.057642,83.7641974 C144.663084,83.6973351 143.832081,82.675296 143.832081,81.032392 C143.832081,79.389488 144.873223,78.1668617 146.42061,78.3483453 C147.815168,78.4820701 148.617516,79.7429034 148.47424,81.4526697 L148.483791,81.4526697 Z" id="Shape"></path>
        <path d="M177.817269,81.6532568 C177.817269,81.4240144 178.017856,81.4144627 178.132477,81.3380485 C179.024824,80.8198634 179.443942,79.7562522 179.144965,78.7686231 C178.902561,77.8427711 178.057776,77.2032612 177.100886,77.2212368 C176.260331,77.1543744 175.419775,77.2212368 174.569668,77.2212368 C174.264012,77.2212368 174.101631,77.335858 174.101631,77.6701698 C174.101631,79.9052834 174.101631,82.140397 174.101631,84.356407 C174.101631,84.9199613 174.435943,84.891306 174.827566,84.891306 C175.219188,84.891306 175.5535,84.891306 175.524845,84.3277517 C175.49619,83.7641974 175.524845,83.0096078 175.524845,82.3505359 C175.524845,81.9016028 175.830501,81.729671 176.250779,81.8824993 C176.449245,81.9723842 176.611019,82.1274171 176.709264,82.3218806 L177.664441,83.9074739 C178.352168,84.9868237 178.352168,84.9868237 179.775381,84.7575812 L177.817269,81.6532568 Z M175.649018,80.7553907 C175.621607,80.7311158 175.598936,80.7019675 175.582155,80.6694248 C175.477065,79.9184941 175.477065,79.1565866 175.582155,78.4056559 C175.82095,78.1668617 176.136158,78.3483453 176.394056,78.2910347 C177.540268,78.2910347 178.03696,78.8927961 177.807717,79.8575246 C177.645337,80.6121142 176.193469,81.2138755 175.649018,80.7935978 L175.649018,80.7553907 Z" id="Shape"></path>
        <path d="M162.362509,81.6532568 L162.639511,81.4526697 C163.587419,80.9533286 164.045017,79.8494731 163.728412,78.8259337 C163.437689,77.8363869 162.492705,77.1864611 161.464643,77.2689956 C160.738709,77.2689956 160.003223,77.2689956 159.267737,77.2689956 C158.933425,77.2689956 158.694631,77.3167544 158.704182,77.7370322 C158.704182,79.9848815 158.704182,82.2136272 158.704182,84.4232694 C158.704182,84.9963754 159.057598,84.9390648 159.439669,84.9581684 C159.821739,84.9772719 160.136948,84.9008578 160.117844,84.3755105 C160.117844,83.5731621 160.117844,82.7708136 160.117844,82.0066722 C160.348292,81.8996819 160.611871,81.888913 160.850279,81.9767476 C161.088687,82.0645821 161.282277,82.2437815 161.388229,82.4747088 C161.674782,82.9905043 162.009094,83.4298856 162.343406,83.9647845 C163.031133,85.0632378 163.031133,85.0632378 164.435243,84.7957883 L162.362509,81.6532568 Z M161.359574,80.8318048 C161.21328,80.8416947 161.066486,80.8416947 160.920192,80.8318048 C160.136948,80.8318048 160.127396,80.8318048 160.108292,80.086767 L160.108292,79.5423162 C160.108292,79.5423162 160.108292,79.4563503 160.108292,79.427695 C160.270672,79.0456243 159.668911,78.3292418 160.633639,78.3005865 C161.751196,78.3005865 162.314751,78.5584842 162.438923,79.2557632 C162.533482,79.6071686 162.467871,79.9824 162.25968,80.2808686 C162.051489,80.5793372 161.722013,80.7705139 161.359574,80.8031495 L161.359574,80.8318048 Z" id="Shape"></path>
        <path d="M170.748961,77.2498921 C169.98482,77.1925815 169.211127,77.2498921 168.446985,77.2498921 C167.864327,77.2498921 167.778361,77.4600309 167.787913,77.9471711 C167.787913,78.9692102 167.787913,80.0008011 167.787913,81.0228402 C167.787913,82.0448793 167.787913,83.2197467 167.787913,84.3181999 C167.787913,84.7575812 167.883431,84.9963754 168.399226,84.9677201 C168.915022,84.9390648 169.239782,84.9677201 169.163368,84.3659588 C169.14906,84.2198478 169.14906,84.0726885 169.163368,83.9265775 C169.083447,83.4231747 169.112766,82.9084694 169.249334,82.4173982 C169.516783,81.9589134 170.20451,82.3218806 170.682099,82.1881558 C170.752068,82.1835091 170.822268,82.1835091 170.892238,82.1881558 C171.521372,82.1371534 172.104135,81.8371731 172.511209,81.3547811 C172.918283,80.8723892 173.116001,80.247483 173.060489,79.6187304 C173.08134,78.994283 172.846411,78.3883792 172.410056,77.9412058 C171.973701,77.4940325 171.373732,77.2443374 170.748961,77.2498921 L170.748961,77.2498921 Z M171.656379,79.838421 C171.667922,80.4553858 171.192759,80.9725982 170.577029,81.0132884 C170.430931,81.0278441 170.283747,81.0278441 170.137648,81.0132884 L169.182471,81.0132884 L169.182471,78.6731054 C169.182471,78.5202771 169.182471,78.3292418 169.354403,78.31969 C169.969118,78.1876949 170.610182,78.2615348 171.178791,78.5298289 C171.5822,78.8336146 171.769276,79.3462027 171.656379,79.838421 L171.656379,79.838421 Z" id="Shape"></path>
        <path d="M201.76355,36.2632581 L202.08831,36.1295334 C203.134555,35.8890161 203.835995,34.9045388 203.721662,33.8371092 C203.665816,32.7214523 202.746873,31.8444705 201.629825,31.8407898 C200.378544,31.668858 199.127262,31.8407898 197.885532,31.7452722 C197.302874,31.7452722 197.130943,31.9267557 197.140494,32.4998618 C197.140494,34.6585612 197.140494,36.8268124 197.140494,38.9950636 C197.140494,39.8165156 197.140494,39.7783085 198.009705,39.8165156 C198.621018,39.8165156 198.783398,39.6063767 198.745191,39.061926 C198.706984,38.5174752 198.745191,37.8775068 198.745191,37.294849 C198.687881,36.4925006 198.812054,36.3396723 199.700368,36.5020523 C200.105176,36.5778761 200.455241,36.8299229 200.655545,37.1897796 C201.142685,37.8870586 201.610722,38.5938894 202.078758,39.2816166 C202.241138,39.5204108 202.365311,39.8260674 202.728278,39.7974121 C203.243198,39.8458885 203.762572,39.8104033 204.266113,39.6923426 C203.62954,38.4174186 202.783615,37.2583075 201.76355,36.2632581 Z M201.266858,35.078839 C200.909314,35.1567457 200.543799,35.1920147 200.177956,35.1839084 C198.611467,35.1839084 198.773847,35.4991167 198.745191,33.7320398 C198.745191,33.2448996 198.936227,33.0825196 199.38516,33.1111749 C199.643058,33.1111749 199.900955,33.1111749 200.340337,33.1111749 C200.474061,33.1111749 200.84658,33.1111749 201.199996,33.1780373 C201.662119,33.2087454 202.014627,33.6037238 201.992792,34.0663516 C202.031393,34.2969613 201.976497,34.5334461 201.840254,34.723469 C201.704011,34.913492 201.497656,35.0413832 201.266858,35.078839 L201.266858,35.078839 Z" id="Shape"></path>
      </g>
    </g>
  </g>
</svg>
