<?xml version="1.0" encoding="UTF-8"?>
<svg xmlns="http://www.w3.org/2000/svg" id="Layer_1" data-name="Layer 1" viewBox="0 0 286 286">
  <defs>
    <style>.cls-1{fill:#fff;}.cls-2{fill:#97ca3d;}.cls-3{fill:#97c93d;}.cls-4{fill:#006938;}.cls-5{fill:#006838;}.cls-6{fill:#2a2728;}.cls-7{fill:#006a39;}.cls-8{fill:#006d3a;}.cls-9{fill:#006c3a;}.cls-10{fill:#006939;}.cls-11{fill:#272425;}.cls-12{fill:#282425;}</style>
  </defs>
  <title>arkesha-zymo</title>
  <rect class="cls-1" width="286" height="286"></rect>
  <path class="cls-2" d="M40.93,127.27c-.36.11-.49-.12-.58-.39a30.55,30.55,0,0,1-1.82-7.47,12.56,12.56,0,0,1,.37-3.76,19.68,19.68,0,0,1,3.32-7.28,14.7,14.7,0,0,1,9.39-5.77,39.74,39.74,0,0,1,6.52-.69,69.66,69.66,0,0,0,13.62-2.17,54.44,54.44,0,0,1,5.5-1.2,1.36,1.36,0,0,1,.29,1.08,68.82,68.82,0,0,1-1.77,17.69,29.37,29.37,0,0,1-6.84,12.76,18,18,0,0,1-10.36,6,6.93,6.93,0,0,0-1.7.2,14.9,14.9,0,0,1-9.57-2.11,6.36,6.36,0,0,0-1.82-1c-1-.48-1.57-.11-2.19.77a26.76,26.76,0,0,0-3.59,5.57.51.51,0,0,1-.39.37,33.66,33.66,0,0,1-3.49,0,3,3,0,0,1,.26-1.68,14.93,14.93,0,0,1,1.87-3.8,47.35,47.35,0,0,1,8.1-9.37c2.91-2.61,5.9-5.13,8.84-7.71A23.32,23.32,0,0,1,57,115.8a1.68,1.68,0,0,0,.87-1.84c-.62-.4-1.18-.08-1.72.19a29.73,29.73,0,0,0-6.27,4.78c-2.73,2.4-5.26,5-7.83,7.58A3.09,3.09,0,0,1,40.93,127.27Z"></path>
  <path class="cls-2" d="M176.55,172c-.27,0-.54.05-.8,0a1.86,1.86,0,0,1-1.83-1.72c0-.3,0-.61,0-.92V128.51a3.79,3.79,0,0,1,.08-1.25c.35-1,1-1.4,2.6-1.32a2.06,2.06,0,0,1,1.47,1.86,8.58,8.58,0,0,1,.08,1.6v15.27a2.75,2.75,0,0,0,.1,1.19c.56-.15.82-.82,1.43-.85a17.36,17.36,0,0,1,4.89-2.39,20.16,20.16,0,0,1,6.57-.4,13.74,13.74,0,0,1,6.15,2.79A15.29,15.29,0,0,1,203,156.62c.12,4.33,0,8.67,0,13,0,1.54-.27,1.92-1.5,2.35-2,.11-2.68-.55-2.69-2.49,0-4.26,0-8.51,0-12.77a10.81,10.81,0,0,0-8.57-10.44,18.19,18.19,0,0,0-1.95-.1,13,13,0,0,0-5.17,1.75,10.11,10.11,0,0,0-5,8.9c0,4.18,0,8.35,0,12.53C178.12,170.55,177.84,171.57,176.55,172Z"></path>
  <path class="cls-2" d="M109.23,172a2.23,2.23,0,0,1-2-.47,2.48,2.48,0,0,1-.65-1.77,10.82,10.82,0,0,0-5.56-9.33,9.46,9.46,0,0,0-4.93-1.31l-4.26,0c-1.41.23-1.58,1.17-1.55,2.42.08,2.68.06,5.37,0,8.06,0,1.07-.19,2.11-1.52,2.37-2,.12-2.69-.53-2.69-2.47q0-20.55,0-41.09v-.12a2.11,2.11,0,0,1,2.76-2.39,2,2,0,0,1,1.41,1.77,11,11,0,0,1,.07,1.72V153c0,1.58,0,1.58,1.51,2a20.33,20.33,0,0,0,6.74-.23,10.77,10.77,0,0,0,8-9.5c0-.42,0-.84.07-1.26a1.84,1.84,0,0,1,1.75-1.8,6.47,6.47,0,0,1,2.28,0c-.29.25-.72.41-.24.94a2,2,0,0,1,.37,1.53,15.48,15.48,0,0,1-6.1,11.74c-.7.52-.72.81,0,1.34a15.53,15.53,0,0,1,6.13,11.62A2.22,2.22,0,0,1,109.23,172Z"></path>
  <path class="cls-3" d="M168.5,146.09H155.91a5.83,5.83,0,0,0-2,.24c-2.33.17-3.89,1.26-4.35,3a4.23,4.23,0,0,0,3.28,5.47,3.74,3.74,0,0,0,1.24.15,27.9,27.9,0,0,0,3.88.12c1.71,0,3.43-.08,5.14.09,4.36.4,6.94,5,6.93,8.35,0,3.76-2.75,8.07-6.83,8.44l-10.83.05c-1.66,0-3.31,0-5,0-1.34,0-2.12-.73-2.14-1.88a2,2,0,0,1,2.15-2c4.27,0,8.54,0,12.8,0h1.27a4.37,4.37,0,0,0,4.38-4.5,4.49,4.49,0,0,0-4.4-4.53c-2.65.1-5.31,0-8,0a8.25,8.25,0,0,1-8.18-7.29,8.53,8.53,0,0,1,6.16-9.44,9.27,9.27,0,0,1,2.4-.23l15.45,0a3.83,3.83,0,0,1,.56.09c-.39.26-.54.46-.23,1A1.94,1.94,0,0,1,168.5,146.09Z"></path>
  <path class="cls-3" d="M80.83,146l-3.35.17c-3.79.46-6.56,2.29-7.45,6.19a12.78,12.78,0,0,0-.31,3c0,4.83,0,9.66,0,14.48,0,1-.21,1.92-1.36,2.23a7.26,7.26,0,0,1-.8,0,1.87,1.87,0,0,1-1.89-1.91c0-1.07,0-2.15,0-3.22,0-4.42,0-8.83,0-13.24a11.73,11.73,0,0,1,9-11.28,9.51,9.51,0,0,1,2-.21,53.49,53.49,0,0,1,5.52,0c-.16.27-.75.25-.29.89C82.75,144.24,82.22,145.43,80.83,146Z"></path>
  <path class="cls-4" d="M56.87,136.26c1.17-.35,2.39-.5,3.55-.91a21.27,21.27,0,0,0,10.35-8.06,32.83,32.83,0,0,0,5.55-14.09,97.2,97.2,0,0,0,.93-14.66c1.9-.08,1.89-.08,1.89,1.81a85.43,85.43,0,0,1-.76,12.07,33.17,33.17,0,0,1-5.76,15,20.85,20.85,0,0,1-10.55,8A13.9,13.9,0,0,1,56.87,136.26Z"></path>
  <path class="cls-4" d="M60.63,172a2.38,2.38,0,0,0,1.19-2.3q-.06-6.57,0-13.13a14.81,14.81,0,0,0-11.06-14l-.36-.1.48-.19a14.55,14.55,0,0,1,12.28,10.47,15.39,15.39,0,0,1,.63,4.31c0,4.21,0,8.43,0,12.65a3.24,3.24,0,0,1-.12,1A1.82,1.82,0,0,1,61.89,172C61.47,172,61.05,172,60.63,172Z"></path>
  <path class="cls-4" d="M233.61,172a2.48,2.48,0,0,0,1.19-2.42q-.06-6.39,0-12.77a14.85,14.85,0,0,0-11.18-14.31,1.07,1.07,0,0,1-.19-.11l.42-.16a14.59,14.59,0,0,1,12.29,10.53,16.57,16.57,0,0,1,.61,4.54q0,6.12,0,12.22a4.49,4.49,0,0,1-.09,1,1.79,1.79,0,0,1-1.78,1.5C234.45,172,234,172,233.61,172Z"></path>
  <path class="cls-5" d="M109.23,172a2.67,2.67,0,0,0,1.16-2.79,15.17,15.17,0,0,0-6.72-11.75l-.35-.29c.12-.45.54-.54.83-.76a14.7,14.7,0,0,0,6.08-10.28c0-.3.11-.6.14-.91a2.82,2.82,0,0,0-.92-2.82c.4-.24.8,0,1.14-.19,1.23.34,1.71.87,1.68,2.09a14.84,14.84,0,0,1-6.2,12.12c-.3.23-.7.33-.92.75a15.1,15.1,0,0,1,4.94,5,14.71,14.71,0,0,1,2.18,7.52c0,1.69-.64,2.35-2.35,2.33C109.69,172,109.46,172,109.23,172Z"></path>
  <path class="cls-4" d="M201.52,172a2.45,2.45,0,0,0,1.18-2.32c0-4.29.09-8.59,0-12.88A14.75,14.75,0,0,0,195.29,144a10.88,10.88,0,0,0-4.28-1.59s-.06-.08,0-.08a1.22,1.22,0,0,1,.17-.15,13.33,13.33,0,0,1,9.7,4.83,14.71,14.71,0,0,1,3.75,9.88q0,6.33,0,12.66c0,1.87-.62,2.47-2.49,2.43C201.9,172,201.71,172,201.52,172Z"></path>
  <path class="cls-4" d="M91.79,155c-.06,0-.12.11-.19.12-1.63.23-1.7.17-1.7-1.44,0-8.38,0-16.75,0-25.13a3,3,0,0,0-1.11-2.62c2.11-.32,3,.46,3,2.83C91.75,137.49,91.79,146.23,91.79,155Z"></path>
  <path class="cls-4" d="M68.36,172a2.6,2.6,0,0,0,1.08-2.37c0-5.06,0-10.13,0-15.19A8.65,8.65,0,0,1,71,149.23,7.5,7.5,0,0,1,76.81,146a1.11,1.11,0,0,1,.67.11,7.87,7.87,0,0,0-6.07,7.68c0,5.13,0,10.27,0,15.4a8.85,8.85,0,0,1,0,1,1.87,1.87,0,0,1-2,1.79C69.05,172,68.7,172,68.36,172Z"></path>
  <path class="cls-4" d="M128.68,167.94a2.13,2.13,0,0,1-1.36.1,11,11,0,0,1-8.17-5.54c-.59-1.08-.56-1.09.56-1.54,6.63-2.61,13.25-5.25,19.9-7.83,1.58-.61,2-1.64,1.67-2.82a4.54,4.54,0,0,0-.55-1.13,14,14,0,0,0-9.78-7,2,2,0,0,1-.2-.11A13.13,13.13,0,0,1,141,146.8a15.59,15.59,0,0,1,1.9,2.74,2.28,2.28,0,0,1-1.28,3.58c-5.87,2.26-11.71,4.59-17.55,6.9-.93.37-1.86.73-2.78,1.11-.71.29-.72.31-.41,1a10.31,10.31,0,0,0,5,4.89A11.79,11.79,0,0,0,128.68,167.94Z"></path>
  <path class="cls-5" d="M176.55,172a2.93,2.93,0,0,0,1.23-2.67c-.06-4.17-.05-8.34,0-12.52a10.76,10.76,0,0,1,8.49-10.48,10.09,10.09,0,0,1,2.05-.13,19.59,19.59,0,0,0-2.15.77,10.66,10.66,0,0,0-6.48,9.82c-.14,4.15,0,8.3,0,12.45,0,.35,0,.69,0,1a1.9,1.9,0,0,1-1.81,1.76C177.39,172,177,172,176.55,172Z"></path>
  <path class="cls-6" d="M164.58,179.45q-.93,3.13-1.85,6.26c-.1.33-.24.65-.31,1s-.24.73-.81.74-.78-.26-.93-.76c-.41-1.44-.87-2.86-1.32-4.29-.06-.21-.06-.46-.38-.57-.51,1.65-1,3.28-1.52,4.92-.13.43-.3.71-.86.7a.78.78,0,0,1-.87-.68c-.47-1.66-1-3.3-1.46-5-.23-.77-.45-1.53-.69-2.32a1.2,1.2,0,0,1,.34-.11c1.32,0,1.18-.12,1.53,1.16.39,1.44.8,2.87,1.21,4.37a6.53,6.53,0,0,0,.71-1.86c.29-.87.54-1.76.84-2.63.16-.47.15-1.09.95-1.06s.72.57.87,1c.39,1.2.76,2.4,1.15,3.61.09.29.2.57.37,1,.44-1.59.84-3,1.23-4.44C163.13,179.29,163.12,179.29,164.58,179.45Z"></path>
  <path class="cls-5" d="M179.67,145l-1.76,1.76a2.33,2.33,0,0,1-.15-1.25c0-5.55,0-11.09,0-16.64a3.41,3.41,0,0,0-1.18-2.94c2-.28,3.13.43,3.07,3-.1,4.95,0,9.9,0,14.85C179.63,144.17,179.66,144.59,179.67,145Z"></path>
  <path class="cls-4" d="M163.17,172a10.53,10.53,0,0,0,3.94-2.27,8.61,8.61,0,0,0-3.3-14.25c-.25-.09-.55,0-.74-.27a8.26,8.26,0,0,1,8.45,7.32,8.49,8.49,0,0,1-6.52,9.38A5.63,5.63,0,0,1,163.17,172Z"></path>
  <path class="cls-6" d="M166.86,182.23c0,1.48,0,3,0,4.45,0,.41,0,.75-.58.76s-.73-.17-.72-.73c0-2.22,0-4.45,0-6.67,0-.23-.16-.59.24-.65s.7-.14,1,.18.42.55.63.82l3,4c.09.11.15.27.44.21,0-1.49,0-3,0-4.53,0-.6.22-.69.74-.67s.53.15.53.54c0,1.23,0,2.45,0,3.68s0,2.15,0,3.22c0,.58-.37.8-.9.58-.33-.14-.5-.46-.71-.73l-3.38-4.48Z"></path>
  <path class="cls-4" d="M40.93,127.27c2.09-2,4-4.18,6.11-6.09a90.4,90.4,0,0,1,6.93-6,14,14,0,0,1,2.47-1.46,2,2,0,0,1,1.11-.23c.31,0,.34.25.33.5a24.88,24.88,0,0,0-5.24,3.88A105.39,105.39,0,0,0,44,126.22,3,3,0,0,1,40.93,127.27Z"></path>
  <path class="cls-6" d="M197.45,182.17c0,.81.05,1.62,0,2.42a3,3,0,0,1-3.11,2.88,2.9,2.9,0,0,1-3.19-2.78c-.12-1.61,0-3.22-.07-4.84,0-.55.33-.5.68-.49s.79-.12.78.52c0,1.27,0,2.53,0,3.8a7,7,0,0,0,0,1,1.65,1.65,0,0,0,1.66,1.46A1.63,1.63,0,0,0,196,184.7a18.07,18.07,0,0,0,0-1.95c0-1,0-1.92,0-2.88,0-.64.43-.49.79-.51s.69,0,.66.51c0,.77,0,1.54,0,2.3Z"></path>
  <path class="cls-4" d="M88.73,172a2.51,2.51,0,0,0,1.18-2.43c0-3.1,0-6.2,0-9.3,0-1.16,0-1.16,1.21-1.15.23,0,.45,0,.68,0V169.7a2.51,2.51,0,0,1-.18,1.24A1.75,1.75,0,0,1,90,172C89.57,172,89.15,172,88.73,172Z"></path>
  <path class="cls-6" d="M235.1,180.54c-.09.12-.13.15-.13.18,0,.65-.27,1.43.11,1.9s1.16.12,1.76.16c.45,0,.86,0,.79.63,0,.38-.17.55-.56.54s-1,0-1.5,0-.64.19-.63.66c0,2-.2,1.56,1.55,1.61h1.27c.42,0,.65.1.63.58s-.1.64-.58.64c-1.27,0-2.53,0-3.8,0-.38,0-.56-.14-.56-.53q0-3.51,0-7c0-.42.21-.51.57-.51,1.27,0,2.53,0,3.8,0,.48,0,.56.21.57.63s-.22.57-.63.56C236.85,180.52,235.94,180.54,235.1,180.54Z"></path>
  <path class="cls-4" d="M130.9,172c.62-.18,1.25-.35,1.86-.55a14.15,14.15,0,0,0,8.09-6.79c.62-1.11.37-1.91-.82-3,.38,0,.76,0,1.14,0a1.89,1.89,0,0,1,1.81,2.47,2.89,2.89,0,0,1-.26.63A13.89,13.89,0,0,1,132.28,172,12.67,12.67,0,0,1,130.9,172Z"></path>
  <path class="cls-6" d="M175.15,179.46a1.52,1.52,0,0,1,2.11,1c.37.88.87,1.7,1.35,2.62l1.43-2.69c.59-1.12.59-1.12,2-.92-.67,1.19-1.29,2.37-2,3.5a4,4,0,0,0-.72,2.7,7.08,7.08,0,0,1,0,.92c0,.77-.44,1-1.18.82a.34.34,0,0,1-.27-.32,4.28,4.28,0,0,1,0-.8,5.55,5.55,0,0,0-1-3.89C176.23,181.49,175.74,180.5,175.15,179.46Z"></path>
  <path class="cls-4" d="M154.05,155a3.53,3.53,0,0,1-3.71-1.14,4.58,4.58,0,0,1,1.45-7.43,2.36,2.36,0,0,1,2.09-.08,4.34,4.34,0,0,0-2.9,4.26A4.41,4.41,0,0,0,154.05,155Z"></path>
  <path class="cls-7" d="M39.31,139.9a15.33,15.33,0,0,1,2.57-4.56c.61-.78,1.22-1.57,1.81-2.36s.49-.68,1.16-.28a5.91,5.91,0,0,1,.63.49l-1.95,2.54A13,13,0,0,0,41.62,139c-.29.75-.7,1.12-1.51,1A7,7,0,0,0,39.31,139.9Z"></path>
  <path class="cls-6" d="M223.61,183.36c0,1.15,0,2.3,0,3.45,0,.66-.38.61-.82.63s-.7-.12-.7-.64c0-2.3,0-4.61,0-6.91,0-.62.39-.53.77-.54s.77,0,.75.56C223.6,181.06,223.61,182.21,223.61,183.36Z"></path>
  <path class="cls-8" d="M49.49,172c.76-.22,1.54-.43,2.29-.68a13.93,13.93,0,0,0,5.35-3.23c.24-.23.42-.56.88-.59a6,6,0,0,1,0,1.58,17.56,17.56,0,0,1-5.36,2.57A9.24,9.24,0,0,1,49.49,172Z"></path>
  <path class="cls-9" d="M222.48,172c.69-.2,1.39-.4,2.07-.62A14.19,14.19,0,0,0,230.2,168c.2-.2.35-.51.8-.49a5,5,0,0,1,0,1.54,17.32,17.32,0,0,1-5.35,2.58A9.49,9.49,0,0,1,222.48,172Z"></path>
  <path class="cls-10" d="M168.5,146.09c.16-.15.34-.3.49-.46a2,2,0,0,0,.14-2.85c-.11-.14-.32-.19-.54-.32.53-.33.93-.13,1.28-.27,1.24.34,1.8,1.05,1.68,2.17a2,2,0,0,1-2.14,1.76C169.11,146.13,168.8,146.1,168.5,146.09Z"></path>
  <path class="cls-7" d="M80.83,146a7.37,7.37,0,0,0,.61-.5,1.82,1.82,0,0,0,.17-2.49,7.2,7.2,0,0,0-.52-.6c.38-.23.78,0,1.13-.17,1.24.37,1.78,1,1.69,2.08a1.88,1.88,0,0,1-1.6,1.71A4.33,4.33,0,0,1,80.83,146Z"></path>
  <path class="cls-2" d="M140,161.64a2.14,2.14,0,0,0-2.63,1.26,9,9,0,0,1-2.15,2.65,8.73,8.73,0,0,1-6.57,2.39,11.37,11.37,0,0,1-8.44-4.31c-1.41-1.76-1.3-2,.78-2.86,6.22-2.44,12.44-4.87,18.64-7.37,1.9-.77,2.51-2.26,1.54-4-2.31-4.1-5.6-6.85-10.45-7.37a17.23,17.23,0,0,0-4.7.2,14.22,14.22,0,0,0-10.66,8.26,15.55,15.55,0,0,0-1.29,7.4,14.11,14.11,0,0,0,6.65,11.84A15.62,15.62,0,0,0,130.9,172c4.64-.53,7.82-3.17,10.11-7A2.11,2.11,0,0,0,140,161.64ZM119.84,154c1-3.9,4.27-7.68,8.65-7.89a9.27,9.27,0,0,1,8,3.78,1.27,1.27,0,0,1-.73.45l-15.07,6c-.29.12-.67.56-.94-.06A3,3,0,0,1,119.84,154Z"></path>
  <path class="cls-4" d="M128.49,146.14c-.52.16-1,.29-1.54.47a10.41,10.41,0,0,0-7.08,9.09c0,.19-.05.38-.07.57-.26.93-1.14.85-1.86,1.23a8.2,8.2,0,0,1,.38-3.82,10.49,10.49,0,0,1,9.85-7.65A1.52,1.52,0,0,1,128.49,146.14Z"></path>
  <path class="cls-2" d="M235.06,156.51a14.68,14.68,0,0,0-8-13.06c-1-.57-2.17-.74-3.21-1.25a14.48,14.48,0,0,0-3.66-.14,13.28,13.28,0,0,0-5.57,1.25,15.17,15.17,0,0,0-8.5,15.69,14.79,14.79,0,0,0,8.82,11.94,15,15,0,0,0,7.55,1,13.18,13.18,0,0,0,8.09-3.92c.34.31.15.74.44,1l0,.91c.05,1.54.8,2.14,2.57,2,1.21-.44,1.47-.81,1.47-2.36C235.1,165.24,235.2,160.87,235.06,156.51Zm-10.67,10.75a7.09,7.09,0,0,1-3.9.68c-2.91-.05-5-1.61-6.67-3.78a11.59,11.59,0,0,1,.84-15.21,8.46,8.46,0,0,1,5.85-2.81,9.78,9.78,0,0,1,8.72,4.85A11.16,11.16,0,0,1,224.39,167.26Z"></path>
  <path class="cls-4" d="M220.51,146.14a11.08,11.08,0,0,0-8.28,14.3,10.41,10.41,0,0,0,8.26,7.5,4,4,0,0,1-2.26-.07,11.16,11.16,0,0,1-1.94-21A7.87,7.87,0,0,1,220.51,146.14Z"></path>
  <path class="cls-2" d="M62.11,156.72a13.32,13.32,0,0,0-1-5.16,14.76,14.76,0,0,0-8.89-8.89c-.47-.17-1.05,0-1.41-.47a13.64,13.64,0,0,0-3.55-.14,13.32,13.32,0,0,0-5.68,1.25,15.21,15.21,0,0,0-8.52,15.46A15,15,0,0,0,40.21,170,14.48,14.48,0,0,0,49.49,172a13,13,0,0,0,8.12-4c.26.38.14.79.42,1,0,.19,0,.37,0,.56,0,1.86.71,2.47,2.58,2.35,1.2-.45,1.45-.83,1.46-2.38C62.11,165.3,62.07,161,62.11,156.72Zm-12,11a6,6,0,0,1-2.6.22,8.53,8.53,0,0,1-6.67-3.78,11.65,11.65,0,0,1,.69-15,8.61,8.61,0,0,1,6-3,9.39,9.39,0,0,1,7.55,3.29C60.73,155.61,57.89,165.57,50.1,167.72Z"></path>
  <path class="cls-4" d="M47.52,146.14c-.66.21-1.33.37-2,.63a11.12,11.12,0,0,0-6.8,11.2,10.92,10.92,0,0,0,8.75,10,3.61,3.61,0,0,1-2.25-.08,10.42,10.42,0,0,1-8.15-8.42,10.78,10.78,0,0,1,3.17-10.5A10.2,10.2,0,0,1,47.2,146,1,1,0,0,1,47.52,146.14Z"></path>
  <path class="cls-11" d="M252.76,133.74a9.84,9.84,0,0,0-15.83-5.8,10.43,10.43,0,0,0,.27,16.25,9.26,9.26,0,0,0,7.25,1.9,10.12,10.12,0,0,0,8.54-10.2A8.34,8.34,0,0,0,252.76,133.74ZM251.33,136a8.38,8.38,0,0,1-8.5,8.53,7.91,7.91,0,0,1-6.14-3.14,8.77,8.77,0,0,1,.21-11.13,7.73,7.73,0,0,1,8.08-2.65,8.14,8.14,0,0,1,6.14,6.34,7.23,7.23,0,0,1,.2,1.13A7,7,0,0,1,251.33,136Z"></path>
  <path class="cls-6" d="M228.18,179.35c-.65,0-1.31,0-2,0-.89,0-.9,0-.9.84,0,1,0,2.07,0,3.11s0,2.3,0,3.45c0,.48.14.69.65.67.85,0,1.69,0,2.53,0a3.75,3.75,0,0,0,3.69-3.44C232.49,181,230.46,179.23,228.18,179.35Zm2.51,4.38a2.35,2.35,0,0,1-2,2.43.93.93,0,0,1-.23,0c-1.67.21-1.72.16-1.72-1.53v-1.38c0-.72,0-1.45,0-2.18,0-.47.19-.6.61-.58s.69,0,1,0a3,3,0,0,1,.78.16C230.28,181.11,230.81,182.17,230.69,183.73Z"></path>
  <path class="cls-6" d="M149.3,179.25a3.91,3.91,0,0,0-4,4.16,3.87,3.87,0,0,0,3.92,4.06,4.12,4.12,0,0,0,.05-8.22Zm-.84,6.82c-1.15-.37-1.72-1.48-1.61-3.1a2.45,2.45,0,0,1,1.94-2.41c1.68-.31,2.93.87,2.93,2.81S150.27,186.65,148.46,186.07Z"></path>
  <path class="cls-6" d="M186,179.25a3.9,3.9,0,0,0-4,4.15,3.85,3.85,0,0,0,3.91,4.07,4.12,4.12,0,0,0,.05-8.22Zm2.41,4.54a2.43,2.43,0,0,1-2.54,2.42c-1.46-.07-2.33-1.14-2.33-2.86s1.09-3,2.71-2.81C187.71,180.68,188.55,182,188.4,183.79Z"></path>
  <path class="cls-6" d="M219.12,184c0-.24.21-.25.33-.33a2.33,2.33,0,0,0,1.06-2.69,2.17,2.17,0,0,0-2.14-1.62c-.88-.07-1.76,0-2.65,0-.32,0-.49.12-.49.47,0,2.34,0,4.68,0,7,0,.59.35.56.76.56s.76,0,.73-.59,0-1.38,0-2.07c0-.47.32-.65.76-.49a1,1,0,0,1,.48.46l1,1.66c.72,1.13.72,1.13,2.21.89Zm-2.27-.94a.31.31,0,0,1-.07-.09,8.55,8.55,0,0,1,0-2.37c.25-.25.58-.06.85-.12,1.2,0,1.72.63,1.48,1.64C218.94,182.91,217.42,183.54,216.85,183.1Z"></path>
  <path class="cls-6" d="M202.94,184l.29-.21a2.33,2.33,0,0,0,1.14-2.75,2.28,2.28,0,0,0-2.37-1.63c-.76,0-1.53,0-2.3,0-.35,0-.6.05-.59.49q0,3.53,0,7c0,.6.37.54.77.56s.73-.06.71-.61c0-.84,0-1.68,0-2.48a1,1,0,0,1,1.33.49c.3.54.65,1,1,1.56.72,1.15.72,1.15,2.19.87Zm-1.05-.86a3.41,3.41,0,0,1-.46,0c-.82,0-.83,0-.85-.78v-.57s0-.09,0-.12c.17-.4-.46-1.15.55-1.18,1.17,0,1.76.27,1.89,1A1.29,1.29,0,0,1,201.89,183.11Z"></path>
  <path class="cls-6" d="M211.72,179.39c-.8-.06-1.61,0-2.41,0-.61,0-.7.22-.69.73,0,1.07,0,2.15,0,3.22s0,2.3,0,3.45c0,.46.1.71.64.68s.88,0,.8-.63a2.36,2.36,0,0,1,0-.46,3.72,3.72,0,0,1,.09-1.58c.28-.48,1-.1,1.5-.24a1.66,1.66,0,0,1,.22,0,2.48,2.48,0,0,0,2.27-2.69A2.4,2.4,0,0,0,211.72,179.39Zm.95,2.71a1.21,1.21,0,0,1-1.13,1.23,2.32,2.32,0,0,1-.46,0h-1v-2.45c0-.16,0-.36.18-.37a3,3,0,0,1,1.91.22A1.34,1.34,0,0,1,212.67,182.1Z"></path>
  <path class="cls-12" d="M244.19,136.48l.34-.14a2.22,2.22,0,0,0,1.71-2.4,2.2,2.2,0,0,0-2.19-2.09c-1.31-.18-2.62,0-3.92-.1-.61,0-.79.19-.78.79,0,2.26,0,4.53,0,6.8,0,.86,0,.82.91.86.64,0,.81-.22.77-.79s0-1.24,0-1.85c-.06-.84.07-1,1-.83a1.45,1.45,0,0,1,1,.72c.51.73,1,1.47,1.49,2.19.17.25.3.57.68.54a5,5,0,0,0,1.61-.11A13.34,13.34,0,0,0,244.19,136.48Zm-.52-1.24a4.85,4.85,0,0,1-1.14.11c-1.64,0-1.47.33-1.5-1.52,0-.51.2-.68.67-.65.27,0,.54,0,1,0,.14,0,.53,0,.9.07a.89.89,0,0,1,.83.93A.92.92,0,0,1,243.67,135.24Z"></path>
</svg>
