<?xml version="1.0" encoding="UTF-8"?>
<svg xmlns="http://www.w3.org/2000/svg" xmlns:xlink="http://www.w3.org/1999/xlink" width="100px" height="100px" viewBox="0 0 100 100" version="1.1">
  <title>Artboard Copy 2</title>
  <g id="Artboard-Copy-2" stroke="none" stroke-width="1" fill="none" fill-rule="evenodd">
    <g id="arkesha" transform="translate(13.000000, 35.000000)" fill="#FFFFFF" fill-rule="nonzero">
      <path d="M2.70003529,9.79898613 C2.57650012,9.83428189 2.53238042,9.75486643 2.50149662,9.66221505 C2.18830119,8.84332967 1.98073737,7.98787021 1.88382078,7.11650816 C1.86097378,6.68478609 1.90260971,6.25206985 2.00735595,5.83262479 C2.21082133,4.93694925 2.5968197,4.09285941 3.14123232,3.35309746 C3.91069172,2.30663409 5.0584828,1.60212784 6.33991082,1.38977066 C7.06712994,1.24779231 7.8051321,1.16808808 8.54589599,1.15152426 C10.1283841,1.05984361 11.6978913,0.811559977 13.2314085,0.410313242 C13.8534963,0.264718221 14.4667602,0.0838274365 15.1020839,0 C15.1845216,0.104786475 15.221117,0.238439312 15.2035592,0.370605509 C15.2630546,2.39864874 15.059888,4.42586632 14.5991193,6.40176897 C14.188768,8.02335022 13.3805247,9.51700802 12.2475391,10.7475598 C11.336204,11.8084262 10.0918216,12.5286125 8.71796284,12.790302 C8.52328394,12.7878431 8.32907895,12.8100804 8.13999472,12.8564816 C7.00173347,12.9921295 5.85106133,12.7386707 4.87513667,12.1373304 C4.68757778,11.9943427 4.47727303,11.88397 4.25304885,11.8108446 C3.9177391,11.6476017 3.71920044,11.7755488 3.50742586,12.0711509 C3.02332091,12.6522725 2.61284186,13.2909602 2.28531008,13.9727101 C2.26699365,14.0358085 2.21663382,14.0844896 2.15295097,14.1006572 C1.75612342,14.1205752 1.35854653,14.1205752 0.961718974,14.1006572 C0.933973412,13.9063894 0.964691228,13.7082595 1.04995838,13.531513 C1.20016842,13.0708092 1.41560187,12.6339993 1.68969408,12.2343938 C2.4639021,11.0526448 3.39111359,9.97856304 4.44717555,9.04012723 C5.43986887,8.15773316 6.45903402,7.2753391 7.46496326,6.39294503 C7.69376069,6.21360895 7.93237726,6.04716653 8.17970246,5.89439238 C8.4091732,5.77674725 8.53191963,5.52042383 8.47971644,5.26789259 C8.26352989,5.13112151 8.07822714,5.24142077 7.89292438,5.33407214 C7.11042719,5.77916593 6.39081033,6.32666824 5.75311877,6.9620892 C4.82219302,7.77389174 3.96627078,8.66069778 3.08387671,9.53867988 C2.97636189,9.6523062 2.84537542,9.74113611 2.70003529,9.79898613 Z" id="Path"></path>
      <path d="M48.9330725,25.0423437 C48.8448331,25.0423437 48.7521817,25.0423437 48.6595303,25.0423437 C48.3325887,25.038738 48.0625735,24.7859578 48.0374425,24.4599636 C48.0374425,24.3540763 48.0374425,24.248189 48.0374425,24.1423017 C48.0374425,19.5009089 48.0374425,14.8580455 48.0374425,10.2137113 C48.0203325,10.066231 48.0292929,9.91689073 48.0639144,9.77251431 C48.1830376,9.41955668 48.416872,9.29602151 48.9463084,9.33131727 C49.2299513,9.41660653 49.4294642,9.67085312 49.4448611,9.966641 C49.4712736,10.1462442 49.4801393,10.3279921 49.4713329,10.5093134 C49.4713329,12.2476297 49.4713329,13.9830047 49.4713329,15.7154384 C49.4536055,15.851423 49.4641191,15.9896026 49.5022167,16.1213396 C49.6919314,16.068396 49.7801708,15.8389735 49.9875334,15.8301496 C50.4992875,15.4742098 51.0634541,15.2003135 51.6596702,15.018347 C52.3926062,14.8494188 53.1484821,14.8032015 53.8965391,14.881576 C54.6646783,15.0161686 55.3858974,15.3441334 55.9922251,15.8345616 C57.2018939,16.8015657 57.9182522,18.2569212 57.9467279,19.8053349 C57.9864357,21.2833449 57.9467279,22.761355 57.9467279,24.2173052 C57.9467279,24.7423297 57.8540765,24.8746888 57.4349394,25.0202838 C56.7687318,25.0599915 56.5216615,24.8349811 56.5172495,24.1731855 C56.5172495,22.7216473 56.5172495,21.270109 56.5172495,19.8185708 C56.4968188,18.0945001 55.2833304,16.6152174 53.5965252,16.2581107 C53.3759266,16.213991 53.1553281,16.2581107 52.9347296,16.2272269 C52.3101814,16.2951965 51.7079469,16.4984506 51.1699415,16.8228429 C50.0967939,17.4538806 49.4461824,18.6135198 49.4669209,19.8582785 C49.4669209,21.278933 49.4669209,22.7039994 49.4669209,24.1290658 C49.4713329,24.552615 49.3742695,24.9011606 48.9330725,25.0423437 Z" id="Path"></path>
      <path d="M25.9820028,25.0379317 C25.7390556,25.1030541 25.4796261,25.043567 25.2893234,24.8791008 C25.1378869,24.7152474 25.0584316,24.4975397 25.0687249,24.2746608 C25.0522467,22.9509135 24.3284332,21.7372635 23.1715777,21.0936302 C22.6616643,20.7967777 22.0805885,20.6442644 21.490617,20.6524332 L20.0390787,20.6524332 C19.558174,20.7362606 19.4964064,21.0539225 19.5096423,21.4774716 C19.5361141,22.3951615 19.5317021,23.3128513 19.5096423,24.2261292 C19.5096423,24.5923227 19.4434627,24.9452803 18.9890298,25.0335197 C18.3184103,25.0732275 18.07134,24.8526289 18.07134,24.1908334 L18.07134,10.1475318 C18.0248558,9.89511427 18.1155697,9.63696169 18.3097358,9.46910784 C18.5039019,9.30125398 18.7724585,9.24882218 19.0155016,9.33131727 C19.2858754,9.41322527 19.4773549,9.65389207 19.4964064,9.93575721 C19.5118235,10.1310508 19.5118235,10.3272557 19.4964064,10.5225493 L19.4964064,18.5611592 C19.4964064,19.0994196 19.4964064,19.0994196 20.0126069,19.2450146 C20.7765288,19.3445374 21.5516199,19.3177073 22.3068315,19.1655992 C23.8065765,18.769719 24.894918,17.4728965 25.0246052,15.9272129 C25.0246052,15.7860299 25.0246052,15.6404349 25.0246052,15.4860159 C25.0332902,15.1553034 25.2943113,14.8866053 25.6246332,14.8683401 C25.8815886,14.8242189 26.1441846,14.8242189 26.40114,14.8683401 C26.2996647,14.9565795 26.1540696,15.0095231 26.3173125,15.1904139 C26.4285723,15.3395261 26.4747272,15.5273287 26.4452597,15.7110264 C26.3825374,17.2887012 25.6189331,18.756051 24.3628097,19.7126835 C24.1245633,19.8935743 24.1157393,19.9906376 24.3628097,20.1538805 C25.6101051,21.104836 26.373839,22.5580296 26.4496716,24.1246538 C26.5566547,24.5045427 26.3527728,24.9026893 25.9820028,25.0379317 L25.9820028,25.0379317 Z" id="Path"></path>
      <path d="M46.188827,16.213991 L41.9092157,16.213991 C41.6754777,16.2005725 41.4411725,16.2274356 41.2165364,16.2934065 C40.4223817,16.3551741 39.8929453,16.7346035 39.7341143,17.3302195 C39.60511,17.7260618 39.6539582,18.1583828 39.8680354,18.5154601 C40.0821126,18.8725374 40.4404129,19.1193338 40.8503428,19.192071 C40.9930993,19.2357711 41.1424973,19.2536989 41.2915399,19.2450146 C41.7312582,19.2892985 42.1735488,19.3025672 42.615131,19.2847224 C43.201923,19.2847224 43.7887151,19.2582505 44.3799191,19.3156062 C45.8667531,19.4523772 46.7447352,21.0230387 46.7447352,22.161327 C46.7447352,23.4407984 45.8049855,24.9143965 44.4152149,25.0423437 L40.7223957,25.0423437 C40.1576635,25.0423437 39.5929313,25.0423437 39.0281991,25.0423437 C38.5870021,25.0423437 38.304636,24.7952733 38.300224,24.402608 C38.2915576,24.2092777 38.3673863,24.0217336 38.507987,23.8887558 C38.6485878,23.755778 38.8400634,23.6905102 39.0326111,23.7099286 C40.4885613,23.7099286 41.9445115,23.7099286 43.3960497,23.7099286 L43.8372468,23.7099286 C44.2412789,23.7113009 44.6285757,23.5486715 44.9105043,23.2592581 C45.1924329,22.9698447 45.3448607,22.5784205 45.3329047,22.1745629 C45.3379408,21.3367713 44.6704205,20.6496181 43.8328348,20.6303733 C42.9504407,20.6612571 42.023927,20.6303733 41.119473,20.6303733 C39.6940378,20.6265881 38.496436,19.5578422 38.3311078,18.142022 C38.1216621,16.6944801 39.0184977,15.3161854 40.4267937,14.9212837 C40.696325,14.8633769 40.9718573,14.8381938 41.2474202,14.8462802 C43.0122083,14.8462802 44.7769964,14.8462802 46.5153128,14.8462802 C46.5790802,14.8507718 46.6424662,14.8596164 46.7050275,14.872752 C46.5726684,14.9609914 46.5241367,15.031583 46.630024,15.2080618 C46.7458492,15.3945442 46.7623724,15.6261163 46.6741977,15.8271546 C46.586023,16.0281929 46.4044698,16.1728893 46.188827,16.213991 L46.188827,16.213991 Z" id="Path"></path>
      <path d="M16.3197877,16.1654593 L15.1770874,16.222815 C13.8843801,16.3816459 12.9402185,17.0037337 12.6357925,18.3317368 C12.5630649,18.6635365 12.5275498,19.0024093 12.5299052,19.342078 C12.5299052,20.9877429 12.5299052,22.6334079 12.5299052,24.2790728 C12.5299052,24.6364424 12.4549017,24.9320444 12.0622364,25.0423437 C11.9739969,25.0423437 11.8813456,25.0423437 11.7886942,25.0423437 C11.436996,25.052254 11.1433034,24.7763011 11.1313106,24.4246678 C11.1313106,24.0584743 11.1313106,23.6922807 11.1313106,23.3260872 C11.1313106,21.8216053 11.1313106,20.3171234 11.1313106,18.8126415 C11.1539229,16.981584 12.4139457,15.3983852 14.193218,14.9654034 C14.424019,14.9179183 14.6590868,14.8942637 14.8947213,14.8948119 C15.5207843,14.8617253 16.1481577,14.8617253 16.7742207,14.8948119 C16.721277,14.9874633 16.5227384,14.9786393 16.6771573,15.1992378 C16.9595234,15.6007271 16.7609848,15.9889805 16.3197877,16.1654593 Z" id="Path"></path>
      <path d="M8.13558275,12.8608935 C8.53266008,12.7417703 8.94738529,12.6888267 9.34446263,12.5520556 C10.7813536,12.030873 12.0167282,11.0688251 12.8740389,9.8033981 C13.8664809,8.37385155 14.5143223,6.73386139 14.7667742,5.01199831 C14.999034,3.35622329 15.1037587,1.68505295 15.0800241,0.013235911 C15.7285837,-0.013235911 15.7285837,-0.013235911 15.7241717,0.635323729 C15.7359477,2.0102953 15.6504362,3.38437742 15.4682775,4.74728009 C15.2419903,6.58879597 14.5662275,8.34638524 13.5005387,9.86516569 C12.6315525,11.1421282 11.371152,12.1021384 9.90919483,12.6005873 C9.34025352,12.8006946 8.73802996,12.8890807 8.13558275,12.8608935 L8.13558275,12.8608935 Z" id="Path"></path>
      <path d="M9.41505415,25.0379317 C9.69352176,24.8792362 9.85254912,24.5715529 9.82095542,24.252601 C9.82095542,22.756943 9.82095542,21.2656971 9.82095542,19.7744511 C9.77750389,17.5116466 8.23436177,15.5538752 6.04430881,14.9830513 L5.92077364,14.9521675 L6.08401654,14.8859879 C8.07171945,15.1226113 9.72274525,16.5300717 10.2709764,18.4552719 C10.4109078,18.9325867 10.4836692,19.4270669 10.4871629,19.9244581 C10.4871629,21.3627604 10.4871629,22.7995921 10.4871629,24.2349531 C10.4926541,24.3528094 10.4777277,24.4707279 10.4430432,24.5834987 C10.3741522,24.8586763 10.126685,25.0515552 9.84301527,25.0511676 C9.70183222,25.0599915 9.56064917,25.0423437 9.41505415,25.0379317 Z" id="Path"></path>
      <path d="M68.3810378,25.0379317 C68.6693684,24.8686679 68.8303608,24.544952 68.791351,24.2128932 C68.791351,22.7628257 68.791351,21.3098168 68.791351,19.8538665 C68.7682316,17.5589052 67.2035617,15.5668486 64.9794086,15.0006992 C64.9560982,14.9914459 64.9338995,14.9796066 64.9132291,14.9654034 L65.0588241,14.9080478 C67.0519415,15.1491587 68.7040215,16.566222 69.245784,18.4993916 C69.3896703,19.002798 69.4595233,19.5244662 69.4531466,20.0479932 C69.4531466,21.4377639 69.4531466,22.8231226 69.4531466,24.2128932 C69.4540026,24.3297947 69.4436608,24.4465094 69.4222628,24.5614389 C69.3707656,24.8573924 69.1138113,25.073383 68.8134109,25.0732275 C68.6766398,25.0599915 68.5310448,25.0423437 68.3810378,25.0379317 Z" id="Path"></path>
      <path d="M25.9820028,25.0379317 C26.3039655,24.839507 26.4636783,24.457971 26.3790801,24.0893581 C26.2869782,22.4685944 25.4390722,20.9851675 24.0892675,20.083289 L23.9701443,19.9862257 C24.009852,19.8318067 24.1554471,19.7965109 24.2525104,19.7259194 C25.4075615,18.9016135 26.1606665,17.6277443 26.3261365,16.218403 C26.3261365,16.1169277 26.3614322,16.0154523 26.3746681,15.9095651 C26.4598509,15.5546585 26.3368095,15.1821162 26.0570063,14.9477555 C26.1937774,14.8683401 26.3305484,14.9477555 26.4496716,14.881576 C26.8908687,14.9962872 27.0320517,15.1815899 27.0232278,15.5963152 C27.0258192,17.2353327 26.237175,18.774832 24.905482,19.7303314 C24.8040067,19.8053349 24.6672356,19.8406306 24.5922321,19.9862257 C26.0710804,20.9086269 26.9851646,22.5144954 27.0232278,24.2570129 C27.0232278,24.8349811 26.8026293,25.0599915 26.2158372,25.0556431 C26.1408337,25.0556431 26.0614183,25.0423437 25.9820028,25.0379317 Z" id="Path"></path>
      <path d="M57.4481753,25.0379317 C57.7224441,24.8731007 57.8796922,24.5671506 57.8540765,24.248189 C57.8540765,22.7878268 57.8805484,21.3230527 57.8540765,19.8582785 C57.850513,18.0660882 56.8943903,16.4109372 55.3436654,15.5124877 C54.8999338,15.2327987 54.402408,15.0494206 53.8833032,14.9742273 C53.8833032,14.9742273 53.8833032,14.9477555 53.8833032,14.9433436 C53.9003445,14.9248601 53.9196097,14.9085587 53.9406589,14.8948119 C55.2268314,14.9504021 56.429216,15.5483881 57.2496366,16.5404768 C58.0786143,17.4666612 58.5331465,18.668262 58.524696,19.9112222 C58.524696,21.3495245 58.524696,22.7834148 58.524696,24.2217172 C58.524696,24.8614529 58.3129215,25.0644035 57.6731858,25.0555796 C57.5761224,25.0555796 57.5143548,25.0423437 57.4481753,25.0379317 Z" id="Path"></path>
      <path d="M20.0390787,19.2450146 C20.0190771,19.2614125 19.9967804,19.2747905 19.9728992,19.2847224 C19.4169909,19.3641378 19.3905191,19.342078 19.3905191,18.7949937 C19.3905191,15.9404488 19.3905191,13.0814921 19.3905191,10.2269473 C19.4161287,9.88843583 19.2743981,9.55882982 19.0110896,9.34455319 C19.7302408,9.2386659 20.0434907,9.50338412 20.0390787,10.3107747 C20.0258428,13.2800307 20.0390787,16.2625227 20.0390787,19.2450146 Z" id="Path"></path>
      <path d="M12.0490004,25.0423437 C12.3103498,24.8587557 12.4520926,24.5482716 12.419606,24.2305411 C12.419606,22.5054607 12.419606,20.7803803 12.419606,19.0552999 C12.402581,18.426185 12.5864869,17.808014 12.9446304,17.2905118 C13.3999521,16.6343111 14.1364138,16.2293389 14.934429,16.1963431 C15.0127115,16.1835494 15.0930346,16.1959068 15.1638515,16.2316389 C13.948207,16.5171103 13.0903216,17.6036432 13.0946374,18.8523493 C13.0946374,20.6171374 13.0946374,22.3510418 13.0946374,24.098182 C13.1012804,24.2157408 13.1012804,24.3335809 13.0946374,24.4511396 C13.0878495,24.6232778 13.0119236,24.7854032 12.8840402,24.9008304 C12.7561568,25.0162576 12.5871253,25.07523 12.415194,25.0644035 L12.0490004,25.0423437 Z" id="Path"></path>
      <path d="M32.6131942,23.6613969 C32.4668536,23.7237664 32.3040378,23.7361714 32.1499373,23.6966927 C30.9743181,23.5461726 29.9405696,22.8449929 29.365984,21.8083694 C29.1674454,21.4377639 29.1718573,21.4333519 29.5556988,21.2833449 C31.8190396,20.4009509 34.0735564,19.492085 36.3413092,18.6361627 C36.5490992,18.5921357 36.7289268,18.4630392 36.8370954,18.2802425 C36.9452641,18.0974459 36.9718719,17.8776826 36.9104533,17.6743532 C36.8661703,17.5365035 36.802277,17.4057451 36.7207386,17.2860998 C36.0247641,16.0309827 34.8019342,15.1547563 33.389701,14.8992238 C33.3655564,14.8918725 33.3430771,14.8798836 33.3235214,14.8639281 C34.6662566,14.852019 35.9430517,15.4450482 36.8001541,16.4787092 C37.0493234,16.766277 37.2667661,17.0798679 37.4487137,17.4140469 C37.6040515,17.6232678 37.6440901,17.8964553 37.5553231,18.1414524 C37.466556,18.3864495 37.2608195,18.5705881 37.0075167,18.6317508 C35.0088941,19.3994336 33.0367434,20.1980002 31.0248849,20.983331 L30.0763113,21.3627604 C29.8336529,21.4642357 29.8336529,21.4686477 29.9395402,21.6936582 C30.2977565,22.4309713 30.9014362,23.020612 31.6469727,23.361383 C31.9547262,23.5027277 32.2795073,23.603573 32.6131942,23.6613969 Z" id="Path"></path>
      <path d="M48.9330725,25.0423437 C49.2340813,24.8397634 49.4026715,24.4907817 49.3742695,24.1290658 C49.3742695,22.7084114 49.3742695,21.2833449 49.3742695,19.8626905 C49.3808397,18.1398663 50.584671,16.6534282 52.2685221,16.2889945 C52.5002129,16.2501664 52.7352955,16.2353813 52.9700254,16.2448748 C52.7197289,16.3177279 52.4737389,16.4046345 52.2332263,16.5051811 C50.8946715,17.0801475 50.027147,18.3970496 50.0272412,19.8538665 C49.9831215,21.270109 50.0272412,22.6819395 50.0272412,24.098182 C50.0272412,24.2173052 50.0272412,24.3364284 50.0272412,24.4511396 C50.0049395,24.7796069 49.7385409,25.0383941 49.4095653,25.0511676 C49.2242626,25.0599915 49.0786675,25.0467556 48.9330725,25.0423437 Z" id="Path"></path>
      <path d="M44.8519999,27.5880506 C44.646108,28.2998484 44.4358041,29.0101757 44.2210882,29.7190322 C44.1902044,29.8337435 44.1416727,29.9440427 44.1196129,30.054342 C44.097553,30.1646412 44.0357854,30.3058243 43.8416587,30.3102363 C43.647532,30.3146482 43.5769405,30.2219968 43.5239969,30.04993 C43.3872258,29.5602013 43.2283949,29.0748846 43.0827998,28.5895678 C43.056328,28.5189763 43.06074,28.4351489 42.9504407,28.3954411 C42.7739619,28.9557614 42.6018951,29.5116696 42.4342402,30.0719899 C42.3857085,30.2175849 42.3283529,30.3146482 42.1386382,30.3102363 C42.0681201,30.3201941 41.9966016,30.3008246 41.9407468,30.2566409 C41.8848919,30.2124572 41.849579,30.1473183 41.8430362,30.0764018 C41.6797933,29.5116696 41.5121384,28.9513494 41.3444835,28.3866172 C41.2650681,28.1263109 41.1900646,27.8660047 41.1106491,27.5968745 C41.146342,27.5771938 41.1851386,27.5637642 41.2253603,27.5571668 C41.6665574,27.5571668 41.6268496,27.517459 41.7459728,27.9542441 C41.865096,28.3910292 42.019515,28.9337015 42.160698,29.4454901 C42.2713438,29.2467778 42.3516476,29.0326345 42.3989444,28.8101663 C42.5004198,28.5145643 42.5842472,28.2101384 42.6857225,27.9277723 C42.7430781,27.7645294 42.7386661,27.5571668 43.0122083,27.5659907 C43.2857505,27.5748146 43.2592787,27.7601174 43.3078103,27.9101244 C43.4401694,28.3204376 43.5681166,28.7351628 43.7004757,29.1410641 C43.7313595,29.2425394 43.7710672,29.3351908 43.8240109,29.4896098 C43.9740178,28.9469374 44.1107889,28.4616207 44.2652079,27.9763039 C44.4196269,27.4909872 44.3578593,27.5130471 44.8519999,27.5880506 Z" id="Path"></path>
      <path d="M49.9963574,15.8433855 L49.4095653,16.4478254 C49.3540398,16.3077918 49.3372748,16.1553833 49.3610336,16.0066284 C49.3610336,14.1183051 49.3610336,12.2255698 49.3610336,10.3372465 C49.399226,9.95781175 49.249257,9.58371311 48.9595443,9.33572925 C49.6301638,9.2386659 50.0228292,9.48132427 50.0051813,10.3416585 C49.9698855,12.0314431 50.0051813,13.7168158 50.0051813,15.4066004 C49.9875334,15.5566074 49.9919454,15.7022024 49.9963574,15.8433855 Z" id="Path"></path>
      <path d="M44.3755071,25.0423437 C44.8670414,24.8808824 45.3183399,24.6161207 45.6990982,24.2658369 C46.4140204,23.5487515 46.709355,22.5140888 46.4806837,21.5276637 C46.2520124,20.5412385 45.5315587,19.742054 44.5740458,19.4126695 C44.4902184,19.3861977 44.3887431,19.4126695 44.3225635,19.3244301 C45.7862534,19.2807213 47.0389777,20.3665436 47.2035801,21.8216053 C47.3974884,23.2958119 46.4444872,24.6776637 44.997595,25.0202838 C44.7924651,25.0583681 44.5828194,25.0658024 44.3755071,25.0423437 Z" id="Path"></path>
      <path d="M45.6285067,28.5322122 C45.6285067,29.0395888 45.6285067,29.5469654 45.6285067,30.054342 C45.6285067,30.1911131 45.6285067,30.3058243 45.4299681,30.3102363 C45.2314294,30.3146482 45.1828977,30.2528806 45.1828977,30.0631659 C45.1828977,29.304307 45.1828977,28.5454481 45.1828977,27.7865892 C45.1828977,27.7071738 45.1299541,27.5836386 45.2667252,27.5659907 C45.4034962,27.5483428 45.5049716,27.517459 45.593211,27.6277583 L45.8093975,27.9057124 C46.1491192,28.3469095 46.484429,28.7881065 46.8241507,29.2513634 C46.8550345,29.2910711 46.8770943,29.3440147 46.9785696,29.3263669 C46.9785696,28.8145783 46.9785696,28.2983778 46.9785696,27.7821772 C46.9785696,27.5748146 47.0535731,27.5439308 47.230052,27.5527548 C47.4065308,27.5615787 47.4109427,27.6012865 47.4065308,27.7336456 C47.4065308,28.1527828 47.4065308,28.5719199 47.4065308,28.9910571 C47.4065308,29.4101943 47.4065308,29.7234442 47.4065308,30.0896377 C47.4065308,30.2881764 47.2785836,30.3631799 47.1021048,30.2881764 C46.9989256,30.2277145 46.9136608,30.1409272 46.8550345,30.0366941 L45.7035102,28.5101524 L45.6285067,28.5322122 Z" id="Path"></path>
      <path d="M2.70003529,9.79898613 C3.41036251,9.12395467 4.04568624,8.36950774 4.78248529,7.7209481 C5.53388366,6.9960065 6.32170485,6.30979215 7.14288942,5.66496992 C7.40652278,5.47120021 7.68881358,5.30419047 7.98557576,5.16641727 C8.10208223,5.10483174 8.23358001,5.07730894 8.36500521,5.08700181 C8.4708925,5.08700181 8.47971644,5.17524121 8.47971644,5.25906865 C7.82641569,5.61862841 7.22401336,6.06375329 6.68845648,6.58265975 C5.65359673,7.47532463 4.66826012,8.42383999 3.73684832,9.42396865 C3.49591845,9.74314954 3.08940135,9.89018764 2.70003529,9.79898613 Z" id="Path"></path>
      <path d="M56.0584046,28.5145643 C56.0584046,28.7881065 56.0584046,29.0660606 56.0584046,29.3396028 C56.0516819,29.6120091 55.9347352,29.8700343 55.7343179,30.054651 C55.5339007,30.2392678 55.267161,30.3346798 54.9951198,30.3190602 C54.7234217,30.3460461 54.452665,30.2594264 54.2470817,30.07975 C54.0414984,29.9000735 53.9194083,29.6433516 53.9097751,29.3704866 C53.8700673,28.8234022 53.9097751,28.271906 53.8833032,27.7248216 C53.8833032,27.5351069 53.9980145,27.5527548 54.1171377,27.5571668 C54.2362609,27.5615787 54.3862679,27.517459 54.3818559,27.7336456 C54.3818559,28.1748426 54.3818559,28.6160396 54.3818559,29.0263529 C54.3729638,29.1438374 54.3729638,29.261826 54.3818559,29.3793105 C54.4155736,29.6651113 54.6588121,29.8798452 54.9465881,29.8778632 C55.2507635,29.903376 55.5186133,29.6788548 55.5466161,29.3748985 C55.5621593,29.1531013 55.5621593,28.9304882 55.5466161,28.708691 C55.5466161,28.3822052 55.5466161,28.0557194 55.5466161,27.7292336 C55.5466161,27.5086351 55.6922111,27.5615787 55.8157462,27.5571668 C55.9392814,27.5527548 56.0495807,27.5571668 56.0407567,27.7292336 C56.0407567,27.9895399 56.0407567,28.2542581 56.0407567,28.5145643 L56.0584046,28.5145643 Z" id="Path"></path>
      <path d="M18.9934418,25.0379317 C19.279105,24.8647914 19.4363462,24.5399414 19.3949311,24.2084813 C19.3949311,23.1540204 19.3949311,22.0995594 19.3949311,21.0406866 C19.3949311,20.6436092 19.3949311,20.6436092 19.8052443,20.6480212 L20.0390787,20.6480212 L20.0390787,24.252601 C20.0597995,24.402549 20.0384136,24.5553052 19.9773112,24.693798 C19.8848998,24.917133 19.6675109,25.0632183 19.4258149,25.0644035 C19.2802198,25.0555796 19.1390368,25.0423437 18.9934418,25.0379317 Z" id="Path"></path>
      <path d="M68.8928263,27.9542441 C68.8663545,27.9983638 68.8531186,28.0115997 68.8531186,28.0204236 C68.8531186,28.2410222 68.7604672,28.5101524 68.8884144,28.6689833 C69.0163615,28.8278142 69.2854917,28.708691 69.4884423,28.7219269 C69.691393,28.7351628 69.7840444,28.7219269 69.7619845,28.9381135 C69.7619845,29.0660606 69.7002169,29.1234162 69.5678578,29.1190043 C69.4354987,29.1145923 69.2281361,29.1190043 69.0560692,29.1190043 C68.8840024,29.1190043 68.8398827,29.1851838 68.8398827,29.3484267 C68.8398827,30.0190462 68.7737031,29.8778632 69.3737311,29.895511 C69.5149142,29.895511 69.6605092,29.895511 69.8149281,29.895511 C69.9693471,29.895511 70.0311147,29.9308068 70.0267027,30.0940497 C70.0222907,30.2572926 69.991407,30.3146482 69.8281641,30.3102363 C69.386967,30.3102363 68.94577,30.3102363 68.5354567,30.3102363 C68.4030976,30.3102363 68.34133,30.2617046 68.34133,30.1249335 C68.34133,29.3263669 68.34133,28.5322122 68.34133,27.7336456 C68.34133,27.5880506 68.4119216,27.5571668 68.5354567,27.5571668 L69.832576,27.5571668 C69.9958189,27.5571668 70.0267027,27.6277583 70.0267027,27.7689413 C70.0267027,27.9101244 69.9516992,27.963068 69.8149281,27.963068 L68.8928263,27.9542441 Z" id="Path"></path>
      <path d="M33.3720531,25.0379317 C33.5838277,24.9761641 33.8132501,24.9232205 34.0073768,24.8526289 C35.1895841,24.4627544 36.1767772,23.6335121 36.7648583,22.5363445 C36.9766329,22.1569151 36.8883935,21.8833729 36.4824922,21.5171794 C36.6132325,21.508371 36.7444173,21.508371 36.8751576,21.5171794 C37.0810527,21.5160672 37.2750731,21.6134503 37.3972117,21.7792099 C37.5193503,21.9449694 37.5548879,22.1591293 37.4928334,22.3554537 C37.4703224,22.4308233 37.4392352,22.5033602 37.400182,22.5716403 C36.6838305,23.9234907 35.3567799,24.8443684 33.839722,25.0423437 C33.6839253,25.0519796 33.5276402,25.0505052 33.3720531,25.0379317 L33.3720531,25.0379317 Z" id="Path"></path>
      <path d="M48.4565797,27.5924625 C48.5952556,27.5271218 48.7557993,27.5267981 48.8947376,27.5915791 C49.0336758,27.6563602 49.1366335,27.7795434 49.1757309,27.9277723 C49.303678,28.2277863 49.4757449,28.5101524 49.6169279,28.8101663 L50.1022447,27.8924765 C50.3051953,27.5130471 50.3051953,27.5130471 50.794924,27.5792266 C50.5655015,27.9851279 50.353727,28.3866172 50.1154806,28.7748706 C49.926435,29.0415686 49.8388192,29.3669987 49.8684102,29.6925604 C49.8772291,29.7982641 49.8772291,29.9045186 49.8684102,30.0102223 C49.8684102,30.2661166 49.7184032,30.3675919 49.4713329,30.2881764 C49.4189891,30.2755025 49.3801855,30.2314076 49.3742695,30.1778771 C49.3654433,30.08691 49.3654433,29.9953021 49.3742695,29.904335 C49.4260493,29.433879 49.2984278,28.9612068 49.0168999,28.5807439 C48.8271852,28.2807299 48.6595303,27.9542441 48.4565797,27.5924625 Z" id="Path"></path>
      <path d="M41.2650681,19.2450146 C40.8024562,19.3778708 40.3051061,19.2236403 39.9988326,18.8523493 C39.6360191,18.4850948 39.4781207,17.9622837 39.5769871,17.4555936 C39.6758534,16.9489035 40.0187106,16.5238008 40.4929732,16.3198783 C40.7184017,16.2093554 40.982284,16.2093554 41.2077124,16.3198783 C40.5944858,16.5331737 40.1931147,17.1226875 40.2194311,17.7714165 C40.1998659,18.4409839 40.626601,19.0423743 41.2650681,19.2450146 L41.2650681,19.2450146 Z" id="Path"></path>
      <path d="M2.148539,14.1050692 C2.34972779,13.5385017 2.648348,13.011437 3.03093307,12.5476437 C3.23829567,12.2829254 3.44565828,12.0137952 3.64860891,11.7402531 C3.85155955,11.4667109 3.81626379,11.5108306 4.04568624,11.6476017 C4.12025294,11.6982732 4.19103156,11.7543062 4.25746082,11.8152566 L3.59566527,12.6976506 C3.32573454,13.0317482 3.10577967,13.4032936 2.94269366,13.8006432 C2.84121834,14.0565375 2.70444726,14.1800727 2.42649313,14.135953 C2.33513048,14.1162489 2.24199858,14.1059009 2.148539,14.1050692 L2.148539,14.1050692 Z" id="Path"></path>
      <path d="M64.9794086,28.9204656 C64.9794086,29.313131 64.9794086,29.7057963 64.9794086,30.0984617 C64.9794086,30.3190602 64.8470495,30.3014123 64.6970425,30.3102363 C64.5470356,30.3190602 64.4587961,30.2705285 64.4632081,30.0896377 C64.4632081,29.308719 64.4632081,28.5233883 64.4632081,27.7380575 C64.4632081,27.526283 64.5911553,27.5527548 64.7235144,27.5527548 C64.8558735,27.5527548 64.9838206,27.5527548 64.9794086,27.7424695 C64.9749967,28.1351349 64.9794086,28.5278002 64.9794086,28.9204656 Z" id="Path"></path>
      <path d="M5.61634769,25.0379317 C5.87665394,24.9629282 6.14137216,24.8923367 6.39726644,24.8085092 C7.08084198,24.5818492 7.70497072,24.2049598 8.22382216,23.7055167 C8.30323762,23.6305132 8.36500521,23.5158019 8.52383614,23.506978 C8.548107,23.6855773 8.548107,23.866639 8.52383614,24.0452384 C7.96934434,24.4406799 7.35170684,24.7390555 6.69728042,24.9276324 C6.34581609,25.0253492 5.98030501,25.0626463 5.61634769,25.0379317 L5.61634769,25.0379317 Z" id="Path"></path>
      <path d="M64.5955672,25.0379317 C64.8294017,24.9717521 65.0676481,24.9055726 65.3014825,24.8305691 C66.0241818,24.6030286 66.6831634,24.2085465 67.2251016,23.6790448 C67.2956931,23.6084533 67.3442248,23.502566 67.4986437,23.51139 C67.5248218,23.6854192 67.5248218,23.8623852 67.4986437,24.0364144 C66.9471586,24.434205 66.3305462,24.7328066 65.6765,24.9188085 C65.3259617,25.0215927 64.9600758,25.0619148 64.5955672,25.0379317 Z" id="Path"></path>
      <path d="M46.188827,16.213991 C46.2461826,16.1610474 46.3079502,16.1125157 46.3608938,16.0551601 C46.4995336,15.9347449 46.5827305,15.762746 46.5910688,15.5793031 C46.5994071,15.3958603 46.5321573,15.2170229 46.4050135,15.0845266 C46.3697177,15.0359949 46.2947142,15.018347 46.2197108,14.9742273 C46.4050135,14.8639281 46.5373726,14.9301076 46.6609078,14.881576 C47.1021048,15.0006992 47.2741717,15.2433575 47.2344639,15.622787 C47.1972812,15.9885174 46.8725908,16.256141 46.5064888,16.222815 C46.3961896,16.2272269 46.2947142,16.218403 46.188827,16.213991 Z" id="Path"></path>
      <path d="M16.3197877,16.1654593 C16.3927932,16.1129535 16.4620795,16.0554606 16.5271503,15.9933925 C16.770238,15.7720468 16.7955379,15.3983876 16.584506,15.1462942 C16.5306869,15.0730636 16.4717108,15.0037668 16.4080271,14.9389316 C16.5359743,14.8639281 16.6727454,14.9389316 16.7918686,14.881576 C17.2330656,15.0095231 17.4007205,15.2345336 17.3698367,15.5919032 C17.3444568,15.8893479 17.118032,16.1303808 16.8227524,16.1742833 C16.6559787,16.202261 16.4854774,16.1992697 16.3197877,16.1654593 L16.3197877,16.1654593 Z" id="Path"></path>
      <path d="M36.4824922,21.5171794 C36.1183581,21.4121391 35.7345464,21.6040449 35.6000981,21.9583764 C35.4088795,22.3003344 35.1543414,22.6027856 34.8500632,22.8495944 C34.2500302,23.4227858 33.4367039,23.7173764 32.6087822,23.6613969 C31.4817344,23.6138716 30.4313889,23.0774221 29.7321776,22.1922108 C29.2556848,21.5921829 29.2909805,21.4951195 29.9968958,21.2171654 C32.1190535,20.387715 34.2412113,19.5582645 36.3545451,18.7023423 C37.0031047,18.442036 37.2104673,17.9346594 36.8795695,17.3787512 C36.0898268,15.9801566 34.9735983,15.0404069 33.3191095,14.8639281 C32.7832078,14.8153343 32.2432388,14.8375858 31.7131523,14.9301076 C30.1062551,15.2006759 28.7423966,16.2596134 28.0821007,17.7493567 C27.730653,18.5417685 27.579152,19.4083543 27.6409036,20.2730037 C27.6599042,21.9170688 28.5145004,23.4383832 29.9086564,24.3099566 C30.9444479,24.9460233 32.1659109,25.210544 33.3720531,25.0599915 C34.9559505,24.8791008 36.0192353,23.9790588 36.8178019,22.6598797 C36.9719207,22.4766217 37.0240334,22.2283633 36.9566129,21.9986013 C36.8891924,21.7688393 36.7111971,21.588103 36.4824922,21.5171794 L36.4824922,21.5171794 Z M29.5998185,18.9185288 C29.9307162,17.5949377 31.0557687,16.3022304 32.5470147,16.2316389 C33.6202297,16.166888 34.653196,16.6501568 35.2912602,17.5155223 C35.2269514,17.5944228 35.1386565,17.650188 35.0397779,17.6743532 L29.9086564,19.7038596 C29.8071811,19.7435673 29.6792339,19.8935743 29.5865826,19.7038596 C29.4853976,19.4509189 29.4901673,19.167916 29.5998185,18.9185288 L29.5998185,18.9185288 Z" id="Shape"></path>
      <path d="M32.5470147,16.2316389 C32.3749478,16.2845825 32.194057,16.3287022 32.0264022,16.3904698 C30.6742856,16.8422343 29.7226524,18.0578241 29.6086424,19.4788491 C29.6086424,19.5450286 29.6086424,19.6112082 29.5865826,19.6729758 C29.4983432,19.9950496 29.1983292,19.9641658 28.9512588,20.1141728 C28.8929188,19.6774048 28.9382626,19.2330363 29.0836179,18.8170535 C29.5063468,17.3026187 30.869241,16.2423909 32.4411274,16.2051671 C32.4776066,16.2083019 32.5133519,16.2172383 32.5470147,16.2316389 Z" id="Path"></path>
      <path d="M68.8840024,19.7656271 C68.8840588,17.8920459 67.839119,16.1748728 66.1750526,15.3139491 C65.826507,15.1198224 65.4338416,15.0580548 65.080884,14.872752 C64.6684233,14.8037589 64.2488679,14.7874511 63.8322964,14.8242204 C63.1755264,14.8329965 62.528396,14.983492 61.9351491,15.2654174 C59.910198,16.2315424 58.7393287,18.3932842 59.0364846,20.6171374 C59.2348321,22.4142517 60.3816891,23.9669714 62.0410364,24.6849741 C62.854917,25.0234955 63.7426919,25.1451085 64.6176271,25.0379317 C65.6631307,24.9322135 66.6386741,24.4639527 67.3751085,23.7143406 C67.4898198,23.8158159 67.4236402,23.9658229 67.5251155,24.0452384 C67.5251155,24.1467137 67.5251155,24.252601 67.5251155,24.3540763 C67.5251155,24.8835127 67.7986577,25.0820514 68.4075096,25.0467556 C68.8222348,24.8967486 68.9104742,24.7688015 68.9148862,24.2393651 C68.8972383,22.7392951 68.9281221,21.2524611 68.8840024,19.7656271 Z M65.2441269,23.4275625 C64.8345161,23.6309238 64.3750312,23.7120995 63.9205358,23.6613969 C62.9995735,23.6239869 62.1533476,23.1441851 61.648371,22.3731016 C60.4316418,20.817994 60.5522998,18.6027903 61.9307371,17.1890365 C62.4406861,16.6160499 63.158923,16.2712326 63.9249477,16.2316389 C65.1438959,16.1941853 66.2853804,16.8275907 66.8986157,17.8817158 C67.5054979,18.8159502 67.6716906,19.969496 67.3532083,21.0370488 C67.0347259,22.1046015 66.2636752,22.97854 65.2441269,23.4275625 Z" id="Shape"></path>
      <path d="M63.9205358,16.2316389 C63.1698327,16.3788476 62.484491,16.758564 61.9616209,17.3169836 C60.9870005,18.3190778 60.6548636,19.7821834 61.1012867,21.1068661 C61.4666014,22.4310764 62.5627857,23.4258894 63.9161238,23.6613969 C63.6618529,23.7295494 63.393035,23.7203328 63.144029,23.6349251 C61.5271608,23.2535614 60.357703,21.8484129 60.2762483,20.1891763 C60.167741,18.6160081 61.0469554,17.1406863 62.4822334,16.4875332 C62.9281743,16.2690132 63.42659,16.180338 63.9205358,16.2316389 L63.9205358,16.2316389 Z" id="Path"></path>
      <path d="M9.92243074,19.8362187 C9.93048493,19.2322294 9.81954674,18.6325635 9.59594494,18.0714305 C9.08825637,16.6595795 7.97677237,15.5480955 6.56492131,15.0404069 C6.40609038,14.9830513 6.20755171,15.0404069 6.08401654,14.881576 C5.68491068,14.812623 5.27848558,14.7963067 4.87513667,14.8330443 C4.20511317,14.8374846 3.54412528,14.9880513 2.93828169,15.2742413 C0.94475294,16.2298962 -0.221598742,18.3463459 0.0352052025,20.5421339 C0.193778403,22.1313919 1.0889176,23.5541405 2.45296495,24.3849601 C3.40318555,24.9545467 4.5174879,25.1876644 5.61634769,25.0467556 C6.66959947,24.937747 7.64917857,24.4557815 8.37824112,23.6878688 C8.46648053,23.8202279 8.42677279,23.9614109 8.51942417,24.0408264 C8.51942417,24.107006 8.51942417,24.1731855 8.51942417,24.2349531 C8.51942417,24.8702768 8.76649451,25.0776394 9.40181824,25.0379317 C9.81213148,24.8835127 9.89595892,24.7555656 9.90037089,24.2261292 C9.91801877,22.761355 9.90478286,21.3009928 9.92243074,19.8362187 Z M5.82812226,23.5863935 C5.54306991,23.6759014 5.24179828,23.7015094 4.94572819,23.6613969 C4.02681248,23.6168738 3.1835931,23.1387766 2.67356347,22.3731016 C1.49085522,20.8374513 1.58969458,18.6723098 2.9073979,17.250804 C3.42289606,16.6469583 4.16200847,16.278995 4.95455213,16.2316389 C5.93831472,16.1931655 6.88458789,16.6117407 7.5179069,17.3655153 C8.40704557,18.3275739 8.73845881,19.6795156 8.39506246,20.9437163 C8.05166611,22.207917 7.08180624,23.2063923 5.82812226,23.5863935 L5.82812226,23.5863935 Z" id="Shape"></path>
      <path d="M4.94572819,16.2316389 C4.72071771,16.3022304 4.50453116,16.359586 4.2751087,16.4434135 C2.75280482,17.0766221 1.81453487,18.6213783 1.9544123,20.2641798 C2.07030903,21.9389298 3.29125409,23.3296512 4.93690425,23.6613969 C4.6846987,23.7343759 4.41580085,23.7251035 4.16922141,23.6349251 C2.74380798,23.3381867 1.64387519,22.2015312 1.39409207,20.7671444 C1.07198976,19.4651502 1.4865481,18.0911854 2.4750248,17.1846245 C3.11068584,16.5631242 3.95980656,16.2080087 4.84866485,16.1919312 C4.8827379,16.2004993 4.91541948,16.213869 4.94572819,16.2316389 L4.94572819,16.2316389 Z" id="Path"></path>
      <path d="M74.9195778,12.0005593 C74.6953563,10.8453329 73.8826887,9.89181578 72.7775997,9.48733874 C71.6725106,9.0828617 70.4363201,9.28646995 69.5193261,10.0239966 C68.691401,10.71293 68.2203383,11.7399824 68.2383442,12.8169062 C68.2563501,13.8938301 68.761484,14.9045607 69.6119775,15.5654314 C70.3091229,16.1200211 71.2075627,16.3554412 72.0870929,16.213991 C73.791017,15.9471661 75.0352166,14.4616672 74.9989933,12.7373584 C75.0056871,12.4893085 74.9789756,12.2414856 74.9195778,12.0005593 Z M74.4298491,12.7770661 C74.4443001,13.5509829 74.1438398,14.2975882 73.5973351,14.8457566 C73.0508303,15.3939249 72.3051418,15.6966532 71.5311846,15.6845546 C70.7077332,15.6662482 69.9376685,15.2730928 69.4399107,14.6168577 C68.5530453,13.4963151 68.5826173,11.9049704 69.5105022,10.8181513 C70.1723782,10.0046355 71.2521106,9.65856744 72.2635717,9.93575721 C73.318322,10.1787961 74.136057,11.012025 74.3592576,12.0711509 C74.3923634,12.1984415 74.4145042,12.3283341 74.4254372,12.4594042 C74.4337455,12.5650861 74.4352192,12.6711943 74.4298491,12.7770661 L74.4298491,12.7770661 Z" id="Shape"></path>
      <path d="M66.5368342,27.5527548 C66.3162357,27.5527548 66.0956371,27.5527548 65.8706267,27.5527548 C65.5662007,27.5527548 65.5617887,27.5527548 65.5617887,27.8395329 C65.5617887,28.1924905 65.5617887,28.5454481 65.5617887,28.8984057 C65.5617887,29.2513634 65.5617887,29.6793245 65.5617887,30.0719899 C65.5617887,30.2396447 65.6103204,30.3102363 65.7867992,30.3014123 C66.0735773,30.3014123 66.3603554,30.3014123 66.6471334,30.3014123 C67.3075782,30.2964609 67.8541115,29.7863632 67.904545,29.1278282 C67.9825053,28.7279188 67.8719396,28.3143893 67.6048012,28.0067492 C67.3376628,27.6991092 66.9437245,27.5316454 66.5368342,27.5527548 L66.5368342,27.5527548 Z M67.3927564,29.0440008 C67.4152624,29.454722 67.1204261,29.8146519 66.713313,29.8734512 L66.6383095,29.8734512 C66.0691653,29.9396307 66.0515174,29.9263948 66.0515174,29.3484267 L66.0515174,28.8807579 C66.0515174,28.6292756 66.0515174,28.3822052 66.0515174,28.1351349 C66.0515174,27.971892 66.113285,27.9277723 66.25888,27.9365962 C66.4044751,27.9454202 66.4927145,27.9365962 66.6118377,27.9365962 C66.7019366,27.9431585 66.7908637,27.960944 66.8765559,27.9895399 C67.2914105,28.1589624 67.513401,28.6124301 67.3927564,29.0440008 L67.3927564,29.0440008 Z" id="Shape"></path>
      <path d="M39.641463,27.5130471 C39.269191,27.5046797 38.9106142,27.653511 38.6536843,27.9230355 C38.3967544,28.19256 38.2652404,28.5578436 38.2914,28.9292895 C38.2745062,29.2909023 38.4064613,29.643654 38.6565374,29.9054003 C38.9066135,30.1671466 39.2529842,30.3150426 39.6149911,30.3146482 C39.9844364,30.326376 40.3411217,30.1788511 40.5943486,29.9095865 C40.8475755,29.6403219 40.9729466,29.2752601 40.9385823,28.9072297 C40.9577942,28.5486809 40.8305119,28.1977123 40.5859319,27.9348304 C40.3413518,27.6719485 40.0004642,27.519714 39.641463,27.5130471 Z M39.3590969,29.8381554 C38.9664315,29.7146203 38.7723048,29.3351908 38.8120125,28.7792825 C38.808008,28.3851003 39.0834141,28.043153 39.4693961,27.963068 C40.0473642,27.8527688 40.4709134,28.25867 40.4709134,28.9160536 C40.4709134,29.5734372 39.9767727,30.0411061 39.3590969,29.8425674 L39.3590969,29.8381554 Z" id="Shape"></path>
      <path d="M52.1538109,27.5130471 C51.7815389,27.5046797 51.4229621,27.653511 51.1660322,27.9230355 C50.9091023,28.19256 50.7775883,28.5578436 50.8037479,28.9292895 C50.7868541,29.2909023 50.9188092,29.643654 51.1688853,29.9054003 C51.4189613,30.1671466 51.7653321,30.3150426 52.127339,30.3146482 C52.496353,30.3249368 52.8521611,30.17697 53.1050633,29.9080506 C53.3579656,29.6391312 53.4838315,29.274918 53.4509301,28.9072297 C53.4701421,28.5486809 53.3428598,28.1977123 53.0982797,27.9348304 C52.8536997,27.6719485 52.5128121,27.519714 52.1538109,27.5130471 Z M52.9744373,29.0616486 C52.9749917,29.2907723 52.88024,29.5098076 52.7128767,29.6662923 C52.5455133,29.8227771 52.3206132,29.9026162 52.0920433,29.8866871 C51.5934906,29.8866871 51.2978886,29.4984337 51.2978886,28.9116417 C51.2978886,28.3248496 51.6684941,27.9013004 52.2199904,27.9542441 C52.7714867,28.0071877 53.027381,28.4395608 52.9744373,29.0660606 L52.9744373,29.0616486 Z" id="Shape"></path>
      <path d="M63.4484549,29.1543 C63.4484549,29.0660606 63.5190465,29.0660606 63.5631662,29.0395888 C63.8804743,28.8533976 64.0283584,28.4736459 63.9205358,28.121899 C63.8348095,27.7917074 63.5336302,27.5635412 63.1925607,27.5704027 C62.8925467,27.5439308 62.5925327,27.5704027 62.3101666,27.5704027 C62.1954554,27.5704027 62.1380997,27.6145224 62.1425117,27.7336456 C62.1425117,28.5322122 62.1425117,29.3307788 62.1425117,30.1293455 C62.1425117,30.3322961 62.2660469,30.3190602 62.402818,30.3234722 C62.539589,30.3278841 62.6631242,30.3234722 62.6543003,30.1205215 C62.6454763,29.9175709 62.6543003,29.6484407 62.6543003,29.4146063 C62.6543003,29.2557753 62.7601876,29.1940078 62.9101946,29.2469514 C62.9827065,29.2790028 63.0419281,29.3351075 63.0778494,29.4057823 L63.435219,29.9661026 C63.6778774,30.354356 63.6778774,30.354356 64.185254,30.2705285 L63.4484549,29.1543 Z M62.6719482,28.8322262 L62.6498883,28.8013424 C62.6145576,28.5333717 62.6145576,28.2619225 62.6498883,27.9939518 C62.7337157,27.9057124 62.848427,27.971892 62.9410783,27.9498321 C63.3469796,27.9498321 63.5278704,28.1660187 63.444043,28.5101524 C63.3051764,28.797422 62.9747829,28.9371312 62.6719482,28.8366382 L62.6719482,28.8322262 Z" id="Shape"></path>
      <path d="M57.933492,29.1278282 L58.0305554,29.0528247 C58.3680919,28.8748938 58.5325977,28.4830372 58.4232207,28.117487 C58.3166158,27.7646305 57.9789482,27.5334016 57.6114182,27.5615787 C57.3511119,27.5615787 57.0908057,27.5615787 56.8260875,27.5615787 C56.7069643,27.5615787 56.6231368,27.5615787 56.6275488,27.7292336 C56.6275488,28.5278002 56.6275488,29.3263669 56.6275488,30.1249335 C56.6275488,30.3278841 56.7554959,30.3102363 56.892267,30.3146482 C57.0290381,30.3190602 57.1437493,30.3146482 57.1349254,30.1072856 C57.1349254,29.8205075 57.1349254,29.5337295 57.1349254,29.2601873 C57.2159488,29.2220895 57.3090627,29.2189376 57.392477,29.2514691 C57.4758913,29.2840007 57.5422855,29.3493608 57.5761224,29.4322542 C57.6820097,29.6131449 57.7967209,29.7852118 57.9114322,29.9616906 C58.1540905,30.354356 58.1540905,30.354356 58.6570551,30.2572926 L57.933492,29.1278282 Z M57.5761224,28.8322262 C57.5233787,28.8387336 57.4700352,28.8387336 57.4172915,28.8322262 C57.1393373,28.8322262 57.1349254,28.8322262 57.1305134,28.567508 C57.1305134,28.5013284 57.1305134,28.4351489 57.1305134,28.3733813 C57.1305134,28.3116137 57.1305134,28.3424975 57.1305134,28.3336735 C57.187869,28.1969025 56.9716825,27.9410082 57.3202281,27.9321842 C57.6687738,27.9233603 57.9202561,28.0204236 57.9599638,28.2851419 C57.9929048,28.4102 57.9693184,28.5434139 57.8954413,28.6495591 C57.8215642,28.7557044 57.7048362,28.8240917 57.5761224,28.8366382 L57.5761224,28.8322262 Z" id="Shape"></path>
      <path d="M60.9248079,27.5659907 C60.6512657,27.5439308 60.3777236,27.5659907 60.1041814,27.5659907 C59.8968188,27.5659907 59.865935,27.6409942 59.870347,27.813061 C59.870347,28.1792546 59.870347,28.5454481 59.870347,28.9116417 C59.870347,29.2778352 59.870347,29.6969724 59.870347,30.0896377 C59.870347,30.2440567 59.9056428,30.3322961 60.0865335,30.3190602 C60.2674243,30.3058243 60.3865475,30.3190602 60.3644877,30.1072856 C60.3578898,30.0545475 60.3578898,30.0011928 60.3644877,29.9484547 C60.3644877,29.7675639 60.315956,29.5513774 60.3953715,29.4101943 C60.4747869,29.2690113 60.7306812,29.3748985 60.9027481,29.3263669 C60.9291754,29.3241974 60.9557361,29.3241974 60.9821635,29.3263669 C61.2113997,29.3121089 61.4247452,29.2044173 61.5723556,29.0284523 C61.719966,28.8524873 61.7889108,28.6236634 61.7630823,28.3954411 C61.7667753,28.1728038 61.67935,27.9583224 61.5210691,27.8017076 C61.3627882,27.6450929 61.1473937,27.559942 60.9248079,27.5659907 Z M61.2512937,28.4880925 C61.2529146,28.7124966 61.0858294,28.9023662 60.8630403,28.9292895 C60.8145086,28.9292895 60.761565,28.9292895 60.7086214,28.9292895 L60.3644877,28.9292895 L60.3644877,28.0910152 C60.3644877,28.0380715 60.3644877,27.96748 60.4262553,27.96748 C60.6447507,27.9193359 60.873075,27.9457408 61.0748149,28.0424835 C61.2162255,28.1433333 61.2853083,28.3177674 61.2512937,28.4880925 L61.2512937,28.4880925 Z" id="Shape"></path>
      <path d="M71.9944415,12.9535449 L72.1091527,12.9094252 C72.4896061,12.8200903 72.7422282,12.4592016 72.6959448,12.0711509 C72.6748992,11.6717635 72.3458473,11.3581964 71.9459098,11.3564117 C71.5047128,11.2946441 71.0635158,11.3564117 70.6223187,11.3255279 C70.4105441,11.3255279 70.3531885,11.3917074 70.3531885,11.5946581 C70.3531885,12.3667529 70.3531885,13.1388477 70.3531885,13.9109425 C70.3531885,14.2065445 70.3531885,14.1888966 70.6664384,14.2065445 C70.8870369,14.2065445 70.9399806,14.131541 70.9311566,13.9330023 C70.9223327,13.7344637 70.9311566,13.4918053 70.9311566,13.3065026 C70.9311566,13.0197245 70.9576285,12.9756048 71.2752903,13.0241365 C71.4185759,13.0514316 71.5427213,13.1401069 71.615012,13.2667948 C71.7870789,13.5138652 71.9503218,13.7653475 72.1223886,14.0168298 C72.1797442,14.1006572 72.223864,14.2065445 72.3518111,14.1977206 C72.5348725,14.2161332 72.7197176,14.2042077 72.8988954,14.1624248 C72.6677109,13.7113617 72.3619153,13.3026397 71.9944415,12.9535449 L71.9944415,12.9535449 Z M71.8179627,12.5344077 C71.6900698,12.5592607 71.5599872,12.5710864 71.4297093,12.5697035 C70.8693891,12.5697035 70.9267447,12.6844147 70.9179207,12.053503 C70.9179207,11.8770242 70.9841003,11.8196685 71.1473432,11.8284925 C71.2399946,11.8284925 71.328234,11.8284925 71.5003008,11.8284925 C71.5488325,11.8284925 71.6811916,11.8284925 71.8091387,11.8549643 C71.9720567,11.8667192 72.0966629,12.0049541 72.0915048,12.1682142 C72.1072368,12.337682 71.9866101,12.4894382 71.8179627,12.5123479 L71.8179627,12.5344077 Z" id="Shape"></path>
    </g>
  </g>
</svg>
