<?xml version="1.0" encoding="UTF-8"?>
<svg xmlns="http://www.w3.org/2000/svg" id="Layer_1" viewBox="0 0 512 512">
  <defs>
    <style>.cls-1{fill:none;stroke:#000;stroke-miterlimit:10;stroke-width:11.54px;}</style>
  </defs>
  <path class="cls-1" d="M309.4,278.5H173.15c-.32,0-.63,.13-.86,.36l-55.67,55.33c-.77,.77-2.08,.22-2.09-.86l-.33-53.61c0-.67-.55-1.22-1.22-1.22h-30.75c-9.44,0-17.1-7.66-17.1-17.1V103.13c0-9.44,7.66-17.1,17.1-17.1h227.19c9.44,0,17.1,7.66,17.1,17.1v158.28c0,9.44-7.66,17.1-17.1,17.1Z"></path>
  <path class="cls-1" d="M186.31,280.41v82.36c0,9.44,7.66,17.1,17.1,17.1h136.26c.32,0,.63,.13,.86,.36l55.67,55.33c.77,.77,2.08,.22,2.09-.86l.33-53.61c0-.67,.55-1.22,1.22-1.22h30.75c9.44,0,17.1-7.66,17.1-17.1V204.49c0-9.44-7.66-17.1-17.1-17.1h-100.76"></path>
  <path class="path" d="M190.53,212.83c0-6.9,1.29-12.9,3.86-17.98,2.57-5.08,5.68-9.16,9.32-12.24,3.64-3.07,7.28-5.99,10.92-8.76,3.64-2.76,6.75-6.12,9.32-10.07,2.57-3.95,3.86-8.57,3.86-13.84,0-7.16-2.29-12.96-6.87-17.42-4.58-4.45-10.64-6.68-18.17-6.68-8.29,0-15.06,2.35-20.34,7.06-5.27,4.71-8.16,11.08-8.66,19.11l-12.05-2.07c.88-10.79,5.05-19.46,12.52-25.98,7.47-6.53,16.98-9.79,28.53-9.79s20.65,3.27,27.68,9.79c7.03,6.53,10.54,15,10.54,25.42,0,5.65-.94,10.67-2.82,15.06-1.88,4.4-4.21,7.85-6.97,10.36-2.76,2.51-5.81,5.12-9.13,7.81-3.33,2.7-6.37,5.18-9.13,7.44-2.76,2.26-5.08,5.37-6.97,9.32-1.88,3.95-2.83,8.44-2.83,13.46h-12.62Zm-1.13,17.89h14.88v16.76h-14.88v-16.76Z"></path>
  <line class="cls-1" x1="352.17" y1="235.73" x2="408.72" y2="235.73"></line>
  <line class="cls-1" x1="352.17" y1="281.36" x2="408.72" y2="281.36"></line>
  <line class="cls-1" x1="226.7" y1="326.98" x2="408.72" y2="326.98"></line>
</svg>
