<?xml version="1.0" encoding="UTF-8"?>
<svg xmlns="http://www.w3.org/2000/svg" id="Layer_1" viewBox="0 0 512 512">
  <defs>
    <style>.cls-1{fill:none;stroke:#000;stroke-miterlimit:10;stroke-width:11.54px;}</style>
  </defs>
  <g>
    <g>
      <path class="cls-1" d="M282.97,55.13c21.04,4.77,41.74,12.74,61.41,24.1,88.67,51.2,128.22,154.81,102.08,249.11"></path>
      <path d="M424.89,379.7c.83-27.95-2.34-64.32-11.06-89.61l34.72,31.2,46.64,1.77c-23.86,12.08-51.46,36-70.31,56.64Z"></path>
    </g>
    <g>
      <path class="cls-1" d="M16.49,299.79c-6.49-46.78,1.97-95.98,27.42-140.05,30.68-53.14,80.19-88.64,135.23-102.93"></path>
      <path d="M234.4,49.72c-24.59,13.3-54.47,34.29-71.97,54.52l9.57-45.69-21.87-41.23c22.43,14.58,56.95,26.45,84.27,32.4Z"></path>
    </g>
    <g>
      <path class="cls-1" d="M399,415.7c-67.86,76.68-182.46,97.69-274.58,44.51-17.58-10.15-33.23-22.36-46.82-36.15"></path>
      <path d="M43.87,379.72c23.79,14.69,56.88,30.14,83.13,35.23l-44.39,14.47-24.85,39.51c1.47-26.71-5.44-62.56-13.9-89.21Z"></path>
    </g>
    <path class="cls-1" d="M15.98,296.22c1.66,13.8,4.59,27.21,8.68,40.11"></path>
    <path class="cls-1" d="M235.93,203.42l15.61,48.03c.22,.66,.84,1.12,1.53,1.12h50.51c1.56,0,2.21,2,.95,2.92l-40.86,29.69c-.57,.41-.8,1.14-.59,1.8l15.61,48.03c.48,1.49-1.22,2.72-2.48,1.8l-40.86-29.69c-.57-.41-1.33-.41-1.9,0l-40.86,29.69c-1.26,.92-2.97-.32-2.48-1.8l15.61-48.03c.22-.66-.02-1.39-.59-1.8l-40.86-29.69c-1.26-.92-.61-2.92,.95-2.92h50.51c.7,0,1.32-.45,1.53-1.12l15.61-48.03c.48-1.49,2.59-1.49,3.07,0Z"></path>
  </g>
  <circle class="cls-1" cx="234.4" cy="269.72" r="143.36"></circle>
</svg>
