<?xml version="1.0" encoding="UTF-8"?>
<svg xmlns="http://www.w3.org/2000/svg" id="Layer_1" viewBox="0 0 512 512">
  <defs>
    <style>.cls-1{fill:none;stroke:#000;stroke-miterlimit:10;stroke-width:11.54px;}</style>
  </defs>
  <circle class="cls-1" cx="111.23" cy="340.07" r="100.23"></circle>
  <line class="cls-1" x1="111.23" y1="440.3" x2="501" y2="440.3"></line>
  <rect class="cls-1" x="427.64" y="196.66" width="73.36" height="243.63"></rect>
  <rect class="cls-1" x="332.03" y="260.53" width="73.36" height="179.77"></rect>
  <rect class="cls-1" x="236.43" y="324.39" width="73.36" height="115.91"></rect>
  <g>
    <line class="cls-1" x1="221.07" y1="270.39" x2="466.81" y2="95.89"></line>
    <path d="M500.87,71.7c-11.81,17.33-24.49,41.6-29.18,61.11l-9.35-33.74-28.77-19.94c19.96,1.99,47.06-1.98,67.31-7.42Z"></path>
  </g>
  <line class="cls-1" x1="111.23" y1="340.07" x2="75.95" y2="304.8"></line>
  <line class="cls-1" x1="58.02" y1="393.28" x2="111.23" y2="340.07"></line>
  <circle class="cls-1" cx="111.31" cy="340.56" r="7.39"></circle>
  <line class="cls-1" x1="111.23" y1="239.84" x2="111.23" y2="277.23"></line>
  <line class="cls-1" x1="111.23" y1="402.91" x2="111.23" y2="440.3"></line>
</svg>
