<?xml version="1.0" encoding="UTF-8"?>
<svg xmlns="http://www.w3.org/2000/svg" id="Layer_1" viewBox="0 0 512 512">
  <defs>
    <style>.cls-1{fill:none;stroke:#000;stroke-miterlimit:10;stroke-width:11.54px;}</style>
  </defs>
  <path class="cls-1" d="M24.23,287.52c-1.36-10.31-2.06-20.83-2.06-31.52C22.17,123.77,129.36,16.58,261.58,16.58s239.42,107.19,239.42,239.42-107.19,239.42-239.42,239.42c-42.38,0-82.19-11.01-116.72-30.33"></path>
  <path class="cls-1" d="M165.22,248.78c1.54-128.88,44.09-232.19,96.36-232.19s96.41,107.19,96.41,239.42-43.16,239.42-96.41,239.42c-26.72,0-50.9-26.99-68.36-70.59"></path>
  <line class="cls-1" x1="54.55" y1="138.76" x2="468.62" y2="138.76"></line>
  <line class="cls-1" x1="216.87" y1="376.63" x2="468.62" y2="376.63"></line>
  <line class="cls-1" x1="180.64" y1="257.7" x2="501" y2="257.7"></line>
  <path class="cls-1" d="M222.49,342.6c0-58.4-47.34-105.75-105.75-105.75S11,284.2,11,342.6c0,29.2,11.84,55.64,30.97,74.77l74.77,74.77,74.77-74.77c19.14-19.14,30.98-45.57,30.98-74.78Z"></path>
  <circle class="cls-1" cx="116.75" cy="342.6" r="45.23"></circle>
</svg>
