<?xml version="1.0" encoding="UTF-8"?>
<svg xmlns="http://www.w3.org/2000/svg" id="Layer_1" viewBox="0 0 512 512">
  <defs>
    <style>.cls-1{fill:none;stroke:#000;stroke-miterlimit:10;stroke-width:11.54px;}</style>
  </defs>
  <polygon class="cls-1" points="341.64 156.7 353.98 194.7 393.93 194.7 361.61 218.18 373.96 256.17 341.64 232.69 309.32 256.17 321.66 218.18 289.34 194.7 329.29 194.7 341.64 156.7"></polygon>
  <polyline class="cls-1" points="350.59 310.7 390.73 396.78 410.44 354.52 453.2 368.08 420.96 298.95"></polyline>
  <polyline class="cls-1" points="334.02 310.7 293.89 396.78 274.18 354.52 231.42 368.08 263.65 298.95"></polyline>
  <path class="cls-1" d="M355.23,99.66h0c1.77,12.2,17.47,16.07,24.71,6.09h0c9.3-12.82,29.34-2.31,24.07,12.63h0c-4.1,11.62,8,22.34,19.05,16.87h0c14.2-7.03,27.05,11.59,15.44,22.37h0c-9.03,8.39-3.3,23.5,9.02,23.79h0c15.84,.37,18.57,22.83,3.28,26.98h0c-11.89,3.23-13.84,19.28-3.07,25.26h0c13.85,7.69,5.83,28.84-9.64,25.41h0c-12.03-2.67-21.22,10.64-14.46,20.94h0c8.69,13.25-8.24,28.25-20.35,18.02h0c-9.41-7.95-23.73-.44-22.53,11.83h0c1.54,15.77-20.43,21.18-26.39,6.51h0c-4.64-11.42-20.81-11.42-25.45,0h0c-5.96,14.68-27.93,9.26-26.39-6.5h0c1.2-12.27-13.12-19.78-22.53-11.83h0c-12.1,10.22-29.04-4.78-20.35-18.02h0c6.76-10.3-2.42-23.61-14.46-20.94h0c-15.47,3.43-23.49-17.73-9.64-25.41h0c10.78-5.98,8.83-22.03-3.07-25.26h0c-15.29-4.15-12.56-26.61,3.28-26.98h0c12.32-.29,18.05-15.41,9.02-23.79h0c-11.61-10.78,1.24-29.4,15.44-22.37h0c11.04,5.47,23.15-5.25,19.05-16.87h0c-5.27-14.94,14.76-25.46,24.07-12.63h0c7.24,9.98,22.93,6.11,24.71-6.09h0c2.28-15.68,24.9-15.68,27.18,0Z"></path>
  <polyline class="cls-1" points="410.09 434.88 410.09 501 51.07 501 51.07 11 410.09 11 410.09 43.97"></polyline>
  <line class="cls-1" x1="89.53" y1="89.73" x2="222.34" y2="89.73"></line>
  <line class="cls-1" x1="89.53" y1="124.75" x2="183.68" y2="124.75"></line>
  <line class="cls-1" x1="89.53" y1="451.29" x2="222.34" y2="451.29"></line>
  <line class="cls-1" x1="89.53" y1="416.27" x2="183.68" y2="416.27"></line>
</svg>
