<?xml version="1.0" encoding="UTF-8"?>
<svg xmlns="http://www.w3.org/2000/svg" id="Layer_1" viewBox="0 0 512 512">
  <defs>
    <style>.cls-1{fill:none;stroke:#000;stroke-miterlimit:10;stroke-width:11.54px;}</style>
  </defs>
  <polygon class="cls-1" points="11 106.71 11 300.98 75.62 300.98 123.18 128.66 11 106.71"></polygon>
  <line class="cls-1" x1="117.58" y1="148.92" x2="214.83" y2="148.92"></line>
  <path class="cls-1" d="M384.92,173.06s-105.32-43.13-123.46-43.13-51.82,20.42-68.89,43.13c-17.07,22.71-20.58,39.93-20.58,45.57s6.55,20.12,21.49,20.12,34.6-9.3,43.13-23.78c0,0,24.54-7.67,29.01-11.02,0,0,121.73,98.87,128.64,114.51,6.91,15.65-7.52,42.07-29.47,34.34,0,0-3.66,33.12-42.27,21.54,0,0-6.42,30.95-42.27,23.17,0,0-21.54,18.29-48.98-1.22-27.43-19.51-96.3-61.18-147.98-123.15"></path>
  <line class="cls-1" x1="394.27" y1="318.46" x2="430.04" y2="296.11"></line>
  <polygon class="cls-1" points="501 318.46 438.57 318.46 375.67 148.92 501 129.93 501 318.46"></polygon>
  <line class="cls-1" x1="218.69" y1="333.91" x2="280.26" y2="397.51"></line>
  <line class="cls-1" x1="262.17" y1="312.37" x2="322.53" y2="374.35"></line>
  <line class="cls-1" x1="292.35" y1="281.38" x2="364.8" y2="352.81"></line>
</svg>
