<?xml version="1.0" encoding="UTF-8"?>
<svg xmlns="http://www.w3.org/2000/svg" id="Layer_1" viewBox="0 0 512 512">
  <defs>
    <style>.cls-1{stroke-linejoin:bevel;stroke-width:11.54px;}.cls-1,.cls-2{fill:none;stroke:#000;}.cls-2{stroke-miterlimit:10;stroke-width:11.54px;}</style>
  </defs>
  <g>
    <path class="cls-2" d="M78.27,434.88l93.2-92.19s17.98-13.76,44.99-10.85c27.01,2.91,109.06,13.31,109.06,13.31,0,0,19.73,3.46,16.57,22.29-2.9,17.24-15.82,16.37-21.24,15.72-5.42-.65-85.5-9.38-85.5-9.38"></path>
    <path class="cls-2" d="M341.79,369l56.74-56.59c8.06-8.04,21.1-8.03,29.15,.02h0c8.01,8.01,8.06,20.97,.13,29.04l-85.97,87.32c-8.55,8.68-19.38,14.75-31.25,17.5-36.6,8.49-117.48,27.23-137.89,31.9-4.23,.97-8.1,3.09-11.19,6.14l-16.92,16.67"></path>
  </g>
  <circle class="cls-2" cx="265.94" cy="206.43" r="100.02"></circle>
  <g>
    <line class="cls-2" x1="173.17" y1="60.77" x2="173.17" y2="133.01"></line>
    <line class="cls-2" x1="358.71" y1="60.77" x2="358.71" y2="133.01"></line>
  </g>
  <line class="cls-2" x1="265.94" y1="11" x2="265.94" y2="83.24"></line>
  <g>
    <line class="cls-1" x1="239.26" y1="170.33" x2="303.72" y2="170.33"></line>
    <line class="cls-1" x1="239.26" y1="194.03" x2="303.72" y2="194.03"></line>
    <path class="cls-1" d="M259.32,170.33c13.09,0,23.7,10.61,23.7,23.7s-10.61,23.7-23.7,23.7h-20.06l45.58,45.58"></path>
  </g>
</svg>
