<?xml version="1.0" encoding="UTF-8"?>
<svg xmlns="http://www.w3.org/2000/svg" id="Layer_1" viewBox="0 0 512 512">
  <defs>
    <style>.cls-1{fill:none;stroke:#000;stroke-miterlimit:10;stroke-width:11.54px;}</style>
  </defs>
  <polygon class="cls-1" points="292.53 205.63 223.13 245.7 223.13 325.84 292.53 365.91 361.93 325.84 361.93 245.7 292.53 205.63"></polygon>
  <polygon class="cls-1" points="361.93 325.84 292.53 365.91 292.53 446.05 361.93 486.12 431.34 446.05 431.34 365.91 361.93 325.84"></polygon>
  <polygon class="cls-1" points="153.73 205.63 84.32 245.7 84.32 325.84 153.73 365.91 223.13 325.84 223.13 245.7 153.73 205.63"></polygon>
  <polygon class="cls-1" points="361.93 85.46 292.53 125.53 292.53 205.63 361.93 245.73 431.34 205.66 431.34 125.53 361.93 85.46"></polygon>
  <polygon class="cls-1" points="223.13 85.42 153.73 125.49 153.73 205.63 223.13 245.7 292.53 205.63 292.53 125.49 223.13 85.42"></polygon>
  <line class="cls-1" x1="361.93" y1="85.46" x2="361.93" y2="43.48"></line>
  <line class="cls-1" x1="223.13" y1="85.46" x2="223.13" y2="43.48"></line>
  <line class="cls-1" x1="84.32" y1="245.7" x2="54.64" y2="216.02"></line>
  <line class="cls-1" x1="461.01" y1="235.34" x2="431.34" y2="205.66"></line>
  <line class="cls-1" x1="262.85" y1="475.73" x2="292.53" y2="446.05"></line>
  <circle class="cls-1" cx="361.93" cy="26.11" r="15.11"></circle>
  <circle class="cls-1" cx="223.13" cy="26.11" r="15.11"></circle>
  <circle class="cls-1" cx="44.64" cy="204.6" r="15.11"></circle>
  <circle class="cls-1" cx="467.36" cy="245.7" r="15.11"></circle>
  <circle class="cls-1" cx="252.51" cy="485.89" r="15.11"></circle>
  <polyline class="cls-1" points="180.34 190.26 180.34 140.86 223.13 116.15"></polyline>
  <polyline class="cls-1" points="404.72 190.3 404.72 140.89 361.93 116.19"></polyline>
  <polyline class="cls-1" points="319.14 430.68 361.93 455.38 404.72 430.68"></polyline>
  <polyline class="cls-1" points="110.94 261.06 110.94 310.47 153.73 335.18"></polyline>
  <polyline class="cls-1" points="249.55 309.66 292.34 334.37 335.13 309.66"></polyline>
</svg>
