<?xml version="1.0" encoding="UTF-8"?>
<svg xmlns="http://www.w3.org/2000/svg" id="Layer_1" viewBox="0 0 512 512">
  <defs>
    <style>.cls-1{fill:none;stroke:#000;stroke-miterlimit:10;stroke-width:11.54px;}</style>
  </defs>
  <g>
    <g>
      <path class="cls-1" d="M223.64,44.17c0-4.22,.82-8.23,2.25-11.94H95.76c8.81,8.81,13.75,13.75,22.55,22.56h107.13c-1.13-3.34-1.79-6.89-1.79-10.61Z"></path>
      <path class="cls-1" d="M287.72,32.22c1.44,3.71,2.25,7.73,2.25,11.94,0,3.72-.66,7.27-1.79,10.61h106.37c8.81-8.81,13.75-13.75,22.56-22.56h-129.39Z"></path>
    </g>
    <path class="cls-1" d="M270.16,322.77V74.51c11.66-5.14,19.81-16.78,19.81-30.35,0-18.32-14.85-33.17-33.17-33.17s-33.17,14.85-33.17,33.17c0,13.56,8.15,25.21,19.81,30.35v248.26"></path>
    <path class="cls-1" d="M211.2,198.84c0,40.32-32.68,73-73,73s-73-32.68-73-73L138.2,65.88l73,132.96Z"></path>
    <line class="cls-1" x1="65.2" y1="198.93" x2="211.2" y2="198.93"></line>
    <path class="cls-1" d="M449.63,198.84c0,40.32-32.68,73-73,73s-73-32.68-73-73l73-132.96,73,132.96Z"></path>
    <line class="cls-1" x1="303.62" y1="198.93" x2="449.63" y2="198.93"></line>
  </g>
  <path class="cls-1" d="M62.37,430.01l100.06-98.98s19.3-14.77,48.31-11.65c29.01,3.13,117.1,14.29,117.1,14.29,0,0,21.19,3.72,17.79,23.94-3.11,18.51-16.98,17.57-22.81,16.87-5.82-.7-91.8-10.07-91.8-10.07"></path>
  <path class="cls-1" d="M345.31,359.27l60.92-60.76c8.65-8.63,22.66-8.62,31.3,.02h0c8.6,8.6,8.66,22.51,.14,31.18l-92.3,93.75c-9.18,9.32-20.81,15.84-33.55,18.79-39.3,9.11-126.13,29.24-148.05,34.25-4.54,1.04-8.7,3.32-12.02,6.59l-18.16,17.9"></path>
</svg>
