<?xml version="1.0" encoding="UTF-8"?>
<svg xmlns="http://www.w3.org/2000/svg" id="Layer_1" viewBox="0 0 512 512">
  <defs>
    <style>.cls-1{fill:none;stroke:#000;stroke-linejoin:bevel;stroke-width:11.54px;}</style>
  </defs>
  <path class="cls-1" d="M189.83,225.44l23.64-70.04c.33-.97,0-2.04-.83-2.65l-59.31-44.13c-1.84-1.37-.85-4.28,1.44-4.26l73.92,.84c1.02,.01,1.94-.64,2.26-1.61l23.64-70.04c.73-2.17,3.81-2.13,4.49,.05l22.04,70.56c.31,.98,1.2,1.65,2.23,1.66l73.92,.84c2.29,.03,3.21,2.96,1.34,4.29l-60.3,42.77c-.83,.59-1.19,1.65-.89,2.63l22.04,70.56c.68,2.18-1.83,3.97-3.66,2.6l-59.31-44.13c-.82-.61-1.94-.62-2.78-.03l-60.3,42.77c-1.87,1.32-4.34-.51-3.6-2.68Z"></path>
  <g>
    <g>
      <path class="cls-1" d="M209.57,501v-126.52s3.15-30.9-35.35-61.02l-83.05-65.94s-15.09-7.12-25.49,3.27c-12.18,12.18,0,28.63,0,28.63l73.42,57.72"></path>
      <path class="cls-1" d="M111.7,501v-34.99L27.55,330.48s-7.31-7.76-7.31-35.03V161.55s0-18.18,18.71-18.18c20.58,0,21.39,15.48,21.39,17.54v102.1"></path>
    </g>
    <g>
      <path class="cls-1" d="M302.43,501v-126.52s-3.15-30.9,35.35-61.02l83.05-65.94s15.09-7.12,25.49,3.27c12.18,12.18,0,28.63,0,28.63l-73.42,57.72"></path>
      <path class="cls-1" d="M400.3,501v-34.99l84.15-135.53s7.31-7.76,7.31-35.03V161.55s0-18.18-18.71-18.18c-20.58,0-21.39,15.48-21.39,17.54v102.1"></path>
    </g>
  </g>
</svg>
