<?xml version="1.0" encoding="UTF-8"?>
<svg xmlns="http://www.w3.org/2000/svg" id="Layer_1" viewBox="0 0 512 512">
  <defs>
    <style>.cls-1{fill:none;stroke:#000;stroke-miterlimit:10;stroke-width:11.54px;}</style>
  </defs>
  <line class="cls-1" x1="140.44" y1="374.24" x2="273.67" y2="374.24"></line>
  <line class="cls-1" x1="140.44" y1="311.65" x2="273.67" y2="311.65"></line>
  <line class="cls-1" x1="140.44" y1="436.83" x2="241.72" y2="436.83"></line>
  <polyline class="cls-1" points="430.57 465.07 430.57 490.13 82.6 490.13 82.6 21.87 338 21.87 430.57 114.44 430.57 133.54"></polyline>
  <rect class="cls-1" x="405.37" y="228.92" width="50.41" height="179.85"></rect>
  <path class="cls-1" d="M405.37,408.77h50.41v21.46c0,7.52-6.11,13.62-13.62,13.62h-23.16c-7.52,0-13.62-6.11-13.62-13.62v-21.46h0Z"></path>
  <polygon class="cls-1" points="455.78 228.92 405.37 228.92 430.57 166.59 455.78 228.92"></polygon>
  <rect class="cls-1" x="140.44" y="66.66" width="148.15" height="148.15"></rect>
</svg>
