<?xml version="1.0" encoding="UTF-8"?>
<svg xmlns="http://www.w3.org/2000/svg" id="Layer_1" viewBox="0 0 512 512">
  <path d="M143.4,250.79h225.19c4.03,0,7.3-3.27,7.3-7.3V18.3c0-4.03-3.27-7.3-7.3-7.3H143.4c-4.03,0-7.3,3.27-7.3,7.3V243.49c0,4.03,3.27,7.3,7.3,7.3Zm7.3-14.6V85.65h62.97v39.12c0,2.95,1.78,5.61,4.51,6.74,.9,.37,1.85,.55,2.79,.55,1.9,0,3.77-.74,5.16-2.14l29.87-29.87,29.87,29.87c2.09,2.09,5.23,2.7,7.95,1.58,2.72-1.13,4.5-3.79,4.5-6.74v-39.12h62.97V236.19H150.7ZM228.27,25.6h55.47V107.15l-22.57-22.57c-2.74-2.74-7.58-2.74-10.32,0l-22.57,22.57V25.6Zm133.03,45.46h-62.97V25.6h62.97v45.46ZM213.67,25.6v45.46h-62.97V25.6h62.97Z"></path>
  <path d="M220.97,178.64h-50.04c-4.03,0-7.3,3.27-7.3,7.3v30.03c0,4.03,3.27,7.3,7.3,7.3h50.04c4.03,0,7.3-3.27,7.3-7.3v-30.03c0-4.03-3.27-7.3-7.3-7.3Zm-7.3,30.03h-35.45v-15.43h35.45v15.43Z"></path>
  <path d="M473.36,136.42c-15.24,0-27.64,12.4-27.64,27.64v76.41c-3.03-1.62-6.36-2.68-9.87-3.09-7.33-.83-14.55,1.21-20.34,5.8l-89.1,70.66c-19.2,15.23-30.15,38.02-30.04,62.5l.13,117.37c0,4.03,3.27,7.29,7.3,7.29h0c4.03,0,7.29-3.27,7.29-7.31l-.13-117.4c-.09-20,8.85-38.6,24.52-51.03l89.1-70.66c5.63-4.47,13.85-3.51,18.32,2.11,4.47,5.64,3.52,13.86-2.12,18.33l-65.35,51.83c-3.16,2.5-3.69,7.09-1.18,10.25,2.5,3.16,7.09,3.68,10.25,1.18l65.35-51.83c5.79-4.59,9.44-11.15,10.29-18.48,.15-1.28,.17-2.55,.15-3.81,0-.11,.03-100.14,.03-100.14,0-7.19,5.85-13.04,13.04-13.04s13.04,5.85,13.04,13.04v141.75c0,7.18-2.01,14.19-5.81,20.27l-85.12,136.34c-.72,1.16-1.11,2.5-1.11,3.86v27.42c0,4.03,3.27,7.3,7.3,7.3s7.3-3.27,7.3-7.3v-25.33l84.02-134.57c5.25-8.41,8.02-18.09,8.02-28V164.05c0-15.24-12.4-27.64-27.64-27.64Z"></path>
  <path d="M185.58,313.83l-89.09-70.66c-8.88-7.05-20.8-7.73-30.21-2.7v-76.42c0-15.24-12.4-27.64-27.64-27.64s-27.64,12.4-27.64,27.64v141.75c0,9.91,2.77,19.59,8.02,28l84.02,134.57v25.33c0,4.03,3.27,7.3,7.3,7.3s7.3-3.27,7.3-7.3v-27.42c0-1.37-.38-2.7-1.11-3.86L31.41,326.08c-3.8-6.09-5.81-13.1-5.81-20.27V164.05c0-7.19,5.85-13.04,13.04-13.04s13.04,5.85,13.04,13.04c0,0,.03,100.11,.04,100.25-.15,8.32,3.41,16.62,10.42,22.18l65.35,51.83c3.16,2.5,7.75,1.98,10.25-1.18,2.5-3.16,1.98-7.75-1.18-10.25l-65.35-51.83c-5.63-4.47-6.58-12.69-2.12-18.32,4.46-5.63,12.69-6.58,18.32-2.11l89.09,70.66c15.67,12.42,24.61,31.02,24.52,51.05l-.13,117.37c0,4.03,3.26,7.3,7.29,7.31h0c4.03,0,7.29-3.26,7.3-7.29l.13-117.35c.11-24.51-10.85-47.3-30.05-62.53Z"></path>
</svg>
