<?xml version="1.0" encoding="UTF-8"?>
<svg xmlns="http://www.w3.org/2000/svg" id="Layer_1" viewBox="0 0 512 512">
  <defs>
    <style>.cls-1{fill:none;stroke:#000;stroke-miterlimit:10;stroke-width:11.54px;}</style>
  </defs>
  <g>
    <circle class="cls-1" cx="255.98" cy="68.62" r="31.54"></circle>
    <circle class="cls-1" cx="367.13" cy="134.75" r="31.54"></circle>
    <circle class="cls-1" cx="367.13" cy="266.66" r="31.54"></circle>
    <circle class="cls-1" cx="145.28" cy="134.75" r="31.54"></circle>
    <circle class="cls-1" cx="145.28" cy="262.83" r="31.54"></circle>
    <polyline class="cls-1" points="302.8 301.77 368.47 263.86 368.47 133.97 255.98 69.03 143.5 133.97 143.5 263.86 210.09 302.3"></polyline>
    <rect class="cls-1" x="200.19" y="175.23" width="111.6" height="27.61"></rect>
    <polyline class="cls-1" points="255.98 472.44 341.79 472.44 374.77 411.84 299.16 298.2 299.16 202.84 212.81 202.84 212.81 298.2 137.2 411.84 170.18 472.44 255.98 472.44"></polyline>
  </g>
  <path class="cls-1" d="M142.49,421.57l67.62-17.75c6.33-1.66,13-1.42,19.2,.68l27.19,9.24c8.14,2.77,17.04,2.28,24.84-1.35l30.26-14.12c11.28-5.27,24.56-3.81,34.43,3.78l24.02,18.46"></path>
</svg>
