<?xml version="1.0" encoding="UTF-8"?>
<svg xmlns="http://www.w3.org/2000/svg" id="Layer_1" viewBox="0 0 512 512">
  <defs>
    <style>.cls-1{fill:none;stroke:#000;stroke-miterlimit:10;stroke-width:11.54px;}</style>
  </defs>
  <path class="cls-1" d="M371.56,144.55s-97.16,97.3-111.64,111.79c-14.49,14.49-8.21,36.02-8.21,36.02l-35.41,34.55,27.21,29.37,35.79-35.79s23.02,3.43,34.77-8.31c11.74-11.74,112.62-112.51,112.62-112.51"></path>
  <rect class="cls-1" x="334.06" y="129.47" width="166.28" height="50.3" rx="24.86" ry="24.86" transform="translate(231.53 -249.72) rotate(45)"></rect>
  <path class="cls-1" d="M461.76,164.48l27.82-27.82c15.23-15.23,15.23-39.91,0-55.14h0c-15.23-15.23-39.91-15.23-55.14,0l-27.74,27.74"></path>
  <path class="cls-1" d="M228.16,401.76l-20.06-35.71-21.53,35.94c-2.86,4.11-4.54,9.1-4.54,14.49,0,14.04,11.38,25.43,25.43,25.43s25.43-11.38,25.43-25.43c0-5.49-1.76-10.56-4.71-14.71Z"></path>
  <path class="cls-1" d="M253.46,93.41l-10.36,30.7c-.14,.42,0,.89,.36,1.16l25.99,19.34c.8,.6,.37,1.88-.63,1.87l-32.39-.37c-.45,0-.85,.28-.99,.7l-10.36,30.7c-.32,.95-1.67,.93-1.97-.02l-9.66-30.92c-.13-.43-.53-.72-.98-.73l-32.39-.37c-1-.01-1.41-1.3-.59-1.88l26.42-18.74c.37-.26,.52-.72,.39-1.15l-9.66-30.92c-.3-.96,.8-1.74,1.61-1.14l25.99,19.34c.36,.27,.85,.27,1.22,.01l26.42-18.74c.82-.58,1.9,.23,1.58,1.18Z"></path>
  <path class="cls-1" d="M121.88,172.8l-10.36,30.7c-.14,.42,0,.89,.36,1.16l25.99,19.34c.8,.6,.37,1.88-.63,1.87l-32.39-.37c-.45,0-.85,.28-.99,.7l-10.36,30.7c-.32,.95-1.67,.93-1.97-.02l-9.66-30.92c-.13-.43-.53-.72-.98-.73l-32.39-.37c-1-.01-1.41-1.3-.59-1.88l26.42-18.74c.37-.26,.52-.72,.39-1.15l-9.66-30.92c-.3-.96,.8-1.74,1.61-1.14l25.99,19.34c.36,.27,.85,.27,1.22,.01l26.42-18.74c.82-.58,1.9,.23,1.58,1.18Z"></path>
  <path class="cls-1" d="M85.41,319.26l-10.36,30.7c-.14,.42,0,.89,.36,1.16l25.99,19.34c.8,.6,.37,1.88-.63,1.87l-32.39-.37c-.45,0-.85,.28-.99,.7l-10.36,30.7c-.32,.95-1.67,.93-1.97-.02l-9.66-30.92c-.13-.43-.53-.72-.98-.73l-32.39-.37c-1-.01-1.41-1.3-.59-1.88l26.42-18.74c.37-.26,.52-.72,.39-1.15l-9.66-30.92c-.3-.96,.8-1.74,1.61-1.14l25.99,19.34c.36,.27,.85,.27,1.22,.01l26.42-18.74c.82-.58,1.9,.23,1.58,1.18Z"></path>
</svg>
