<?xml version="1.0" encoding="UTF-8"?>
<svg xmlns="http://www.w3.org/2000/svg" id="Layer_1" viewBox="0 0 512 512">
  <defs>
    <style>.cls-1{fill:none;stroke:#000;stroke-miterlimit:10;stroke-width:11.54px;}</style>
  </defs>
  <polygon class="cls-1" points="256 147.74 271.61 195.77 322.11 195.77 281.25 225.46 296.86 273.49 256 243.8 215.14 273.49 230.75 225.46 189.89 195.77 240.39 195.77 256 147.74"></polygon>
  <polyline class="cls-1" points="267.32 342.41 318.06 451.23 342.97 397.8 397.03 414.95 356.28 327.56"></polyline>
  <polyline class="cls-1" points="246.37 342.41 195.64 451.23 170.72 397.8 116.67 414.95 157.42 327.56"></polyline>
  <path class="cls-1" d="M273.18,75.64h0c2.24,15.42,22.08,20.31,31.23,7.7h0c11.76-16.21,37.09-2.92,30.42,15.97h0c-5.18,14.69,10.12,28.25,24.08,21.33h0c17.95-8.89,34.19,14.65,19.52,28.28h0c-11.42,10.6-4.17,29.71,11.41,30.08h0c20.02,.47,23.47,28.86,4.14,34.11h0c-15.04,4.08-17.5,24.37-3.88,31.93h0c17.51,9.72,7.37,36.46-12.18,32.13h0c-15.21-3.37-26.82,13.45-18.27,26.47h0c10.99,16.74-10.42,35.71-25.72,22.79h0c-11.9-10.06-30-.56-28.48,14.95h0c1.95,19.93-25.82,26.78-33.36,8.22h0c-5.86-14.43-26.3-14.43-32.17,0h0c-7.54,18.55-35.31,11.71-33.36-8.22h0c1.51-15.51-16.58-25-28.48-14.95h0c-15.3,12.93-36.71-6.04-25.72-22.78h0c8.55-13.03-3.06-29.85-18.27-26.47h0c-19.55,4.34-29.69-22.41-12.18-32.13h0c13.62-7.56,11.16-27.85-3.88-31.93h0c-19.33-5.25-15.88-33.64,4.14-34.11h0c15.58-.37,22.82-19.47,11.41-30.08h0c-14.67-13.63,1.57-37.17,19.52-28.28h0c13.96,6.91,29.26-6.64,24.08-21.33h0c-6.66-18.89,18.66-32.18,30.42-15.97h0c9.15,12.61,28.99,7.72,31.23-7.7h0c2.88-19.82,31.48-19.82,34.36,0Z"></path>
</svg>
