<?xml version="1.0" encoding="UTF-8"?>
<svg xmlns="http://www.w3.org/2000/svg" xmlns:xlink="http://www.w3.org/1999/xlink" width="502px" height="390px" viewBox="0 0 502 390" version="1.1">
  <g id="Page-4" stroke="none" stroke-width="1" fill="none" fill-rule="evenodd">
    <g id="Best-ingredient-quality" transform="translate(6.002538, 12.107500)" stroke="#000" stroke-width="11.54">
      <path d="M360.557462,74.4525 C360.557462,74.4525 263.397462,171.7525 248.917462,186.2425 C234.427462,200.7325 240.707462,222.2625 240.707462,222.2625 L205.297462,256.8125 L232.507462,286.1825 L268.297462,250.3925 C268.297462,250.3925 291.317462,253.8225 303.067462,242.0825 C314.807462,230.3425 415.687462,129.5725 415.687462,129.5725" id="Path"></path>
      <rect id="Rectangle" transform="translate(406.199561, 84.520300) rotate(45.000000) translate(-406.199561, -84.520300) " x="323.059561" y="59.3702996" width="166.28" height="50.3" rx="24.86"></rect>
      <path d="M450.757462,94.3825 L478.577462,66.5625 C493.807462,51.3325 493.807462,26.6525 478.577462,11.4225 L478.577462,11.4225 C463.347462,-3.8075 438.667462,-3.8075 423.437462,11.4225 L395.697462,39.1625" id="Path"></path>
      <path d="M217.157462,331.6625 L197.097462,295.9525 L175.567462,331.8925 C172.707462,336.0025 171.027462,340.9925 171.027462,346.3825 C171.027462,360.4225 182.407462,371.8125 196.457462,371.8125 C210.507462,371.8125 221.887462,360.4325 221.887462,346.3825 C221.887462,340.8925 220.127462,335.8225 217.177462,331.6725 L217.157462,331.6625 Z" id="Path"></path>
      <path d="M242.457462,23.3125 L232.097462,54.0125 C231.957462,54.4325 232.097462,54.9025 232.457462,55.1725 L258.447462,74.5125 C259.247462,75.1125 258.817462,76.3925 257.817462,76.3825 L225.427462,76.0125 C224.977462,76.0125 224.577462,76.2925 224.437462,76.7125 L214.077462,107.4125 C213.757462,108.3625 212.407462,108.3425 212.107462,107.3925 L202.447462,76.4725 C202.317462,76.0425 201.917462,75.7525 201.467462,75.7425 L169.077462,75.3725 C168.077462,75.3625 167.667462,74.0725 168.487462,73.4925 L194.907462,54.7525 C195.277462,54.4925 195.427462,54.0325 195.297462,53.6025 L185.637462,22.6825 C185.337462,21.7225 186.437462,20.9425 187.247462,21.5425 L213.237462,40.8825 C213.597462,41.1525 214.087462,41.1525 214.457462,40.8925 L240.877462,22.1525 C241.697462,21.5725 242.777462,22.3825 242.457462,23.3325 L242.457462,23.3125 Z" id="Path"></path>
      <path d="M110.877462,102.7025 L100.517462,133.4025 C100.377462,133.8225 100.517462,134.2925 100.877462,134.5625 L126.867462,153.9025 C127.667462,154.5025 127.237462,155.7825 126.237462,155.7725 L93.847462,155.4025 C93.397462,155.4025 92.997462,155.6825 92.857462,156.1025 L82.497462,186.8025 C82.177462,187.7525 80.827462,187.7325 80.527462,186.7825 L70.867462,155.8625 C70.737462,155.4325 70.337462,155.1425 69.887462,155.1325 L37.497462,154.7625 C36.497462,154.7525 36.087462,153.4625 36.907462,152.8825 L63.327462,134.1425 C63.697462,133.8825 63.847462,133.4225 63.717462,132.9925 L54.057462,102.0725 C53.757462,101.1125 54.857462,100.3325 55.667462,100.9325 L81.657462,120.2725 C82.017462,120.5425 82.507462,120.5425 82.877462,120.2825 L109.297462,101.5425 C110.117462,100.9625 111.197462,101.7725 110.877462,102.7225 L110.877462,102.7025 Z" id="Path"></path>
      <path d="M74.407462,249.1625 L64.047462,279.8625 C63.907462,280.2825 64.047462,280.7525 64.407462,281.0225 L90.397462,300.3625 C91.197462,300.9625 90.767462,302.2425 89.767462,302.2325 L57.377462,301.8625 C56.927462,301.8625 56.527462,302.1425 56.387462,302.5625 L46.027462,333.2625 C45.707462,334.2125 44.357462,334.1925 44.057462,333.2425 L34.397462,302.3225 C34.267462,301.8925 33.867462,301.6025 33.417462,301.5925 L1.02746196,301.2225 C0.0274619607,301.2125 -0.382538039,299.9225 0.437461961,299.3425 L26.857462,280.6025 C27.227462,280.3425 27.377462,279.8825 27.247462,279.4525 L17.587462,248.5325 C17.287462,247.5725 18.387462,246.7925 19.197462,247.3925 L45.187462,266.7325 C45.547462,267.0025 46.037462,267.0025 46.407462,266.7425 L72.827462,248.0025 C73.647462,247.4225 74.727462,248.2325 74.407462,249.1825 L74.407462,249.1625 Z" id="Path"></path>
    </g>
  </g>
</svg>
