<?xml version="1.0" encoding="UTF-8"?>
<svg xmlns="http://www.w3.org/2000/svg" id="Layer_1" data-name="Layer 1" viewBox="0 0 200 200">
  <defs>
    <style>.cls-1,.cls-2{fill:#fff;}.cls-2{fill-rule:evenodd;}</style>
  </defs>
  <title>Artboard 5 copy 4</title>
  <path class="cls-1" d="M154.52,32.38h-109V167.62h109ZM44.29,30H156.91V170H43.09V30Z"></path>
  <path class="cls-1" d="M85.11,42.86c-.52,0-.89.37-.67.81l3.45,8.86h.51a24.47,24.47,0,0,1,10.76,2.58L98,52h15.15l-7.54,20.67h0a11.42,11.42,0,0,1-6.56,6.53,11.71,11.71,0,0,1,8.15,11.13,16.82,16.82,0,0,1-1,5.85l20.28-52.52c.23-.44-.15-.81-.6-.81Z"></path>
  <path class="cls-1" d="M90.26,96.13h-8V84.24h8s8.61-.46,8.61,5.87c0,5.1-5.26,6-8.61,6"></path>
  <path class="cls-1" d="M82.25,62.06h8s7.85-.08,7.85,6.32c0,5.87-7.85,5.87-7.85,5.87h-8Z"></path>
  <path class="cls-1" d="M141.94,161.68V158.5h-.61v-.83h.61v-1.3h.93v1.3h.63v.83h-.63v3.18Zm-2.57,0v-4h.91v4Zm.91-4.42h-.91v-.89h.91Zm-7.06.41v.45a1.26,1.26,0,0,1,1.07-.53,1.67,1.67,0,0,1,.76.16,1.57,1.57,0,0,1,.54.49,2,2,0,0,1,.2.5,5.46,5.46,0,0,1,.05.82v2.12h-.93V159.9a2.34,2.34,0,0,0-.18-1.1.71.71,0,0,0-.65-.3.73.73,0,0,0-.67.33,2.37,2.37,0,0,0-.2,1.13v1.72h-.91v-4Zm-3.18,4v-.49a1,1,0,0,1-.47.44,1.79,1.79,0,0,1-.78.14,2,2,0,0,1-1.49-.6,2.11,2.11,0,0,1-.59-1.51,2.2,2.2,0,0,1,.15-.81,2.06,2.06,0,0,1,.42-.66,1.78,1.78,0,0,1,.67-.47,2.1,2.1,0,0,1,.82-.15,1.73,1.73,0,0,1,.75.14,1.28,1.28,0,0,1,.51.44v-.48h.91v4Zm-2.38-2a1.19,1.19,0,0,0,.34.85,1.09,1.09,0,0,0,.82.34,1.05,1.05,0,0,0,.78-.34,1.13,1.13,0,0,0,.33-.8,1.21,1.21,0,0,0-.33-.85,1.09,1.09,0,0,0-.79-.35,1.07,1.07,0,0,0-.81.34A1.11,1.11,0,0,0,127.66,159.64Zm-5,.33a1,1,0,0,0,.35.69,1.16,1.16,0,0,0,.76.25,1.2,1.2,0,0,0,.57-.14,1,1,0,0,0,.39-.36h1a2.26,2.26,0,0,1-.76,1,2,2,0,0,1-1.18.36,2,2,0,0,1-1.5-.63,2.05,2.05,0,0,1-.6-1.48,2.3,2.3,0,0,1,.14-.79,1.93,1.93,0,0,1,.43-.66,2,2,0,0,1,.69-.5,1.87,1.87,0,0,1,.8-.18,2,2,0,0,1,1,.24,2.32,2.32,0,0,1,.77.66,1.81,1.81,0,0,1,.29.59,2.65,2.65,0,0,1,.09.73v.1s0,.08,0,.1Zm2.21-.74a1.11,1.11,0,0,0-.4-.61,1.15,1.15,0,0,0-.71-.21,1.09,1.09,0,0,0-.67.23,1.1,1.1,0,0,0-.4.59Zm-9.49-1.56v.45a1.26,1.26,0,0,1,1.07-.53,1.92,1.92,0,0,1,.83.17,1.44,1.44,0,0,1,.59.54,1.73,1.73,0,0,1,.54-.54,1.29,1.29,0,0,1,.65-.17,1.39,1.39,0,0,1,1.13.46,2,2,0,0,1,.39,1.33v2.3h-.92V159.9a2.36,2.36,0,0,0-.18-1.11.68.68,0,0,0-.62-.29.7.7,0,0,0-.66.33A2.25,2.25,0,0,0,118,160v1.72H117V159.9a2.29,2.29,0,0,0-.18-1.1.71.71,0,0,0-.65-.3.73.73,0,0,0-.67.33,2.37,2.37,0,0,0-.2,1.13v1.72h-.91v-4Zm-5.38,4v-.43a1.19,1.19,0,0,1-.47.4,1.27,1.27,0,0,1-.6.14,1.46,1.46,0,0,1-1.16-.47,1.94,1.94,0,0,1-.4-1.33v-2.32h.94v1.8a2.34,2.34,0,0,0,.18,1.11.71.71,0,0,0,.65.3.73.73,0,0,0,.67-.33,2.44,2.44,0,0,0,.2-1.14v-1.74h.92v4Zm-7.94-2a2.05,2.05,0,0,1,.16-.81,2,2,0,0,1,.45-.67,2.24,2.24,0,0,1,.68-.47,1.92,1.92,0,0,1,.79-.16,2.11,2.11,0,0,1,.8.15,1.87,1.87,0,0,1,.67.43,2.16,2.16,0,0,1,.49.7,2.06,2.06,0,0,1,.17.81,2.32,2.32,0,0,1-.15.84,2,2,0,0,1-.45.68,2.08,2.08,0,0,1-.68.47,2.12,2.12,0,0,1-.83.16,2.19,2.19,0,0,1-.83-.16,2.22,2.22,0,0,1-.68-.48,2.31,2.31,0,0,1-.44-.69A2.18,2.18,0,0,1,102,159.66Zm1,0a1.24,1.24,0,0,0,.31.88,1.21,1.21,0,0,0,1.66,0,1.29,1.29,0,0,0,.31-.9,1.1,1.1,0,0,0-.33-.83,1.07,1.07,0,0,0-.81-.33,1.09,1.09,0,0,0-.82.33A1.18,1.18,0,0,0,103,159.65Zm-5.58-2h1l1,2.8,1.07-2.8h1L99.24,163h-1l.56-1.41Zm-6,2.3a1,1,0,0,0,.34.69,1.21,1.21,0,0,0,.77.25,1.13,1.13,0,0,0,.56-.14,1,1,0,0,0,.4-.36h1a2.27,2.27,0,0,1-.77,1,2,2,0,0,1-1.18.36,2,2,0,0,1-.82-.16,2.08,2.08,0,0,1-.68-.47,2,2,0,0,1-.44-.68,2.24,2.24,0,0,1-.16-.8,2.09,2.09,0,0,1,.15-.79,1.91,1.91,0,0,1,.42-.66,2.1,2.1,0,0,1,.7-.5,1.82,1.82,0,0,1,.79-.18,2.06,2.06,0,0,1,1,.24,2.32,2.32,0,0,1,.77.66,1.78,1.78,0,0,1,.28.59,2.3,2.3,0,0,1,.1.73.41.41,0,0,1,0,.1v.1Zm2.21-.74a1.07,1.07,0,0,0-1.12-.82,1.06,1.06,0,0,0-.66.23,1.1,1.1,0,0,0-.4.59Zm-6.15,2.45h-.9v-5.31h.9v3.16l1.3-1.86H89.8l-1.39,1.9,1.66,2.11H88.9l-1.46-2Zm-3.18,0v-4h.91v4Zm.91-4.42h-.91v-.89h.91ZM82,161.68v-5.31h.92v5.31Zm-4.71,0V158.5h-.61v-.83h.61v-1.3h.93v1.3h.62v.83h-.62v3.18Zm-4.26-4v.45a1.23,1.23,0,0,1,1.07-.53,1.6,1.6,0,0,1,.75.16,1.41,1.41,0,0,1,.54.49,1.46,1.46,0,0,1,.2.5,4.22,4.22,0,0,1,.06.82v2.12h-.93V159.9a2.2,2.2,0,0,0-.19-1.1.69.69,0,0,0-.64-.3.72.72,0,0,0-.67.33A2.23,2.23,0,0,0,73,160v1.72h-.9v-4Zm-3.21,4v-.43a1.23,1.23,0,0,1-.46.4,1.34,1.34,0,0,1-.61.14,1.46,1.46,0,0,1-1.16-.47,1.94,1.94,0,0,1-.4-1.33v-2.32h.94v1.8a2.34,2.34,0,0,0,.18,1.11.71.71,0,0,0,.65.3.73.73,0,0,0,.67-.33,2.44,2.44,0,0,0,.2-1.14v-1.74h.92v4Zm-4.87,0v-.49a1,1,0,0,1-.47.44,1.76,1.76,0,0,1-.78.14,2,2,0,0,1-1.48-.6,2.07,2.07,0,0,1-.6-1.51,2.2,2.2,0,0,1,.15-.81,1.93,1.93,0,0,1,.43-.66,1.83,1.83,0,0,1,.66-.47,2.14,2.14,0,0,1,.82-.15,1.73,1.73,0,0,1,.75.14,1.28,1.28,0,0,1,.51.44v-.48h.92v4Zm-2.37-2a1.18,1.18,0,0,0,.33.85,1.12,1.12,0,0,0,.83.34,1,1,0,0,0,.77-.34,1.14,1.14,0,0,0,.34-.8,1.22,1.22,0,0,0-.34-.85,1.09,1.09,0,0,0-.79-.35,1.07,1.07,0,0,0-.81.34A1.1,1.1,0,0,0,62.55,159.64Zm-3,2v-5.31h.91v5.31Zm-1-4v.83h-.67v3.18H57V158.5H56.5v-.83H57v-.11a1.23,1.23,0,0,1,.35-.95,1.63,1.63,0,0,1,1.07-.31h.19v.84h-.07a.75.75,0,0,0-.45.1.42.42,0,0,0-.14.35v.07Z"></path>
  <path class="cls-2" d="M65.81,123.22c0-2.13-2.9-2-2.9-2h-2.7v4h2.7C64,125.25,65.81,124.94,65.81,123.22Z"></path>
  <polygon class="cls-2" points="94.42 123.48 98.04 123.48 96.24 118.09 94.42 123.48"></polygon>
  <polygon class="cls-2" points="66.1 140.74 68.72 133.48 63.45 133.48 66.1 140.74"></polygon>
  <path class="cls-2" d="M65.55,115.91c0-2.16-2.64-2.13-2.64-2.13h-2.7v4.1h2.7S65.55,117.88,65.55,115.91Z"></path>
  <path class="cls-2" d="M44.29,107.26v43.93H155.71V107.26ZM56.8,128.33V110.77a.23.23,0,0,1,.25-.2h5.86S69,110.44,69,115.7a3.88,3.88,0,0,1-2.49,3.85,4,4,0,0,1,2.75,3.75c0,5-5.14,5.24-6.34,5.24H57.05A.23.23,0,0,1,56.8,128.33Zm16.58,2.22-7,18.46a.26.26,0,0,1-.46,0l-7.11-18.46c-.08-.15.06-.28.23-.28H73.18C73.33,130.27,73.46,130.4,73.38,130.55Zm1.7-2.22V110.77a.24.24,0,0,1,.26-.2h2.9a.24.24,0,0,1,.26.2v14.46h6.18c.16,0,.26.1.26.2v2.9a.23.23,0,0,1-.26.21H75.34A.24.24,0,0,1,75.08,128.33Zm13.43,5a.23.23,0,0,1-.26.21H79.7v4.2h7.08A.21.21,0,0,1,87,138v2.82a.21.21,0,0,1-.23.21H79.7v4.15h8.55a.23.23,0,0,1,.26.21v2.85c0,.1-.1.2-.26.2H76.51a.22.22,0,0,1-.23-.2V130.48a.22.22,0,0,1,.23-.21H88.25a.23.23,0,0,1,.26.21Zm4.11-4.94c0,.08-.13.13-.23.13H89.23c-.2,0-.3-.13-.23-.28l7-18.08a.26.26,0,0,1,.46,0l7,18.08c.08.15,0,.28-.2.28h-3.19a.22.22,0,0,1-.2-.13l-.75-1.9H93.32Zm13,19.8a.24.24,0,0,1-.26.2H95.92a.24.24,0,0,1-.26-.2V130.48a.24.24,0,0,1,.26-.21h2.93a.23.23,0,0,1,.26.21v14.59h6.25a.24.24,0,0,1,.26.21Zm15.73,0a.24.24,0,0,1-.26.2h-9.44a.24.24,0,0,1-.26-.2V130.48a.24.24,0,0,1,.26-.21h2.93a.23.23,0,0,1,.26.21v14.59h6.25a.24.24,0,0,1,.26.21Zm-4.72-22.73a5.5,5.5,0,0,0,3.93-1.64.3.3,0,0,1,.36,0l2,2a.2.2,0,0,1,0,.31,8.91,8.91,0,0,1-6.32,2.59,8.76,8.76,0,0,1-9-9.16c0-5.37,3.72-9.32,9-9.32A8.79,8.79,0,0,1,123,112.9a.2.2,0,0,1,0,.31l-2,2a.3.3,0,0,1-.36,0,5.64,5.64,0,0,0-3.93-1.65c-3.44,0-5.52,2.65-5.52,6C111.11,123.25,113.58,125.48,116.63,125.48Zm24.58,5.13-6.56,9.33v8.27a.24.24,0,0,1-.26.2h-2.93c-.16,0-.26-.1-.26-.2v-8.27c-2.15-3.06-4.38-6.28-6.56-9.33-.13-.16,0-.34.21-.34h3.6s.16,0,.18.08l4.31,6.14,4.27-6.14c0-.06.17-.08.18-.08H141C141.23,130.27,141.33,130.45,141.21,130.61Zm1.72-2.07H139.1a.44.44,0,0,1-.2-.08L133.66,122c-.44.49-.87,1.08-1.36,1.57v4.77a.23.23,0,0,1-.26.21h-2.92a.23.23,0,0,1-.26-.21V110.77c0-.1.1-.2.26-.2H132c.16,0,.26.1.26.2v8.32l6.73-8.45a.52.52,0,0,1,.2-.07h3.65c.23,0,.36.18.2.33L136,119.71l7.19,8.49C143.29,128.36,143.16,128.54,142.93,128.54Z"></path>
</svg>
