<?xml version="1.0" encoding="UTF-8"?>
<svg xmlns="http://www.w3.org/2000/svg" id="Layer_1" data-name="Layer 1" viewBox="0 0 286 286">
  <defs>
    <style>.cls-1{fill:#fff;}.cls-2{fill:#231f20;}</style>
  </defs>
  <title>blackvelly-zymo</title>
  <rect class="cls-1" width="286" height="286"></rect>
  <path class="cls-2" d="M205.31,65.72H80.69V220.28H205.31ZM79.33,63H208V223H78V63Z"></path>
  <rect class="cls-2" x="79.33" y="151.3" width="127.35" height="50.2"></rect>
  <path class="cls-2" d="M126,77.69c-.6,0-1,.42-.77.93l3.94,10.13h.58a27.93,27.93,0,0,1,12.3,3l-1.3-3.54h17.32l-8.62,23.62h0a13.06,13.06,0,0,1-7.5,7.47A13.4,13.4,0,0,1,151.26,132a19.1,19.1,0,0,1-1.11,6.68l23.18-60c.26-.51-.17-.93-.68-.93Z"></path>
  <path class="cls-2" d="M131.86,138.58h-9.14V125h9.14s9.85-.53,9.85,6.7c0,5.84-6,6.89-9.85,6.89"></path>
  <path class="cls-2" d="M122.72,99.64h9.14s9-.09,9,7.23c0,6.7-9,6.7-9,6.7h-9.14Z"></path>
  <path class="cls-1" d="M192.24,155.46c.18-.18,0-.38-.24-.38h-4.16a.57.57,0,0,0-.24.08l-7.68,9.66v-9.51c0-.12-.12-.23-.3-.23h-3.34c-.18,0-.3.11-.3.23v20.07c0,.12.12.23.3.23h3.34c.18,0,.3-.11.3-.23v-5.46c.55-.56,1.05-1.23,1.55-1.79l6,7.4a.52.52,0,0,0,.23.08h4.37c.27,0,.41-.2.24-.38l-8.22-9.71Z"></path>
  <path class="cls-1" d="M162,172.12c-3.49,0-6.31-2.55-6.31-6.69,0-3.87,2.38-6.89,6.31-6.89a6.42,6.42,0,0,1,4.49,1.88.38.38,0,0,0,.41,0l2.32-2.32a.22.22,0,0,0,0-.35,10.05,10.05,0,0,0-7.22-3c-6,0-10.27,4.52-10.27,10.65A10,10,0,0,0,162,175.91a10.17,10.17,0,0,0,7.22-3,.22.22,0,0,0,0-.35l-2.32-2.35a.38.38,0,0,0-.41,0,6.3,6.3,0,0,1-4.49,1.88"></path>
  <path class="cls-1" d="M138.71,163.67l2,6.16h-4.14Zm4.16,11.8a.26.26,0,0,0,.24.14h3.64c.2,0,.32-.14.23-.32l-8-20.66a.31.31,0,0,0-.53,0l-8,20.66c-.09.18,0,.32.27.32h3.61a.27.27,0,0,0,.26-.14l.79-2.17H142Z"></path>
  <path class="cls-1" d="M118.43,171.83V155.31c0-.12-.12-.23-.3-.23h-3.31c-.18,0-.3.11-.3.23v20.07c0,.12.12.23.3.23H125.5a.26.26,0,0,0,.29-.23v-3.32a.27.27,0,0,0-.29-.23Z"></path>
  <path class="cls-1" d="M100.61,171.86H97.53v-4.58h3.08s3.31-.17,3.31,2.26c0,2-2,2.32-3.31,2.32m-3.08-13.12h3.08s3,0,3,2.44c0,2.26-3,2.26-3,2.26H97.53Zm10,2.2c0-6-7-5.86-7-5.86H93.92c-.18,0-.29.11-.29.23v20.07c0,.12.11.23.29.23h6.69c1.38,0,7.25-.26,7.25-6a4.54,4.54,0,0,0-3.14-4.29A4.44,4.44,0,0,0,107.56,160.94Z"></path>
  <path class="cls-2" d="M190.93,213.49v-3.63h-.7v-1h.7v-1.49H192v1.49h.71v1H192v3.63Zm-2.93,0v-4.58h1v4.58Zm1-5.05h-1v-1h1Zm-8.08.47v.52a1.55,1.55,0,0,1,.54-.46,1.4,1.4,0,0,1,.69-.15,1.91,1.91,0,0,1,.86.18,1.61,1.61,0,0,1,.62.57,1.88,1.88,0,0,1,.23.56,5.37,5.37,0,0,1,.07.94v2.42H182.9v-2a2.64,2.64,0,0,0-.21-1.26.81.81,0,0,0-.74-.34.85.85,0,0,0-.77.37,2.73,2.73,0,0,0-.23,1.3v2h-1v-4.58Zm-3.63,4.58v-.56a1.21,1.21,0,0,1-.54.51,2.46,2.46,0,0,1-2.59-.54,2.36,2.36,0,0,1-.68-1.72,2.59,2.59,0,0,1,.17-.92,2.42,2.42,0,0,1,.49-.76,2.31,2.31,0,0,1,.76-.54,2.54,2.54,0,0,1,.94-.17,2.06,2.06,0,0,1,.86.17,1.4,1.4,0,0,1,.58.5v-.55h1v4.58Zm-2.72-2.33a1.31,1.31,0,0,0,.39,1,1.28,1.28,0,0,0,.94.39,1.21,1.21,0,0,0,.89-.39,1.29,1.29,0,0,0,.38-.92,1.34,1.34,0,0,0-.39-1,1.18,1.18,0,0,0-.9-.4,1.22,1.22,0,0,0-.92.38A1.24,1.24,0,0,0,174.61,211.16Zm-5.77.38a1.14,1.14,0,0,0,.4.78,1.29,1.29,0,0,0,.87.29,1.38,1.38,0,0,0,.65-.15,1.1,1.1,0,0,0,.45-.43h1.15a2.55,2.55,0,0,1-.87,1.17,2.25,2.25,0,0,1-1.35.41,2.35,2.35,0,0,1-1.72-.71,2.67,2.67,0,0,1-.5-.78,2.42,2.42,0,0,1-.18-.91,2.53,2.53,0,0,1,.17-.91,2.44,2.44,0,0,1,.48-.76,2.74,2.74,0,0,1,.79-.57,2.28,2.28,0,0,1,.92-.2,2.39,2.39,0,0,1,1.11.27,2.58,2.58,0,0,1,.88.77,2,2,0,0,1,.33.66,3,3,0,0,1,.1.84v.11c0,.06,0,.09,0,.12Zm2.53-.85a1.23,1.23,0,0,0-.46-.69,1.35,1.35,0,0,0-1.58,0,1.32,1.32,0,0,0-.45.68Zm-10.85-1.78v.52a1.44,1.44,0,0,1,.53-.46,1.45,1.45,0,0,1,.69-.15,2.12,2.12,0,0,1,.95.19,1.79,1.79,0,0,1,.68.61,1.83,1.83,0,0,1,.61-.6,1.35,1.35,0,0,1,.74-.2,1.61,1.61,0,0,1,1.3.52,2.3,2.3,0,0,1,.45,1.52v2.63h-1.05v-2a2.66,2.66,0,0,0-.21-1.27.78.78,0,0,0-.71-.33.81.81,0,0,0-.76.37,2.73,2.73,0,0,0-.23,1.3v2h-1.06v-2a2.66,2.66,0,0,0-.21-1.27.79.79,0,0,0-.73-.33.83.83,0,0,0-.77.37,2.62,2.62,0,0,0-.23,1.3v2h-1v-4.58Zm-6.15,4.58V213a1.44,1.44,0,0,1-.53.46,1.52,1.52,0,0,1-.69.15,1.65,1.65,0,0,1-1.33-.53,2.21,2.21,0,0,1-.46-1.52v-2.65h1.08V211a2.66,2.66,0,0,0,.21,1.27.79.79,0,0,0,.73.34.83.83,0,0,0,.77-.38,2.62,2.62,0,0,0,.23-1.3v-2h1.05v4.58Zm-9.07-2.31a2.39,2.39,0,0,1,.18-.92,2.21,2.21,0,0,1,.51-.77,2.4,2.4,0,0,1,.78-.53,2.17,2.17,0,0,1,.9-.19,2.51,2.51,0,0,1,.92.17,2.36,2.36,0,0,1,1.32,1.29,2.32,2.32,0,0,1,.2.93,2.59,2.59,0,0,1-.17,1,2.52,2.52,0,0,1-.52.79,2.4,2.4,0,0,1-.78.53,2.47,2.47,0,0,1-.95.18,2.39,2.39,0,0,1-.94-.18,2.53,2.53,0,0,1-.78-.55,2.46,2.46,0,0,1-.5-.79A2.53,2.53,0,0,1,145.3,211.18Zm1.1,0a1.42,1.42,0,0,0,.35,1,1.23,1.23,0,0,0,.95.38,1.19,1.19,0,0,0,.94-.39,1.41,1.41,0,0,0,.36-1,1.3,1.3,0,0,0-.37-1,1.34,1.34,0,0,0-1.87,0A1.35,1.35,0,0,0,146.4,211.17ZM140,208.91h1.13l1.12,3.2,1.23-3.2h1.11L142.14,215H141l.64-1.61Zm-6.87,2.63a1.09,1.09,0,0,0,.39.78,1.3,1.3,0,0,0,.87.29,1.38,1.38,0,0,0,.65-.15,1.1,1.1,0,0,0,.45-.43h1.15a2.48,2.48,0,0,1-.87,1.17,2.25,2.25,0,0,1-1.35.41,2.42,2.42,0,0,1-.94-.18,2.36,2.36,0,0,1-.77-.53,2.51,2.51,0,0,1-.51-.78,2.42,2.42,0,0,1-.18-.91,2.53,2.53,0,0,1,.17-.91,2.44,2.44,0,0,1,.48-.76,2.79,2.79,0,0,1,.8-.57,2.19,2.19,0,0,1,.91-.2,2.34,2.34,0,0,1,1.11.27,2.49,2.49,0,0,1,.88.77,1.86,1.86,0,0,1,.33.66,3,3,0,0,1,.11.84s0,.06,0,.11v.12Zm2.52-.85a1.23,1.23,0,0,0-.46-.69,1.24,1.24,0,0,0-.81-.25,1.23,1.23,0,0,0-.76.26,1.28,1.28,0,0,0-.46.68Zm-7,2.8h-1v-6.07h1V211l1.48-2.13h1.21l-1.59,2.18,1.9,2.4h-1.33l-1.67-2.33Zm-3.64,0v-4.58h1v4.58Zm1-5.05h-1v-1h1Zm-3.65,5.05v-6.07h1v6.07Zm-5.39,0v-3.63h-.7v-1h.7v-1.49h1.07v1.49h.71v1h-.71v3.63Zm-4.87-4.58v.52a1.44,1.44,0,0,1,.53-.46,1.4,1.4,0,0,1,.69-.15,2,2,0,0,1,.87.18,1.69,1.69,0,0,1,.84,1.13,4.54,4.54,0,0,1,.07.94v2.42h-1.07v-2a2.64,2.64,0,0,0-.21-1.26.79.79,0,0,0-.73-.34.83.83,0,0,0-.77.37,2.6,2.6,0,0,0-.24,1.3v2h-1v-4.58Zm-3.66,4.58V213a1.55,1.55,0,0,1-.54.46,1.52,1.52,0,0,1-.69.15,1.64,1.64,0,0,1-1.32-.53,2.21,2.21,0,0,1-.47-1.52v-2.65h1.08V211a2.66,2.66,0,0,0,.21,1.27.81.81,0,0,0,.74.34.83.83,0,0,0,.76-.38,2.6,2.6,0,0,0,.24-1.3v-2h1.05v4.58Zm-5.57,0v-.56a1.21,1.21,0,0,1-.54.51,2.46,2.46,0,0,1-2.59-.54,2.36,2.36,0,0,1-.68-1.72,2.59,2.59,0,0,1,.17-.92,2.42,2.42,0,0,1,.49-.76,2.31,2.31,0,0,1,.76-.54,2.54,2.54,0,0,1,.94-.17,2.06,2.06,0,0,1,.86.17,1.4,1.4,0,0,1,.58.5v-.55h1v4.58Zm-2.71-2.33a1.3,1.3,0,0,0,.38,1,1.28,1.28,0,0,0,.94.39,1.21,1.21,0,0,0,.89-.39,1.29,1.29,0,0,0,.38-.92,1.34,1.34,0,0,0-.39-1,1.18,1.18,0,0,0-.9-.4,1.3,1.3,0,0,0-1.3,1.31Zm-3.43,2.33v-6.07h1v6.07Zm-1.13-4.58v1h-.77v3.63h-1v-3.63h-.55v-1h.51v-.13a1.4,1.4,0,0,1,.4-1.08,1.83,1.83,0,0,1,1.22-.35h.22v1h-.08a.89.89,0,0,0-.52.12.47.47,0,0,0-.15.39v.09Z"></path>
  <path class="cls-1" d="M185.74,177.59s-.18,0-.21.09l-4.89,7-4.92-7c0-.06-.18-.09-.21-.09H171.4c-.27,0-.39.21-.24.39,2.49,3.49,5,7.17,7.5,10.66v9.45a.26.26,0,0,0,.29.24h3.35a.27.27,0,0,0,.3-.24v-9.45L190.09,178c.15-.18,0-.39-.24-.39Z"></path>
  <path class="cls-1" d="M129.58,181.35a.26.26,0,0,0,.29-.23v-3.29a.27.27,0,0,0-.29-.24H116.15a.26.26,0,0,0-.26.24v20.26a.26.26,0,0,0,.26.24h13.43a.27.27,0,0,0,.29-.24v-3.26a.27.27,0,0,0-.29-.23H119.8v-4.74h8.09a.24.24,0,0,0,.26-.24v-3.23a.24.24,0,0,0-.26-.24H119.8v-4.8Z"></path>
  <path class="cls-1" d="M160,194.51V177.83a.27.27,0,0,0-.29-.24h-3.35a.27.27,0,0,0-.3.24v20.26a.27.27,0,0,0,.3.24H167.1a.27.27,0,0,0,.3-.24v-3.34a.27.27,0,0,0-.3-.24Z"></path>
  <path class="cls-1" d="M142,194.51V177.83a.28.28,0,0,0-.3-.24h-3.35a.28.28,0,0,0-.3.24v20.26a.27.27,0,0,0,.3.24h10.79a.27.27,0,0,0,.29-.24v-3.34a.27.27,0,0,0-.29-.24Z"></path>
  <path class="cls-1" d="M101.23,181.27h6l-3,8.29Zm-5.09-3.68c-.2,0-.36.15-.27.33L104,199a.3.3,0,0,0,.53,0l8.06-21.09c.09-.18-.06-.33-.24-.33Z"></path>
</svg>
