<?xml version="1.0" encoding="UTF-8"?>
<svg xmlns="http://www.w3.org/2000/svg" xmlns:xlink="http://www.w3.org/1999/xlink" width="490px" height="491px" viewBox="0 0 490 491" version="1.1">
  <title>Brand Image Protection</title>
  <g id="Page-4" stroke="none" stroke-width="1" fill="none" fill-rule="evenodd">
    <g id="Brand-Image-Protection" transform="translate(0.000000, 0.010000)" fill="#1F1646" fill-rule="nonzero">
      <path d="M132.4,239.79 L357.59,239.79 C361.62,239.79 364.89,236.52 364.89,232.49 L364.89,7.3 C364.89,3.27 361.62,0 357.59,0 L132.4,0 C128.37,0 125.1,3.27 125.1,7.3 L125.1,232.49 C125.1,236.52 128.37,239.79 132.4,239.79 Z M139.7,225.19 L139.7,74.65 L202.67,74.65 L202.67,113.77 C202.67,116.72 204.45,119.38 207.18,120.51 C208.08,120.88 209.03,121.06 209.97,121.06 C211.87,121.06 213.74,120.32 215.13,118.92 L245,89.05 L274.87,118.92 C276.96,121.01 280.1,121.62 282.82,120.5 C285.54,119.37 287.32,116.71 287.32,113.76 L287.32,74.64 L350.29,74.64 L350.29,225.19 L139.7,225.19 Z M217.27,14.6 L272.74,14.6 L272.74,96.15 L250.17,73.58 C247.43,70.84 242.59,70.84 239.85,73.58 L217.28,96.15 L217.28,14.6 L217.27,14.6 Z M350.3,60.06 L287.33,60.06 L287.33,14.6 L350.3,14.6 L350.3,60.06 L350.3,60.06 Z M202.67,14.6 L202.67,60.06 L139.7,60.06 L139.7,14.6 L202.67,14.6 Z" id="Shape"></path>
      <path d="M209.97,167.64 L159.93,167.64 C155.9,167.64 152.63,170.91 152.63,174.94 L152.63,204.97 C152.63,209 155.9,212.27 159.93,212.27 L209.97,212.27 C214,212.27 217.27,209 217.27,204.97 L217.27,174.94 C217.27,170.91 214,167.64 209.97,167.64 Z M202.67,197.67 L167.22,197.67 L167.22,182.24 L202.67,182.24 L202.67,197.67 L202.67,197.67 Z" id="Shape"></path>
      <path d="M462.36,125.42 C447.12,125.42 434.72,137.82 434.72,153.06 L434.72,229.47 C431.69,227.85 428.36,226.79 424.85,226.38 C417.52,225.55 410.3,227.59 404.51,232.18 L315.41,302.84 C296.21,318.07 285.26,340.86 285.369179,365.34 L285.5,482.71 C285.5,486.74 288.77,490 292.8,490 L292.8,490 C296.83,490 300.09,486.73 300.09,482.69 L299.96,365.29 C299.87,345.29 308.81,326.69 324.48,314.26 L413.58,243.6 C419.21,239.13 427.43,240.09 431.9,245.71 C436.37,251.35 435.42,259.57 429.78,264.04 L364.43,315.87 C361.27,318.37 360.74,322.96 363.25,326.12 C365.75,329.28 370.34,329.8 373.5,327.3 L438.85,275.47 C444.64,270.88 448.29,264.32 449.14,256.99 C449.29,255.71 449.31,254.44 449.29,253.18 C449.29,253.07 449.32,153.04 449.32,153.04 C449.32,145.85 455.17,140 462.36,140 C469.55,140 475.4,145.85 475.4,153.04 L475.4,294.79 C475.4,301.97 473.39,308.98 469.59,315.06 L384.47,451.4 C383.75,452.56 383.36,453.9 383.36,455.26 L383.36,482.68 C383.36,486.71 386.63,489.98 390.66,489.98 C394.69,489.98 397.96,486.71 397.96,482.68 L397.96,457.35 L481.98,322.78 C487.23,314.37 490,304.69 490,294.78 L490,153.05 C490,137.81 477.6,125.41 462.36,125.41 L462.36,125.42 Z" id="Path"></path>
      <path d="M174.58,302.83 L85.49,232.17 C76.61,225.12 64.69,224.44 55.28,229.47 L55.28,153.05 C55.28,137.81 42.88,125.41 27.64,125.41 C12.4,125.41 0,137.81 0,153.05 L0,294.8 C0,304.71 2.77,314.39 8.02,322.8 L92.04,457.37 L92.04,482.7 C92.04,486.73 95.31,490 99.34,490 C103.37,490 106.64,486.73 106.64,482.7 L106.64,455.28 C106.64,453.91 106.26,452.58 105.53,451.42 L20.41,315.08 C16.61,308.99 14.6,301.98 14.6,294.81 L14.6,153.05 C14.6,145.86 20.45,140.01 27.64,140.01 C34.83,140.01 40.68,145.86 40.68,153.05 C40.68,153.05 40.71,253.16 40.72,253.3 C40.57,261.62 44.13,269.92 51.14,275.48 L116.49,327.31 C119.65,329.81 124.24,329.29 126.74,326.13 C129.24,322.97 128.72,318.38 125.56,315.88 L60.21,264.05 C54.58,259.58 53.63,251.36 58.09,245.73 C62.55,240.1 70.78,239.15 76.41,243.62 L165.5,314.28 C181.17,326.7 190.11,345.3 190.02,365.33 L189.89,482.7 C189.89,486.73 193.15,490 197.18,490.01 L197.18,490.01 C201.21,490.01 204.47,486.75 204.48,482.72 L204.61082,365.37 C204.72,340.86 193.76,318.07 174.56,302.84 L174.58,302.83 Z" id="Path"></path>
    </g>
  </g>
</svg>
