<?xml version="1.0" encoding="UTF-8"?>
<svg xmlns="http://www.w3.org/2000/svg" xmlns:xlink="http://www.w3.org/1999/xlink" width="100px" height="100px" viewBox="0 0 100 100" version="1.1">
  <title>Artboard Copy 4</title>
  <g id="Artboard-Copy-4" stroke="none" stroke-width="1" fill="none" fill-rule="evenodd">
    <g id="brillaire-1" transform="translate(25.000000, 25.000000)" fill="#FFFFFF" fill-rule="nonzero">
      <g id="Group-23" transform="translate(0.000000, 40.860215)">
        <path d="M3.00289035,9.1397849 L0,9.1397849 L0,2.82898104 L2.66410272,2.82898104 C3.12608586,2.82898104 3.52647124,2.87162161 3.86525886,2.97111626 C4.20404649,3.08482444 4.4504375,3.21274614 4.61983131,3.39752193 C4.92782007,3.72443294 5.08181444,4.079771 5.08181444,4.49196314 C5.08181444,4.98943642 4.91242063,5.35898799 4.573633,5.60061787 C4.4504375,5.68589901 4.37344031,5.72853957 4.327242,5.75696661 C4.28104368,5.77118014 4.18864706,5.81382071 4.08085099,5.85646127 C4.49663581,5.94174238 4.83542344,6.12651821 5.08181444,6.38236162 C5.34360488,6.6524185 5.46680039,6.99354303 5.46680039,7.39152167 C5.46680039,7.83214085 5.29740657,8.21590596 4.97401838,8.55703049 C4.58903244,8.94079561 3.92685662,9.1397849 3.00289035,9.1397849 Z M1.15495783,5.44426913 L2.61790441,5.44426913 C3.46487348,5.44426913 3.8806583,5.18842573 3.8806583,4.66252541 C3.8806583,4.34982792 3.77286224,4.13662509 3.57266955,4.00870339 C3.37247685,3.88078169 3.0644881,3.80971408 2.63330385,3.80971408 L1.15495783,3.80971408 L1.15495783,5.44426913 Z M1.15495783,8.15905184 L2.97209147,8.15905184 C3.3878763,8.15905184 3.71126449,8.10219779 3.94225605,7.97427608 C4.17324762,7.84635437 4.28104368,7.61893802 4.28104368,7.2778135 C4.28104368,6.70927262 3.78826168,6.42500215 2.8180971,6.42500215 L1.15495783,6.42500215 L1.15495783,8.15905184 Z M12.3811479,4.87572824 C12.3811479,5.91331538 11.8883659,6.58135091 10.9028019,6.85140785 L12.6891366,9.1397849 L11.2261901,9.1397849 L9.59384966,7.02197008 L8.06930537,7.02197008 L8.06930537,9.1397849 L6.91434756,9.1397849 L6.91434756,2.82898104 L9.47065419,2.82898104 C10.5024165,2.82898104 11.2569889,2.98532979 11.7035727,3.3122408 C12.1501564,3.63915181 12.3811479,4.15083861 12.3811479,4.87572824 Z M9.51685248,6.05545056 C10.1636289,6.05545056 10.6102126,5.95595591 10.8412041,5.77118014 C11.0875951,5.58640435 11.1953912,5.28792039 11.1953912,4.87572824 C11.1953912,4.4635361 11.0721957,4.17926565 10.8412041,4.0229169 C10.5948131,3.86656816 10.1636289,3.79550055 9.54765137,3.79550055 L8.06930537,3.79550055 L8.06930537,6.05545056 L9.51685248,6.05545056 Z M14.0442872,2.82898104 L15.3335341,2.82898104 L15.3335341,9.1397849 L14.0442872,9.1397849 L14.0442872,2.82898104 Z M17.1087753,9.1397849 L17.1087753,2.82898104 L18.2637331,2.82898104 L18.2637331,8.13062484 L21.389819,8.13062484 L21.389819,9.1397849 L17.1087753,9.1397849 Z M22.6525728,9.1397849 L22.6525728,2.82898104 L23.8075307,2.82898104 L23.8075307,8.13062484 L26.9336165,8.13062484 L26.9336165,9.1397849 L22.6525728,9.1397849 Z M29.166535,7.70421914 L28.4735603,9.1397849 L27.2416053,9.1397849 L30.2598951,2.82898104 L31.4918501,2.82898104 L34.5101399,9.1397849 L33.2781849,9.1397849 L32.6006096,7.70421914 L29.166535,7.70421914 Z M32.123227,6.72348614 L30.8758726,4.12241156 L29.6285182,6.72348614 L32.123227,6.72348614 Z M40.9317054,4.87572824 C40.9317054,5.91331538 40.4389234,6.58135091 39.4533594,6.85140785 L41.2396942,9.1397849 L39.7767476,9.1397849 L38.1444072,7.02197008 L36.6198629,7.02197008 L36.6198629,9.1397849 L35.464905,9.1397849 L35.464905,2.82898104 L38.0058122,2.82898104 C39.052974,2.82898104 39.8075465,2.98532979 40.2541302,3.3122408 C40.7007139,3.63915181 40.9317054,4.15083861 40.9317054,4.87572824 Z M38.06741,6.05545056 C38.7141864,6.05545056 39.1607701,5.95595591 39.3917616,5.77118014 C39.6227532,5.58640435 39.7459487,5.28792039 39.7459487,4.87572824 C39.7459487,4.4635361 39.6227532,4.17926565 39.3763622,4.0229169 C39.1453706,3.86656816 38.7141864,3.79550055 38.0828095,3.79550055 L36.6198629,3.79550055 L36.6198629,6.05545056 L38.06741,6.05545056 Z M47.3994692,2.82898104 L47.3994692,3.82392759 L43.7498025,3.82392759 L43.7498025,5.50112322 L47.0298828,5.50112322 L47.0298828,6.45342921 L43.7498025,6.45342921 L43.7498025,8.14483837 L47.5226648,8.14483837 L47.5226648,9.1397849 L42.5948447,9.1397849 L42.5948447,2.82898104 L47.3994692,2.82898104 Z" id="Shape"></path>
        <path d="M48.4386345,0 C48.7191087,0 48.9715355,0.0991186719 49.1678674,0.297356016 C49.3641994,0.50975317 49.4623654,0.750469944 49.4623654,1.03366615 C49.4623654,1.31686235 49.3641994,1.55757913 49.1678674,1.76997629 C48.9715355,1.96821363 48.7191087,2.0673323 48.4386345,2.0673323 C48.1581602,2.0673323 47.9057335,1.96821363 47.7094015,1.76997629 C47.5130696,1.55757913 47.4149036,1.31686235 47.4149036,1.03366615 C47.4149036,0.750469944 47.5130696,0.50975317 47.7094015,0.311515826 C47.9197572,0.0991186719 48.1581602,0 48.4386345,0 Z M48.4526582,0.127438292 C48.2002314,0.127438292 47.9898758,0.212397154 47.8075675,0.396474688 C47.639283,0.566392411 47.5551407,0.792949373 47.5551407,1.03366615 C47.5551407,1.28854274 47.639283,1.50093989 47.8075675,1.68501742 C47.975852,1.85493514 48.1862077,1.93989401 48.4386345,1.93989401 C48.6910613,1.93989401 48.9014169,1.85493514 49.0837252,1.67085761 C49.2520097,1.50093989 49.3361519,1.28854274 49.3361519,1.03366615 C49.3361519,0.778789567 49.2520097,0.566392411 49.0837252,0.396474688 C48.9154407,0.212397154 48.705085,0.127438292 48.4526582,0.127438292 Z M48.4840566,0.566062473 C48.659291,0.566062473 48.7907168,0.59107228 48.8637311,0.641091891 C48.9367455,0.691111503 48.9805541,0.778645826 48.9805541,0.891189949 C48.9805541,1.05375369 48.8929368,1.15379291 48.7177025,1.20381252 L49.0243627,1.5539498 L48.7761139,1.5539498 L48.4986595,1.22882233 L48.2504107,1.22882233 L48.2504107,1.5539498 L48.0459706,1.5539498 L48.0459706,0.566062473 L48.4840566,0.566062473 Z M48.5138182,0.707660573 L48.2571412,0.707660573 L48.2571412,1.05067701 L48.4987195,1.05067701 C48.6195087,1.05067701 48.6950019,1.03842642 48.7402978,1.01392525 C48.7855938,0.989424078 48.8006924,0.940421725 48.8006924,0.87916879 C48.8006924,0.817915861 48.7855938,0.768913508 48.7402978,0.744412338 C48.6950019,0.719911161 48.6195087,0.707660573 48.5138182,0.707660573 Z" id="Shape"></path>
      </g>
      <g id="_2530486702544" transform="translate(5.913978, 0.000000)">
        <path d="M11.3222161,8.57251708 L11.3222161,31.7500634 L20.7379513,31.7500634 C25.712302,31.7500634 28.6613813,29.3873038 28.6613813,25.4493712 C28.6613813,22.261521 26.8137653,20.086282 23.6159685,19.5987284 C26.2097371,19.0361666 27.6665112,17.0859524 27.6665112,14.3481516 C27.6665112,10.7102519 25.0016805,8.57251708 20.595827,8.57251708 L11.3222161,8.57251708 Z M13.8449225,11.1227973 L20.4537027,11.1227973 C23.402782,11.1227973 25.1438048,12.4354415 25.1438048,14.798201 C25.1438048,17.1984647 23.402782,18.5486131 20.4537027,18.5486131 L13.8449225,18.5486131 L13.8449225,11.1227973 Z M13.8449225,21.0988933 L20.4537027,21.0988933 C24.0423414,21.0988933 26.1031438,22.5615539 26.1031438,25.0743299 C26.1031438,27.7371225 24.0423414,29.2372873 20.4537027,29.2372873 L13.8449225,29.2372873 L13.8449225,21.0988933 Z" id="Shape"></path>
        <g id="Group">
          <path d="M30.1909701,8.43071067 C31.1136762,9.36791213 31.9299162,10.4550658 32.6042014,11.6546837 L32.6042014,11.6546837 L32.6042014,11.6921718 L32.6042014,11.6921718 L32.6396901,11.7296598 L32.6396901,11.7296598 L32.6396901,11.7296598 L32.6751788,11.7671479 L32.6751788,11.8046359 L32.6751788,11.8046359 L32.7106675,11.842124 L32.7106675,11.842124 L32.7106675,11.8796121 L32.7461562,11.8796121 L32.7461562,11.9171001 L32.7461562,11.9171001 L32.7461562,11.9545882 L32.7816449,11.9545882 L32.7816449,11.9920762 L32.7816449,12.0295643 L32.8171336,12.0295643 L32.8171336,12.0670524 L32.8171336,12.0670524 L32.8171336,12.0670524 L32.8526223,12.1045405 L32.8526223,12.1420285 L32.8526223,12.1420285 L32.888111,12.1795166 L32.888111,12.1795166 L32.888111,12.2170046 L32.9235997,12.2544927 L32.9235997,12.2919808 L32.9590884,12.3294688 L32.9590884,12.3294688 L33.0300658,12.441933 L33.0300658,12.4794211 L33.0300658,12.4794211 L33.0655545,12.5543972 L33.0655545,12.5543972 L33.1365318,12.6668614 L33.1365318,12.6668614 L33.1365318,12.7043494 L33.2075093,12.8543016 L33.242998,12.8917897 C33.2784867,13.0042539 33.3139753,13.07923 33.349464,13.1916942 C34.059238,14.6912165 35.1238988,15.5159538 36.5789354,16.0407866 C35.8336728,13.5665748 34.8045006,11.5047315 33.1365318,9.6678166 C33.1365318,9.6678166 36.0820937,12.1045405 36.969311,16.1532509 C37.6081076,12.5169091 34.9109667,6.25640321 30.1909701,8.43071067 Z" id="Path"></path>
          <path d="M23.1642083,4.11958383 C24.4063126,4.45697637 25.6129283,4.9818092 26.7485666,5.65659426 L26.7485666,5.65659426 L26.7840553,5.65659426 L26.819544,5.69408232 L26.819544,5.69408232 L26.819544,5.69408232 L26.8550326,5.69408232 L26.8550326,5.73157038 L26.8905213,5.73157038 L26.92601,5.73157038 L26.92601,5.76905844 L26.9614988,5.76905844 L26.9614988,5.76905844 L26.9969875,5.8065465 L26.9969875,5.8065465 L27.0324762,5.8065465 L27.0324762,5.84403456 L27.0679648,5.84403456 L27.0679648,5.84403456 L27.1034535,5.88152262 L27.1389422,5.88152262 L27.1389422,5.88152262 L27.1389422,5.88152262 L27.1744309,5.91901068 L27.1744309,5.91901068 L27.2099196,5.91901068 L27.2454083,5.95649874 L27.2454083,5.95649874 L27.280897,5.95649874 L27.280897,5.99398679 L27.3518744,6.03147485 L27.3518744,6.03147485 L27.3873631,6.03147485 L27.3873631,6.06896291 L27.4938292,6.14393903 L27.5293179,6.14393903 L27.5293179,6.14393903 L27.6002953,6.18142709 L27.6002953,6.18142709 L27.7067613,6.25640321 L27.7067613,6.25640321 L27.74225,6.29389126 L27.8842049,6.36886738 L27.8842049,6.40635544 C27.9906709,6.4438435 28.0616483,6.51881962 28.1326257,6.59379573 C29.4457074,7.5309972 30.7587892,7.68094943 32.2848031,7.34355691 C30.4748797,5.58161814 28.5939787,4.34451219 26.2872135,3.66972712 C26.2872135,3.66972712 29.9780379,4.23204801 32.6751788,7.26858079 C31.5040519,3.74470324 26.2162361,-0.26651909 23.1642083,4.11958383 Z" id="Path"></path>
          <path d="M15.0372969,4.11958383 C16.2794012,3.74470324 17.5569943,3.55726295 18.870076,3.55726295 L18.870076,3.55726295 L18.9055647,3.55726295 L18.9055647,3.55726295 L18.9410534,3.55726295 L18.9410534,3.55726295 L18.9765421,3.55726295 L18.9765421,3.55726295 L19.0120309,3.55726295 L19.0475196,3.55726295 L19.0830082,3.55726295 L19.0830082,3.55726295 L19.1184969,3.55726295 L19.1184969,3.55726295 L19.1539856,3.55726295 L19.1539856,3.55726295 L19.1894743,3.55726295 L19.224963,3.55726295 L19.224963,3.55726295 L19.2604517,3.55726295 L19.2959404,3.55726295 L19.2959404,3.55726295 L19.3314291,3.55726295 L19.3314291,3.55726295 L19.3669178,3.55726295 L19.4024065,3.55726295 L19.4024065,3.55726295 L19.4378952,3.55726295 L19.4733839,3.55726295 L19.4733839,3.55726295 L19.5443613,3.55726295 L19.5443613,3.55726295 L19.57985,3.55726295 L19.6153387,3.55726295 L19.7218047,3.55726295 L19.7572934,3.55726295 L19.7927821,3.55726295 L19.8282708,3.55726295 L19.8637596,3.55726295 L19.9702256,3.55726295 L19.9702256,3.55726295 L20.0057143,3.55726295 L20.1831578,3.59475101 L20.2186465,3.59475101 C20.2896239,3.59475101 20.39609,3.59475101 20.5025561,3.63223906 C22.0995474,3.74470324 23.3061631,3.18238236 24.4418014,2.09522864 C22.0640587,1.53290775 19.8637596,1.45793163 17.5215056,2.05774058 C17.5215056,2.05774058 20.9993978,0.595706273 24.7611996,1.79532417 C22.0995474,-0.603911621 15.605116,-1.27869669 15.0372969,4.11958383 Z" id="Path"></path>
          <path d="M7.97504637,8.43071067 C8.89775249,7.45602108 9.92692466,6.59379573 11.0270742,5.88152262 L11.0270742,5.88152262 L11.0625629,5.88152262 L11.0625629,5.88152262 L11.0980516,5.84403456 L11.0980516,5.84403456 L11.1335403,5.84403456 L11.1335403,5.84403456 L11.169029,5.8065465 L11.169029,5.8065465 L11.2045177,5.76905844 L11.2400064,5.76905844 L11.2400064,5.76905844 L11.2754951,5.76905844 L11.2754951,5.73157038 L11.2754951,5.73157038 L11.3109838,5.73157038 L11.3464725,5.69408232 L11.3464725,5.69408232 L11.3819612,5.69408232 L11.3819612,5.65659426 L11.4174499,5.65659426 L11.4174499,5.65659426 L11.4529386,5.65659426 L11.4529386,5.6191062 L11.4884273,5.6191062 L11.5239159,5.6191062 L11.5239159,5.58161814 L11.5594047,5.58161814 L11.5594047,5.58161814 L11.6303821,5.54413009 L11.6303821,5.54413009 L11.6658708,5.50664203 L11.6658708,5.50664203 L11.8078255,5.43166591 L11.8078255,5.43166591 L11.8433142,5.43166591 L11.8788029,5.39417785 L11.9142916,5.39417785 L11.985269,5.31920173 L12.0207577,5.31920173 L12.0207577,5.31920173 L12.1982012,5.24422561 L12.1982012,5.20673755 C12.3046673,5.16924949 12.4111334,5.13176143 12.4821108,5.09427338 C13.9016586,4.34451219 14.6824099,3.21987041 15.1792517,1.68285999 C12.8369977,2.47010923 10.8851194,3.55726295 9.18166202,5.31920173 C9.18166202,5.31920173 11.4884273,2.20769282 15.3212065,1.27049133 C11.8433142,0.595706273 5.91670197,3.44479877 7.97504637,8.43071067 Z" id="Path"></path>
          <path d="M3.89384633,15.8533463 C4.24873329,14.5412643 4.71008634,13.2666703 5.34888286,12.0670524 L5.34888286,12.0670524 L5.38437156,12.0295643 L5.38437156,12.0295643 L5.38437156,11.9920762 L5.38437156,11.9920762 L5.41986026,11.9545882 L5.41986026,11.9545882 L5.41986026,11.9171001 L5.45534895,11.8796121 L5.45534895,11.8796121 L5.45534895,11.842124 L5.49083765,11.842124 L5.49083765,11.8046359 L5.49083765,11.8046359 L5.49083765,11.7671479 L5.52632634,11.7671479 L5.52632634,11.7296598 L5.56181504,11.7296598 L5.56181504,11.6921718 L5.56181504,11.6546837 L5.59730374,11.6546837 L5.59730374,11.6546837 L5.59730374,11.6171957 L5.59730374,11.6171957 L5.63279243,11.5797076 L5.63279243,11.5422195 L5.63279243,11.5422195 L5.66828113,11.5047315 L5.66828113,11.5047315 L5.70376983,11.4297554 L5.70376983,11.4297554 L5.73925852,11.3922673 L5.73925852,11.3922673 L5.81023591,11.2798031 L5.81023591,11.2423151 L5.84572461,11.2423151 L5.84572461,11.1673389 L5.88121331,11.1673389 L5.91670197,11.0548748 L5.95219068,11.0548748 L5.95219068,11.0173867 L6.05865679,10.8674345 L6.05865679,10.8674345 C6.12963421,10.7549703 6.16512285,10.6799942 6.23610026,10.6050181 C7.12331767,9.2179599 7.26527244,7.83090167 6.98136291,6.21891515 C5.31339417,8.1308062 4.1422672,10.1176733 3.46798197,12.5543972 C3.46798197,12.5543972 4.00031242,8.65563902 6.87489679,5.8065465 C3.57444806,7.04365244 -0.222842414,12.6293733 3.89384633,15.8533463 Z" id="Path"></path>
          <path d="M3.89384633,24.4756 C3.57444806,23.1260298 3.39700458,21.7764597 3.36151588,20.3894016 L3.36151588,20.3894016 L3.36151588,20.3519135 L3.36151588,20.3519135 L3.36151588,20.3144254 L3.36151588,20.3144254 L3.36151588,20.2769374 L3.36151588,20.2769374 L3.36151588,20.2394493 L3.36151588,20.2019613 L3.36151588,20.2019613 L3.36151588,20.1644732 L3.36151588,20.1269851 L3.36151588,20.1269851 L3.36151588,20.089497 L3.36151588,20.089497 L3.36151588,20.052009 L3.36151588,20.0145209 L3.36151588,20.0145209 L3.36151588,19.9770328 L3.36151588,19.9395448 L3.36151588,19.9395448 L3.36151588,19.9020567 L3.36151588,19.9020567 L3.36151588,19.8645687 L3.36151588,19.8270806 L3.36151588,19.8270806 L3.36151588,19.7895926 L3.36151588,19.7521045 L3.36151588,19.7521045 L3.36151588,19.6771284 L3.36151588,19.6771284 L3.36151588,19.6396403 L3.36151588,19.6021523 L3.36151588,19.4896881 L3.36151588,19.4522 L3.36151588,19.414712 L3.39700458,19.3772239 L3.39700458,19.3397358 L3.39700458,19.2272717 L3.39700458,19.2272717 L3.39700458,19.1897836 L3.39700458,19.0023433 L3.39700458,18.9648553 C3.39700458,18.8898791 3.43249328,18.777415 3.43249328,18.6649508 C3.53895937,16.9779882 3.00662893,15.7033941 1.97745674,14.5037762 C1.4451263,17.0154762 1.37414891,19.3397358 1.97745674,21.8139478 C1.94196804,21.8139478 0.557908899,18.140118 1.72903587,14.1663837 C-0.577729374,16.9779882 -1.2165259,23.8383029 3.89384633,24.4756 Z" id="Path"></path>
          <path d="M7.97504637,31.8982357 C7.05234026,30.9235461 6.23610026,29.8363924 5.59730374,28.6742626 L5.59730374,28.6742626 L5.56181504,28.6367746 L5.56181504,28.6367746 L5.56181504,28.5992865 L5.56181504,28.5992865 L5.52632634,28.5617985 L5.52632634,28.5617985 L5.49083765,28.5243104 L5.49083765,28.5243104 L5.49083765,28.4868223 L5.45534895,28.4493343 L5.45534895,28.4493343 L5.45534895,28.4118462 L5.45534895,28.4118462 L5.41986026,28.4118462 L5.41986026,28.3743582 L5.41986026,28.3368701 L5.38437156,28.3368701 L5.38437156,28.299382 L5.38437156,28.299382 L5.34888286,28.261894 L5.34888286,28.261894 L5.34888286,28.2244059 L5.34888286,28.2244059 L5.31339417,28.1869178 L5.31339417,28.1494297 L5.31339417,28.1494297 L5.27790547,28.1119417 L5.27790547,28.1119417 L5.24241677,28.0369656 L5.24241677,28.0369656 L5.24241677,27.9994775 L5.20692808,27.9994775 L5.17143938,27.8495253 L5.13595069,27.8495253 L5.13595069,27.8120372 L5.10046199,27.7745492 L5.10046199,27.7370611 L5.06497329,27.662085 L5.0294846,27.6245969 L5.0294846,27.6245969 L4.95850721,27.4371566 L4.95850721,27.4371566 C4.88752982,27.3246925 4.85204112,27.2122283 4.81655242,27.1372522 C4.1422672,25.6377298 3.07760632,24.8129925 1.58708109,24.2881597 C2.3323437,26.7623716 3.36151588,28.8242149 5.0294846,30.6236417 C5.0294846,30.6236417 2.11941152,28.1869178 1.19670543,24.1382074 C0.557908899,27.8120372 3.2550498,34.0725431 7.97504637,31.8982357 Z" id="Path"></path>
          <path d="M15.0018082,36.2093625 C13.7597038,35.8344819 12.5530882,35.3471371 11.4174499,34.6723521 L11.4174499,34.6723521 L11.3819612,34.634864 L11.3819612,34.634864 L11.3464725,34.634864 L11.3464725,34.634864 L11.3464725,34.597376 L11.3109838,34.597376 L11.2754951,34.597376 L11.2754951,34.5598879 L11.2400064,34.5598879 L11.2400064,34.5598879 L11.2045177,34.5223998 L11.2045177,34.5223998 L11.169029,34.5223998 L11.169029,34.5223998 L11.1335403,34.4849118 L11.1335403,34.4849118 L11.0980516,34.4474237 L11.0625629,34.4474237 L11.0625629,34.4474237 L11.0270742,34.4099357 L11.0270742,34.4099357 L11.0270742,34.4099357 L10.9915855,34.4099357 L10.9560968,34.3724476 L10.9560968,34.3724476 L10.9206081,34.3724476 L10.9206081,34.3349595 L10.8851194,34.3349595 L10.8496308,34.2974715 L10.8141421,34.2974715 L10.8141421,34.2599834 L10.7786534,34.2599834 L10.6721872,34.1850073 L10.6366986,34.1850073 L10.6366986,34.1475193 L10.6012099,34.1475193 L10.5657212,34.1100312 L10.4947438,34.0725431 L10.4592551,34.0350551 L10.4592551,34.0350551 L10.2818116,33.9225909 L10.2818116,33.9225909 C10.2108342,33.8476148 10.1043681,33.8101267 10.0333907,33.7351506 C8.72030896,32.7979491 7.40722726,32.6479969 5.88121331,32.9479014 C7.69113679,34.7098401 9.57203772,35.9469461 11.8788029,36.6592192 C11.8788029,36.6592192 8.18797855,36.0968983 5.49083765,33.0603656 C6.66196462,36.5467551 11.9497804,40.5579774 15.0018082,36.2093625 Z" id="Path"></path>
          <path d="M23.1642083,36.2093625 C21.9221039,36.5467551 20.6090221,36.7341954 19.2959404,36.7716834 L19.2959404,36.7716834 L19.2959404,36.7716834 L19.2604517,36.7716834 L19.224963,36.7716834 L19.224963,36.7716834 L19.224963,36.7716834 L19.1894743,36.7716834 L19.1539856,36.7716834 L19.1539856,36.7716834 L19.1184969,36.7716834 L19.0830082,36.7716834 L19.0475196,36.7716834 L19.0475196,36.7716834 L19.0475196,36.7716834 L19.0120309,36.7716834 L18.9765421,36.7716834 L18.9765421,36.7716834 L18.9410534,36.7716834 L18.9055647,36.7716834 L18.9055647,36.7716834 L18.870076,36.7716834 L18.870076,36.7716834 L18.8345874,36.7716834 L18.7990987,36.7716834 L18.7990987,36.7716834 L18.76361,36.7716834 L18.7281213,36.7716834 L18.7281213,36.7716834 L18.6926326,36.7716834 L18.6571439,36.7716834 L18.6216552,36.7716834 L18.5861665,36.7716834 L18.5506778,36.7716834 L18.4442117,36.7716834 L18.408723,36.7716834 L18.408723,36.7716834 L18.3377456,36.7341954 L18.3022569,36.7341954 L18.2312795,36.7341954 L18.1957909,36.7341954 L18.1603021,36.7341954 L17.9828587,36.7341954 L17.9828587,36.7341954 C17.8763926,36.7341954 17.7699265,36.6967073 17.6634604,36.6967073 C16.1019577,36.5842431 14.8953421,37.146564 13.7242151,38.2337177 C16.1019577,38.7960386 18.3377456,38.8710147 20.6445108,38.2337177 C20.6445108,38.2712058 17.2021073,39.73324 13.4048169,38.4961341 C16.1019577,40.932858 22.5963891,41.607643 23.1642083,36.2093625 Z" id="Path"></path>
          <path d="M30.1909701,31.8982357 C29.3037527,32.8729253 28.2745805,33.7351506 27.1389422,34.4099357 L27.1389422,34.4099357 L27.1389422,34.4474237 L27.1034535,34.4474237 L27.0679648,34.4474237 L27.0679648,34.4474237 L27.0679648,34.4849118 L27.0324762,34.4849118 L26.9969875,34.5223998 L26.9969875,34.5223998 L26.9614988,34.5223998 L26.9614988,34.5598879 L26.92601,34.5598879 L26.92601,34.5598879 L26.8905213,34.5598879 L26.8905213,34.597376 L26.8550326,34.597376 L26.8550326,34.597376 L26.819544,34.634864 L26.7840553,34.634864 L26.7840553,34.634864 L26.7485666,34.6723521 L26.7485666,34.6723521 L26.7485666,34.6723521 L26.7130779,34.6723521 L26.6775892,34.7098401 L26.6775892,34.7098401 L26.6421005,34.7098401 L26.6421005,34.7473282 L26.6066118,34.7473282 L26.5711231,34.7848162 L26.5356344,34.7848162 L26.5001457,34.7848162 L26.5001457,34.8223043 L26.3936796,34.8597924 L26.3581909,34.8972804 L26.3581909,34.8972804 L26.2872135,34.9347685 L26.2872135,34.9347685 L26.1807475,34.9722565 L26.1807475,35.0097446 L26.1452588,35.0097446 L26.0033039,35.0847207 L25.9678153,35.0847207 C25.8613492,35.1596968 25.7903718,35.1971849 25.6839057,35.234673 C24.2643578,35.9469461 23.4836065,37.0715879 22.9867648,38.6460863 C25.3290187,37.8588371 27.280897,36.7716834 29.0198431,35.0097446 C29.0198431,35.0097446 26.7130779,38.0837655 22.8802987,39.058455 C26.3227022,39.73324 32.2493144,36.8841476 30.1909701,31.8982357 Z" id="Path"></path>
          <path d="M34.2721701,24.4756 C33.9527718,25.7876821 33.4559301,27.062276 32.8171336,28.261894 L32.8171336,28.261894 L32.8171336,28.299382 L32.7816449,28.299382 L32.7816449,28.3368701 L32.7816449,28.3368701 L32.7816449,28.3368701 L32.7461562,28.3743582 L32.7461562,28.4118462 L32.7461562,28.4118462 L32.7106675,28.4493343 L32.7106675,28.4493343 L32.7106675,28.4868223 L32.6751788,28.4868223 L32.6751788,28.5243104 L32.6751788,28.5243104 L32.6396901,28.5617985 L32.6396901,28.5617985 L32.6396901,28.5992865 L32.6042014,28.6367746 L32.6042014,28.6367746 L32.6042014,28.6742626 L32.6042014,28.6742626 L32.5687127,28.6742626 L32.5687127,28.7117507 L32.5687127,28.7492387 L32.533224,28.7492387 L32.533224,28.7867268 L32.533224,28.7867268 L32.4977353,28.8242149 L32.4622466,28.8617029 L32.4622466,28.899191 L32.4622466,28.899191 L32.426758,28.936679 L32.3557806,29.0491432 L32.3557806,29.0866313 L32.3557806,29.0866313 L32.3202918,29.1241193 L32.3202918,29.1616074 L32.2493144,29.2365835 L32.2493144,29.2740716 L32.2138258,29.2740716 L32.1428484,29.4615119 L32.1073597,29.4615119 C32.071871,29.536488 32.0008936,29.6489522 31.9299162,29.7239283 C31.0426988,31.1109864 30.900744,32.4980447 31.2201423,34.1100312 C32.888111,32.1981401 34.059238,30.211273 34.6980345,27.7745492 C34.6980345,27.7745492 34.165704,31.6733073 31.2911197,34.5223998 C34.6270571,33.2852939 38.4243476,27.699573 34.2721701,24.4756 Z" id="Path"></path>
          <path d="M34.2721701,15.8533463 C34.6270571,17.1654284 34.8045006,18.5524866 34.8045006,19.9395448 L34.8045006,19.9395448 L34.8045006,19.9395448 L34.8045006,19.9770328 L34.8045006,20.0145209 L34.8045006,20.0145209 L34.8045006,20.0145209 L34.8045006,20.052009 L34.8045006,20.089497 L34.8045006,20.089497 L34.8045006,20.1269851 L34.8045006,20.1644732 L34.8045006,20.2019613 L34.8045006,20.2019613 L34.8045006,20.2019613 L34.8045006,20.2394493 L34.8045006,20.2769374 L34.8045006,20.2769374 L34.8045006,20.3144254 L34.8045006,20.3519135 L34.8045006,20.3519135 L34.8045006,20.3894016 L34.8045006,20.3894016 L34.8045006,20.4268896 L34.8045006,20.4643777 L34.8045006,20.4643777 L34.8045006,20.5018657 L34.8045006,20.5393538 L34.8045006,20.5393538 L34.8045006,20.5768418 L34.8045006,20.6143299 L34.8045006,20.651818 L34.8045006,20.689306 L34.8045006,20.7267941 L34.8045006,20.8392583 L34.8045006,20.8767463 L34.8045006,20.8767463 L34.8045006,20.9517224 L34.8045006,20.9892105 L34.8045006,21.0641866 L34.8045006,21.1016747 L34.8045006,21.1391627 L34.7690119,21.326603 L34.7690119,21.326603 C34.7690119,21.4390672 34.7690119,21.5515314 34.7335232,21.6639955 C34.6270571,23.3134701 35.1593875,24.5880642 36.1885597,25.8251701 C36.7208902,23.3134701 36.7918675,20.9517224 36.2240484,18.5149986 C36.2240484,18.5149986 37.6081076,22.1513403 36.4724693,26.1625626 C38.7437458,23.3134701 39.3825423,16.4531553 34.2721701,15.8533463 Z" id="Path"></path>
        </g>
      </g>
    </g>
  </g>
</svg>
