<?xml version="1.0" encoding="UTF-8"?>
<svg xmlns="http://www.w3.org/2000/svg" xmlns:xlink="http://www.w3.org/1999/xlink" width="85px" height="85px" viewBox="0 0 85 85" version="1.1">
  <title>Group</title>
  <g id="Zymo-Icons" stroke="none" stroke-width="1" fill="none" fill-rule="evenodd">
    <g id="Artboard" transform="translate(-1579.000000, -890.000000)" fill="#FFFFFF">
      <g id="Group" transform="translate(1579.000000, 890.000000)">
        <g id="Group-23" transform="translate(0.000000, 69.462366)" fill-rule="nonzero">
          <path d="M5.10491362,15.5376344 L0,15.5376344 L0,4.80926779 L4.52897465,4.80926779 C5.31434598,4.80926779 5.99500113,4.88175676 6.5709401,5.05089767 C7.14687907,5.24420157 7.56574378,5.46166847 7.85371327,5.77578731 C8.37729415,6.33153603 8.63908459,6.93561073 8.63908459,7.63633737 C8.63908459,8.48204195 8.35111511,9.11027963 7.77517613,9.52105043 C7.56574378,9.66602836 7.43484856,9.73851732 7.35631143,9.78684329 C7.27777429,9.81100628 7.12070003,9.88349525 6.93744672,9.95598421 C7.64428091,10.1009621 8.22021989,10.415081 8.63908459,10.8500148 C9.08412834,11.3091115 9.2935607,11.8890232 9.2935607,12.5655869 C9.2935607,13.3146395 9.00559121,13.9670402 8.45583128,14.5469519 C7.80135518,15.1993526 6.67565628,15.5376344 5.10491362,15.5376344 Z M1.96342832,9.25525756 L4.45043752,9.25525756 C5.89028495,9.25525756 6.59711914,8.82032378 6.59711914,7.92629323 C6.59711914,7.3947075 6.41386583,7.03226268 6.07353826,6.81479579 C5.73321068,6.5973289 5.2096298,6.47651396 4.47661656,6.47651396 L1.96342832,6.47651396 L1.96342832,9.25525756 Z M1.96342832,13.8703882 L5.05255553,13.8703882 C5.75938973,13.8703882 6.30914966,13.7737363 6.70183532,13.5562694 C7.09452098,13.3388025 7.27777429,12.9521947 7.27777429,12.372283 C7.27777429,11.4057635 6.44004488,10.9225037 4.79076509,10.9225037 L1.96342832,10.9225037 L1.96342832,13.8703882 Z M21.0479516,8.28873805 C21.0479516,10.0526362 20.2102221,11.1882966 18.5347633,11.6473934 L21.5715324,15.5376344 L19.0845232,15.5376344 L16.3095445,11.9373492 L13.7178192,11.9373492 L13.7178192,15.5376344 L11.7543909,15.5376344 L11.7543909,4.80926779 L16.1001122,4.80926779 C17.8541082,4.80926779 19.1368813,5.07506066 19.8960736,5.63080938 C20.6552659,6.1865581 21.0479516,7.05642567 21.0479516,8.28873805 Z M16.1786493,10.294266 C17.2781692,10.294266 18.0373615,10.1251251 18.4300471,9.81100628 C18.8489118,9.49688744 19.0321651,8.9894647 19.0321651,8.28873805 C19.0321651,7.5880114 18.8227328,7.10475164 18.4300471,6.83895877 C18.0111824,6.57316591 17.2781692,6.45235097 16.2310074,6.45235097 L13.7178192,6.45235097 L13.7178192,10.294266 L16.1786493,10.294266 Z M23.8752883,4.80926779 L26.0670081,4.80926779 L26.0670081,15.5376344 L23.8752883,15.5376344 L23.8752883,4.80926779 Z M29.0849181,15.5376344 L29.0849181,4.80926779 L31.0483464,4.80926779 L31.0483464,13.8220623 L36.3626924,13.8220623 L36.3626924,15.5376344 L29.0849181,15.5376344 Z M38.509374,15.5376344 L38.509374,4.80926779 L40.4728024,4.80926779 L40.4728024,13.8220623 L45.7871483,13.8220623 L45.7871483,15.5376344 L38.509374,15.5376344 Z M49.5831098,13.0971726 L48.4050528,15.5376344 L46.3107292,15.5376344 L51.4418219,4.80926779 L53.5361454,4.80926779 L58.6672381,15.5376344 L56.5729146,15.5376344 L55.4210366,13.0971726 L49.5831098,13.0971726 Z M54.6094862,11.4299265 L52.4889837,7.00809969 L50.3684811,11.4299265 L54.6094862,11.4299265 Z M69.5838995,8.28873805 C69.5838995,10.0526362 68.7461701,11.1882966 67.0707113,11.6473934 L70.1074804,15.5376344 L67.6204712,15.5376344 L64.8454925,11.9373492 L62.2537672,11.9373492 L62.2537672,15.5376344 L60.2903388,15.5376344 L60.2903388,4.80926779 L64.6098811,4.80926779 C66.3900561,4.80926779 67.6728293,5.07506066 68.4320216,5.63080938 C69.1912139,6.1865581 69.5838995,7.05642567 69.5838995,8.28873805 Z M64.7145973,10.294266 C65.8141172,10.294266 66.5733095,10.1251251 66.9659951,9.81100628 C67.3586808,9.49688744 67.5681131,8.9894647 67.5681131,8.28873805 C67.5681131,7.5880114 67.3586808,7.10475164 66.9398161,6.83895877 C66.5471304,6.57316591 65.8141172,6.45235097 64.7407764,6.45235097 L62.2537672,6.45235097 L62.2537672,10.294266 L64.7145973,10.294266 Z M80.5790981,4.80926779 L80.5790981,6.50067694 L74.3746646,6.50067694 L74.3746646,9.35190951 L79.9508011,9.35190951 L79.9508011,10.9708297 L74.3746646,10.9708297 L74.3746646,13.8462253 L80.7885305,13.8462253 L80.7885305,15.5376344 L72.4112363,15.5376344 L72.4112363,4.80926779 L80.5790981,4.80926779 Z" id="Shape"></path>
          <path d="M82.345679,0 C82.8224852,0 83.2516107,0.168501743 83.585375,0.505505229 C83.9191393,0.866580393 84.0860215,1.27579891 84.0860215,1.75723246 C84.0860215,2.23866601 83.9191393,2.64788453 83.585375,3.0089597 C83.2516107,3.34596318 82.8224852,3.51446493 82.345679,3.51446493 C81.8688728,3.51446493 81.4397473,3.34596318 81.105983,3.0089597 C80.7722187,2.64788453 80.6053365,2.23866601 80.6053365,1.75723246 C80.6053365,1.27579891 80.7722187,0.866580393 81.105983,0.529576907 C81.4635876,0.168501743 81.8688728,0 82.345679,0 Z M82.3695193,0.216645098 C81.9403938,0.216645098 81.5827892,0.361075164 81.2728651,0.674006972 C80.9867814,0.962867103 80.8437396,1.34801394 80.8437396,1.75723246 C80.8437396,2.19052266 80.9867814,2.55159782 81.2728651,2.86452963 C81.5589488,3.15338976 81.9165535,3.29781983 82.345679,3.29781983 C82.7748046,3.29781983 83.1324092,3.15338976 83.4423332,2.84045795 C83.7284169,2.55159782 83.8714587,2.19052266 83.8714587,1.75723246 C83.8714587,1.32394227 83.7284169,0.962867103 83.4423332,0.674006972 C83.1562495,0.361075164 82.7986449,0.216645098 82.3695193,0.216645098 Z M82.4228966,0.962306208 C82.7207951,0.962306208 82.9442189,1.00482288 83.0683433,1.08985622 C83.1924677,1.17488956 83.2669423,1.32369791 83.2669423,1.51502292 C83.2669423,1.79138128 83.117993,1.96144796 82.8200946,2.0464813 L83.3414169,2.64171468 L82.9193941,2.64171468 L82.4477215,2.08899797 L82.0256986,2.08899797 L82.0256986,2.64171468 L81.6781504,2.64171468 L81.6781504,0.962306208 L82.4228966,0.962306208 Z M82.4734913,1.20302298 L82.0371405,1.20302298 L82.0371405,1.78615093 L82.4478236,1.78615093 C82.6531652,1.78615093 82.7815037,1.76532493 82.8585067,1.72367293 C82.9355098,1.68202094 82.9611775,1.59871694 82.9611775,1.49458695 C82.9611775,1.39045697 82.9355098,1.30715297 82.8585067,1.26550098 C82.7815037,1.22384898 82.6531652,1.20302298 82.4734913,1.20302298 Z" id="Shape"></path>
        </g>
        <g id="_2530486702544" transform="translate(10.053763, 0.000000)">
          <path d="M19.2477675,14.5732791 L19.2477675,53.975108 L35.2545174,53.975108 C43.7109136,53.975108 48.7243485,49.9584167 48.7243485,43.2639312 C48.7243485,37.8445858 45.5834013,34.1466795 40.1471466,33.3178385 C44.5565532,32.3614834 47.0330692,29.0461192 47.0330692,24.3918578 C47.0330692,18.2074284 42.502857,14.5732791 35.0129061,14.5732791 L19.2477675,14.5732791 Z M23.5363684,18.9087555 L34.7712947,18.9087555 C39.7847296,18.9087555 42.7444683,21.1402506 42.7444683,25.1569419 C42.7444683,29.2373902 39.7847296,31.5326424 34.7712947,31.5326424 L23.5363684,31.5326424 L23.5363684,18.9087555 Z M23.5363684,35.8681187 L34.7712947,35.8681187 C40.8719806,35.8681187 44.3753447,38.3546418 44.3753447,42.6263611 C44.3753447,47.1531085 40.8719806,49.7033886 34.7712947,49.7033886 L23.5363684,49.7033886 L23.5363684,35.8681187 Z" id="Shape" fill-rule="nonzero"></path>
          <g id="Group">
            <path d="M51.3246494,14.3322082 C52.8932498,15.9254507 54.2808578,17.773612 55.4271427,19.8129624 L55.4271427,19.8129624 L55.4271427,19.8766921 L55.4271427,19.8766921 L55.4874735,19.9404218 L55.4874735,19.9404218 L55.4874735,19.9404218 L55.5478042,20.0041515 L55.5478042,20.0678812 L55.5478042,20.0678812 L55.608135,20.1316109 L55.608135,20.1316109 L55.608135,20.1953406 L55.6684658,20.1953406 L55.6684658,20.2590703 L55.6684658,20.2590703 L55.6684658,20.3228 L55.7287966,20.3228 L55.7287966,20.3865297 L55.7287966,20.4502594 L55.7891274,20.4502594 L55.7891274,20.5139892 L55.7891274,20.5139892 L55.7891274,20.5139892 L55.8494582,20.5777189 L55.8494582,20.6414486 L55.8494582,20.6414486 L55.9097889,20.7051783 L55.9097889,20.7051783 L55.9097889,20.768908 L55.9701197,20.8326377 L55.9701197,20.8963674 L56.0304505,20.9600971 L56.0304505,20.9600971 L56.1511121,21.1512862 L56.1511121,21.2150159 L56.1511121,21.2150159 L56.2114429,21.3424753 L56.2114429,21.3424753 L56.3321044,21.5336644 L56.3321044,21.5336644 L56.3321044,21.5973941 L56.452766,21.8523129 L56.5130968,21.9160426 C56.5734276,22.1072317 56.6337583,22.2346911 56.6940891,22.4258802 C57.9007048,24.9750682 59.7106283,26.3771216 62.1841904,27.2693374 C60.917244,23.0631772 59.1676513,19.5580436 56.3321044,16.4352883 C56.3321044,16.4352883 61.3395595,20.5777189 62.847829,27.4605266 C63.9337832,21.2787456 59.3486436,10.6358855 51.3246494,14.3322082 Z" id="Path"></path>
            <path d="M39.3791543,7.00329255 C41.4907317,7.57685986 43.5419783,8.46907568 45.4725634,9.61621029 L45.4725634,9.61621029 L45.5328942,9.61621029 L45.593225,9.67993999 L45.593225,9.67993999 L45.593225,9.67993999 L45.6535557,9.67993999 L45.6535557,9.74366969 L45.7138865,9.74366969 L45.7742173,9.74366969 L45.7742173,9.80739939 L45.8345481,9.80739939 L45.8345481,9.80739939 L45.8948789,9.8711291 L45.8948789,9.8711291 L45.9552097,9.8711291 L45.9552097,9.9348588 L46.0155404,9.9348588 L46.0155404,9.9348588 L46.0758712,9.9985885 L46.136202,9.9985885 L46.136202,9.9985885 L46.136202,9.9985885 L46.1965328,10.0623182 L46.1965328,10.0623182 L46.2568636,10.0623182 L46.3171944,10.1260479 L46.3171944,10.1260479 L46.3775251,10.1260479 L46.3775251,10.1897776 L46.4981867,10.2535073 L46.4981867,10.2535073 L46.5585175,10.2535073 L46.5585175,10.317237 L46.7395098,10.4446964 L46.7998406,10.4446964 L46.7998406,10.4446964 L46.9205022,10.5084261 L46.9205022,10.5084261 L47.1014945,10.6358855 L47.1014945,10.6358855 L47.1618253,10.6996152 L47.4031485,10.8270746 L47.4031485,10.8908043 C47.5841408,10.954534 47.7048024,11.0819934 47.8254639,11.2094528 C50.0577029,12.8026953 52.2899419,13.0576141 54.8841656,12.4840468 C51.8072957,9.48875089 48.6097641,7.38567076 44.6882632,6.23853614 C44.6882632,6.23853614 50.9626647,7.19448166 55.5478042,12.3565874 C53.5568884,6.36599554 44.5676016,-0.453082454 39.3791543,7.00329255 Z" id="Path"></path>
            <path d="M25.5634048,7.00329255 C27.6749822,6.36599554 29.8468905,6.04734704 32.0791294,6.04734704 L32.0791294,6.04734704 L32.1394602,6.04734704 L32.1394602,6.04734704 L32.199791,6.04734704 L32.199791,6.04734704 L32.2601218,6.04734704 L32.2601218,6.04734704 L32.3204526,6.04734704 L32.3807834,6.04734704 L32.4411141,6.04734704 L32.4411141,6.04734704 L32.5014449,6.04734704 L32.5014449,6.04734704 L32.5617757,6.04734704 L32.5617757,6.04734704 L32.6221065,6.04734704 L32.6824373,6.04734704 L32.6824373,6.04734704 L32.7427681,6.04734704 L32.8030988,6.04734704 L32.8030988,6.04734704 L32.8634296,6.04734704 L32.8634296,6.04734704 L32.9237604,6.04734704 L32.9840912,6.04734704 L32.9840912,6.04734704 L33.044422,6.04734704 L33.1047528,6.04734704 L33.1047528,6.04734704 L33.2254143,6.04734704 L33.2254143,6.04734704 L33.2857451,6.04734704 L33.3460759,6.04734704 L33.5270682,6.04734704 L33.587399,6.04734704 L33.6477298,6.04734704 L33.7080606,6.04734704 L33.7683914,6.04734704 L33.9493837,6.04734704 L33.9493837,6.04734704 L34.0097145,6.04734704 L34.3113684,6.11107674 L34.3716992,6.11107674 C34.4923608,6.11107674 34.6733531,6.11107674 34.8543455,6.17480644 C37.5692307,6.36599554 39.6204774,5.41005003 41.5510625,3.5618887 C37.5089,2.60594319 33.7683914,2.47848379 29.7865597,3.498159 C29.7865597,3.498159 35.6989765,1.01270067 42.0940395,3.0520511 C37.5692307,-1.02664976 26.5286974,-2.17378438 25.5634048,7.00329255 Z" id="Path"></path>
            <path d="M13.5575789,14.3322082 C15.1261793,12.6752359 16.875772,11.2094528 18.7460263,9.9985885 L18.7460263,9.9985885 L18.8063571,9.9985885 L18.8063571,9.9985885 L18.8666878,9.9348588 L18.8666878,9.9348588 L18.9270186,9.9348588 L18.9270186,9.9348588 L18.9873494,9.8711291 L18.9873494,9.8711291 L19.0476802,9.80739939 L19.108011,9.80739939 L19.108011,9.80739939 L19.1683418,9.80739939 L19.1683418,9.74366969 L19.1683418,9.74366969 L19.2286725,9.74366969 L19.2890033,9.67993999 L19.2890033,9.67993999 L19.3493341,9.67993999 L19.3493341,9.61621029 L19.4096649,9.61621029 L19.4096649,9.61621029 L19.4699957,9.61621029 L19.4699957,9.55248059 L19.5303265,9.55248059 L19.5906572,9.55248059 L19.5906572,9.48875089 L19.650988,9.48875089 L19.650988,9.48875089 L19.7716496,9.42502119 L19.7716496,9.42502119 L19.8319804,9.36129149 L19.8319804,9.36129149 L20.0733035,9.23383209 L20.0733035,9.23383209 L20.1336343,9.23383209 L20.1939651,9.17010239 L20.2542959,9.17010239 L20.3749574,9.04264298 L20.4352882,9.04264298 L20.4352882,9.04264298 L20.7369421,8.91518358 L20.7369421,8.85145388 C20.9179345,8.78772418 21.0989268,8.72399448 21.2195884,8.66026478 C23.6328197,7.38567076 24.960097,5.47377973 25.804728,2.86086199 C21.8228962,4.19918571 18.5047031,6.04734704 15.6088255,9.04264298 C15.6088255,9.04264298 19.5303265,3.75307781 26.0460511,2.15983528 C20.1336343,1.01270067 10.0583934,5.85615794 13.5575789,14.3322082 Z" id="Path"></path>
            <path d="M6.61953879,26.9506889 C7.22284662,24.7201494 8.00714681,22.5533396 9.09310091,20.5139892 L9.09310091,20.5139892 L9.1534317,20.4502594 L9.1534317,20.4502594 L9.1534317,20.3865297 L9.1534317,20.3865297 L9.21376248,20.3228 L9.21376248,20.3228 L9.21376248,20.2590703 L9.27409326,20.1953406 L9.27409326,20.1953406 L9.27409326,20.1316109 L9.33442405,20.1316109 L9.33442405,20.0678812 L9.33442405,20.0678812 L9.33442405,20.0041515 L9.39475483,20.0041515 L9.39475483,19.9404218 L9.45508561,19.9404218 L9.45508561,19.8766921 L9.45508561,19.8129624 L9.5154164,19.8129624 L9.5154164,19.8129624 L9.5154164,19.7492327 L9.5154164,19.7492327 L9.57574718,19.685503 L9.57574718,19.6217733 L9.57574718,19.6217733 L9.63607796,19.5580436 L9.63607796,19.5580436 L9.69640875,19.4305842 L9.69640875,19.4305842 L9.75673953,19.3668545 L9.75673953,19.3668545 L9.8774011,19.1756654 L9.8774011,19.1119357 L9.93773188,19.1119357 L9.93773188,18.9844763 L9.99806267,18.9844763 L10.0583934,18.7932872 L10.1187242,18.7932872 L10.1187242,18.7295575 L10.2997166,18.4746387 L10.2997166,18.4746387 C10.4203782,18.2834496 10.4807089,18.1559902 10.6013705,18.0285308 C12.1096401,15.6705319 12.3509632,13.3125329 11.868317,10.5721558 C9.03277013,13.8223706 7.04185427,17.2000447 5.89556938,21.3424753 C5.89556938,21.3424753 6.80053114,14.7145864 11.6873246,9.8711291 C6.07656173,11.9742092 -0.378832104,21.4699347 6.61953879,26.9506889 Z" id="Path"></path>
            <path d="M6.61953879,41.6085202 C6.07656173,39.3142509 5.77490782,37.0199817 5.71457703,34.6619828 L5.71457703,34.6619828 L5.71457703,34.5982531 L5.71457703,34.5982531 L5.71457703,34.5345234 L5.71457703,34.5345234 L5.71457703,34.4707937 L5.71457703,34.4707937 L5.71457703,34.407064 L5.71457703,34.3433343 L5.71457703,34.3433343 L5.71457703,34.2796046 L5.71457703,34.2158748 L5.71457703,34.2158748 L5.71457703,34.1521451 L5.71457703,34.1521451 L5.71457703,34.0884154 L5.71457703,34.0246857 L5.71457703,34.0246857 L5.71457703,33.960956 L5.71457703,33.8972263 L5.71457703,33.8972263 L5.71457703,33.8334966 L5.71457703,33.8334966 L5.71457703,33.7697669 L5.71457703,33.7060372 L5.71457703,33.7060372 L5.71457703,33.6423075 L5.71457703,33.5785778 L5.71457703,33.5785778 L5.71457703,33.4511184 L5.71457703,33.4511184 L5.71457703,33.3873887 L5.71457703,33.323659 L5.71457703,33.1324699 L5.71457703,33.0687402 L5.71457703,33.0050105 L5.77490782,32.9412808 L5.77490782,32.8775511 L5.77490782,32.686362 L5.77490782,32.686362 L5.77490782,32.6226323 L5.77490782,32.3039838 L5.77490782,32.2402541 C5.77490782,32.1127947 5.8352386,31.9216056 5.8352386,31.7304165 C6.01623095,28.86258 5.1112692,26.6957701 3.36167648,24.6564197 C2.45671472,28.9263097 2.33605316,32.8775511 3.36167648,37.0837114 C3.30134569,37.0837114 0.948445134,30.8382007 2.93936099,24.0828524 C-0.98213994,28.86258 -2.06809404,40.5251152 6.61953879,41.6085202 Z" id="Path"></path>
            <path d="M13.5575789,54.2270009 C11.9889785,52.5700287 10.6013705,50.7218674 9.5154164,48.7462467 L9.5154164,48.7462467 L9.45508561,48.682517 L9.45508561,48.682517 L9.45508561,48.6187873 L9.45508561,48.6187873 L9.39475483,48.5550576 L9.39475483,48.5550576 L9.33442405,48.4913279 L9.33442405,48.4913279 L9.33442405,48.4275982 L9.27409326,48.3638685 L9.27409326,48.3638685 L9.27409326,48.3001388 L9.27409326,48.3001388 L9.21376248,48.3001388 L9.21376248,48.2364091 L9.21376248,48.1726794 L9.1534317,48.1726794 L9.1534317,48.1089497 L9.1534317,48.1089497 L9.09310091,48.04522 L9.09310091,48.04522 L9.09310091,47.9814902 L9.09310091,47.9814902 L9.03277013,47.9177605 L9.03277013,47.8540308 L9.03277013,47.8540308 L8.97243935,47.7903011 L8.97243935,47.7903011 L8.91210856,47.6628417 L8.91210856,47.6628417 L8.91210856,47.599112 L8.85177778,47.599112 L8.79144699,47.3441932 L8.73111621,47.3441932 L8.73111621,47.2804635 L8.67078543,47.2167338 L8.67078543,47.1530041 L8.61045464,47.0255447 L8.55012386,46.961815 L8.55012386,46.961815 L8.42946229,46.6431665 L8.42946229,46.6431665 C8.30880073,46.4519774 8.24846994,46.2607883 8.18813916,46.1333289 C7.04185427,43.5841409 5.23193077,42.1820875 2.69803786,41.2898717 C3.96498431,45.4960319 5.71457703,49.0011655 8.55012386,52.0601911 C8.55012386,52.0601911 3.60299961,47.9177605 2.03439924,41.0349528 C0.948445134,47.2804635 5.53358468,57.9233236 13.5575789,54.2270009 Z" id="Path"></path>
            <path d="M25.503074,61.5559165 C23.3914966,60.9186195 21.34025,60.0901334 19.4096649,58.9429988 L19.4096649,58.9429988 L19.3493341,58.8792691 L19.3493341,58.8792691 L19.2890033,58.8792691 L19.2890033,58.8792691 L19.2890033,58.8155394 L19.2286725,58.8155394 L19.1683418,58.8155394 L19.1683418,58.7518097 L19.108011,58.7518097 L19.108011,58.7518097 L19.0476802,58.68808 L19.0476802,58.68808 L18.9873494,58.68808 L18.9873494,58.68808 L18.9270186,58.6243503 L18.9270186,58.6243503 L18.8666878,58.5606206 L18.8063571,58.5606206 L18.8063571,58.5606206 L18.7460263,58.4968909 L18.7460263,58.4968909 L18.7460263,58.4968909 L18.6856955,58.4968909 L18.6253647,58.4331612 L18.6253647,58.4331612 L18.5650339,58.4331612 L18.5650339,58.3694315 L18.5047031,58.3694315 L18.4443724,58.3057018 L18.3840416,58.3057018 L18.3840416,58.2419721 L18.3237108,58.2419721 L18.1427184,58.1145127 L18.0823877,58.1145127 L18.0823877,58.050783 L18.0220569,58.050783 L17.9617261,57.9870533 L17.8410645,57.9233236 L17.7807337,57.8595939 L17.7807337,57.8595939 L17.4790798,57.6684048 L17.4790798,57.6684048 C17.3584183,57.5409454 17.1774259,57.4772157 17.0567643,57.3497563 C14.8245253,55.7565138 12.5922864,55.501595 9.99806267,56.0114326 C13.0749326,59.0067285 16.2724642,61.1098086 20.1939651,62.320673 C20.1939651,62.320673 13.9195636,61.3647274 9.33442405,56.2026217 C11.3253399,62.1294839 20.3146267,68.9485619 25.503074,61.5559165 Z" id="Path"></path>
            <path d="M39.3791543,61.5559165 C37.2675768,62.1294839 35.0353378,62.4481324 32.8030988,62.5118621 L32.8030988,62.5118621 L32.8030988,62.5118621 L32.7427681,62.5118621 L32.6824373,62.5118621 L32.6824373,62.5118621 L32.6824373,62.5118621 L32.6221065,62.5118621 L32.5617757,62.5118621 L32.5617757,62.5118621 L32.5014449,62.5118621 L32.4411141,62.5118621 L32.3807834,62.5118621 L32.3807834,62.5118621 L32.3807834,62.5118621 L32.3204526,62.5118621 L32.2601218,62.5118621 L32.2601218,62.5118621 L32.199791,62.5118621 L32.1394602,62.5118621 L32.1394602,62.5118621 L32.0791294,62.5118621 L32.0791294,62.5118621 L32.0187987,62.5118621 L31.9584679,62.5118621 L31.9584679,62.5118621 L31.8981371,62.5118621 L31.8378063,62.5118621 L31.8378063,62.5118621 L31.7774755,62.5118621 L31.7171447,62.5118621 L31.656814,62.5118621 L31.5964832,62.5118621 L31.5361524,62.5118621 L31.35516,62.5118621 L31.2948293,62.5118621 L31.2948293,62.5118621 L31.1741677,62.4481324 L31.1138369,62.4481324 L30.9931753,62.4481324 L30.9328446,62.4481324 L30.8725138,62.4481324 L30.5708599,62.4481324 L30.5708599,62.4481324 C30.3898675,62.4481324 30.2088752,62.3844027 30.0278828,62.3844027 C27.3733283,62.1932136 25.3220817,63.1491591 23.3311658,64.9973204 C27.3733283,65.9532659 31.1741677,66.0807253 35.0956686,64.9973204 C35.0956686,65.0610501 29.2435826,67.5465084 22.7881888,65.4434283 C27.3733283,69.5858589 38.4138617,70.7329935 39.3791543,61.5559165 Z" id="Path"></path>
            <path d="M51.3246494,54.2270009 C49.8163798,55.8839732 48.0667871,57.3497563 46.136202,58.4968909 L46.136202,58.4968909 L46.136202,58.5606206 L46.0758712,58.5606206 L46.0155404,58.5606206 L46.0155404,58.5606206 L46.0155404,58.6243503 L45.9552097,58.6243503 L45.8948789,58.68808 L45.8948789,58.68808 L45.8345481,58.68808 L45.8345481,58.7518097 L45.7742173,58.7518097 L45.7742173,58.7518097 L45.7138865,58.7518097 L45.7138865,58.8155394 L45.6535557,58.8155394 L45.6535557,58.8155394 L45.593225,58.8792691 L45.5328942,58.8792691 L45.5328942,58.8792691 L45.4725634,58.9429988 L45.4725634,58.9429988 L45.4725634,58.9429988 L45.4122326,58.9429988 L45.3519018,59.0067285 L45.3519018,59.0067285 L45.291571,59.0067285 L45.291571,59.0704582 L45.2312403,59.0704582 L45.1709095,59.1341879 L45.1105787,59.1341879 L45.0502479,59.1341879 L45.0502479,59.1979176 L44.8692556,59.2616473 L44.8089248,59.325377 L44.8089248,59.325377 L44.6882632,59.3891067 L44.6882632,59.3891067 L44.5072709,59.4528364 L44.5072709,59.5165661 L44.4469401,59.5165661 L44.2056169,59.6440255 L44.1452862,59.6440255 C43.9642938,59.7714849 43.8436322,59.8352146 43.6626399,59.8989443 C41.2494085,61.1098086 39.9221313,63.0216997 39.0775003,65.6983471 C43.059332,64.3600234 46.3775251,62.5118621 49.3337335,59.5165661 C49.3337335,59.5165661 45.4122326,64.7424016 38.896508,66.3993738 C44.748594,67.5465084 54.8238348,62.7030512 51.3246494,54.2270009 Z" id="Path"></path>
            <path d="M58.2626895,41.6085202 C57.7197124,43.8390597 56.8750815,46.0058695 55.7891274,48.04522 L55.7891274,48.04522 L55.7891274,48.1089497 L55.7287966,48.1089497 L55.7287966,48.1726794 L55.7287966,48.1726794 L55.7287966,48.1726794 L55.6684658,48.2364091 L55.6684658,48.3001388 L55.6684658,48.3001388 L55.608135,48.3638685 L55.608135,48.3638685 L55.608135,48.4275982 L55.5478042,48.4275982 L55.5478042,48.4913279 L55.5478042,48.4913279 L55.4874735,48.5550576 L55.4874735,48.5550576 L55.4874735,48.6187873 L55.4271427,48.682517 L55.4271427,48.682517 L55.4271427,48.7462467 L55.4271427,48.7462467 L55.3668119,48.7462467 L55.3668119,48.8099764 L55.3668119,48.8737061 L55.3064811,48.8737061 L55.3064811,48.9374358 L55.3064811,48.9374358 L55.2461503,49.0011655 L55.1858195,49.0648952 L55.1858195,49.1286249 L55.1858195,49.1286249 L55.1254888,49.1923546 L55.0048272,49.3835437 L55.0048272,49.4472734 L55.0048272,49.4472734 L54.9444964,49.5110031 L54.9444964,49.5747328 L54.8238348,49.7021922 L54.8238348,49.7659219 L54.7635041,49.7659219 L54.6428425,50.0845704 L54.5825117,50.0845704 C54.5221809,50.2120298 54.4015194,50.4032189 54.2808578,50.5306783 C52.7725882,52.8886772 52.5312651,55.2466762 53.0742421,57.9870533 C55.9097889,54.7368385 57.9007048,51.3591644 58.9866589,47.2167338 C58.9866589,47.2167338 58.0816971,53.8446227 53.1949037,58.68808 C58.8659973,56.5849999 65.3213912,47.0892744 58.2626895,41.6085202 Z" id="Path"></path>
            <path d="M58.2626895,26.9506889 C58.8659973,29.1812285 59.1676513,31.5392274 59.1676513,33.8972263 L59.1676513,33.8972263 L59.1676513,33.8972263 L59.1676513,33.960956 L59.1676513,34.0246857 L59.1676513,34.0246857 L59.1676513,34.0246857 L59.1676513,34.0884154 L59.1676513,34.1521451 L59.1676513,34.1521451 L59.1676513,34.2158748 L59.1676513,34.2796046 L59.1676513,34.3433343 L59.1676513,34.3433343 L59.1676513,34.3433343 L59.1676513,34.407064 L59.1676513,34.4707937 L59.1676513,34.4707937 L59.1676513,34.5345234 L59.1676513,34.5982531 L59.1676513,34.5982531 L59.1676513,34.6619828 L59.1676513,34.6619828 L59.1676513,34.7257125 L59.1676513,34.7894422 L59.1676513,34.7894422 L59.1676513,34.8531719 L59.1676513,34.9169016 L59.1676513,34.9169016 L59.1676513,34.9806313 L59.1676513,35.044361 L59.1676513,35.1080907 L59.1676513,35.1718204 L59.1676513,35.2355501 L59.1676513,35.4267392 L59.1676513,35.4904689 L59.1676513,35.4904689 L59.1676513,35.6179283 L59.1676513,35.681658 L59.1676513,35.8091174 L59.1676513,35.8728471 L59.1676513,35.9365768 L59.1073205,36.2552253 L59.1073205,36.2552253 C59.1073205,36.4464144 59.1073205,36.6376035 59.0469897,36.8287926 C58.8659973,39.6328994 59.7709591,41.7997093 61.5205518,43.9027894 C62.4255136,39.6328994 62.5461751,35.6179283 61.5808826,31.4754977 C61.5808826,31.4754977 63.9337832,37.6572787 62.0031981,44.4763567 C65.8643682,39.6328994 66.9503223,27.9703642 58.2626895,26.9506889 Z" id="Path"></path>
          </g>
        </g>
      </g>
    </g>
  </g>
</svg>
