<?xml version="1.0" encoding="UTF-8"?>
<svg xmlns="http://www.w3.org/2000/svg" xmlns:xlink="http://www.w3.org/1999/xlink" width="92px" height="93px" viewBox="0 0 92 93" version="1.1">
  <title>Group</title>
  <g id="Zymo-Icons" stroke="none" stroke-width="1" fill="none" fill-rule="evenodd">
    <g id="Artboard" transform="translate(-1579.000000, -890.000000)" fill="#FFFFFF">
      <g id="Group" transform="translate(1579.000000, 890.000000)">
        <g id="Group-23" transform="translate(0.000000, 76.000000)" fill-rule="nonzero">
          <path d="M5.58537608,17 L0,17 L0,5.26190476 L4.95523109,5.26190476 C5.81451972,5.26190476 6.55923653,5.34121622 7.18938152,5.52627628 C7.81952651,5.73777349 8.27781378,5.97570785 8.59288628,6.31939082 C9.16574536,6.9274453 9.45217491,7.58837409 9.45217491,8.35505148 C9.45217491,9.28035178 9.13710241,9.96771772 8.50695742,10.4171493 C8.27781378,10.5757722 8.13459901,10.6550837 8.04867015,10.707958 C7.96274129,10.7343951 7.79088356,10.8137066 7.59038288,10.893018 C8.36374265,11.0516409 8.99388764,11.3953239 9.45217491,11.8711926 C9.93910513,12.3734985 10.1682488,13.0079901 10.1682488,13.7482304 C10.1682488,14.5677821 9.85317627,15.2815852 9.25167423,15.9160768 C8.53560037,16.6298799 7.30395334,17 5.58537608,17 Z M2.14822157,10.1263406 L4.86930223,10.1263406 C6.44466471,10.1263406 7.21802447,9.6504719 7.21802447,8.6722973 C7.21802447,8.09067997 7.0175238,7.69412269 6.64516539,7.45618833 C6.27280698,7.21825397 5.6999479,7.08606821 4.89794518,7.08606821 L2.14822157,7.08606821 L2.14822157,10.1263406 Z M2.14822157,15.1758366 L5.52809017,15.1758366 C6.30144994,15.1758366 6.90295198,15.0700879 7.33259629,14.8321536 C7.76224061,14.5942192 7.96274129,14.1712248 7.96274129,13.5367332 C7.96274129,12.4792471 7.04616675,11.9505041 5.24166063,11.9505041 L2.14822157,11.9505041 L2.14822157,15.1758366 Z M23.0289352,9.06885457 C23.0289352,10.9987666 22.1123607,12.2413127 20.2792116,12.7436186 L23.6017943,17 L20.8807137,17 L17.8445605,13.0608644 L15.008908,13.0608644 L15.008908,17 L12.8606865,17 L12.8606865,5.26190476 L17.6154169,5.26190476 C19.5344948,5.26190476 20.9379996,5.55271343 21.7686452,6.16076791 C22.5992909,6.76882239 23.0289352,7.72055985 23.0289352,9.06885457 Z M17.7013457,11.2631381 C18.9043498,11.2631381 19.7349955,11.0780781 20.1646398,10.7343951 C20.6229271,10.3907121 20.8234278,9.83553196 20.8234278,9.06885457 C20.8234278,8.30217718 20.5942841,7.77343415 20.1646398,7.48262548 C19.7063525,7.19181682 18.9043498,7.05963106 17.7586316,7.05963106 L15.008908,7.05963106 L15.008908,11.2631381 L17.7013457,11.2631381 Z M26.1223743,5.26190476 L28.5203735,5.26190476 L28.5203735,17 L26.1223743,17 L26.1223743,5.26190476 Z M31.8223222,17 L31.8223222,5.26190476 L33.9705438,5.26190476 L33.9705438,15.1229622 L39.7850635,15.1229622 L39.7850635,17 L31.8223222,17 Z M42.1337857,17 L42.1337857,5.26190476 L44.2820073,5.26190476 L44.2820073,15.1229622 L50.096527,15.1229622 L50.096527,17 L42.1337857,17 Z M54.2497554,14.3298477 L52.9608224,17 L50.6693861,17 L56.2834051,5.26190476 L58.5748415,5.26190476 L64.1888605,17 L61.8974242,17 L60.6371342,14.3298477 L54.2497554,14.3298477 Z M59.7492026,12.5056843 L57.4291233,7.66768554 L55.109044,12.5056843 L59.7492026,12.5056843 Z M76.1329724,9.06885457 C76.1329724,10.9987666 75.2163979,12.2413127 73.3832488,12.7436186 L76.7058315,17 L73.9847509,17 L70.9485977,13.0608644 L68.1129452,13.0608644 L68.1129452,17 L65.9647237,17 L65.9647237,5.26190476 L70.6908111,5.26190476 C72.638532,5.26190476 74.0420368,5.55271343 74.8726824,6.16076791 C75.7033281,6.76882239 76.1329724,7.72055985 76.1329724,9.06885457 Z M70.8053829,11.2631381 C72.008387,11.2631381 72.8390327,11.0780781 73.268677,10.7343951 C73.6983213,10.3907121 73.927465,9.83553196 73.927465,9.06885457 C73.927465,8.30217718 73.6983213,7.77343415 73.2400341,7.48262548 C72.8103897,7.19181682 72.008387,7.05963106 70.8340259,7.05963106 L68.1129452,7.05963106 L68.1129452,11.2631381 L70.8053829,11.2631381 Z M88.1630132,5.26190476 L88.1630132,7.11250536 L81.3746331,7.11250536 L81.3746331,10.2320892 L87.4755823,10.2320892 L87.4755823,12.0033784 L81.3746331,12.0033784 L81.3746331,15.1493994 L88.3921569,15.1493994 L88.3921569,17 L79.2264115,17 L79.2264115,5.26190476 L88.1630132,5.26190476 Z" id="Shape"></path>
          <path d="M90.0958606,0 C90.6175426,0 91.0870564,0.184360731 91.4522339,0.553082192 C91.8174113,0.9481409 92,1.3958741 92,1.92261905 C92,2.44936399 91.8174113,2.8970972 91.4522339,3.2921559 C91.0870564,3.66087736 90.6175426,3.8452381 90.0958606,3.8452381 C89.5741785,3.8452381 89.1046647,3.66087736 88.7394873,3.2921559 C88.3743098,2.8970972 88.1917211,2.44936399 88.1917211,1.92261905 C88.1917211,1.3958741 88.3743098,0.9481409 88.7394873,0.579419439 C89.1307488,0.184360731 89.5741785,0 90.0958606,0 Z M90.1219447,0.237035225 C89.6524308,0.237035225 89.2611693,0.395058708 88.922076,0.737442922 C88.6090668,1.05348989 88.4525622,1.47488584 88.4525622,1.92261905 C88.4525622,2.3966895 88.6090668,2.79174821 88.922076,3.13413242 C89.2350852,3.45017939 89.6263467,3.60820287 90.0958606,3.60820287 C90.5653744,3.60820287 90.9566359,3.45017939 91.2957293,3.10779517 C91.6087385,2.79174821 91.7652431,2.3966895 91.7652431,1.92261905 C91.7652431,1.4485486 91.6087385,1.05348989 91.2957293,0.737442922 C90.98272,0.395058708 90.5914585,0.237035225 90.1219447,0.237035225 Z M90.1803457,1.0528762 C90.5062817,1.0528762 90.7507337,1.09939444 90.8865403,1.19243092 C91.022347,1.2854674 91.103831,1.44828124 91.103831,1.65761331 C91.103831,1.95998187 90.940863,2.14605483 90.614927,2.2390913 L91.185315,2.89034665 L90.7235723,2.89034665 L90.207507,2.28560954 L89.7457644,2.28560954 L89.7457644,2.89034665 L89.3655057,2.89034665 L89.3655057,1.0528762 L90.1803457,1.0528762 Z M90.2357023,1.31624868 L89.7582832,1.31624868 L89.7582832,1.95425925 L90.2076188,1.95425925 C90.4322866,1.95425925 90.572704,1.93147316 90.6569544,1.88590097 C90.7412049,1.84032879 90.7692883,1.74918442 90.7692883,1.63525396 C90.7692883,1.5213235 90.7412049,1.43017914 90.6569544,1.38460695 C90.572704,1.33903477 90.4322866,1.31624868 90.2357023,1.31624868 Z" id="Shape"></path>
        </g>
        <g id="_2530486702544" transform="translate(11.000000, 0.000000)">
          <path d="M21.059322,15.9448819 L21.059322,59.0551181 L38.5725896,59.0551181 C47.8248819,59.0551181 53.3101695,54.6603853 53.3101695,47.3358306 C53.3101695,41.4064292 49.8736038,37.3604847 43.9257016,36.453635 C48.7501111,35.4072701 51.459711,31.7798716 51.459711,26.6875621 C51.459711,19.9210687 46.5031259,15.9448819 38.3082384,15.9448819 L21.059322,15.9448819 Z M25.751556,20.688403 L38.0438872,20.688403 C43.5291748,20.688403 46.7674771,23.1299213 46.7674771,27.5246541 C46.7674771,31.9891446 43.5291748,34.5004205 38.0438872,34.5004205 L25.751556,34.5004205 L25.751556,20.688403 Z M25.751556,39.2439416 L38.0438872,39.2439416 C44.7187552,39.2439416 48.5518477,41.9644905 48.5518477,46.638254 C48.5518477,51.5910481 44.7187552,54.3813546 38.0438872,54.3813546 L25.751556,54.3813546 L25.751556,39.2439416 Z" id="Shape" fill-rule="nonzero"></path>
          <g id="Group">
            <path d="M56.1552046,15.6811219 C57.871438,17.4243166 59.3896444,19.4464226 60.6438149,21.6777118 L60.6438149,21.6777118 L60.6438149,21.7474396 L60.6438149,21.7474396 L60.7098239,21.8171674 L60.7098239,21.8171674 L60.7098239,21.8171674 L60.7758329,21.8868952 L60.7758329,21.956623 L60.7758329,21.956623 L60.8418419,22.0263508 L60.8418419,22.0263508 L60.8418419,22.0960786 L60.9078508,22.0960786 L60.9078508,22.1658064 L60.9078508,22.1658064 L60.9078508,22.2355342 L60.9738598,22.2355342 L60.9738598,22.305262 L60.9738598,22.3749898 L61.0398688,22.3749898 L61.0398688,22.4447175 L61.0398688,22.4447175 L61.0398688,22.4447175 L61.1058777,22.5144453 L61.1058777,22.5841731 L61.1058777,22.5841731 L61.1718867,22.6539009 L61.1718867,22.6539009 L61.1718867,22.7236287 L61.2378957,22.7933565 L61.2378957,22.8630843 L61.3039047,22.9328121 L61.3039047,22.9328121 L61.4359226,23.1419954 L61.4359226,23.2117232 L61.4359226,23.2117232 L61.5019316,23.3511788 L61.5019316,23.3511788 L61.6339495,23.5603622 L61.6339495,23.5603622 L61.6339495,23.63009 L61.7659675,23.9090011 L61.8319765,23.9787289 C61.8979854,24.1879123 61.9639944,24.3273679 62.0300034,24.5365513 C63.3501829,27.3256629 65.3304521,28.8596743 68.0368201,29.8358633 C66.6506316,25.2338292 64.7363714,21.3988007 61.6339495,17.982139 C61.6339495,17.982139 67.1126945,22.5144453 68.7629188,30.0450467 C69.9510804,23.281451 64.9343983,11.63691 56.1552046,15.6811219 Z" id="Path"></path>
            <path d="M43.0854276,7.66242597 C45.3957417,8.28997608 47.6400469,9.26616515 49.7523341,10.5212654 L49.7523341,10.5212654 L49.818343,10.5212654 L49.884352,10.5909932 L49.884352,10.5909932 L49.884352,10.5909932 L49.950361,10.5909932 L49.950361,10.660721 L50.01637,10.660721 L50.0823789,10.660721 L50.0823789,10.7304487 L50.1483879,10.7304487 L50.1483879,10.7304487 L50.2143969,10.8001765 L50.2143969,10.8001765 L50.2804059,10.8001765 L50.2804059,10.8699043 L50.3464148,10.8699043 L50.3464148,10.8699043 L50.4124238,10.9396321 L50.4784328,10.9396321 L50.4784328,10.9396321 L50.4784328,10.9396321 L50.5444418,11.0093599 L50.5444418,11.0093599 L50.6104507,11.0093599 L50.6764597,11.0790877 L50.6764597,11.0790877 L50.7424687,11.0790877 L50.7424687,11.1488155 L50.8744866,11.2185433 L50.8744866,11.2185433 L50.9404956,11.2185433 L50.9404956,11.2882711 L51.1385225,11.4277267 L51.2045315,11.4277267 L51.2045315,11.4277267 L51.3365495,11.4974544 L51.3365495,11.4974544 L51.5345764,11.63691 L51.5345764,11.63691 L51.6005854,11.7066378 L51.8646213,11.8460934 L51.8646213,11.9158212 C52.0626482,11.985549 52.1946661,12.1250046 52.3266841,12.2644601 C54.7690162,14.0076549 57.2113482,14.2865661 60.0497342,13.6590159 C56.6832764,10.3818098 53.1848008,8.08079271 48.8942174,6.82569249 C48.8942174,6.82569249 55.7591508,7.87160934 60.7758329,13.5195604 C58.5975367,6.96514807 48.7621994,-0.495725509 43.0854276,7.66242597 Z" id="Path"></path>
            <path d="M27.9693723,7.66242597 C30.2796865,6.96514807 32.6560096,6.61650911 35.0983416,6.61650911 L35.0983416,6.61650911 L35.1643506,6.61650911 L35.1643506,6.61650911 L35.2303596,6.61650911 L35.2303596,6.61650911 L35.2963685,6.61650911 L35.2963685,6.61650911 L35.3623775,6.61650911 L35.4283865,6.61650911 L35.4943955,6.61650911 L35.4943955,6.61650911 L35.5604044,6.61650911 L35.5604044,6.61650911 L35.6264134,6.61650911 L35.6264134,6.61650911 L35.6924224,6.61650911 L35.7584314,6.61650911 L35.7584314,6.61650911 L35.8244403,6.61650911 L35.8904493,6.61650911 L35.8904493,6.61650911 L35.9564583,6.61650911 L35.9564583,6.61650911 L36.0224673,6.61650911 L36.0884762,6.61650911 L36.0884762,6.61650911 L36.1544852,6.61650911 L36.2204942,6.61650911 L36.2204942,6.61650911 L36.3525121,6.61650911 L36.3525121,6.61650911 L36.4185211,6.61650911 L36.4845301,6.61650911 L36.682557,6.61650911 L36.748566,6.61650911 L36.814575,6.61650911 L36.8805839,6.61650911 L36.9465929,6.61650911 L37.1446198,6.61650911 L37.1446198,6.61650911 L37.2106288,6.61650911 L37.5406737,6.68623691 L37.6066827,6.68623691 C37.7387006,6.68623691 37.9367275,6.68623691 38.1347545,6.7559647 C41.1051583,6.96514807 43.3494635,5.91923121 45.4617507,3.89712529 C41.0391494,2.85120843 36.9465929,2.71175285 32.5900006,3.8273975 C32.5900006,3.8273975 39.0588801,1.10801367 46.0558315,3.33930296 C41.1051583,-1.12327562 29.0255159,-2.37837585 27.9693723,7.66242597 Z" id="Path"></path>
            <path d="M14.8335863,15.6811219 C16.5498197,13.8681993 18.4640799,12.2644601 20.5103582,10.9396321 L20.5103582,10.9396321 L20.5763671,10.9396321 L20.5763671,10.9396321 L20.6423761,10.8699043 L20.6423761,10.8699043 L20.7083851,10.8699043 L20.7083851,10.8699043 L20.7743941,10.8001765 L20.7743941,10.8001765 L20.840403,10.7304487 L20.906412,10.7304487 L20.906412,10.7304487 L20.972421,10.7304487 L20.972421,10.660721 L20.972421,10.660721 L21.03843,10.660721 L21.1044389,10.5909932 L21.1044389,10.5909932 L21.1704479,10.5909932 L21.1704479,10.5212654 L21.2364569,10.5212654 L21.2364569,10.5212654 L21.3024659,10.5212654 L21.3024659,10.4515376 L21.3684748,10.4515376 L21.4344838,10.4515376 L21.4344838,10.3818098 L21.5004928,10.3818098 L21.5004928,10.3818098 L21.6325107,10.312082 L21.6325107,10.312082 L21.6985197,10.2423542 L21.6985197,10.2423542 L21.9625556,10.1028986 L21.9625556,10.1028986 L22.0285646,10.1028986 L22.0945736,10.0331708 L22.1605825,10.0331708 L22.2926005,9.89371526 L22.3586095,9.89371526 L22.3586095,9.89371526 L22.6886543,9.75425968 L22.6886543,9.68453189 C22.8866813,9.6148041 23.0847082,9.54507631 23.2167261,9.47534852 C25.8570851,8.08079271 27.3092826,5.988959 28.2334082,3.13011959 C23.8768159,4.59440319 20.2463223,6.61650911 17.0778915,9.89371526 C17.0778915,9.89371526 21.3684748,4.10630866 28.4974441,2.3631139 C22.0285646,1.10801367 11.0050658,6.40732574 14.8335863,15.6811219 Z" id="Path"></path>
            <path d="M7.2425542,29.4872244 C7.90264395,27.0467517 8.76076063,24.6760068 9.94892217,22.4447175 L9.94892217,22.4447175 L10.0149311,22.3749898 L10.0149311,22.3749898 L10.0149311,22.305262 L10.0149311,22.305262 L10.0809401,22.2355342 L10.0809401,22.2355342 L10.0809401,22.1658064 L10.1469491,22.0960786 L10.1469491,22.0960786 L10.1469491,22.0263508 L10.2129581,22.0263508 L10.2129581,21.956623 L10.2129581,21.956623 L10.2129581,21.8868952 L10.278967,21.8868952 L10.278967,21.8171674 L10.344976,21.8171674 L10.344976,21.7474396 L10.344976,21.6777118 L10.410985,21.6777118 L10.410985,21.6777118 L10.410985,21.6079841 L10.410985,21.6079841 L10.476994,21.5382563 L10.476994,21.4685285 L10.476994,21.4685285 L10.5430029,21.3988007 L10.5430029,21.3988007 L10.6090119,21.2593451 L10.6090119,21.2593451 L10.6750209,21.1896173 L10.6750209,21.1896173 L10.8070388,20.9804339 L10.8070388,20.9107062 L10.8730478,20.9107062 L10.8730478,20.7712506 L10.9390568,20.7712506 L11.0050658,20.5620672 L11.0710747,20.5620672 L11.0710747,20.4923394 L11.2691017,20.2134282 L11.2691017,20.2134282 C11.4011196,20.0042449 11.4671286,19.8647893 11.5991465,19.7253337 C13.2493709,17.1454055 13.5134068,14.5654772 12.985335,11.5671822 C9.8829132,15.1232995 7.70461703,18.8188724 6.4504465,23.3511788 C6.4504465,23.3511788 7.44058113,16.0994886 12.7873081,10.8001765 C6.64847343,13.1011936 -0.414486891,23.4906344 7.2425542,29.4872244 Z" id="Path"></path>
            <path d="M7.2425542,45.5246162 C6.64847343,43.0144157 6.31842855,40.5042153 6.25241958,37.924287 L6.25241958,37.924287 L6.25241958,37.8545592 L6.25241958,37.8545592 L6.25241958,37.7848314 L6.25241958,37.7848314 L6.25241958,37.7151036 L6.25241958,37.7151036 L6.25241958,37.6453759 L6.25241958,37.5756481 L6.25241958,37.5756481 L6.25241958,37.5059203 L6.25241958,37.4361925 L6.25241958,37.4361925 L6.25241958,37.3664647 L6.25241958,37.3664647 L6.25241958,37.2967369 L6.25241958,37.2270091 L6.25241958,37.2270091 L6.25241958,37.1572813 L6.25241958,37.0875535 L6.25241958,37.0875535 L6.25241958,37.0178257 L6.25241958,37.0178257 L6.25241958,36.9480979 L6.25241958,36.8783702 L6.25241958,36.8783702 L6.25241958,36.8086424 L6.25241958,36.7389146 L6.25241958,36.7389146 L6.25241958,36.599459 L6.25241958,36.599459 L6.25241958,36.5297312 L6.25241958,36.4600034 L6.25241958,36.25082 L6.25241958,36.1810923 L6.25241958,36.1113645 L6.31842855,36.0416367 L6.31842855,35.9719089 L6.31842855,35.7627255 L6.31842855,35.7627255 L6.31842855,35.6929977 L6.31842855,35.3443588 L6.31842855,35.274631 C6.31842855,35.1351754 6.38443753,34.925992 6.38443753,34.7168087 C6.58246445,31.5790581 5.59232983,29.2083132 3.67806956,26.9770239 C2.68793493,31.6487859 2.55591698,35.9719089 3.67806956,40.5739431 C3.61206058,40.5739431 1.03771056,33.7406196 3.21600673,26.3494738 C-1.07457664,31.5790581 -2.26273819,44.3392437 7.2425542,45.5246162 Z" id="Path"></path>
            <path d="M14.8335863,59.3307187 C13.117353,57.5177961 11.5991465,55.4956902 10.410985,53.3341287 L10.410985,53.3341287 L10.344976,53.2644009 L10.344976,53.2644009 L10.344976,53.1946731 L10.344976,53.1946731 L10.278967,53.1249453 L10.278967,53.1249453 L10.2129581,53.0552175 L10.2129581,53.0552175 L10.2129581,52.9854897 L10.1469491,52.915762 L10.1469491,52.915762 L10.1469491,52.8460342 L10.1469491,52.8460342 L10.0809401,52.8460342 L10.0809401,52.7763064 L10.0809401,52.7065786 L10.0149311,52.7065786 L10.0149311,52.6368508 L10.0149311,52.6368508 L9.94892217,52.567123 L9.94892217,52.567123 L9.94892217,52.4973952 L9.94892217,52.4973952 L9.8829132,52.4276674 L9.8829132,52.3579396 L9.8829132,52.3579396 L9.81690422,52.2882118 L9.81690422,52.2882118 L9.75089525,52.1487563 L9.75089525,52.1487563 L9.75089525,52.0790285 L9.68488627,52.0790285 L9.6188773,51.8001173 L9.55286832,51.8001173 L9.55286832,51.7303895 L9.48685935,51.6606617 L9.48685935,51.5909339 L9.42085037,51.4514784 L9.3548414,51.3817506 L9.3548414,51.3817506 L9.22282345,51.0331116 L9.22282345,51.0331116 C9.0908055,50.8239282 9.02479653,50.6147449 8.95878755,50.4752893 C7.70461703,47.6861777 5.72434778,46.1521663 2.95197083,45.1759772 C4.3381593,49.7780114 6.25241958,53.6130399 9.3548414,56.9599738 C9.3548414,56.9599738 3.94210546,52.4276674 2.22587211,44.8970661 C1.03771056,51.7303895 6.05439265,63.3749305 14.8335863,59.3307187 Z" id="Path"></path>
            <path d="M27.9033634,67.3494146 C25.5930492,66.6521367 23.3487441,65.7456754 21.2364569,64.4905752 L21.2364569,64.4905752 L21.1704479,64.4208474 L21.1704479,64.4208474 L21.1044389,64.4208474 L21.1044389,64.4208474 L21.1044389,64.3511196 L21.03843,64.3511196 L20.972421,64.3511196 L20.972421,64.2813918 L20.906412,64.2813918 L20.906412,64.2813918 L20.840403,64.211664 L20.840403,64.211664 L20.7743941,64.211664 L20.7743941,64.211664 L20.7083851,64.1419362 L20.7083851,64.1419362 L20.6423761,64.0722084 L20.5763671,64.0722084 L20.5763671,64.0722084 L20.5103582,64.0024806 L20.5103582,64.0024806 L20.5103582,64.0024806 L20.4443492,64.0024806 L20.3783402,63.9327528 L20.3783402,63.9327528 L20.3123312,63.9327528 L20.3123312,63.8630251 L20.2463223,63.8630251 L20.1803133,63.7932973 L20.1143043,63.7932973 L20.1143043,63.7235695 L20.0482953,63.7235695 L19.8502684,63.5841139 L19.7842594,63.5841139 L19.7842594,63.5143861 L19.7182505,63.5143861 L19.6522415,63.4446583 L19.5202235,63.3749305 L19.4542146,63.3052027 L19.4542146,63.3052027 L19.1241697,63.0960194 L19.1241697,63.0960194 C18.9921517,62.9565638 18.7941248,62.886836 18.6621069,62.7473804 C16.2197748,61.0041856 13.7774427,60.7252745 10.9390568,61.2830968 C14.3055145,64.560303 17.8039902,66.86132 22.0945736,68.1861481 C22.0945736,68.1861481 15.2296402,67.1402312 10.2129581,61.4922802 C12.3912542,67.9769647 22.2265915,75.4378383 27.9033634,67.3494146 Z" id="Path"></path>
            <path d="M43.0854276,67.3494146 C40.7751135,67.9769647 38.3327814,68.3256036 35.8904493,68.3953314 L35.8904493,68.3953314 L35.8904493,68.3953314 L35.8244403,68.3953314 L35.7584314,68.3953314 L35.7584314,68.3953314 L35.7584314,68.3953314 L35.6924224,68.3953314 L35.6264134,68.3953314 L35.6264134,68.3953314 L35.5604044,68.3953314 L35.4943955,68.3953314 L35.4283865,68.3953314 L35.4283865,68.3953314 L35.4283865,68.3953314 L35.3623775,68.3953314 L35.2963685,68.3953314 L35.2963685,68.3953314 L35.2303596,68.3953314 L35.1643506,68.3953314 L35.1643506,68.3953314 L35.0983416,68.3953314 L35.0983416,68.3953314 L35.0323327,68.3953314 L34.9663237,68.3953314 L34.9663237,68.3953314 L34.9003147,68.3953314 L34.8343057,68.3953314 L34.8343057,68.3953314 L34.7682968,68.3953314 L34.7022878,68.3953314 L34.6362788,68.3953314 L34.5702698,68.3953314 L34.5042609,68.3953314 L34.3062339,68.3953314 L34.240225,68.3953314 L34.240225,68.3953314 L34.108207,68.3256036 L34.042198,68.3256036 L33.9101801,68.3256036 L33.8441711,68.3256036 L33.7781621,68.3256036 L33.4481173,68.3256036 L33.4481173,68.3256036 C33.2500903,68.3256036 33.0520634,68.2558759 32.8540365,68.2558759 C29.9496416,68.0466925 27.7053364,69.0926093 25.5270403,71.1147153 C29.9496416,72.1606321 34.108207,72.3000877 38.3987904,71.1147153 C38.3987904,71.184443 31.9959198,73.9038269 24.9329595,71.6028098 C29.9496416,76.1351162 42.029284,77.3902164 43.0854276,67.3494146 Z" id="Path"></path>
            <path d="M56.1552046,59.3307187 C54.5049803,61.1436412 52.59072,62.7473804 50.4784328,64.0024806 L50.4784328,64.0024806 L50.4784328,64.0722084 L50.4124238,64.0722084 L50.3464148,64.0722084 L50.3464148,64.0722084 L50.3464148,64.1419362 L50.2804059,64.1419362 L50.2143969,64.211664 L50.2143969,64.211664 L50.1483879,64.211664 L50.1483879,64.2813918 L50.0823789,64.2813918 L50.0823789,64.2813918 L50.01637,64.2813918 L50.01637,64.3511196 L49.950361,64.3511196 L49.950361,64.3511196 L49.884352,64.4208474 L49.818343,64.4208474 L49.818343,64.4208474 L49.7523341,64.4905752 L49.7523341,64.4905752 L49.7523341,64.4905752 L49.6863251,64.4905752 L49.6203161,64.560303 L49.6203161,64.560303 L49.5543071,64.560303 L49.5543071,64.6300307 L49.4882982,64.6300307 L49.4222892,64.6997585 L49.3562802,64.6997585 L49.2902712,64.6997585 L49.2902712,64.7694863 L49.0922443,64.8392141 L49.0262353,64.9089419 L49.0262353,64.9089419 L48.8942174,64.9786697 L48.8942174,64.9786697 L48.6961905,65.0483975 L48.6961905,65.1181253 L48.6301815,65.1181253 L48.3661456,65.2575809 L48.3001366,65.2575809 C48.1021097,65.3970364 47.9700917,65.4667642 47.7720648,65.536492 C45.1317058,66.86132 43.6795084,68.9531538 42.7553827,71.881721 C47.1119751,70.4174374 50.7424687,68.3953314 53.9769085,65.1181253 C53.9769085,65.1181253 49.6863251,70.8358041 42.5573558,72.6487266 C48.9602264,73.9038269 59.9837252,68.6045148 56.1552046,59.3307187 Z" id="Path"></path>
            <path d="M63.7462367,45.5246162 C63.152156,47.9650888 62.2280303,50.3358337 61.0398688,52.567123 L61.0398688,52.567123 L61.0398688,52.6368508 L60.9738598,52.6368508 L60.9738598,52.7065786 L60.9738598,52.7065786 L60.9738598,52.7065786 L60.9078508,52.7763064 L60.9078508,52.8460342 L60.9078508,52.8460342 L60.8418419,52.915762 L60.8418419,52.915762 L60.8418419,52.9854897 L60.7758329,52.9854897 L60.7758329,53.0552175 L60.7758329,53.0552175 L60.7098239,53.1249453 L60.7098239,53.1249453 L60.7098239,53.1946731 L60.6438149,53.2644009 L60.6438149,53.2644009 L60.6438149,53.3341287 L60.6438149,53.3341287 L60.577806,53.3341287 L60.577806,53.4038565 L60.577806,53.4735843 L60.511797,53.4735843 L60.511797,53.5433121 L60.511797,53.5433121 L60.445788,53.6130399 L60.379779,53.6827677 L60.379779,53.7524954 L60.379779,53.7524954 L60.3137701,53.8222232 L60.1817521,54.0314066 L60.1817521,54.1011344 L60.1817521,54.1011344 L60.1157431,54.1708622 L60.1157431,54.24059 L59.9837252,54.3800456 L59.9837252,54.4497733 L59.9177162,54.4497733 L59.7856983,54.7984123 L59.7196893,54.7984123 C59.6536803,54.9378679 59.5216624,55.1470513 59.3896444,55.2865068 C57.73942,57.8664351 57.4753841,60.4463633 58.0694649,63.4446583 C61.1718867,59.888541 63.3501829,56.1929681 64.5383444,51.6606617 C64.5383444,51.6606617 63.5482098,58.9123519 58.2014829,64.211664 C64.4063265,61.9106469 71.4692868,51.5212061 63.7462367,45.5246162 Z" id="Path"></path>
            <path d="M63.7462367,29.4872244 C64.4063265,31.927697 64.7363714,34.5076253 64.7363714,37.0875535 L64.7363714,37.0875535 L64.7363714,37.0875535 L64.7363714,37.1572813 L64.7363714,37.2270091 L64.7363714,37.2270091 L64.7363714,37.2270091 L64.7363714,37.2967369 L64.7363714,37.3664647 L64.7363714,37.3664647 L64.7363714,37.4361925 L64.7363714,37.5059203 L64.7363714,37.5756481 L64.7363714,37.5756481 L64.7363714,37.5756481 L64.7363714,37.6453759 L64.7363714,37.7151036 L64.7363714,37.7151036 L64.7363714,37.7848314 L64.7363714,37.8545592 L64.7363714,37.8545592 L64.7363714,37.924287 L64.7363714,37.924287 L64.7363714,37.9940148 L64.7363714,38.0637426 L64.7363714,38.0637426 L64.7363714,38.1334704 L64.7363714,38.2031982 L64.7363714,38.2031982 L64.7363714,38.272926 L64.7363714,38.3426538 L64.7363714,38.4123815 L64.7363714,38.4821093 L64.7363714,38.5518371 L64.7363714,38.7610205 L64.7363714,38.8307483 L64.7363714,38.8307483 L64.7363714,38.9702039 L64.7363714,39.0399317 L64.7363714,39.1793872 L64.7363714,39.249115 L64.7363714,39.3188428 L64.6703624,39.6674818 L64.6703624,39.6674818 C64.6703624,39.8766651 64.6703624,40.0858485 64.6043534,40.2950319 C64.4063265,43.3630547 65.3964611,45.7337995 67.3107214,48.0348166 C68.300856,43.3630547 68.432874,38.9702039 67.3767304,34.4378975 C67.3767304,34.4378975 69.9510804,41.2014932 67.8387932,48.6623667 C72.0633676,43.3630547 73.2515291,30.602869 63.7462367,29.4872244 Z" id="Path"></path>
          </g>
        </g>
      </g>
    </g>
  </g>
</svg>
