<?xml version="1.0" encoding="UTF-8"?>
<svg xmlns="http://www.w3.org/2000/svg" xmlns:xlink="http://www.w3.org/1999/xlink" width="398px" height="501px" viewBox="0 0 398 501" version="1.1">
  <title>Business Ethics</title>
  <g id="Page-4" stroke="none" stroke-width="1" fill="none" fill-rule="evenodd">
    <g id="Business-Ethics" transform="translate(4.370000, 6.000000)" stroke="#000" stroke-width="11.54">
      <g id="Group" transform="translate(2.830000, 0.000000)">
        <g transform="translate(30.560000, 21.220000)" id="Path">
          <path d="M127.88,11.96 C127.88,7.74 128.7,3.73 130.13,0.02 L0,0.02 C8.81,8.83 13.75,13.77 22.55,22.58 L129.68,22.58 C128.55,19.24 127.89,15.69 127.89,11.97 L127.88,11.96 Z"></path>
          <path d="M191.96,0.01 C193.4,3.72 194.21,7.74 194.21,11.95 C194.21,15.67 193.55,19.22 192.42,22.56 L298.79,22.56 C307.6,13.75 312.54,8.81 321.35,0 L191.96,0 L191.96,0.01 Z"></path>
        </g>
        <path d="M204.96,311.78 L204.96,63.52 C216.62,58.38 224.77,46.74 224.77,33.17 C224.77,14.85 209.92,0 191.6,0 C173.28,0 158.43,14.85 158.43,33.17 C158.43,46.73 166.58,58.38 178.24,63.52 L178.24,311.78" id="Path"></path>
        <path d="M146,187.85 C146,228.17 113.32,260.85 73,260.85 C32.68,260.85 0,228.17 0,187.85 L73,54.89 L146,187.85 Z" id="Path"></path>
        <line x1="0" y1="187.94" x2="146" y2="187.94" id="Path"></line>
        <path d="M384.43,187.85 C384.43,228.17 351.75,260.85 311.43,260.85 C271.11,260.85 238.43,228.17 238.43,187.85 L311.43,54.89 L384.43,187.85 Z" id="Path"></path>
        <line x1="238.42" y1="187.94" x2="384.43" y2="187.94" id="Path"></line>
      </g>
      <path d="M0,419.02 L100.06,320.04 C100.06,320.04 119.36,305.27 148.37,308.39 C177.38,311.52 265.47,322.68 265.47,322.68 C265.47,322.68 286.66,326.4 283.26,346.62 C280.15,365.13 266.28,364.19 260.45,363.49 C254.63,362.79 168.65,353.42 168.65,353.42" id="Path"></path>
      <path d="M282.94,348.28 L343.86,287.52 C352.51,278.89 366.52,278.9 375.16,287.54 L375.16,287.54 C383.76,296.14 383.82,310.05 375.3,318.72 L283,412.47 C273.82,421.79 262.19,428.31 249.45,431.26 C210.15,440.37 123.32,460.5 101.4,465.51 C96.86,466.55 92.7,468.83 89.38,472.1 L71.22,490" id="Path"></path>
    </g>
  </g>
</svg>
