<?xml version="1.0" encoding="UTF-8"?>
<svg xmlns="http://www.w3.org/2000/svg" xmlns:xlink="http://www.w3.org/1999/xlink" width="366px" height="495px" viewBox="0 0 366 495" version="1.1">
  <title>Cost savings</title>
  <g id="Page-4" stroke="none" stroke-width="1" fill="none" fill-rule="evenodd">
    <g id="Cost-savings" transform="translate(4.270000, 0.000000)">
      <g id="Group" transform="translate(0.000000, 295.386245)" stroke="#1F1646" stroke-width="11.54">
        <path d="M0,128.493755 L93.2,36.3037552 C93.2,36.3037552 111.18,22.5437552 138.19,25.4537552 C165.2,28.3637552 247.25,38.7637552 247.25,38.7637552 C247.25,38.7637552 266.98,42.2237552 263.82,61.0537552 C260.92,78.2937552 248,77.4237552 242.58,76.7737552 C237.16,76.1237552 157.08,67.3937552 157.08,67.3937552" id="Path"></path>
        <path d="M263.52,62.6137552 L320.26,6.02375524 C328.32,-2.01624476 341.36,-2.00624476 349.41,6.04375524 L349.41,6.04375524 C357.42,14.0537552 357.47,27.0137552 349.54,35.0837552 L263.57,122.403755 C255.02,131.083755 244.19,137.153755 232.32,139.903755 C195.72,148.393755 114.84,167.133755 94.43,171.803755 C90.2,172.773755 86.33,174.893755 83.24,177.943755 L66.32,194.613755" id="Path"></path>
      </g>
      <path d="M225.45,165.35 L225.45,153.63 L160.99,153.63 L160.99,165.35 L181.5,165.35 C189.13,165.35 195.57,170.26 198,177.07 L160.99,177.07 L160.99,188.79 L198,188.79 C196.8,192.21 194.57,195.17 191.61,197.27 C188.66,199.37 185.13,200.5 181.5,200.51 L160.99,200.51 L160.99,214.66 L193.72,247.39 L210.29,247.39 L175.13,212.23 L181.49,212.23 C188.24,212.23 194.78,209.88 200.01,205.61 C205.24,201.34 208.83,195.4 210.19,188.79 L225.44,188.79 L225.44,177.07 L210.19,177.07 C209.29,172.81 207.44,168.8 204.78,165.35 L225.44,165.35 L225.45,165.35 Z" id="Path" fill="#1F1646" fill-rule="nonzero"></path>
      <circle id="Oval" stroke="#1F1646" stroke-width="11.54" cx="187.67" cy="195.43" r="100.02"></circle>
      <g id="Group" transform="translate(94.400000, 49.770000)" stroke="#1F1646" stroke-width="11.54">
        <line x1="0.5" y1="0" x2="0.5" y2="72.24" id="Path"></line>
        <line x1="186.04" y1="0" x2="186.04" y2="72.24" id="Path"></line>
      </g>
      <line x1="187.67" y1="0" x2="187.67" y2="72.24" id="Path" stroke="#1F1646" stroke-width="11.54"></line>
    </g>
  </g>
</svg>
