<?xml version="1.0" encoding="UTF-8"?>
<svg xmlns="http://www.w3.org/2000/svg" xmlns:xlink="http://www.w3.org/1999/xlink" width="466px" height="502px" viewBox="0 0 466 502" version="1.1">
  <title>Custom formulation</title>
  <g id="Page-4" stroke="none" stroke-width="1" fill="none" fill-rule="evenodd">
    <g id="Custom-formulation" transform="translate(6.530000, 6.000000)" stroke="#000" stroke-width="11.54">
      <polygon id="Path" points="263 194.63 193.6 234.7 193.6 314.84 263 354.91 332.4 314.84 332.4 234.7"></polygon>
      <polygon id="Path" points="332.4 314.84 263 354.91 263 435.05 332.4 475.12 401.81 435.05 401.81 354.91"></polygon>
      <polygon id="Path" points="124.2 194.63 54.79 234.7 54.79 314.84 124.2 354.91 193.6 314.84 193.6 234.7"></polygon>
      <polygon id="Path" points="332.4 74.46 263 114.53 263 194.63 332.4 234.73 401.81 194.66 401.81 114.53"></polygon>
      <polygon id="Path" points="193.6 74.42 124.2 114.49 124.2 194.63 193.6 234.7 263 194.63 263 114.49"></polygon>
      <line x1="332.4" y1="74.46" x2="332.4" y2="32.48" id="Path"></line>
      <line x1="193.6" y1="74.46" x2="193.6" y2="32.48" id="Path"></line>
      <line x1="54.79" y1="234.7" x2="25.11" y2="205.02" id="Path"></line>
      <line x1="431.48" y1="224.34" x2="401.81" y2="194.66" id="Path"></line>
      <line x1="233.32" y1="464.73" x2="263" y2="435.05" id="Path"></line>
      <circle id="Oval" cx="332.4" cy="15.11" r="15.11"></circle>
      <circle id="Oval" cx="193.6" cy="15.11" r="15.11"></circle>
      <circle id="Oval" cx="15.11" cy="193.6" r="15.11"></circle>
      <circle id="Oval" cx="437.83" cy="234.7" r="15.11"></circle>
      <circle id="Oval" cx="222.98" cy="474.89" r="15.11"></circle>
      <polyline id="Path" points="150.81 179.26 150.81 129.86 193.6 105.15"></polyline>
      <polyline id="Path" points="375.19 179.3 375.19 129.89 332.4 105.19"></polyline>
      <polyline id="Path" points="289.61 419.68 332.4 444.38 375.19 419.68"></polyline>
      <polyline id="Path" points="81.41 250.06 81.41 299.47 124.2 324.18"></polyline>
      <polyline id="Path" points="220.02 298.66 262.81 323.37 305.6 298.66"></polyline>
    </g>
  </g>
</svg>
