<?xml version="1.0" encoding="UTF-8"?>
<svg xmlns="http://www.w3.org/2000/svg" xmlns:xlink="http://www.w3.org/1999/xlink" width="488px" height="479px" viewBox="0 0 488 479" version="1.1">
  <g id="Page-4" stroke="none" stroke-width="1" fill="none" fill-rule="evenodd">
    <g id="Delivering-Consistent-Quality" transform="translate(6.397363, 0.330000)">
      <g id="Group">
        <g transform="translate(268.572637, 37.810000)" id="Path">
          <path d="M0,0 C21.04,4.77 41.74,12.74 61.41,24.1 C150.08,75.3 189.63,178.91 163.49,273.21" stroke="#000" stroke-width="11.54"></path>
          <path class="path" d="M141.92,324.57 C142.75,296.62 139.58,260.25 130.86,234.96 L165.58,266.16 L212.22,267.93 C188.36,280.01 160.76,303.93 141.91,324.57 L141.92,324.57 Z" fill="#000" fill-rule="nonzero"></path>
        </g>
        <g id="Path">
          <path d="M2.0926369,282.47 C-4.3973631,235.69 4.0626369,186.49 29.5126369,142.42 C60.1926369,89.28 109.702637,53.78 164.742637,39.49" stroke="#000" stroke-width="11.54"></path>
          <path class="path" d="M220.002637,32.4 C195.412637,45.7 165.532637,66.69 148.032637,86.92 L157.602637,41.23 L135.732637,0 C158.162637,14.58 192.682637,26.45 220.002637,32.4 L220.002637,32.4 Z" fill="#000" fill-rule="nonzero"></path>
        </g>
        <g transform="translate(29.462637, 362.400000)" id="Path">
          <path d="M355.14,35.98 C287.28,112.66 172.68,133.67 80.56,80.49 C62.98,70.34 47.33,58.13 33.74,44.34" stroke="#000" stroke-width="11.54"></path>
          <path class="path" d="M0.01,0 C23.8,14.69 56.89,30.14 83.14,35.23 L38.75,49.7 L13.9,89.21 C15.37,62.5 8.46,26.65 0,0 L0.01,0 Z" fill="#000" fill-rule="nonzero"></path>
        </g>
        <path d="M1.5826369,278.9 C3.2426369,292.7 6.1726369,306.11 10.2626369,319.01" id="Path" stroke="#000" stroke-width="11.54"></path>
        <path d="M221.532637,186.1 L237.142637,234.13 C237.362637,234.79 237.982637,235.25 238.672637,235.25 L289.182637,235.25 C290.742637,235.25 291.392637,237.25 290.132637,238.17 L249.272637,267.86 C248.702637,268.27 248.472637,269 248.682637,269.66 L264.292637,317.69 C264.772637,319.18 263.072637,320.41 261.812637,319.49 L220.952637,289.8 C220.382637,289.39 219.622637,289.39 219.052637,289.8 L178.192637,319.49 C176.932637,320.41 175.222637,319.17 175.712637,317.69 L191.322637,269.66 C191.542637,269 191.302637,268.27 190.732637,267.86 L149.872637,238.17 C148.612637,237.25 149.262637,235.25 150.822637,235.25 L201.332637,235.25 C202.032637,235.25 202.652637,234.8 202.862637,234.13 L218.472637,186.1 C218.952637,184.61 221.062637,184.61 221.542637,186.1 L221.532637,186.1 Z" id="Path" stroke="#000" stroke-width="11.54"></path>
      </g>
      <circle id="Oval" stroke="#000" stroke-width="11.54" cx="220.002637" cy="252.4" r="143.36"></circle>
    </g>
  </g>
</svg>
