<?xml version="1.0" encoding="UTF-8"?>
<svg xmlns="http://www.w3.org/2000/svg" xmlns:xlink="http://www.w3.org/1999/xlink" width="160px" height="144px" viewBox="0 0 160 144" version="1.1">
  <title>Group</title>
  <g id="Zymo-Icons" stroke="none" stroke-width="1" fill="none" fill-rule="evenodd">
    <g id="Artboard" transform="translate(-1347.000000, -850.000000)" fill="#FFFFFF" fill-rule="nonzero">
      <g id="Group" transform="translate(1426.657601, 922.000000) scale(-1, 1) rotate(-180.000000) translate(-1426.657601, -922.000000) translate(1347.000000, 850.000000)">
        <path d="M49.11695,143.950939 C42.5918528,143.165965 36.9218168,139.318191 33.978164,133.676189 C32.912842,131.643667 32.2470158,129.618153 31.8685461,127.27024 C31.7143548,126.3521 31.6582852,123.569648 31.7634157,122.532361 C31.8755549,121.488065 32.0788071,120.324621 32.3381289,119.259299 C32.5343724,118.439282 33.2562682,116.231541 33.5786683,115.43255 L33.7258509,115.075106 L33.4665291,115.159211 C33.1231029,115.278359 30.9293808,115.888116 28.0558149,116.659072 C23.5492226,117.871577 21.0961786,118.726638 18.2085954,120.086325 C17.0381429,120.640013 15.4681947,121.467038 14.4729597,122.055769 C14.073464,122.287056 13.7300378,122.4833 13.7090118,122.4833 C13.631916,122.4833 13.7510639,120.724117 13.8912378,119.602725 C14.6131336,114.009785 16.8909603,108.732236 20.2831697,104.786339 C20.5775349,104.442913 20.9069438,104.078461 21.0120742,103.980339 C21.1172047,103.882218 21.3274656,103.650931 21.4886656,103.454687 C21.6498657,103.265452 21.6919178,103.174339 21.5937961,103.265452 L21.41157,103.426652 L20.5144567,103.062199 C18.2997084,102.165086 16.8979689,101.359086 12.706768,98.548599 C11.0316894,97.420198 9.17438459,96.2076935 8.58565406,95.8572593 C6.09055787,94.3573976 3.749653,93.2570327 1.05831328,92.3178672 L0,91.9464056 L0.79899148,91.3506666 C3.46229642,89.360197 6.30081878,87.9654655 9.35661075,87.1314311 C10.0154283,86.949205 11.3120373,86.6688573 11.4732374,86.6688573 C11.5222982,86.6688573 11.6484548,86.858092 11.7605939,87.0893788 C11.8727331,87.3206657 11.9708549,87.4958832 11.9848722,87.4818661 C11.9988896,87.4748575 11.8657243,87.1664747 11.6975157,86.8020217 C10.6111675,84.4611173 10.0925239,82.7439865 8.99215852,77.8378984 C8.12308006,73.9620889 7.78666259,72.6794973 7.09981026,70.6609925 C6.56014058,69.0770269 5.96440132,67.6682788 5.10233156,65.9371306 C4.47855751,64.6895825 4.34539227,64.3811998 4.44351403,64.3811998 C4.73787931,64.3811998 6.7633928,64.6685564 7.38716685,64.7947129 C11.0246807,65.5446436 14.3748379,66.9884352 17.0872037,68.9789052 C17.4726821,69.2592531 17.8791865,69.5676358 17.9913257,69.6657575 C18.2366301,69.8830271 18.2366301,69.8830271 18.194578,69.7218271 C18.1525257,69.5536183 18.4889432,68.6635138 19.0986998,67.3598961 C20.2621436,64.8788173 21.3064395,63.3158778 24.4533445,59.3349378 C27.2077625,55.8516154 28.2941106,54.3097019 29.6327717,51.9407623 C30.2144936,50.9174925 31.1606677,48.9901007 31.5811896,47.9528136 L31.896581,47.1888656 L32.1699202,47.6023788 C33.8099553,50.027388 35.1486164,53.0971973 35.8284601,55.9707632 C36.2840254,57.8981549 36.4241994,59.145703 36.4241994,61.1922426 C36.4241994,63.498104 36.1929123,65.096087 35.576147,67.0024526 C34.9033121,69.1050617 34.1603902,70.464749 32.218981,73.1560887 C31.7634157,73.7868714 30.9854503,74.8592022 30.4948415,75.5530631 C29.997224,76.2399155 29.4084934,77.0108722 29.1912239,77.2561765 C27.9857279,78.6228725 27.1587016,80.2068381 26.7451885,81.9730298 C26.6120233,82.5477429 26.5629624,82.9752735 26.5349276,83.9424737 C26.4928755,85.2671173 26.5559537,85.9329436 26.8082668,86.9141613 C26.8853624,87.2225441 26.9554494,87.5239183 26.9624581,87.5869962 C26.9975016,87.8883704 28.0207714,89.9068752 28.4483019,90.5026142 C28.7496759,90.9231357 29.7168761,92.0725624 29.8149979,92.1216232 C29.836024,92.1286317 30.228511,92.4229974 30.691085,92.7734324 C31.6022157,93.4602844 32.7866855,94.0980757 33.6767901,94.3784242 C33.9711553,94.4695372 34.2024423,94.5676588 34.1814162,94.5956931 C34.1673988,94.6237282 34.2374858,94.6517633 34.3426162,94.6517633 C34.4547554,94.6517633 34.7631381,94.7008241 35.0294686,94.763902 C35.34486,94.8409979 35.968634,94.8970673 36.7816429,94.9180938 C37.8469648,94.9461281 38.1763736,94.932111 38.8842521,94.8129628 C39.3468261,94.7288584 39.788374,94.6447547 39.8584609,94.6167196 C39.9635914,94.5746674 39.9776088,94.5886845 39.9355567,94.6587719 C39.9005132,94.7148412 39.9846176,94.6868061 40.1247915,94.6027025 C40.2579568,94.518598 40.5803567,94.3714148 40.8396786,94.2732932 C41.0990004,94.1751716 41.5265309,93.9859369 41.7998701,93.8527717 C42.0662006,93.7125978 42.3255224,93.6214848 42.3745833,93.6495191 C42.4236442,93.6775542 42.4376615,93.6775542 42.4096268,93.6495191 C42.3815919,93.6144762 42.6339051,93.4112236 42.9703225,93.1939539 C44.1477837,92.4229974 45.1780622,91.3927189 45.9490189,90.2292751 C46.1943232,89.864823 46.3274885,89.7176406 46.3695406,89.7737099 C46.4045841,89.8297793 46.4186015,89.8087536 46.4045841,89.7176406 C46.3975755,89.6405447 46.4606538,89.4232749 46.5517668,89.2270317 C47.2736626,87.6500742 47.5610192,86.6127871 47.680167,85.14797 C47.9114541,82.3304733 46.9933147,79.6040901 45.0378882,77.2982288 C44.8416447,77.0599331 44.6243751,76.7725765 44.5683055,76.6534286 L44.4561663,76.4501764 L45.0729317,76.6954808 C47.7152106,77.7537941 50.6518546,79.5480206 52.9717334,81.5174644 C53.9459423,82.3444907 55.6070036,84.0125606 56.4690733,85.0288218 C60.0995785,89.3181448 62.5035616,94.5746674 63.0712661,99.4597293 C63.2254574,100.812408 63.1763965,103.300496 62.9661356,104.541034 C62.2722747,108.592062 60.8705352,111.752984 55.6700818,121.011473 C51.9134202,127.690762 50.5116807,130.459197 49.5304631,133.08045 C47.8974366,137.481912 47.9184627,141.140451 49.6005501,143.551443 L49.9159415,144 L49.6215762,143.992991 C49.4603761,143.985983 49.2360978,143.964956 49.11695,143.950939 Z" id="Shape"></path>
        <path d="M36.3961646,93.7336235 C32.6395028,93.4883195 29.3594325,90.9441623 28.1609454,87.3346828 C27.6983714,85.9469608 27.5581974,84.1106824 27.8105105,82.708943 C28.3361628,79.7652901 30.2425284,77.2281418 32.9268594,75.8894806 C34.3075728,75.2026283 35.4499905,74.9433065 37.0619908,74.9362142 C39.718287,74.9292891 41.8419223,75.7983675 43.7272618,77.662681 C45.1640447,79.0784378 45.9980798,80.6413773 46.3905667,82.6458647 C46.5587755,83.4939171 46.5587755,85.2180565 46.3975755,86.0591003 C45.9490189,88.3299185 44.7014707,90.3904755 42.9492964,91.7501624 C41.0008786,93.2570327 38.8912608,93.8948239 36.3961646,93.7336235 Z" id="Path"></path>
        <path d="M63.6810228,90.9161272 C62.7698922,90.7058668 61.7606397,90.0120054 61.0317352,89.1078836 C60.527109,88.4771009 60.3098394,88.140683 59.6650393,86.9842487 C59.3917001,86.4866304 58.9010912,85.6806302 58.5856999,85.1970308 C55.621021,80.6904382 51.0583591,77.4033592 45.8579058,76.0016198 L45.1219926,75.8053763 L46.593819,75.833411 C51.731194,75.9315328 57.0928474,77.7187506 61.3120831,80.7465077 C62.8820313,81.874908 63.9543619,82.4496212 65.0967796,82.7720212 C67.7881194,83.5359693 70.3252677,82.9892909 73.3670423,80.9918122 C73.906712,80.6343686 74.3833033,80.325986 74.4323642,80.3119685 C74.6286078,80.2348729 74.5024512,80.6483861 74.0328685,81.6155862 C72.7993378,84.1317085 71.1032331,86.5777434 69.3720849,88.3229091 C68.3698411,89.3321619 67.6549541,89.8928572 66.7928843,90.3484232 C65.7065362,90.9231357 64.5991621,91.1193798 63.6810228,90.9161272 Z" id="Path"></path>
        <path d="M129.072168,67.4580179 C127.887698,67.2617744 126.920498,66.4627829 126.619124,65.4395131 C126.47895,64.9489043 126.521002,63.8835823 126.68921,63.5611822 C126.955541,63.056556 127.207854,62.9093734 128.784811,62.3136342 C129.156272,62.1734602 129.54175,61.9982427 129.639872,61.9211471 C129.892185,61.7249035 129.983298,61.3674601 129.948255,60.7016338 C129.92022,60.1899989 129.878168,60.0428163 129.59782,59.4610944 C129.422602,59.0966421 128.939003,58.2976506 128.525489,57.687894 C127.754532,56.552485 127.614359,56.2230762 127.782568,55.9217023 C127.908724,55.6763979 128.189072,55.6553718 128.504463,55.8726414 C128.784811,56.0688849 129.75902,57.1902765 130.501941,58.1785028 C131.616324,59.6573379 132.457368,61.1922426 132.800795,62.3837211 C133.018064,63.1406604 133.053107,64.1429041 132.87789,64.8928347 C132.45036,66.7361221 130.922464,67.7664006 129.072168,67.4580179 Z" id="Path"></path>
        <path d="M84.8963495,66.806209 L84.8963495,66.4347481 L85.2678102,66.3856872 C85.4640534,66.3646611 85.758419,66.343635 85.91261,66.343635 C86.3751846,66.3366264 87.1461411,66.1473915 87.6017063,65.9231132 C88.3586456,65.5516522 88.8422459,64.8297564 89.0595157,63.7363997 C89.2767846,62.664069 89.3118282,60.5824859 89.3118282,47.1608308 C89.3118282,38.4420115 89.3398633,33.5709669 89.3819156,33.2135233 C89.6272196,31.3492099 90.21595,30.2278184 91.2111857,29.751227 C91.9611157,29.3867747 92.122316,29.3727573 95.4444384,29.3727573 L98.5282653,29.3727573 L98.549291,29.6390878 L98.5703176,29.8984096 L98.1217609,29.8984096 C97.4559346,29.8984096 96.4817255,30.0876444 96.0051346,30.3119227 C95.0239169,30.767488 94.6314296,31.3912621 94.3090297,32.9822364 C94.2038987,33.5289148 94.1898816,34.8675759 94.1688559,50.3848315 L94.1408208,67.1846787 L89.5220894,67.1846787 L84.8963495,67.1846787 L84.8963495,66.806209 Z" id="Path"></path>
        <path d="M45.367297,66.7361221 L45.367297,66.3646611 L46.0962014,66.3156003 C47.0213495,66.252522 47.6381149,66.1193567 48.0936802,65.8880697 C48.9697674,65.4465218 49.3552457,64.8297564 49.6566197,63.3859648 C49.7126893,63.126643 49.7477327,58.6410768 49.7827762,48.2261528 C49.8178197,34.7274019 49.8318371,33.3817321 49.9439762,32.7930015 C50.2944111,30.8936446 50.8621156,30.0245662 52.0816289,29.5339573 C52.4741159,29.3727573 52.5161681,29.3727573 55.7611949,29.3517312 L59.0342565,29.3307051 L59.0342565,29.5619921 L59.0342565,29.8002879 L58.1791954,29.8773835 C55.8172645,30.1086705 55.0112643,30.998775 54.7589512,33.6480626 C54.716899,34.1596974 54.6888642,39.9628988 54.6888642,50.7703099 L54.6888642,67.1145917 L50.0280806,67.1145917 L45.367297,67.1145917 L45.367297,66.7361221 Z" id="Path"></path>
        <path d="M152.502242,63.2527995 C152.067703,63.1476691 151.429912,62.7762082 151.121529,62.4397907 C150.967338,62.2715819 150.736051,61.9211471 150.616902,61.6618253 C150.420659,61.2413034 150.399634,61.1221556 150.399634,60.5614599 C150.399634,60.0778598 150.434676,59.8395641 150.560833,59.5241726 C150.785111,58.9564681 151.359825,58.3467115 151.955564,58.0593549 C152.390103,57.8420853 152.467199,57.828068 153.16106,57.828068 C153.833895,57.828068 153.932016,57.849094 154.317495,58.0313202 C154.857165,58.2976506 155.389826,58.8303116 155.656156,59.3699813 C155.838382,59.7554597 155.859408,59.8535814 155.859408,60.5264164 C155.859408,61.1782252 155.838382,61.3043817 155.670173,61.668834 C155.565043,61.8931123 155.382817,62.1874776 155.270678,62.3206428 C154.639895,63.0986082 153.48346,63.4840866 152.502242,63.2527995 Z M154.156295,62.755182 C154.660921,62.5238951 155.081443,62.0963645 155.340765,61.5566949 C155.607095,60.9959991 155.628121,60.2600858 155.389826,59.6363118 C155.186573,59.075616 154.604851,58.5009029 154.037147,58.290642 C153.455425,58.0663637 152.586346,58.1084158 152.074712,58.3677376 C151.640172,58.5920159 151.100503,59.1597204 150.897251,59.6012683 C150.672973,60.1058945 150.679981,60.9889904 150.925285,61.507634 C151.240677,62.1874776 151.71026,62.6220169 152.397112,62.8673212 C152.852677,63.03553 153.651669,62.9864691 154.156295,62.755182 Z" id="Shape"></path>
        <path d="M152.109756,60.5614599 L152.109756,59.1947639 L152.284973,59.1947639 C152.453181,59.1947639 152.460191,59.2087813 152.460191,59.6853727 L152.460191,60.1759815 L152.810625,60.1759815 L153.16106,60.1759815 L153.48346,59.6853727 C153.735773,59.2928857 153.833895,59.1947639 153.974069,59.1947639 C154.170313,59.1947639 154.163304,59.2157899 153.74979,59.8675988 L153.518503,60.2250424 L153.686712,60.3021381 C153.939026,60.4212859 154.093217,60.7717208 154.051164,61.136173 C153.988086,61.7108862 153.623634,61.9281558 152.705495,61.9281558 L152.109756,61.9281558 L152.109756,60.5614599 Z M153.609616,61.4235296 C153.770817,61.1922426 153.74979,60.8137729 153.567564,60.6175294 C153.441407,60.4773555 153.350294,60.4563294 152.936781,60.4563294 L152.460191,60.4563294 L152.460191,61.0170251 L152.460191,61.5777209 L152.978834,61.5777209 C153.441407,61.5777209 153.518503,61.5566949 153.609616,61.4235296 Z" id="Shape"></path>
        <path d="M121.656966,55.6203283 C121.397644,55.5151978 121.187384,55.2138239 120.928062,54.5550063 C120.787888,54.1975627 118.902548,49.3054922 116.750878,43.6915257 C114.592199,38.0705505 112.804982,33.4728451 112.783955,33.4728451 C112.76293,33.4728451 110.849555,38.3298723 108.543693,44.2662389 L104.345484,55.0596326 L100.126249,55.0596326 L95.9000036,55.0596326 L95.9000036,54.7162064 L95.9000036,54.3797889 L96.6359173,54.330728 C98.6824563,54.1975627 99.7197433,53.5177192 100.630875,51.6954579 C100.778057,51.4081013 103.02084,45.9413175 105.614058,39.5563943 L110.330911,27.9359743 L109.594998,25.8894348 C108.753954,23.5485299 108.228302,22.4061123 107.604528,21.5580599 C106.490146,20.0441813 104.941223,18.9297985 103.441362,18.5443202 C102.978788,18.4251723 102.656388,18.4041462 101.527988,18.4041462 L100.168301,18.4041462 L100.189326,18.1097809 L100.210352,17.8084069 L102.277919,17.8154156 C104.58378,17.8224243 105.130458,17.89952 106.244841,18.3270505 C108.018042,19.0139028 109.672094,20.7590685 110.961694,23.3032256 C111.578459,24.5157301 111.725642,24.8731737 112.300355,26.4991915 C112.559677,27.2351046 115.075799,33.8162713 117.900304,41.1263425 C120.7178,48.4434224 123.044688,54.5199628 123.065715,54.632102 C123.128792,54.9474934 122.883488,55.4310935 122.582114,55.5712674 C122.322792,55.697424 121.888253,55.7184501 121.656966,55.6203283 Z" id="Path"></path>
        <path d="M138.723144,55.6413544 C136.564465,55.4170761 134.566986,54.5339802 133.270377,53.2373713 C132.408307,52.3753015 131.714447,51.1627969 131.434098,50.0133706 C131.244864,49.2354052 131.174776,47.9458049 131.293925,47.2309178 C131.707437,44.6447085 133.480638,42.941595 138.814257,39.9839248 C140.678571,38.9466377 141.589701,38.3298723 142.374675,37.5448982 C142.900327,37.019246 143.10358,36.7599242 143.299823,36.346411 C144.302066,34.3068801 143.629231,32.0991405 141.715858,31.1599751 C140.818744,30.7184271 140.201979,30.5852619 138.884344,30.5502184 C137.5597,30.5081663 136.85883,30.5852619 135.954708,30.8866359 C135.232812,31.1249316 133.782012,31.8258014 132.912933,32.3444449 C132.261125,32.736932 131.980777,32.7859928 131.700429,32.5617145 C131.602307,32.4916275 131.483159,32.3304275 131.434098,32.2112797 C131.357003,32.0220448 131.357003,31.9519579 131.455125,31.7557144 C132.036847,30.5432097 134.784256,29.239592 137.482604,28.9101833 C138.47083,28.7910354 140.797718,28.8681311 141.666797,29.0433486 C142.591944,29.239592 143.075545,29.3867747 143.790432,29.6951574 C145.514572,30.4380793 146.958363,31.8678535 147.554102,33.4167756 C147.946589,34.426028 148.002659,34.797489 148.002659,36.1361501 C148.002659,37.1944634 147.981633,37.4467765 147.848468,37.9584114 C147.526067,39.1568986 146.874259,40.1871771 145.801928,41.2104469 C144.953875,42.0164471 144.386171,42.4089341 141.842014,43.93683 C137.286361,46.6632133 135.898639,47.896744 135.56923,49.4807096 C135.40803,50.2656837 135.660343,51.5202405 136.129926,52.249145 C136.452326,52.7607799 137.2373,53.4686583 137.755943,53.7209714 C138.603996,54.1344845 139.178709,54.2466236 140.510362,54.239615 C141.498588,54.239615 141.799962,54.2115802 142.262536,54.0854236 C144.035737,53.615841 145.129093,52.5785537 145.661754,50.8544142 C145.84398,50.2867098 145.857997,50.2586749 146.068258,50.2376489 L146.292537,50.2166228 L146.292537,52.340258 L146.292537,54.4638933 L145.745859,54.702189 C144.512327,55.2488674 143.496066,55.487163 141.849023,55.6203283 C141.00097,55.6834066 139.262813,55.697424 138.723144,55.6413544 Z" id="Path"></path>
        <path d="M70.5285199,55.5502413 C65.6995275,54.9685194 62.7278399,52.4243624 61.5573875,47.8757179 C61.1368657,46.2356828 61.0387439,45.3105347 61.0317352,42.8644994 C61.0317352,40.6006902 61.05977,40.2432466 61.3541353,38.729368 C61.6765354,37.0963416 62.4404833,35.2390368 63.3165705,33.963454 C65.2649883,31.1179229 68.0544498,29.4989138 72.0353898,28.9031746 C72.8764335,28.7840268 76.0723994,28.7840268 76.9765213,28.9101833 C78.9529739,29.1835225 81.6513223,29.9334531 82.0368008,30.3189314 C82.3662095,30.6483402 82.2680877,31.0968968 81.8475659,31.2020272 C81.7494441,31.2230534 81.3709745,31.138949 80.9084005,30.9917663 C79.6117915,30.5712446 79.0581044,30.5011576 77.1166952,30.5011576 C75.5887993,30.5011576 75.3154601,30.5151749 74.6636513,30.6553489 C72.7152334,31.0828794 71.3625549,31.7907579 70.0519285,33.0733494 C69.4351631,33.6760974 68.69925,34.6152628 68.257702,35.3441673 C67.1503278,37.1944634 66.3233016,40.166151 66.3233016,42.2967949 C66.3233016,43.6915257 66.6176669,44.4764998 67.3185366,44.9460825 C67.9773542,45.3806217 68.0544498,45.3876304 73.8716685,45.3876304 C77.0956692,45.3876304 79.2823827,45.4156652 79.5557219,45.4577174 C80.80327,45.6609696 81.7494441,46.3828654 82.1349224,47.4201526 C82.2961225,47.8476831 82.2961225,48.9130051 82.1349224,49.5578052 C81.9737224,50.2026054 81.4200354,51.3380143 80.9854962,51.9057188 C79.7029046,53.6018235 77.4390953,54.9194586 74.9650252,55.4170761 C74.3482599,55.5432327 73.9137207,55.5712674 72.631129,55.5922936 C71.7620506,55.5993022 70.8158765,55.5782762 70.5285199,55.5502413 Z M73.5212336,54.400815 C75.0070775,53.9943106 76.3177038,52.8308668 77.0395996,51.2609187 C77.4320867,50.419875 77.5652519,49.8311444 77.5652519,48.962066 C77.5722606,48.3382919 77.5442258,48.1841006 77.4180693,47.9387962 C77.0816518,47.3010047 76.4578777,46.9996308 75.1893035,46.8594568 C74.8388687,46.8244133 72.7432682,46.7893698 70.5145025,46.7893698 C67.0802409,46.7893698 66.4634755,46.8033872 66.4634755,46.8874916 C66.4634755,47.2729699 66.7157886,48.8639442 66.891006,49.5718226 C67.5918758,52.4453885 69.0076326,54.0433714 71.2153722,54.4638933 C71.846155,54.5830411 72.9675465,54.5550063 73.5212336,54.400815 Z" id="Shape"></path>
        <path d="M11.0947677,7.3654481 L11.0947677,2.8448384 L11.5433243,2.8448384 L11.9918809,2.8448384 L12.0269244,4.89838668 C12.0619679,7.09210891 12.0970114,7.3514307 12.454455,7.89110039 C12.6857419,8.24153525 13.1553246,8.46581355 13.7510639,8.50786577 C14.606125,8.5639353 15.1948555,8.25555264 15.3630643,7.64579598 C15.4121252,7.47057855 15.4401599,6.53141312 15.4401599,5.1086476 L15.4401599,2.8448384 L15.9307687,2.8448384 L16.4213776,2.8448384 L16.4213776,5.00351713 C16.4213776,7.87007429 16.3442819,8.29059612 15.7205078,8.82325711 C15.299986,9.18070069 14.8023685,9.31386596 13.982351,9.27882246 C13.4076377,9.25779634 13.2324203,9.22275284 12.8960028,9.0615528 C12.6787333,8.94941365 12.3913766,8.73214408 12.2512027,8.57795269 L12.0058983,8.28358743 L12.0058983,10.0848226 L12.0058983,11.8860578 L11.550333,11.8860578 L11.0947677,11.8860578 L11.0947677,7.3654481 Z" id="Path"></path>
        <polygon id="Path" points="36.8166864 7.3654481 36.8166864 2.8448384 37.3072952 2.8448384 37.797904 2.8448384 37.797904 7.3654481 37.797904 11.8860578 37.3072952 11.8860578 36.8166864 11.8860578"></polygon>
        <path d="M153.721756,7.3654481 L153.721756,2.8448384 L154.065182,2.8448384 L154.408608,2.8448384 L154.492712,3.20929065 C154.541773,3.41254288 154.597843,3.6087864 154.611861,3.63682118 C154.632886,3.67186467 154.780069,3.57374291 154.941269,3.41955157 C155.319738,3.04809062 155.719234,2.85885579 156.258904,2.78176013 C158.067148,2.52944703 159.195548,3.64382988 159.307687,5.78849122 C159.384783,7.38647419 158.866139,8.57094404 157.870904,9.0615528 C157.541496,9.22275284 157.35927,9.25779634 156.805582,9.27882246 C155.978556,9.31386596 155.47393,9.14565719 154.983321,8.69009184 L154.660921,8.38871788 L154.688956,10.1338835 L154.723999,11.8860578 L154.219373,11.8860578 L153.721756,11.8860578 L153.721756,7.3654481 Z M157.443374,8.30461352 C158.067148,7.96118735 158.396557,7.02202193 158.326469,5.78148253 C158.256383,4.66009098 157.955009,4.02930822 157.345253,3.72092555 C156.917722,3.51066464 156.307965,3.48262984 155.803339,3.65784727 C155.389826,3.79802122 154.969304,4.26059523 154.836139,4.71616055 C154.681947,5.24181284 154.702974,6.98697845 154.871182,7.45656116 C155.123495,8.19948306 155.712226,8.54290919 156.637374,8.50085704 C157.001826,8.47983092 157.219096,8.43077007 157.443374,8.30461352 Z" id="Shape"></path>
        <path d="M44.2529141,11.5075881 C43.9375228,11.3323707 43.8674358,10.8347532 44.1127402,10.5263705 C44.4211229,10.1268748 45.0869491,10.3861966 45.0869491,10.9118489 C45.0869491,11.1921968 44.9607925,11.4375011 44.7575403,11.5286142 C44.5402707,11.626736 44.463175,11.6197273 44.2529141,11.5075881 Z" id="Path"></path>
        <path d="M117.942356,11.5216055 C117.86526,11.4795534 117.76013,11.395449 117.718078,11.3393794 C117.542861,11.1291185 117.640982,10.5473966 117.86526,10.400214 C117.907313,10.3721792 118.061504,10.3441444 118.201678,10.3441444 C118.397922,10.3441444 118.496044,10.3861966 118.601174,10.5263705 C118.853488,10.8487706 118.755365,11.3744229 118.418948,11.5286142 C118.208687,11.626736 118.124582,11.6197273 117.942356,11.5216055 Z" id="Path"></path>
        <path d="M81.7424355,11.3604055 C80.0323133,11.0169794 78.903913,9.91661387 78.5464696,8.24153525 C78.3922782,7.49861334 78.441339,6.07584781 78.6586087,5.40301288 C79.0931479,4.03631693 80.0813742,3.11817759 81.427044,2.8378297 C82.3241573,2.65560357 83.8240185,2.76073403 85.3028538,3.1041602 L85.4570448,3.13920368 L85.4570448,5.19976066 L85.4570448,7.26031764 L84.020262,7.26031764 L82.5834791,7.26031764 L82.5834791,6.83979581 L82.5834791,6.41927397 L83.5296533,6.41927397 L84.4758274,6.41927397 L84.4758274,5.0946302 L84.4758274,3.77699513 L83.9922272,3.69289076 C83.3684532,3.594769 82.2821051,3.594769 81.798505,3.69289076 C80.2776177,4.01529083 79.4926437,5.15770848 79.4786263,7.04304802 C79.4716175,8.91437015 80.2916351,10.1198661 81.8125224,10.491327 C82.4292878,10.6385097 83.4245227,10.5964575 84.1253925,10.3861966 C84.4548012,10.2950835 84.7772013,10.1899531 84.8472887,10.1689269 C84.9454103,10.1268748 85.0014796,10.1969618 85.148662,10.5123531 C85.2467836,10.7296227 85.3098624,10.932875 85.2888359,10.9609098 C85.2397751,11.0450141 84.321636,11.3043359 83.7749576,11.395449 C83.1722097,11.486562 82.3031312,11.4725446 81.7424355,11.3604055 Z" id="Path"></path>
        <polygon id="Path" points="3.59546166 10.9048402 3.59546166 10.4843184 4.92711413 10.4843184 6.2587666 10.4843184 6.2587666 6.66457837 6.2587666 2.8448384 6.7493754 2.8448384 7.23998421 2.8448384 7.23998421 6.66457837 7.23998421 10.4843184 8.57163668 10.4843184 9.90328913 10.4843184 9.90328913 10.9048402 9.90328913 11.325362 6.7493754 11.325362 3.59546166 11.325362"></polygon>
        <path d="M28.1959889,8.54290919 C28.1959889,7.00800454 28.2310323,5.53617812 28.2660758,5.26283893 C28.5253976,3.48963854 29.927137,2.55047312 31.9806853,2.78176013 C32.9969464,2.89389928 33.7608944,3.32843851 34.2304771,4.05033432 C34.6860424,4.75821274 34.7140772,5.02454323 34.7140772,8.37470049 L34.7140772,11.325362 L34.2234684,11.325362 L33.7398683,11.325362 L33.7188422,8.19247436 L33.6978161,5.05257802 L33.5296074,4.71616055 C33.4384944,4.53393442 33.2212247,4.26059523 33.0460073,4.10640389 C32.6114681,3.72092555 32.1418853,3.594769 31.3148591,3.62981249 C30.5158676,3.66485597 29.9691892,3.90315168 29.6187544,4.37273439 C29.2262674,4.89137798 29.2192586,4.94043887 29.1982325,8.26256134 L29.1701977,11.325362 L28.679589,11.325362 L28.1959889,11.325362 L28.1959889,8.54290919 Z" id="Path"></path>
        <polygon id="Path" points="137.812013 7.08510021 137.812013 2.8448384 138.267579 2.8448384 138.723144 2.8448384 138.723144 4.8423171 138.723144 6.83979581 141.00097 6.83979581 143.278797 6.83979581 143.278797 4.8423171 143.278797 2.8448384 143.734362 2.8448384 144.189928 2.8448384 144.189928 7.08510021 144.189928 11.325362 143.734362 11.325362 143.278797 11.325362 143.278797 9.53814426 143.278797 7.75092644 141.00097 7.75092644 138.723144 7.75092644 138.723144 9.53814426 138.723144 11.325362 138.267579 11.325362 137.812013 11.325362"></polygon>
        <path d="M40.1107741,10.0077269 L39.9005132,9.31386596 L39.4449478,9.11762242 C39.0104086,8.93539626 38.9893825,8.91437015 38.9893825,8.69009184 L38.9893825,8.45179616 L39.4379392,8.45179616 L39.8935044,8.45179616 L39.9145306,6.23003915 C39.9355567,4.13443869 39.9425653,3.98024735 40.0827392,3.68588207 C40.2649654,3.30741241 40.5453133,3.03407322 40.9027568,2.87988189 C41.1971221,2.76073403 42.1643224,2.72569055 42.5287746,2.83082101 C42.7250181,2.88689059 42.7390355,2.91492537 42.7600616,3.24433414 L42.7810877,3.6017777 L42.1643224,3.56673421 C41.6386701,3.53869942 41.5125136,3.55972551 41.3302874,3.67186467 C40.9027568,3.94520386 40.8817308,4.07836911 40.8817308,6.37722179 L40.8817308,8.45179616 L41.7928614,8.45179616 L42.703992,8.45179616 L42.703992,8.83727449 L42.703992,9.22275284 L41.7928614,9.22275284 L40.8817308,9.22275284 L40.8817308,9.95866602 L40.8817308,10.6945793 L40.6013829,10.6945793 L40.3280437,10.6945793 L40.1107741,10.0077269 Z" id="Path"></path>
        <path d="M65.0266926,10.0217443 L64.8234404,9.34190072 L64.3818924,9.13864845 C63.9613707,8.94941365 63.9403446,8.92838753 63.9403446,8.69710057 L63.9403446,8.45179616 L64.3889012,8.45179616 L64.8444665,8.45179616 L64.8654926,6.15995217 C64.8865187,3.93118646 64.8935274,3.8540908 65.04071,3.56673421 C65.2229361,3.23031675 65.5383275,2.97099495 65.9238059,2.8448384 C66.2251799,2.74671664 67.0942583,2.73970794 67.4096497,2.83082101 C67.6058932,2.88689059 67.6199106,2.91492537 67.6409367,3.23732545 L67.6619627,3.5877603 L67.0381887,3.55972551 C66.4214234,3.53169073 66.4144147,3.53169073 66.1621016,3.75596903 C66.0149189,3.88212559 65.874745,4.0853778 65.8326928,4.23256045 C65.7906406,4.37974308 65.7626059,5.3399346 65.7626059,6.46833486 L65.7626059,8.44478746 L66.6947626,8.46581355 L67.6199106,8.48683965 L67.6199106,8.83727449 L67.6199106,9.18770934 L66.6947626,9.20873545 L65.7626059,9.22976157 L65.7626059,9.95866602 L65.7626059,10.6945793 L65.4962753,10.6945793 L65.2229361,10.6945793 L65.0266926,10.0217443 Z" id="Path"></path>
        <path d="M20.3742828,9.29283984 C18.9515172,9.08958757 18.0333779,7.77896123 18.0333779,5.96370865 C18.0333779,5.43104767 18.1875692,4.71616055 18.3908214,4.27461263 C18.6361258,3.75596903 19.2458825,3.18125587 19.7505087,2.99202104 C20.5705263,2.68363836 21.7760222,2.68363836 22.6941616,2.98501235 L23.1497268,3.13920368 L23.1497268,3.55972551 C23.1497268,3.93118646 23.1357094,3.97323865 23.030579,3.93118646 C22.0844049,3.57374291 20.7667698,3.47562115 20.1990653,3.73494294 C19.5682826,4.02229953 19.1687868,4.62504749 19.049639,5.49412594 L19.0005781,5.8585782 L21.2153264,5.8585782 L23.4300747,5.8585782 L23.4300747,6.26508263 C23.4300747,8.3466657 22.2105614,9.5591703 20.3742828,9.29283984 Z M21.502683,8.38871788 C21.6638831,8.31863091 21.874144,8.15743088 21.9792744,8.03828302 C22.1825267,7.79297862 22.3787701,7.22527415 22.3787701,6.86082189 L22.3787701,6.62953489 L20.7317263,6.62953489 L19.0846825,6.62953489 L19.0846825,6.82577841 C19.0846825,7.39348288 19.5752913,8.15042218 20.0939348,8.38871788 C20.4724045,8.55692665 21.1312221,8.55692665 21.502683,8.38871788 Z" id="Shape"></path>
        <path d="M49.5374718,9.29283984 C49.0819065,9.22976157 48.5282194,8.942405 48.2548802,8.63402231 C48.1357324,8.4938483 48.0235932,8.38170919 48.0025671,8.38170919 C47.9885497,8.38170919 47.9535062,8.51487442 47.9254715,8.68308319 C47.8413671,9.22976157 47.8483758,9.22275284 47.427854,9.22275284 L47.0493843,9.22275284 L47.0493843,6.03379563 L47.0493843,2.8448384 L47.5399931,2.8448384 L48.0306019,2.8448384 L48.0306019,4.8633432 C48.0306019,7.09210891 48.0866715,7.51263073 48.444115,7.96118735 C48.7524977,8.3536744 49.0889152,8.48683965 49.7617502,8.48683965 C50.3715068,8.48683965 50.5677503,8.40273528 50.8551069,8.02426563 C51.0793852,7.71588296 51.1144286,7.3584394 51.1144286,5.06659541 L51.1144286,2.8378297 L51.5910201,2.85885579 L52.0606028,2.87988189 L52.0956462,5.12266499 C52.1236811,7.13416108 52.1447071,7.39348288 52.263855,7.6107525 C52.6142899,8.26957003 53.1749856,8.5639353 53.9739772,8.50085704 C54.6047598,8.45179616 54.9762208,8.15042218 55.1093861,7.56870031 C55.1444296,7.42151767 55.1794731,6.29311742 55.1794731,5.06659541 L55.1794731,2.8378297 L55.6560645,2.85885579 L56.1256472,2.87988189 L56.1256472,5.26283893 C56.1186385,7.42151767 56.1116298,7.68784816 55.9854733,8.06631782 C55.7191427,8.89334411 55.0463078,9.31386596 53.9950032,9.30685722 C53.1609682,9.30685722 52.5091594,9.0265093 52.0886376,8.47282227 L51.8994028,8.23452654 L51.7452114,8.48683965 C51.3597331,9.11061368 50.4976633,9.42600511 49.5374718,9.29283984 Z" id="Path"></path>
        <path d="M70.8789547,9.28583111 C69.8066241,9.11061368 68.9936153,8.27657873 68.7062586,7.06407411 C68.5801021,6.52440443 68.5941195,5.41703027 68.7342935,4.87736059 C69.1267805,3.3564733 70.3813373,2.599534 72.2106073,2.78176013 C72.7923291,2.8378297 73.1007118,2.90090798 73.4931989,3.06210802 C73.6684163,3.13920368 73.6824337,3.16723847 73.6824337,3.55271682 C73.6824337,3.78400383 73.6684163,3.96622995 73.6614075,3.96622995 C73.6473902,3.96622995 73.4511466,3.90315168 73.233877,3.82605601 C73.0095987,3.74896034 72.5680508,3.65784727 72.2526594,3.61579509 C70.7247634,3.41254288 69.7575632,4.0853778 69.6384154,5.44506506 L69.5963632,5.8585782 L71.7900854,5.8585782 L73.976799,5.8585782 L73.9487641,6.58047401 C73.906712,7.42151767 73.766538,7.87708299 73.4090945,8.3536744 C72.8343813,9.11762242 71.916242,9.45403988 70.8789547,9.28583111 Z M72.2316333,8.31162221 C72.6521552,8.02426563 72.8764335,7.5897264 72.9254944,6.94492626 L72.9465205,6.66457837 L71.2714418,6.64355229 L69.5963632,6.62953489 L69.6454241,6.92390017 C69.7505546,7.6107525 70.2551807,8.29059612 70.7738243,8.45179616 C70.8929721,8.48683965 71.2083636,8.50786577 71.4887114,8.4938483 C71.8811985,8.47983092 72.0494072,8.43777877 72.2316333,8.31162221 Z" id="Shape"></path>
        <path d="M89.9356024,9.29283984 C89.7603848,9.25779634 89.5150808,9.18770934 89.3889241,9.12463107 C89.1436193,8.99146588 88.6530113,8.5288918 88.428733,8.20649176 L88.2815497,7.99623084 L88.2324889,8.61299619 L88.1764196,9.22275284 L87.7979495,9.22275284 L87.4194802,9.22275284 L87.4194802,6.03379563 L87.4194802,2.8448384 L87.8680368,2.8448384 L88.323602,2.8448384 L88.3446285,4.8633432 C88.3656542,6.86082189 88.3656542,6.87483929 88.5478803,7.26031764 C88.8001937,7.79998732 89.0454977,8.06631782 89.4940543,8.28358743 C89.8304722,8.44478746 89.9356024,8.46581355 90.3911675,8.43777877 L90.9098115,8.40273528 L90.9728894,8.81624838 C91.0219502,9.11061368 91.0219502,9.24377896 90.9658808,9.25779634 C90.7556197,9.32087461 90.2229594,9.33489199 89.9356024,9.29283984 Z" id="Path"></path>
        <path d="M94.3020212,9.28583111 C92.8091681,9.0965963 91.9050463,7.88409169 91.9050463,6.06883911 C91.9050463,3.8540908 93.2647333,2.53645573 95.2902474,2.78176013 C96.8181433,2.97099495 97.7152566,4.16247347 97.7222651,6.01276954 C97.7222651,7.0991176 97.4699517,7.8490482 96.9092564,8.45880486 C96.2364215,9.17369195 95.4164033,9.43301376 94.3020212,9.28583111 Z M95.738804,8.30461352 C96.1102648,8.10837 96.4747169,7.64579598 96.6148907,7.16920458 C96.6639515,7.00099584 96.7060038,6.50337834 96.7060038,6.03379563 C96.7060038,5.56421292 96.6639515,5.06659541 96.6148907,4.89838668 C96.4817255,4.44282136 96.1102648,3.95221256 95.7598297,3.75596903 C95.4864906,3.6017777 95.3603339,3.5807516 94.8136557,3.5807516 C94.0847514,3.5807516 93.7273079,3.72092555 93.4119165,4.13443869 C92.8231861,4.90539537 92.7040379,6.62953489 93.1806296,7.57570901 C93.5310638,8.26957003 94.0216727,8.53590054 94.8977602,8.4938483 C95.2622123,8.47983092 95.5005078,8.42376138 95.738804,8.30461352 Z" id="Shape"></path>
        <path d="M101.485936,9.28583111 C99.9580396,9.06856153 99.1029786,7.89110039 99.1029786,6.02678693 C99.1099872,3.81904731 100.427622,2.54346442 102.460145,2.78176013 C103.616579,2.92193407 104.464631,3.67887337 104.773014,4.8423171 C105.088406,6.02678693 104.885154,7.47758725 104.282405,8.26256134 C103.665641,9.06856153 102.635362,9.44703114 101.485936,9.28583111 Z M102.59331,8.44478746 C103.013831,8.33965701 103.483414,7.91913517 103.672649,7.47057855 C104.15625,6.349187 103.960005,4.68812577 103.273153,4.01529083 C102.831605,3.5807516 102.032614,3.42656027 101.35277,3.62981249 C100.960283,3.74195164 100.504718,4.17649087 100.308475,4.6110301 C100.154283,4.94744756 100.140266,5.07360411 100.140266,6.03379563 C100.140266,6.97996974 100.154283,7.12014369 100.301465,7.44254377 C100.700961,8.31863091 101.57004,8.70410922 102.59331,8.44478746 Z" id="Shape"></path>
        <path d="M109.111398,9.29283984 C108.655833,9.22976157 108.102146,8.942405 107.828806,8.63402231 C107.709659,8.4938483 107.597519,8.38170919 107.576493,8.38170919 C107.562476,8.38170919 107.527433,8.51487442 107.499398,8.68308319 C107.415293,9.22976157 107.422302,9.22275284 107.00178,9.22275284 L106.623311,9.22275284 L106.623311,6.03379563 L106.623311,2.8448384 L107.11392,2.8448384 L107.604528,2.8448384 L107.604528,4.8633432 C107.604528,7.09210891 107.660598,7.51263073 108.018042,7.96118735 C108.326424,8.3536744 108.662841,8.48683965 109.335676,8.48683965 C109.945433,8.48683965 110.141676,8.40273528 110.429033,8.02426563 C110.653311,7.71588296 110.688355,7.3584394 110.688355,5.06659541 L110.688355,2.8378297 L111.164946,2.85885579 L111.634529,2.87988189 L111.669572,5.12266499 C111.704616,7.26031764 111.711625,7.37946549 111.858807,7.65280468 C112.16719,8.22751785 112.671817,8.52188315 113.35166,8.52188315 C113.793208,8.52188315 114.115608,8.41675267 114.346895,8.19247436 C114.711347,7.8420395 114.753399,7.53365683 114.753399,5.07360411 L114.753399,2.8378297 L115.229991,2.85885579 L115.699573,2.87988189 L115.699573,5.26283893 C115.692565,7.42151767 115.678548,7.68784816 115.559399,8.06631782 C115.293069,8.89334411 114.627243,9.31386596 113.56893,9.30685722 C112.734894,9.30685722 112.041033,8.99847453 111.634529,8.45179616 L111.473329,8.23452654 L111.319137,8.48683965 C110.933659,9.11061368 110.07159,9.42600511 109.111398,9.29283984 Z" id="Path"></path>
        <path d="M123.233923,9.27882246 C122.722288,9.20172672 122.154583,8.91437015 121.916288,8.62000492 C121.811158,8.48683965 121.706027,8.38170919 121.685001,8.38170919 C121.656966,8.38170919 121.600897,8.57094404 121.558844,8.80223099 L121.47474,9.22275284 L121.089261,9.22275284 L120.710792,9.22275284 L120.710792,6.03379563 L120.710792,2.8448384 L121.194392,2.8448384 L121.685001,2.8448384 L121.706027,5.03856063 C121.727053,7.08510021 121.734062,7.24630024 121.874236,7.54066553 C122.182618,8.19948306 122.750322,8.52188315 123.577349,8.52188315 C124.285228,8.51487442 124.691732,8.29059612 124.923019,7.78596992 C125.042167,7.53365683 125.056184,7.28835243 125.056184,5.17873456 L125.056184,2.8448384 L125.553802,2.8448384 L126.04441,2.8448384 L126.023385,5.31890851 C125.988341,8.0943526 125.967315,8.24153525 125.476706,8.73214408 C125.014132,9.19471807 124.088984,9.41899638 123.233923,9.27882246 Z" id="Path"></path>
        <path d="M129.590811,9.28583111 C128.770794,9.1666833 128.19608,8.77419623 127.92975,8.15743088 C127.719489,7.65981338 127.670428,7.03603933 127.817611,6.54543053 C127.936758,6.13892608 128.329246,5.62028249 128.651646,5.44506506 L128.833872,5.3469433 L128.567541,5.15770848 C127.999837,4.74419534 127.908724,3.99426474 128.371298,3.57374291 L128.616602,3.3494646 L128.301211,3.23031675 C126.808358,2.66261227 126.892463,0.735220543 128.427367,0.209568254 C128.875924,0.0553769149 129.723976,-0.0357361487 130.312707,0.0133247317 C132.212064,0.16751607 133.116186,0.868385791 133.116186,2.17200347 C133.109178,2.87988189 132.786777,3.39151678 132.170012,3.65784727 C131.952742,3.75596903 131.58829,3.79101252 130.607072,3.82605601 C129.471663,3.86810819 129.303455,3.88913428 129.135246,4.01529083 C128.910968,4.17649087 128.868915,4.38675178 128.988064,4.67410837 C129.142254,5.05257802 129.38055,5.15770848 130.151507,5.18574326 C130.978533,5.21377806 131.378029,5.3469433 131.812568,5.72541295 C132.268134,6.12490869 132.443351,6.53141312 132.443351,7.18322197 C132.436343,7.6107525 132.401299,7.79297862 132.261125,8.08734391 C132.057872,8.50786577 132.029838,8.48683965 132.730707,8.57094404 L133.221316,8.62701357 L133.221316,8.9073615 L133.221316,9.18770934 L131.854621,9.22976157 C131.10469,9.2507876 130.375786,9.28583111 130.24262,9.31386596 C130.109455,9.33489199 129.815089,9.32087461 129.590811,9.28583111 Z M130.642116,8.55692665 C131.26589,8.37470049 131.539229,7.88409169 131.490169,7.04304802 C131.462133,6.53842182 131.349994,6.30713482 131.006568,6.05482172 C130.614081,5.76045644 129.590811,5.76045644 129.198324,6.05482172 C128.805837,6.3421783 128.73575,6.52440443 128.73575,7.22527415 C128.73575,7.77896123 128.756777,7.91212648 128.882933,8.07332651 C129.27542,8.60598754 129.899194,8.77419623 130.642116,8.55692665 Z M131.80556,2.8448384 C132.219073,2.64158618 132.34523,1.94772516 132.043855,1.50617723 C131.672395,0.95249016 131.167768,0.777272726 129.927229,0.777272726 C128.882933,0.777272726 128.581559,0.875394491 128.294202,1.30292502 C128.154028,1.50617723 128.133003,1.61130769 128.161037,1.91268167 C128.210098,2.36824699 128.41335,2.67662966 128.798828,2.85184709 C129.051141,2.97099495 129.226359,2.98501235 130.34775,2.96398626 C131.258881,2.94996885 131.665385,2.91492537 131.80556,2.8448384 Z" id="Shape"></path>
        <path d="M59.4547784,9.19471807 C58.9922044,9.07557018 58.4034738,8.83026584 58.4034738,8.75317011 C58.4034738,8.64103096 58.6347608,8.1013613 58.6838217,8.1013613 C58.7118564,8.1013613 58.9571609,8.18546567 59.2164827,8.28358743 C59.531874,8.40273528 59.903335,8.47983092 60.2747959,8.50085704 C60.7654047,8.53590054 60.8845526,8.52188315 61.1649004,8.38170919 C61.6064484,8.17144827 61.7816658,7.82802211 61.7956832,7.15518717 L61.8026919,6.66457837 L60.8214743,6.62252619 C59.0973348,6.54543053 58.2352651,6.19499567 57.8217519,5.40301288 C57.6465344,5.06659541 57.6184997,4.28863002 57.7656823,3.87511689 C57.8848301,3.52468203 58.2142389,3.15322108 58.5506564,2.97800365 C59.0973348,2.70466446 60.1977003,2.68363836 60.8074569,2.93595146 C60.9476309,2.99902974 61.2349874,3.20929065 61.4452483,3.40553418 C61.6555093,3.6017777 61.8377354,3.73494294 61.8587615,3.70690816 C61.8727788,3.67887337 61.9078223,3.52468203 61.9358571,3.37049069 C62.0269702,2.8448384 62.0269702,2.8448384 62.4054398,2.8448384 L62.7558748,2.8448384 L62.7348486,5.38899549 C62.7138225,7.86306559 62.7068139,7.93315257 62.5526225,8.27657873 C62.3423616,8.72513534 62.2302224,8.85129188 61.8026919,9.06856153 C61.4943092,9.22275284 61.3471266,9.2507876 60.6462569,9.27181372 C60.1206045,9.27882246 59.7070914,9.25779634 59.4547784,9.19471807 Z M61.7676484,5.41703027 C61.7676484,4.48487355 61.4102048,3.91716907 60.6532655,3.65083858 C60.2467612,3.51066464 59.5038392,3.51767333 59.1954566,3.66485597 C58.8029695,3.8470821 58.6698043,4.12042129 58.6978391,4.69513446 C58.7258738,5.16471717 58.7328826,5.18574326 59.0202391,5.43805636 C59.4267436,5.79549992 60.0084654,5.92866517 61.5083266,5.98473474 L61.7676484,5.99875214 L61.7676484,5.41703027 Z" id="Shape"></path>
        <polygon id="Path" points="44.0356445 6.03379563 44.0356445 2.8448384 44.5262533 2.8448384 45.0168621 2.8448384 45.0168621 6.03379563 45.0168621 9.22275284 44.5262533 9.22275284 44.0356445 9.22275284"></polygon>
        <polygon id="Path" points="117.697052 6.03379563 117.697052 2.8448384 118.187661 2.8448384 118.67827 2.8448384 118.67827 6.03379563 118.67827 9.22275284 118.187661 9.22275284 117.697052 9.22275284"></polygon>
        <path d="M146.376641,6.72064795 C146.397667,4.24657784 146.397667,4.20452565 146.565876,3.8400734 C146.902293,3.0971515 147.561111,2.76073403 148.668485,2.76073403 C149.453459,2.76073403 149.979111,2.94996885 150.413651,3.38450808 C150.58186,3.55271682 150.729042,3.68588207 150.743059,3.67186467 C150.757077,3.65784727 150.79212,3.47562115 150.827164,3.26536023 L150.883233,2.87988189 L151.289737,2.85885579 L151.689233,2.8378297 L151.689233,6.03379563 L151.689233,9.22275284 L151.205634,9.22275284 L150.715025,9.22275284 L150.68699,7.07108281 C150.658955,4.66709968 150.644938,4.57598661 150.196381,4.06435171 C150.000138,3.8400734 149.831929,3.72793425 149.565598,3.65083858 C149.159094,3.53169073 148.542328,3.51066464 148.191893,3.61579509 C147.869493,3.70690816 147.498033,4.07136041 147.413928,4.38675178 C147.371876,4.51991703 147.343841,5.63429988 147.343841,6.93090887 L147.343841,9.22275284 L146.853232,9.22275284 L146.355615,9.22275284 L146.376641,6.72064795 Z" id="Path"></path>
      </g>
    </g>
  </g>
</svg>
