<?xml version="1.0" encoding="UTF-8"?>
<!-- Generator: Adobe Illustrator 26.3.1, SVG Export Plug-In . SVG Version: 6.00 Build 0)  -->
<svg xmlns="http://www.w3.org/2000/svg" xmlns:xlink="http://www.w3.org/1999/xlink" version="1.1" id="Layer_1" x="0px" y="0px" viewBox="0 0 512 512" style="enable-background:new 0 0 512 512;" xml:space="preserve">
<style type="text/css">
	.st0{fill:none;stroke:#000000;stroke-width:14.0599;stroke-miterlimit:10;}
</style>
<g>
	<path class="st0" d="M17.6,122.1l24.5,11c17.3,7.8,37.2,7.3,54.1-1.3l5.8-3c16.9-8.6,36.8-9.1,54.1-1.3l12.3,5.5   c17.3,7.8,37.2,7.3,54.1-1.3l5.8-3c16.9-8.6,36.8-9.1,54.1-1.3l12.3,5.5c17.3,7.8,37.2,7.3,54.1-1.3l5.8-3   c16.9-8.6,36.8-9.1,54.1-1.3l12.3,5.5c17.3,7.8,37.2,7.3,54.1-1.3l19.2-9.7"></path>
	<path class="st0" d="M17.6,175.4l24.5,11c17.3,7.8,37.2,7.3,54.1-1.3l5.8-3c16.9-8.6,36.8-9.1,54.1-1.3l12.3,5.5   c17.3,7.8,37.2,7.3,54.1-1.3l5.8-3c16.9-8.6,36.8-9.1,54.1-1.3l12.3,5.5c17.3,7.8,37.2,7.3,54.1-1.3l5.8-3   c16.9-8.6,36.8-9.1,54.1-1.3l12.3,5.5c17.3,7.8,37.2,7.3,54.1-1.3l19.2-9.7"></path>
	<path class="st0" d="M17.6,228.7l24.5,11c17.3,7.8,37.2,7.3,54.1-1.3l5.8-3c16.9-8.6,36.8-9.1,54.1-1.3l12.3,5.5   c17.3,7.8,37.2,7.3,54.1-1.3l5.8-3c16.9-8.6,36.8-9.1,54.1-1.3l12.3,5.5c17.3,7.8,37.2,7.3,54.1-1.3l5.8-3   c16.9-8.6,36.8-9.1,54.1-1.3l12.3,5.5c17.3,7.8,37.2,7.3,54.1-1.3l19.2-9.7"></path>
	<path class="st0" d="M17.6,282l24.5,11c17.3,7.8,37.2,7.3,54.1-1.3l5.8-3c16.9-8.6,36.8-9.1,54.1-1.3l12.3,5.5   c17.3,7.8,37.2,7.3,54.1-1.3l5.8-3c16.9-8.6,36.8-9.1,54.1-1.3l12.3,5.5c17.3,7.8,37.2,7.3,54.1-1.3l5.8-3   c16.9-8.6,36.8-9.1,54.1-1.3l12.3,5.5c17.3,7.8,37.2,7.3,54.1-1.3l19.2-9.7"></path>
	<path class="st0" d="M17.6,335.2l24.5,11c17.3,7.8,37.2,7.3,54.1-1.3l5.8-3c16.9-8.6,36.8-9.1,54.1-1.3l12.3,5.5   c17.3,7.8,37.2,7.3,54.1-1.3l5.8-3c16.9-8.6,36.8-9.1,54.1-1.3l12.3,5.5c17.3,7.8,37.2,7.3,54.1-1.3l5.8-3   c16.9-8.6,36.8-9.1,54.1-1.3l12.3,5.5c17.3,7.8,37.2,7.3,54.1-1.3l19.2-9.7"></path>
	<path class="st0" d="M17.6,388.5l24.5,11c17.3,7.8,37.2,7.3,54.1-1.3l5.8-3c16.9-8.6,36.8-9.1,54.1-1.3l12.3,5.5   c17.3,7.8,37.2,7.3,54.1-1.3l5.8-3c16.9-8.6,36.8-9.1,54.1-1.3l12.3,5.5c17.3,7.8,37.2,7.3,54.1-1.3l5.8-3   c16.9-8.6,36.8-9.1,54.1-1.3l12.3,5.5c17.3,7.8,37.2,7.3,54.1-1.3l19.2-9.7"></path>
</g>
</svg>
