<?xml version="1.0" encoding="UTF-8"?>
<svg xmlns="http://www.w3.org/2000/svg" id="Layer_1" viewBox="0 0 512 512">
  <defs>
    <style>.cls-1{fill:none;stroke:#000;stroke-miterlimit:10;stroke-width:11.54px;}</style>
  </defs>
  <path class="cls-1" d="M66.25,147.44l20.14,9.05c14.2,6.38,30.53,6,44.41-1.05l4.8-2.44c13.88-7.04,30.21-7.43,44.41-1.05l10.08,4.53c14.2,6.38,30.53,6,44.41-1.05l4.8-2.44c13.88-7.04,30.21-7.43,44.41-1.05l10.08,4.53c14.2,6.38,30.53,6,44.41-1.05l4.8-2.44c13.88-7.04,30.21-7.43,44.41-1.05l10.08,4.53c14.2,6.38,30.53,6,44.41-1.05l15.77-8"></path>
  <path class="cls-1" d="M66.25,191.18l20.14,9.05c14.2,6.38,30.53,6,44.41-1.05l4.8-2.44c13.88-7.04,30.21-7.43,44.41-1.05l10.08,4.53c14.2,6.38,30.53,6,44.41-1.05l4.8-2.44c13.88-7.04,30.21-7.43,44.41-1.05l10.08,4.53c14.2,6.38,30.53,6,44.41-1.05l4.8-2.44c13.88-7.04,30.21-7.43,44.41-1.05l10.08,4.53c14.2,6.38,30.53,6,44.41-1.05l15.77-8"></path>
  <path class="cls-1" d="M66.25,234.92l20.14,9.05c14.2,6.38,30.53,6,44.41-1.05l4.8-2.44c13.88-7.04,30.21-7.43,44.41-1.05l10.08,4.53c14.2,6.38,30.53,6,44.41-1.05l4.8-2.44c13.88-7.04,30.21-7.43,44.41-1.05l10.08,4.53c14.2,6.38,30.53,6,44.41-1.05l4.8-2.44c13.88-7.04,30.21-7.43,44.41-1.05l10.08,4.53c14.2,6.38,30.53,6,44.41-1.05l15.77-8"></path>
  <path class="cls-1" d="M66.25,278.66l20.14,9.05c14.2,6.38,30.53,6,44.41-1.05l4.8-2.44c13.88-7.04,30.21-7.43,44.41-1.05l10.08,4.53c14.2,6.38,30.53,6,44.41-1.05l4.8-2.44c13.88-7.04,30.21-7.43,44.41-1.05l10.08,4.53c14.2,6.38,30.53,6,44.41-1.05l4.8-2.44c13.88-7.04,30.21-7.43,44.41-1.05l10.08,4.53c14.2,6.38,30.53,6,44.41-1.05l15.77-8"></path>
  <path class="cls-1" d="M66.25,322.4l20.14,9.05c14.2,6.38,30.53,6,44.41-1.05l4.8-2.44c13.88-7.04,30.21-7.43,44.41-1.05l10.08,4.53c14.2,6.38,30.53,6,44.41-1.05l4.8-2.44c13.88-7.04,30.21-7.43,44.41-1.05l10.08,4.53c14.2,6.38,30.53,6,44.41-1.05l4.8-2.44c13.88-7.04,30.21-7.43,44.41-1.05l10.08,4.53c14.2,6.38,30.53,6,44.41-1.05l15.77-8"></path>
  <path class="cls-1" d="M66.25,366.14l20.14,9.05c14.2,6.38,30.53,6,44.41-1.05l4.8-2.44c13.88-7.04,30.21-7.43,44.41-1.05l10.08,4.53c14.2,6.38,30.53,6,44.41-1.05l4.8-2.44c13.88-7.04,30.21-7.43,44.41-1.05l10.08,4.53c14.2,6.38,30.53,6,44.41-1.05l4.8-2.44c13.88-7.04,30.21-7.43,44.41-1.05l10.08,4.53c14.2,6.38,30.53,6,44.41-1.05l15.77-8"></path>
</svg>
