<?xml version="1.0" encoding="UTF-8"?>
<svg xmlns="http://www.w3.org/2000/svg" id="Layer_1" data-name="Layer 1" viewBox="0 0 30 30">
  <defs>
    <style>.cls-1{fill:#fff;}</style>
  </defs>
  <title>Artboard 1 copy</title>
  <path class="cls-1" d="M6.63,12.31,5.91,22.9l-.24-.17a13.24,13.24,0,0,1-3.22-4,7.76,7.76,0,0,1-.86-3c0-.06,0-.12-.05-.18v-.62c0-.3.08-.62.14-.92a6.43,6.43,0,0,1,3-4.24A10.78,10.78,0,0,1,9.09,8.16a18.66,18.66,0,0,1,9.47,1.12,18.59,18.59,0,0,1,5.9,3.47A11.94,11.94,0,0,1,28.12,18a6.35,6.35,0,0,1-2.38,7.31,15.65,15.65,0,0,1-1.52.91c-.09.05-.19.08-.3.13-.19-1.17-.38-2.3-.56-3.43l-.93-5.64c-.23-1.35-.43-2.7-.71-4a4.84,4.84,0,0,0-1.27-2.66,2.71,2.71,0,0,0-3.88.13,8.68,8.68,0,0,0-1.42,2.49c-.41,1-.78,2-1.21,3-.24.55-.57,1.06-.86,1.58a.79.79,0,0,0-.1.33c0,1,0,2,0,2.95,0,.26.11.27.31.2a2.64,2.64,0,0,0,1.19-1.05,17.54,17.54,0,0,0,1.65-3.3c.34-.84.7-1.69,1.05-2.53a.58.58,0,0,1,.23-.27c0,.21.06.43.08.64.12,1.51.23,3,.34,4.54.13,1.86.26,3.71.38,5.57,0,.76.07,1.52.11,2.28,0,.18,0,.25-.25.24a20.56,20.56,0,0,1-9.27-2.48.75.75,0,0,1-.48-.79c.1-1.93.17-3.87.24-5.8.06-1.42.11-2.85.17-4.27a1.7,1.7,0,0,1,.15-.41,2.64,2.64,0,0,1,.23.35c.5,1.31,1,2.63,1.49,3.94a13.06,13.06,0,0,0,1.53,2.79l.24.3a.58.58,0,0,0,0-.13c0-.88.06-1.76,0-2.64a2.83,2.83,0,0,0-.31-.9c-.61-1.54-1.23-3.07-1.85-4.61-.29-.71-.56-1.42-.87-2.13a1.3,1.3,0,0,0-1.63-.85S6.63,9.86,6.63,12.31Z"></path>
  <path class="cls-1" d="M18.84,2.59a3.19,3.19,0,0,1,1.39.8,3.5,3.5,0,0,1,.38,4.25,2.25,2.25,0,0,1-3.52.26,3.58,3.58,0,0,1-.62-4A2.34,2.34,0,0,1,18,2.64l.09-.05ZM17.2,5.92A1.63,1.63,0,0,0,18.66,5a1.53,1.53,0,0,0-.2-1.78.7.7,0,0,0-1.12-.17,2.58,2.58,0,0,0-1.09,2.33.36.36,0,0,0,.18.27C16.67,5.77,16.94,5.83,17.2,5.92Z"></path>
  <path class="cls-1" d="M7.48,3.8A1.55,1.55,0,0,1,9.87,5a2.31,2.31,0,0,1-.3,1.68,1.6,1.6,0,0,1-1.68.87A1.52,1.52,0,0,1,6.67,6.39a2,2,0,0,1,.19-1.83c0,.12-.09.24-.12.37s0,.31.23.38A1.22,1.22,0,0,0,8.54,4c-.06-.29-.19-.41-.48-.34A5.54,5.54,0,0,0,7.48,3.8Z"></path>
</svg>
