<?xml version="1.0" encoding="UTF-8"?>
<svg xmlns="http://www.w3.org/2000/svg" id="Layer_1" data-name="Layer 1" viewBox="0 0 286 286">
  <defs>
    <style>.cls-1{fill:#fff;}.cls-2{fill:#373433;}.cls-3{fill:#dd1d6c;}</style>
  </defs>
  <title>Lely&amp;apos;s-zymo</title>
  <rect class="cls-1" width="286" height="286"></rect>
  <path class="cls-2" d="M194,218c.06-.27-.18-.23-.31-.27a2.29,2.29,0,0,1-.81-.48,1.62,1.62,0,0,1,.18-2.48,5.58,5.58,0,0,1,.63-.35c-.62-.94-.58-1.29.26-2,0-.16-.18-.21-.29-.3a2.21,2.21,0,0,1-.62-2.46,1.94,1.94,0,0,1,1.84-1.41,3.63,3.63,0,0,1,.87,0,21.73,21.73,0,0,0,2.55.08c.21,0,.38,0,.39.3s-.08.4-.36.42a5.85,5.85,0,0,0-.71.12c0,.29.16.51.22.76a2.06,2.06,0,0,1-1.47,2.55,3,3,0,0,1-1.3.13.72.72,0,0,0-.73.38.52.52,0,0,0,.36.87,3.65,3.65,0,0,0,.87.07c.46,0,.92,0,1.38,0a1.67,1.67,0,0,1,1.58,1.19,2,2,0,0,1-.69,2.15,3,3,0,0,1-1.05.48c-.12,0-.37,0-.31.26Zm1.58-3.18h-1.09a1.18,1.18,0,0,0-.35.11,1.09,1.09,0,0,0-.73,1.13.91.91,0,0,0,.77.92,4,4,0,0,0,2.63-.14,1.27,1.27,0,0,0,.53-.38.94.94,0,0,0-.53-1.6A5.07,5.07,0,0,0,195.61,214.82ZM194,210.44a1.46,1.46,0,1,0,1.44-1.49A1.28,1.28,0,0,0,194,210.44Z"></path>
  <path class="cls-3" d="M106.43,138.14a1.83,1.83,0,0,1,.56-.83,11,11,0,1,0-16.74,0c.76.89,1.41,1.85,2.1,2.8.9,1.23,1.8,2.47,2.65,3.75a17.69,17.69,0,0,1,2.87,8.39,25,25,0,0,1-4.45,16.26,2,2,0,0,1-.15.18c-.07-.06-.15-.09-.17-.15a44.44,44.44,0,0,0-6.9-11.44q-1.67-2.08-3.27-4.21a27.74,27.74,0,0,1-3.86-7,.71.71,0,0,0-.31-.46,25.76,25.76,0,0,1-10.06,4.84,22.76,22.76,0,0,1-4.08.63c-.09-.2,0-.31.09-.43A44.19,44.19,0,0,0,69,138.56a74.27,74.27,0,0,1,2-8.19c.3-.87.65-1.72,1-2.63a26.46,26.46,0,0,1-11.94-5.48c.13-.24.34-.23.51-.28A42.72,42.72,0,0,0,71,116.8c1.77-1.18,3.54-2.39,5.33-3.56a27.46,27.46,0,0,1,5.5-2.82c.13,0,.26-.12.47-.22A30,30,0,0,1,74.2,90.5c.26-.1.38,0,.52.13a51,51,0,0,0,13.42,5.55l6.25,1.7a1,1,0,0,0,.53.05c.08-.27-.1-.5-.18-.73a28.07,28.07,0,0,1-1.58-6,20.43,20.43,0,0,1,16.89-23,4.89,4.89,0,0,1,1.79-.15c0,.22-.12.33-.21.47a8.72,8.72,0,0,0-1.28,5.43A22.61,22.61,0,0,0,112.7,82c1.55,3.33,3.37,6.51,5.17,9.72,1.9,3.39,3.84,6.75,5.46,10.3a27.35,27.35,0,0,1,2.29,7.34,19.22,19.22,0,0,1-.55,8.23,31,31,0,0,1-18,20.42,1.16,1.16,0,0,1-.62.19Z"></path>
  <path class="cls-3" d="M98.66,139.94a9.84,9.84,0,1,1,9.83-9.83A9.81,9.81,0,0,1,98.66,139.94Z"></path>
  <path class="cls-2" d="M136.82,170.69h-4.67a5.07,5.07,0,0,0-1.44.17,2.07,2.07,0,0,0-1.44,1.41,3.75,3.75,0,0,0-.19,1.15,14.66,14.66,0,0,0,2.44,8.33,9.53,9.53,0,0,0,8,4.43,12.77,12.77,0,0,0,5-.66,1.58,1.58,0,0,1,.43-.1c.24,0,.51,0,.6.28a.63.63,0,0,1-.2.72,2,2,0,0,1-.73.33,21.27,21.27,0,0,1-7.79,1.22,15.77,15.77,0,0,1-5.61-1.09,11.57,11.57,0,0,1-6.92-7.52,20,20,0,0,1,.1-12.48,9.49,9.49,0,0,1,8-6.66,14.44,14.44,0,0,1,6.85.29,10.21,10.21,0,0,1,4.45,2.66,6.71,6.71,0,0,1,1.9,3.77,3.07,3.07,0,0,1-2.56,3.63,8.06,8.06,0,0,1-1.38.13c-1.63,0-3.26,0-4.89,0Zm-7.58-1.63c.12.05.16.08.21.08l8.74,0a4.23,4.23,0,0,0,1.21-.22,1.66,1.66,0,0,0,1.36-1.81,5.93,5.93,0,0,0-1.78-4.32,5.25,5.25,0,0,0-8.64,1.56A13.45,13.45,0,0,0,129.24,169.06Z"></path>
  <path class="cls-2" d="M177.43,183l3.3-8.57q2.58-6.69,5.15-13.39a4.93,4.93,0,0,1,.22-.53,1.1,1.1,0,0,1,1.48-.54,1,1,0,0,1,.47,1.35c-.64,1.73-1.31,3.44-2,5.16q-4.44,11.55-8.88,23.1a35.1,35.1,0,0,1-1.71,4.17,15.15,15.15,0,0,1-1.83,2.8,7.23,7.23,0,0,1-5.48,2.77c-1.16,0-2.33,0-3.5,0-.24,0-.41,0-.42-.35s.23-.31.44-.31c.51,0,1,0,1.53,0a5.72,5.72,0,0,0,3.31-1,9.36,9.36,0,0,0,3.77-4.77c.45-1.18.85-2.37,1.31-3.55a1.55,1.55,0,0,0,0-1.25q-2.81-6.87-5.6-13.75L165.14,165a10.64,10.64,0,0,0-.86-1.68A4.06,4.06,0,0,0,161,161.4c-.21,0-.43,0-.65,0-.46,0-.49-.06-.48-.5,0-.24.07-.37.33-.36h7.73c.84,0,.66-.12,1,.67q4.11,10.52,8.19,21Z"></path>
  <path class="cls-2" d="M158.09,165.66v15.67a11.94,11.94,0,0,0,.31,3,2.86,2.86,0,0,0,2.54,2.26,6.4,6.4,0,0,0,1.38.14c.2,0,.31,0,.31.29s-.09.3-.3.3h-5.61a3.22,3.22,0,0,1-3.41-2.6,13.28,13.28,0,0,1-.39-3.61q0-13,0-26a19.56,19.56,0,0,0-.17-3.42,6.17,6.17,0,0,0-.2-.85A2.7,2.7,0,0,0,150.3,149a6,6,0,0,0-1.59-.15c-.36,0-.37-.19-.38-.46s0-.44.39-.44c1.26,0,2.53,0,3.79,0h4.89c.78,0,.69,0,.69.72v17Z"></path>
  <path class="cls-2" d="M117,165.54v16a12,12,0,0,0,.25,2.61c.39,1.75,1.21,2.4,3.09,2.65.22,0,.44,0,.66,0s.52-.11.53.29-.35.28-.57.32h-4.89c-.31,0-.63,0-.94,0a3,3,0,0,1-2.68-1.94,7.76,7.76,0,0,1-.54-2.55c0-.68,0-1.36,0-2v-25.6a19.21,19.21,0,0,0-.24-3.63,2.88,2.88,0,0,0-2.91-2.64c-.36,0-.72-.09-1.09-.09s-.39-.17-.38-.45,0-.46.39-.46c.78,0,1.55,0,2.33,0h6.35c.75,0,.69-.06.69.72Z"></path>
  <path class="cls-2" d="M212.35,163.42c0,.6,0,1.21,0,1.82,0,.16,0,.35-.22.38s-.36-.09-.41-.31c0-.07,0-.14-.05-.21a4.59,4.59,0,0,0-3.7-3.5,7.56,7.56,0,0,0-3.75.09,4.16,4.16,0,0,0-3.09,3.88,3.24,3.24,0,0,0,.68,2.25,9.31,9.31,0,0,0,1.8,1.69,56.13,56.13,0,0,0,5.53,3.52,15.92,15.92,0,0,1,3,2.27,7.32,7.32,0,0,1,.57,9.42,7.68,7.68,0,0,1-3.86,2.62,13.49,13.49,0,0,1-9.6-.58,5.69,5.69,0,0,1-2.24-1.58.76.76,0,0,1,.15-1.24.77.77,0,0,1,.88.07,19,19,0,0,0,2.9,1.51,8.52,8.52,0,0,0,5.78.25,3.93,3.93,0,0,0,1.91-6.48,9.79,9.79,0,0,0-2.66-2.13c-1.42-.84-2.86-1.64-4.28-2.48a19.16,19.16,0,0,1-3-2.27,6.55,6.55,0,0,1-1.48-7.68,7.66,7.66,0,0,1,5.16-4.36,15.38,15.38,0,0,1,5.57-.37,11.15,11.15,0,0,1,3.93,1c.34.16.54.33.51.76S212.35,162.86,212.35,163.42Z"></path>
  <path class="cls-3" d="M137.52,134.27a3.74,3.74,0,0,1-1.15-.67,13,13,0,0,0-3.64-1.81,8.94,8.94,0,0,0-7.95,1.42,35.38,35.38,0,0,1-4.58,2.85A29.09,29.09,0,0,1,109.74,139,24.31,24.31,0,0,1,107,139a5.17,5.17,0,0,1,.58-.23,22.8,22.8,0,0,0,14.6-11.55,12,12,0,0,1,1.77-2.57,4.32,4.32,0,0,1,3.49-1.52,5.19,5.19,0,0,1,1.88.53,10,10,0,0,1,2.64,1.93,27.77,27.77,0,0,1,5.44,7.87A.93.93,0,0,1,137.52,134.27Z"></path>
  <path class="cls-3" d="M198.52,151.44a6.54,6.54,0,0,1-.54,2.41,20.65,20.65,0,0,1-3.91,5.67c-.42.44-.69.5-.94.3s-.26-.59,0-1.06c.42-.65.88-1.28,1.3-1.94a5.72,5.72,0,0,0,.8-1.78,2.55,2.55,0,0,0,0-.87,1,1,0,0,0-.71-.93c-.46-.15-.91-.33-1.37-.5a2.07,2.07,0,0,1-1.46-2.75,3,3,0,0,1,2.32-2.28,3.4,3.4,0,0,1,4.35,2.94C198.46,150.94,198.49,151.23,198.52,151.44Z"></path>
  <path class="cls-2" d="M146,210.28c.93,0,1.78,0,2.63,0,.31,0,.43.11.43.42,0,1.19,0,2.39,0,3.58a.41.41,0,0,1-.36.45,8,8,0,0,1-4.18.18,3.75,3.75,0,0,1-2.82-3.42,5.73,5.73,0,0,1,.17-2.6,3.93,3.93,0,0,1,3.07-2.8,6.34,6.34,0,0,1,3.45.21c.25.08.55.1.39.51s-.27.59-.69.45a6.25,6.25,0,0,0-2.15-.34,3.06,3.06,0,0,0-3.09,2.65,5.47,5.47,0,0,0,.1,2.38,2.81,2.81,0,0,0,2.49,2.14,8.62,8.62,0,0,0,2,0c.33,0,.52-.16.49-.56,0-.61,0-1.22,0-1.82,0-.33-.12-.43-.42-.41s-.73,0-1.1,0-.48-.12-.44-.46C146,210.66,146,210.51,146,210.28Z"></path>
  <path class="cls-2" d="M172,209.1a2.58,2.58,0,0,1,4,.11,2.68,2.68,0,0,1,2.51-1,1.87,1.87,0,0,1,1.86,1.79,2.19,2.19,0,0,1,0,.36c0,1.38,0,2.77,0,4.15,0,.44-.2.47-.53.46s-.57,0-.54-.44,0-1.22,0-1.82,0-1.36,0-2c0-1-.37-1.5-1.14-1.57a1.58,1.58,0,0,0-1.94,1.31,4.28,4.28,0,0,0-.11,1c0,1,0,2.09,0,3.13,0,.41-.18.43-.48.42s-.6.08-.57-.41c0-.65,0-1.31,0-2s0-1.31,0-2c0-1-.37-1.45-1.11-1.52a1.55,1.55,0,0,0-1.93,1.21,4.6,4.6,0,0,0-.14,1.23c0,.95,0,1.9,0,2.84,0,.58,0,.58-.54.57s-.5,0-.5-.53V208.8c0-.23-.08-.52.32-.52s.6,0,.61.4A2.64,2.64,0,0,0,172,209.1Z"></path>
  <path class="cls-2" d="M110,209.09a2.57,2.57,0,0,1,4.06.11,2.61,2.61,0,0,1,2.51-1,1.85,1.85,0,0,1,1.85,1.86c0,.63,0,1.26,0,1.89,0,.85,0,1.71,0,2.56,0,.27,0,.44-.38.44-.66,0-.66,0-.66-.67v-3.72c0-.92-.38-1.39-1.08-1.47a1.59,1.59,0,0,0-2,1.17,3.9,3.9,0,0,0-.13,1.08c0,1.07,0,2.14,0,3.2,0,.42-.21.42-.5.4s-.57.08-.56-.41c0-1.16,0-2.33,0-3.5v-.43c0-1-.37-1.44-1.12-1.51a1.56,1.56,0,0,0-1.93,1.22,6.47,6.47,0,0,0-.14,1.52c0,.88,0,1.75,0,2.63,0,.37-.08.51-.48.49s-.56,0-.56-.48c0-1.89,0-3.79,0-5.68,0-.24-.07-.51.32-.51s.6,0,.61.41A1.52,1.52,0,0,0,110,209.09Z"></path>
  <path class="cls-2" d="M203.4,210.5v-3.87c0-.18-.08-.44.13-.52a1.14,1.14,0,0,1,.85,0c.18.07.12.3.12.46,0,.93,0,1.85,0,2.77,0,.36.07.51.48.5,1.24,0,2.48,0,3.71,0,.32,0,.42-.1.42-.41,0-.93,0-1.85,0-2.77,0-.2-.12-.48.16-.57a1.51,1.51,0,0,1,.79,0c.11,0,.13.14.13.24s0,.24,0,.37v7.65c0,.18.09.45-.1.54a1.3,1.3,0,0,1-.85,0c-.22,0-.15-.28-.15-.43v-3c0-.73.07-.68-.65-.68h-2.7c-.38,0-.87-.16-1.12.07s-.11.78-.12,1.18c0,.83,0,1.65,0,2.48,0,.32-.12.41-.42.41-.67,0-.68,0-.68-.67Z"></path>
  <path class="cls-2" d="M221,214.18c-.26.77-.26.77-.94.72a.83.83,0,0,1-.06-.49v-8.3c0-.57.34-.8.87-.61.22.08.17.26.17.42,0,.88,0,1.75,0,2.62v.36c.19.12.27-.06.36-.14a2.42,2.42,0,0,1,1.47-.56,2.51,2.51,0,0,1,2.86,2.1,5.48,5.48,0,0,1,0,2.67,2.66,2.66,0,0,1-4.49,1.37Zm3.8-2.6a3.36,3.36,0,0,0-.3-1.63,1.6,1.6,0,0,0-1.76-.87,1.44,1.44,0,0,0-1.48,1,4.81,4.81,0,0,0,0,2.93,1.54,1.54,0,0,0,1.59,1.14,1.57,1.57,0,0,0,1.68-1A3.65,3.65,0,0,0,224.81,211.58Z"></path>
  <path class="cls-2" d="M96.16,209.35c0,.85,0,1.7,0,2.55A3,3,0,0,1,93,215.07a4.32,4.32,0,0,1-1,0,2.9,2.9,0,0,1-2.66-3c0-1.83,0-3.65,0-5.47,0-.17-.08-.43.19-.47a1.05,1.05,0,0,1,.78,0c.16.1.08.31.08.48,0,1.67,0,3.35,0,5s.8,2.67,2.77,2.47a1.93,1.93,0,0,0,1.9-2c0-1.09,0-2.19,0-3.28,0-.78,0-1.55,0-2.33,0-.47.25-.43.56-.44s.54,0,.53.46c0,1,0,1.89,0,2.84Z"></path>
  <path class="cls-2" d="M72.59,209.1a2.87,2.87,0,0,1,2.65-.88A1.87,1.87,0,0,1,77,209.85a3.52,3.52,0,0,1,.09.64c0,1.34,0,2.68,0,4,0,.47-.23.44-.54.45s-.55,0-.53-.45c0-.92,0-1.85,0-2.77v-.95c0-1.57-.82-1.92-2.28-1.62a1.56,1.56,0,0,0-1.17,1.58c0,.58,0,1.17,0,1.75s0,1.36,0,2c0,.32-.1.44-.42.42a5.14,5.14,0,0,0-.55,0,1,1,0,0,1-.09-.61v-8.16a1.61,1.61,0,0,1,0-.22c0-.46,0-.47.52-.46s.53,0,.53.45C72.59,206.93,72.59,207.92,72.59,209.1Z"></path>
  <path class="cls-2" d="M136.67,213.77c.18.86.15.91-.57,1.12a5.18,5.18,0,0,1-2,.17,2.83,2.83,0,0,1-2.54-2.27,4.6,4.6,0,0,1,.18-2.86,2.74,2.74,0,0,1,3.18-1.71,2.58,2.58,0,0,1,2.12,2.44c.13,1.18.13,1.18-1,1.18h-3c-.55,0-.56,0-.47.51a2,2,0,0,0,2.3,1.81A7.56,7.56,0,0,0,136.67,213.77Zm-.76-2.82c-.08-1.39-.62-1.94-1.76-1.88a1.64,1.64,0,0,0-1.54,1.88Z"></path>
  <path class="cls-2" d="M79.91,211.91a2,2,0,0,0,2.43,2.24,6.51,6.51,0,0,0,1.68-.39c.22.83.17.93-.58,1.14a5.1,5.1,0,0,1-2,.15,2.86,2.86,0,0,1-2.54-2.34,4.62,4.62,0,0,1,.13-2.58,2.69,2.69,0,0,1,3-1.94,2.53,2.53,0,0,1,2.39,2.32c.24,1.27.2,1.33-1,1.33H80.55A1.08,1.08,0,0,0,79.91,211.91Zm0-.93h3c.22,0,.29-.09.29-.3a1.51,1.51,0,0,0-1.51-1.61C80.65,209,80,209.72,79.94,211Z"></path>
  <path class="cls-2" d="M125.35,214.9c-.76,0-.76,0-1-.76-.17,0-.24.13-.34.23a2.69,2.69,0,0,1-2.78.57,1.63,1.63,0,0,1-1.23-1.47,1.79,1.79,0,0,1,.78-1.9,4,4,0,0,1,2-.57q.59,0,1.17,0c.24,0,.35-.11.35-.36,0-.89-.24-1.58-1.44-1.55a3.87,3.87,0,0,0-1.54.37c-.27.12-.36,0-.42-.2s-.31-.42.07-.6a4.42,4.42,0,0,1,3-.3,1.58,1.58,0,0,1,1.26,1.59c0,1,0,1.94,0,2.91Zm-1-2.64c-.06-.16.14-.51-.17-.52a4.37,4.37,0,0,0-2.54.4,1.13,1.13,0,0,0-.46,1.27,1,1,0,0,0,.93.79A1.84,1.84,0,0,0,124.3,212.26Z"></path>
  <path class="cls-2" d="M169.26,211.65c0,.27,0,.54,0,.81a2.89,2.89,0,0,1-2.91,2.62,2.92,2.92,0,0,1-3.08-2.52,5.24,5.24,0,0,1,0-1.81,2.83,2.83,0,0,1,3.08-2.57,2.89,2.89,0,0,1,2.93,2.68A7,7,0,0,1,169.26,211.65Zm-1.08,0a3.5,3.5,0,0,0-.19-1.37,1.72,1.72,0,0,0-1.86-1.21,1.63,1.63,0,0,0-1.73,1.26,4.32,4.32,0,0,0,0,2.59,1.73,1.73,0,0,0,1.82,1.28,1.79,1.79,0,0,0,1.79-1.34A3.31,3.31,0,0,0,168.18,211.66Z"></path>
  <path class="cls-2" d="M161.78,211.49a7.18,7.18,0,0,1-.09,1.13,3,3,0,0,1-4,2.31,2.82,2.82,0,0,1-1.9-2,4.81,4.81,0,0,1,0-2.66,2.74,2.74,0,0,1,2.63-2,2.81,2.81,0,0,1,3,1.71A3.82,3.82,0,0,1,161.78,211.49Zm-3-2.41a1.66,1.66,0,0,0-1.85,1.3,4.14,4.14,0,0,0,0,2.58,1.74,1.74,0,0,0,1.77,1.25,1.72,1.72,0,0,0,1.77-1.24,4.07,4.07,0,0,0,.05-2.58A1.69,1.69,0,0,0,158.75,209.08Z"></path>
  <path class="cls-2" d="M217.94,214.89c-.85.08-.85.08-1-.64-.11-.05-.17,0-.24.1a2.9,2.9,0,0,1-3.19.49,1.68,1.68,0,0,1-1.06-1.38,3.45,3.45,0,0,1-.08-.72c0-1.34,0-2.67,0-4,0-.44,0-.45.54-.45s.53,0,.53.45c0,.63,0,1.26,0,1.89s0,1.27,0,1.9c0,1.09.42,1.59,1.29,1.68a1.73,1.73,0,0,0,2.09-1.45,7.46,7.46,0,0,0,.11-1.15c0-.85,0-1.71,0-2.56s0-.76.51-.76.54,0,.54.73v5.88Z"></path>
  <path class="cls-2" d="M186.77,209a2.85,2.85,0,0,1,2.73-.8,1.85,1.85,0,0,1,1.64,1.52,3.63,3.63,0,0,1,.1.87v3.71c0,.62,0,.62-.64.61a.53.53,0,0,1-.4-.1v-4a1.62,1.62,0,0,0-2.52-1.56,1.7,1.7,0,0,0-.94,1.61c-.05.77,0,1.55,0,2.33,0,.41,0,.82,0,1.24s0,.51-.53.51-.52,0-.52-.51c0-1.84,0-3.69,0-5.54,0-.22-.17-.56.28-.61s.53,0,.65.54C186.61,208.88,186.6,209,186.77,209Z"></path>
  <path class="cls-2" d="M67.59,211.07v3.14c0,.73,0,.73-.53.73-.68,0-.55,0-.55-.7,0-2.09,0-4.18,0-6.27a3.23,3.23,0,0,1,0-.44c0-.36-.07-.52-.47-.5-.63,0-1.27,0-1.9,0-.39,0-.44-.18-.43-.49s0-.51.41-.51c1.95,0,3.89,0,5.84,0,.37,0,.45.15.44.48s0,.5-.48.51c-.63,0-1.26,0-1.89,0-.37,0-.45.13-.45.47C67.6,208.69,67.59,209.88,67.59,211.07Z"></path>
  <path class="cls-2" d="M102.57,206.84c0,.33,0,.67,0,1s.09.45.41.43.68,0,1,0,.52,0,.53.4-.18.44-.49.43-.78,0-1.17,0c-.22,0-.29.1-.29.31,0,1.23,0,2.47,0,3.71,0,.79.45,1.12,1.24,1.09l.64-.06c.24.81,0,.8-.57.9a2.43,2.43,0,0,1-1.22-.09,1.52,1.52,0,0,1-1-1,3.47,3.47,0,0,1-.14-1q0-1.53,0-3.06a1.42,1.42,0,0,0-.08-.75c-.15,0-.32,0-.48,0s-.32.06-.35-.16-.06-.37.16-.42c.76-.16.93-.74,1.08-1.38C101.93,206.75,102,206.76,102.57,206.84Z"></path>
  <path class="cls-2" d="M127.47,211.4v-1.75c0-.51,0-.51-.49-.55-.17,0-.41.1-.47-.19s.13-.42.35-.46c.67-.13.73-.69.89-1.19.06-.22,0-.5.4-.5s.38,0,.36.31,0,.58,0,.87.1.34.34.34h1.24c.32,0,.34.19.34.43s0,.41-.35.4-.83,0-1.24,0c-.26,0-.33.1-.33.35,0,1.21,0,2.42,0,3.64a1,1,0,0,0,1.2,1.12l.29,0c.17,0,.39-.19.47.14s0,.57-.35.66a2.56,2.56,0,0,1-1.64-.07,1.6,1.6,0,0,1-1-1.56c0-.65,0-1.31,0-2Z"></path>
  <path class="cls-2" d="M99.31,214.89c-1,.11-1,.11-1-.86v-7.65c0-.12,0-.25,0-.37,0-.52,0-.52.53-.52s.51,0,.51.45v8.75A.65.65,0,0,1,99.31,214.89Z"></path>
  <path class="cls-2" d="M152,209.28c1.3-1.16,1.53-1.24,2.74-1a1,1,0,0,1,0,.57c0,.27-.16.35-.45.29a2,2,0,0,0-2.28,2.07c0,.94,0,1.89,0,2.84v.29c0,.56-.32.77-.87.6-.2-.07-.16-.22-.16-.35,0-.47,0-.93,0-1.39,0-1.46,0-2.92,0-4.38,0-.59.12-.54.59-.54.2,0,.29.11.31.32S151.81,209.08,152,209.28Z"></path>
  <path class="cls-2" d="M222.34,154.91a2.92,2.92,0,0,1-5.83-.06,3,3,0,0,1,3-2.89A2.92,2.92,0,0,1,222.34,154.91Zm-.42,0a2.51,2.51,0,0,0-2.47-2.53,2.55,2.55,0,0,0-2.52,2.49,2.51,2.51,0,0,0,2.52,2.55A2.48,2.48,0,0,0,221.92,154.88Z"></path>
  <path class="cls-2" d="M105.85,214.91V212c0-1.07,0-2.14,0-3.21,0-.49,0-.49.49-.49s.55,0,.55.5q0,2.78,0,5.55c0,.62,0,.62-.64.61Z"></path>
  <path class="cls-2" d="M182.51,211.61c0-.93,0-1.85,0-2.77,0-.56,0-.56.5-.56s.53,0,.54.51c0,1.9,0,3.79,0,5.69,0,.16.08.4-.13.44a1.16,1.16,0,0,1-.84-.06c-.13-.08-.06-.27-.06-.41Z"></path>
  <path class="cls-2" d="M183.65,206.48a.63.63,0,0,1-.56.71c-.38,0-.65-.25-.65-.68s.22-.67.59-.67A.6.6,0,0,1,183.65,206.48Z"></path>
  <path class="cls-2" d="M107,206.54a.61.61,0,0,1-.61.66.65.65,0,0,1-.6-.75.6.6,0,0,1,.65-.61A.59.59,0,0,1,107,206.54Z"></path>
  <path class="cls-3" d="M106.49,138.21a.57.57,0,0,0-.08.08c-.09-.06,0-.11,0-.15Z"></path>
  <path class="cls-2" d="M220.49,156.24c-.54.15-.57-.28-.75-.49s-.22-.48-.57-.48-.47,0-.46.38c0,.21.16.61-.16.6s-.19-.41-.2-.63c0-.61,0-1.21,0-1.82,0-.24.07-.36.33-.35s.63,0,.94,0a.88.88,0,0,1,.62,1.45c-.29.33-.28.54,0,.84C220.3,155.89,220.37,156.05,220.49,156.24Zm-1.77-1.91c0,.62,0,.62.48.62s.81-.15.82-.56-.21-.58-.72-.59S218.73,153.79,218.72,154.33Z"></path>
</svg>
