<?xml version="1.0" encoding="UTF-8"?>
<svg xmlns="http://www.w3.org/2000/svg" xmlns:xlink="http://www.w3.org/1999/xlink" width="376px" height="502px" viewBox="0 0 376 502" version="1.1">
  <title> Personalised product development</title>
  <g id="Page-4" stroke="none" stroke-width="1" fill="none" fill-rule="evenodd">
    <g id="-Personalised-product-development" transform="translate(5.930000, 6.000000)" stroke="#1F1646" stroke-width="11.54">
      <polyline id="Path" points="364.14 443.53 364.14 490 0 490 0 0 364.14 0 364.14 196.79"></polyline>
      <polyline id="Path" points="162.6 0 162.6 169.41 106.34 115.29 49.81 169.41 49.81 0"></polyline>
      <line x1="0" y1="96.87" x2="49.81" y2="96.87" id="Path"></line>
      <line x1="162.6" y1="96.87" x2="364.14" y2="96.87" id="Path"></line>
      <g id="Group" transform="translate(169.960000, 239.340000)">
        <rect id="Rectangle" x="0" y="0" width="30.65" height="30.65"></rect>
        <line x1="54.76" y1="13.19" x2="194.18" y2="13.19" id="Path"></line>
        <rect id="Rectangle" x="0" y="65.49" width="30.65" height="30.65"></rect>
        <line x1="54.76" y1="78.68" x2="194.18" y2="78.68" id="Path"></line>
        <rect id="Rectangle" x="0" y="130.99" width="30.65" height="30.65"></rect>
        <line x1="54.76" y1="144.18" x2="160.74" y2="144.18" id="Path"></line>
      </g>
    </g>
  </g>
</svg>
