<?xml version="1.0" encoding="UTF-8"?>
<svg xmlns="http://www.w3.org/2000/svg" xmlns:xlink="http://www.w3.org/1999/xlink" id="Layer_1" data-name="Layer 1" viewBox="0 0 286 286">
  <defs>
    <style>.cls-1{fill:none;}.cls-2{fill:#fff;}.cls-3{fill:#0083ca;}.cls-4{clip-path:url(#clip-path);}.cls-5{fill:url(#linear-gradient);}.cls-6{clip-path:url(#clip-path-2);}.cls-7{fill:url(#linear-gradient-2);}.cls-8{clip-path:url(#clip-path-3);}.cls-9{fill:url(#linear-gradient-3);}</style>
    <clipPath id="clip-path">
      <path class="cls-1" d="M242,159l-5.2.13-6.25.12-12.5.23c-8.33.12-16.67.24-25,.31s-16.67.12-25,.17L143,160l-25,0c-8.33-.06-16.67-.07-25-.17l-12.5-.13L68,159.48l-12.5-.24-6.25-.12-5.2-.13a1,1,0,1,0,0,2l5.2-.13,6.25-.12,12.5-.24,12.5-.18,12.5-.13c8.33-.1,16.67-.11,25-.17l25,0,25,.06c8.33,0,16.67.08,25,.17s16.67.19,25,.31l12.5.23,6.25.12,5.2.13a1,1,0,0,0,1.05-1h0a1,1,0,0,0-1-1h0"></path>
    </clipPath>
    <linearGradient id="linear-gradient" x1="2157.68" y1="-542.97" x2="2157.98" y2="-542.97" gradientTransform="matrix(675, 0, 0, -675, -1456390.68, -366347.81)" gradientUnits="userSpaceOnUse">
      <stop offset="0" stop-color="#00aeef"></stop>
      <stop offset="1" stop-color="#00aeef"></stop>
    </linearGradient>
    <clipPath id="clip-path-2">
      <path class="cls-1" d="M109.52,90.16a5.61,5.61,0,0,0,0,.58.55.55,0,0,0,.26.47c.31.18.63.35.94.54a7.33,7.33,0,0,1,2.1,1.86A8.48,8.48,0,0,1,114.21,97a22.23,22.23,0,0,1,.3,2.57c.1,1.16.11,2.32.18,3.49.09,1.49.1,3,.18,4.49.11,2.14.07,4.28.18,6.43,0,1.16,0,2.32.06,3.49,0,2,0,4,0,6q0,7.53,0,15c0,2.05,0,4.11,0,6.17a7.38,7.38,0,0,1-.39,2.28,9.09,9.09,0,0,1-1.16,2.36,11.82,11.82,0,0,1-3.8,3.58c-.29.16-.5.36-.43.73a2.26,2.26,0,0,1,0,.45c0,.2.06.28.29.25.67-.09,1.35-.11,2-.18,1-.09,2-.11,2.93-.18,1.32-.09,2.64-.08,4-.11,1.51,0,3,0,4.55.05.74,0,1.48.08,2.22.13l2.74.16,3.14.21c1.08.06,2.16.07,3.23.15.71,0,1.43,0,2.14,0,1.12,0,2.24-.08,3.36-.14.89-.05,1.77-.18,2.66-.25.52,0,1-.16,1.54-.23.77-.1,1.53-.27,2.29-.42s1.23-.26,1.83-.42,1.47-.41,2.21-.64c.57-.17,1.14-.35,1.7-.56.81-.32,1.62-.64,2.42-1s1.62-.77,2.42-1.17c1-.53,2-1.14,3-1.77a33.68,33.68,0,0,0,2.82-2.09,31,31,0,0,0,3.53-3.35,32.09,32.09,0,0,0,2.36-3c.57-.78,1.09-1.6,1.59-2.43.59-1,1.13-2,1.62-3.07.35-.77.68-1.55,1-2.34s.56-1.55.8-2.35c.3-1,.55-2.07.77-3.12s.34-1.85.44-2.77a20.21,20.21,0,0,0,.2-3.54,26.92,26.92,0,0,0-.08-2.8c-.1-1-.22-2.1-.42-3.14-.16-.83-.37-1.64-.6-2.44a23.39,23.39,0,0,0-1-2.65,27.84,27.84,0,0,0-1.35-2.74,26,26,0,0,0-1.67-2.59,29.41,29.41,0,0,0-2.9-3.4A31.7,31.7,0,0,0,163.32,97a30.09,30.09,0,0,0-2.71-1.78A28.25,28.25,0,0,0,158,93.87c-.54-.25-1.08-.52-1.63-.74s-1.14-.45-1.72-.65-1.18-.4-1.78-.58c-.76-.22-1.53-.42-2.29-.63-.06,0-.13,0-.17,0s0,.1,0,.14a.87.87,0,0,0,.12.14,22.6,22.6,0,0,1,3.7,3.55,18,18,0,0,1,2.34,3.5,13.16,13.16,0,0,1,.79,1.75c.16.52.37,1,.57,1.53a22.12,22.12,0,0,0,1.58,2.59c.47.81.91,1.63,1.31,2.47a28.9,28.9,0,0,1,1.15,2.83c.31.87.57,1.76.82,2.65.14.54.24,1.1.38,1.65.19.76.31,1.53.44,2.3.15.93.28,1.87.34,2.81a38.19,38.19,0,0,1,0,5.13c-.05.92-.17,1.84-.3,2.76a31.55,31.55,0,0,1-.77,3.75,30.39,30.39,0,0,1-1.16,3.45,33.29,33.29,0,0,1-1.58,3.3,25.71,25.71,0,0,1-3.1,4.43,25.1,25.1,0,0,1-3.58,3.33A20.89,20.89,0,0,1,151,147a23.23,23.23,0,0,1-2.71,1.29,20.07,20.07,0,0,1-2,.7c-.63.17-1.28.29-1.94.41a19.39,19.39,0,0,1-2.63.28c-2.06.06-4.12.06-6.19-.07-1.51-.1-3-.19-4.5-.41a16.11,16.11,0,0,1-3.63-.92,1.42,1.42,0,0,1-1-1,19.06,19.06,0,0,1-.49-3.19c-.06-.75-.06-1.51-.13-2.26-.09-.94-.08-1.87-.11-2.8,0-1.09-.06-2.17-.11-3.25-.09-1.51-.13-3-.16-4.52,0-2.84,0-5.69,0-8.53,0-5.94-.07-11.88.09-17.82,0-1.63.09-3.26.2-4.89.07-1.14.2-2.28.16-3.43,0-.19,0-.39,0-.58a.49.49,0,0,1,.31-.46,3.18,3.18,0,0,1,1.08-.31c1.17-.13,2.34-.23,3.51-.33s2.15-.07,3.22-.12,2.08-.09,3.13-.06a3.54,3.54,0,0,1,1,.18,7.63,7.63,0,0,1,1.74.92,10,10,0,0,1,2.33,2.25,14.19,14.19,0,0,1,2.14,4.21,13.15,13.15,0,0,1,.63,3.26,23.49,23.49,0,0,1-.27,5.36,14.73,14.73,0,0,1-1.12,3.73,8.31,8.31,0,0,1-4.61,4.41,13.86,13.86,0,0,1-3,.83c-1,.18-2.11.25-3.16.37a1,1,0,0,0-.9,1.22,4.31,4.31,0,0,0,.53,1.34,21.59,21.59,0,0,0,1.33,1.81c1.11,1.45,2.13,3,3.17,4.46s2,2.8,2.94,4.19c1.32,1.89,2.62,3.78,3.95,5.65s2.61,3.67,4,5.45a24.53,24.53,0,0,0,1.76,2c.12.13.25.21.42.09l1.61-1.11a38.13,38.13,0,0,0,3-2.4c.69-.6,1.32-1.25,2-1.9.26-.26.26-.34,0-.62s-.64-.82-.95-1.24c-1.26-1.67-2.45-3.38-3.62-5.11-.73-1.08-1.45-2.16-2.14-3.27-.56-.88-1.16-1.74-1.72-2.62-1-1.63-2.12-3.25-3.18-4.86-.18-.28-.17-.34.16-.45a13.29,13.29,0,0,0,3-1.48,17.52,17.52,0,0,0,4.79-4.65,18.58,18.58,0,0,0,2-3.54,15.5,15.5,0,0,0,1-3.26,17.41,17.41,0,0,0,.23-3.82,16.36,16.36,0,0,0-.94-4.75,14.69,14.69,0,0,0-1.43-3,15.86,15.86,0,0,0-3.9-4.34,17.76,17.76,0,0,0-2.95-1.8,20.77,20.77,0,0,0-2.33-1c-.69-.24-1.41-.42-2.13-.6a29.14,29.14,0,0,0-3.46-.61,34.7,34.7,0,0,0-4.2-.27c-2.24,0-4.48,0-6.72.17-.94.08-1.88.1-2.82.17-1.17.09-2.35.12-3.52.13-.89,0-1.78,0-2.67,0-1.6,0-3.19-.07-4.79-.17-1.43-.09-2.87-.2-4.3-.32h-.06a.25.25,0,0,0-.28.29"></path>
    </clipPath>
    <linearGradient id="linear-gradient-2" x1="2156.57" y1="-530.43" x2="2156.87" y2="-530.43" gradientTransform="matrix(0, -218.55, -218.55, 0, -115781.04, 471467.94)" gradientUnits="userSpaceOnUse">
      <stop offset="0" stop-color="#00aeef"></stop>
      <stop offset="1" stop-color="#003469"></stop>
    </linearGradient>
    <clipPath id="clip-path-3">
      <path class="cls-1" d="M163,148.05c-.65.48-1.33.93-2,1.35s-1.4.87-2.12,1.27-1.46.82-2.2,1.19c-.07,0-.12.07-.13.15a.15.15,0,0,0,.1.15c.16,0,.25.16.39.21.86.37,1.69.79,2.57,1.11a25.26,25.26,0,0,0,3.29,1,23.62,23.62,0,0,0,4.6.48c.26,0,.53,0,.79,0A20.78,20.78,0,0,0,173,154a13,13,0,0,0,2.65-1.08,2.36,2.36,0,0,0,1-.82.44.44,0,0,0-.09-.65,2.36,2.36,0,0,0-.95-.44,6.27,6.27,0,0,0-2.76-.08,10.84,10.84,0,0,1-2.35.13,9.54,9.54,0,0,1-3.47-.91,15.23,15.23,0,0,1-3.25-2,.61.61,0,0,0-.37-.14.51.51,0,0,0-.31.11"></path>
    </clipPath>
    <linearGradient id="linear-gradient-3" x1="2120.45" y1="-435.71" x2="2120.75" y2="-435.71" gradientTransform="matrix(0, -23.57, -23.57, 0, -10103.61, 50136.4)" xlink:href="#linear-gradient-2"></linearGradient>
  </defs>
  <title>Royal derma-zymo</title>
  <rect class="cls-2" width="286" height="286"></rect>
  <path class="cls-3" d="M52.33,184.9a2.66,2.66,0,0,0,.54,2,4.92,4.92,0,0,0,2.5.63v1.58H44v-1.58a3.83,3.83,0,0,0,2.18-.63,2.82,2.82,0,0,0,.5-2V170.56a2.85,2.85,0,0,0-.5-2,3.93,3.93,0,0,0-2.18-.62v-1.59H55.46c3.42,0,6,.46,7.6,1.37A4.52,4.52,0,0,1,65.52,172a4.11,4.11,0,0,1-1.8,3.52,11.74,11.74,0,0,1-5.46,1.72A9.47,9.47,0,0,1,62,178.76a4.68,4.68,0,0,1,1.77,2.6,18.54,18.54,0,0,1,.5,3.17q.08.76.12,1.08a2.87,2.87,0,0,0,.36,1.12.8.8,0,0,0,.67.29,1.18,1.18,0,0,0,1.07-.77,5.08,5.08,0,0,0,.38-2.2h1.46a2.13,2.13,0,0,1,0,.27c0,.11,0,.26,0,.46a5,5,0,0,1-1.21,3.61,4.53,4.53,0,0,1-3.44,1.27,6,6,0,0,1-2.28-.39,3.65,3.65,0,0,1-1.56-1.14c-.58-.74-.94-2.17-1.07-4.28,0-.17,0-.31,0-.41-.14-2.26-.61-3.76-1.4-4.49a3.58,3.58,0,0,0-1.46-.77,8,8,0,0,0-2.2-.26H52.33Zm0-14.4v5.87h1.73a7.5,7.5,0,0,0,4.34-1,3.69,3.69,0,0,0,1.31-3.18,4.51,4.51,0,0,0-1.11-3.28,4.34,4.34,0,0,0-3.23-1.12,4,4,0,0,0-2.46.52,2.94,2.94,0,0,0-.58,2.16"></path>
  <path class="cls-3" d="M76.55,189.61a8,8,0,0,1-3-.55,7.48,7.48,0,0,1-2.45-1.62,8.08,8.08,0,0,1-1.89-2.85A9.75,9.75,0,0,1,68.6,181a8.87,8.87,0,0,1,2.22-6.25,8,8,0,0,1,11.46,0A8.83,8.83,0,0,1,84.51,181a9.54,9.54,0,0,1-.66,3.58,8.05,8.05,0,0,1-1.9,2.86,7.34,7.34,0,0,1-2.46,1.63,7.84,7.84,0,0,1-2.94.54m0-1.47a2,2,0,0,0,2-1.48,18.87,18.87,0,0,0,.56-5.66,19.05,19.05,0,0,0-.56-5.7,2,2,0,0,0-3.94,0A19.15,19.15,0,0,0,74,181a19,19,0,0,0,.55,5.66,2,2,0,0,0,2,1.48"></path>
  <path class="cls-3" d="M93.1,189,87.35,176.9a7,7,0,0,0-1.27-2,2.17,2.17,0,0,0-1.39-.64l-.06-1.46h9l0,1.46a3.64,3.64,0,0,0-1.28.21.6.6,0,0,0-.39.57,1.28,1.28,0,0,0,0,.38,2.45,2.45,0,0,0,.16.45l3.25,7.38L98,176.47c.06-.16.11-.32.15-.47a2.28,2.28,0,0,0,0-.44,1,1,0,0,0-.46-.89,3.53,3.53,0,0,0-1.54-.36l0-1.46h6.08l0,1.46a2.61,2.61,0,0,0-1.43.66,4.62,4.62,0,0,0-1,1.68l-5.22,13a15.41,15.41,0,0,1-2.93,5,4.83,4.83,0,0,1-3.54,1.53,3.72,3.72,0,0,1-2.46-.77,2.6,2.6,0,0,1-.91-2.08,2.42,2.42,0,0,1,.62-1.72,2.1,2.1,0,0,1,1.6-.64,2.13,2.13,0,0,1,1.5.51,1.79,1.79,0,0,1,.57,1.39,2.45,2.45,0,0,1-.21,1l-.2.5c0,.07,0,.11.11.14a1.06,1.06,0,0,0,.36.05c.6,0,1.25-.49,2-1.45a16.9,16.9,0,0,0,2-4"></path>
  <path class="cls-3" d="M112.46,187a11,11,0,0,1-2.78,1.95,6.34,6.34,0,0,1-2.78.67,4.37,4.37,0,0,1-3.15-1.18,3.93,3.93,0,0,1-1.23-3,4.46,4.46,0,0,1,2.37-4,17.17,17.17,0,0,1,7.25-1.81V177.4a4.73,4.73,0,0,0-.65-2.9,2.85,2.85,0,0,0-2.28-.79,3.24,3.24,0,0,0-1.25.23c-.35.14-.53.3-.53.46a.66.66,0,0,0,.09.18l.06.11.44.68a1.84,1.84,0,0,1,.23.53,2.72,2.72,0,0,1,.08.63,1.93,1.93,0,0,1-.69,1.52,2.94,2.94,0,0,1-3.61,0,2.15,2.15,0,0,1-.7-1.67,3.31,3.31,0,0,1,1.84-2.87,9.1,9.1,0,0,1,4.79-1.13q3.57,0,5.26,1.5a5.89,5.89,0,0,1,1.7,4.66v7.86a1,1,0,0,0,.15.63.54.54,0,0,0,.47.21,1.73,1.73,0,0,0,.6-.17,1.83,1.83,0,0,1,.53-.17.47.47,0,0,1,.33.16.56.56,0,0,1,.14.36c0,.45-.37.91-1.13,1.37a4.45,4.45,0,0,1-2.41.7,3,3,0,0,1-1.93-.59,4,4,0,0,1-1.21-1.87m-.32-6a7.63,7.63,0,0,0-3.61,1.27,2.9,2.9,0,0,0-1.19,2.43,2.23,2.23,0,0,0,.58,1.63,2.11,2.11,0,0,0,1.6.59,2.21,2.21,0,0,0,2-1.07,6.67,6.67,0,0,0,.65-3.33v-.56q0-.31-.06-1"></path>
  <path class="cls-3" d="M122,169.19a2.19,2.19,0,0,0-.38-1.49,2,2,0,0,0-1.41-.42v-1.41c1,0,2-.12,3.11-.25s2.28-.29,3.57-.51v20.37a2.67,2.67,0,0,0,.35,1.61,2,2,0,0,0,1.32.58v1.43h-8.19v-1.43a2.05,2.05,0,0,0,1.3-.56,2.81,2.81,0,0,0,.33-1.63Z"></path>
  <path class="cls-3" d="M138.75,189.1v-1.58a4,4,0,0,0,2.19-.64,2.83,2.83,0,0,0,.5-2V170.56a2.79,2.79,0,0,0-.5-2,3.94,3.94,0,0,0-2.19-.64v-1.59h10.92q6.26,0,9.56,2.92t3.31,8.44c0,3.68-1.1,6.51-3.31,8.46s-5.39,2.93-9.56,2.93Zm8.33-18.54v14.29c0,1.14.19,1.87.58,2.19a3.89,3.89,0,0,0,2.33.48q3.51,0,4.94-2.16c1-1.43,1.44-4,1.44-7.65s-.48-6.2-1.44-7.63-2.6-2.14-4.94-2.14a3.89,3.89,0,0,0-2.33.48c-.39.32-.58,1-.58,2.14"></path>
  <path class="cls-3" d="M180.12,180.71h-9.83c0,.14,0,.3,0,.46s0,.41,0,.73a9.25,9.25,0,0,0,.85,4.53,2.87,2.87,0,0,0,2.67,1.45,4.22,4.22,0,0,0,2.62-.93,7.69,7.69,0,0,0,2.11-2.68l1.46.52a7.44,7.44,0,0,1-2.79,3.61,8.67,8.67,0,0,1-7.46.66,7.79,7.79,0,0,1-2.44-1.57,8.23,8.23,0,0,1-1.9-2.87,9.71,9.71,0,0,1-.66-3.62,8.87,8.87,0,0,1,2.22-6.25,7.46,7.46,0,0,1,5.73-2.41,7,7,0,0,1,5.4,2.23,8.38,8.38,0,0,1,2.05,5.92Zm-9.86-1.43H175V179a10.66,10.66,0,0,0-.54-4,1.84,1.84,0,0,0-1.81-1.19,1.8,1.8,0,0,0-1.76,1.18,12.72,12.72,0,0,0-.6,4.32"></path>
  <path class="cls-3" d="M182.17,189.1v-1.43a2.05,2.05,0,0,0,1.3-.56,2.81,2.81,0,0,0,.33-1.63v-9.3a2.29,2.29,0,0,0-.33-1.51,2.18,2.18,0,0,0-1.41-.36v-1.46l3.3-.23c1-.08,2-.18,2.88-.28v3.78a7.17,7.17,0,0,1,1.95-2.65,4,4,0,0,1,2.55-.87,3.31,3.31,0,0,1,2.35.85,2.76,2.76,0,0,1,.92,2.14,2.4,2.4,0,0,1-.69,1.79,2.48,2.48,0,0,1-1.81.68,2.2,2.2,0,0,1-1.47-.5,1.54,1.54,0,0,1-.58-1.22,1.15,1.15,0,0,1,0-.18,2.25,2.25,0,0,1,.05-.22l.15-.66a.3.3,0,0,0,0-.1.71.71,0,0,0,0-.16.42.42,0,0,0-.14-.33.57.57,0,0,0-.39-.12c-.62,0-1.2.6-1.74,1.81a11.24,11.24,0,0,0-.8,4.51v4.59a2.78,2.78,0,0,0,.39,1.7,1.51,1.51,0,0,0,1.28.49h.77v1.43Z"></path>
  <path class="cls-3" d="M207,189.1v-1.43a2,2,0,0,0,1.32-.53,2.81,2.81,0,0,0,.35-1.66v-7a5.93,5.93,0,0,0-.38-2.56,1.39,1.39,0,0,0-1.32-.69,2.43,2.43,0,0,0-2.17,1.38,7.64,7.64,0,0,0-.8,3.8v5.08a2.81,2.81,0,0,0,.35,1.66,1.93,1.93,0,0,0,1.31.53v1.43h-8.13v-1.43a2.08,2.08,0,0,0,1.31-.56,2.81,2.81,0,0,0,.33-1.63v-9.3a2.26,2.26,0,0,0-.35-1.48,2.07,2.07,0,0,0-1.39-.39v-1.46l3.29-.23c1-.08,2-.18,2.88-.28v3.72a9.07,9.07,0,0,1,2.63-2.59,5.61,5.61,0,0,1,3-.87,4,4,0,0,1,2.6.82,4.33,4.33,0,0,1,1.38,2.43,9.11,9.11,0,0,1,2.6-2.45,5.65,5.65,0,0,1,2.89-.8,3.59,3.59,0,0,1,3.27,1.58c.68,1,1,2.79,1,5.22v6.08a2.81,2.81,0,0,0,.33,1.63,2,2,0,0,0,1.29.56v1.43h-8.09v-1.43a1.92,1.92,0,0,0,1.29-.53,2.88,2.88,0,0,0,.33-1.66v-7a6,6,0,0,0-.37-2.56,1.37,1.37,0,0,0-1.31-.69,2.4,2.4,0,0,0-2.15,1.37,7.67,7.67,0,0,0-.79,3.81v5.08a2.82,2.82,0,0,0,.34,1.67,1.84,1.84,0,0,0,1.28.52v1.43Z"></path>
  <path class="cls-3" d="M236.15,187a11,11,0,0,1-2.78,1.95,6.34,6.34,0,0,1-2.78.67,4.38,4.38,0,0,1-3.15-1.18,3.93,3.93,0,0,1-1.23-3,4.46,4.46,0,0,1,2.37-4,17.17,17.17,0,0,1,7.25-1.81V177.4a4.73,4.73,0,0,0-.65-2.9,2.85,2.85,0,0,0-2.28-.79,3.24,3.24,0,0,0-1.25.23c-.35.14-.53.3-.53.46a.66.66,0,0,0,.09.18l.06.11.44.68a1.84,1.84,0,0,1,.23.53,2.72,2.72,0,0,1,.08.63,1.93,1.93,0,0,1-.69,1.52,2.94,2.94,0,0,1-3.61,0,2.15,2.15,0,0,1-.7-1.67,3.31,3.31,0,0,1,1.84-2.87,9.1,9.1,0,0,1,4.79-1.13q3.57,0,5.26,1.5a5.89,5.89,0,0,1,1.7,4.66v7.86a1,1,0,0,0,.15.63.54.54,0,0,0,.47.21,1.73,1.73,0,0,0,.6-.17,1.83,1.83,0,0,1,.53-.17.47.47,0,0,1,.33.16.56.56,0,0,1,.14.36c0,.45-.37.91-1.13,1.37a4.45,4.45,0,0,1-2.41.7,3,3,0,0,1-1.93-.59,4,4,0,0,1-1.21-1.87m-.32-6a7.63,7.63,0,0,0-3.61,1.27,2.9,2.9,0,0,0-1.19,2.43,2.23,2.23,0,0,0,.58,1.63,2.11,2.11,0,0,0,1.6.59,2.21,2.21,0,0,0,2-1.07,6.67,6.67,0,0,0,.65-3.33v-.56q0-.31-.06-1"></path>
  <g class="cls-4">
    <rect class="cls-5" x="43" y="158.98" width="200" height="2.08"></rect>
  </g>
  <g class="cls-6">
    <rect class="cls-7" x="109.25" y="89.87" width="65.93" height="64.77"></rect>
  </g>
  <g class="cls-8">
    <rect class="cls-9" x="156.57" y="147.94" width="20.17" height="6.99"></rect>
  </g>
</svg>
