<?xml version="1.0" encoding="UTF-8"?>
<svg xmlns="http://www.w3.org/2000/svg" xmlns:xlink="http://www.w3.org/1999/xlink" id="Layer_1" data-name="Layer 1" viewBox="0 0 200 200">
  <defs>
    <style>.cls-1{fill:#fff;}.cls-2{clip-path:url(#clip-path);}.cls-3{clip-path:url(#clip-path-2);}.cls-4{clip-path:url(#clip-path-3);}</style>
    <clipPath id="clip-path">
      <path class="cls-1" d="M188.47,114.3l-4.65.11-5.59.11-11.17.21q-11.19.17-22.36.27c-7.45.08-14.9.11-22.35.16l-22.35,0-22.35,0c-7.45-.06-14.9-.07-22.35-.16l-11.18-.12-11.18-.15-11.17-.22-5.59-.1-4.65-.12a.92.92,0,1,0,0,1.83l4.65-.12,5.59-.11,11.17-.21,11.18-.16,11.18-.12c7.45-.08,14.9-.1,22.35-.15l22.35,0,22.35,0c7.45,0,14.9.07,22.35.16s14.9.16,22.36.27l11.17.21,5.59.1,4.65.12a.92.92,0,0,0,.94-.92h0a.91.91,0,0,0-.92-.91h0"></path>
    </clipPath>
    <clipPath id="clip-path-2">
      <path class="cls-1" d="M70.06,52.76v.52a.49.49,0,0,0,.24.41l.84.49A6.63,6.63,0,0,1,73,55.84a7.59,7.59,0,0,1,1.24,3.06,19.76,19.76,0,0,1,.27,2.3c.09,1,.1,2.08.16,3.11.08,1.34.08,2.68.16,4,.1,1.91.06,3.83.16,5.75,0,1,0,2.08.06,3.12,0,1.78,0,3.57,0,5.35q0,6.72,0,13.45c0,1.84,0,3.68,0,5.52a6.76,6.76,0,0,1-.34,2,8.29,8.29,0,0,1-1,2.11,10.51,10.51,0,0,1-3.4,3.2c-.26.15-.44.32-.38.65a2.67,2.67,0,0,1,0,.4c0,.18.06.25.25.23.61-.08,1.21-.1,1.82-.16.87-.08,1.75-.1,2.62-.16,1.18-.09,2.36-.08,3.55-.11,1.36,0,2.71,0,4.07,0,.66,0,1.32.08,2,.12l2.46.14c.93.06,1.87.14,2.81.19s1.92.06,2.88.13c.64,0,1.28,0,1.91,0,1,0,2-.07,3-.12.8,0,1.59-.16,2.39-.22.46,0,.91-.15,1.38-.21.68-.09,1.36-.24,2-.37s1.1-.23,1.64-.38,1.31-.37,2-.57,1-.31,1.52-.5c.72-.29,1.45-.57,2.16-.88s1.45-.68,2.16-1a30.06,30.06,0,0,0,2.69-1.58,30.56,30.56,0,0,0,2.53-1.87A28.91,28.91,0,0,0,123,97c.51-.7,1-1.43,1.42-2.18s1-1.81,1.45-2.75c.31-.68.6-1.38.87-2.08s.51-1.39.72-2.1c.27-.92.49-1.86.69-2.8s.3-1.65.39-2.47a17.83,17.83,0,0,0,.18-3.17,24.21,24.21,0,0,0-.07-2.5c-.09-.94-.2-1.88-.38-2.81-.14-.74-.33-1.46-.54-2.18a23.19,23.19,0,0,0-.86-2.37,24.22,24.22,0,0,0-1.21-2.45,24.68,24.68,0,0,0-1.49-2.32,27.82,27.82,0,0,0-2.6-3,28.39,28.39,0,0,0-3.38-2.9,26,26,0,0,0-2.43-1.59,22.5,22.5,0,0,0-2.33-1.23c-.48-.23-1-.47-1.45-.67s-1-.4-1.54-.58-1.06-.36-1.6-.52-1.36-.37-2-.56c-.06,0-.12,0-.15,0s0,.09,0,.13a1.31,1.31,0,0,0,.11.12,19.81,19.81,0,0,1,3.3,3.17,15.68,15.68,0,0,1,2.09,3.13,11.09,11.09,0,0,1,.71,1.57c.15.46.33.91.52,1.36a20.12,20.12,0,0,0,1.4,2.32c.42.72.82,1.45,1.18,2.21a25.29,25.29,0,0,1,1,2.53c.27.78.51,1.57.73,2.37.13.48.21,1,.34,1.47.17.68.28,1.38.39,2.06s.25,1.67.31,2.51a37,37,0,0,1,0,4.59c0,.82-.15,1.64-.27,2.46a29,29,0,0,1-.7,3.36,26.5,26.5,0,0,1-1,3.08,28.5,28.5,0,0,1-1.41,3,22.74,22.74,0,0,1-2.78,4,22,22,0,0,1-3.2,3,17.59,17.59,0,0,1-2.3,1.52,21.5,21.5,0,0,1-2.42,1.16c-.6.23-1.19.45-1.81.62s-1.15.26-1.73.37a18.74,18.74,0,0,1-2.35.25c-1.85,0-3.69,0-5.54-.07-1.35-.08-2.69-.16-4-.36a14.53,14.53,0,0,1-3.24-.82,1.28,1.28,0,0,1-.87-.89,17.05,17.05,0,0,1-.43-2.85c-.06-.67-.06-1.35-.12-2-.08-.84-.07-1.67-.1-2.51s0-1.94-.1-2.9c-.08-1.35-.12-2.7-.14-4,0-2.54,0-5.09,0-7.63,0-5.31-.06-10.62.08-15.93,0-1.46.08-2.91.18-4.37.07-1,.17-2,.15-3.07,0-.17,0-.35,0-.52a.44.44,0,0,1,.28-.41,2.76,2.76,0,0,1,1-.27c1-.12,2.08-.21,3.13-.3s1.92-.07,2.88-.1,1.86-.09,2.8-.06a2.91,2.91,0,0,1,.88.16,7,7,0,0,1,1.55.82,8.68,8.68,0,0,1,2.08,2,12.28,12.28,0,0,1,1.92,3.76,12.08,12.08,0,0,1,.57,2.92,21.28,21.28,0,0,1-.25,4.78,13.4,13.4,0,0,1-1,3.34,7.75,7.75,0,0,1-1.81,2.51,8,8,0,0,1-2.31,1.43,12.44,12.44,0,0,1-2.65.74c-.94.16-1.88.23-2.82.33A.9.9,0,0,0,90,80.79a3.48,3.48,0,0,0,.48,1.2,15.67,15.67,0,0,0,1.19,1.62c1,1.29,1.9,2.65,2.83,4l2.62,3.75c1.18,1.68,2.35,3.38,3.54,5.05s2.33,3.28,3.55,4.87a21.15,21.15,0,0,0,1.58,1.83c.11.11.22.18.37.07l1.44-1a30.61,30.61,0,0,0,2.67-2.15c.62-.53,1.18-1.11,1.75-1.69.23-.24.23-.31,0-.56s-.57-.73-.85-1.1c-1.12-1.5-2.19-3-3.24-4.57-.65-1-1.29-1.94-1.91-2.93-.5-.79-1-1.56-1.54-2.34-.94-1.46-1.89-2.9-2.84-4.35-.16-.25-.15-.3.15-.4a11.72,11.72,0,0,0,2.68-1.32,15.83,15.83,0,0,0,4.28-4.16,16.56,16.56,0,0,0,1.76-3.16,13.79,13.79,0,0,0,.87-2.92,14.94,14.94,0,0,0,.21-3.41,14.58,14.58,0,0,0-.84-4.25,13.73,13.73,0,0,0-1.27-2.65,14.41,14.41,0,0,0-3.5-3.88,15.7,15.7,0,0,0-2.63-1.61,17.86,17.86,0,0,0-2.08-.86c-.63-.22-1.27-.38-1.91-.54a27.18,27.18,0,0,0-3.1-.55,33.41,33.41,0,0,0-3.75-.24c-2,0-4,0-6,.15-.84.07-1.68.09-2.52.16-1,.08-2.1.1-3.14.11-.8,0-1.6,0-2.4,0-1.42,0-2.85-.07-4.27-.16s-2.57-.17-3.85-.28h-.05a.23.23,0,0,0-.26.26"></path>
    </clipPath>
    <clipPath id="clip-path-3">
      <path class="cls-1" d="M117.92,104.51c-.59.44-1.19.83-1.81,1.21s-1.25.78-1.9,1.14-1.3.73-2,1.06c-.06,0-.11.06-.11.14a.13.13,0,0,0,.08.13c.14,0,.23.14.35.19.77.33,1.51.7,2.3,1a23,23,0,0,0,2.94.86,21.8,21.8,0,0,0,4.11.43c.24,0,.47,0,.71,0a18.55,18.55,0,0,0,4.18-.83,12,12,0,0,0,2.38-1,2.29,2.29,0,0,0,.85-.73.41.41,0,0,0-.09-.58,2.22,2.22,0,0,0-.85-.4,5.67,5.67,0,0,0-2.46-.07,9.88,9.88,0,0,1-2.1.12,8.64,8.64,0,0,1-3.11-.82,13,13,0,0,1-2.91-1.83.52.52,0,0,0-.33-.12.46.46,0,0,0-.27.09"></path>
    </clipPath>
  </defs>
  <title>Artboard 5 copy 3</title>
  <path class="cls-1" d="M18.94,137.46a2.43,2.43,0,0,0,.47,1.78,4.56,4.56,0,0,0,2.24.56v1.42H11.49V139.8a3.47,3.47,0,0,0,2-.56,2.55,2.55,0,0,0,.44-1.78V124.64a2.55,2.55,0,0,0-.44-1.78,3.47,3.47,0,0,0-2-.56v-1.42H21.73c3.07,0,5.33.41,6.8,1.22a4,4,0,0,1,2.2,3.78A3.68,3.68,0,0,1,29.12,129a10.46,10.46,0,0,1-4.88,1.54,8.41,8.41,0,0,1,3.34,1.4,4.18,4.18,0,0,1,1.58,2.33,16.3,16.3,0,0,1,.45,2.83c.05.46.08.78.11,1a2.4,2.4,0,0,0,.32,1,.7.7,0,0,0,.6.25,1,1,0,0,0,1-.68,4.64,4.64,0,0,0,.33-2h1.31a1.81,1.81,0,0,1,0,.25c0,.09,0,.22,0,.4a4.45,4.45,0,0,1-1.09,3.23,4,4,0,0,1-3.07,1.13,5.52,5.52,0,0,1-2-.34,3.4,3.4,0,0,1-1.4-1,7.39,7.39,0,0,1-1-3.83q0-.22,0-.36c-.13-2-.54-3.37-1.25-4a3.28,3.28,0,0,0-1.31-.69,7.19,7.19,0,0,0-2-.23H18.94Zm0-12.87v5.24h1.54a6.72,6.72,0,0,0,3.88-.86,3.29,3.29,0,0,0,1.18-2.84,4,4,0,0,0-1-2.93,3.85,3.85,0,0,0-2.89-1,3.5,3.5,0,0,0-2.19.46,2.62,2.62,0,0,0-.52,1.94"></path>
  <path class="cls-1" d="M40.59,141.67a7,7,0,0,1-2.65-.49,6.59,6.59,0,0,1-2.19-1.45,7.25,7.25,0,0,1-1.69-2.55,8.77,8.77,0,0,1-.57-3.21,7.9,7.9,0,0,1,2-5.58,6.63,6.63,0,0,1,5.12-2.16,6.63,6.63,0,0,1,5.12,2.16,7.87,7.87,0,0,1,2,5.58,8.55,8.55,0,0,1-.59,3.2,7.31,7.31,0,0,1-1.7,2.56,6.71,6.71,0,0,1-2.2,1.46,7.11,7.11,0,0,1-2.63.48m0-1.31A1.78,1.78,0,0,0,42.34,139a16.86,16.86,0,0,0,.5-5.06,17.1,17.1,0,0,0-.5-5.09,1.83,1.83,0,0,0-3.52,0,17.2,17.2,0,0,0-.49,5.09,17,17,0,0,0,.49,5.06,1.79,1.79,0,0,0,1.77,1.33"></path>
  <path class="cls-1" d="M55.38,141.17l-5.14-10.86a6.68,6.68,0,0,0-1.13-1.75,2,2,0,0,0-1.24-.57l-.06-1.31h8V128a3.25,3.25,0,0,0-1.15.19.54.54,0,0,0-.35.51,1,1,0,0,0,0,.34,2.85,2.85,0,0,0,.14.41l2.9,6.59,2.35-6.1a4.14,4.14,0,0,0,.13-.43,1.74,1.74,0,0,0,0-.39.87.87,0,0,0-.41-.79,3.29,3.29,0,0,0-1.38-.33l0-1.31h5.44l0,1.31a2.38,2.38,0,0,0-1.28.59,4.26,4.26,0,0,0-.9,1.51l-4.67,11.58a13.56,13.56,0,0,1-2.61,4.46A4.36,4.36,0,0,1,51,147.5a3.29,3.29,0,0,1-2.2-.69A2.32,2.32,0,0,1,48,145a2.17,2.17,0,0,1,.55-1.53,1.88,1.88,0,0,1,1.43-.58,2,2,0,0,1,1.35.46,1.63,1.63,0,0,1,.5,1.24,2.32,2.32,0,0,1-.18.89l-.19.45c0,.05,0,.09.11.12a.82.82,0,0,0,.32,0c.53,0,1.12-.43,1.75-1.29a14.83,14.83,0,0,0,1.79-3.58"></path>
  <path class="cls-1" d="M72.7,139.33a10.23,10.23,0,0,1-2.49,1.75,5.82,5.82,0,0,1-2.49.59,3.92,3.92,0,0,1-2.81-1,3.54,3.54,0,0,1-1.1-2.67,4,4,0,0,1,2.12-3.57,15.26,15.26,0,0,1,6.48-1.62v-2a4.13,4.13,0,0,0-.59-2.6,2.5,2.5,0,0,0-2-.7,3,3,0,0,0-1.12.2c-.31.13-.47.27-.47.41a.68.68,0,0,0,.08.17.44.44,0,0,1,0,.09l.4.62a1.58,1.58,0,0,1,.2.47A2.1,2.1,0,0,1,69,130a1.72,1.72,0,0,1-.61,1.36,2.65,2.65,0,0,1-3.23,0,1.93,1.93,0,0,1-.63-1.5,3,3,0,0,1,1.65-2.56,8.14,8.14,0,0,1,4.28-1,6.94,6.94,0,0,1,4.7,1.34,5.28,5.28,0,0,1,1.52,4.17v7a1,1,0,0,0,.13.56.5.5,0,0,0,.43.19,1.58,1.58,0,0,0,.54-.15,1.46,1.46,0,0,1,.47-.15.37.37,0,0,1,.29.14.45.45,0,0,1,.13.32c0,.4-.34.81-1,1.23a4.06,4.06,0,0,1-2.15.62,2.73,2.73,0,0,1-1.74-.53,3.48,3.48,0,0,1-1.07-1.67m-.29-5.39a6.94,6.94,0,0,0-3.23,1.14,2.62,2.62,0,0,0-1.06,2.18,2,2,0,0,0,.51,1.45,1.91,1.91,0,0,0,1.44.53,2,2,0,0,0,1.81-1,5.86,5.86,0,0,0,.59-3c0-.16,0-.33,0-.51s0-.46,0-.86"></path>
  <path class="cls-1" d="M81.2,123.41a2,2,0,0,0-.33-1.32,1.78,1.78,0,0,0-1.26-.38v-1.27c.88,0,1.81-.1,2.78-.21s2-.27,3.19-.47V138a2.35,2.35,0,0,0,.31,1.44,1.81,1.81,0,0,0,1.18.52v1.28H79.75v-1.28a1.82,1.82,0,0,0,1.16-.5A2.51,2.51,0,0,0,81.2,138Z"></path>
  <path class="cls-1" d="M96.2,141.22V139.8a3.62,3.62,0,0,0,2-.57,2.54,2.54,0,0,0,.44-1.77V124.64a2.54,2.54,0,0,0-.44-1.77,3.62,3.62,0,0,0-2-.57v-1.42H106q5.6,0,8.55,2.61c2,1.74,3,4.25,3,7.54s-1,5.82-3,7.57-4.82,2.62-8.55,2.62Zm7.45-16.58v12.78q0,1.53.51,2a3.51,3.51,0,0,0,2.09.43q3.14,0,4.42-1.92T112,131q0-4.91-1.28-6.82t-4.42-1.91a3.51,3.51,0,0,0-2.09.43,2.52,2.52,0,0,0-.51,1.91"></path>
  <path class="cls-1" d="M133.19,133.71H124.4c0,.13,0,.27,0,.42s0,.36,0,.65a8.4,8.4,0,0,0,.76,4.05,2.57,2.57,0,0,0,2.39,1.3,3.78,3.78,0,0,0,2.35-.84,7,7,0,0,0,1.88-2.39l1.31.46a6.69,6.69,0,0,1-2.5,3.23,7.17,7.17,0,0,1-4,1.08,7,7,0,0,1-2.64-.49,7.07,7.07,0,0,1-2.18-1.4,7.44,7.44,0,0,1-1.7-2.57,8.76,8.76,0,0,1-.59-3.24,7.86,7.86,0,0,1,2-5.58,6.62,6.62,0,0,1,5.12-2.16,6.29,6.29,0,0,1,4.83,2,7.54,7.54,0,0,1,1.83,5.3Zm-8.82-1.28h4.21v-.26a9.58,9.58,0,0,0-.48-3.59,1.65,1.65,0,0,0-1.62-1.06,1.61,1.61,0,0,0-1.57,1,11.59,11.59,0,0,0-.54,3.86"></path>
  <path class="cls-1" d="M135,141.22v-1.28a1.82,1.82,0,0,0,1.16-.5,2.49,2.49,0,0,0,.3-1.46v-8.31a2.06,2.06,0,0,0-.3-1.36,2,2,0,0,0-1.26-.32v-1.31c1.07-.06,2.05-.13,3-.2s1.76-.15,2.58-.25v3.38a6.46,6.46,0,0,1,1.74-2.37,3.57,3.57,0,0,1,2.28-.77,3,3,0,0,1,2.1.75,2.5,2.5,0,0,1,.83,1.92,2.16,2.16,0,0,1-.62,1.6,2.22,2.22,0,0,1-1.62.6,1.94,1.94,0,0,1-1.31-.44,1.38,1.38,0,0,1-.53-1.1,1,1,0,0,1,0-.15,1.77,1.77,0,0,1,0-.2l.13-.59a.24.24,0,0,0,0-.09.57.57,0,0,0,0-.14.41.41,0,0,0-.12-.3.53.53,0,0,0-.36-.11c-.55,0-1.07.54-1.54,1.62a10,10,0,0,0-.72,4V138a2.52,2.52,0,0,0,.34,1.52,1.38,1.38,0,0,0,1.15.44H143v1.28Z"></path>
  <path class="cls-1" d="M157.19,141.22v-1.28a1.68,1.68,0,0,0,1.17-.48,2.46,2.46,0,0,0,.31-1.48v-6.27a5.2,5.2,0,0,0-.34-2.29,1.21,1.21,0,0,0-1.17-.61,2.17,2.17,0,0,0-1.94,1.23,6.77,6.77,0,0,0-.72,3.4V138a2.44,2.44,0,0,0,.32,1.48,1.68,1.68,0,0,0,1.17.48v1.28h-7.27v-1.28a1.88,1.88,0,0,0,1.17-.5,2.59,2.59,0,0,0,.29-1.46v-8.31a2,2,0,0,0-.31-1.32,1.83,1.83,0,0,0-1.24-.36v-1.31c1.06-.06,2-.13,2.94-.2s1.76-.15,2.58-.25v3.33a8.16,8.16,0,0,1,2.34-2.32,5,5,0,0,1,2.68-.77,3.59,3.59,0,0,1,2.32.72,3.81,3.81,0,0,1,1.23,2.18,8.31,8.31,0,0,1,2.33-2.19,5,5,0,0,1,2.58-.71,3.21,3.21,0,0,1,2.93,1.41,9,9,0,0,1,.9,4.66V138a2.49,2.49,0,0,0,.3,1.46,1.82,1.82,0,0,0,1.15.5v1.28h-7.23v-1.28a1.65,1.65,0,0,0,1.15-.48,2.51,2.51,0,0,0,.3-1.48v-6.27a5.2,5.2,0,0,0-.34-2.29,1.2,1.2,0,0,0-1.16-.61A2.15,2.15,0,0,0,163.7,130a6.84,6.84,0,0,0-.7,3.4V138a2.57,2.57,0,0,0,.3,1.49,1.64,1.64,0,0,0,1.14.47l0,1.28Z"></path>
  <path class="cls-1" d="M183.28,139.33a10,10,0,0,1-2.48,1.75,5.89,5.89,0,0,1-2.49.59,3.92,3.92,0,0,1-2.81-1,3.52,3.52,0,0,1-1.11-2.67,4,4,0,0,1,2.13-3.57,15.26,15.26,0,0,1,6.48-1.62v-2a4.2,4.2,0,0,0-.59-2.6,2.52,2.52,0,0,0-2-.7,3,3,0,0,0-1.12.2c-.32.13-.47.27-.47.41a.43.43,0,0,0,.08.17l0,.09.4.62a1.59,1.59,0,0,1,.19.47,2.1,2.1,0,0,1,.08.56,1.76,1.76,0,0,1-.61,1.36,2.33,2.33,0,0,1-1.6.53,2.36,2.36,0,0,1-1.64-.57,2,2,0,0,1-.62-1.5,3,3,0,0,1,1.65-2.56,8.12,8.12,0,0,1,4.28-1,7,7,0,0,1,4.7,1.34,5.28,5.28,0,0,1,1.52,4.17v7a1,1,0,0,0,.13.56.47.47,0,0,0,.42.19,1.48,1.48,0,0,0,.54-.15,1.62,1.62,0,0,1,.47-.15.39.39,0,0,1,.3.14.5.5,0,0,1,.13.32c0,.4-.34.81-1,1.23a4.1,4.1,0,0,1-2.16.62,2.7,2.7,0,0,1-1.73-.53,3.57,3.57,0,0,1-1.08-1.67m-.28-5.39a6.9,6.9,0,0,0-3.23,1.14,2.63,2.63,0,0,0-1.07,2.18,2,2,0,0,0,.52,1.45,1.89,1.89,0,0,0,1.43.53,2,2,0,0,0,1.82-1,5.87,5.87,0,0,0,.58-3v-.51c0-.18,0-.46-.05-.86"></path>
  <path class="cls-1" d="M188.47,114.3l-4.65.11-5.59.11-11.17.21q-11.19.17-22.36.27c-7.45.08-14.9.11-22.35.16l-22.35,0-22.35,0c-7.45-.06-14.9-.07-22.35-.16l-11.18-.12-11.18-.15-11.17-.22-5.59-.1-4.65-.12a.92.92,0,1,0,0,1.83l4.65-.12,5.59-.11,11.17-.21,11.18-.16,11.18-.12c7.45-.08,14.9-.1,22.35-.15l22.35,0,22.35,0c7.45,0,14.9.07,22.35.16s14.9.16,22.36.27l11.17.21,5.59.1,4.65.12a.92.92,0,0,0,.94-.92h0a.91.91,0,0,0-.92-.91h0"></path>
  <g class="cls-2">
    <rect class="cls-1" x="10.59" y="114.28" width="178.81" height="1.86"></rect>
  </g>
  <path class="cls-1" d="M70.06,52.76v.52a.49.49,0,0,0,.24.41l.84.49A6.63,6.63,0,0,1,73,55.84a7.59,7.59,0,0,1,1.24,3.06,19.76,19.76,0,0,1,.27,2.3c.09,1,.1,2.08.16,3.11.08,1.34.08,2.68.16,4,.1,1.91.06,3.83.16,5.75,0,1,0,2.08.06,3.12,0,1.78,0,3.57,0,5.35q0,6.72,0,13.45c0,1.84,0,3.68,0,5.52a6.76,6.76,0,0,1-.34,2,8.29,8.29,0,0,1-1,2.11,10.51,10.51,0,0,1-3.4,3.2c-.26.15-.44.32-.38.65a2.67,2.67,0,0,1,0,.4c0,.18.06.25.25.23.61-.08,1.21-.1,1.82-.16.87-.08,1.75-.1,2.62-.16,1.18-.09,2.36-.08,3.55-.11,1.36,0,2.71,0,4.07,0,.66,0,1.32.08,2,.12l2.46.14c.93.06,1.87.14,2.81.19s1.92.06,2.88.13c.64,0,1.28,0,1.91,0,1,0,2-.07,3-.12.8,0,1.59-.16,2.39-.22.46,0,.91-.15,1.38-.21.68-.09,1.36-.24,2-.37s1.1-.23,1.64-.38,1.31-.37,2-.57,1-.31,1.52-.5c.72-.29,1.45-.57,2.16-.88s1.45-.68,2.16-1a30.06,30.06,0,0,0,2.69-1.58,30.56,30.56,0,0,0,2.53-1.87A28.91,28.91,0,0,0,123,97c.51-.7,1-1.43,1.42-2.18s1-1.81,1.45-2.75c.31-.68.6-1.38.87-2.08s.51-1.39.72-2.1c.27-.92.49-1.86.69-2.8s.3-1.65.39-2.47a17.83,17.83,0,0,0,.18-3.17,24.21,24.21,0,0,0-.07-2.5c-.09-.94-.2-1.88-.38-2.81-.14-.74-.33-1.46-.54-2.18a23.19,23.19,0,0,0-.86-2.37,24.22,24.22,0,0,0-1.21-2.45,24.68,24.68,0,0,0-1.49-2.32,27.82,27.82,0,0,0-2.6-3,28.39,28.39,0,0,0-3.38-2.9,26,26,0,0,0-2.43-1.59,22.5,22.5,0,0,0-2.33-1.23c-.48-.23-1-.47-1.45-.67s-1-.4-1.54-.58-1.06-.36-1.6-.52-1.36-.37-2-.56c-.06,0-.12,0-.15,0s0,.09,0,.13a1.31,1.31,0,0,0,.11.12,19.81,19.81,0,0,1,3.3,3.17,15.68,15.68,0,0,1,2.09,3.13,11.09,11.09,0,0,1,.71,1.57c.15.46.33.91.52,1.36a20.12,20.12,0,0,0,1.4,2.32c.42.72.82,1.45,1.18,2.21a25.29,25.29,0,0,1,1,2.53c.27.78.51,1.57.73,2.37.13.48.21,1,.34,1.47.17.68.28,1.38.39,2.06s.25,1.67.31,2.51a37,37,0,0,1,0,4.59c0,.82-.15,1.64-.27,2.46a29,29,0,0,1-.7,3.36,26.5,26.5,0,0,1-1,3.08,28.5,28.5,0,0,1-1.41,3,22.74,22.74,0,0,1-2.78,4,22,22,0,0,1-3.2,3,17.59,17.59,0,0,1-2.3,1.52,21.5,21.5,0,0,1-2.42,1.16c-.6.23-1.19.45-1.81.62s-1.15.26-1.73.37a18.74,18.74,0,0,1-2.35.25c-1.85,0-3.69,0-5.54-.07-1.35-.08-2.69-.16-4-.36a14.53,14.53,0,0,1-3.24-.82,1.28,1.28,0,0,1-.87-.89,17.05,17.05,0,0,1-.43-2.85c-.06-.67-.06-1.35-.12-2-.08-.84-.07-1.67-.1-2.51s0-1.94-.1-2.9c-.08-1.35-.12-2.7-.14-4,0-2.54,0-5.09,0-7.63,0-5.31-.06-10.62.08-15.93,0-1.46.08-2.91.18-4.37.07-1,.17-2,.15-3.07,0-.17,0-.35,0-.52a.44.44,0,0,1,.28-.41,2.76,2.76,0,0,1,1-.27c1-.12,2.08-.21,3.13-.3s1.92-.07,2.88-.1,1.86-.09,2.8-.06a2.91,2.91,0,0,1,.88.16,7,7,0,0,1,1.55.82,8.68,8.68,0,0,1,2.08,2,12.28,12.28,0,0,1,1.92,3.76,12.08,12.08,0,0,1,.57,2.92,21.28,21.28,0,0,1-.25,4.78,13.4,13.4,0,0,1-1,3.34,7.75,7.75,0,0,1-1.81,2.51,8,8,0,0,1-2.31,1.43,12.44,12.44,0,0,1-2.65.74c-.94.16-1.88.23-2.82.33A.9.9,0,0,0,90,80.79a3.48,3.48,0,0,0,.48,1.2,15.67,15.67,0,0,0,1.19,1.62c1,1.29,1.9,2.65,2.83,4l2.62,3.75c1.18,1.68,2.35,3.38,3.54,5.05s2.33,3.28,3.55,4.87a21.15,21.15,0,0,0,1.58,1.83c.11.11.22.18.37.07l1.44-1a30.61,30.61,0,0,0,2.67-2.15c.62-.53,1.18-1.11,1.75-1.69.23-.24.23-.31,0-.56s-.57-.73-.85-1.1c-1.12-1.5-2.19-3-3.24-4.57-.65-1-1.29-1.94-1.91-2.93-.5-.79-1-1.56-1.54-2.34-.94-1.46-1.89-2.9-2.84-4.35-.16-.25-.15-.3.15-.4a11.72,11.72,0,0,0,2.68-1.32,15.83,15.83,0,0,0,4.28-4.16,16.56,16.56,0,0,0,1.76-3.16,13.79,13.79,0,0,0,.87-2.92,14.94,14.94,0,0,0,.21-3.41,14.58,14.58,0,0,0-.84-4.25,13.73,13.73,0,0,0-1.27-2.65,14.41,14.41,0,0,0-3.5-3.88,15.7,15.7,0,0,0-2.63-1.61,17.86,17.86,0,0,0-2.08-.86c-.63-.22-1.27-.38-1.91-.54a27.18,27.18,0,0,0-3.1-.55,33.41,33.41,0,0,0-3.75-.24c-2,0-4,0-6,.15-.84.07-1.68.09-2.52.16-1,.08-2.1.1-3.14.11-.8,0-1.6,0-2.4,0-1.42,0-2.85-.07-4.27-.16s-2.57-.17-3.85-.28h-.05a.23.23,0,0,0-.26.26"></path>
  <g class="cls-3">
    <rect class="cls-1" x="69.83" y="52.5" width="58.95" height="57.91"></rect>
  </g>
  <path class="cls-1" d="M117.92,104.51c-.59.44-1.19.83-1.81,1.21s-1.25.78-1.9,1.14-1.3.73-2,1.06c-.06,0-.11.06-.11.14a.13.13,0,0,0,.08.13c.14,0,.23.14.35.19.77.33,1.51.7,2.3,1a23,23,0,0,0,2.94.86,21.8,21.8,0,0,0,4.11.43c.24,0,.47,0,.71,0a18.55,18.55,0,0,0,4.18-.83,12,12,0,0,0,2.38-1,2.29,2.29,0,0,0,.85-.73.41.41,0,0,0-.09-.58,2.22,2.22,0,0,0-.85-.4,5.67,5.67,0,0,0-2.46-.07,9.88,9.88,0,0,1-2.1.12,8.64,8.64,0,0,1-3.11-.82,13,13,0,0,1-2.91-1.83.52.52,0,0,0-.33-.12.46.46,0,0,0-.27.09"></path>
  <g class="cls-4">
    <rect class="cls-1" x="112.14" y="104.42" width="18.04" height="6.25"></rect>
  </g>
</svg>
