<?xml version="1.0" encoding="UTF-8"?>
<svg xmlns="http://www.w3.org/2000/svg" xmlns:xlink="http://www.w3.org/1999/xlink" width="502px" height="313px" viewBox="0 0 502 313" version="1.1">
  <g id="Page-4" stroke="none" stroke-width="1" fill="none" fill-rule="evenodd">
    <g id="Selection-of-Reliable-Suppliers" transform="translate(6.000000, 7.720000)" stroke="#000" stroke-width="11.54">
      <polygon id="Path" points="0 0 0 194.27 64.62 194.27 112.18 21.95"></polygon>
      <line x1="106.58" y1="42.21" x2="203.83" y2="42.21" id="Path"></line>
      <path d="M373.92,66.35 C373.92,66.35 268.6,23.22 250.46,23.22 C232.32,23.22 198.64,43.64 181.57,66.35 C164.5,89.06 160.99,106.28 160.99,111.92 C160.99,117.56 167.54,132.04 182.48,132.04 C197.42,132.04 217.08,122.74 225.61,108.26 C225.61,108.26 250.15,100.59 254.62,97.24 C254.62,97.24 376.35,196.11 383.26,211.75 C390.17,227.4 375.74,253.82 353.79,246.09 C353.79,246.09 350.13,279.21 311.52,267.63 C311.52,267.63 305.1,298.579116 269.25,290.8 C269.25,290.8 247.71,309.09 220.27,289.58 C192.84,270.07 123.97,228.4 72.29,166.43" id="Path"></path>
      <line x1="383.27" y1="211.75" x2="419.04" y2="189.4" id="Path"></line>
      <polygon id="Path" points="490 211.75 427.57 211.75 364.67 42.21 490 23.22"></polygon>
      <line x1="207.69" y1="227.2" x2="269.26" y2="290.8" id="Path"></line>
      <line x1="251.17" y1="205.66" x2="311.53" y2="267.64" id="Path"></line>
      <line x1="281.35" y1="174.67" x2="353.8" y2="246.1" id="Path"></line>
    </g>
  </g>
</svg>
