<?xml version="1.0" encoding="UTF-8"?>
<svg xmlns="http://www.w3.org/2000/svg" id="Layer_1" viewBox="0 0 512 512">
  <defs>
    <style>.cls-1{stroke-width:11.54px;}.cls-1,.cls-2,.cls-3{fill:none;stroke:#000;stroke-miterlimit:10;}.cls-2{stroke-width:11.54px;}.cls-3{stroke-width:9.78px;}</style>
  </defs>
  <g>
    <path class="cls-1" d="M288.73,55.13c21.04,4.77,41.74,12.74,61.41,24.1,88.67,51.2,128.22,154.81,102.08,249.11"></path>
    <path d="M430.65,379.7c.83-27.95-2.34-64.33-11.06-89.61l34.72,31.2,46.64,1.77c-23.86,12.08-51.46,36-70.31,56.64Z"></path>
  </g>
  <g>
    <path class="cls-1" d="M184.9,56.81c-55.05,14.29-104.55,49.79-135.23,102.93-25.44,44.06-33.9,93.27-27.42,140.05"></path>
    <path d="M240.16,49.72c-27.32-5.96-61.85-17.83-84.27-32.41l21.87,41.24-9.57,45.68c17.5-20.23,47.38-41.22,71.97-54.51Z"></path>
  </g>
  <g>
    <path class="cls-2" d="M404.76,415.7c-67.86,76.68-182.46,97.69-274.58,44.51-17.58-10.15-33.23-22.36-46.82-36.15"></path>
    <path d="M49.63,379.72c23.79,14.69,56.88,30.14,83.13,35.23l-44.39,14.47-24.85,39.51c1.47-26.71-5.44-62.56-13.9-89.21Z"></path>
  </g>
  <g>
    <rect class="cls-3" x="132.71" y="148.76" width="214.48" height="214.48"></rect>
    <polyline class="cls-3" points="200.45 148.76 200.45 198.47 176.97 169.34 153.38 198.47 153.38 148.76"></polyline>
    <polygon class="cls-3" points="283.98 265.09 292.09 290.06 318.34 290.06 297.1 305.49 305.22 330.45 283.98 315.02 262.74 330.45 270.85 305.49 249.62 290.06 275.87 290.06 283.98 265.09"></polygon>
    <line class="cls-3" x1="200.45" y1="184.89" x2="347.19" y2="184.89"></line>
    <line class="cls-3" x1="132.71" y1="184.89" x2="153.38" y2="184.89"></line>
  </g>
</svg>
