<?xml version="1.0" encoding="UTF-8"?>
<svg xmlns="http://www.w3.org/2000/svg" xmlns:xlink="http://www.w3.org/1999/xlink" width="128px" height="85px" viewBox="0 0 128 85" version="1.1">
  <title>Skye Logo New</title>
  <defs>
    <path d="M70.5794459,37.4045036 C59.198339,39.1661188 47.7555999,37.0240692 36.9877107,33.328801 L36.9877107,33.328801 C30.2511844,31.0178173 22.6708741,29.2823625 15.5339606,29.7732027 L15.5339606,29.7732027 C12.7077499,29.9678539 9.41641607,30.8785907 6.75780935,31.8753465 L6.75780935,31.8753465 C5.72646859,32.2619885 1.97400218,33.9074337 0,36.5239177 L0,36.5239177 C0,36.5385498 0.00354717373,36.5580593 0.00399057045,36.5651536 L0.00399057045,36.5651536 C1.57716212,35.2167842 7.17282868,33.2086405 13.4774866,32.7718947 L13.4774866,32.7718947 C21.2435801,32.0810826 29.2300417,34.1468679 36.325276,37.1486637 L36.325276,37.1486637 C46.9925142,41.6615555 59.6306508,44.2815867 70.9731822,41.7945745 L70.9731822,41.7945745 C93.5376411,36.8484841 100.463054,15.2226961 92.1972528,0 L92.1972528,0 C99.7407612,15.3056113 93.495075,33.8582167 70.5794459,37.4045036" id="path-1"></path>
  </defs>
  <g id="Zymo-Icons" stroke="none" stroke-width="1" fill="none" fill-rule="evenodd">
    <g id="Artboard" transform="translate(-1138.000000, -892.000000)">
      <g id="Skye-Logo-New" transform="translate(1138.000000, 892.000000)">
        <g id="Group-27" fill="#FFFFFF">
          <path d="M6.508177,7.29742316 L5.77435544,4.83701478 C5.58768542,4.14221212 5.37751538,3.27315456 5.21877935,2.59608777 L5.16025099,2.59608777 C5.00461874,3.29000364 4.81661853,4.16305177 4.63393908,4.83701478 L3.93381567,7.29742316 L6.508177,7.29742316 Z M3.55604167,9.28206686 L2.74418228,12.2727777 L0,12.2727777 L3.5786549,0.624745973 L7.01542285,0.624745973 L10.6410778,12.2727777 L7.79624446,12.2727777 L6.90945103,9.28206686 L3.55604167,9.28206686 Z" id="Fill-1"></path>
          <path d="M70.7082527,6.0681501 C70.936602,6.11958412 71.2137249,6.12756526 71.5897253,6.12756526 C72.9917458,6.12756526 73.8479448,5.42300788 73.8479448,4.26175188 C73.8479448,3.17010916 73.1340761,2.53516507 71.8149709,2.53516507 C71.2731401,2.53516507 70.9073378,2.58792927 70.7082527,2.6384765 L70.7082527,6.0681501 Z M68.0846743,0.783748036 C68.9218073,0.644521467 70.0537991,0.545643999 71.6659896,0.545643999 C73.2897084,0.545643999 74.4833323,0.840946212 75.2446445,1.4772205 C75.9789094,2.06206077 76.4644288,3.02423164 76.4644288,4.16331781 C76.4644288,5.32457381 76.1110417,6.29649941 75.4149088,6.93942465 C74.523238,7.77655765 73.173095,8.15920902 71.6021404,8.15920902 C71.2731401,8.15920902 70.9614322,8.14945429 70.7082527,8.09269951 L70.7082527,12.2726004 L68.0846743,12.2726004 L68.0846743,0.783748036 Z" id="Fill-3"></path>
          <path d="M77.9325154,6.61241957 C77.9325154,5.36204083 77.9099021,4.5430871 77.8642323,3.82611461 L80.1144706,3.82611461 L80.2102443,5.40238993 L80.2878387,5.40238993 C80.7197071,4.14225646 81.7350856,3.62968986 82.5580299,3.62968986 C82.8005679,3.62968986 82.9256058,3.64786913 83.1189268,3.68688804 L83.1189268,6.14862661 C82.9060963,6.11936242 82.682181,6.10694731 82.3784542,6.10694731 C81.413623,6.10694731 80.7591694,6.59157993 80.6115183,7.42693934 C80.5614145,7.59276971 80.5405749,7.7834303 80.5405749,7.99093996 L80.5405749,12.2728221 L77.9099021,12.2728221 L77.9325154,6.61241957 Z" id="Fill-5"></path>
          <path d="M88.3185514,10.5988664 C89.3445714,10.5988664 89.9906004,9.56841246 89.9906004,8.04357115 C89.9906004,6.79230562 89.500647,5.52064384 88.3185514,5.52064384 C87.0597481,5.52064384 86.5808796,6.79230562 86.5808796,8.07150515 C86.5808796,9.49924257 87.1892199,10.5988664 88.2852966,10.5988664 L88.3185514,10.5988664 Z M88.2582494,12.463793 C85.7801052,12.463793 83.9032069,10.8480554 83.9032069,8.11229764 C83.9032069,5.37432292 85.6812277,3.63000024 88.3979194,3.63000024 C91.0046487,3.63000024 92.7268015,5.42309656 92.7268015,7.98105222 C92.7268015,11.0542349 90.5324312,12.463793 88.2737683,12.463793 L88.2582494,12.463793 Z" id="Fill-7"></path>
          <path d="M99.9845407,7.426895 C99.9845407,7.25840425 99.9845407,7.08680972 99.9202482,6.93960201 C99.7934367,6.22662009 99.205936,5.65153455 98.3914163,5.65153455 C97.1827168,5.65153455 96.5881218,6.71967724 96.5881218,8.07159383 C96.5881218,9.46829348 97.2873585,10.3732662 98.3829917,10.3732662 C99.1363228,10.3732662 99.7575216,9.86380335 99.8994085,9.11313271 C99.9410878,8.94198158 99.9845407,8.74555683 99.9845407,8.52696225 L99.9845407,7.426895 Z M102.598364,0 L102.598364,9.75650135 C102.598364,10.7200024 102.61743,11.7101073 102.656449,12.2727777 L100.346352,12.2727777 L100.222201,11.0543235 L100.173871,11.0543235 C99.6431252,11.9872302 98.6184354,12.4634383 97.5281229,12.4634383 C95.5328376,12.4634383 93.9063943,10.7590213 93.9063943,8.11770708 C93.8940434,5.2937134 95.6831491,3.63008892 97.7090287,3.63008892 C98.7421431,3.63008892 99.5681912,4.01673085 99.9202482,4.5904862 L99.9845407,4.5904862 L99.9845407,0 L102.598364,0 Z" id="Fill-9"></path>
          <path d="M112.659479,9.56854548 C112.659479,10.6686127 112.711357,11.5709251 112.751706,12.2728221 L110.465552,12.2728221 L110.347165,11.0752075 L110.289524,11.0752075 C109.964071,11.601076 109.176155,12.4634826 107.638455,12.4634826 C105.918962,12.4634826 104.678338,11.3913494 104.678338,8.79437481 L104.678338,3.82611461 L107.297483,3.82611461 L107.297483,8.36694038 C107.297483,9.59780966 107.708068,10.3400558 108.627229,10.3400558 C109.348636,10.3400558 109.802674,9.84433824 109.944561,9.42931891 C110.019939,9.2821112 110.053193,9.08258268 110.053193,8.87507302 L110.053193,3.82611461 L112.659479,3.82611461 L112.659479,9.56854548 Z" id="Fill-11"></path>
          <path d="M121.128623,12.0680614 C120.671924,12.3035051 119.790451,12.4635713 118.772856,12.4635713 C116.053504,12.4635713 114.300313,10.7981733 114.300313,8.1178401 C114.300313,5.65166757 116.012711,3.62977854 119.149743,3.62977854 C119.856074,3.62977854 120.59965,3.76900511 121.153896,3.96676004 L120.752622,5.92701693 C120.440914,5.78823376 119.953621,5.65166757 119.269904,5.65166757 C117.881628,5.65166757 116.991731,6.64443281 116.998826,8.03004755 C116.998826,9.58814361 118.024846,10.4124181 119.309809,10.4124181 C119.953621,10.4124181 120.440914,10.3108803 120.822235,10.1313046 L121.128623,12.0680614 Z" id="Fill-13"></path>
          <path d="M125.793378,1.52568376 L125.793378,3.82602593 L127.69821,3.82602593 L127.69821,5.76987713 L125.793378,5.76987713 L125.793378,8.82488051 C125.793378,9.86375901 126.077595,10.3315425 126.840237,10.3315425 C127.212247,10.3315425 127.379408,10.3107029 127.613078,10.2495142 L127.653427,12.2350447 C127.307134,12.3871297 126.656671,12.463394 125.945019,12.463394 C125.10833,12.463394 124.398452,12.1654314 123.960819,11.7477517 C123.470866,11.2338549 123.225667,10.4290898 123.225667,9.24123002 L123.225667,5.76987713 L122.110081,5.76987713 L122.110081,3.82602593 L123.225667,3.82602593 L123.225667,2.22891095 L125.793378,1.52568376 Z" id="Fill-15"></path>
          <polygon id="Fill-17" points="49.4539867 0.624834653 49.4539867 4.32320666 46.3027663 4.32320666 46.3027663 12.5229421 41.1079303 12.5229421 41.1079303 4.32320666 38.0023797 4.32320666 38.0023797 0.583155361"></polygon>
          <path d="M39.2543547,12.5231638 L34.0674999,12.5231638 L31.9901863,7.12081825 L29.700929,12.5231638 L24.7716878,12.5231638 C25.2616411,10.9149639 28.4838051,3.15064405 29.3568532,0.58337706 L34.6133213,0.625056351 C35.8304453,3.79534287 39.2543547,12.5231638 39.2543547,12.5231638" id="Fill-19"></path>
          <polygon id="Fill-21" points="22.9084461 12.5231638 17.6533082 12.5231638 17.6533082 4.32342836 14.5787954 4.32342836 14.5384463 0.58337706 26.0304024 0.625056351 26.0304024 4.32342836 22.9084461 4.32342836"></polygon>
          <path d="M62.6779391,12.5231638 L57.4924145,12.5231638 L55.4053461,7.12081825 L53.1400323,12.5231638 L48.2147816,12.5231638 C48.7229142,10.9149639 51.8905404,3.15064405 52.7791074,0.58337706 L58.0284811,0.625056351 C59.2456051,3.79534287 62.6681843,12.5231638 62.6681843,12.5231638" id="Fill-23"></path>
          <path d="M102.612021,33.6472928 C103.583503,28.681693 101.620586,24.8427642 101.330604,24.3124618 C101.329718,24.3120184 101.329718,24.3111316 101.328831,24.3102448 L101.087623,23.8703952 C100.607424,22.9929131 99.6660932,22.4750258 98.6649034,22.5331108 L98.1647519,22.5632617 C97.4145246,22.6084882 96.7090805,22.7011581 96.0377778,22.826196 L94.2451249,19.2014278 C93.9294264,18.5647101 93.3663126,18.0853983 92.6879156,17.8770018 C92.0104055,17.6690488 91.2752537,17.7470866 90.6549417,18.0969266 L87.026183,20.1476364 C86.5091824,19.6829567 85.9669082,19.235126 85.3718698,18.8245406 L84.969709,18.5460875 C84.1640572,17.9869642 83.11099,17.9342 82.2525739,18.4055307 L81.8207055,18.642748 C81.485941,18.827201 79.8755241,19.771636 78.2713148,21.6294682 C72.8011295,20.6739483 69.1333519,20.7564201 69.1333519,20.7564201 C8.59994535,21.1523734 16.4760012,78.8187767 16.476888,78.8218805 C18.4398053,76.1739153 22.2392717,74.509404 23.2781503,74.1196583 C25.936757,73.1229025 29.2280908,72.2121657 32.0543015,72.0175145 C39.191215,71.5266743 46.7715253,73.2621291 53.5080516,75.5735562 C64.2759408,79.2688244 75.7186799,81.4104305 87.0997868,79.6488154 C114.5691,75.3975277 118.090557,49.5825274 102.612021,33.6472928" id="Fill-25"></path>
        </g>
        <g id="Group-30" transform="translate(16.520208, 42.244356)">
          <mask id="mask-2" fill="white">
            <use xlink:href="#path-1"></use>
          </mask>
          <g id="Clip-29"></g>
          <path d="M70.5794459,37.4045036 C59.198339,39.1661188 47.7555999,37.0240692 36.9877107,33.328801 L36.9877107,33.328801 C30.2511844,31.0178173 22.6708741,29.2823625 15.5339606,29.7732027 L15.5339606,29.7732027 C12.7077499,29.9678539 9.41641607,30.8785907 6.75780935,31.8753465 L6.75780935,31.8753465 C5.72646859,32.2619885 1.97400218,33.9074337 0,36.5239177 L0,36.5239177 C0,36.5385498 0.00354717373,36.5580593 0.00399057045,36.5651536 L0.00399057045,36.5651536 C1.57716212,35.2167842 7.17282868,33.2086405 13.4774866,32.7718947 L13.4774866,32.7718947 C21.2435801,32.0810826 29.2300417,34.1468679 36.325276,37.1486637 L36.325276,37.1486637 C46.9925142,41.6615555 59.6306508,44.2815867 70.9731822,41.7945745 L70.9731822,41.7945745 C93.5376411,36.8484841 100.463054,15.2226961 92.1972528,0 L92.1972528,0 C99.7407612,15.3056113 93.495075,33.8582167 70.5794459,37.4045036" id="Fill-28" mask="url(#mask-2)"></path>
        </g>
        <g id="Group-43" transform="translate(29.528669, 20.347963)">
          <path d="M67.7218871,15.8603005 C67.5959624,16.0992914 64.5666761,21.6763353 56.8701959,20.2880602 L56.1501196,20.0787769 C48.9054606,17.122651 49.3386592,10.7949365 49.3630461,10.4978607 C49.6055841,5.58591183 52.743946,2.99603161 53.8923435,2.20855904 C54.5884764,2.73043698 55.1764204,3.26206964 55.6734681,3.81143817 C54.4403819,4.60600509 51.2022556,7.16529094 51.748077,11.8586452 C51.7538412,11.9096358 52.3745966,16.963915 57.7042251,18.2196145 C57.7277251,18.2253786 58.5879147,18.4320015 59.7846425,18.3836713 C61.8628429,18.2989825 64.9550916,17.4418966 66.4258385,13.417628 C66.4559895,13.3218543 67.1578865,11.0401348 66.3118855,8.35714131 L64.8007895,8.83379278 C65.4867243,11.0117575 64.9244972,12.906835 64.925384,12.906835 C63.115882,17.8591329 58.2948295,16.7315751 58.0802255,16.6801411 C53.8466737,15.6824985 53.342975,11.8440131 53.3230221,11.6799563 C52.7847385,7.05444176 56.6764315,5.04053387 56.8786204,4.93766583 L57.3180265,4.68936367 L57.9804612,4.32710856 C57.9786877,4.32400478 57.9764707,4.3213444 57.9751405,4.31868402 L61.7200691,2.20412508 L63.6599298,6.12641243 C61.853975,7.04380024 60.5450679,8.31457523 59.606397,9.58490682 C59.5265856,8.26934876 59.2272928,6.8189981 58.5453487,5.37308141 L57.1783566,6.16587474 C58.4260749,8.86394376 58.1219048,11.5464939 57.771178,13.039854 C57.5703193,13.5976471 57.4608003,14.0241947 57.4115833,14.2370252 L58.936868,14.6799785 C59.0091416,14.4733556 59.1443776,14.0552325 59.2765098,13.4770432 C60.0351616,11.3310031 62.2995887,7.01763983 68.3572746,6.42038445 C68.9079733,7.71465947 70.1521445,11.5757581 67.7218871,15.8603005 M69.5340495,5.20636424 L69.2923983,4.7660713 L68.79136,4.79622228 C67.4119528,4.87958086 66.1979326,5.13630756 65.1235823,5.5096476 L62.3984661,0 L57.0444508,3.0252958 C56.3429972,2.17752127 55.4681754,1.35901094 54.3716554,0.602132741 L53.9690512,0.323236206 L53.5402865,0.559566656 C53.3185882,0.681500753 48.1157711,3.61723041 47.78145,10.3896719 C47.774799,10.4694833 47.6178366,12.3854005 48.509064,14.7189974 C49.3275743,16.8637073 51.2208783,19.792786 55.5918831,21.5632691 L56.4671483,21.8217694 L56.5465163,21.8403921 C57.710876,22.0532225 58.7825659,22.1206188 59.762916,22.0807131 C62.6919948,21.9614394 64.8154216,20.8853155 66.1948288,19.8570785 C68.196765,18.3637184 69.0915396,16.6628486 69.1137094,16.6176221 C72.4750999,10.6947288 69.6550968,5.42761921 69.5340495,5.20636424" id="Fill-31" fill="#050100"></path>
          <path d="M16.7085185,40.6045864 C17.1089057,39.629557 17.3119814,38.5201784 17.3119814,37.3066016 C17.3119814,35.6735715 16.7838959,34.3380606 15.6980173,33.2233612 C14.6099218,32.1064449 12.906835,31.2950289 10.6366438,30.8121699 C9.43592552,30.5674149 8.42719799,30.3146788 7.64149901,30.0606125 C6.84161133,29.8025556 6.19513892,29.5249892 5.72070444,29.2358946 C5.21035481,28.9255169 4.84898649,28.5699127 4.64635419,28.1797236 C4.44815586,27.7975156 4.3475048,27.3873737 4.3475048,26.960826 C4.3475048,25.8368153 4.80908079,24.9243049 5.71848745,24.2472381 C6.60616768,23.586577 8.0613957,23.2655578 10.1666433,23.2655578 C12.8358915,23.2655578 14.9952336,23.9874076 16.5976693,25.4133715 L16.5976693,23.8109357 C16.5976693,23.339605 16.4872635,22.8381234 16.2704425,22.3197926 C16.0602725,21.8183109 15.6798381,21.3602821 15.1393375,20.9581213 C14.5802142,20.5413284 13.8202323,20.1919317 12.8802312,19.9192428 C11.9291453,19.6438934 10.7075873,19.5042234 9.25102909,19.5042234 C7.81486713,19.5042234 6.50196945,19.7268086 5.34869459,20.1662147 C4.1994103,20.6038473 3.21906016,21.1993291 2.43469137,21.9366978 C1.65209617,22.6736232 1.04375587,23.528492 0.627406354,24.4769176 C0.211056837,25.4253432 0,26.4207688 0,27.4370341 C0,29.0993284 0.537840217,30.4029147 1.64411502,31.4231706 C2.76635211,32.4580585 4.41002374,33.2158235 6.52990344,33.6747391 C7.87516908,33.9682677 8.97612313,34.2453907 9.80172781,34.4981268 C10.663691,34.7615045 11.3057295,35.0412878 11.7633149,35.3529957 C12.2475041,35.6828828 12.5720705,36.0531191 12.7277027,36.4548365 C12.8726935,36.826403 12.9462973,37.2609317 12.9462973,37.7460078 C12.9462973,38.8850939 12.5272874,39.8122364 11.7016827,40.5008315 C10.884946,41.1832191 9.49578408,41.513993 7.45660258,41.513993 C5.8333272,41.513993 4.39893882,41.2311059 3.19467334,40.6728695 C2.22939869,40.2259256 1.34836941,39.689859 0.567547797,39.0735375 L0.567547797,40.6391713 C0.567547797,42.0473993 1.15859562,43.1487967 2.37527621,44.0089864 C3.61590022,44.8860251 5.51585515,45.3303086 8.02459377,45.3303086 C9.52549166,45.3303086 10.8703139,45.1338838 12.022702,44.7459117 C13.1640051,44.3623736 14.1425817,43.8112314 14.930941,43.1102212 C15.7139796,42.413645 16.3116784,41.5711912 16.7085185,40.6045864" id="Fill-33" fill="#000000"></path>
          <path d="M37.2427081,42.9211569 C36.9540569,42.8001096 36.6472263,42.6396 36.3319713,42.4471658 C36.015386,42.2534014 35.6695366,41.9949011 35.3024041,41.6783159 C34.9436962,41.3692684 34.5313372,40.9883906 34.0768556,40.5458807 C33.1745433,39.6067664 32.3077027,38.6250861 31.4922961,37.6194623 C30.6804367,36.6182725 29.8712377,35.6166394 29.0651425,34.6154496 L28.8758121,34.3804493 L29.0615953,34.1423453 C29.5856902,33.471486 30.2330494,32.6826833 31.0395881,31.7315973 C31.8323814,30.7978038 32.6353729,29.8746519 33.4259492,28.9869717 C34.2209595,28.0948575 34.9875924,27.2608282 35.7050083,26.506167 C36.1417541,26.0472514 36.5075564,25.6752416 36.8090661,25.3821564 L34.6900732,25.3821564 C33.9181196,25.3821564 33.2210999,25.4553168 32.6185238,25.6007509 C32.0527496,25.7364303 31.4896357,26.0707515 30.9438144,26.5948464 C29.7883225,27.702008 28.7099817,28.8872074 27.7376127,30.1171899 C26.7408569,31.3799837 25.7498652,32.6503153 24.7930151,33.8949299 L24.330109,34.4961759 L24.7961189,35.1191482 C25.9059409,36.6031971 27.0441403,38.0921232 28.1787925,39.5438041 C29.3001428,40.9790792 30.5230309,42.3797695 31.8137587,43.7064125 C32.1999573,44.0930544 32.6761654,44.4074227 33.2255339,44.6366588 C33.7740156,44.8663383 34.3162898,44.9820648 34.8368376,44.9820648 C35.7865933,44.9820648 36.4711979,44.8020457 36.8733587,44.4459982 C37.2263025,44.1342903 37.5207179,43.6900068 37.7517276,43.1229024 C37.5783595,43.0590532 37.4076517,42.9912135 37.2427081,42.9211569" id="Fill-35" fill="#000000"></path>
          <path d="M22.8753687,44.8727232 L24.1102285,44.8447892 L24.1102285,22.5029154 C24.1102285,21.611688 23.8761151,20.9049137 23.3959164,20.3422432 C22.9365574,19.8052898 22.1406603,19.5330442 21.0299515,19.5330442 L19.7995257,19.5330442 L19.7995257,41.6829272 C19.7995257,42.7989567 20.0646769,43.6267784 20.5874416,44.1446658 C21.0867063,44.6386097 21.8559996,44.8877987 22.8753687,44.8727232" id="Fill-37" fill="#000000"></path>
          <path d="M46.9147424,49.4231707 C47.6002337,48.6485566 48.3194232,47.5578007 49.0514712,46.1823841 C49.7941607,44.7883448 50.6485862,42.9593333 51.5921344,40.7458969 L51.5925778,40.7458969 C51.7380119,40.4053682 51.9530593,39.8799431 52.2390502,39.1696216 C52.5285882,38.4473283 52.8385225,37.6438935 53.1599852,36.7801567 C53.4894289,35.8969104 53.8272972,34.9671075 54.1744768,33.9925215 C54.5189961,33.0254733 54.8311474,32.0965572 55.1038364,31.2319336 C55.3743084,30.3726307 55.5999973,29.579394 55.7746956,28.8743932 C55.9436297,28.1928925 56.0292053,27.6847598 56.0292053,27.3632972 C56.0292053,26.6565229 55.8704693,26.144843 55.5587614,25.8420031 C55.2435063,25.5369461 54.7349303,25.3822007 54.0476654,25.3822007 L52.205352,25.3822007 C52.081201,26.3266357 51.8998517,27.3659576 51.6648514,28.4771098 C51.400587,29.7221678 51.080898,30.9942729 50.7146523,32.2579536 C50.346633,33.5273984 49.9471326,34.7702394 49.5267925,35.9505614 C49.1046788,37.1362042 48.6865557,38.2216394 48.2826213,39.1762725 L47.9664794,39.923396 L47.5935828,39.2024329 C46.6620063,37.4004687 45.8262035,35.4619382 45.1105612,33.4418228 C44.3927019,31.4172734 43.8544183,29.3940542 43.509899,27.4289199 C43.3937291,26.8037306 43.0993137,26.3173244 42.6106905,25.9448711 C42.1123126,25.5662103 41.5709252,25.3822007 40.9554905,25.3822007 L38.7309692,25.3822007 C38.9242902,26.4729566 39.2461962,27.7809769 39.6909231,29.278771 C40.1990557,30.9916126 40.7998583,32.7687466 41.4760383,34.5631731 C42.1548787,36.3611468 42.8807191,38.0921676 43.6353803,39.7092354 C44.3860509,41.3192089 45.1056838,42.6321065 45.7747695,43.6106831 L45.8869488,43.7751833 L45.815562,43.9614099 C44.7088437,49.7464069 39.7113194,50.1791621 40.3236502,50.6695588 C40.9621415,51.1799084 41.6955197,51.4277672 42.5667942,51.4277672 C43.4145687,51.4277672 44.1931734,51.2805595 44.8817685,50.9910214 C45.5632692,50.7041438 46.246987,50.1765017 46.9147424,49.4231707" id="Fill-39" fill="#000000"></path>
          <path d="M61.0311193,33.0374007 C61.0568363,32.4295038 61.182761,31.8331352 61.4049028,31.2709081 C61.6305917,30.7002566 61.9538279,30.1987749 62.3666302,29.7793216 C62.7749986,29.3638589 63.2614048,29.0233302 63.8138771,28.7670469 C64.3752174,28.5063296 64.9902086,28.3746408 65.6406716,28.3746408 C66.8892767,28.3746408 67.9042118,28.6517637 68.6566561,29.1975851 C69.4472324,29.7717838 69.8489498,30.6452754 69.8489498,31.7945597 C69.8489498,32.2113526 69.7443082,32.5802586 69.5385721,32.8928533 C69.3257417,33.2165329 68.9692507,33.4635049 68.4500332,33.6461844 C67.9831364,33.8106845 67.3730226,33.9281847 66.5842198,34.0048923 C65.8260114,34.0793829 64.8248216,34.1166283 63.608141,34.1166283 L60.972591,34.1166283 L61.0311193,33.0374007 Z M72.7350191,42.7766095 C72.9513967,42.278675 73.0609156,41.7253159 73.0609156,41.1338247 L73.0609156,40.2226444 C72.3040374,40.8030508 71.4225648,41.2118625 70.4329033,41.4402118 C69.2743077,41.7084668 68.1427593,41.8437028 67.0688524,41.8437028 C65.4930205,41.8437028 64.1362265,41.4402118 63.0374895,40.6456449 C61.919243,39.8364459 61.2452799,38.7323881 61.0351099,37.3645092 L60.9672702,36.9259899 L64.7068781,36.9259899 C67.9552025,36.9259899 70.3335824,36.57748 71.775952,35.8911019 C73.1460478,35.2401955 73.8115863,34.098449 73.8115863,32.3993528 C73.8115863,31.2527289 73.5956521,30.2036522 73.1691044,29.2813871 C72.74167,28.3564615 72.1652543,27.566772 71.4575931,26.9327147 C70.7450546,26.2964404 69.9176763,25.8007229 68.9971847,25.458864 C68.073146,25.1165617 67.0981166,24.9427502 66.0987004,24.9427502 C64.7037743,24.9427502 63.4068389,25.1888354 62.2442527,25.673468 C61.0869873,26.1558836 60.0782598,26.860441 59.2473343,27.7676307 C58.4128617,28.6770374 57.7517572,29.8014914 57.2835303,31.1086249 C56.8121996,32.4215226 56.5732087,33.9153262 56.5732087,35.5487997 C56.5732087,37.0372824 56.8454543,38.39585 57.381521,39.5854834 C57.920248,40.7804375 58.6438714,41.819316 59.5324384,42.6719679 C60.4192319,43.523733 61.4496858,44.1870545 62.5958663,44.6437531 C63.7411601,45.0991215 64.932567,45.3305746 66.1355023,45.3305746 C67.4648057,45.3305746 68.5972409,45.2144047 69.502657,44.9847252 C70.3916674,44.759923 71.1117437,44.4504321 71.6438197,44.0660072 C72.1586033,43.6935539 72.5257358,43.259912 72.7350191,42.7766095 L72.7350191,42.7766095 Z" id="Fill-41" fill="#000000"></path>
        </g>
      </g>
    </g>
  </g>
</svg>
