<?xml version="1.0" encoding="UTF-8"?>
<svg xmlns="http://www.w3.org/2000/svg" xmlns:xlink="http://www.w3.org/1999/xlink" width="100px" height="100px" viewBox="0 0 100 100" version="1.1">
  <title>Artboard Copy</title>
  <g id="Artboard-Copy" stroke="none" stroke-width="1" fill="none" fill-rule="evenodd">
    <g id="smart-laboratories" transform="translate(13.000000, 32.000000)" fill="#FFFFFF">
      <path d="M69.7074342,21.3528526 L69.9151131,20.8336552 C70.0347232,20.9198174 70.1677598,20.9856048 70.3088378,21.0283542 C70.4478946,21.0775565 70.5940166,21.1038584 70.7415023,21.1062338 C70.9355204,21.1153398 71.1257503,21.0503833 71.2736796,20.9245147 C71.4050816,20.8071242 71.4779233,20.6376881 71.4727052,20.4615637 C71.4737163,20.3242109 71.4362463,20.1893191 71.3645391,20.0721657 C71.2125855,19.8963304 71.0193007,19.761031 70.8020753,19.678441 L70.464597,19.5226818 C70.2266018,19.4264529 70.0209796,19.2643566 69.8718467,19.0554042 C69.7553838,18.8562078 69.6969372,18.6284157 69.7031075,18.3977542 C69.6952867,18.1053949 69.815363,17.8241636 70.0319325,17.6276114 C70.2681547,17.414395 70.5794746,17.3038764 70.8972615,17.3204197 C71.2333312,17.2896797 71.5703179,17.3686135 71.8577766,17.5454052 L71.6890375,18.0386427 C71.5825916,17.9677764 71.4658378,17.9137777 71.3429059,17.8785568 C71.2031114,17.8327939 71.0573052,17.8080068 70.9102414,17.8050039 C70.7426358,17.7949544 70.5782979,17.854429 70.4559437,17.9694164 C70.3429974,18.0842689 70.2833619,18.2412044 70.2915312,18.4020808 C70.2905754,18.5019473 70.3112391,18.6008383 70.3521043,18.691966 C70.3902701,18.7765646 70.4463694,18.8518558 70.5165168,18.9126249 C70.6528976,19.0078821 70.7977254,19.0904339 70.9491812,19.1592437 L71.2866595,19.3193295 C71.5285415,19.4172863 71.7362097,19.5843238 71.8837365,19.7995871 C72.0051134,20.0158787 72.064965,20.2612702 72.0568023,20.5091568 C72.0586658,20.8166811 71.9200571,21.1082373 71.6803842,21.3009328 C71.3984417,21.5317687 71.0404779,21.6490327 70.6766026,21.6297578 C70.3426206,21.6402025 70.0134531,21.548096 69.7333941,21.3658325 M66.4537973,17.9045167 L66.4537973,19.0554042 L67.8253437,19.0554042 L67.8253437,19.5399884 L66.4105309,19.5399884 L66.4105309,21.0326809 L68.2926214,21.0326809 L68.2926214,21.5432249 L65.8437404,21.5432249 L65.8437404,17.3939726 L68.3229079,17.3939726 L68.3229079,17.9045167 L66.4537973,17.9045167 Z M63.425146,21.5432249 L63.425146,17.3939726 L63.9919365,17.3939726 L63.9919365,21.5432249 L63.425146,21.5432249 Z M59.6220253,17.9045167 L59.6220253,19.2674098 C59.7522571,19.2879217 59.8839132,19.2980491 60.01575,19.2976963 C60.2745638,19.3170177 60.5333487,19.2598443 60.7599329,19.1332838 C60.9313219,18.9885614 61.019004,18.7677322 60.9935717,18.5448601 C61.0090549,18.3440524 60.9125624,18.1510674 60.7426263,18.0429693 C60.4975438,17.9255825 60.2263171,17.8734236 59.9551769,17.8915368 C59.8410875,17.8893274 59.7269653,17.8936612 59.613372,17.9045167 L59.6220253,17.9045167 Z M61.3526832,21.5432249 L60.2450621,19.7606473 C60.1152628,19.7606473 59.9162371,19.7606473 59.6436585,19.7346874 L59.6436585,21.5432249 L59.0552348,21.5432249 L59.0552348,17.3939726 L59.4878993,17.3939726 C59.7604779,17.3939726 59.9595036,17.3723394 60.0849763,17.3723394 C61.0801046,17.3723394 61.5776687,17.7660641 61.5776687,18.5621667 C61.5803251,18.817385 61.4964447,19.0659761 61.3397033,19.2674098 C61.2003607,19.4615738 60.9963136,19.5996508 60.7642595,19.6568078 L61.9713934,21.5648582 L61.3526832,21.5432249 Z M54.607444,19.4318223 C54.5935609,19.8477771 54.6906266,20.2599331 54.888676,20.6259762 C55.0382012,20.9271347 55.3486426,21.1144119 55.6847786,21.1062338 C56.0356379,21.1264763 56.3717152,20.9625362 56.5717408,20.6735693 C56.7957865,20.302919 56.901443,19.8727462 56.8746059,19.4404756 C56.8746059,18.3717943 56.4808812,17.839617 55.6847786,17.839617 C55.3589044,17.8265314 55.0519047,17.9924772 54.8843493,18.2722815 C54.6733671,18.621548 54.5667713,19.0239097 54.5771575,19.4318223 L54.607444,19.4318223 Z M54.0146937,19.4318223 C53.9888606,18.8959436 54.1409807,18.3665658 54.4473582,17.9261499 C54.7269035,17.5325867 55.1849731,17.3051763 55.667472,17.3204197 C56.1730865,17.2888963 56.6644066,17.4953468 56.9957519,17.8785568 C57.324539,18.3272569 57.4867099,18.8764961 57.4543763,19.4318223 C57.4875671,20.0040152 57.3242249,20.5703698 56.9914253,21.0370075 C56.6678614,21.4303981 56.1760075,21.6457851 55.667472,21.6167779 C55.1746207,21.6381757 54.705452,21.4044088 54.425725,20.9980677 C54.1145648,20.5367742 53.9598557,19.9877086 53.9844072,19.4318223 L54.0146937,19.4318223 Z M51.7518585,17.9045167 L51.7518585,21.5432249 L51.1850681,21.5432249 L51.1850681,17.9045167 L49.8654414,17.9045167 L49.8654414,17.3939726 L53.1320582,17.3939726 L53.1320582,17.9045167 L51.7518585,17.9045167 Z M47.775672,18.4237141 L47.1310019,20.2538848 L48.3640957,20.2538848 L47.775672,18.4237141 Z M48.8140667,21.5432249 L48.5241815,20.677896 L46.9406296,20.677896 L46.6377644,21.5432249 L46.0017477,21.5432249 L47.6891391,17.3333996 L47.836245,17.3333996 L49.4024904,21.5432249 L48.8140667,21.5432249 Z M42.7567641,17.9045167 L42.7567641,19.2674098 C42.8869959,19.2879217 43.018652,19.2980491 43.1504888,19.2976963 C43.4093026,19.3170177 43.6680875,19.2598443 43.8946717,19.1332838 C44.0660607,18.9885614 44.1537428,18.7677322 44.1283105,18.5448601 C44.1437937,18.3440524 44.0473012,18.1510674 43.8773651,18.0429693 C43.6322826,17.9255825 43.3610559,17.8734236 43.0899157,17.8915368 C42.965736,17.8881175 42.8414639,17.8924526 42.7178243,17.9045167 L42.7567641,17.9045167 Z M44.487422,21.5432249 L43.3798009,19.7606473 C43.2500016,19.7606473 43.0509759,19.7606473 42.7783973,19.7346874 L42.7783973,21.5432249 L42.2116069,21.5432249 L42.2116069,17.3939726 L42.6442713,17.3939726 C42.91685,17.3939726 43.1158756,17.3723394 43.2370217,17.3723394 C44.2364766,17.3723394 44.7340407,17.7660641 44.7340407,18.5621667 C44.7366971,18.817385 44.6528167,19.0659761 44.4960753,19.2674098 C44.3559376,19.4607546 44.1522208,19.5986081 43.9206315,19.6568078 L45.1277654,21.5648582 L44.487422,21.5432249 Z M37.7421828,19.4318223 C37.7282997,19.8477771 37.8253654,20.2599331 38.0234148,20.6259762 C38.17294,20.9271347 38.4833814,21.1144119 38.8195174,21.1062338 C39.1628414,21.1188835 39.4889717,20.9558183 39.6848463,20.6735693 C39.9088921,20.302919 40.0145485,19.8727462 39.9877115,19.4404756 C39.9877115,18.3717943 39.5939868,17.839617 38.7978842,17.839617 C38.4720099,17.8265314 38.1650103,17.9924772 37.9974549,18.2722815 C37.78344,18.6206323 37.6738246,19.0230558 37.6816098,19.4318223 L37.7421828,19.4318223 Z M37.1494325,19.4318223 C37.1235994,18.8959436 37.2757195,18.3665658 37.582097,17.9261499 C37.8616423,17.5325867 38.3197119,17.3051763 38.8022108,17.3204197 C39.3074822,17.2909101 39.7979471,17.4970012 40.1304907,17.8785568 C40.4592778,18.3272569 40.6214487,18.8764961 40.5891151,19.4318223 C40.6223058,20.0040152 40.4589637,20.5703698 40.1261641,21.0370075 C39.8026002,21.4303981 39.3107463,21.6457851 38.8022108,21.6167779 C38.3147154,21.6346266 37.8516619,21.4030999 37.5734437,21.0023943 C37.246072,20.5451732 37.0760171,19.994013 37.0888595,19.4318223 L37.1494325,19.4318223 Z M33.6881167,19.4794154 L33.6881167,21.0629674 C33.8828157,21.0629674 34.0299217,21.0889272 34.1207812,21.0889272 C34.3953799,21.1121146 34.6697718,21.0419922 34.8995772,20.8899016 C35.077456,20.7286319 35.1688566,20.4929146 35.146196,20.2538848 C35.1618145,20.0298899 35.0760505,19.8107155 34.9125572,19.6568078 C34.6798111,19.5083543 34.4043564,19.4413929 34.1294345,19.4664355 L33.6881167,19.4794154 Z M33.6881167,17.8439437 L33.6881167,19.0380976 C33.8322423,19.0455367 33.9766556,19.0455367 34.1207812,19.0380976 C34.6572851,19.0380976 34.9255371,18.8217654 34.9255371,18.3847743 C34.9255371,17.9477832 34.6789184,17.8093305 34.1856809,17.8093305 C33.9606953,17.8266371 33.7919562,17.8309637 33.6448503,17.8439437 L33.6881167,17.8439437 Z M34.3025003,21.5432249 L33.0953664,21.5432249 L33.0953664,17.3939726 C33.6015838,17.3680128 33.9606953,17.3550328 34.1900075,17.3550328 C34.5277699,17.3351453 34.8625749,17.4279776 35.1418694,17.6189582 C35.3703476,17.8036911 35.4959492,18.0870998 35.4793476,18.3804476 C35.4772418,18.5762817 35.399765,18.7637755 35.2630154,18.9039716 C35.140093,19.0514924 34.9734015,19.1560534 34.7870845,19.2025101 C35.0627111,19.2527966 35.3146677,19.3909174 35.5053075,19.5962348 C35.6659885,19.8115186 35.7456503,20.0765473 35.730293,20.3447443 C35.7399173,20.6794999 35.5926931,20.9995526 35.3322417,21.2100733 C35.025664,21.4453707 34.6451656,21.5635093 34.2592338,21.5432249 L34.3025003,21.5432249 Z M30.0667151,18.4237141 L29.422045,20.2538848 L30.6551388,20.2538848 L30.0667151,18.4237141 Z M31.1051098,21.5432249 L30.8195513,20.677896 L29.2533059,20.677896 L28.9504407,21.5432249 L28.3360572,21.5432249 L30.0234486,17.3333996 L30.1705545,17.3333996 L31.7367999,21.5432249 L31.1051098,21.5432249 Z M24.8833947,21.5432249 L24.8833947,17.3939726 L25.4501851,17.3939726 L25.4501851,21.0326809 L27.3236223,21.0326809 L27.3236223,21.5432249 L24.8833947,21.5432249 Z" id="Shape" fill-rule="nonzero"></path>
      <rect id="Rectangle" fill-rule="nonzero" x="19.9683262" y="3.67418215" width="1.37154638" height="17.1854329"></rect>
      <path d="M1.76613182,6.67254696 L8.12197294,0.321032476 C8.35783056,0.0556383183 8.72132268,-0.0572164027 9.06601464,0.027932414 C9.41070661,0.113081231 9.67983735,0.382211969 9.76498617,0.726903936 C9.85013498,1.0715959 9.73728026,1.43508802 9.4718861,1.67094564 L3.12037162,8.01813347 C2.8857337,8.2925782 2.51700427,8.41224832 2.1659204,8.32789799 C1.81483653,8.24354765 1.54071764,7.96942876 1.4563673,7.61834489 C1.37201697,7.26726102 1.49168709,6.89853159 1.76613182,6.66389367" id="Path"></path>
      <path d="M8.36859169,18.2982414 L14.7244328,11.9424003 C14.9602904,11.6770061 15.3237826,11.5641514 15.6684745,11.6493002 C16.0131665,11.734449 16.2822972,12.0035797 16.367446,12.3482717 C16.4525949,12.6929637 16.3397401,13.0564558 16.074346,13.2923134 L9.73148479,19.6481545 C9.49562717,19.9135487 9.13213506,20.0264034 8.78744309,19.9412546 C8.44275112,19.8561058 8.17362038,19.586975 8.08847157,19.2422831 C8.00332275,18.8975911 8.11617747,18.534099 8.38157163,18.2982414" id="Path"></path>
      <path d="M7.33885025,22.8628516 L13.6946914,16.5070105 C13.9352721,16.2593211 14.290705,16.1605804 14.624571,16.2486861 C14.958437,16.3367919 15.2188662,16.5980558 15.3059031,16.9322021 C15.3929401,17.2663483 15.2930625,17.6214633 15.0446045,17.8612503 L8.69309005,24.2127647 C8.45330313,24.4612227 8.09818808,24.5611003 7.76404184,24.4740633 C7.42989561,24.3870264 7.16863167,24.1265972 7.08052592,23.7927312 C6.99242017,23.4588652 7.09116086,23.1034323 7.33885025,22.8628516" id="Path"></path>
      <path d="M1.07819531,11.202544 L7.4210565,4.84670288 C7.66084342,4.5982449 8.01595847,4.49836734 8.3501047,4.58540427 C8.68425094,4.6724412 8.94551487,4.93287043 9.03362062,5.26673643 C9.12172637,5.60060244 9.02298569,5.95603528 8.7752963,6.19661603 L2.41945518,12.5524572 C2.18773775,12.8336044 1.81638631,12.9586406 1.46180969,12.8749022 C1.10723307,12.7911637 0.831055044,12.5132039 0.749598536,12.1580961 C0.668142028,11.8029883 0.7955638,11.4324486 1.07819531,11.202544" id="Path"></path>
      <path d="M0.321032476,15.4426558 L6.67254696,9.08681472 C6.90718488,8.81236999 7.27591431,8.69269987 7.62699818,8.7770502 C7.97808205,8.86140054 8.25220094,9.13551943 8.33655128,9.4866033 C8.42090161,9.83768717 8.30123149,10.2064166 8.02678676,10.4410545 L1.67094564,16.792569 C1.43508802,17.0579632 1.0715959,17.1708179 0.726903936,17.0856691 C0.382211969,17.0005203 0.113081231,16.7313895 0.027932414,16.3866975 C-0.0572164027,16.0420056 0.0556383183,15.6785135 0.321032476,15.4426558" id="Path"></path>
      <path d="M4.72988347,14.746066 L11.0857246,8.39022492 C11.3284091,8.14908616 11.6813049,8.05573541 12.0114794,8.14533699 C12.341654,8.23493857 12.598946,8.49387987 12.686436,8.82462021 C12.773926,9.15536055 12.6783223,9.50765261 12.4356378,9.74879137 L6.08412327,16.1003058 C5.84948535,16.3747506 5.48075592,16.4944207 5.12967205,16.4100704 C4.77858818,16.32572 4.50446929,16.0516011 4.42011895,15.7005173 C4.33576862,15.3494334 4.45543874,14.980704 4.72988347,14.746066" id="Path"></path>
      <path d="M9.08681472,13.9975565 L15.4426558,7.64171538 C15.6785135,7.37632122 16.0420056,7.2634665 16.3866975,7.34861532 C16.7313895,7.43376413 17.0005203,7.70289487 17.0856691,8.04758684 C17.1708179,8.3922788 17.0579632,8.75577092 16.792569,8.99162854 L10.4367279,15.3474697 C10.2008703,15.6128638 9.83737815,15.7257185 9.49268618,15.6405697 C9.14799422,15.5554209 8.87886348,15.2862902 8.79371466,14.9415982 C8.70856584,14.5969062 8.82142056,14.2334141 9.08681472,13.9975565" id="Path"></path>
      <path d="M34.8260243,3.19825123 L34.35442,4.58710419 L28.0245388,4.62604399 C26.7265453,4.98515551 26.8823045,7.05761834 28.0245388,7.39509663 C29.2403259,8.38157163 30.8628177,8.51569762 31.5594075,9.558419 C33.2294924,12.0289331 32.1002381,14.5946335 29.8633628,15.2393035 L24.4074638,15.3171831 L24.9136812,13.7466111 L28.8076615,13.6860381 C30.7762848,13.6557516 31.6892069,10.9429453 29.3787786,9.97377689 C28.3216081,9.70404176 27.3393546,9.19812206 26.5058864,8.49406439 C24.5762029,6.7634065 25.207893,3.19825123 28.3576904,3.17229136 L34.8260243,3.19825123 Z" id="Path"></path>
      <polygon id="Path" points="36.3100634 3.12037162 38.434446 3.12037162 41.0131263 9.3074736 40.1824105 11.4621427 37.521524 5.01976866 33.9953085 15.2522835 32.1002381 15.2522835"></polygon>
      <polygon id="Path" points="39.3819812 15.2349769 43.6653595 3.21123116 45.802722 3.21123116 48.2948694 9.60601209 47.5550131 11.7433746 44.7340407 5.1106282 41.0996592 15.3258364"></polygon>
      <polygon id="Path" points="46.6983375 15.2998766 51.0076756 3.21123116 53.0325454 3.21123116 57.4111098 15.28257 55.6891052 15.2912233 52.0763569 4.88996932 48.4203421 15.2912233"></polygon>
      <path d="M53.9800806,3.16796472 L54.5209111,4.60441077 L61.4435427,4.60441077 C65.2207036,4.37942524 65.2250302,8.66713018 61.4435427,8.36859169 L57.9822269,8.36859169 L58.0168401,15.2912233 L59.808071,15.2912233 L59.808071,9.8483042 L60.7123398,9.8483042 L65.4240559,15.2912233 L67.7388108,15.2912233 L63.0573812,9.86561078 C66.9297283,9.15171439 67.4186391,3.03383873 61.9670667,3.17229136 L53.9800806,3.16796472 Z" id="Path"></path>
      <polygon id="Path" points="65.7874941 3.12037162 74.8301816 3.12037162 74.8301816 4.63902393 71.1568602 4.63902393 71.1568602 15.2998766 69.478122 15.2998766 69.478122 4.65633051 65.7528809 4.65633051"></polygon>
      <path d="M69.088724,30.1705545 C69.091309,30.058299 69.0628626,29.9475077 69.0065177,29.8503828 C68.9518772,29.7540277 68.8687513,29.6769474 68.7685523,29.629724 C68.6505294,29.5753378 68.5220849,29.5472867 68.3921342,29.5475177 C68.2537423,29.5487633 68.1164402,29.5721339 67.9854296,29.616744 C67.8310855,29.6625313 67.6850302,29.7326378 67.5527651,29.824423 C67.4083791,29.924133 67.2799965,30.0452212 67.1720204,30.1835345 L67.2066335,30.0537351 C67.2066335,30.0018154 67.23692,29.9498957 67.2499,29.8979759 C67.2628799,29.8460562 67.2758598,29.7898098 67.2888398,29.7465434 L67.3191263,29.629724 L67.4013325,29.227346 C67.4272924,29.0802401 67.4532523,28.9374608 67.4705589,28.7946815 C67.4871078,28.6669789 67.4957775,28.5383784 67.4965187,28.4096101 C67.4965187,28.3403838 67.4965187,28.2754841 67.4965187,28.2192378 C67.49016,28.1666607 67.4800385,28.1146075 67.4662322,28.0634786 L66.847522,28.2927907 C66.8613283,28.3439196 66.8714498,28.3959729 66.8778085,28.4485499 C66.8824073,28.5090357 66.8824073,28.5697833 66.8778085,28.630269 C66.8786085,28.7302008 66.8713742,28.8300351 66.8561753,28.9288075 C66.8561753,29.0369736 66.8215621,29.153793 66.7956023,29.2835924 L66.0384395,32.9093207 L66.6268631,32.9093207 L67.0595276,30.7459983 C67.1656255,30.6135469 67.2844557,30.4918184 67.4143125,30.3825601 C67.5268802,30.2854273 67.6520399,30.203928 67.7864039,30.140268 C67.8978837,30.0913994 68.0200604,30.07203 68.1411888,30.0840217 C68.2284083,30.0777785 68.3143863,30.10748 68.3791543,30.1662279 C68.4439882,30.2276483 68.4774142,30.3151926 68.4700138,30.4041934 C68.4735184,30.4502777 68.4735184,30.4965617 68.4700138,30.542646 C68.4700138,30.5988924 68.4700138,30.6551388 68.4397273,30.7157118 L68.0070628,32.9309539 L68.5825066,32.9309539 L69.0670908,30.5902391 C69.0670908,30.5080328 69.0973773,30.4344799 69.1060306,30.3652536 C69.1116292,30.3062553 69.1116292,30.2468594 69.1060306,30.1878611 M66.5100437,29.6383772 L65.726921,29.6383772 L65.800474,29.3138789 C65.8307605,29.2013861 65.861047,29.0888934 65.8956602,28.9764006 C65.9302733,28.8639078 65.9605598,28.7687216 65.9908464,28.6821888 L65.3505029,28.824968 C65.3115631,28.9504407 65.2726233,29.0845667 65.2380102,29.2230193 C65.203397,29.361472 65.1644572,29.4999246 65.1341707,29.6556838 L64.7361194,29.6556838 L64.6539131,30.0883483 L65.0433112,30.0883483 L64.6452598,32.0266851 C64.6282866,32.1051208 64.6167216,32.1846298 64.6106467,32.2646506 C64.6062414,32.3395811 64.6062414,32.4147056 64.6106467,32.4896361 C64.6017374,32.6400066 64.6585737,32.7868339 64.7664059,32.8920141 C64.895604,32.9961176 65.0595713,33.047164 65.2250302,33.0347934 C65.3340981,33.0344309 65.4428383,33.0228319 65.5495286,33.0001802 C65.6541283,32.977284 65.7557501,32.9424423 65.8523937,32.8963407 L65.8523937,32.5242493 L65.6966345,32.5718424 C65.6377011,32.5786751 65.5781755,32.5786751 65.5192421,32.5718424 C65.4347112,32.5793663 65.3502834,32.5563405 65.2812766,32.5069427 C65.2227011,32.4422799 65.1943853,32.3557595 65.203397,32.2689772 C65.1996488,32.2185693 65.1996488,32.1679526 65.203397,32.1175447 C65.203397,32.0612983 65.203397,31.9963986 65.2380102,31.9271723 L65.6230816,30.0710417 L66.2807316,30.0710417 L66.5100437,29.6383772 Z M64.4808473,28.0851118 L63.8534839,28.314424 C63.8674477,28.3608969 63.8761555,28.4087893 63.8794437,28.4572032 C63.8840775,28.5162433 63.8840775,28.5755556 63.8794437,28.6345957 C63.8851705,28.7340261 63.8851705,28.8337037 63.8794437,28.9331341 C63.8794437,29.0413003 63.8491572,29.1624463 63.8231973,29.2922457 L63.2261204,32.1910976 C63.2090017,32.2578127 63.1974246,32.3258282 63.1915072,32.3944499 C63.1857702,32.449104 63.1857702,32.5042084 63.1915072,32.5588624 C63.1848475,32.6812984 63.2304507,32.8008104 63.3169799,32.8876874 C63.4186809,32.9717598 63.5487784,33.0135769 63.6804181,33.0045069 C63.7523856,33.0109351 63.8247828,33.0109351 63.8967503,33.0045069 C63.9694765,32.9923734 64.0405971,32.9720533 64.1087559,32.9439338 L64.0741427,32.5545358 C64.0556536,32.5589485 64.0363855,32.5589485 64.0178964,32.5545358 L63.96165,32.5545358 C63.9204757,32.5569621 63.8800201,32.5429582 63.8491572,32.515596 C63.8242036,32.4803132 63.811997,32.4375901 63.8145441,32.3944499 C63.8145441,32.3598368 63.8145441,32.3165703 63.8145441,32.260324 C63.8252881,32.1903821 63.8397305,32.1210586 63.8578105,32.052645 L64.4462342,29.2403259 C64.4462342,29.1581197 64.4765207,29.0672601 64.4895006,28.9764006 C64.5024806,28.8855411 64.5154605,28.7903549 64.5241138,28.6994953 C64.5327671,28.6086358 64.5241138,28.5177763 64.5241138,28.43557 C64.5286262,28.3707488 64.5286262,28.3056922 64.5241138,28.240871 C64.5093396,28.1814269 64.489061,28.1234881 64.4635408,28.0678052 L64.4808473,28.0851118 Z M62.317525,30.1186348 L61.9713934,31.7757397 C61.9084744,31.9081951 61.8284717,32.0318357 61.7334279,32.1435045 C61.6462103,32.2465491 61.5423825,32.3342909 61.4262362,32.4031032 C61.3280555,32.4622097 61.2162897,32.4949943 61.1017378,32.4982894 C61.0232809,32.503334 60.9450648,32.4852841 60.8767523,32.4463697 C60.811902,32.404561 60.7631053,32.3420403 60.7382996,32.2689772 C60.7041043,32.1657932 60.6880029,32.0574746 60.6907066,31.9488055 C60.6911712,31.8214647 60.6998425,31.6942862 60.7166664,31.5680608 C60.7346735,31.4339441 60.7606797,31.3010233 60.794546,31.1700095 C60.827504,31.039256 60.8724012,30.9118058 60.928672,30.7892647 C60.9811003,30.6731575 61.0479704,30.5641302 61.1276977,30.4647664 C61.2041811,30.3713107 61.2913025,30.2870934 61.3872964,30.213821 C61.4667533,30.1550406 61.5561591,30.1110705 61.6512217,30.0840217 C61.7539309,30.0551568 61.8604223,30.0420277 61.9670667,30.0450818 C62.0301883,30.0358486 62.0943175,30.0358486 62.1574391,30.0450818 C62.2037322,30.0518023 62.2488704,30.0649069 62.2915651,30.0840217 L62.317525,30.1186348 Z M62.9838283,29.8157697 C62.8521851,29.7249351 62.7057984,29.6575973 62.5511638,29.616744 C62.3845085,29.573106 62.2128927,29.5512904 62.0406197,29.5518341 C61.7996854,29.551106 61.5611502,29.5996965 61.3397033,29.6946236 C61.1222796,29.7900588 60.9253976,29.9267009 60.7599329,30.0970016 C60.6522795,30.2114553 60.5579343,30.3377326 60.478701,30.4734197 C60.3916315,30.6181653 60.3205459,30.7719424 60.2666954,30.932044 C60.2068506,31.0964051 60.1619599,31.2658313 60.1325694,31.4382615 C60.1033164,31.6083149 60.0888402,31.7805816 60.0893029,31.9531322 C60.0808923,32.1548949 60.1178554,32.3559741 60.1974691,32.5415559 C60.3053825,32.8236459 60.5791363,33.0073036 60.8810789,33.0001802 C61.0963107,33.0011586 61.3080756,32.9459804 61.4954625,32.8400944 C61.6744491,32.7354249 61.8234575,32.5864165 61.9281269,32.4074299 L61.9281269,32.4636763 C61.9251417,32.5730976 61.9442725,32.6819958 61.9843733,32.783848 C62.0245736,32.8819019 62.0850225,32.9703638 62.1617658,33.0434467 L62.6420233,32.6670286 C62.5915372,32.6154709 62.5505285,32.5554225 62.5208773,32.4896361 C62.491336,32.4123145 62.4766569,32.3301112 62.4776108,32.247344 C62.4737606,32.1897197 62.4737606,32.1319026 62.4776108,32.0742782 C62.4776108,32.0108208 62.4905908,31.9372678 62.5165506,31.8536194 L62.7891293,30.5296661 C62.7891293,30.4517865 62.8237424,30.3652536 62.8453756,30.2787207 L62.9102753,30.019122 C62.9189286,29.9282624 62.9492151,29.8547095 62.9492151,29.7984631 L62.9838283,29.8157697 Z M59.4749194,30.4474598 C59.4758431,30.5171814 59.4625954,30.5863641 59.4359796,30.6508121 C59.405494,30.7111577 59.3661146,30.7665805 59.3191602,30.8152246 C59.2630202,30.8714772 59.1970257,30.9169401 59.1244612,30.9493506 C59.0300182,30.986595 58.9311081,31.0113226 58.8302493,31.0229036 C58.6868777,31.042342 58.5422521,31.0510195 58.3975848,31.0488634 L58.1899059,31.0488634 L58.0990464,31.0488634 C58.1454783,30.8539044 58.221344,30.6671579 58.3240319,30.4950529 C58.4052794,30.3596797 58.5144239,30.2431606 58.6442036,30.153248 C58.7524205,30.0747657 58.8826152,30.0323768 59.016295,30.0321019 C59.1075465,30.0289809 59.1981702,30.0482942 59.2802204,30.0883483 C59.3446808,30.1231615 59.3962504,30.1777645 59.4273263,30.2441075 C59.4465677,30.3041258 59.453916,30.3673212 59.4489595,30.4301532 L59.4749194,30.4474598 Z M60.0676697,30.4214999 C60.0742445,30.2569458 60.0353206,30.0937647 59.9551769,29.9498957 C59.8798584,29.8191788 59.7646074,29.7160595 59.6263519,29.6556838 C59.461959,29.5818726 59.2829477,29.5463662 59.1028279,29.5518443 C58.9097182,29.5514984 58.7184862,29.5897448 58.5403641,29.6643371 C58.351208,29.7465798 58.1794173,29.8640435 58.0341467,30.0104687 C57.9216068,30.1266065 57.8215475,30.2542183 57.7356082,30.3912134 C57.6460728,30.5273958 57.5706862,30.6723701 57.5106227,30.8238779 C57.3900927,31.1374211 57.3270698,31.4701236 57.3245769,31.8060263 C57.3180707,32.0294223 57.3671313,32.2509387 57.4673562,32.4506963 C57.5515192,32.6207537 57.6839561,32.7622203 57.848101,32.8574009 C58.0230924,32.9531491 58.2197558,33.002315 58.4192181,33.0001802 C58.5951071,33.0022406 58.7706839,32.9848281 58.9427421,32.9482605 C59.0945651,32.918268 59.2406252,32.8642258 59.3754065,32.7881746 C59.5062328,32.7147026 59.6269489,32.6245291 59.7345181,32.5199226 L59.5225125,32.1435045 C59.4337056,32.2255428 59.3365467,32.2980494 59.2326273,32.3598368 C59.1384987,32.4113383 59.0381728,32.4505962 58.9340888,32.4766562 C58.823426,32.5018983 58.7100932,32.5135222 58.5966105,32.5112694 C58.4880961,32.5147068 58.3806088,32.4893279 58.2850921,32.4377164 C58.1895968,32.3899825 58.1121671,32.3125528 58.0644332,32.2170575 C58.007505,32.1029879 57.979286,31.9767448 57.9822269,31.8492927 C57.9801471,31.8089375 57.9801471,31.7685019 57.9822269,31.7281467 C57.9798439,31.6834697 57.9798439,31.6386976 57.9822269,31.5940207 C57.9822269,31.5464276 57.9822269,31.5074878 58.0038602,31.468548 L58.1855792,31.468548 C58.2576218,31.4729816 58.3298689,31.4729816 58.4019115,31.468548 C58.6017359,31.4689875 58.801315,31.4545253 58.9989885,31.4252815 C59.1483379,31.3991997 59.2937388,31.3541254 59.4316529,31.2911555 C59.5506352,31.2390983 59.6591323,31.1657895 59.7518246,31.0748233 C59.8452459,30.9875303 59.9189941,30.8813329 59.9681569,30.7633049 C60.0165875,30.6497694 60.0416046,30.5276269 60.0417098,30.4041934 L60.0676697,30.4214999 Z M57.3764967,28.4182634 L56.7534598,28.4182634 L56.3683885,30.2700674 L54.6593638,30.2700674 L55.0444352,28.4182634 L54.4387049,28.4182634 L53.5041496,32.9309539 L54.1098799,32.9309539 L54.5425444,30.7935914 L56.2429158,30.7935914 L55.8102513,32.9309539 L56.4376148,32.9309539 L57.3764967,28.4182634 Z M51.2672743,30.6810986 C51.2682588,30.8637129 51.253785,31.0460829 51.2240079,31.2262559 C51.1982144,31.3975914 51.1547151,31.5657887 51.0942085,31.7281467 C51.0463437,31.8824654 50.9748244,32.0284231 50.8822029,32.1608111 C50.8056191,32.2758898 50.705304,32.3732544 50.5879911,32.4463697 C50.4747925,32.5157211 50.3443181,32.551714 50.211573,32.5502092 C50.0522493,32.5645896 49.8944901,32.5093738 49.7789085,32.3987766 C49.6670868,32.2549843 49.6144601,32.0738863 49.6318026,31.8925592 C49.6311424,31.709957 49.645614,31.527614 49.675069,31.3474019 C49.7022793,31.1773184 49.7472333,31.0105535 49.809195,30.8498378 C49.8594606,30.6956903 49.9323686,30.5498742 50.0255273,30.4171733 C50.1045115,30.3053052 50.2044234,30.2098012 50.3197391,30.1359414 C50.4315941,30.0671572 50.5605219,30.0311773 50.6918306,30.0320845 C50.7902539,30.0316327 50.8876321,30.0522887 50.9773891,30.0926749 C51.0654748,30.1371768 51.1356998,30.2104551 51.1764148,30.3003539 C51.2259194,30.4148338 51.2481373,30.5392536 51.2413144,30.663792 L51.2672743,30.6810986 Z M51.916271,30.7286917 C51.9213443,30.5142622 51.8784773,30.3014052 51.7907983,30.1056549 C51.715539,29.9338045 51.5864683,29.7910675 51.4230335,29.6989503 C51.2340014,29.5986765 51.0225977,29.5480587 50.80865,29.5518443 C50.5570479,29.5520815 50.3092059,29.612929 50.0861003,29.7292368 C49.8621088,29.8444489 49.6669148,30.0085894 49.5149832,30.2094943 C49.3448808,30.4243304 49.2171433,30.6695277 49.1385651,30.932044 C49.0461903,31.2229618 49.0009104,31.526775 49.0044391,31.8319861 C48.9990237,32.0506357 49.041864,32.2677917 49.1299118,32.4680029 C49.2099836,32.6383518 49.3416913,32.7791428 49.5063299,32.8703809 C49.6899334,32.9680852 49.895465,33.0172341 50.1034069,33.0131601 C50.5170477,33.0165088 50.9163482,32.8617412 51.2196812,32.5804957 C51.3696434,32.4346746 51.4965661,32.2669032 51.5960993,32.0829315 C51.7022265,31.8849851 51.7822163,31.6741029 51.8340648,31.455568 C51.8821173,31.2105962 51.9009975,30.9607966 51.8903111,30.7113851 L51.916271,30.7286917 Z M49.3981638,29.6383772 L48.6193677,29.6383772 C48.6193677,29.5388644 48.6626342,29.4306983 48.6929207,29.3138789 L48.7837802,28.9764006 C48.8183934,28.8682345 48.8486799,28.7687216 48.8789664,28.6821888 L48.238623,28.824968 L48.1261302,29.2230193 L48.0222907,29.6556838 L47.6242394,29.6556838 L47.5420332,30.0883483 L47.9314312,30.0883483 L47.5377065,32.0266851 C47.5377065,32.113218 47.50742,32.1910976 47.4987667,32.2646506 C47.4901134,32.3382036 47.4987667,32.4117565 47.4987667,32.4896361 C47.4898574,32.6400066 47.5466938,32.7868339 47.6545259,32.8920141 C47.7841331,32.9953483 47.9477913,33.0462985 48.1131503,33.0347934 C48.2222181,33.0344309 48.3309583,33.0228319 48.4376486,33.0001802 C48.542444,32.9779877 48.6441475,32.943118 48.7405138,32.8963407 L48.7405138,32.5242493 L48.5847546,32.5718424 C48.5258328,32.578874 48.4662839,32.578874 48.4073621,32.5718424 C48.3229001,32.5786105 48.2387278,32.5556544 48.1693967,32.5069427 C48.1142008,32.4405629 48.087731,32.3549251 48.0958437,32.2689772 C48.0920955,32.2185693 48.0920955,32.1679526 48.0958437,32.1175447 C48.0958437,32.0612983 48.0958437,31.9963986 48.1261302,31.9271723 L48.5112016,30.0710417 L49.1688516,30.0710417 L49.3981638,29.6383772 Z M45.1493986,30.213821 L44.8205736,31.7930463 C44.7395792,31.9360481 44.6391055,32.0671008 44.5220352,32.1824444 C44.4238654,32.2780871 44.3096306,32.3557082 44.1845569,32.4117565 C44.0781501,32.4587042 43.9633712,32.4837201 43.8470786,32.4853095 C43.7199823,32.4944576 43.5972074,32.4371627 43.5225802,32.3338769 C43.4431413,32.2041046 43.4053903,32.0531004 43.4144141,31.9012124 C43.4161685,31.7735976 43.4277404,31.6463069 43.4490273,31.5204677 C43.4749871,31.3820151 43.5096003,31.2478891 43.5485401,31.1094365 C43.5918106,30.977748 43.6438467,30.8491034 43.7042993,30.7243651 C43.7550052,30.6172731 43.8189634,30.516975 43.8946717,30.4258266 C43.9556781,30.3576996 44.0255238,30.2980397 44.1023506,30.2484342 C44.176689,30.2000718 44.2565874,30.1608489 44.3403161,30.1316147 C44.4172321,30.1067574 44.4974542,30.0936301 44.5782815,30.0926749 C44.6560863,30.0878475 44.7341156,30.0878475 44.8119204,30.0926749 C44.8713537,30.1013284 44.9294853,30.1173146 44.9849861,30.140268 C45.0327901,30.1546581 45.0791429,30.173489 45.1234388,30.1965144 L45.1493986,30.213821 Z M46.1575069,28.2192378 L45.5820631,28.1240516 L45.3657309,29.2100394 C45.3657309,29.2533059 45.3657309,29.2965723 45.3354444,29.348492 C45.3051579,29.4004118 45.3354444,29.4566582 45.3051579,29.5042513 C45.2748713,29.5518443 45.3051579,29.5994374 45.279198,29.6383772 C45.281413,29.6585075 45.281413,29.67882 45.279198,29.6989503 C45.1988814,29.6540269 45.1108065,29.6246686 45.0195993,29.6124174 C44.8869163,29.5878346 44.7521533,29.5762421 44.6172213,29.5778042 C44.4914454,29.5786459 44.3663321,29.5961036 44.2451299,29.629724 C44.1125685,29.668513 43.9848365,29.7222185 43.8643852,29.7898098 C43.7376536,29.8598332 43.6223844,29.9488385 43.5225802,30.0537351 C43.3700526,30.2117277 43.2391154,30.3892203 43.1331822,30.5815858 C43.0278744,30.7799044 42.9479253,30.9906793 42.8952167,31.2089493 C42.8382831,31.4250195 42.8092031,31.6474813 42.8086838,31.8709259 C42.7882844,32.1658658 42.869183,32.4589324 43.037996,32.7016417 C43.2090357,32.9035233 43.4664033,33.011296 43.7302592,32.9915269 C43.9311605,32.9942114 44.1293584,32.9450345 44.3057029,32.8487476 C44.4930931,32.74135 44.6541982,32.5935472 44.7773072,32.4160832 L44.7773072,32.5026161 C44.7732928,32.6042959 44.7894688,32.7057632 44.8249003,32.8011545 C44.8575742,32.8813802 44.9028533,32.9558716 44.9590263,33.0218134 L45.4652437,32.770868 C45.427128,32.7198803 45.3978744,32.6628357 45.3787108,32.6021289 C45.3543532,32.5296743 45.3426446,32.4535688 45.3440977,32.3771434 C45.346015,32.298864 45.3532427,32.2208051 45.3657309,32.1435045 C45.3657309,32.0483184 45.3960174,31.9401522 45.4219773,31.8146795 L46.1575069,28.2192378 Z M42.1077674,30.4474598 C42.1086911,30.5171814 42.0954434,30.5863641 42.0688276,30.6508121 C42.038342,30.7111577 41.9989626,30.7665805 41.9520082,30.8152246 C41.8958682,30.8714772 41.8298737,30.9169401 41.7573092,30.9493506 C41.6628662,30.986595 41.5639561,31.0113226 41.4630973,31.0229036 C41.3197258,31.042342 41.1751001,31.0510195 41.0304328,31.0488634 L40.8141006,31.0488634 L40.7232411,31.0488634 C40.769673,30.8539044 40.8455387,30.6671579 40.9482266,30.4950529 C41.0294741,30.3596797 41.1386186,30.2431606 41.2683983,30.153248 C41.3766152,30.0747657 41.5068099,30.0323768 41.6404898,30.0321019 C41.7317412,30.0289809 41.8223649,30.0482942 41.9044151,30.0883483 C41.9688756,30.1231615 42.0204451,30.1777645 42.051521,30.2441075 C42.0736969,30.3035425 42.083987,30.3667534 42.0818075,30.4301532 L42.1077674,30.4474598 Z M42.7048444,30.4214999 C42.7101026,30.2565376 42.6696751,30.0933303 42.588025,29.9498957 C42.5127064,29.8191788 42.3974554,29.7160595 42.2592,29.6556838 C42.094807,29.5818726 41.9157957,29.5463662 41.7356759,29.5518443 C41.5425662,29.5514984 41.3513342,29.5897448 41.1732121,29.6643371 C40.984056,29.7465798 40.8122653,29.8640435 40.6669947,30.0104687 C40.5544548,30.1266065 40.4543955,30.2542183 40.3684562,30.3912134 C40.2789208,30.5273958 40.2035342,30.6723701 40.1434707,30.8238779 C40.0229407,31.1374211 39.9599178,31.4701236 39.957425,31.8060263 C39.9509187,32.0294223 39.9999793,32.2509387 40.1002042,32.4506963 C40.1843672,32.6207537 40.3168041,32.7622203 40.480949,32.8574009 C40.6559405,32.9531491 40.8526038,33.002315 41.0520661,33.0001802 C41.227966,33.0024921 41.4035707,32.9850768 41.5755901,32.9482605 C41.7274131,32.918268 41.8734733,32.8642258 42.0082546,32.7881746 C42.1390808,32.7147026 42.2597969,32.6245291 42.3673661,32.5199226 L42.1553605,32.1435045 C42.0665536,32.2255428 41.9693947,32.2980494 41.8654753,32.3598368 C41.7713467,32.4113383 41.6710208,32.4505962 41.5669368,32.4766562 C41.456274,32.5018983 41.3429413,32.5135222 41.2294585,32.5112694 C41.1209442,32.5147068 41.0134568,32.4893279 40.9179401,32.4377164 C40.8224448,32.3899825 40.7450151,32.3125528 40.6972812,32.2170575 C40.640353,32.1029879 40.612134,31.9767448 40.615075,31.8492927 C40.6129951,31.8089375 40.6129951,31.7685019 40.615075,31.7281467 C40.6126919,31.6834697 40.6126919,31.6386976 40.615075,31.5940207 C40.615075,31.5464276 40.615075,31.5074878 40.615075,31.468548 L40.796794,31.468548 C40.8688366,31.4729816 40.9410837,31.4729816 41.0131263,31.468548 C41.2129507,31.4689875 41.4125298,31.4545253 41.6102032,31.4252815 C41.7595527,31.3991997 41.9049536,31.3541254 42.0428677,31.2911555 C42.16185,31.2390983 42.270347,31.1657895 42.3630394,31.0748233 C42.4564311,30.9865645 42.5314258,30.8806897 42.5836983,30.7633049 C42.6359005,30.6499865 42.6681041,30.528491 42.6788845,30.4041934 L42.7048444,30.4214999 Z M40.3511496,29.5994374 L40.2429835,29.5691509 L40.0958776,29.5691509 C39.9826195,29.5734864 39.8717576,29.6030496 39.7713792,29.6556838 C39.6454211,29.7183941 39.5289038,29.7984997 39.4252476,29.8936493 C39.3029804,30.0062396 39.194096,30.1325455 39.1007493,30.2700674 C39.1007493,30.213821 39.1007493,30.1619013 39.1223825,30.1056549 C39.1440157,30.0494085 39.1223825,30.006142 39.1223825,29.9542223 C39.1270068,29.880742 39.1270068,29.8070437 39.1223825,29.7335634 C39.1102413,29.6702213 39.0928754,29.6079934 39.0704628,29.5475177 L38.5166523,29.7984631 C38.5347828,29.8472037 38.5464204,29.8981183 38.5512654,29.9498957 C38.555556,30.0060602 38.555556,30.0624703 38.5512654,30.1186348 C38.5568181,30.2050786 38.5568181,30.2917897 38.5512654,30.3782335 C38.5512654,30.4777463 38.5209789,30.5945657 38.495019,30.7243651 L38.0363947,32.9396072 L38.6161651,32.9396072 L39.0488296,30.8541644 C39.1678425,30.6666918 39.3136029,30.4976098 39.481494,30.3522736 C39.6017966,30.2475763 39.7547379,30.1879292 39.9141585,30.1835345 C39.9543871,30.1785564 39.995076,30.1785564 40.0353046,30.1835345 C40.0681218,30.1875389 40.1001844,30.1962832 40.1304907,30.2094943 L40.3511496,29.5994374 Z M38.239747,28.6519022 C38.2391298,28.5748815 38.2198286,28.4991613 38.1835006,28.4312434 C38.147091,28.36729 38.0949706,28.3136805 38.032068,28.2754841 C37.9684179,28.2359474 37.8949924,28.2149687 37.8200624,28.2149111 C37.7424064,28.214934 37.6661878,28.2358567 37.5994036,28.2754841 C37.5375932,28.3150353 37.4857657,28.3683436 37.447971,28.4312434 C37.4102966,28.4988417 37.3895158,28.5745432 37.387398,28.6519022 C37.3889895,28.7293386 37.4098046,28.8051649 37.447971,28.8725611 C37.4857657,28.9354609 37.5375932,28.9887692 37.5994036,29.0283203 C37.6667997,29.0664867 37.7426261,29.0873018 37.8200624,29.0888934 C37.8947762,29.0873499 37.9678164,29.0664813 38.032068,29.0283203 C38.0949706,28.990124 38.147091,28.9365144 38.1835006,28.8725611 C38.2143286,28.797278 38.2247748,28.7152007 38.2137871,28.6345957 L38.239747,28.6519022 Z M37.9282286,29.5648243 L37.2922118,29.6643371 L36.6129286,32.9309539 L37.2273121,32.9309539 L37.9282286,29.5648243 Z M35.7649062,30.6681187 C35.7648784,30.7913287 35.7547489,30.9143289 35.7346197,31.0358835 C35.7176336,31.1690859 35.6901459,31.3007374 35.6524134,31.4296082 C35.6190438,31.5591549 35.5771278,31.6863483 35.5269407,31.8103529 C35.4836398,31.9212342 35.4285175,32.0271271 35.3625282,32.126198 C35.2559647,32.2810537 35.1051789,32.4001745 34.9298638,32.4680029 C34.8395498,32.5061617 34.7423439,32.5253083 34.6443052,32.5242493 C34.5289069,32.5258936 34.4138491,32.5113293 34.3025003,32.4809828 C34.2075712,32.4526762 34.1192932,32.4055946 34.0429016,32.3425302 L34.3673999,30.7719582 C34.4647715,30.638955 34.5749028,30.5157818 34.6962249,30.4041934 C34.7971019,30.3130877 34.9108068,30.2372843 35.0337032,30.1792078 C35.1299602,30.1338469 35.2345321,30.1088086 35.340895,30.1056549 C35.4254235,30.1002838 35.5096695,30.1198409 35.5831871,30.1619013 C35.6501932,30.2043281 35.7005973,30.2684787 35.7259664,30.3436203 C35.7539398,30.4434917 35.7656275,30.54722 35.7605796,30.6508121 L35.7649062,30.6681187 Z M36.4052496,30.6378322 C36.4093144,30.4463862 36.3785269,30.2557971 36.3143901,30.0753684 C36.2585358,29.9267875 36.1608598,29.7975546 36.0331582,29.7032769 C35.8957893,29.61359 35.7341795,29.5682788 35.5702072,29.5734776 C35.438808,29.5740606 35.3085106,29.5974848 35.1851358,29.6427039 C35.0460651,29.692935 34.9149276,29.762875 34.7957378,29.8503828 C34.6619707,29.9487181 34.5425606,30.0652158 34.4409529,30.1965144 C34.4409529,30.1489213 34.4409529,30.1056549 34.4625861,30.0667151 C34.464666,30.0263598 34.464666,29.9859243 34.4625861,29.945569 C34.4632602,29.8697894 34.4545404,29.7942183 34.4366263,29.7205835 C34.4243499,29.6581935 34.4054958,29.5972803 34.3803799,29.5388644 L33.830896,29.7898098 C33.830896,29.8417295 33.8568559,29.8936493 33.8655092,29.9498957 C33.8741624,30.006142 33.8655092,30.0580618 33.8655092,30.1186348 C33.8694311,30.1906922 33.8694311,30.2629096 33.8655092,30.334967 C33.8655092,30.4128467 33.8395493,30.4993795 33.8222427,30.5945657 L33.0477733,34.3154802 L33.6535036,34.1856809 L33.9304088,32.8530743 C34.0311422,32.9077952 34.1388546,32.9485512 34.2505805,32.9742203 C34.3928658,33.0035178 34.5380151,33.0165812 34.683245,33.0131601 C34.8301806,33.0126227 34.9761415,32.989269 35.1159095,32.9439338 C35.2576382,32.8994429 35.3918352,32.8338031 35.5139608,32.7492348 C35.6412176,32.6610607 35.7574266,32.5579253 35.8600924,32.442043 C35.9541316,32.326502 36.0340203,32.2001326 36.0980578,32.0656249 C36.1704468,31.9171662 36.2326068,31.7639345 36.2841036,31.6070006 C36.3316967,31.4382615 36.3706365,31.273849 36.400923,31.1094365 C36.4138031,30.9467207 36.4138031,30.7832414 36.400923,30.6205256 L36.4052496,30.6378322 Z M33.2424723,29.7725032 C33.1551882,29.7169336 33.0623932,29.6705361 32.965567,29.6340506 C32.8586785,29.5946652 32.7486881,29.5642731 32.636742,29.5431911 C32.5210979,29.5223745 32.4037846,29.5122364 32.2862838,29.5129045 C32.0926912,29.5087977 31.8997419,29.5365707 31.7151667,29.5951108 C31.5581338,29.6444419 31.4114845,29.7221661 31.2825022,29.824423 C31.1694022,29.9176019 31.0778775,30.0342222 31.0142503,30.1662279 C30.9505808,30.3013714 30.9194626,30.4495534 30.9233907,30.5988924 C30.9203315,30.7165955 30.9440003,30.8334602 30.992617,30.9406973 C31.0398742,31.0415237 31.1111933,31.1291868 31.200296,31.1959693 C31.3040077,31.2773673 31.4191892,31.342977 31.5421009,31.3906684 L31.9141924,31.5507542 C32.0006274,31.584349 32.0821283,31.6294656 32.1564845,31.6848802 C32.213335,31.7237837 32.2582698,31.7777054 32.2862838,31.8406394 C32.3132442,31.9064996 32.3264939,31.977165 32.3252236,32.0483184 C32.3256407,32.1473965 32.2920401,32.2436162 32.2300374,32.320897 C32.1634208,32.402056 32.0769847,32.4646477 31.979092,32.5026161 C31.8632236,32.5473368 31.7398393,32.5693697 31.6156539,32.5675157 C31.4408637,32.5662716 31.2672706,32.538555 31.1007832,32.4853095 C30.9376883,32.4293696 30.7832943,32.350716 30.6421588,32.2516707 L30.3998667,32.6800085 C30.5065678,32.7507709 30.6195336,32.8115986 30.737345,32.8617276 C30.8636887,32.9102915 30.9939656,32.947927 31.126743,32.9742203 C31.2693708,33.001126 31.4142676,33.0141667 31.5594075,33.0131601 C31.8212436,33.0188215 32.0811486,32.9671359 32.320897,32.8617276 C32.5256598,32.7677402 32.6996565,32.6177431 32.8227878,32.4290631 C32.9420984,32.2450415 33.0038578,32.0296369 33.0001802,31.8103529 C33.0062188,31.6368209 32.9476309,31.4672243 32.8357677,31.334422 C32.6980063,31.1842633 32.5257451,31.0699175 32.3338769,31.0012703 L31.9401522,30.8368578 C31.8663469,30.8085112 31.7965365,30.7706973 31.7324733,30.7243651 C31.6855103,30.6878822 31.6483425,30.6403075 31.6243072,30.5859124 C31.6024816,30.5309023 31.5921736,30.4719995 31.5940207,30.4128467 C31.5922108,30.321586 31.6228785,30.2326499 31.6805536,30.1619013 C31.7437502,30.0917431 31.8243437,30.0395065 31.9141924,30.0104687 C32.0258956,29.9741023 32.1428669,29.9565566 32.260324,29.958549 C32.3896071,29.9589352 32.5180484,29.979369 32.6410687,30.019122 C32.7742732,30.0636903 32.9020019,30.1232003 33.0218134,30.1965144 L33.2424723,29.7725032 Z M30.4474598,30.2051677 C30.4508536,30.0850932 30.4240768,29.9660853 30.3695802,29.8590361 C30.3209118,29.7620412 30.2439733,29.6820856 30.1489213,29.629724 C30.0430706,29.575731 29.9259424,29.5475609 29.8071164,29.5475177 C29.6598483,29.5482702 29.5136957,29.5731162 29.3744519,29.6210707 C29.2198992,29.6723149 29.0740172,29.7467147 28.9417874,29.8417295 C28.8064854,29.9430855 28.6856644,30.0624508 28.5826759,30.1965144 C28.5826759,30.1489213 28.5826759,30.1013282 28.5826759,30.0580618 C28.5826759,30.0147953 28.5826759,29.9672022 28.5826759,29.9282624 C28.5825487,29.8556182 28.575303,29.7831612 28.5610427,29.7119302 C28.5496587,29.6465252 28.5307858,29.5826476 28.5047963,29.5215578 L27.9553124,29.7725032 C27.972572,29.8244656 27.9841768,29.8781379 27.9899256,29.9325891 C27.9945418,29.9887408 27.9945418,30.0451766 27.9899256,30.1013282 C27.9935334,30.1733939 27.9935334,30.2455948 27.9899256,30.3176605 C27.9899256,30.3955401 27.9639657,30.4907263 27.9423325,30.5988924 L27.4534216,32.9136473 L28.0375187,32.9136473 L28.4701832,30.7503249 C28.5827527,30.6033173 28.710359,30.4684606 28.8509279,30.347947 C28.9561112,30.2583272 29.0724555,30.1827033 29.1970595,30.1229615 C29.2866563,30.0815866 29.3839394,30.0594768 29.482618,30.0580618 C29.5613104,30.0491393 29.6400571,30.0743383 29.6989503,30.1272881 C29.7514181,30.1898812 29.7763814,30.271012 29.7681766,30.3522736 C29.7717029,30.3998014 29.7717029,30.4475251 29.7681766,30.4950529 L29.7335634,30.6940786 L29.2749391,32.8963407 L29.8676894,32.8963407 L30.3695802,30.4647664 C30.3695802,30.4171733 30.3695802,30.3695802 30.3955401,30.3219871 C30.4214999,30.274394 30.4431332,30.2484342 30.4431332,30.2051677 L30.4474598,30.2051677 Z M27.643794,28.4009568 L27.0380638,28.4009568 L26.1035085,32.9136473 L26.717892,32.9136473 L27.643794,28.4009568 Z" id="Shape" fill-rule="nonzero"></path>
      <path d="M51.9379042,36.790321 C61.1536575,33.2641055 69.1406437,34.0818414 69.1104431,35.2024424 C69.0714174,36.5480289 64.0698161,33.2121858 51.9379042,36.790321" id="Path"></path>
    </g>
  </g>
</svg>
