<?xml version="1.0" encoding="UTF-8"?>
<svg xmlns="http://www.w3.org/2000/svg" id="Layer_1" data-name="Layer 1" viewBox="0 0 200 200">
  <defs>
    <style>.cls-1,.cls-2{fill:#fff;}.cls-2{fill-rule:evenodd;}</style>
  </defs>
  <title>Artboard 5 copy 5</title>
  <path class="cls-1" d="M174.62,106.82l.48-1.2a3.09,3.09,0,0,0,.91.45,3.15,3.15,0,0,0,1,.18,1.77,1.77,0,0,0,1.23-.42,1.38,1.38,0,0,0,.46-1.07,1.7,1.7,0,0,0-.25-.9,3.24,3.24,0,0,0-1.3-.91l-.78-.36a3.12,3.12,0,0,1-1.37-1.08,2.86,2.86,0,0,1-.39-1.52,2.32,2.32,0,0,1,.76-1.78,2.77,2.77,0,0,1,2-.71,3.61,3.61,0,0,1,2.22.52l-.39,1.14a2.87,2.87,0,0,0-.8-.37,3.44,3.44,0,0,0-1-.17,1.41,1.41,0,0,0-1.05.38,1.33,1.33,0,0,0-.38,1,1.6,1.6,0,0,0,.14.67,1.48,1.48,0,0,0,.38.51,6.29,6.29,0,0,0,1,.57l.78.37a3.07,3.07,0,0,1,1.38,1.11,3.14,3.14,0,0,1,.4,1.64,2.33,2.33,0,0,1-.87,1.83,3.38,3.38,0,0,1-2.32.76,3.78,3.78,0,0,1-2.18-.61m-7.58-8v2.66h3.17v1.12H167v3.45h4.35v1.18h-5.66V97.67h5.73v1.18Zm-7,8.41V97.67h1.31v9.59Zm-8.79-8.41V102a5.75,5.75,0,0,0,.91.07,3.06,3.06,0,0,0,1.72-.38,1.55,1.55,0,0,0,.54-1.36,1.26,1.26,0,0,0-.58-1.16,3.65,3.65,0,0,0-1.82-.35A6.9,6.9,0,0,0,151.29,98.85Zm4,8.41-2.56-4.12c-.3,0-.76,0-1.39-.06v4.18H150V97.67l1,0c.63,0,1.09-.05,1.38-.05,2.3,0,3.45.91,3.45,2.75a2.61,2.61,0,0,1-.55,1.63,2.32,2.32,0,0,1-1.33.9l2.79,4.41Zm-15.59-4.88a5.42,5.42,0,0,0,.65,2.76,2,2,0,0,0,1.84,1.11,2.33,2.33,0,0,0,2.05-1,4.92,4.92,0,0,0,.7-2.85c0-2.47-.91-3.7-2.75-3.7a2.06,2.06,0,0,0-1.85,1A4.94,4.94,0,0,0,139.65,102.38Zm-1.37,0a5.62,5.62,0,0,1,1-3.48,3.33,3.33,0,0,1,2.82-1.4,3.75,3.75,0,0,1,3.07,1.29,5.53,5.53,0,0,1,1.06,3.59,5.81,5.81,0,0,1-1.07,3.71,3.69,3.69,0,0,1-3.06,1.34A3.31,3.31,0,0,1,139.3,106,6,6,0,0,1,138.28,102.38Zm-5.23-3.53v8.41h-1.31V98.85h-3.05V97.67h7.55v1.18Zm-9.19,1.2-1.49,4.23h2.85Zm2.4,7.21-.67-2H122l-.7,2h-1.47l3.9-9.73h.34l3.62,9.73Zm-14-8.41V102a5.75,5.75,0,0,0,.91.07,3.06,3.06,0,0,0,1.72-.38,1.55,1.55,0,0,0,.54-1.36,1.26,1.26,0,0,0-.58-1.16,3.65,3.65,0,0,0-1.82-.35A6.9,6.9,0,0,0,112.24,98.85Zm4,8.41-2.56-4.12c-.3,0-.76,0-1.39-.06v4.18h-1.31V97.67l1,0c.63,0,1.09-.05,1.37-.05,2.31,0,3.46.91,3.46,2.75a2.61,2.61,0,0,1-.55,1.63,2.35,2.35,0,0,1-1.33.9l2.79,4.41Zm-15.59-4.88a5.42,5.42,0,0,0,.65,2.76,2,2,0,0,0,1.84,1.11,2.33,2.33,0,0,0,2-1,4.92,4.92,0,0,0,.7-2.85c0-2.47-.91-3.7-2.75-3.7a2.06,2.06,0,0,0-1.85,1A4.94,4.94,0,0,0,100.6,102.38Zm-1.37,0a5.62,5.62,0,0,1,1-3.48,3.33,3.33,0,0,1,2.82-1.4,3.78,3.78,0,0,1,3.07,1.29,5.53,5.53,0,0,1,1.06,3.59,5.81,5.81,0,0,1-1.07,3.71,3.69,3.69,0,0,1-3.06,1.34,3.31,3.31,0,0,1-2.84-1.42A6,6,0,0,1,99.23,102.38Zm-8,.11v3.66c.45,0,.79.06,1,.06a2.83,2.83,0,0,0,1.8-.46,1.76,1.76,0,0,0,.57-1.47,1.73,1.73,0,0,0-.54-1.38,2.88,2.88,0,0,0-1.81-.44Zm0-3.78v2.76a9.7,9.7,0,0,0,1,0c1.24,0,1.86-.5,1.86-1.51s-.57-1.33-1.71-1.33C92,98.67,91.61,98.68,91.27,98.71Zm1.42,8.55H90V97.67c1.17-.06,2-.09,2.53-.09a3.53,3.53,0,0,1,2.2.61,2.11,2.11,0,0,1,.78,1.76,1.76,1.76,0,0,1-.5,1.21,2.09,2.09,0,0,1-1.1.69,3,3,0,0,1,1.66.91,2.64,2.64,0,0,1,.52,1.73,2.48,2.48,0,0,1-.92,2A3.75,3.75,0,0,1,92.69,107.26ZM83,100.05l-1.49,4.23h2.85Zm2.4,7.21-.66-2H81.12l-.7,2H79l3.9-9.73h.34l3.62,9.73Zm-14.38,0V97.67h1.31v8.41h4.33v1.18Z"></path>
  <rect class="cls-1" x="59.66" y="65.96" width="3.17" height="39.72"></rect>
  <path class="cls-2" d="M17.59,72.89,32.28,58.21a2.21,2.21,0,1,1,3.12,3.12L20.72,76a2.22,2.22,0,1,1-3.13-3.13"></path>
  <path class="cls-2" d="M32.85,99.76,47.54,85.07a2.21,2.21,0,1,1,3.12,3.12L36,102.88a2.21,2.21,0,1,1-3.12-3.12"></path>
  <path class="cls-2" d="M30.47,110.31,45.16,95.62a2.21,2.21,0,1,1,3.12,3.13L33.6,113.43a2.21,2.21,0,1,1-3.13-3.12"></path>
  <path class="cls-2" d="M16,83.36,30.66,68.67a2.21,2.21,0,1,1,3.13,3.12L19.1,86.48A2.21,2.21,0,1,1,16,83.36"></path>
  <path class="cls-2" d="M14.25,93.16,28.93,78.47a2.22,2.22,0,1,1,3.13,3.13L17.37,96.28a2.21,2.21,0,1,1-3.12-3.12"></path>
  <path class="cls-2" d="M24.44,91.55,39.13,76.86A2.21,2.21,0,1,1,42.25,80L27.57,94.68a2.22,2.22,0,1,1-3.13-3.13"></path>
  <path class="cls-2" d="M34.51,89.82,49.2,75.13a2.21,2.21,0,1,1,3.12,3.12L37.63,92.94a2.21,2.21,0,1,1-3.12-3.12"></path>
  <path class="cls-2" d="M94,64.86l-1.09,3.21-14.63.09c-3,.83-2.64,5.62,0,6.4,2.81,2.28,6.56,2.59,8.17,5,3.86,5.71,1.25,11.64-3.92,13.13l-12.61.18,1.17-3.63,9-.14c4.55-.07,6.66-6.34,1.32-8.58a16.68,16.68,0,0,1-6.64-3.42c-4.46-4-3-12.24,4.28-12.3Z"></path>
  <polygon class="cls-2" points="97.43 64.68 102.34 64.68 108.3 78.98 106.38 83.96 100.23 69.07 92.08 92.72 87.7 92.72 97.43 64.68"></polygon>
  <polygon class="cls-2" points="104.53 92.68 114.43 64.89 119.37 64.89 125.13 79.67 123.42 84.61 116.9 69.28 108.5 92.89 104.53 92.68"></polygon>
  <polygon class="cls-2" points="121.44 92.83 131.4 64.89 136.08 64.89 146.2 92.79 142.22 92.81 133.87 68.77 125.42 92.81 121.44 92.83"></polygon>
  <path class="cls-2" d="M138.27,64.79l1.25,3.32h16c8.73-.52,8.74,9.39,0,8.7l-8,0,.08,16,4.14,0V80.23h2.09l10.89,12.58,5.35,0L159.25,80.27c8.95-1.65,10.08-15.79-2.52-15.47Z"></path>
  <polygon class="cls-2" points="165.56 64.68 186.46 64.68 186.46 68.19 177.97 68.19 177.97 92.83 174.09 92.83 174.09 68.23 165.48 68.23 165.56 64.68"></polygon>
  <path class="cls-1" d="M173.19,127.2a1.41,1.41,0,0,0-.19-.74,1.24,1.24,0,0,0-.55-.51,2.07,2.07,0,0,0-.87-.19,3,3,0,0,0-.94.16,3.5,3.5,0,0,0-1,.48,4,4,0,0,0-.88.83l.08-.3c0-.12.07-.24.1-.36s.06-.25.09-.35l.07-.27.19-.93c.06-.34.12-.67.16-1a7.25,7.25,0,0,0,.06-.89c0-.16,0-.31,0-.44a2.56,2.56,0,0,0-.07-.36l-1.43.53a2.56,2.56,0,0,1,.07.36,2.77,2.77,0,0,1,0,.42,4.31,4.31,0,0,1-.05.69c0,.25-.08.52-.14.82l-1.75,8.38h1.36l1-5a6,6,0,0,1,.82-.84,3.82,3.82,0,0,1,.86-.56A1.64,1.64,0,0,1,171,127a.74.74,0,0,1,.55.19.68.68,0,0,1,.21.55,2.11,2.11,0,0,1,0,.32c0,.13,0,.26-.07.4l-1,5.12h1.33l1.12-5.41c0-.19.07-.36.09-.52a2.17,2.17,0,0,0,0-.41m-6-1.27h-1.81l.17-.75c.07-.26.14-.52.22-.78s.15-.48.22-.68l-1.48.33c-.09.29-.18.6-.26.92s-.17.64-.24,1h-.92l-.19,1h.9l-.92,4.48a4.05,4.05,0,0,0-.08.55,4.43,4.43,0,0,0,0,.52,1.2,1.2,0,0,0,.36.93,1.51,1.51,0,0,0,1.06.33,3.67,3.67,0,0,0,.75-.08,3.23,3.23,0,0,0,.7-.24v-.86l-.36.11a1.78,1.78,0,0,1-.41,0,.82.82,0,0,1-.55-.15.71.71,0,0,1-.18-.55,2.36,2.36,0,0,1,0-.35c0-.13,0-.28.08-.44l.89-4.29h1.52Zm-4.69-3.59-1.45.53a1.5,1.5,0,0,1,.06.33,2.62,2.62,0,0,1,0,.41,6,6,0,0,1,0,.69c0,.25-.07.53-.13.83l-1.38,6.7a2.89,2.89,0,0,0-.08.47,1.82,1.82,0,0,0,0,.38,1,1,0,0,0,.29.76,1.19,1.19,0,0,0,.84.27,2.81,2.81,0,0,0,.5,0,2.26,2.26,0,0,0,.49-.14l-.08-.9a.28.28,0,0,1-.13,0h-.13a.36.36,0,0,1-.26-.09.44.44,0,0,1-.08-.28c0-.08,0-.18,0-.31a4.63,4.63,0,0,1,.1-.48l1.36-6.5c0-.19.07-.4.1-.61s.06-.43.08-.64,0-.42,0-.61a3.24,3.24,0,0,0,0-.45A2.28,2.28,0,0,0,162.5,122.34Zm-5,4.7-.8,3.83a3.88,3.88,0,0,1-.55.85,2.8,2.8,0,0,1-.71.6,1.54,1.54,0,0,1-.75.22.93.93,0,0,1-.52-.12.79.79,0,0,1-.32-.41,2.18,2.18,0,0,1-.11-.74,6.85,6.85,0,0,1,.06-.88,7.85,7.85,0,0,1,.18-.92,5.09,5.09,0,0,1,.31-.88,3.5,3.5,0,0,1,.46-.75,3.59,3.59,0,0,1,.6-.58A1.9,1.9,0,0,1,156,127a2.44,2.44,0,0,1,.73-.09,1.52,1.52,0,0,1,.44,0A1.17,1.17,0,0,1,157.48,127Zm1.54-.7a3.2,3.2,0,0,0-1-.46,4.6,4.6,0,0,0-1.18-.15,4.08,4.08,0,0,0-1.62.33,4.25,4.25,0,0,0-1.34.93,4.81,4.81,0,0,0-.65.87,5.39,5.39,0,0,0-.49,1.06,6.72,6.72,0,0,0-.31,1.17,6.91,6.91,0,0,0-.1,1.19,3.12,3.12,0,0,0,.25,1.36,1.65,1.65,0,0,0,1.58,1.06,2.86,2.86,0,0,0,1.42-.37,2.79,2.79,0,0,0,1-1v.13a1.88,1.88,0,0,0,.13.74,1.74,1.74,0,0,0,.41.6l1.11-.87a1.42,1.42,0,0,1-.28-.41,1.52,1.52,0,0,1-.1-.56,3,3,0,0,1,0-.4q0-.22.09-.51l.63-3.06c0-.18.08-.38.13-.58l.15-.6C158.93,126.64,159,126.47,159,126.34Zm-8.11,1.46a1.19,1.19,0,0,1-.09.47,1.56,1.56,0,0,1-.27.38,1.5,1.5,0,0,1-.45.31,2.69,2.69,0,0,1-.68.17,6.7,6.7,0,0,1-1,.06H148l-.21,0a4.56,4.56,0,0,1,.52-1.28,2.57,2.57,0,0,1,.74-.79,1.47,1.47,0,0,1,.86-.28,1.29,1.29,0,0,1,.61.13.79.79,0,0,1,.34.36A1.12,1.12,0,0,1,150.91,127.8Zm1.37-.06a2.07,2.07,0,0,0-.26-1.09,1.63,1.63,0,0,0-.76-.68,2.75,2.75,0,0,0-1.21-.24,3.35,3.35,0,0,0-1.3.26,3.76,3.76,0,0,0-1.17.8,5.35,5.35,0,0,0-.69.88,5.53,5.53,0,0,0-.52,1,6.46,6.46,0,0,0-.43,2.27,3.12,3.12,0,0,0,.33,1.49,2.23,2.23,0,0,0,.88.94,2.69,2.69,0,0,0,1.32.33,5.51,5.51,0,0,0,1.21-.12,3.36,3.36,0,0,0,1-.37,4,4,0,0,0,.83-.62l-.49-.87a4,4,0,0,1-.67.5,2.91,2.91,0,0,1-.69.27,3.22,3.22,0,0,1-.78.08,1.42,1.42,0,0,1-.72-.17,1.14,1.14,0,0,1-.51-.51,1.81,1.81,0,0,1-.19-.85,2.72,2.72,0,0,1,0-.28,2.91,2.91,0,0,1,0-.31c0-.11,0-.2.05-.29l.42,0a4.07,4.07,0,0,0,.5,0,9.29,9.29,0,0,0,1.38-.1,4.11,4.11,0,0,0,1-.31,2.47,2.47,0,0,0,.74-.5,2.08,2.08,0,0,0,.5-.72A2.12,2.12,0,0,0,152.28,127.74Zm-6.22-4.63h-1.44l-.89,4.28h-3.95l.89-4.28h-1.4l-2.16,10.43h1.4l1-4.94h3.93l-1,4.94h1.45Zm-14.12,5.23a7.48,7.48,0,0,1-.1,1.26,5.79,5.79,0,0,1-.3,1.16,3.61,3.61,0,0,1-.49,1,2.24,2.24,0,0,1-.68.66,1.63,1.63,0,0,1-.87.24,1.28,1.28,0,0,1-1-.35,1.65,1.65,0,0,1-.34-1.17,7.64,7.64,0,0,1,.1-1.26,5.7,5.7,0,0,1,.31-1.15,3.78,3.78,0,0,1,.5-1,2.45,2.45,0,0,1,.68-.65,1.62,1.62,0,0,1,.86-.24,1.59,1.59,0,0,1,.66.14,1,1,0,0,1,.46.48A1.86,1.86,0,0,1,131.94,128.34Zm1.5.11a3.33,3.33,0,0,0-.29-1.44,2,2,0,0,0-.85-.94,2.92,2.92,0,0,0-1.42-.34,3.62,3.62,0,0,0-1.67.41,3.88,3.88,0,0,0-1.32,1.11,5,5,0,0,0-.87,1.67,6.62,6.62,0,0,0-.31,2.08,3.44,3.44,0,0,0,.29,1.47,2.07,2.07,0,0,0,.87.93,2.82,2.82,0,0,0,1.38.33,3.75,3.75,0,0,0,2.58-1,4.77,4.77,0,0,0,.87-1.15,6,6,0,0,0,.55-1.45A7.31,7.31,0,0,0,133.44,128.45Zm-5.82-2.52h-1.8c0-.23.1-.48.17-.75l.21-.78c.08-.25.15-.48.22-.68l-1.48.33-.26.92-.24,1h-.92l-.19,1h.9l-.91,4.48c0,.2-.07.38-.09.55s0,.34,0,.52a1.2,1.2,0,0,0,.36.93,1.53,1.53,0,0,0,1.06.33,3.67,3.67,0,0,0,.75-.08,3.05,3.05,0,0,0,.7-.24v-.86l-.36.11a1.73,1.73,0,0,1-.41,0,.84.84,0,0,1-.55-.15.75.75,0,0,1-.17-.55,2.36,2.36,0,0,1,0-.35c0-.13,0-.28.07-.44l.89-4.29h1.52Zm-9.82,1.33-.76,3.65a4.1,4.1,0,0,1-.69.9,2.7,2.7,0,0,1-.78.53,2,2,0,0,1-.78.17.85.85,0,0,1-.75-.35,1.72,1.72,0,0,1-.25-1,5.75,5.75,0,0,1,.08-.88c.06-.32.14-.63.23-.95a7.18,7.18,0,0,1,.36-.89,3.27,3.27,0,0,1,.44-.69,2.37,2.37,0,0,1,.48-.41,2.55,2.55,0,0,1,.55-.27,1.86,1.86,0,0,1,.55-.09,4.36,4.36,0,0,1,.54,0,1.68,1.68,0,0,1,.4.11A1.85,1.85,0,0,1,117.8,127.26Zm2.33-4.61-1.33-.22-.5,2.51c0,.1,0,.2-.07.32s0,.25-.07.36,0,.22-.06.31a.64.64,0,0,1,0,.14,1.69,1.69,0,0,0-.6-.2,4.8,4.8,0,0,0-.93-.08,3.3,3.3,0,0,0-.86.12,4.22,4.22,0,0,0-.88.37,3.28,3.28,0,0,0-.79.61,5.75,5.75,0,0,0-.9,1.22,6.19,6.19,0,0,0-.55,1.45,6.06,6.06,0,0,0-.2,1.53,3,3,0,0,0,.53,1.92,1.91,1.91,0,0,0,1.6.67,2.7,2.7,0,0,0,1.33-.33,3.36,3.36,0,0,0,1.09-1v.2a1.78,1.78,0,0,0,.11.69,1.88,1.88,0,0,0,.31.51l1.17-.58a1.31,1.31,0,0,1-.2-.39,1.54,1.54,0,0,1-.08-.52,4,4,0,0,1,.05-.54c0-.22.07-.47.13-.76Zm-9.36,5.15a1.19,1.19,0,0,1-.09.47,1.56,1.56,0,0,1-.27.38,1.5,1.5,0,0,1-.45.31,2.69,2.69,0,0,1-.68.17,6.7,6.7,0,0,1-1,.06h-.5l-.21,0a4.56,4.56,0,0,1,.52-1.28,2.57,2.57,0,0,1,.74-.79,1.47,1.47,0,0,1,.86-.28,1.29,1.29,0,0,1,.61.13.79.79,0,0,1,.34.36A1.12,1.12,0,0,1,110.77,127.8Zm1.38-.06a2.07,2.07,0,0,0-.27-1.09,1.63,1.63,0,0,0-.76-.68,2.75,2.75,0,0,0-1.21-.24,3.35,3.35,0,0,0-1.3.26,3.76,3.76,0,0,0-1.17.8,5.35,5.35,0,0,0-.69.88,5.53,5.53,0,0,0-.52,1,6.46,6.46,0,0,0-.43,2.27,3.12,3.12,0,0,0,.33,1.49,2.23,2.23,0,0,0,.88.94,2.69,2.69,0,0,0,1.32.33,5.44,5.44,0,0,0,1.21-.12,3.36,3.36,0,0,0,1-.37,4,4,0,0,0,.83-.62l-.49-.87a4,4,0,0,1-.67.5,2.91,2.91,0,0,1-.69.27,3.22,3.22,0,0,1-.78.08,1.42,1.42,0,0,1-.72-.17,1.14,1.14,0,0,1-.51-.51,1.81,1.81,0,0,1-.19-.85,2.72,2.72,0,0,1,0-.28,2.91,2.91,0,0,1,0-.31c0-.11,0-.2,0-.29l.42,0a4.07,4.07,0,0,0,.5,0,9.29,9.29,0,0,0,1.38-.1,4.11,4.11,0,0,0,1-.31,2.47,2.47,0,0,0,.74-.5,2.25,2.25,0,0,0,.51-.72A2.5,2.5,0,0,0,112.15,127.74Zm-5.44-1.9-.25-.07-.34,0a1.76,1.76,0,0,0-.75.2,3.47,3.47,0,0,0-.8.55,5,5,0,0,0-.75.87c0-.13,0-.25.05-.38s0-.23,0-.35a4.06,4.06,0,0,0,0-.51,2.7,2.7,0,0,0-.12-.43l-1.28.58a1.37,1.37,0,0,1,.08.35,2.56,2.56,0,0,1,0,.39,4.68,4.68,0,0,1,0,.6c0,.23-.07.5-.13.8l-1.06,5.12h1.34l1-4.82a5.27,5.27,0,0,1,1-1.16,1.59,1.59,0,0,1,1-.39,1.14,1.14,0,0,1,.28,0,.79.79,0,0,1,.22.06Zm-4.88-2.19a1.1,1.1,0,0,0-.13-.51,1,1,0,0,0-.35-.36.93.93,0,0,0-.49-.14,1,1,0,0,0-.51.14,1.1,1.1,0,0,0-.35.36,1.11,1.11,0,0,0-.14.51,1.08,1.08,0,0,0,.14.51,1.1,1.1,0,0,0,.35.36,1.08,1.08,0,0,0,.51.14,1,1,0,0,0,.49-.14,1,1,0,0,0,.35-.36A1.07,1.07,0,0,0,101.83,123.65Zm-.72,2.11-1.47.23-1.57,7.55h1.42Zm-5,2.55a5.21,5.21,0,0,1-.07.85,5.89,5.89,0,0,1-.19.91,7,7,0,0,1-.29.88,3.83,3.83,0,0,1-.38.73,2.16,2.16,0,0,1-1,.79,1.65,1.65,0,0,1-.66.13,2.85,2.85,0,0,1-.79-.1,1.71,1.71,0,0,1-.6-.32l.75-3.63a5.85,5.85,0,0,1,.76-.85,3.21,3.21,0,0,1,.78-.52,1.79,1.79,0,0,1,.71-.17,1,1,0,0,1,.56.13.8.8,0,0,1,.33.42A2.23,2.23,0,0,1,96.16,128.31Zm1.48-.07a3.65,3.65,0,0,0-.21-1.3,1.9,1.9,0,0,0-.65-.86,1.85,1.85,0,0,0-1.07-.3,2.62,2.62,0,0,0-.89.16,3.57,3.57,0,0,0-.9.48,4.13,4.13,0,0,0-.82.8c0-.11,0-.21.05-.3a2.72,2.72,0,0,0,0-.28,2.12,2.12,0,0,0-.06-.52,2.08,2.08,0,0,0-.13-.42l-1.27.58c0,.12.06.24.08.37s0,.25,0,.39a4.6,4.6,0,0,1,0,.5c0,.18-.06.38-.1.6l-1.79,8.6,1.4-.3.64-3.08a2.92,2.92,0,0,0,.74.28,4.44,4.44,0,0,0,1,.09,3.28,3.28,0,0,0,1-.16,3.41,3.41,0,0,0,.92-.45,4.47,4.47,0,0,0,.8-.71,4.32,4.32,0,0,0,.55-.87,8.38,8.38,0,0,0,.43-1.06c.11-.39.2-.77.27-1.15A7.16,7.16,0,0,0,97.64,128.24Zm-7.31-2a3.47,3.47,0,0,0-.64-.32,4.73,4.73,0,0,0-.76-.21,4.43,4.43,0,0,0-.81-.07,4.08,4.08,0,0,0-1.32.19,3.11,3.11,0,0,0-1,.53,2.34,2.34,0,0,0-.62.79,2.21,2.21,0,0,0-.21,1,1.8,1.8,0,0,0,.16.79,1.57,1.57,0,0,0,.48.59,3.09,3.09,0,0,0,.79.45l.86.37a2.38,2.38,0,0,1,.56.31.86.86,0,0,1,.3.36,1.21,1.21,0,0,1,.09.48,1,1,0,0,1-.22.63,1.41,1.41,0,0,1-.58.42,2.24,2.24,0,0,1-.84.15,4,4,0,0,1-1.19-.19,4.24,4.24,0,0,1-1.06-.54L83.77,133a4.84,4.84,0,0,0,.78.42,5.47,5.47,0,0,0,.9.26,5.2,5.2,0,0,0,1,.09,4.15,4.15,0,0,0,1.76-.35,2.76,2.76,0,0,0,1.16-1,2.55,2.55,0,0,0,.41-1.43,1.62,1.62,0,0,0-.38-1.1,2.9,2.9,0,0,0-1.16-.77l-.91-.38a2.11,2.11,0,0,1-.48-.26.83.83,0,0,1-.25-.32,1,1,0,0,1-.07-.4.89.89,0,0,1,.2-.58,1.24,1.24,0,0,1,.54-.35,2.45,2.45,0,0,1,.8-.12,2.89,2.89,0,0,1,.88.14,4.3,4.3,0,0,1,.88.41Zm-6.46,1a1.66,1.66,0,0,0-.18-.8,1.24,1.24,0,0,0-.51-.53,1.74,1.74,0,0,0-.79-.19,3.12,3.12,0,0,0-1,.17,3.72,3.72,0,0,0-1,.51,4.29,4.29,0,0,0-.83.82c0-.11,0-.22,0-.32s0-.21,0-.3a2.57,2.57,0,0,0-.05-.5,2,2,0,0,0-.13-.44l-1.27.58a1.76,1.76,0,0,1,.08.37,2.38,2.38,0,0,1,0,.39,5,5,0,0,1,0,.5c0,.18-.06.4-.11.65l-1.13,5.35h1.35l1-5a6.15,6.15,0,0,1,.88-.93,3.7,3.7,0,0,1,.8-.52,1.63,1.63,0,0,1,.66-.15.64.64,0,0,1,.5.16.7.7,0,0,1,.16.52,2.23,2.23,0,0,1,0,.33l-.08.46-1.06,5.09h1.37l1.16-5.62c0-.11,0-.22.06-.33S83.87,127.38,83.87,127.28Zm-6.48-4.17H76l-2.16,10.43h1.42Z"></path>
  <path class="cls-2" d="M133.55,142.5c21.3-8.15,39.76-6.26,39.69-3.67-.09,3.11-11.65-4.6-39.69,3.67"></path>
</svg>
