<?xml version="1.0" encoding="UTF-8"?>
<svg xmlns="http://www.w3.org/2000/svg" id="Layer_1" data-name="Layer 1" viewBox="0 0 286 286">
  <defs>
    <style>.cls-1{fill:#fff;}.cls-2{fill:#231f20;}.cls-3{fill:#ed1c24;fill-rule:evenodd;}</style>
  </defs>
  <title>smart-zymo</title>
  <rect class="cls-1" width="286" height="286"></rect>
  <path class="cls-2" d="M237.93,151.68l.61-1.53a4,4,0,0,0,1.17.57A4.05,4.05,0,0,0,241,151a2.25,2.25,0,0,0,1.57-.54,1.74,1.74,0,0,0,.59-1.35,2.14,2.14,0,0,0-.33-1.15,4,4,0,0,0-1.66-1.15l-1-.46a4,4,0,0,1-1.74-1.38,3.54,3.54,0,0,1-.5-1.93,3,3,0,0,1,1-2.27,3.49,3.49,0,0,1,2.48-.9,4.52,4.52,0,0,1,2.82.66l-.49,1.45a3.94,3.94,0,0,0-1-.47,4.09,4.09,0,0,0-1.27-.22,1.85,1.85,0,0,0-1.34.48,1.69,1.69,0,0,0-.48,1.24,2.08,2.08,0,0,0,.17.85,1.78,1.78,0,0,0,.49.65,7.28,7.28,0,0,0,1.28.72l1,.48a3.4,3.4,0,0,1,2.25,3.5,3,3,0,0,1-1.1,2.33,4.33,4.33,0,0,1-2.95,1,4.93,4.93,0,0,1-2.78-.77m-9.64-10.15v3.39h4v1.42h-4v4.4h5.53v1.5h-7.2V140h7.29v1.5Zm-8.85,10.71V140h1.67v12.21Zm-11.19-10.71v4a9.46,9.46,0,0,0,1.17.08,3.84,3.84,0,0,0,2.18-.48,2,2,0,0,0,.69-1.73,1.59,1.59,0,0,0-.74-1.47,4.58,4.58,0,0,0-2.32-.45C209.07,141.45,208.74,141.48,208.25,141.53Zm5,10.71L210,147c-.37,0-1,0-1.77-.08v5.32h-1.66V140l1.29-.06c.81,0,1.39-.07,1.76-.07q4.4,0,4.4,3.51a3.35,3.35,0,0,1-.71,2.07,2.94,2.94,0,0,1-1.68,1.14l3.53,5.62ZM193.45,146a6.86,6.86,0,0,0,.83,3.51,2.58,2.58,0,0,0,2.34,1.41,3,3,0,0,0,2.6-1.29,6.28,6.28,0,0,0,.9-3.63c0-3.14-1.17-4.72-3.5-4.72a2.63,2.63,0,0,0-2.36,1.27A6.36,6.36,0,0,0,193.45,146Zm-1.75,0A7.17,7.17,0,0,1,193,141.6a4.24,4.24,0,0,1,3.59-1.79,4.74,4.74,0,0,1,3.89,1.65,7,7,0,0,1,1.36,4.57,7.38,7.38,0,0,1-1.36,4.71,4.68,4.68,0,0,1-3.89,1.71,4.23,4.23,0,0,1-3.62-1.8A7.68,7.68,0,0,1,191.7,146Zm-6.65-4.5v10.71h-1.67V141.53H179.5V140h9.61v1.5Zm-11.7,1.53-1.89,5.38h3.63Zm3.05,9.18-.84-2.57H171l-.9,2.57h-1.87l5-12.38h.44l4.6,12.38Zm-17.83-10.71v4a9.46,9.46,0,0,0,1.17.08,3.87,3.87,0,0,0,2.18-.48,2,2,0,0,0,.68-1.73,1.59,1.59,0,0,0-.73-1.47,4.58,4.58,0,0,0-2.32-.45C159.39,141.45,159.06,141.48,158.57,141.53Zm5,10.71L160.34,147c-.38,0-1,0-1.77-.08v5.32H156.9V140l1.3-.06c.8,0,1.39-.07,1.75-.07,2.94,0,4.4,1.17,4.4,3.51a3.29,3.29,0,0,1-.71,2.07,2.94,2.94,0,0,1-1.68,1.14l3.54,5.62ZM143.77,146a6.76,6.76,0,0,0,.83,3.51,2.58,2.58,0,0,0,2.33,1.41,3,3,0,0,0,2.61-1.29,6.36,6.36,0,0,0,.89-3.63c0-3.14-1.16-4.72-3.5-4.72a2.62,2.62,0,0,0-2.35,1.27A6.36,6.36,0,0,0,143.77,146ZM142,146a7.18,7.18,0,0,1,1.34-4.43,4.23,4.23,0,0,1,3.58-1.79,4.75,4.75,0,0,1,3.9,1.65,7,7,0,0,1,1.35,4.57,7.38,7.38,0,0,1-1.35,4.71,4.69,4.69,0,0,1-3.9,1.71,4.21,4.21,0,0,1-3.61-1.8A7.68,7.68,0,0,1,142,146Zm-10.12.13v4.67c.57,0,1,.08,1.31.08a3.61,3.61,0,0,0,2.29-.59,2.28,2.28,0,0,0,.72-1.87,2.18,2.18,0,0,0-.68-1.76,3.64,3.64,0,0,0-2.3-.57Zm0-4.8v3.51a12,12,0,0,0,1.3,0c1.58,0,2.36-.64,2.36-1.92,0-1.13-.72-1.7-2.17-1.7C132.82,141.3,132.33,141.33,131.89,141.36Zm1.81,10.88h-3.48V140c1.48-.07,2.56-.11,3.21-.11a4.42,4.42,0,0,1,2.8.78,2.67,2.67,0,0,1,1,2.23,2.26,2.26,0,0,1-.63,1.55,2.71,2.71,0,0,1-1.4.88,3.77,3.77,0,0,1,2.11,1.16,3.38,3.38,0,0,1,.66,2.2,3.14,3.14,0,0,1-1.17,2.56A4.76,4.76,0,0,1,133.7,152.24Zm-12.38-9.18-1.89,5.38h3.62Zm3.05,9.18-.84-2.57H119l-.9,2.57h-1.87l5-12.38h.44l4.6,12.38Zm-18.3,0V140h1.67v10.71h5.52v1.5Z"></path>
  <rect class="cls-2" x="91.68" y="99.69" width="4.04" height="50.54"></rect>
  <path class="cls-3" d="M38.15,108.51,56.84,89.83a2.81,2.81,0,1,1,4,4L42.13,112.49a2.82,2.82,0,1,1-4-4"></path>
  <path class="cls-3" d="M57.57,142.69,76.25,124a2.81,2.81,0,1,1,4,4L61.54,146.67a2.81,2.81,0,1,1-4-4"></path>
  <path class="cls-3" d="M54.54,156.12l18.69-18.69a2.81,2.81,0,1,1,4,4L58.52,160.09a2.81,2.81,0,1,1-4-4"></path>
  <path class="cls-3" d="M36.1,121.83l18.68-18.69a2.82,2.82,0,1,1,4,4L40.07,125.8a2.81,2.81,0,1,1-4-4"></path>
  <path class="cls-3" d="M33.9,134.3l18.68-18.69a2.82,2.82,0,1,1,4,4L37.87,138.27a2.81,2.81,0,1,1-4-4"></path>
  <path class="cls-3" d="M46.87,132.25l18.69-18.68a2.81,2.81,0,1,1,4,4L50.85,136.23a2.82,2.82,0,1,1-4-4"></path>
  <path class="cls-3" d="M59.68,130l18.68-18.69a2.82,2.82,0,1,1,4,4L63.65,134a2.81,2.81,0,1,1-4-4"></path>
  <path class="cls-3" d="M135.37,98.29l-1.4,4.09-18.61.1c-3.76,1.07-3.36,7.16,0,8.15,3.57,2.9,8.35,3.3,10.39,6.42,4.92,7.26,1.6,14.8-5,16.7l-16,.23,1.49-4.63,11.41-.17c5.79-.09,8.47-8.06,1.68-10.91a21.43,21.43,0,0,1-8.45-4.35c-5.68-5.11-3.83-15.57,5.45-15.65Z"></path>
  <polygon class="cls-3" points="139.73 98.06 145.98 98.06 153.55 116.26 151.12 122.6 143.29 103.65 132.93 133.74 127.35 133.74 139.73 98.06"></polygon>
  <polygon class="cls-3" points="148.76 133.69 161.36 98.33 167.64 98.33 174.97 117.14 172.79 123.42 164.5 103.91 153.82 133.96 148.76 133.69"></polygon>
  <polygon class="cls-3" points="170.28 133.88 182.95 98.33 188.91 98.33 201.78 133.83 196.72 133.85 186.09 103.27 175.33 133.85 170.28 133.88"></polygon>
  <path class="cls-3" d="M191.69,98.2l1.59,4.23h20.4c11.1-.67,11.12,11.94,0,11.06l-10.12,0,.11,20.38,5.26,0v-16h2.66l13.85,16,6.81,0-13.86-15.93c11.39-2.09,12.83-20.09-3.2-19.67Z"></path>
  <polygon class="cls-3" points="226.41 98.06 253 98.06 253 102.53 242.2 102.53 242.2 133.87 237.26 133.87 237.26 102.58 226.31 102.58 226.41 98.06"></polygon>
  <path class="cls-2" d="M236.12,177.61a1.86,1.86,0,0,0-.24-1,1.61,1.61,0,0,0-.7-.64,2.39,2.39,0,0,0-1.11-.24,3.77,3.77,0,0,0-1.2.2,4.55,4.55,0,0,0-1.23.61,5.34,5.34,0,0,0-1.13,1.06q.06-.17.12-.39l.12-.46q.06-.24.12-.45c0-.14.06-.25.08-.34l.24-1.18c.09-.44.16-.85.21-1.26a9.12,9.12,0,0,0,.07-1.13,5,5,0,0,0,0-.56,2.68,2.68,0,0,0-.09-.46l-1.82.67c0,.14.07.29.09.46a3.16,3.16,0,0,1,0,.55,6.79,6.79,0,0,1-.06.86,9.84,9.84,0,0,1-.19,1l-2.22,10.67h1.73l1.32-6.33a7.06,7.06,0,0,1,1-1.07,5.38,5.38,0,0,1,1.09-.72,2.48,2.48,0,0,1,1-.26,1,1,0,0,1,.7.24.94.94,0,0,1,.26.71,2.15,2.15,0,0,1,0,.4q0,.24-.09.51l-1.34,6.52h1.69l1.43-6.89q.08-.36.12-.66a3.61,3.61,0,0,0,.05-.52M228.48,176h-2.3c.06-.3.14-.61.22-1s.18-.67.28-1,.19-.61.28-.87l-1.89.43c-.11.37-.22.76-.33,1.16s-.21.82-.31,1.23h-1.16L223,177.3h1.15L223,183a4.91,4.91,0,0,0-.1.7c0,.22,0,.44,0,.67a1.53,1.53,0,0,0,.46,1.17,2,2,0,0,0,1.35.43,4.26,4.26,0,0,0,.95-.11,3.74,3.74,0,0,0,.89-.3v-1.1a2.24,2.24,0,0,1-.46.14,2.14,2.14,0,0,1-.52.05,1,1,0,0,1-.7-.19.91.91,0,0,1-.22-.69,2.42,2.42,0,0,1,0-.45c0-.17.06-.35.09-.56l1.13-5.46h1.94Zm-6-4.57-1.84.67a2.61,2.61,0,0,1,.08.42,4.22,4.22,0,0,1,0,.53,7.36,7.36,0,0,1-.06.88,9.47,9.47,0,0,1-.17,1.05l-1.75,8.53c0,.21-.08.41-.11.6a4.64,4.64,0,0,0,0,.48,1.32,1.32,0,0,0,.37,1,1.55,1.55,0,0,0,1.06.34,4.48,4.48,0,0,0,.64,0,2.74,2.74,0,0,0,.62-.18l-.09-1.14a.47.47,0,0,1-.17,0h-.17a.41.41,0,0,1-.32-.12.53.53,0,0,1-.11-.36,3.28,3.28,0,0,1,0-.39c0-.16.06-.37.12-.62l1.73-8.26c0-.25.1-.51.14-.78s.07-.55.09-.82,0-.53,0-.77a5.06,5.06,0,0,0,0-.57A2.23,2.23,0,0,0,222.51,171.42Zm-6.38,6-1,4.88a4.66,4.66,0,0,1-.7,1.08,3.72,3.72,0,0,1-.9.76,2,2,0,0,1-1,.28,1.24,1.24,0,0,1-.66-.15,1,1,0,0,1-.4-.52,2.76,2.76,0,0,1-.14-.95,8.7,8.7,0,0,1,.07-1.11,10.22,10.22,0,0,1,.23-1.18,7.09,7.09,0,0,1,.4-1.12,4.31,4.31,0,0,1,.58-1,4,4,0,0,1,.76-.73,2.41,2.41,0,0,1,.8-.4,3,3,0,0,1,.92-.12,2.62,2.62,0,0,1,.57.06A1.83,1.83,0,0,1,216.13,177.4Zm2-.89a4.21,4.21,0,0,0-1.29-.58,5.71,5.71,0,0,0-1.5-.19,5,5,0,0,0-2.06.42,5.21,5.21,0,0,0-1.7,1.18,5.54,5.54,0,0,0-.83,1.11,6.91,6.91,0,0,0-.62,1.35,7.5,7.5,0,0,0-.39,1.48,8.77,8.77,0,0,0-.14,1.52,4.27,4.27,0,0,0,.32,1.73,2.23,2.23,0,0,0,.83,1,2.19,2.19,0,0,0,1.18.33,3.66,3.66,0,0,0,1.81-.46,3.59,3.59,0,0,0,1.28-1.26v.18a2.27,2.27,0,0,0,.17.93,2.37,2.37,0,0,0,.53.77l1.41-1.1a2.07,2.07,0,0,1-.36-.53,1.84,1.84,0,0,1-.13-.71,3.25,3.25,0,0,1,0-.51c0-.19.06-.41.11-.65l.81-3.9c0-.22.1-.47.16-.74s.13-.51.19-.75Zm-10.32,1.85a1.4,1.4,0,0,1-.12.6,1.58,1.58,0,0,1-.33.48,1.62,1.62,0,0,1-.58.4,3.44,3.44,0,0,1-.86.23,8.69,8.69,0,0,1-1.23.07H204l-.26,0a5.48,5.48,0,0,1,.66-1.62,3.22,3.22,0,0,1,.94-1,2,2,0,0,1,1.09-.35,1.62,1.62,0,0,1,.79.17,1,1,0,0,1,.42.45A1.45,1.45,0,0,1,207.77,178.36Zm1.75-.07a2.66,2.66,0,0,0-.33-1.38,2.22,2.22,0,0,0-1-.87,3.58,3.58,0,0,0-1.54-.3,4.24,4.24,0,0,0-1.66.33,4.8,4.8,0,0,0-1.48,1,6,6,0,0,0-.88,1.11,7.75,7.75,0,0,0-.66,1.32,8,8,0,0,0-.41,1.43,7.13,7.13,0,0,0-.14,1.45,4,4,0,0,0,.42,1.9,2.83,2.83,0,0,0,1.12,1.2,3.4,3.4,0,0,0,1.68.41,7.11,7.11,0,0,0,1.54-.15,4.24,4.24,0,0,0,1.22-.47,5.12,5.12,0,0,0,1.06-.79l-.62-1.1a5.39,5.39,0,0,1-.86.62,3.3,3.3,0,0,1-.88.35,3.85,3.85,0,0,1-1,.11,1.84,1.84,0,0,1-.92-.22,1.51,1.51,0,0,1-.65-.65,2.21,2.21,0,0,1-.24-1.08c0-.11,0-.23,0-.36s0-.26,0-.39.05-.26.07-.37l.53,0c.21,0,.42,0,.64,0a10.08,10.08,0,0,0,1.75-.13,5,5,0,0,0,1.32-.38,3.18,3.18,0,0,0,1-.65,2.75,2.75,0,0,0,.63-.91A2.72,2.72,0,0,0,209.52,178.29Zm-7.92-5.89h-1.83l-1.13,5.44h-5l1.13-5.44H193l-2.75,13.28H192l1.32-6.29h5L197,185.68h1.85Zm-18,6.66a9.42,9.42,0,0,1-.13,1.6,7.46,7.46,0,0,1-.38,1.48,4.53,4.53,0,0,1-.63,1.22,2.86,2.86,0,0,1-.86.84,2.19,2.19,0,0,1-1.11.3,1.56,1.56,0,0,1-1.23-.45,2.11,2.11,0,0,1-.44-1.48A9.42,9.42,0,0,1,179,181a7.89,7.89,0,0,1,.39-1.47,5.61,5.61,0,0,1,.64-1.22,3.1,3.1,0,0,1,.87-.83,2.08,2.08,0,0,1,1.09-.3,1.79,1.79,0,0,1,.84.18,1.3,1.3,0,0,1,.59.61A2.36,2.36,0,0,1,183.64,179.06Zm1.9.13a4.33,4.33,0,0,0-.36-1.83,2.67,2.67,0,0,0-1.09-1.19,3.43,3.43,0,0,0-1.8-.43,4.75,4.75,0,0,0-2.13.51,5.27,5.27,0,0,0-1.68,1.42,6.71,6.71,0,0,0-1.1,2.13,8.21,8.21,0,0,0-.4,2.64,4.24,4.24,0,0,0,.38,1.87,2.7,2.7,0,0,0,1.1,1.19,3.51,3.51,0,0,0,1.75.41,4.64,4.64,0,0,0,1.81-.35,4.77,4.77,0,0,0,1.48-1,5.77,5.77,0,0,0,1.1-1.46,7.24,7.24,0,0,0,.7-1.84A9,9,0,0,0,185.54,179.19Zm-7.4-3.2h-2.29c.05-.3.13-.61.21-1s.18-.67.28-1,.19-.61.28-.87l-1.88.43c-.12.37-.23.76-.34,1.16s-.21.82-.3,1.23h-1.17l-.25,1.31h1.15l-1.16,5.7a3.87,3.87,0,0,0-.11.7c0,.22,0,.44,0,.67a1.53,1.53,0,0,0,.46,1.17,2,2,0,0,0,1.35.43,4.19,4.19,0,0,0,.95-.11,3.74,3.74,0,0,0,.89-.3v-1.1a2.24,2.24,0,0,1-.46.14,2.05,2.05,0,0,1-.51.05,1,1,0,0,1-.7-.19.91.91,0,0,1-.23-.69,3.75,3.75,0,0,1,0-.45c0-.17.06-.35.1-.56l1.13-5.46h1.93Zm-12.5,1.7-1,4.63a4.82,4.82,0,0,1-.87,1.15,3.37,3.37,0,0,1-1,.67,2.38,2.38,0,0,1-1,.23,1.09,1.09,0,0,1-.95-.45,2.16,2.16,0,0,1-.33-1.31,6.52,6.52,0,0,1,.11-1.12,8.91,8.91,0,0,1,.3-1.21,7.58,7.58,0,0,1,.44-1.13,4.3,4.3,0,0,1,.56-.88,3,3,0,0,1,.61-.52,3.07,3.07,0,0,1,.71-.34,2.26,2.26,0,0,1,.7-.13,4.44,4.44,0,0,1,.68,0,1.9,1.9,0,0,1,.51.13A2.69,2.69,0,0,1,165.64,177.69Zm3-5.87-1.7-.29-.64,3.21-.08.4c0,.16-.06.31-.1.46s-.06.28-.08.39a.8.8,0,0,1,0,.17,2.82,2.82,0,0,0-.76-.25,6.63,6.63,0,0,0-1.19-.09,4.34,4.34,0,0,0-1.1.15,5.09,5.09,0,0,0-1.12.46,4.65,4.65,0,0,0-1,.78,6.8,6.8,0,0,0-1.14,1.56,8.47,8.47,0,0,0-.71,1.83,8.13,8.13,0,0,0-.24,2,3.93,3.93,0,0,0,.66,2.45,2.47,2.47,0,0,0,2.05.85,3.55,3.55,0,0,0,1.69-.41,4.64,4.64,0,0,0,1.38-1.23v.25a2.5,2.5,0,0,0,.14.88,2.28,2.28,0,0,0,.4.65l1.49-.74a1.8,1.8,0,0,1-.27-.49,2.1,2.1,0,0,1-.09-.66,5,5,0,0,1,.06-.7c0-.27.09-.59.17-1Zm-11.92,6.54a1.4,1.4,0,0,1-.12.6,1.58,1.58,0,0,1-.33.48,1.62,1.62,0,0,1-.58.4,3.44,3.44,0,0,1-.86.23,8.69,8.69,0,0,1-1.23.07h-.65l-.26,0a5.48,5.48,0,0,1,.66-1.62,3.22,3.22,0,0,1,.94-1,2,2,0,0,1,1.1-.35,1.61,1.61,0,0,1,.78.17,1,1,0,0,1,.42.45A1.32,1.32,0,0,1,156.7,178.36Zm1.75-.07a2.66,2.66,0,0,0-.33-1.38,2.22,2.22,0,0,0-1-.87,3.55,3.55,0,0,0-1.54-.3,4.24,4.24,0,0,0-1.66.33,4.8,4.8,0,0,0-1.48,1,6,6,0,0,0-.88,1.11,7.75,7.75,0,0,0-.66,1.32,8,8,0,0,0-.41,1.43,7.91,7.91,0,0,0-.14,1.45,4.07,4.07,0,0,0,.42,1.9,2.85,2.85,0,0,0,1.13,1.2,3.33,3.33,0,0,0,1.67.41,7.11,7.11,0,0,0,1.54-.15,4.24,4.24,0,0,0,1.22-.47,5.12,5.12,0,0,0,1.06-.79l-.62-1.1a5.39,5.39,0,0,1-.86.62,3.17,3.17,0,0,1-.88.35,3.85,3.85,0,0,1-1,.11,1.87,1.87,0,0,1-.92-.22,1.57,1.57,0,0,1-.65-.65,2.33,2.33,0,0,1-.24-1.08c0-.11,0-.23,0-.36s0-.26,0-.39.05-.26.07-.37l.54,0q.3,0,.63,0a10.28,10.28,0,0,0,1.76-.13,5.26,5.26,0,0,0,1.32-.38,3.26,3.26,0,0,0,1-.65,2.75,2.75,0,0,0,.63-.91A2.72,2.72,0,0,0,158.45,178.29Zm-6.91-2.42-.32-.08a2.54,2.54,0,0,0-.43,0,2.29,2.29,0,0,0-1,.25,4.49,4.49,0,0,0-1,.71,7,7,0,0,0-1,1.1c0-.16.05-.32.07-.48a3.37,3.37,0,0,0,0-.44,4.4,4.4,0,0,0,0-.65,2.74,2.74,0,0,0-.16-.55l-1.62.73a2.42,2.42,0,0,1,.1.45,2.74,2.74,0,0,1,0,.5,5.59,5.59,0,0,1-.05.77c0,.28-.1.62-.17,1l-1.36,6.52h1.72l1.26-6.14a6.31,6.31,0,0,1,1.28-1.48,2.08,2.08,0,0,1,1.22-.49,1.69,1.69,0,0,1,.35,0,1.23,1.23,0,0,1,.29.09Zm-6.21-2.77a1.32,1.32,0,0,0-.17-.66,1.29,1.29,0,0,0-.44-.46,1.21,1.21,0,0,0-1.27,0,1.28,1.28,0,0,0-.62,1.12,1.25,1.25,0,0,0,.17.64,1.17,1.17,0,0,0,.45.46,1.27,1.27,0,0,0,1.27,0,1.15,1.15,0,0,0,.44-.46A1.25,1.25,0,0,0,145.33,173.1Zm-.92,2.68-1.87.29-2,9.61h1.81ZM138.12,179a7.14,7.14,0,0,1-.09,1.08c-.06.38-.14.77-.24,1.16a9.2,9.2,0,0,1-.38,1.12,4.66,4.66,0,0,1-.48.92,2.36,2.36,0,0,1-.55.59,2.81,2.81,0,0,1-.73.43,2.41,2.41,0,0,1-.84.16,3.62,3.62,0,0,1-1-.14,2.11,2.11,0,0,1-.76-.4l1-4.61a6.08,6.08,0,0,1,1-1.08,3.85,3.85,0,0,1,1-.67,2.13,2.13,0,0,1,.91-.22,1.34,1.34,0,0,1,.7.16,1,1,0,0,1,.42.54A2.78,2.78,0,0,1,138.12,179Zm1.88-.1a4.6,4.6,0,0,0-.27-1.65,2.22,2.22,0,0,0-2.19-1.47,3.33,3.33,0,0,0-1.13.2,4.74,4.74,0,0,0-1.15.61,5.88,5.88,0,0,0-1,1,2.71,2.71,0,0,0,.06-.38c0-.12,0-.24,0-.35a3.45,3.45,0,0,0-.07-.67,3.28,3.28,0,0,0-.18-.53l-1.61.73a3.94,3.94,0,0,1,.1.47,4.07,4.07,0,0,1,0,.5,5.1,5.1,0,0,1,0,.64c0,.23-.08.49-.13.77l-2.28,10.94,1.79-.39.81-3.91a3.16,3.16,0,0,0,.94.34,5.41,5.41,0,0,0,1.2.12,4.07,4.07,0,0,0,1.24-.2,4.75,4.75,0,0,0,1.18-.57,5.4,5.4,0,0,0,1-.91,5.61,5.61,0,0,0,.7-1.1,8.76,8.76,0,0,0,.54-1.36,10.69,10.69,0,0,0,.35-1.46A8.61,8.61,0,0,0,140,178.92Zm-9.3-2.51a4.18,4.18,0,0,0-.82-.41,4.93,4.93,0,0,0-1-.26,5.89,5.89,0,0,0-1-.1,5.71,5.71,0,0,0-1.68.25,3.82,3.82,0,0,0-1.25.67,2.9,2.9,0,0,0-.79,1,2.84,2.84,0,0,0-.27,1.23,2.38,2.38,0,0,0,.2,1,2.09,2.09,0,0,0,.61.75,4.08,4.08,0,0,0,1,.58l1.09.47a3.1,3.1,0,0,1,.71.39,1.17,1.17,0,0,1,.38.46,1.45,1.45,0,0,1,.11.61,1.26,1.26,0,0,1-.28.8,1.64,1.64,0,0,1-.74.53,3,3,0,0,1-1.07.2,5.14,5.14,0,0,1-1.51-.25,5.35,5.35,0,0,1-1.35-.68l-.71,1.33a4.53,4.53,0,0,0,1,.53,6,6,0,0,0,1.14.34,6.26,6.26,0,0,0,1.23.12,5.47,5.47,0,0,0,2.23-.45,3.48,3.48,0,0,0,1.47-1.22,3.28,3.28,0,0,0,.53-1.83,2.1,2.1,0,0,0-.48-1.39,3.75,3.75,0,0,0-1.48-1l-1.16-.48a2.6,2.6,0,0,1-.61-.34,1,1,0,0,1-.32-.4,1.38,1.38,0,0,1-.09-.52,1.09,1.09,0,0,1,.26-.73,1.51,1.51,0,0,1,.69-.45,3.11,3.11,0,0,1,1-.15,3.5,3.5,0,0,1,1.12.18,6.51,6.51,0,0,1,1.12.52Zm-8.22,1.3a2.26,2.26,0,0,0-.23-1,1.56,1.56,0,0,0-.65-.67,2,2,0,0,0-1-.24,4,4,0,0,0-1.26.21,4.45,4.45,0,0,0-1.21.65,5,5,0,0,0-1.06,1.05c0-.15,0-.29.06-.42a2.51,2.51,0,0,0,0-.37,3.34,3.34,0,0,0-.06-.65,3.2,3.2,0,0,0-.17-.55l-1.61.73a4.57,4.57,0,0,1,.1.48,3.79,3.79,0,0,1,0,.49,5.27,5.27,0,0,1,0,.64c0,.23-.08.51-.14.83l-1.43,6.81h1.71l1.3-6.31a8.19,8.19,0,0,1,1.12-1.19,4.82,4.82,0,0,1,1-.66,2.26,2.26,0,0,1,.83-.2.87.87,0,0,1,.64.21.9.9,0,0,1,.21.66,2.43,2.43,0,0,1,0,.42c0,.16-.06.35-.11.58l-1.34,6.49h1.73l1.49-7.16c0-.14.05-.27.07-.41A2.91,2.91,0,0,0,122.48,177.71Zm-8.25-5.31H112.4l-2.74,13.28h1.8Z"></path>
  <path class="cls-3" d="M185.69,197.07c27.1-10.37,50.59-8,50.49-4.67-.11,4-14.82-5.85-50.49,4.67"></path>
</svg>
