<?xml version="1.0" encoding="UTF-8"?>
<svg xmlns="http://www.w3.org/2000/svg" xmlns:xlink="http://www.w3.org/1999/xlink" width="100px" height="100px" viewBox="0 0 100 100" version="1.1">
  <title>Artboard Copy 3</title>
  <g id="Artboard-Copy-3" stroke="none" stroke-width="1" fill="none" fill-rule="evenodd">
    <g id="smileshine" transform="translate(13.000000, 44.000000)" fill="#FFFFFF">
      <path d="M21.5208616,0.00540753983 L24.5041988,0.00540753983 L24.5041988,2.43041072 L21.5208616,2.43041072 L21.5208616,0.00540753983 Z M54.3334047,0.00540753983 L57.3167419,0.00540753983 L57.3167419,2.43041072 L54.3334047,2.43041072 L54.3334047,0.00540753983 Z M69.8917585,7.96375132 C70.4672984,7.6779434 71.0002018,7.31332528 71.4750939,6.88041657 C71.7782661,6.63153017 71.9725588,6.27433058 72.0167616,5.88458193 C72.0169818,5.7112412 71.9227604,5.55154394 71.7709276,5.46791471 C71.5645078,5.3554393 71.3305554,5.30344989 71.0959267,5.31791452 C70.7040389,5.29511177 70.3223134,5.44780197 70.0542587,5.73458173 C69.7805723,6.05158249 69.6402108,6.46221471 69.6625915,6.88041657 C69.6605683,7.05925911 69.6759182,7.23787547 69.7084249,7.4137506 C69.757516,7.60087433 69.8187571,7.7845977 69.8917585,7.96375132 L69.8917585,7.96375132 Z M30.2458731,8.9387526 C30.2494557,9.59071337 30.5351404,10.2091902 31.0292074,10.6345882 C31.6074332,11.1338294 32.3486902,11.4036469 33.1125435,11.3929225 C33.9326586,11.3886328 34.7130729,11.0392613 35.2625463,10.4304212 C35.642216,10.0277191 35.8486835,9.49210064 35.8375471,8.9387526 C35.1412628,9.69627932 34.1662103,10.1371595 33.1375435,10.1595875 C32.0415154,10.1950176 30.9848967,9.7489235 30.2458731,8.9387526 L30.2458731,8.9387526 Z M31.6667083,5.98458206 C32.1010381,6.07749285 32.4113935,6.4612603 32.4113935,6.9054166 C32.4113935,7.34957291 32.1010381,7.73334035 31.6667083,7.82625114 C32.2625424,7.82625114 32.7417097,7.09708352 32.7417097,6.2179157 C32.7417097,5.33874788 32.2500424,4.61374693 31.6667083,4.61374693 C31.0833742,4.61374693 30.5667068,5.33458121 30.5667068,6.22624904 C30.5667068,7.11791688 31.0250407,7.82625114 31.6208749,7.82625114 C31.1883419,7.72307167 30.8869367,7.33138783 30.8979997,6.88685617 C30.9090627,6.44232451 31.2295783,6.06611834 31.6667083,5.98458206 L31.6667083,5.98458206 Z M34.4583786,5.98458206 C34.9037405,6.06306443 35.2304259,6.44705362 35.2365364,6.89923655 C35.242647,7.35141947 34.9264572,7.74409616 34.4833786,7.83458449 C35.0792127,7.83458449 35.55838,7.10541686 35.55838,6.22624904 C35.55838,5.34708122 35.0667127,4.61374693 34.4583786,4.61374693 C33.8500445,4.61374693 33.3333771,5.32624786 33.3333771,6.22624904 C33.3333771,7.12625022 33.8167111,7.82625114 34.4125452,7.82625114 C33.9694666,7.73576282 33.6532768,7.34308613 33.6593874,6.8909032 C33.665498,6.43872027 33.9921833,6.05473109 34.4375452,5.97624871 L34.4583786,5.98458206 Z M72.616762,12.313757 L73.8667637,12.313757 L74.5417646,9.85542048 L72.9167624,9.85542048 C72.7059744,9.85737903 72.4954278,9.84064685 72.2875949,9.80542041 C72.1189439,9.78089195 71.9538643,9.73612458 71.7959276,9.6720869 C72.7125033,9.17505723 73.5279369,8.51083927 74.2000974,7.713751 C74.7016669,7.09067798 74.9803485,6.31770325 74.9917651,5.51791478 C75.0588644,4.75467278 74.7123208,4.01389594 74.0834306,3.57624556 C73.4917632,3.15957835 72.5209286,2.98041145 71.1667601,2.98041145 C69.6834248,2.98041145 68.6125901,3.25957848 67.9209225,3.84291258 C67.229255,4.42624668 66.9000879,5.35541457 66.9000879,6.61791622 C66.8957307,7.41997218 67.0471437,8.21524437 67.3459218,8.95958597 C67.6203069,9.67341744 68.0468575,10.3189308 68.5959234,10.8512551 C69.0993326,11.3391033 69.7018744,11.7128498 70.3625924,11.9470899 C71.0792997,12.2011893 71.835599,12.3253578 72.5959287,12.313757 L72.616762,12.313757 Z M58.5792436,12.313757 L61.4959141,12.313757 L61.4959141,5.58458153 L62.220915,5.58458153 C62.536806,5.54885658 62.8546811,5.63203886 63.1125829,5.81791517 C63.2750831,5.96791537 63.3584165,6.40124927 63.3584165,7.11375021 L63.3584165,12.313757 L66.275087,12.313757 L66.275087,6.68458298 C66.275087,5.33874788 66.0292534,4.40541332 65.500086,3.87624596 C64.9709187,3.34707859 64.0834175,3.07624491 62.7959158,3.07624491 L58.5459102,3.07624491 L58.5792436,12.313757 Z M54.354238,12.313757 L57.3375753,12.313757 L57.3375753,3.07624491 L54.3334047,3.07624491 L54.354238,12.313757 Z M45.4125596,12.313757 L48.3292301,12.313757 L48.3292301,5.58458153 L49.0542311,5.58458153 C49.3689481,5.54702957 49.6861791,5.63043303 49.9417323,5.81791517 C50.1083991,5.96791537 50.1875659,6.40124927 50.1875659,7.11375021 L50.1875659,12.313757 L53.1250698,12.313757 L53.1250698,6.68458298 C53.1250698,5.33874788 52.8750694,4.40541332 52.3500687,3.87624596 C51.8250681,3.34707859 50.9334002,3.07624491 49.6458985,3.07624491 L48.3333968,3.07624491 L48.3333968,0.00540753983 L45.4167263,0.00540753983 L45.4125596,12.313757 Z M25.8292006,12.313757 L28.8125378,12.313757 L28.8125378,9.31791977 C29.4445021,10.9842182 30.9739421,12.1421676 32.7491953,12.2983899 C34.5244486,12.4546122 36.2326155,11.5815722 37.1458821,10.0512541 L37.7917163,12.313757 L40.6542201,12.313757 C41.3242714,12.3326404 41.9944839,12.2823745 42.6542227,12.1637568 C43.047964,12.0883778 43.4213732,11.9307793 43.7500575,11.7012562 C44.0950398,11.4585076 44.3684608,11.1275243 44.5417252,10.7429216 C44.7304105,10.3533666 44.8273348,9.92575957 44.825098,9.49292 C44.8210689,9.02817393 44.7188317,8.56952636 44.5250585,8.1470849 C44.2915975,7.65639059 43.9869185,7.20288212 43.6208906,6.8012498 L40.9500538,3.79707919 C40.8500536,3.66374568 40.7708869,3.56374555 40.7208868,3.4804121 C40.6757543,3.4049395 40.6526599,3.31833575 40.6542201,3.23041178 C40.6437446,3.10673148 40.7011684,2.98709858 40.8042203,2.91791136 C40.9499542,2.84044786 41.114625,2.80578033 41.2792209,2.81791123 L44.4958918,2.81791123 L43.7500575,0.00540753983 L40.7667202,0.00540753983 C40.0702327,-0.0231116104 39.3737216,0.0613139866 38.7042175,0.255407868 C38.2476702,0.408240256 37.8500802,0.699514957 37.566716,1.0887423 C37.3812298,1.34067101 37.2403,1.62253051 37.1500488,1.92207672 C37.0489982,2.22854713 36.99834,2.54938242 37.0000486,2.87207797 C37.0029019,3.30047249 37.0862958,3.72450928 37.2458822,4.12207961 C37.4126267,4.52563744 37.6387344,4.90201553 37.9167165,5.23874775 L40.833387,8.52625206 C40.9055764,8.60699347 40.9671836,8.69660407 41.0167205,8.79291908 C41.0577664,8.86404239 41.080663,8.94418041 41.0833873,9.02625272 C41.0947561,9.15471947 41.0377971,9.27971304 40.9333871,9.35541982 C40.8126588,9.44234624 40.665034,9.48368118 40.5167199,9.47208664 L37.4125491,9.47208664 C37.6272593,8.94266067 37.7376167,8.37672532 37.7375496,7.80541778 C37.6897871,5.59089682 36.0759429,3.72238592 33.8919314,3.35295621 C31.70792,2.9835265 29.5693178,4.21730391 28.7958711,6.2929158 L28.7958711,0.00540753983 L25.8333673,0.00540753983 L25.8292006,12.313757 Z M21.5375283,12.313757 L24.5208616,12.313757 L24.5208616,3.07624491 L21.5208616,3.07624491 L21.5375283,12.313757 Z M8.44167775,12.313757 L11.3291815,12.313757 L11.3291815,5.58458153 L12.9166836,5.58458153 L12.9166836,12.313757 L15.7916874,12.313757 L15.7916874,5.58458153 L16.2500213,5.58458153 C16.5708712,5.55242313 16.8927281,5.63510194 17.1583559,5.81791517 C17.3041894,5.96791537 17.3875228,6.40124927 17.3875228,7.11375021 L17.3875228,12.313757 L20.27086,12.313757 L20.27086,6.68458298 C20.27086,5.33874788 20.0250263,4.40541332 19.4958589,3.87624596 C18.9666916,3.34707859 18.0958571,3.07624491 16.7958554,3.07624491 L8.42501106,3.07624491 L8.44167775,12.313757 Z M0.825001083,12.313757 L3.66667148,12.313757 C4.33810792,12.3327791 5.00971624,12.2825132 5.67084078,12.1637568 C6.07225779,12.0925946 6.45333118,11.934762 6.78750891,11.7012562 C7.13322739,11.4557687 7.40664576,11.1219105 7.57917662,10.7345883 C7.76786198,10.3450333 7.86478624,9.91742622 7.8625495,9.48458666 C7.85852034,9.01984058 7.75628312,8.56119301 7.56250993,8.13875155 C7.33125631,7.65004719 7.02941818,7.19799195 6.66667542,6.79708313 L3.99583858,3.79291251 C3.89583845,3.65957901 3.81667168,3.55957887 3.76667161,3.47624543 C3.72153908,3.40077283 3.69844475,3.31416908 3.70000486,3.2262451 C3.68950847,3.10354285 3.74505431,2.98451606 3.84583838,2.91374469 C3.99206582,2.84278954 4.15471587,2.81256254 4.31667234,2.82624458 L7.52917655,2.82624458 L6.78750891,0.0179075563 L3.80833833,0.0179075563 C3.10490809,-0.0128812696 2.40117688,0.0715664756 1.72500227,0.267907885 C1.26845494,0.420740273 0.870864978,0.712014973 0.587500772,1.10124231 C0.403710019,1.35420487 0.262929149,1.63576661 0.170833558,1.93457674 C0.0731958272,2.24175209 0.0239950346,2.56226011 0.0250000328,2.88457799 C0.0278533202,3.31297251 0.111247222,3.7370093 0.270833689,4.13457963 C0.442879271,4.54382276 0.676095611,4.92455546 0.962501264,5.26374778 L3.87917176,8.5512521 C3.95136116,8.6319935 4.01296845,8.7216041 4.06250534,8.81791911 C4.10355118,8.88904242 4.12644775,8.96918045 4.12917209,9.05125275 C4.14054095,9.17971951 4.08358186,9.30471307 3.97917189,9.38041985 C3.85844362,9.46734627 3.71081882,9.50868122 3.56250468,9.49708667 L0,9.49708667 L0.825001083,12.313757 Z" id="Shape"></path>
    </g>
  </g>
</svg>
