<?xml version="1.0" encoding="UTF-8"?>
<svg xmlns="http://www.w3.org/2000/svg" id="Layer_1" data-name="Layer 1" viewBox="0 0 200 200">
  <defs>
    <style>.cls-1{fill:#fff;fill-rule:evenodd;}</style>
  </defs>
  <title>Artboard 5</title>
  <path class="cls-1" d="M61.65,85.23h7.16v5.82H61.65Zm78.75,0h7.16v5.82H140.4Zm37.34,19.1a16.6,16.6,0,0,0,3.8-2.6,3.62,3.62,0,0,0,1.3-2.39,1.14,1.14,0,0,0-.59-1,3,3,0,0,0-1.62-.36,3.17,3.17,0,0,0-2.5,1,3.89,3.89,0,0,0-.94,2.75,6.63,6.63,0,0,0,.11,1.28A10.68,10.68,0,0,0,177.74,104.33Zm-95.15,2.34a5.41,5.41,0,0,0,1.88,4.07,7.49,7.49,0,0,0,5,1.82,7,7,0,0,0,5.16-2.31,5.07,5.07,0,0,0,1.38-3.58,9.07,9.07,0,0,1-6.48,2.93A9,9,0,0,1,82.59,106.67ZM86,99.58A2.26,2.26,0,0,1,86,104c1.43,0,2.58-1.75,2.58-3.86S87.4,96.29,86,96.29s-2.64,1.73-2.64,3.87S84.46,104,85.89,104A2.26,2.26,0,0,1,86,99.58Zm6.7,0a2.26,2.26,0,0,1,.06,4.44c1.43,0,2.58-1.75,2.58-3.86s-1.18-3.87-2.64-3.87S90,98,90,100.16,91.16,104,92.59,104a2.26,2.26,0,0,1,.06-4.44Zm91.58,15.19h3l1.62-5.9H185a8.56,8.56,0,0,1-1.51-.12,5.09,5.09,0,0,1-1.18-.32,20.05,20.05,0,0,0,5.77-4.7,8.6,8.6,0,0,0,1.9-5.27,5.13,5.13,0,0,0-2.18-4.66c-1.42-1-3.75-1.43-7-1.43-3.56,0-6.13.67-7.79,2.07s-2.45,3.63-2.45,6.66a14.87,14.87,0,0,0,1.07,5.62,12.64,12.64,0,0,0,3,4.54,11.72,11.72,0,0,0,4.24,2.63A15.34,15.34,0,0,0,184.23,114.77Zm-33.69,0h7V98.62h1.74a3.07,3.07,0,0,1,2.14.56c.39.36.59,1.4.59,3.11v12.48h7V101.26c0-3.23-.59-5.47-1.86-6.74s-3.4-1.92-6.49-1.92h-10.2Zm-10.14,0h7.16V92.6H140.4Zm-21.46,0h7V98.62h1.74a3,3,0,0,1,2.13.56c.4.36.59,1.4.59,3.11v12.48h7.05V101.26c0-3.23-.6-5.47-1.86-6.74s-3.4-1.92-6.49-1.92H126V85.23h-7Zm-47,0h7.16v-7.19a11.15,11.15,0,0,0,20,1.76l1.55,5.43h6.87a23.4,23.4,0,0,0,4.8-.36A6.84,6.84,0,0,0,115,113.3,5.65,5.65,0,0,0,116.9,111a6.8,6.8,0,0,0,.68-3,7.91,7.91,0,0,0-.72-3.23,13.24,13.24,0,0,0-2.17-3.23l-6.41-7.21c-.24-.32-.43-.56-.55-.76a1.13,1.13,0,0,1-.16-.6.82.82,0,0,1,.36-.75,2.1,2.1,0,0,1,1.14-.24h7.72L115,85.23h-7.16a15.5,15.5,0,0,0-4.95.6,5.56,5.56,0,0,0-2.73,2,6.57,6.57,0,0,0-1,2,7.16,7.16,0,0,0-.36,2.28,8.2,8.2,0,0,0,.59,3A10.52,10.52,0,0,0,101,97.79l7,7.89a3.06,3.06,0,0,1,.44.64,1.2,1.2,0,0,1,.16.56.88.88,0,0,1-.36.79,1.51,1.51,0,0,1-1,.28H99.79a10.64,10.64,0,0,0,.78-4,11.08,11.08,0,0,0-21.46-3.63V85.23H72Zm-10.3,0h7.16V92.6H61.65Zm-31.43,0h6.93V98.62H41v16.15H47.9V98.62H49a3.27,3.27,0,0,1,2.18.56c.35.36.55,1.4.55,3.11v12.48h6.92V101.26c0-3.23-.59-5.47-1.86-6.74s-3.36-1.92-6.48-1.92H30.22Zm-18.28,0H18.8a23.45,23.45,0,0,0,4.81-.36,6.73,6.73,0,0,0,2.68-1.11,5.68,5.68,0,0,0,1.9-2.32,6.8,6.8,0,0,0,.68-3,7.91,7.91,0,0,0-.72-3.23A13.24,13.24,0,0,0,26,101.53l-6.41-7.21c-.24-.32-.43-.56-.55-.76a1.13,1.13,0,0,1-.16-.6.83.83,0,0,1,.35-.75A2.17,2.17,0,0,1,20.36,92h7.71l-1.78-6.74H19.14a15.5,15.5,0,0,0-5,.6,5.56,5.56,0,0,0-2.73,2,6.82,6.82,0,0,0-1,2,7.45,7.45,0,0,0-.35,2.28,8.2,8.2,0,0,0,.59,3,10.52,10.52,0,0,0,1.66,2.71l7,7.89a3.06,3.06,0,0,1,.44.64,1.2,1.2,0,0,1,.16.56.88.88,0,0,1-.36.79,1.51,1.51,0,0,1-1,.28H10Z"></path>
</svg>
