<?xml version="1.0" encoding="UTF-8"?>
<svg xmlns="http://www.w3.org/2000/svg" id="Layer_1" data-name="Layer 1" viewBox="0 0 286 286">
  <defs>
    <style>.cls-1{fill:#fff;}.cls-2{fill:#172b75;fill-rule:evenodd;}</style>
  </defs>
  <title>smileshine-zymo</title>
  <rect class="cls-1" width="286" height="286"></rect>
  <path class="cls-2" d="M96.13,125h8.75v7.11H96.13Zm96.25,0h8.75v7.11h-8.75ZM238,148.29a20.72,20.72,0,0,0,4.64-3.17,4.47,4.47,0,0,0,1.59-2.92,1.41,1.41,0,0,0-.72-1.27,3.69,3.69,0,0,0-2-.44,3.8,3.8,0,0,0-3,1.22,4.7,4.7,0,0,0-1.16,3.36,8.7,8.7,0,0,0,.14,1.56A12.76,12.76,0,0,0,238,148.29Zm-116.3,2.86a6.65,6.65,0,0,0,2.3,5,9.13,9.13,0,0,0,6.17,2.22,8.58,8.58,0,0,0,6.31-2.82,6.21,6.21,0,0,0,1.69-4.38,11.11,11.11,0,0,1-7.93,3.58A11,11,0,0,1,121.72,151.15Zm4.1-8.67a2.53,2.53,0,0,1,2.29,2.72,2.56,2.56,0,0,1-2.22,2.72c1.75-.06,3.16-2.15,3.16-4.73s-1.45-4.72-3.23-4.72-3.22,2.12-3.22,4.72,1.4,4.67,3.15,4.73a2.77,2.77,0,0,1,.07-5.44Zm8.2,0a2.77,2.77,0,0,1,.07,5.44c1.74-.06,3.15-2.15,3.15-4.73s-1.44-4.72-3.22-4.72-3.23,2.12-3.23,4.72,1.41,4.67,3.16,4.73a2.56,2.56,0,0,1-2.22-2.72A2.53,2.53,0,0,1,134,142.48Zm111.92,18.57h3.68l2-7.21h-4.69a11.21,11.21,0,0,1-1.84-.14,6.83,6.83,0,0,1-1.45-.39,25,25,0,0,0,7.06-5.75,10.51,10.51,0,0,0,2.32-6.44c0-2.63-.87-4.53-2.66-5.7s-4.59-1.75-8.6-1.75c-4.35,0-7.5.83-9.53,2.53s-3,4.44-3,8.14a18.06,18.06,0,0,0,1.3,6.87,15.45,15.45,0,0,0,3.68,5.56,14.56,14.56,0,0,0,5.17,3.21A18.83,18.83,0,0,0,245.94,161.05Zm-41.17,0h8.61V141.32h2.12a3.72,3.72,0,0,1,2.61.68c.49.44.73,1.71.73,3.8v15.25h8.6V144.53c0-3.94-.72-6.67-2.27-8.23S221,134,217.24,134H204.77Zm-12.39,0h8.75V134h-8.75Zm-26.24,0h8.61V141.32h2.13a3.75,3.75,0,0,1,2.61.68c.48.44.72,1.71.72,3.8v15.25h8.61V144.53c0-3.94-.73-6.67-2.28-8.23s-4.15-2.34-7.92-2.34h-3.87v-9h-8.61Zm-57.43,0h8.75v-8.78a13.63,13.63,0,0,0,24.44,2.14l1.89,6.64h8.4a29.57,29.57,0,0,0,5.86-.43,8.22,8.22,0,0,0,3.29-1.37,6.91,6.91,0,0,0,2.32-2.83,8.42,8.42,0,0,0,.82-3.65,9.73,9.73,0,0,0-.87-4,16.17,16.17,0,0,0-2.66-3.94l-7.83-8.82c-.29-.39-.53-.69-.67-.93a1.35,1.35,0,0,1-.2-.73,1,1,0,0,1,.44-.93,2.66,2.66,0,0,1,1.4-.29h9.43L161.34,125h-8.75a18.85,18.85,0,0,0-6,.73,6.69,6.69,0,0,0-3.34,2.38,8,8,0,0,0-1.25,2.49,8.8,8.8,0,0,0-.44,2.78,9.7,9.7,0,0,0,.73,3.65,12.31,12.31,0,0,0,2,3.31l8.55,9.65a3.85,3.85,0,0,1,.53.78,1.47,1.47,0,0,1,.2.69,1.1,1.1,0,0,1-.44,1,1.85,1.85,0,0,1-1.25.34h-9.13a12.83,12.83,0,0,0,.95-4.89,13.36,13.36,0,0,0-13.5-13.23,13.51,13.51,0,0,0-12.73,8.79V125h-8.75Zm-12.58,0h8.75V134H96.13Zm-38.41,0h8.46V141.32h4.69v19.73h8.46V141.32h1.35a4,4,0,0,1,2.66.68c.43.44.68,1.71.68,3.8v15.25h8.46V144.53c0-3.94-.73-6.67-2.28-8.23S86.09,134,82.28,134H57.72Zm-22.35,0h8.39a29.76,29.76,0,0,0,5.87-.43,8.28,8.28,0,0,0,3.29-1.37,7.07,7.07,0,0,0,2.32-2.83,8.42,8.42,0,0,0,.82-3.65,9.73,9.73,0,0,0-.87-4,16.17,16.17,0,0,0-2.66-3.94l-7.83-8.82c-.29-.39-.53-.69-.68-.93a1.42,1.42,0,0,1-.19-.73,1,1,0,0,1,.43-.93,2.68,2.68,0,0,1,1.4-.29h9.43L52.92,125H44.17a19,19,0,0,0-6.05.73,6.67,6.67,0,0,0-3.33,2.38,8,8,0,0,0-1.26,2.49,8.79,8.79,0,0,0-.43,2.78,9.88,9.88,0,0,0,.72,3.65,12.31,12.31,0,0,0,2,3.31l8.56,9.65a4.31,4.31,0,0,1,.53.78,1.56,1.56,0,0,1,.19.69,1.1,1.1,0,0,1-.43,1,1.88,1.88,0,0,1-1.26.34H33Z"></path>
</svg>
