<?xml version="1.0" encoding="UTF-8"?>
<svg xmlns="http://www.w3.org/2000/svg" xmlns:xlink="http://www.w3.org/1999/xlink" width="502px" height="492px" viewBox="0 0 502 492" version="1.1">
  <title>Strong export network</title>
  <g id="Page-4" stroke="none" stroke-width="1" fill="none" fill-rule="evenodd">
    <g id="Strong-export-network" transform="translate(6.000000, 6.580000)" stroke="#000" stroke-width="11.54">
      <path d="M13.23,270.94 C11.87,260.63 11.17,250.11 11.17,239.42 C11.17,107.19 118.36,0 250.58,0 C382.8,0 490,107.19 490,239.42 C490,371.65 382.81,478.84 250.58,478.84 C208.2,478.84 168.39,467.83 133.86,448.51" id="Path"></path>
      <path d="M154.22,232.2 C155.76,103.32 198.31,0.01 250.58,0.01 C302.85,0.01 346.99,107.2 346.99,239.43 C346.99,371.66 303.83,478.85 250.58,478.85 C223.86,478.85 199.68,451.86 182.22,408.26" id="Path"></path>
      <line x1="43.55" y1="122.18" x2="457.62" y2="122.18" id="Path"></line>
      <line x1="205.87" y1="360.05" x2="457.62" y2="360.05" id="Path"></line>
      <line x1="169.64" y1="241.12" x2="490" y2="241.12" id="Path"></line>
      <path d="M211.49,326.02 C211.49,267.62 164.15,220.27 105.74,220.27 C47.33,220.27 0,267.62 0,326.02 C0,355.22 11.84,381.66 30.97,400.79 L105.74,475.56 L180.51,400.79 C199.65,381.65 211.49,355.22 211.49,326.01 L211.49,326.02 Z" id="Path"></path>
      <circle id="Oval" cx="105.75" cy="326.02" r="45.23"></circle>
    </g>
  </g>
</svg>
