<?xml version="1.0" encoding="UTF-8"?>
<svg xmlns="http://www.w3.org/2000/svg" xmlns:xlink="http://www.w3.org/1999/xlink" width="150px" height="150px" viewBox="0 0 150 150" version="1.1">
  <title>tata skye</title>
  <defs>
    <path d="M61.3018455,32.3692151 C51.4167741,33.8936866 41.4781722,32.0399937 32.1257116,28.842172 L32.1257116,28.842172 C26.2746952,26.8422864 19.6908095,25.3404537 13.4920364,25.7652184 L13.4920364,25.7652184 C11.0373284,25.9336661 8.17863721,26.7218022 5.8695018,27.5843775 L5.8695018,27.5843775 C4.97372979,27.9189708 1.71452149,29.3429109 0,31.6071712 L0,31.6071712 C0,31.6198336 0.00308090115,31.6367167 0.00346601379,31.642856 L0.00346601379,31.642856 C1.36984567,30.4760003 6.22996723,28.7381872 11.7058839,28.3602349 L11.7058839,28.3602349 C18.4511319,27.762418 25.3877808,29.5501131 31.5503533,32.1478156 L31.5503533,32.1478156 C40.8153933,36.0531947 51.792259,38.3205247 61.6438255,36.1683071 L61.6438255,36.1683071 C81.2422079,31.8880454 87.2572823,13.1734598 80.0780124,0 L80.0780124,0 C86.6299338,13.2452131 81.2052371,29.3003193 61.3018455,32.3692151" id="path-1"></path>
  </defs>
  <g id="Zymo-Icons" stroke="none" stroke-width="1" fill="none" fill-rule="evenodd">
    <g id="Artboard" transform="translate(-1123.000000, -843.000000)">
      <g id="tata-skye" transform="translate(1123.000000, 843.000000)">
        <rect id="Rectangle" x="0" y="0" width="150" height="150"></rect>
        <g id="Skye-Logo-New" transform="translate(20.000000, 38.000000)">
          <g id="Group-27" fill="#FFFFFF">
            <path d="M5.6571478,6.36334699 L5.01928299,4.21787291 C4.85702252,3.61200557 4.67433496,2.85418808 4.53635574,2.2637864 L4.48548072,2.2637864 C4.35019943,2.86888046 4.1867827,3.63017772 4.02799098,4.21787291 L3.41941785,6.36334699 L5.6571478,6.36334699 Z M3.09104274,8.09395467 L2.38534458,10.7018521 L0,10.7018521 L3.110699,0.544777975 L6.09806462,0.544777975 L9.2496178,10.7018521 L6.7767836,10.7018521 L6.00595,8.09395467 L3.09104274,8.09395467 Z" id="Fill-1"></path>
            <path d="M61.4622245,5.2914219 C61.6607141,5.33627232 61.9015996,5.34323187 62.2284331,5.34323187 C63.447121,5.34323187 64.1913608,4.72885841 64.1913608,3.71624413 C64.1913608,2.76433258 63.5708398,2.21066185 62.4242248,2.21066185 C61.9532455,2.21066185 61.6352766,2.2566722 61.4622245,2.30074934 L61.4622245,5.2914219 Z M59.1817133,0.683427643 C59.9093802,0.562022189 60.8933493,0.475801119 62.2947248,0.475801119 C63.7061211,0.475801119 64.7436631,0.733304406 65.4054238,1.28813506 C66.043674,1.79811529 66.4657054,2.63712751 66.4657054,3.6304097 C66.4657054,4.64302398 66.1585282,5.49054231 65.5534238,6.05117259 C64.7783506,6.78115188 63.6047565,7.11482355 62.2392247,7.11482355 C61.9532455,7.11482355 61.6822975,7.10631744 61.4622245,7.05682732 L61.4622245,10.7016974 L59.1817133,10.7016974 L59.1817133,0.683427643 Z" id="Fill-3"></path>
            <path d="M67.7418204,5.76602443 C67.7418204,4.67569519 67.7221641,3.96156821 67.6824662,3.33636879 L69.6384565,3.33636879 L69.7217065,4.71087958 L69.7891544,4.71087958 C70.1645504,3.61204423 71.0471549,3.16508657 71.7624885,3.16508657 C71.9733114,3.16508657 72.081999,3.18093888 72.2500407,3.21496334 L72.2500407,5.36159734 C72.0650406,5.336079 71.8704052,5.32525304 71.6063947,5.32525304 C70.7677277,5.32525304 70.1988525,5.74785227 70.0705087,6.476285 C70.0269566,6.62088894 70.008842,6.78714482 70.008842,6.96809308 L70.008842,10.7018907 L67.7221641,10.7018907 L67.7418204,5.76602443 Z" id="Fill-5"></path>
            <path d="M76.7697464,9.24220281 C77.6616009,9.24220281 78.2231532,8.3436478 78.2231532,7.01398743 C78.2231532,5.92288491 77.7972676,4.81399688 76.7697464,4.81399688 C75.6755482,4.81399688 75.259298,5.92288491 75.259298,7.03834585 C75.259298,8.28333171 75.7880899,9.24220281 76.7408402,9.24220281 L76.7697464,9.24220281 Z M76.7173298,10.8684173 C74.5632353,10.8684173 72.9317659,9.45949537 72.9317659,7.07391687 C72.9317659,4.68640517 74.4772873,3.16535722 76.8387361,3.16535722 C79.1046014,3.16535722 80.6015603,4.72893574 80.6015603,6.95947097 C80.6015603,9.6392837 78.6941325,10.8684173 76.7308194,10.8684173 L76.7173298,10.8684173 Z" id="Fill-7"></path>
            <path d="M86.9102552,6.47624633 C86.9102552,6.32932253 86.9102552,6.17969225 86.8543697,6.05132724 C86.7441405,5.4296076 86.2334633,4.92813348 85.5254526,4.92813348 C84.4748064,4.92813348 83.9579625,5.85955302 83.9579625,7.03842318 C83.9579625,8.25634413 84.5657648,9.04547958 85.5181297,9.04547958 C86.1729528,9.04547958 86.7129218,8.60122841 86.8362552,7.94664423 C86.8724843,7.79740058 86.9102552,7.62611837 86.9102552,7.43550407 L86.9102552,6.47624633 Z M89.1822872,0 L89.1822872,8.50766115 C89.1822872,9.34783329 89.1988601,10.2112039 89.2327768,10.7018521 L87.2247553,10.7018521 L87.1168386,9.63936103 L87.0748282,9.63936103 C86.6134842,10.4528549 85.722786,10.8681079 84.7750461,10.8681079 C83.0406705,10.8681079 81.6269058,9.38185775 81.6269058,7.0786339 C81.61617,4.61611373 83.1713268,3.16543455 84.9322962,3.16543455 C85.8303173,3.16543455 86.5483488,3.502586 86.8543697,4.0029002 L86.9102552,4.0029002 L86.9102552,0 L89.1822872,0 Z" id="Fill-9"></path>
            <path d="M97.9277798,8.34376379 C97.9277798,9.30302153 97.9728736,10.0898371 98.0079465,10.7018907 L96.0207375,10.7018907 L95.9178312,9.65757185 L95.867727,9.65757185 C95.5848311,10.1161288 94.8999455,10.8681466 93.56332,10.8681466 C92.0686736,10.8681466 90.9902774,9.93324729 90.9902774,7.6686876 L90.9902774,3.33636879 L93.2669345,3.33636879 L93.2669345,7.29596513 C93.2669345,8.36928213 93.6238304,9.01652012 94.4227995,9.01652012 C95.0498726,9.01652012 95.4445394,8.58425485 95.5678728,8.22235833 C95.6333936,8.09399333 95.6622999,7.92000463 95.6622999,7.73905637 L95.6622999,3.33636879 L97.9277798,3.33636879 L97.9277798,8.34376379 Z" id="Fill-11"></path>
            <path d="M105.289472,10.5233397 C104.892493,10.7286463 104.126284,10.8682239 103.241753,10.8682239 C100.877991,10.8682239 99.3540532,9.4159982 99.3540532,7.07874989 C99.3540532,4.92824947 100.842533,3.1651639 103.569357,3.1651639 C104.183326,3.1651639 104.82967,3.28656935 105.311441,3.4590115 L104.962639,5.16835389 C104.691691,5.04733507 104.268117,4.92824947 103.673805,4.92824947 C102.467065,4.92824947 101.693533,5.79393995 101.6997,7.00219486 C101.6997,8.36085335 102.591554,9.07962003 103.708492,9.07962003 C104.268117,9.07962003 104.691691,8.99107911 105.023149,8.83448927 L105.289472,10.5233397 Z" id="Fill-13"></path>
            <path d="M109.344249,1.33039499 L109.344249,3.33629146 L111,3.33629146 L111,5.03132811 L109.344249,5.03132811 L109.344249,7.69528854 C109.344249,8.60118975 109.591302,9.00909661 110.254218,9.00909661 C110.577583,9.00909661 110.722885,8.99092445 110.926,8.93756791 L110.961073,10.6689489 C110.660062,10.8015669 110.094656,10.8680693 109.476062,10.8680693 C108.74878,10.8680693 108.131728,10.6082461 107.751322,10.2440298 C107.325436,9.7959122 107.112301,9.09415775 107.112301,8.05834498 L107.112301,5.03132811 L106.142592,5.03132811 L106.142592,3.33629146 L107.112301,3.33629146 L107.112301,1.94360852 L109.344249,1.33039499 Z" id="Fill-15"></path>
            <polygon id="Fill-17" points="42.9872316 0.544855303 42.9872316 3.76983266 40.2480744 3.76983266 40.2480744 10.9199952 35.7325312 10.9199952 35.7325312 3.76983266 33.0330719 3.76983266 33.0330719 0.508510996"></polygon>
            <path d="M34.1213348,10.9201886 L29.612729,10.9201886 L27.8070513,6.20934765 L25.8171444,10.9201886 L21.5324658,10.9201886 C21.9583514,9.51783959 24.7591753,2.74735902 25.5180609,0.508704316 L30.0871771,0.545048624 C31.1451462,3.30953586 34.1213348,10.9201886 34.1213348,10.9201886" id="Fill-19"></path>
            <polygon id="Fill-21" points="19.9128673 10.9201886 15.3449074 10.9201886 15.3449074 3.77002598 12.6724273 3.77002598 12.6373544 0.508704316 22.626587 0.545048624 22.626587 3.77002598 19.9128673 3.77002598"></polygon>
            <path d="M54.4819793,10.9201886 L49.9745299,10.9201886 L48.160373,6.20934765 L46.1912785,10.9201886 L41.9100687,10.9201886 C42.3517564,9.51783959 45.105174,2.74735902 45.8775493,0.508704316 L50.4404988,0.545048624 C51.4984679,3.30953586 54.4735002,10.9201886 54.4735002,10.9201886" id="Fill-23"></path>
            <path d="M78.8006232,15.7805051 C79.3398213,15.4754449 79.9788424,15.407396 80.5677592,15.5887309 C81.1574469,15.7704524 81.6469263,16.188412 81.921343,16.7436293 L81.921343,16.7436293 L83.4795832,19.9044241 C84.0631042,19.7953912 84.6763023,19.7145831 85.3284275,19.6751457 L85.3284275,19.6751457 L85.7631777,19.648854 C86.6334488,19.598204 87.4516887,20.0498014 87.8690951,20.814965 L87.8690951,20.814965 L88.0787618,21.1985135 L88.0787618,21.1985135 C88.3323661,21.66287 90.0386063,25.0104127 89.1941581,29.3404117 C102.648673,43.2359231 99.5876929,65.7465821 75.7103513,69.4537015 C65.8174729,70.9898285 55.8710215,69.1223497 46.5111745,65.9000788 C40.655537,63.8845163 34.0664514,62.3712012 27.8627826,62.7992134 C25.4061359,62.9689491 22.545187,63.7631108 20.2342279,64.6322811 C19.3311963,64.972139 16.0285597,66.4235915 14.3223196,68.732615 L14.3223196,68.732615 L14.3145893,68.6729155 C14.071488,66.7384821 8.52774754,18.4379468 60.0932625,18.0995813 C60.0932625,18.0995813 60.1001596,18.0994257 60.1137906,18.0992128 L60.1747221,18.0985008 C60.1881899,18.0983863 60.2033004,18.098282 60.2200333,18.0982003 L60.3397346,18.0980789 C61.17279,18.1001536 64.0554817,18.1633052 68.0363174,18.8608785 C69.0669889,17.6634664 70.1006083,16.9011832 70.6872486,16.5200097 L70.8750057,16.4012145 C70.9868272,16.3324502 71.070972,16.2844336 71.1215789,16.2564609 L71.1215789,16.2564609 L71.4969748,16.0496076 C72.2431418,15.6386077 73.1585067,15.684618 73.858809,16.172173 L73.858809,16.172173 L74.208382,16.4149839 C74.7256114,16.773014 75.1969761,17.163522 75.6463721,17.5687224 L75.6463721,17.5687224 Z M61.2674348,39.8766652 L59.3337987,39.8766652 C59.5018405,40.8278034 59.781653,41.9683961 60.1682261,43.2744713 C60.6099138,44.7680677 61.1321535,46.3177271 61.7199141,47.8824656 C62.3099873,49.4502971 62.9409146,50.9597458 63.596894,52.3698276 C64.2494046,53.7737232 64.8749361,54.9185689 65.45653,55.7718868 L65.5540405,55.9153309 L65.4919884,56.0777203 C64.8385542,59.5041817 62.6247376,60.7773405 61.4385842,61.3755692 L61.2508512,61.4692781 C60.8075258,61.6891945 60.5675761,61.8061946 60.7182159,61.9272207 C61.2732161,62.3722451 61.9106955,62.5883778 62.6680395,62.5883778 C63.4049564,62.5883778 64.0817483,62.4600128 64.6803006,62.2075358 C65.2726862,61.9573787 65.8669989,61.4972752 66.4474366,60.8403712 C67.043291,60.1649084 67.668437,59.2137701 68.3047602,58.014408 C68.9006738,56.8923146 69.5793449,55.4470347 70.3253133,53.7132361 L70.5135839,53.2737956 C70.6400006,52.9768549 70.8269277,52.5186847 71.0755216,51.8992849 C71.3271987,51.2694457 71.5966051,50.5688512 71.8760322,49.8156734 C72.1623969,49.0454834 72.4560845,48.234696 72.7578659,47.3848579 C73.0573347,46.5415926 73.3286682,45.7315785 73.5656995,44.9776274 C73.8008038,44.2283161 73.9969809,43.5366143 74.1488351,42.9218542 C74.2956789,42.3275861 74.3700644,41.8844949 74.3700644,41.6041797 C74.3700644,40.9878731 74.2320852,40.5416887 73.9611371,40.2776125 C73.6871058,40.0116031 73.2450327,39.8766652 72.6476367,39.8766652 L71.0462299,39.8766652 C70.9383132,40.7002117 70.7806777,41.6064996 70.5764068,42.5754233 C70.3466984,43.6611129 70.0688129,44.7703875 69.7504586,45.872316 C69.4305626,46.9792709 69.0833021,48.0630272 68.717927,49.092267 C68.3510102,50.1261466 67.9875621,51.0726452 67.6364474,51.9050845 L67.3616453,52.5565755 L67.0375097,51.9278963 C66.227749,50.356585 65.5012384,48.666188 64.8791757,46.904649 C64.2551859,45.1392436 63.7872899,43.3749981 63.487821,41.6614027 C63.3868418,41.1162381 63.130925,40.6920922 62.7061957,40.3673133 C62.2729872,40.0371214 61.8023933,39.8766652 61.2674348,39.8766652 Z M33.7087461,34.7510738 C32.4603811,34.7510738 31.3191619,34.9451679 30.3166928,35.3283297 C29.3176925,35.7099449 28.4655359,36.2292046 27.7837336,36.8721895 C27.103473,37.5147878 26.5746811,38.2602328 26.2127747,39.0872591 C25.8508684,39.9142854 25.66741,40.7822957 25.66741,41.6684782 C25.66741,43.1179975 26.1349205,44.2547237 27.0965355,45.1443859 C28.0720254,46.0468074 29.5007655,46.7075778 31.3434432,47.1077518 C32.5127977,47.3637086 33.4697877,47.6053595 34.1874337,47.8257452 C34.936684,48.0554103 35.4947675,48.2993812 35.8925177,48.5711902 C36.3133928,48.8588515 36.5955179,49.1816972 36.7307992,49.5319945 C36.8568305,49.8560001 36.9208097,50.2349089 36.9208097,50.6578948 C36.9208097,51.651177 36.5565908,52.4596445 35.8389447,53.0600988 C35.129007,53.6551402 33.9214962,53.9435748 32.1489643,53.9435748 C30.7379534,53.9435748 29.49113,53.6968975 28.444338,53.2101158 C27.6052856,52.8203811 26.8394624,52.3529314 26.1607435,51.8154996 L26.1607435,53.180731 C26.1607435,54.4087046 26.6745041,55.3691223 27.7320878,56.119207 C28.810484,56.883984 30.461995,57.2713988 32.6426832,57.2713988 C33.9473191,57.2713988 35.1162882,57.1001166 36.1179865,56.7618053 C37.1100493,56.4273603 37.9606642,55.9467648 38.6459353,55.3354845 C39.3265814,54.7280706 39.8461232,53.9934516 40.1910712,53.150573 C40.5391026,52.3003482 40.7156235,51.3329709 40.7156235,50.274733 C40.7156235,48.8507321 40.2565921,47.6861676 39.3127064,46.7141507 C38.3668935,45.7402006 36.8865076,45.0326465 34.9131736,44.6115939 C33.8694649,44.3981677 32.9926417,44.177782 32.3096831,43.9562364 C31.6143912,43.731211 31.0524535,43.4891734 30.6400575,43.2370831 C30.1964428,42.966434 29.8823281,42.6563474 29.7061926,42.3161028 C29.5339113,41.9828178 29.4464217,41.6251744 29.4464217,41.2532252 C29.4464217,40.2730888 29.8476406,39.4773804 30.6381304,38.8869787 C31.4097349,38.3108828 32.6746728,38.0309543 34.5046318,38.0309543 C36.8248409,38.0309543 38.7018207,38.6604068 40.094717,39.9038461 L40.094717,38.5065234 C40.094717,38.0955234 39.9987483,37.6582318 39.8102794,37.2062478 C39.6275919,36.7689562 39.2969043,36.3695555 38.8270812,36.0188716 C38.3410706,35.6554285 37.6804662,35.3507549 36.8633826,35.1129704 C36.0366636,34.8728659 34.9748403,34.7510738 33.7087461,34.7510738 Z M83.1228414,39.4934647 C81.9103201,39.4934647 80.782976,39.7080508 79.7724131,40.13065 C78.7664753,40.5513161 77.889652,41.1656895 77.167381,41.9567582 C76.4420265,42.74976 75.8673701,43.7302831 75.46037,44.8701024 C75.0506719,46.0149481 74.8429322,47.3175436 74.8429322,48.7419311 C74.8429322,50.0398869 75.0795782,51.2245566 75.5455471,52.261916 C76.0138285,53.303915 76.6428287,54.2098162 77.415204,54.953328 C78.1860376,55.6960664 79.0817462,56.2744822 80.0780486,56.672723 C81.0735802,57.0698039 82.1091952,57.2716308 83.154831,57.2716308 C84.3103105,57.2716308 85.294665,57.1703307 86.0816861,56.9700504 C86.8544468,56.7740231 87.4803637,56.5041473 87.9428639,56.1689291 C88.3903328,55.8441501 88.7094579,55.4660147 88.8913746,55.0445754 C89.079458,54.6103769 89.174656,54.1278482 89.174656,53.6120684 L89.174656,52.8175199 C88.5167495,53.3236337 87.7505409,53.6801173 86.8902906,53.8792377 C85.8831965,54.1131558 84.8996128,54.2310815 83.9661333,54.2310815 C82.596362,54.2310815 81.4169866,53.8792377 80.4619238,53.186376 C79.4899026,52.4807551 78.9040691,51.5180176 78.7213815,50.3252284 L78.6624127,49.9428398 L81.913018,49.9428398 C84.7365815,49.9428398 86.8039572,49.6389396 88.0577181,49.0404184 C89.248656,48.4728286 89.8271666,47.4772265 89.8271666,45.995616 C89.8271666,44.9957609 89.6394686,44.080967 89.2686977,43.2767525 C88.8971559,42.4702182 88.396114,41.7816095 87.7809888,41.2287121 C87.161624,40.6738814 86.4424363,40.2416162 85.642311,39.9435155 C84.8391024,39.6450282 83.9915708,39.4934647 83.1228414,39.4934647 Z M57.6632096,39.8766265 L55.8213027,39.8766265 C55.1502921,39.8766265 54.5444169,39.9404224 54.0206354,40.0672408 C53.5288436,40.1855531 53.0393642,40.4770809 52.5649162,40.9340912 C51.56052,41.8995352 50.6231863,42.9330281 49.7779673,44.0055719 C48.9115503,45.1067271 48.0501438,46.2144552 47.2184143,47.299758 L46.8160392,47.824044 L47.2211122,48.3672754 C48.1858105,49.6613648 49.1751754,50.9597072 50.161457,52.2255717 C51.1361761,53.4771304 52.1991556,54.6985312 53.3211039,55.8553628 C53.656802,56.1925142 54.0707396,56.4666431 54.548271,56.6665368 C55.0250316,56.8668171 55.4963964,56.9677306 55.9488757,56.9677306 C56.7744385,56.9677306 57.369522,56.8107541 57.719095,56.5002809 C58.0258868,56.2284719 58.2818036,55.841057 58.4826057,55.3465424 C58.3319078,55.2908661 58.1835223,55.2317099 58.0401472,55.1706205 C57.7892409,55.0650674 57.5225325,54.9251031 57.2485011,54.7573007 C56.9733135,54.5883383 56.6726884,54.3629263 56.3535633,54.0868642 C56.0417611,53.817375 55.6833235,53.4852499 55.2882713,53.0993816 C54.5039481,52.2804748 53.7504582,51.4244503 53.0416768,50.5475473 C52.3359786,49.6745106 51.6325929,48.8010873 50.9319052,47.9280506 L50.7673322,47.7231306 L50.9288219,47.515504 C51.3843845,46.9305153 51.947093,46.24268 52.6481662,45.4133338 C53.3372914,44.5990667 54.0352813,43.7940789 54.7224794,43.0200225 C55.4135317,42.2420996 56.0799174,41.5148268 56.7035218,40.8567629 C57.0831573,40.4565889 57.4011262,40.1321966 57.6632096,39.8766265 Z M43.9474205,34.7762055 L42.8778888,34.7762055 L42.8778888,54.0908853 C42.8778888,55.0640621 43.1083681,55.7859219 43.5627745,56.2375193 C43.9967538,56.668238 44.665452,56.8855306 45.5515252,56.8723847 L46.624911,56.8480263 L46.624911,37.3659308 C46.624911,36.5887812 46.4214109,35.9724746 46.0040045,35.4818264 C45.6047127,35.0136035 44.9128896,34.7762055 43.9474205,34.7762055 Z M82.7247058,42.4860705 C83.8100395,42.4860705 84.6922586,42.7277215 85.3463109,43.2036772 C86.033509,43.7043781 86.3826967,44.466062 86.3826967,45.4682369 C86.3826967,45.83168 86.2917383,46.1533658 86.1129049,46.4259481 C85.9279048,46.7081964 85.6180297,46.9235558 85.1667067,47.0828521 C84.7608628,47.2262962 84.2305292,47.3287562 83.5448728,47.3956452 C82.88581,47.4606009 82.0155389,47.4930788 80.9579552,47.4930788 L78.6670377,47.4930788 L78.7179127,46.5519932 C78.7402669,46.0219077 78.8497253,45.5018747 79.0428191,45.0116132 C79.2389963,44.5140055 79.5199651,44.0767139 79.8787882,43.710951 C80.233757,43.3486678 80.6565593,43.0517271 81.1367886,42.8282483 C81.6247263,42.600903 82.1592994,42.4860705 82.7247058,42.4860705 Z M79.9064611,17.743407 L75.2525532,20.3814625 C74.6428238,19.6422038 73.8823965,18.9284635 72.9292607,18.2684663 L72.5793023,18.0252688 L72.2066042,18.2313487 C72.0138958,18.3376751 67.4914151,20.897629 67.2008108,26.8031924 C67.1950296,26.8727878 67.058592,28.5434661 67.8332798,30.5783607 C68.5447592,32.448546 70.190489,35.0027002 73.9899278,36.54656 L74.7507405,36.771972 L74.8197301,36.788211 C75.8318347,36.9737989 76.7633871,37.0325684 77.6155436,36.9977707 C80.161607,36.8937641 82.0073681,35.955385 83.2063997,35.0587632 C84.9465566,33.7565544 85.7243277,32.2733973 85.7435985,32.2339599 C88.6654433,27.0692018 86.2141924,22.4762865 86.1089736,22.2833524 L85.8989215,21.8994173 L85.4634005,21.9257089 C84.2643688,21.9983975 83.2090976,22.222263 82.2752327,22.5478152 L79.9064611,17.743407 Z M79.3167734,19.6654023 L81.0029719,23.0856336 C79.4331692,23.8855951 78.2954189,24.9937098 77.4794915,26.1014379 C77.4101165,24.9542724 77.1499601,23.6895678 76.5571891,22.4287296 L75.3689491,23.1200447 C76.453512,25.4727587 76.189116,27.8119402 75.8842513,29.114149 C75.7096575,29.6005441 75.6144596,29.9724933 75.5716783,30.1580813 L76.8975121,30.5443362 C76.9603351,30.3641612 77.0778872,29.9995582 77.1927414,29.4953776 C77.8521895,27.6240324 79.8205131,23.8627832 85.0860775,23.341977 C85.5647651,24.4705838 86.6462447,27.8374586 84.5337752,31.5735761 C84.4243168,31.7819759 81.7911492,36.6451536 75.1010844,35.4345788 L74.4751675,35.252084 C68.1778424,32.6743446 68.5543946,27.1565828 68.5755926,26.8975329 C68.7864156,22.6143176 71.5143957,20.3559441 72.5126252,19.6692687 C73.1177296,20.1243458 73.6287922,20.5879291 74.0608445,21.066978 C72.9890003,21.7598397 70.1743014,23.9915348 70.6487495,28.0841359 C70.6537599,28.1285997 71.1933435,32.535927 75.8260534,33.6308959 C75.8464805,33.6359222 76.5941891,33.8160972 77.634429,33.7739533 C79.4408776,33.7001047 82.1287744,32.9527266 83.4072019,29.4435677 C83.4334102,29.3600531 84.043525,27.3703955 83.3081498,25.0308274 L81.9946493,25.4464671 C82.5908891,27.3456505 82.1021806,28.9981566 82.1029514,28.9981566 C80.5300655,33.3165563 76.3394286,32.3333268 76.1528869,32.2884763 C72.4729272,31.4185328 72.0350938,28.0713767 72.01775,27.9283193 C71.549854,23.8948745 74.9326573,22.1387484 75.1084073,22.0490476 L75.4903554,21.8325283 L76.0661681,21.5166421 C76.0646264,21.5139357 76.0626993,21.5116158 76.0615431,21.509296 L79.3167734,19.6654023 Z" id="Combined-Shape"></path>
          </g>
          <g id="Group-30" transform="translate(15.000000, 37.000000)">
            <mask id="mask-2" fill="white">
              <use xlink:href="#path-1"></use>
            </mask>
            <use id="Clip-29" fill="#FFFFFF" xlink:href="#path-1"></use>
            <path d="M61.3018455,32.3692151 C51.4167741,33.8936866 41.4781722,32.0399937 32.1257116,28.842172 L32.1257116,28.842172 C26.2746952,26.8422864 19.6908095,25.3404537 13.4920364,25.7652184 L13.4920364,25.7652184 C11.0373284,25.9336661 8.17863721,26.7218022 5.8695018,27.5843775 L5.8695018,27.5843775 C4.97372979,27.9189708 1.71452149,29.3429109 0,31.6071712 L0,31.6071712 C0,31.6198336 0.00308090115,31.6367167 0.00346601379,31.642856 L0.00346601379,31.642856 C1.36984567,30.4760003 6.22996723,28.7381872 11.7058839,28.3602349 L11.7058839,28.3602349 C18.4511319,27.762418 25.3877808,29.5501131 31.5503533,32.1478156 L31.5503533,32.1478156 C40.8153933,36.0531947 51.792259,38.3205247 61.6438255,36.1683071 L61.6438255,36.1683071 C81.2422079,31.8880454 87.2572823,13.1734598 80.0780124,0 L80.0780124,0 C86.6299338,13.2452131 81.2052371,29.3003193 61.3018455,32.3692151" id="Fill-28" fill="#828282" mask="url(#mask-2)"></path>
          </g>
          <g id="Group-43" transform="translate(26.000000, 18.000000)"></g>
        </g>
      </g>
    </g>
  </g>
</svg>
