<?xml version="1.0" encoding="UTF-8"?>
<svg xmlns="http://www.w3.org/2000/svg" xmlns:xlink="http://www.w3.org/1999/xlink" width="100px" height="100px" viewBox="0 0 100 100" version="1.1">
  <title>Artboard</title>
  <defs>
    <path d="M37.365589,19.8023843 C31.3402972,20.7350041 25.2823764,19.6009778 19.5817292,17.6446594 L19.5817292,17.6446594 C16.0153329,16.4211974 12.0022275,15.5024272 8.2238615,15.7622838 L8.2238615,15.7622838 C6.72763231,15.8653344 4.98516145,16.3474892 3.57766378,16.8751835 L3.57766378,16.8751835 C3.03165985,17.0798763 1.04505998,17.9509943 0,19.3361917 L0,19.3361917 C0,19.3439382 0.00187791551,19.3542667 0.00211265495,19.3580225 L0.00211265495,19.3580225 C0.834968182,18.6441799 3.79737989,17.581045 7.13513997,17.3498266 L7.13513997,17.3498266 C11.2466012,16.9841026 15.474728,18.0777536 19.2310285,19.6669396 L19.2310285,19.6669396 C24.8783899,22.0561176 31.5691681,23.443193 37.5740377,22.1265395 L37.5740377,22.1265395 C49.5199277,19.508021 53.1863228,8.05907442 48.8103104,0 L48.8103104,0 C52.8039325,8.1029707 49.4973927,17.9249383 37.365589,19.8023843" id="path-1"></path>
  </defs>
  <g id="Artboard" stroke="none" stroke-width="1" fill="none" fill-rule="evenodd">
    <g id="Skye-Logo-New-1" transform="translate(16.000000, 28.000000)">
      <g id="Group-27" fill="#FFFFFF" fill-rule="nonzero">
        <path d="M3.44550547,3.86334168 L3.05701171,2.56077253 C2.9581864,2.19293583 2.84691991,1.73284653 2.76288319,1.37439941 L2.73189759,1.37439941 C2.64950404,1.74176663 2.54997452,2.20396859 2.45326187,2.56077253 L2.0826083,3.86334168 L3.44550547,3.86334168 Z M1.8826103,4.9140354 L1.45280239,6.49735291 L0,6.49735291 L1.89458201,0.330747868 L3.7140474,0.330747868 L5.63351178,6.49735291 L4.12742354,6.49735291 L3.65794467,4.9140354 L1.8826103,4.9140354 Z" id="Fill-1"></path>
        <path d="M37.4337809,3.21255006 C37.5546717,3.23977983 37.7013838,3.24400514 37.9004428,3.24400514 C38.642689,3.24400514 39.0959708,2.87100418 39.0959708,2.25622159 C39.0959708,1.67829309 38.7180403,1.34214622 38.0196905,1.34214622 C37.7328389,1.34214622 37.5391789,1.3700802 37.4337809,1.3968405 L37.4337809,3.21255006 Z M36.0448276,0.414925431 C36.4880157,0.341217248 37.0873054,0.288870353 37.9408181,0.288870353 C38.8004339,0.288870353 39.4323524,0.445206819 39.8354001,0.782057913 C40.2241286,1.09167923 40.4811682,1.60106381 40.4811682,2.20410943 C40.4811682,2.81889202 40.2940809,3.33344087 39.92554,3.67381305 C39.453479,4.11700111 38.7386974,4.31958125 37.9070155,4.31958125 C37.7328389,4.31958125 37.5678171,4.31441698 37.4337809,4.28437033 L37.4337809,6.49725904 L36.0448276,6.49725904 L36.0448276,0.414925431 Z" id="Fill-3"></path>
        <path d="M41.2583906,3.50069272 C41.2583906,2.8387275 41.2464188,2.40516376 41.2222407,2.02559009 L42.4135433,2.02559009 L42.464247,2.86008879 L42.5053264,2.86008879 C42.7339626,2.1929593 43.271516,1.92160052 43.7071923,1.92160052 C43.8355948,1.92160052 43.9017914,1.93122484 44.0041378,1.95188191 L44.0041378,3.25515527 C43.8914628,3.23966246 43.7729194,3.23308976 43.6121229,3.23308976 C43.1013299,3.23308976 42.7548544,3.48965997 42.6766862,3.93190907 C42.6501607,4.01970162 42.6391279,4.12063958 42.6391279,4.23049763 L42.6391279,6.49737641 L41.2464188,6.49737641 L41.2583906,3.50069272 Z" id="Fill-5"></path>
        <path d="M46.7568802,5.61116457 C47.3000673,5.61116457 47.6420826,5.06563013 47.6420826,4.2583612 C47.6420826,3.59592651 47.3826955,2.9226938 46.7568802,2.9226938 C46.0904549,2.9226938 45.8369363,3.59592651 45.8369363,4.27314979 C45.8369363,5.02901078 46.1589988,5.61116457 46.7392747,5.61116457 L46.7568802,5.61116457 Z M46.7249556,6.59847865 C45.4129969,6.59847865 44.4193449,5.74308816 44.4193449,4.29474581 C44.4193449,2.84522978 45.36065,1.92176484 46.7988986,1.92176484 C48.1789317,1.92176484 49.0906597,2.87105112 49.0906597,4.22526294 C49.0906597,5.85224201 47.9289342,6.59847865 46.7331715,6.59847865 L46.7249556,6.59847865 Z" id="Fill-7"></path>
        <path d="M52.9329922,3.93188559 C52.9329922,3.84268461 52.9329922,3.75184044 52.898955,3.67390695 C52.8318195,3.29644593 52.5207897,2.99198888 52.0895734,2.99198888 C51.4496737,2.99198888 51.1348881,3.55747619 51.1348881,4.27319674 C51.1348881,5.01262597 51.5050722,5.49172917 52.0851133,5.49172917 C52.4839357,5.49172917 52.8128056,5.22201354 52.8879222,4.82459968 C52.9099877,4.73399025 52.9329922,4.63000068 52.9329922,4.51427414 L52.9329922,3.93188559 Z M54.316781,0 L54.316781,5.1652066 C54.316781,5.67529539 54.3268748,6.19946858 54.3475319,6.49735291 L53.1245394,6.49735291 L53.0588124,5.85228892 L53.0332259,5.85228892 C52.7522428,6.3461807 52.20976,6.59829087 51.6325357,6.59829087 C50.5762082,6.59829087 49.7151163,5.69595246 49.7151163,4.29760964 C49.7086113,2.80255416 50.6557849,1.92181178 51.7283094,1.92181178 C52.2752523,1.92181178 52.7125719,2.12650457 52.898955,2.4302574 L52.9329922,2.4302574 L52.9329922,0 L54.316781,0 Z" id="Fill-9"></path>
        <path d="M59.6432537,5.06570055 C59.6432537,5.64808908 59.6707185,6.12578388 59.6920797,6.49737641 L58.4817629,6.49737641 L58.4190874,5.86334515 L58.3885716,5.86334515 C58.2162729,6.14174612 57.7991409,6.59831433 56.9850645,6.59831433 C56.0747447,6.59831433 55.4179437,6.0307144 55.4179437,4.65584549 L55.4179437,2.02559009 L56.8045499,2.02559009 L56.8045499,4.42955668 C56.8045499,5.08119336 57.0219184,5.47414719 57.5085331,5.47414719 C57.8904544,5.47414719 58.1308275,5.21170849 58.2059441,4.99199237 C58.2458501,4.91405888 58.2634552,4.80842613 58.2634552,4.69856807 L58.2634552,2.02559009 L59.6432537,2.02559009 L59.6432537,5.06570055 Z" id="Fill-11"></path>
        <path d="M64.1269181,6.38897369 C63.8851363,6.51362035 63.4184741,6.59836128 62.8797474,6.59836128 C61.4400904,6.59836128 60.5119305,5.71667999 60.5119305,4.29768006 C60.5119305,2.99205931 61.4184941,1.92164746 63.0792758,1.92164746 C63.4532157,1.92164746 63.8468736,1.99535565 64.140298,2.10004944 L63.9278588,3.1378325 C63.7628369,3.06435905 63.5048582,2.99205931 63.1428904,2.99205931 C62.4079208,2.99205931 61.9367988,3.5176409 61.940555,4.25120165 C61.940555,5.07607603 62.4837421,5.51245665 63.1640166,5.51245665 C63.5048582,5.51245665 63.7628369,5.45870134 63.9647127,5.36363185 L64.1269181,6.38897369 Z" id="Fill-13"></path>
        <path d="M66.5964943,0.807714933 L66.5964943,2.02554314 L67.6049348,2.02554314 L67.6049348,3.05464084 L66.5964943,3.05464084 L66.5964943,4.67199557 C66.5964943,5.22199007 66.7469621,5.46964015 67.1507138,5.46964015 C67.3476603,5.46964015 67.4361573,5.45860742 67.5598649,5.42621341 L67.5812261,6.47737661 C67.3978945,6.5578922 67.0535318,6.59826742 66.6767748,6.59826742 C66.2338218,6.59826742 65.8580041,6.44052251 65.626316,6.21939797 C65.3669291,5.94733495 65.2371179,5.52128284 65.2371179,4.8924159 L65.2371179,3.05464084 L64.6465135,3.05464084 L64.6465135,2.02554314 L65.2371179,2.02554314 L65.2371179,1.18001168 L66.5964943,0.807714933 Z" id="Fill-15"></path>
        <polygon id="Fill-17" points="26.1815224 0.330794817 26.1815224 2.28875647 24.5132292 2.28875647 24.5132292 6.62979288 21.7630219 6.62979288 21.7630219 2.28875647 20.1189069 2.28875647 20.1189069 0.308729309"></polygon>
        <path d="M20.7817172,6.62991025 L18.0357353,6.62991025 L16.935981,3.76984496 L15.7240213,6.62991025 L13.114423,6.62991025 C13.37381,5.77851031 15.0796615,1.66798803 15.5418635,0.308846679 L18.3246995,0.330912186 C18.9690593,2.00929917 20.7817172,6.62991025 20.7817172,6.62991025" id="Fill-19"></path>
        <polygon id="Fill-21" points="12.1280009 6.62991025 9.34586906 6.62991025 9.34586906 2.28887384 7.71818581 2.28887384 7.69682452 0.308846679 13.7808013 0.330912186 13.7808013 2.28887384 12.1280009 2.28887384"></polygon>
        <path d="M33.1824384,6.62991025 L30.4371607,6.62991025 L29.3322421,3.76984496 L28.1329583,6.62991025 L25.5254726,6.62991025 C25.794484,5.77851031 27.4714626,1.66798803 27.9418804,0.308846679 L30.7209606,0.330912186 C31.3653204,2.00929917 33.1772741,6.62991025 33.1772741,6.62991025" id="Fill-23"></path>
        <path d="M47.9937927,9.58072586 C48.3221932,9.39551645 48.7113912,9.35420232 49.070073,9.46429508 C49.4292244,9.57462264 49.7273434,9.82837595 49.8944779,10.1654618 L49.8944779,10.1654618 L50.8435295,12.0844567 C51.198925,12.0182602 51.5723954,11.9691996 51.9695746,11.9452562 L51.9695746,11.9452562 L52.2343607,11.929294 C52.7644023,11.8985431 53.2627539,12.1727187 53.5169769,12.6372681 L53.5169769,12.6372681 L53.6446753,12.8701296 C53.6451449,12.8705991 53.6451449,12.8710686 53.6456139,12.8713033 C53.7991338,13.1520517 54.8383252,15.1844257 54.3240112,17.8132727 C62.5185302,26.2495734 60.6542295,39.9163382 46.1116519,42.16702 C40.08636,43.0996397 34.0284393,41.9658483 28.3277921,40.0095298 C24.7613958,38.7858331 20.7482903,37.8670629 16.9699243,38.1269195 C15.4736951,38.2299701 13.7312243,38.7121249 12.3237266,39.2398191 C11.7737321,39.4461551 9.76224988,40.327367 8.72305836,41.7292309 C8.72258888,41.7275877 4.55291225,11.1983153 36.6000099,10.988693 L36.6000099,10.988693 L36.6572753,10.9879763 C36.997905,10.9854559 38.8313725,10.9956178 41.4377549,11.4508949 C42.2870422,10.4673367 43.1396159,9.96734172 43.3168441,9.86969013 L43.3168441,9.86969013 L43.5454803,9.7441045 C43.9999359,9.49457648 44.5574421,9.52251047 44.9839636,9.81851692 L44.9839636,9.81851692 L45.1968723,9.96593327 C45.5118926,10.183302 45.798979,10.4203889 46.0726852,10.6663958 L46.0726852,10.6663958 Z M37.3151433,24.2100867 L36.1374556,24.2100867 C36.239802,24.7875457 36.4102228,25.480027 36.6456664,26.2729769 C36.9146778,27.1797753 37.2327498,28.120611 37.5907274,29.0706015 C37.9501135,30.0224699 38.334382,30.9388927 38.7339085,31.7949874 C39.1313223,32.6473263 39.5123045,33.3423898 39.8665263,33.8604597 L39.9259154,33.9475481 L39.8881223,34.0461386 C39.5080728,36.0327195 38.2613564,36.8271024 37.5206742,37.2109334 L37.3468404,37.2987903 C37.0503855,37.4458391 36.8842632,37.5203267 36.9806396,37.5975116 C37.3186644,37.8676967 37.7069235,37.998916 38.1681864,37.998916 C38.6170082,37.998916 39.0292107,37.9209825 39.3937611,37.7676977 C39.7545556,37.6158213 40.1165238,37.3364814 40.4700414,36.9376591 C40.8329485,36.5275692 41.2136959,35.9501102 41.6012507,35.2219485 C41.9507517,34.56593 42.3469919,33.7279624 42.7815632,32.7268402 L42.9465425,32.3438082 C43.023537,32.1635283 43.1373856,31.8853621 43.2887926,31.5093095 C43.4420774,31.126919 43.6061603,30.7015711 43.7763464,30.2442987 C43.9507578,29.7766977 44.1296292,29.2844491 44.3134302,28.7684918 C44.4958228,28.2565251 44.6610793,27.764746 44.8054441,27.3070041 C44.9486351,26.852079 45.0681175,26.4321302 45.1606048,26.0588945 C45.2500405,25.6981 45.2953453,25.4290886 45.2953453,25.2589025 C45.2953453,24.8847279 45.2113086,24.6138385 45.0462867,24.4535115 C44.879387,24.2920107 44.6101409,24.2100867 44.2462947,24.2100867 L43.2709523,24.2100867 C43.2052253,24.7100867 43.1092169,25.2603109 42.984805,25.848568 C42.8449003,26.5077163 42.6756532,27.1811837 42.4817584,27.8501912 C42.2869246,28.5222502 42.0754244,29.1802248 41.8528914,29.8051012 C41.6294195,30.4327944 41.4080602,31.0074366 41.1942126,31.5128306 L41.0268433,31.9083666 L40.8294275,31.5266802 C40.3362399,30.5726992 39.8937561,29.5464183 39.5148866,28.4769455 C39.1348435,27.4051252 38.8498698,26.3340091 38.6674772,25.2936439 C38.6059755,24.9626613 38.4501085,24.7051522 38.1914257,24.507971 C37.9275785,24.3075035 37.6409617,24.2100867 37.3151433,24.2100867 Z M50.6262544,23.9774364 C49.8877642,23.9774364 49.2011513,24.1077168 48.5856645,24.364287 C47.9729946,24.6196835 47.4389624,24.9926845 46.9990606,25.4729614 C46.557281,25.954412 46.2072845,26.5497112 45.9593997,27.241723 C45.7098717,27.9367865 45.5833471,28.7276237 45.5833471,29.5924038 C45.5833471,30.3804241 45.7274771,31.0996657 46.0112771,31.7294717 C46.2964855,32.3620944 46.6795803,32.9120889 47.1499981,33.3634929 C47.619477,33.8144273 48.1650114,34.1655975 48.7718129,34.4073792 C49.3781449,34.6484565 50.0088897,34.7709905 50.6457378,34.7709905 C51.3494867,34.7709905 51.9490112,34.7094888 52.4283491,34.5878938 C52.8990017,34.4688809 53.2802185,34.3050327 53.5619058,34.1015137 C53.8344383,33.9043325 54.0288026,33.6747574 54.1395996,33.4188914 C54.2541525,33.155279 54.3121331,32.8623242 54.3121331,32.5491818 L54.3121331,32.0667922 C53.9114329,32.3740662 53.4447709,32.5904959 52.9208325,32.7113867 C52.3074583,32.853404 51.7084033,32.9249996 51.1398643,32.9249996 C50.3056004,32.9249996 49.5872977,32.7113867 49.0056134,32.2907336 C48.4136005,31.8623342 48.0567965,31.277833 47.9455301,30.5536618 L47.9096149,30.3215045 L49.8894073,30.3215045 C51.6091085,30.3215045 52.8682508,30.1369993 53.6318582,29.7736226 C54.3572031,29.4290251 54.709547,28.8245711 54.709547,27.9250496 C54.709547,27.3180134 54.5952289,26.7626198 54.3694095,26.2743618 C54.1431207,25.7846954 53.8379595,25.3666244 53.4633153,25.030947 C53.086089,24.6940959 52.6480652,24.4316573 52.1607461,24.2506731 C51.6715492,24.0694543 51.1553571,23.9774364 50.6262544,23.9774364 Z M20.5304284,21.0982164 C19.7701074,21.0982164 19.0750439,21.2160556 18.4644866,21.4486823 C17.856042,21.6803702 17.3370331,21.9956253 16.921779,22.3859969 C16.5074639,22.7761339 16.1854014,23.2287115 15.9649811,23.7308192 C15.7445608,24.2329268 15.6328248,24.7599169 15.6328248,25.2979397 C15.6328248,26.1779778 15.9175637,26.8681118 16.5032386,27.4082472 C17.0973641,27.9561291 17.9675432,28.3572988 19.0898325,28.6002541 C19.8020319,28.7556516 20.38489,28.9023638 20.8219748,29.0361652 C21.2783083,29.1756005 21.618211,29.323721 21.8604621,29.4887429 C22.1167975,29.663389 22.2886268,29.8593964 22.3710203,30.0720704 C22.4477802,30.268782 22.4867469,30.4988266 22.4867469,30.7556316 C22.4867469,31.3586772 22.2649181,31.8495174 21.8278333,32.2140677 C21.3954433,32.5753317 20.6600046,32.7504473 19.5804379,32.7504473 C18.7210568,32.7504473 17.9616747,32.6006836 17.3241224,32.3051467 C16.8130947,32.0685293 16.3466674,31.7847293 15.9332913,31.4584415 L15.9332913,32.2873064 C15.9332913,33.0328389 16.2461989,33.6159316 16.890324,34.0713262 C17.5471249,34.5356408 18.5529834,34.7708497 19.8811391,34.7708497 C20.6757321,34.7708497 21.3876969,34.6668601 21.9977847,34.4614631 C22.602004,34.2584135 23.1200739,33.9666324 23.5374406,33.5955093 C23.9519905,33.2267337 24.2684192,32.7807287 24.4785111,32.2689968 C24.6904808,31.7528047 24.7979914,31.1654867 24.7979914,30.5230048 C24.7979914,29.6584595 24.5184167,28.9514243 23.9435398,28.3612893 C23.3674893,27.7699807 22.4658551,27.3404075 21.2639892,27.0847763 C20.6283148,26.9552001 20.0942825,26.8213986 19.6783243,26.6868929 C19.2548543,26.5502746 18.9126042,26.4033277 18.661433,26.2502776 C18.3912479,26.08596 18.1999353,25.8976989 18.0926594,25.6911282 C17.9877308,25.4887828 17.934445,25.2716489 17.934445,25.0458295 C17.934445,24.450765 18.1788087,23.9676713 18.6602593,23.6092241 C19.1302077,23.2594624 19.9006225,23.089511 21.0151654,23.089511 C22.4282968,23.089511 23.5714779,23.4716668 24.4198262,24.2265889 L24.4198262,23.3782405 C24.4198262,23.1287125 24.3613761,22.8632222 24.2465885,22.5888118 C24.135322,22.3233215 23.9339156,22.0808357 23.6477682,21.867927 C23.3517617,21.6472719 22.9494184,21.4622972 22.4517707,21.3179325 C21.9482547,21.1721593 21.3015475,21.0982164 20.5304284,21.0982164 Z M35.1199774,24.2100632 L33.9981577,24.2100632 C33.5894764,24.2100632 33.2204659,24.2487952 32.901455,24.3257897 C32.6019275,24.39762 32.3038084,24.5746136 32.0148442,24.8520756 C31.4031132,25.43822 30.8322269,26.0656785 30.3174433,26.7168457 C29.789749,27.3853836 29.2651064,28.0579121 28.7585387,28.7168257 L28.5134707,29.0351324 L28.7601819,29.3649413 C29.3477347,30.1506142 29.9503108,30.9388692 30.5510091,31.7074061 C31.1446651,32.4672577 31.7920765,33.2087996 32.4754029,33.91114 C32.679861,34.1158328 32.9319712,34.2822631 33.2228133,34.4036233 C33.513186,34.5252184 33.8002723,34.5864853 34.0758565,34.5864853 C34.5786683,34.5864853 34.941106,34.4911811 35.1540147,34.3026854 C35.3408673,34.1376636 35.4967343,33.9024546 35.6190335,33.6022229 C35.5272504,33.5684204 35.4368757,33.5325052 35.3495526,33.4954165 C35.1967373,33.4313326 35.0342976,33.3463569 34.8673978,33.24448 C34.6997939,33.1418988 34.5166971,33.0050457 34.3223329,32.8374418 C34.1324287,32.6738284 33.914121,32.4721872 33.6735131,32.2379173 C33.1958183,31.7407391 32.7369027,31.221026 32.3052169,30.688637 C31.8754089,30.1585953 31.4470095,29.628319 31.0202532,29.0982773 L30.9200194,28.9738654 L31.0183753,28.8478103 C31.2958373,28.4926495 31.6385568,28.0750481 32.0655479,27.571532 C32.485262,27.0771707 32.9103752,26.5884432 33.3289156,26.1184949 C33.7498034,25.6461991 34.1556678,25.2046542 34.5354763,24.8051277 C34.7666946,24.5621724 34.9603547,24.365226 35.1199774,24.2100632 Z M26.7663285,21.1134744 L26.1149266,21.1134744 L26.1149266,32.8398831 C26.1149266,33.4307222 26.2553008,33.8689808 26.5320586,34.1431565 C26.7963752,34.4046562 27.2036481,34.5365798 27.7433141,34.5285986 L28.3970634,34.51381 L28.3970634,22.6857592 C28.3970634,22.2139329 28.273121,21.8397583 28.0188982,21.5418739 C27.7757081,21.2576044 27.3543508,21.1134744 26.7663285,21.1134744 Z M50.3837686,25.7943197 C51.0447948,25.7943197 51.5821134,25.9410318 51.9804663,26.2299961 C52.3990067,26.5339836 52.6116806,26.9964204 52.6116806,27.604865 C52.6116806,27.8255201 52.5562821,28.0208232 52.447363,28.1863145 C52.3346881,28.3576743 52.1459575,28.4884242 51.8710777,28.5851369 C51.623897,28.6722252 51.3008956,28.7344312 50.8832941,28.7750411 C50.4818897,28.8144773 49.951848,28.8341954 49.307723,28.8341954 L47.9124318,28.8341954 L47.9434174,28.2628396 C47.9570323,27.9410119 48.0236983,27.6252873 48.1413028,27.3276377 C48.2607851,27.0255281 48.4319102,26.7600377 48.6504526,26.5379742 C48.8666476,26.3180234 49.1241568,26.1377435 49.4166421,26.0020641 C49.7138223,25.8640373 50.0394058,25.7943197 50.3837686,25.7943197 Z M48.6673069,10.772451 L45.8328282,12.3740782 C45.4614704,11.9252564 44.9983294,11.4919274 44.4178189,11.0912272 L44.2046755,10.9435761 L43.9776824,11.0686922 C43.8603127,11.1332455 41.1058801,12.6874553 40.9288866,16.2728656 L40.9258695,16.3176449 C40.9244754,16.3427582 40.9229397,16.3777663 40.9220023,16.4217934 L40.9217253,16.5800559 C40.9282214,16.9777861 40.9912655,17.7195647 41.314094,18.5648614 C41.747423,19.7002961 42.7497604,21.2509848 45.0638218,22.1882994 L45.5271974,22.3251525 L45.5692158,22.3350115 C46.1856415,22.4476865 46.7530068,22.4833669 47.2720156,22.4622403 C48.8227044,22.3990954 49.9468716,21.8293828 50.677146,21.285022 C51.7369945,20.4944196 52.2106987,19.5939591 52.2224357,19.5700157 C54.0019954,16.4343663 52.5090525,13.6458965 52.4449687,13.5287615 L52.3170357,13.2956652 L52.0517801,13.3116275 C51.3215057,13.3557585 50.6787891,13.4916727 50.1100155,13.6893233 L48.6673069,10.772451 Z M48.3081555,11.9393408 L49.3351406,14.0158458 C48.3790469,14.5015217 47.6860961,15.174285 47.1891526,15.8468135 C47.1468995,15.1503415 46.9884504,14.3825088 46.6274212,13.6170235 L45.9037195,14.0367376 C46.5642762,15.4651271 46.403245,16.8853007 46.2175661,17.6759031 C46.1112292,17.9712054 46.0532485,18.1970247 46.0271924,18.3096997 L46.8346961,18.5442043 C46.8729586,18.4348158 46.9445541,18.2134565 47.0145065,17.9073562 C47.4161457,16.7712174 48.61496,14.4876721 51.8219702,14.1714781 C52.1034632,14.8330548 52.7272059,16.7614362 51.6118415,18.9352765 L51.4855886,19.1690807 C51.4189226,19.2956053 49.8151828,22.2481579 45.7405756,21.5131888 L45.3593587,21.4023917 C41.523951,19.8373839 41.7532914,16.4874174 41.7662022,16.330142 C41.8946046,13.7296985 43.5560903,12.3585854 44.1640655,11.9416882 C44.5326064,12.2179765 44.8438709,12.4994291 45.1070138,12.7902712 C44.4542035,13.2109243 42.7399013,14.5658403 43.0288656,17.0505573 C43.0319172,17.0775523 43.3605524,19.7533472 46.1821205,20.4181293 C46.1945616,20.4211809 46.6499561,20.5305695 47.2835179,20.5049829 C48.3837416,20.4601476 50.0208145,20.0063963 50.7994452,17.8759011 L50.811733,17.8340902 C50.8761973,17.603811 51.1462834,16.4881002 50.7391171,15.1968199 L49.9391251,15.4491648 C50.2449289,16.420146 50.0821381,17.2849235 50.0233869,17.5338038 L50.0050869,17.6054813 L50.0050869,17.6054813 C49.0471153,20.2272861 46.4947934,19.6303437 46.3811795,19.603114 C44.1398874,19.0749502 43.8732233,17.0428109 43.86266,16.9559573 C43.5776864,14.5071555 45.6379944,13.4409689 45.7450356,13.3865094 L45.9776624,13.2550553 L46.3283631,13.0632732 C46.3274242,13.06163 46.3262505,13.0602216 46.3255463,13.0588131 L48.3081555,11.9393408 Z" id="Combined-Shape"></path>
      </g>
      <g id="Group-30" transform="translate(8.745992, 22.364659)">
        <g id="Clip-29" fill="#8B8B8B" fill-rule="nonzero">
          <path d="M37.365589,19.8023843 C31.3402972,20.7350041 25.2823764,19.6009778 19.5817292,17.6446594 L19.5817292,17.6446594 C16.0153329,16.4211974 12.0022275,15.5024272 8.2238615,15.7622838 L8.2238615,15.7622838 C6.72763231,15.8653344 4.98516145,16.3474892 3.57766378,16.8751835 L3.57766378,16.8751835 C3.03165985,17.0798763 1.04505998,17.9509943 0,19.3361917 L0,19.3361917 C0,19.3439382 0.00187791551,19.3542667 0.00211265495,19.3580225 L0.00211265495,19.3580225 C0.834968182,18.6441799 3.79737989,17.581045 7.13513997,17.3498266 L7.13513997,17.3498266 C11.2466012,16.9841026 15.474728,18.0777536 19.2310285,19.6669396 L19.2310285,19.6669396 C24.8783899,22.0561176 31.5691681,23.443193 37.5740377,22.1265395 L37.5740377,22.1265395 C49.5199277,19.508021 53.1863228,8.05907442 48.8103104,0 L48.8103104,0 C52.8039325,8.1029707 49.4973927,17.9249383 37.365589,19.8023843" id="path-1"></path>
        </g>
        <g id="Fill-28-Clipped">
          <mask id="mask-2" fill="white">
            <use xlink:href="#path-1"></use>
          </mask>
          <g id="path-1"></g>
          <path d="M37.365589,19.8023843 C31.3402972,20.7350041 25.2823764,19.6009778 19.5817292,17.6446594 L19.5817292,17.6446594 C16.0153329,16.4211974 12.0022275,15.5024272 8.2238615,15.7622838 L8.2238615,15.7622838 C6.72763231,15.8653344 4.98516145,16.3474892 3.57766378,16.8751835 L3.57766378,16.8751835 C3.03165985,17.0798763 1.04505998,17.9509943 0,19.3361917 L0,19.3361917 C0,19.3439382 0.00187791551,19.3542667 0.00211265495,19.3580225 L0.00211265495,19.3580225 C0.834968182,18.6441799 3.79737989,17.581045 7.13513997,17.3498266 L7.13513997,17.3498266 C11.2466012,16.9841026 15.474728,18.0777536 19.2310285,19.6669396 L19.2310285,19.6669396 C24.8783899,22.0561176 31.5691681,23.443193 37.5740377,22.1265395 L37.5740377,22.1265395 C49.5199277,19.508021 53.1863228,8.05907442 48.8103104,0 L48.8103104,0 C52.8039325,8.1029707 49.4973927,17.9249383 37.365589,19.8023843" id="Fill-28" fill="#FFFFFF" fill-rule="nonzero" mask="url(#mask-2)"></path>
        </g>
      </g>
      <g id="Group-43" transform="translate(15.632825, 10.772451)"></g>
    </g>
  </g>
</svg>
