<?xml version="1.0" encoding="UTF-8"?>
<svg xmlns="http://www.w3.org/2000/svg" id="Layer_1" viewBox="0 0 512 512">
  <defs>
    <style>.cls-221{fill:none;stroke:#000;stroke-miterlimit:10;stroke-width:11.54px;}</style>
  </defs>
  <line class="cls-221" x1="134.47" y1="379.73" x2="273.88" y2="379.73"></line>
  <line class="cls-221" x1="134.47" y1="314.24" x2="273.88" y2="314.24"></line>
  <line class="cls-221" x1="134.47" y1="445.23" x2="240.44" y2="445.23"></line>
  <polyline class="cls-221" points="438.07 474.78 438.07 501 73.93 501 73.93 11 341.2 11 438.07 107.87 438.07 127.85"></polyline>
  <rect class="cls-221" x="411.69" y="227.66" width="52.75" height="188.2"></rect>
  <path class="cls-221" d="M411.69,415.86h52.75v22.46c0,7.87-6.39,14.26-14.26,14.26h-24.24c-7.87,0-14.26-6.39-14.26-14.26v-22.46h0Z"></path>
  <polygon class="cls-221" points="464.44 227.66 411.69 227.66 438.07 162.44 464.44 227.66"></polygon>
  <circle class="cls-221" cx="212.11" cy="135.38" r="77.65"></circle>
</svg>
