<?xml version="1.0" encoding="UTF-8"?>
<svg xmlns="http://www.w3.org/2000/svg" xmlns:xlink="http://www.w3.org/1999/xlink" width="502px" height="438px" viewBox="0 0 502 438" version="1.1">
  <title>Zero manufacturing investments</title>
  <g id="Page-4" stroke="none" stroke-width="1" fill="none" fill-rule="evenodd">
    <g id="Zero-manufacturing-investments" transform="translate(6.000000, 6.670000)" stroke="#000" stroke-width="11.54">
      <rect id="Rectangle" x="0" y="159.18" width="132.95" height="265.45"></rect>
      <path d="M132.95,384.84 C132.95,384.84 180.08,424.64 253.45,424.64 L422.19,424.64 C422.19,424.64 456.21,426.53 456.21,393.35 C456.21,367.67 432.64,358.17 432.64,358.17 C432.64,358.17 470.88,357.5 470.88,328.85 C470.88,295.81 445.31,290.14 445.31,290.14 C445.31,290.14 490,292.47 490,257.46 C490,230.78 467.99,224.95 455.76,224.95 C455.76,224.95 490,221.11 490,185.77 C490,163.93 475.95,146.62 454.87,150.92 C395.18,163.09 287.13,150.92 287.13,150.92" id="Path"></path>
      <path d="M132.95,183.42 C132.95,183.42 258.12,134.73 280.13,82.04 C302.14,29.35 296.8,0 311.48,0 C326.16,0 371.51,4 371.51,60.69 C371.51,117.38 338.67,154.97 338.67,154.97" id="Path"></path>
      <line x1="459.38" y1="224.99" x2="375.06" y2="224.99" id="Path"></line>
      <line x1="454.94" y1="290.18" x2="375.35" y2="290.18" id="Path"></line>
      <line x1="432.64" y1="358.26" x2="375.06" y2="358.26" id="Path"></line>
    </g>
  </g>
</svg>
