<?xml version="1.0" encoding="UTF-8"?>
<svg xmlns="http://www.w3.org/2000/svg" xmlns:xlink="http://www.w3.org/1999/xlink" width="35px" height="35px" viewBox="0 0 35 35" version="1.1">
  <g id="Contact-us" stroke="none" stroke-width="1" fill="none" fill-rule="evenodd">
    <g id="Linkdin">
      <g id="Group-5" transform="translate(7.000000, 7.000000)" fill="#ffffff" fill-rule="nonzero">
        <path d="M21.09375,12.3591866 L21.09375,20.1559756 L16.5708784,20.1559756 L16.5708784,12.8777462 C16.5708784,11.0478551 15.9187418,9.80419449 14.2822022,9.80419449 C13.0306451,9.80419449 12.292354,10.6461976 11.9627786,11.4565268 C11.8441121,11.7483407 11.808071,12.1570124 11.808071,12.5604345 L11.808071,20.1550491 L7.28965486,20.1550491 C7.28965486,20.1550491 7.35031154,7.83278588 7.28965486,6.55661323 L11.8089974,6.55661323 L11.8089974,8.48404023 C11.8028655,8.49987714 11.7896754,8.51302309 11.7834995,8.53062456 L11.8089974,8.53062456 L11.8089974,8.48404023 C12.4127851,7.55769126 13.4824162,6.237537 15.8844652,6.237537 C18.8657304,6.237537 21.09375,8.18084499 21.09375,12.3591866 Z" id="LinkedIn_3_-path-Copy"></path>
        <path d="M2.55847713,3.55271368e-15 C1.01250353,3.55271368e-15 0,1.01426809 0,2.3519797 C0,3.65365022 0.982638381,4.70219485 2.50046727,4.70219485 L2.52772971,4.70219485 C4.10797986,4.70219485 5.08708911,3.65365022 5.08708911,2.3519797 C5.0563417,1.01426809 4.10802397,3.55271368e-15 2.55847713,3.55271368e-15 Z" id="LinkedIn_3_-path-Copy-2"></path>
        <polygon id="LinkedIn_3_-path-Copy-3" points="0.269845071 20.1559314 4.79006985 20.1559314 4.79006985 6.55577508 0.269845071 6.55577508"></polygon>
      </g>
      <rect id="Rectangle-Copy-10" x="0" y="0" width="35" height="35"></rect>
    </g>
  </g>
</svg>
