<?xml version="1.0" encoding="UTF-8"?>
<!-- Generator: Adobe Illustrator 26.3.1, SVG Export Plug-In . SVG Version: 6.00 Build 0)  -->
<svg xmlns="http://www.w3.org/2000/svg" xmlns:xlink="http://www.w3.org/1999/xlink" version="1.1" id="Layer_1" x="0px" y="0px" viewBox="0 0 99.2 11.3" style="enable-background:new 0 0 99.2 11.3;" xml:space="preserve">
<style type="text/css">
	.st0{fill:#773DBD;}
	.st1{fill:#1F1646;}
</style>
<g>
	<g>
		<path class="st0" d="M4,5.8l1.9-4.6h2C8,3.5,6.2,5.5,4,5.8z"></path>
		<path class="st0" d="M4,5.8L2,10.4H0C0,8.1,1.7,6.1,4,5.8z"></path>
		<polygon class="st0" points="8,7 5.4,10.4 2.5,10.4 5.1,7   "></polygon>
		<polygon class="st0" points="0,4.5 2.6,1.2 5.4,1.2 2.8,4.5   "></polygon>
	</g>
	<g>
		<path class="st1" d="M46.3,2.4c1.6,0,2.6,0.8,2.9,2.3H48c-0.2-1.1-0.9-1.5-1.7-1.5c-1.3,0-1.9,1.2-1.9,2.6c0,1.4,0.7,2.6,2,2.6    c0.8,0,1.5-0.4,1.7-1.5h1.1c-0.3,1.5-1.3,2.4-2.9,2.4c-1.9,0-3.1-1.6-3.1-3.4C43.2,4,44.4,2.4,46.3,2.4z"></path>
		<path class="st1" d="M49.5,5.8c0-1.8,1.2-3.4,3.2-3.4c2,0,3.2,1.7,3.2,3.4c0,1.8-1.2,3.4-3.2,3.4C50.7,9.2,49.5,7.5,49.5,5.8z     M54.6,5.8c0-1.5-0.7-2.6-2-2.6c-1.3,0-2,1.1-2,2.6c0,1.5,0.7,2.6,2,2.6C53.9,8.4,54.6,7.3,54.6,5.8z"></path>
		<path class="st1" d="M59.2,6.3l-0.9-0.2c-1.3-0.3-2-0.8-2-1.9c0-1.1,1-1.9,2.4-1.9c1.5,0,2.6,0.9,2.6,2.1h-1.1    c-0.1-0.8-0.6-1.2-1.6-1.2c-0.8,0-1.4,0.3-1.4,0.9c0,0.5,0.4,0.7,1.4,0.9l0.9,0.2c1.3,0.3,1.9,0.9,1.9,2c0,1.1-0.9,1.9-2.6,1.9    c-1.7,0-2.7-1.2-2.8-2.4h1.1C57.3,7.7,58,8.4,59,8.4c0.8,0,1.5-0.4,1.5-1C60.5,6.9,60.2,6.6,59.2,6.3z"></path>
		<path class="st1" d="M63.4,9.1h-1.1V2.5h1.1v1.3h0c0.3-0.9,0.9-1.4,1.9-1.4c1.1,0,1.8,0.6,2.1,1.4h0c0.3-0.9,1-1.4,2-1.4    c1.4,0,2.2,1,2.2,2.3v4.5h-1.1V5c0-1.1-0.4-1.7-1.5-1.7c-1.1,0-1.5,0.7-1.5,1.6v4.2h-1.1V5c0-1.1-0.4-1.7-1.5-1.7    c-1.1,0-1.5,0.7-1.5,1.6V9.1z"></path>
		<path class="st1" d="M75.3,9.2c-2,0-3.1-1.6-3.1-3.4c0-1.8,1-3.4,3-3.4c2,0,3.1,1.5,3,3.8h-4.9c0.1,1.4,0.8,2.2,2.1,2.2    c1.1,0,1.5-0.8,1.6-1.3h1.1C77.9,8.2,77.2,9.2,75.3,9.2z M73.4,5.3h3.8c-0.1-1.2-0.7-2-1.9-2C74.1,3.2,73.5,4.1,73.4,5.3z"></path>
		<path class="st1" d="M78.2,3.4V2.5h1.2V1h1.1v1.5h1.7v0.9h-1.7v4.1c0,0.5,0.2,0.7,0.7,0.7h0.9v0.9h-1.2c-1.1,0-1.5-0.5-1.5-1.5    V3.4H78.2z"></path>
		<path class="st1" d="M82.5,0h1.3v1.3h-1.3V0z M83.7,9.1h-1.1V2.5h1.1V9.1z"></path>
		<path class="st1" d="M87.5,2.4c1.6,0,2.6,0.8,2.9,2.3h-1.1c-0.2-1.1-0.9-1.5-1.7-1.5c-1.3,0-1.9,1.2-1.9,2.6c0,1.4,0.7,2.6,2,2.6    c0.8,0,1.5-0.4,1.7-1.5h1.1c-0.3,1.5-1.3,2.4-2.9,2.4c-1.9,0-3.1-1.6-3.1-3.4C84.4,4,85.6,2.4,87.5,2.4z"></path>
		<path class="st1" d="M93.8,6.3L93,6.1c-1.3-0.3-2-0.8-2-1.9c0-1.1,1-1.9,2.5-1.9c1.5,0,2.6,0.9,2.6,2.1h-1.1    c-0.1-0.8-0.6-1.2-1.6-1.2c-0.8,0-1.4,0.3-1.4,0.9c0,0.5,0.4,0.7,1.4,0.9l0.9,0.2c1.3,0.3,1.9,0.9,1.9,2c0,1.1-0.9,1.9-2.6,1.9    c-1.7,0-2.7-1.2-2.8-2.4h1.1c0.1,0.9,0.8,1.6,1.7,1.6c0.8,0,1.5-0.4,1.5-1C95.1,6.9,94.8,6.6,93.8,6.3z"></path>
	</g>
	<g>
		<path class="st1" d="M15.3,3.4h-3.5V2.5h4.5l0.3,0.9l-3.6,4.8h3.7v0.9H12l-0.3-0.9L15.3,3.4z"></path>
		<path class="st1" d="M20.2,11.3h-1.1l1-2.9h-1.1l-2.2-5.9H18l2.1,5.8l2.1-5.8h1.1L20.2,11.3z"></path>
		<path class="st1" d="M24.9,9.1h-1.1V2.5h1.1v1.3h0c0.3-0.9,0.9-1.4,1.9-1.4c1.1,0,1.8,0.6,2.1,1.4h0c0.3-0.9,1-1.4,2-1.4    c1.4,0,2.2,1,2.2,2.3v4.5h-1.1V5c0-1.1-0.4-1.7-1.5-1.7c-1.1,0-1.5,0.7-1.5,1.6v4.2h-1.1V5c0-1.1-0.4-1.7-1.5-1.7    c-1.1,0-1.5,0.7-1.5,1.6V9.1z"></path>
		<path class="st1" d="M33.7,5.8c0-1.8,1.2-3.4,3.2-3.4c2,0,3.2,1.7,3.2,3.4c0,1.8-1.2,3.4-3.2,3.4C34.9,9.2,33.7,7.5,33.7,5.8z     M38.9,5.8c0-1.5-0.7-2.6-2-2.6c-1.3,0-2,1.1-2,2.6c0,1.5,0.7,2.6,2,2.6C38.2,8.4,38.9,7.3,38.9,5.8z"></path>
	</g>
	<g>
		<path class="st1" d="M98.6,3.4C98.6,3.2,98.3,3,98,3h-0.4v1.4h0.2V3.9c0,0,0.2,0,0.2,0l0.3,0.6h0.3l-0.3-0.6    C98.5,3.8,98.6,3.6,98.6,3.4z M98,3.7h-0.2V3.2H98c0.2,0,0.3,0.1,0.3,0.2C98.3,3.6,98.2,3.7,98,3.7z"></path>
		<path class="st1" d="M98.1,2.6c-0.6,0-1.1,0.5-1.1,1.1c0,0.6,0.5,1.1,1.1,1.1c0.6,0,1.1-0.5,1.1-1.1C99.2,3.1,98.7,2.6,98.1,2.6z     M98.1,4.7c-0.5,0-0.9-0.4-0.9-0.9c0-0.5,0.4-0.9,0.9-0.9c0.5,0,0.9,0.4,0.9,0.9C99,4.3,98.6,4.7,98.1,4.7z"></path>
	</g>
</g>
</svg>
