<?xml version="1.0" encoding="UTF-8"?>
<!-- Generator: Adobe Illustrator 26.3.1, SVG Export Plug-In . SVG Version: 6.00 Build 0)  -->
<svg xmlns="http://www.w3.org/2000/svg" xmlns:xlink="http://www.w3.org/1999/xlink" version="1.1" id="Layer_1" x="0px" y="0px" viewBox="0 0 23.1 34" style="enable-background:new 0 0 23.1 34;" xml:space="preserve">
<style type="text/css">
	.st0{fill:#1F1646;}
	.st1{fill:#773DBD;}
</style>
<g>
	<g>
		<path class="st0" d="M2.9,27.5H0.1v-0.7h3.7L4,27.5l-2.9,3.9h3v0.7H0.3L0,31.5L2.9,27.5z"></path>
		<path class="st0" d="M6.9,34H6l0.8-2.4H6l-1.8-4.8h0.9l1.7,4.8l1.7-4.8h0.9L6.9,34z"></path>
		<path class="st0" d="M10.7,32.2H9.8v-5.4h0.9v1.1h0c0.3-0.7,0.8-1.2,1.5-1.2c0.9,0,1.5,0.5,1.7,1.2h0c0.3-0.7,0.8-1.2,1.6-1.2    c1.2,0,1.8,0.8,1.8,1.8v3.6h-0.9v-3.3c0-0.9-0.4-1.4-1.2-1.4c-0.9,0-1.2,0.6-1.2,1.3v3.4h-0.9v-3.3c0-0.9-0.4-1.4-1.2-1.4    c-0.9,0-1.2,0.6-1.2,1.3V32.2z"></path>
		<path class="st0" d="M17.9,29.5c0-1.4,1-2.8,2.6-2.8c1.6,0,2.6,1.4,2.6,2.8c0,1.4-1,2.8-2.6,2.8C18.9,32.3,17.9,30.9,17.9,29.5z     M22.1,29.5c0-1.2-0.6-2.1-1.6-2.1c-1,0-1.6,0.9-1.6,2.1c0,1.2,0.6,2.1,1.6,2.1C21.5,31.6,22.1,30.7,22.1,29.5z"></path>
	</g>
	<g>
		<g>
			<path class="st1" d="M11.5,11.3L16.3,0l5,0C21.3,5.7,17,10.5,11.5,11.3z"></path>
			<path class="st1" d="M11.5,11.3L6.8,22.6h-5C1.8,16.9,6,12.1,11.5,11.3z"></path>
			<polygon class="st1" points="21.3,14.4 14.9,22.6 8,22.6 14.3,14.4    "></polygon>
			<polygon class="st1" points="1.8,8.3 8.2,0 15.1,0 8.7,8.3    "></polygon>
		</g>
		<g>
			<path class="st1" d="M19.1,21.5c0-0.2-0.2-0.3-0.5-0.3h-0.3v1.1h0.2v-0.5c0,0,0.1,0,0.1,0l0.3,0.5h0.2l-0.3-0.5     C19,21.7,19.1,21.6,19.1,21.5z M18.7,21.6h-0.1v-0.4h0.1c0.2,0,0.2,0.1,0.2,0.2C18.9,21.6,18.8,21.6,18.7,21.6z"></path>
			<path class="st1" d="M18.7,20.8c-0.5,0-0.9,0.4-0.9,0.9c0,0.5,0.4,0.9,0.9,0.9c0.5,0,0.9-0.4,0.9-0.9     C19.6,21.2,19.2,20.8,18.7,20.8z M18.7,22.5c-0.4,0-0.8-0.3-0.8-0.8c0-0.4,0.3-0.8,0.8-0.8c0.4,0,0.8,0.3,0.8,0.8     C19.4,22.1,19.1,22.5,18.7,22.5z"></path>
		</g>
	</g>
</g>
</svg>
