<?xml version="1.0" encoding="UTF-8"?>
<!-- Generator: Adobe Illustrator 26.3.1, SVG Export Plug-In . SVG Version: 6.00 Build 0)  -->
<svg xmlns="http://www.w3.org/2000/svg" xmlns:xlink="http://www.w3.org/1999/xlink" version="1.1" id="Layer_1" x="0px" y="0px" viewBox="0 0 51 12.1" style="enable-background:new 0 0 51 12.1;" xml:space="preserve">
<style type="text/css">
	.st0{fill:#773DBD;}
	.st1{fill:#1F1646;}
</style>
<g>
	<g>
		<path class="st0" d="M4.8,5.5L7.1,0l2.4,0C9.5,2.8,7.5,5.1,4.8,5.5z"></path>
		<path class="st0" d="M4.8,5.5l-2.3,5.5H0C0,8.3,2.1,5.9,4.8,5.5z"></path>
		<polygon class="st0" points="9.5,7 6.4,11.1 3,11.1 6.1,7   "></polygon>
		<polygon class="st0" points="0,4 3.1,0 6.5,0 3.4,4   "></polygon>
	</g>
	<g>
		<path class="st1" d="M18.3,2.6h-4.2v-1h5.4l0.4,1l-4.3,5.8h4.4v1h-5.6l-0.4-1L18.3,2.6z"></path>
		<path class="st1" d="M24.2,12.1h-1.4l1.2-3.5h-1.3l-2.6-7.1h1.4l2.6,7l2.5-7H28L24.2,12.1z"></path>
		<path class="st1" d="M29.7,9.5h-1.3V1.6h1.3v1.5h0c0.4-1.1,1.1-1.7,2.3-1.7c1.3,0,2.2,0.7,2.5,1.7h0c0.4-1.1,1.2-1.7,2.4-1.7    c1.7,0,2.6,1.2,2.6,2.7v5.3h-1.3V4.6c0-1.3-0.5-2.1-1.8-2.1c-1.3,0-1.8,0.8-1.8,1.9v5h-1.3V4.6c0-1.3-0.5-2.1-1.8-2.1    c-1.3,0-1.8,0.8-1.8,1.9V9.5z"></path>
		<path class="st1" d="M40.3,5.5c0-2.1,1.4-4.1,3.8-4.1c2.4,0,3.8,2,3.8,4.1c0,2.1-1.4,4.1-3.8,4.1C41.7,9.6,40.3,7.6,40.3,5.5z     M46.5,5.5c0-1.7-0.8-3.1-2.4-3.1c-1.5,0-2.4,1.3-2.4,3.1c0,1.7,0.9,3.1,2.4,3.1C45.6,8.6,46.5,7.3,46.5,5.5z"></path>
	</g>
	<g>
		<path class="st1" d="M50.3,2.7c0-0.3-0.3-0.5-0.7-0.5h-0.5v1.6h0.3V3.2c0,0,0.2,0,0.2,0L50,3.9h0.3l-0.4-0.7    C50.1,3.1,50.3,3,50.3,2.7z M49.6,3h-0.2V2.5h0.2c0.3,0,0.4,0.1,0.4,0.3C50,2.9,49.9,3,49.6,3z"></path>
		<path class="st1" d="M49.6,1.7c-0.8,0-1.4,0.6-1.4,1.4c0,0.8,0.6,1.4,1.4,1.4S51,3.8,51,3.1C51,2.3,50.4,1.7,49.6,1.7z M49.6,4.2    c-0.6,0-1.1-0.5-1.1-1.1c0-0.6,0.5-1.1,1.1-1.1c0.6,0,1.1,0.5,1.1,1.1C50.8,3.7,50.3,4.2,49.6,4.2z"></path>
	</g>
</g>
</svg>
