<?xml version="1.0" encoding="UTF-8"?>
<svg width="211px" height="54px" viewBox="0 0 211 54" version="1.1" xmlns="http://www.w3.org/2000/svg" xmlns:xlink="http://www.w3.org/1999/xlink">
    <title>09BD4662-0B9B-4452-B298-E8CD31429BC5</title>
    <g id="Page-3" stroke="none" stroke-width="1" fill="none" fill-rule="evenodd">
        <g id="Home" transform="translate(-112.000000, -30.000000)">
            <g id="Group-Copy" transform="translate(112.000000, 30.000000)">
                <g id="Group" fill-rule="nonzero">
                    <g id="Group-4">
                        <path d="M23.1582149,27 L34.4296012,0 L46.2550294,0 C46.2988458,13.6941176 36.2583441,25.05 23.1582149,27 Z" id="Path" fill="#5E48C2"></path>
                        <path d="M23.1582149,27 L11.8868286,54 L0.0614521305,54 C0.026376099,40.3058824 10.0668778,28.95 23.1582149,27 Z" id="Path" fill="#5E48C2"></path>
                        <polygon id="Path" fill="#5E48C2" points="46.3164299 34.2882353 31.1413809 54 14.6826951 54 29.8577441 34.2882353"></polygon>
                        <polygon id="Path" fill="#5E48C2" points="0 19.7117647 15.175049 0 31.6425268 0 16.4674778 19.7117647"></polygon>
                        <path d="M66.0369599,33.5294118 C70.6703613,33.5294118 73.5717322,35.9117647 74.4157673,40.3235294 L71.2418434,40.3235294 C70.6703613,37.2176471 68.7536981,36.0617647 66.2303846,36.0617647 C62.599275,36.0617647 60.6474436,39.4411765 60.6474436,43.5088235 C60.6474436,47.7 62.7135714,50.9647059 66.4677695,50.9647059 C68.9207467,50.9647059 70.872578,49.7382353 71.4440602,46.6235294 L74.6267761,46.6235294 C73.7827409,51.0441176 70.8374099,53.4970588 66.2040085,53.4970588 C60.6914038,53.4970588 57.2097419,48.8470588 57.2097419,43.5088235 C57.2009667,38.4088235 60.6386516,33.5294118 66.0369599,33.5294118 Z" id="Path" fill="#1F1646"></path>
                        <path d="M75.4444352,43.5176471 C75.4444352,38.4088235 78.8909121,33.5382353 84.6321097,33.5382353 C90.3733072,33.5382353 93.8197842,38.4176471 93.8197842,43.5176471 C93.8197842,48.6264706 90.3733072,53.5058824 84.6321097,53.5058824 C78.8821201,53.5058824 75.4444352,48.6264706 75.4444352,43.5176471 Z M90.3645152,43.5176471 C90.3645152,39.2558824 88.2983874,36.0705882 84.6233176,36.0705882 C80.9482478,36.0705882 78.8821201,39.2558824 78.8821201,43.5176471 C78.8821201,47.7794118 80.9482478,50.9735294 84.6233176,50.9735294 C88.2983874,50.9647059 90.3645152,47.7794118 90.3645152,43.5176471 Z" id="Shape" fill="#1F1646"></path>
                        <path d="M103.728405,45.0882353 L101.161132,44.5147059 C97.4860619,43.7117647 95.2704696,42.0529412 95.2704696,39.0264706 C95.2704696,35.8323529 98.294929,33.5382353 102.392016,33.5382353 C106.752865,33.5382353 109.812492,36.0705882 110.085045,39.6088235 L106.911121,39.6088235 C106.638568,37.3764706 105.073586,36.0794118 102.392016,36.0794118 C100.176424,36.0794118 98.3740573,36.9617647 98.3740573,38.7264706 C98.3740573,40.3058824 99.5258136,40.8352941 102.392016,41.4882353 L104.95929,42.0617647 C108.63436,42.9088235 110.471895,44.7882353 110.471895,47.9029412 C110.471895,51.2029412 107.790325,53.5147059 102.814034,53.5147059 C97.8377432,53.5147059 94.9275803,50.0205882 94.6989875,46.4117647 L97.8729114,46.4117647 C98.0663361,49.0588235 100.053336,50.9823529 102.92833,50.9823529 C105.381308,50.9823529 107.403475,49.9058824 107.403475,48.1058824 C107.403475,46.8176471 106.638568,45.7411765 103.728405,45.0882353 Z" id="Path" fill="#1F1646"></path>
                        <path d="M115.896579,53.1176471 L112.722655,53.1176471 L112.722655,33.9176471 L115.782283,33.9176471 L115.782283,37.6764706 L115.861411,37.6764706 C116.854911,35.0294118 118.613317,33.5294118 121.338847,33.5294118 C124.556732,33.5294118 126.578899,35.2588235 127.387766,37.6764706 L127.422934,37.6764706 C128.416434,35.0294118 130.447394,33.5294118 133.164132,33.5294118 C137.375516,33.5294118 139.55594,36.4852941 139.55594,40.0941176 L139.55594,53.1176471 L136.373224,53.1176471 L136.373224,41.2147059 C136.373224,38.0205882 135.072003,36.1852941 132.047544,36.1852941 C128.82966,36.1852941 127.721863,38.1794118 127.721863,40.9147059 L127.721863,53.1264706 L124.547939,53.1264706 L124.547939,41.2235294 C124.547939,38.0294118 123.246719,36.1941176 120.222259,36.1941176 C117.004375,36.1941176 115.896579,38.1882353 115.896579,40.9235294 L115.896579,53.1176471 L115.896579,53.1176471 Z" id="Path" fill="#1F1646"></path>
                        <path d="M150.554773,53.5058824 C144.848744,53.5058824 141.67482,48.8558824 141.67482,43.5176471 C141.67482,38.1794118 144.699279,33.5382353 150.396517,33.5382353 C156.102546,33.5382353 159.549023,38.0294118 159.003917,44.4794118 L144.883912,44.4794118 C145.042168,48.4764706 147.336889,50.9735294 150.853702,50.9735294 C154.185883,50.9735294 155.179382,48.6264706 155.592608,47.0558824 L158.775324,47.0558824 C158.089545,50.4705882 155.794825,53.5058824 150.554773,53.5058824 Z M144.883912,41.9382353 L155.873953,41.9382353 C155.6014,38.4794118 153.763865,36.0617647 150.396517,36.0617647 C147.029168,36.0617647 145.191633,38.4794118 144.883912,41.9382353 Z" id="Shape" fill="#1F1646"></path>
                        <path d="M158.88962,36.45 L158.88962,33.9176471 L162.371265,33.9176471 L162.371265,29.5411765 L165.545189,29.5411765 L165.545189,33.9176471 L170.407184,33.9176471 L170.407184,36.45 L165.545189,36.45 L165.545189,48.4764706 C165.545189,49.9764706 166.081503,50.5852941 167.690445,50.5852941 L170.257719,50.5852941 L170.257719,53.1176471 L166.811242,53.1176471 C163.593358,53.1176471 162.371265,51.5823529 162.371265,48.8117647 L162.371265,36.4411765 L158.88962,36.4411765 L158.88962,36.45 Z" id="Path" fill="#1F1646"></path>
                        <path d="M171.427059,26.6117647 L175.137297,26.6117647 L175.137297,30.3352941 L171.427059,30.3352941 L171.427059,26.6117647 Z M174.864744,53.1176471 L171.69082,53.1176471 L171.69082,33.9176471 L174.864744,33.9176471 L174.864744,53.1176471 Z" id="Shape" fill="#1F1646"></path>
                        <path d="M185.845994,33.5294118 C190.470603,33.5294118 193.389558,35.9117647 194.224801,40.3235294 L191.050877,40.3235294 C190.470603,37.2176471 188.562732,36.0617647 186.039418,36.0617647 C182.399517,36.0617647 180.447685,39.4411765 180.447685,43.5088235 C180.447685,47.7 182.513813,50.9647059 186.268011,50.9647059 C188.720988,50.9647059 190.67282,49.7382353 191.244302,46.6235294 L194.418226,46.6235294 C193.574191,51.0441176 190.62886,53.4970588 185.995458,53.4970588 C180.482853,53.4970588 177.001208,48.8470588 177.001208,43.5088235 C177.001208,38.4088235 180.447685,33.5294118 185.845994,33.5294118 Z" id="Path" fill="#1F1646"></path>
                        <path d="M204.274095,45.0882353 L201.706821,44.5147059 C198.031751,43.7117647 195.807367,42.0529412 195.807367,39.0264706 C195.807367,35.8323529 198.831826,33.5382353 202.928914,33.5382353 C207.289762,33.5382353 210.358182,36.0705882 210.621943,39.6088235 L207.439227,39.6088235 C207.175466,37.3764706 205.601692,36.0794118 202.920122,36.0794118 C200.695737,36.0794118 198.902163,36.9617647 198.902163,38.7264706 C198.902163,40.3058824 200.053919,40.8352941 202.920122,41.4882353 L205.487395,42.0617647 C209.162465,42.9088235 211,44.7882353 211,47.9029412 C211,51.2029412 208.31843,53.5147059 203.342139,53.5147059 C198.365849,53.5147059 195.455686,50.0205882 195.227093,46.4117647 L198.409809,46.4117647 C198.603233,49.0588235 200.590233,50.9823529 203.456436,50.9823529 C205.909413,50.9823529 207.93158,49.9058824 207.93158,48.1058824 C207.949165,46.8176471 207.184258,45.7411765 204.274095,45.0882353 Z" id="Path" fill="#1F1646"></path>
                        <polygon id="Path" fill="#1F1646" points="69.1845077 3.41470588 59.0385016 3.41470588 59.0385016 0.882352941 72.1650069 0.882352941 73.0881703 3.41470588 62.6784033 17.55 73.4310596 17.55 73.4310596 20.0823529 59.6979041 20.0823529 58.7659486 17.55"></polygon>
                        <polygon id="Path" fill="#1F1646" points="83.4451852 26.6117647 80.1569649 26.6117647 83.1814242 18.1588235 80.0426684 18.1588235 73.7651569 0.873529412 77.0533772 0.873529412 83.2517605 17.9294118 89.3358473 0.873529412 92.6328597 0.873529412"></polygon>
                        <path d="M96.9233718,20.0823529 L93.7494479,20.0823529 L93.7494479,0.882352941 L96.8090754,0.882352941 L96.8090754,4.64117647 L96.8882037,4.64117647 C97.8817034,1.99411765 99.64011,0.494117647 102.36564,0.494117647 C105.583524,0.494117647 107.605692,2.22352941 108.414559,4.64117647 L108.449727,4.64117647 C109.443227,1.99411765 111.474186,0.494117647 114.190925,0.494117647 C118.402308,0.494117647 120.582733,3.45 120.582733,7.05882353 L120.582733,20.0823529 L117.400017,20.0823529 L117.400017,8.17941176 C117.400017,4.98529412 116.098796,3.15 113.074336,3.15 C109.856452,3.15 108.748656,5.14411765 108.748656,7.87941176 L108.748656,20.0911765 L105.574732,20.0911765 L105.574732,8.18823529 C105.574732,4.99411765 104.273511,3.15882353 101.249052,3.15882353 C98.031168,3.15882353 96.9233718,5.15294118 96.9233718,7.88823529 L96.9233718,20.0823529 L96.9233718,20.0823529 Z" id="Path" fill="#1F1646"></path>
                        <path d="M122.684029,10.4823529 C122.684029,5.37352941 126.130505,0.502941176 131.871703,0.502941176 C137.612901,0.502941176 141.059377,5.38235294 141.059377,10.4823529 C141.059377,15.5911765 137.612901,20.4705882 131.871703,20.4705882 C126.121713,20.4705882 122.684029,15.5911765 122.684029,10.4823529 Z M137.604109,10.4823529 C137.604109,6.22058824 135.537981,3.03529412 131.862911,3.03529412 C128.187841,3.03529412 126.121713,6.22058824 126.121713,10.4823529 C126.121713,14.7441176 128.187841,17.9382353 131.862911,17.9382353 C135.537981,17.9294118 137.604109,14.7441176 137.604109,10.4823529 Z" id="Shape" fill="#1F1646"></path>
                    </g>
                </g>
                <g id="Group" transform="translate(57.000000, 0.000000)">
                    <g transform="translate(0.000000, 26.107505)"></g>
                    <g transform="translate(1.558329, 0.000000)"></g>
                </g>
            </g>
        </g>
    </g>
</svg>